%TF.GenerationSoftware,KiCad,Pcbnew,9.0.6*%
%TF.CreationDate,2026-04-03T23:40:34-04:00*%
%TF.ProjectId,Terminal,5465726d-696e-4616-9c2e-6b696361645f,rev?*%
%TF.SameCoordinates,Original*%
%TF.FileFunction,Legend,Bot*%
%TF.FilePolarity,Positive*%
%FSLAX46Y46*%
G04 Gerber Fmt 4.6, Leading zero omitted, Abs format (unit mm)*
G04 Created by KiCad (PCBNEW 9.0.6) date 2026-04-03 23:40:34*
%MOMM*%
%LPD*%
G01*
G04 APERTURE LIST*
%ADD10C,0.100000*%
%ADD11C,0.120000*%
G04 APERTURE END LIST*
D10*
X101331666Y-44686704D02*
X100855476Y-44686704D01*
X101426904Y-44972419D02*
X101093571Y-43972419D01*
X101093571Y-43972419D02*
X100760238Y-44972419D01*
X99855476Y-44877180D02*
X99903095Y-44924800D01*
X99903095Y-44924800D02*
X100045952Y-44972419D01*
X100045952Y-44972419D02*
X100141190Y-44972419D01*
X100141190Y-44972419D02*
X100284047Y-44924800D01*
X100284047Y-44924800D02*
X100379285Y-44829561D01*
X100379285Y-44829561D02*
X100426904Y-44734323D01*
X100426904Y-44734323D02*
X100474523Y-44543847D01*
X100474523Y-44543847D02*
X100474523Y-44400990D01*
X100474523Y-44400990D02*
X100426904Y-44210514D01*
X100426904Y-44210514D02*
X100379285Y-44115276D01*
X100379285Y-44115276D02*
X100284047Y-44020038D01*
X100284047Y-44020038D02*
X100141190Y-43972419D01*
X100141190Y-43972419D02*
X100045952Y-43972419D01*
X100045952Y-43972419D02*
X99903095Y-44020038D01*
X99903095Y-44020038D02*
X99855476Y-44067657D01*
X99426904Y-44972419D02*
X99426904Y-43972419D01*
X98998333Y-44686704D02*
X98522143Y-44686704D01*
X99093571Y-44972419D02*
X98760238Y-43972419D01*
X98760238Y-43972419D02*
X98426905Y-44972419D01*
X96760238Y-44877180D02*
X96807857Y-44924800D01*
X96807857Y-44924800D02*
X96950714Y-44972419D01*
X96950714Y-44972419D02*
X97045952Y-44972419D01*
X97045952Y-44972419D02*
X97188809Y-44924800D01*
X97188809Y-44924800D02*
X97284047Y-44829561D01*
X97284047Y-44829561D02*
X97331666Y-44734323D01*
X97331666Y-44734323D02*
X97379285Y-44543847D01*
X97379285Y-44543847D02*
X97379285Y-44400990D01*
X97379285Y-44400990D02*
X97331666Y-44210514D01*
X97331666Y-44210514D02*
X97284047Y-44115276D01*
X97284047Y-44115276D02*
X97188809Y-44020038D01*
X97188809Y-44020038D02*
X97045952Y-43972419D01*
X97045952Y-43972419D02*
X96950714Y-43972419D01*
X96950714Y-43972419D02*
X96807857Y-44020038D01*
X96807857Y-44020038D02*
X96760238Y-44067657D01*
X95855476Y-44972419D02*
X96331666Y-44972419D01*
X96331666Y-44972419D02*
X96331666Y-43972419D01*
X95522142Y-44972419D02*
X95522142Y-43972419D01*
X94950714Y-44972419D02*
X95379285Y-44400990D01*
X94950714Y-43972419D02*
X95522142Y-44543847D01*
X93807857Y-43924800D02*
X94664999Y-45210514D01*
X92950714Y-44972419D02*
X93522142Y-44972419D01*
X93236428Y-44972419D02*
X93236428Y-43972419D01*
X93236428Y-43972419D02*
X93331666Y-44115276D01*
X93331666Y-44115276D02*
X93426904Y-44210514D01*
X93426904Y-44210514D02*
X93522142Y-44258133D01*
X92093571Y-43972419D02*
X92284047Y-43972419D01*
X92284047Y-43972419D02*
X92379285Y-44020038D01*
X92379285Y-44020038D02*
X92426904Y-44067657D01*
X92426904Y-44067657D02*
X92522142Y-44210514D01*
X92522142Y-44210514D02*
X92569761Y-44400990D01*
X92569761Y-44400990D02*
X92569761Y-44781942D01*
X92569761Y-44781942D02*
X92522142Y-44877180D01*
X92522142Y-44877180D02*
X92474523Y-44924800D01*
X92474523Y-44924800D02*
X92379285Y-44972419D01*
X92379285Y-44972419D02*
X92188809Y-44972419D01*
X92188809Y-44972419D02*
X92093571Y-44924800D01*
X92093571Y-44924800D02*
X92045952Y-44877180D01*
X92045952Y-44877180D02*
X91998333Y-44781942D01*
X91998333Y-44781942D02*
X91998333Y-44543847D01*
X91998333Y-44543847D02*
X92045952Y-44448609D01*
X92045952Y-44448609D02*
X92093571Y-44400990D01*
X92093571Y-44400990D02*
X92188809Y-44353371D01*
X92188809Y-44353371D02*
X92379285Y-44353371D01*
X92379285Y-44353371D02*
X92474523Y-44400990D01*
X92474523Y-44400990D02*
X92522142Y-44448609D01*
X92522142Y-44448609D02*
X92569761Y-44543847D01*
X117785000Y-104676704D02*
X117308810Y-104676704D01*
X117880238Y-104962419D02*
X117546905Y-103962419D01*
X117546905Y-103962419D02*
X117213572Y-104962419D01*
X116308810Y-104867180D02*
X116356429Y-104914800D01*
X116356429Y-104914800D02*
X116499286Y-104962419D01*
X116499286Y-104962419D02*
X116594524Y-104962419D01*
X116594524Y-104962419D02*
X116737381Y-104914800D01*
X116737381Y-104914800D02*
X116832619Y-104819561D01*
X116832619Y-104819561D02*
X116880238Y-104724323D01*
X116880238Y-104724323D02*
X116927857Y-104533847D01*
X116927857Y-104533847D02*
X116927857Y-104390990D01*
X116927857Y-104390990D02*
X116880238Y-104200514D01*
X116880238Y-104200514D02*
X116832619Y-104105276D01*
X116832619Y-104105276D02*
X116737381Y-104010038D01*
X116737381Y-104010038D02*
X116594524Y-103962419D01*
X116594524Y-103962419D02*
X116499286Y-103962419D01*
X116499286Y-103962419D02*
X116356429Y-104010038D01*
X116356429Y-104010038D02*
X116308810Y-104057657D01*
X115880238Y-104962419D02*
X115880238Y-103962419D01*
X115451667Y-104676704D02*
X114975477Y-104676704D01*
X115546905Y-104962419D02*
X115213572Y-103962419D01*
X115213572Y-103962419D02*
X114880239Y-104962419D01*
X113594524Y-103962419D02*
X113404048Y-103962419D01*
X113404048Y-103962419D02*
X113308810Y-104010038D01*
X113308810Y-104010038D02*
X113213572Y-104105276D01*
X113213572Y-104105276D02*
X113165953Y-104295752D01*
X113165953Y-104295752D02*
X113165953Y-104629085D01*
X113165953Y-104629085D02*
X113213572Y-104819561D01*
X113213572Y-104819561D02*
X113308810Y-104914800D01*
X113308810Y-104914800D02*
X113404048Y-104962419D01*
X113404048Y-104962419D02*
X113594524Y-104962419D01*
X113594524Y-104962419D02*
X113689762Y-104914800D01*
X113689762Y-104914800D02*
X113785000Y-104819561D01*
X113785000Y-104819561D02*
X113832619Y-104629085D01*
X113832619Y-104629085D02*
X113832619Y-104295752D01*
X113832619Y-104295752D02*
X113785000Y-104105276D01*
X113785000Y-104105276D02*
X113689762Y-104010038D01*
X113689762Y-104010038D02*
X113594524Y-103962419D01*
X112880238Y-104295752D02*
X112499286Y-104295752D01*
X112737381Y-104962419D02*
X112737381Y-104105276D01*
X112737381Y-104105276D02*
X112689762Y-104010038D01*
X112689762Y-104010038D02*
X112594524Y-103962419D01*
X112594524Y-103962419D02*
X112499286Y-103962419D01*
X112308809Y-104295752D02*
X111927857Y-104295752D01*
X112165952Y-104962419D02*
X112165952Y-104105276D01*
X112165952Y-104105276D02*
X112118333Y-104010038D01*
X112118333Y-104010038D02*
X112023095Y-103962419D01*
X112023095Y-103962419D02*
X111927857Y-103962419D01*
X111642142Y-104914800D02*
X111546904Y-104962419D01*
X111546904Y-104962419D02*
X111356428Y-104962419D01*
X111356428Y-104962419D02*
X111261190Y-104914800D01*
X111261190Y-104914800D02*
X111213571Y-104819561D01*
X111213571Y-104819561D02*
X111213571Y-104771942D01*
X111213571Y-104771942D02*
X111261190Y-104676704D01*
X111261190Y-104676704D02*
X111356428Y-104629085D01*
X111356428Y-104629085D02*
X111499285Y-104629085D01*
X111499285Y-104629085D02*
X111594523Y-104581466D01*
X111594523Y-104581466D02*
X111642142Y-104486228D01*
X111642142Y-104486228D02*
X111642142Y-104438609D01*
X111642142Y-104438609D02*
X111594523Y-104343371D01*
X111594523Y-104343371D02*
X111499285Y-104295752D01*
X111499285Y-104295752D02*
X111356428Y-104295752D01*
X111356428Y-104295752D02*
X111261190Y-104343371D01*
X110404047Y-104914800D02*
X110499285Y-104962419D01*
X110499285Y-104962419D02*
X110689761Y-104962419D01*
X110689761Y-104962419D02*
X110784999Y-104914800D01*
X110784999Y-104914800D02*
X110832618Y-104819561D01*
X110832618Y-104819561D02*
X110832618Y-104438609D01*
X110832618Y-104438609D02*
X110784999Y-104343371D01*
X110784999Y-104343371D02*
X110689761Y-104295752D01*
X110689761Y-104295752D02*
X110499285Y-104295752D01*
X110499285Y-104295752D02*
X110404047Y-104343371D01*
X110404047Y-104343371D02*
X110356428Y-104438609D01*
X110356428Y-104438609D02*
X110356428Y-104533847D01*
X110356428Y-104533847D02*
X110832618Y-104629085D01*
X110070713Y-104295752D02*
X109689761Y-104295752D01*
X109927856Y-103962419D02*
X109927856Y-104819561D01*
X109927856Y-104819561D02*
X109880237Y-104914800D01*
X109880237Y-104914800D02*
X109784999Y-104962419D01*
X109784999Y-104962419D02*
X109689761Y-104962419D01*
X96716074Y-123704895D02*
X96716074Y-122904895D01*
X96373217Y-123704895D02*
X96373217Y-123285847D01*
X96373217Y-123285847D02*
X96411312Y-123209657D01*
X96411312Y-123209657D02*
X96487503Y-123171561D01*
X96487503Y-123171561D02*
X96601789Y-123171561D01*
X96601789Y-123171561D02*
X96677979Y-123209657D01*
X96677979Y-123209657D02*
X96716074Y-123247752D01*
X96106550Y-123171561D02*
X95801788Y-123171561D01*
X95992264Y-122904895D02*
X95992264Y-123590609D01*
X95992264Y-123590609D02*
X95954169Y-123666800D01*
X95954169Y-123666800D02*
X95877979Y-123704895D01*
X95877979Y-123704895D02*
X95801788Y-123704895D01*
X95649407Y-123171561D02*
X95344645Y-123171561D01*
X95535121Y-122904895D02*
X95535121Y-123590609D01*
X95535121Y-123590609D02*
X95497026Y-123666800D01*
X95497026Y-123666800D02*
X95420836Y-123704895D01*
X95420836Y-123704895D02*
X95344645Y-123704895D01*
X95077978Y-123171561D02*
X95077978Y-123971561D01*
X95077978Y-123209657D02*
X95001788Y-123171561D01*
X95001788Y-123171561D02*
X94849407Y-123171561D01*
X94849407Y-123171561D02*
X94773216Y-123209657D01*
X94773216Y-123209657D02*
X94735121Y-123247752D01*
X94735121Y-123247752D02*
X94697026Y-123323942D01*
X94697026Y-123323942D02*
X94697026Y-123552514D01*
X94697026Y-123552514D02*
X94735121Y-123628704D01*
X94735121Y-123628704D02*
X94773216Y-123666800D01*
X94773216Y-123666800D02*
X94849407Y-123704895D01*
X94849407Y-123704895D02*
X95001788Y-123704895D01*
X95001788Y-123704895D02*
X95077978Y-123666800D01*
X94392264Y-123666800D02*
X94316073Y-123704895D01*
X94316073Y-123704895D02*
X94163692Y-123704895D01*
X94163692Y-123704895D02*
X94087502Y-123666800D01*
X94087502Y-123666800D02*
X94049406Y-123590609D01*
X94049406Y-123590609D02*
X94049406Y-123552514D01*
X94049406Y-123552514D02*
X94087502Y-123476323D01*
X94087502Y-123476323D02*
X94163692Y-123438228D01*
X94163692Y-123438228D02*
X94277978Y-123438228D01*
X94277978Y-123438228D02*
X94354168Y-123400133D01*
X94354168Y-123400133D02*
X94392264Y-123323942D01*
X94392264Y-123323942D02*
X94392264Y-123285847D01*
X94392264Y-123285847D02*
X94354168Y-123209657D01*
X94354168Y-123209657D02*
X94277978Y-123171561D01*
X94277978Y-123171561D02*
X94163692Y-123171561D01*
X94163692Y-123171561D02*
X94087502Y-123209657D01*
X93706549Y-123628704D02*
X93668454Y-123666800D01*
X93668454Y-123666800D02*
X93706549Y-123704895D01*
X93706549Y-123704895D02*
X93744645Y-123666800D01*
X93744645Y-123666800D02*
X93706549Y-123628704D01*
X93706549Y-123628704D02*
X93706549Y-123704895D01*
X93706549Y-123209657D02*
X93668454Y-123247752D01*
X93668454Y-123247752D02*
X93706549Y-123285847D01*
X93706549Y-123285847D02*
X93744645Y-123247752D01*
X93744645Y-123247752D02*
X93706549Y-123209657D01*
X93706549Y-123209657D02*
X93706549Y-123285847D01*
X92754169Y-122866800D02*
X93439883Y-123895371D01*
X91916074Y-122866800D02*
X92601788Y-123895371D01*
X91306550Y-123171561D02*
X91306550Y-123819180D01*
X91306550Y-123819180D02*
X91344645Y-123895371D01*
X91344645Y-123895371D02*
X91382741Y-123933466D01*
X91382741Y-123933466D02*
X91458931Y-123971561D01*
X91458931Y-123971561D02*
X91573217Y-123971561D01*
X91573217Y-123971561D02*
X91649407Y-123933466D01*
X91306550Y-123666800D02*
X91382741Y-123704895D01*
X91382741Y-123704895D02*
X91535122Y-123704895D01*
X91535122Y-123704895D02*
X91611312Y-123666800D01*
X91611312Y-123666800D02*
X91649407Y-123628704D01*
X91649407Y-123628704D02*
X91687503Y-123552514D01*
X91687503Y-123552514D02*
X91687503Y-123323942D01*
X91687503Y-123323942D02*
X91649407Y-123247752D01*
X91649407Y-123247752D02*
X91611312Y-123209657D01*
X91611312Y-123209657D02*
X91535122Y-123171561D01*
X91535122Y-123171561D02*
X91382741Y-123171561D01*
X91382741Y-123171561D02*
X91306550Y-123209657D01*
X90925597Y-123704895D02*
X90925597Y-123171561D01*
X90925597Y-122904895D02*
X90963693Y-122942990D01*
X90963693Y-122942990D02*
X90925597Y-122981085D01*
X90925597Y-122981085D02*
X90887502Y-122942990D01*
X90887502Y-122942990D02*
X90925597Y-122904895D01*
X90925597Y-122904895D02*
X90925597Y-122981085D01*
X90658931Y-123171561D02*
X90354169Y-123171561D01*
X90544645Y-122904895D02*
X90544645Y-123590609D01*
X90544645Y-123590609D02*
X90506550Y-123666800D01*
X90506550Y-123666800D02*
X90430360Y-123704895D01*
X90430360Y-123704895D02*
X90354169Y-123704895D01*
X90087502Y-123704895D02*
X90087502Y-122904895D01*
X89744645Y-123704895D02*
X89744645Y-123285847D01*
X89744645Y-123285847D02*
X89782740Y-123209657D01*
X89782740Y-123209657D02*
X89858931Y-123171561D01*
X89858931Y-123171561D02*
X89973217Y-123171561D01*
X89973217Y-123171561D02*
X90049407Y-123209657D01*
X90049407Y-123209657D02*
X90087502Y-123247752D01*
X89020835Y-123171561D02*
X89020835Y-123704895D01*
X89363692Y-123171561D02*
X89363692Y-123590609D01*
X89363692Y-123590609D02*
X89325597Y-123666800D01*
X89325597Y-123666800D02*
X89249407Y-123704895D01*
X89249407Y-123704895D02*
X89135121Y-123704895D01*
X89135121Y-123704895D02*
X89058930Y-123666800D01*
X89058930Y-123666800D02*
X89020835Y-123628704D01*
X88639882Y-123704895D02*
X88639882Y-122904895D01*
X88639882Y-123209657D02*
X88563692Y-123171561D01*
X88563692Y-123171561D02*
X88411311Y-123171561D01*
X88411311Y-123171561D02*
X88335120Y-123209657D01*
X88335120Y-123209657D02*
X88297025Y-123247752D01*
X88297025Y-123247752D02*
X88258930Y-123323942D01*
X88258930Y-123323942D02*
X88258930Y-123552514D01*
X88258930Y-123552514D02*
X88297025Y-123628704D01*
X88297025Y-123628704D02*
X88335120Y-123666800D01*
X88335120Y-123666800D02*
X88411311Y-123704895D01*
X88411311Y-123704895D02*
X88563692Y-123704895D01*
X88563692Y-123704895D02*
X88639882Y-123666800D01*
X87916072Y-123628704D02*
X87877977Y-123666800D01*
X87877977Y-123666800D02*
X87916072Y-123704895D01*
X87916072Y-123704895D02*
X87954168Y-123666800D01*
X87954168Y-123666800D02*
X87916072Y-123628704D01*
X87916072Y-123628704D02*
X87916072Y-123704895D01*
X87192263Y-123666800D02*
X87268454Y-123704895D01*
X87268454Y-123704895D02*
X87420835Y-123704895D01*
X87420835Y-123704895D02*
X87497025Y-123666800D01*
X87497025Y-123666800D02*
X87535120Y-123628704D01*
X87535120Y-123628704D02*
X87573216Y-123552514D01*
X87573216Y-123552514D02*
X87573216Y-123323942D01*
X87573216Y-123323942D02*
X87535120Y-123247752D01*
X87535120Y-123247752D02*
X87497025Y-123209657D01*
X87497025Y-123209657D02*
X87420835Y-123171561D01*
X87420835Y-123171561D02*
X87268454Y-123171561D01*
X87268454Y-123171561D02*
X87192263Y-123209657D01*
X86735121Y-123704895D02*
X86811311Y-123666800D01*
X86811311Y-123666800D02*
X86849406Y-123628704D01*
X86849406Y-123628704D02*
X86887502Y-123552514D01*
X86887502Y-123552514D02*
X86887502Y-123323942D01*
X86887502Y-123323942D02*
X86849406Y-123247752D01*
X86849406Y-123247752D02*
X86811311Y-123209657D01*
X86811311Y-123209657D02*
X86735121Y-123171561D01*
X86735121Y-123171561D02*
X86620835Y-123171561D01*
X86620835Y-123171561D02*
X86544644Y-123209657D01*
X86544644Y-123209657D02*
X86506549Y-123247752D01*
X86506549Y-123247752D02*
X86468454Y-123323942D01*
X86468454Y-123323942D02*
X86468454Y-123552514D01*
X86468454Y-123552514D02*
X86506549Y-123628704D01*
X86506549Y-123628704D02*
X86544644Y-123666800D01*
X86544644Y-123666800D02*
X86620835Y-123704895D01*
X86620835Y-123704895D02*
X86735121Y-123704895D01*
X86125596Y-123704895D02*
X86125596Y-123171561D01*
X86125596Y-123247752D02*
X86087501Y-123209657D01*
X86087501Y-123209657D02*
X86011311Y-123171561D01*
X86011311Y-123171561D02*
X85897025Y-123171561D01*
X85897025Y-123171561D02*
X85820834Y-123209657D01*
X85820834Y-123209657D02*
X85782739Y-123285847D01*
X85782739Y-123285847D02*
X85782739Y-123704895D01*
X85782739Y-123285847D02*
X85744644Y-123209657D01*
X85744644Y-123209657D02*
X85668453Y-123171561D01*
X85668453Y-123171561D02*
X85554168Y-123171561D01*
X85554168Y-123171561D02*
X85477977Y-123209657D01*
X85477977Y-123209657D02*
X85439882Y-123285847D01*
X85439882Y-123285847D02*
X85439882Y-123704895D01*
X84487501Y-122866800D02*
X85173215Y-123895371D01*
X84297025Y-122904895D02*
X84106549Y-123704895D01*
X84106549Y-123704895D02*
X83954168Y-123133466D01*
X83954168Y-123133466D02*
X83801787Y-123704895D01*
X83801787Y-123704895D02*
X83611311Y-122904895D01*
X83306548Y-123704895D02*
X83306548Y-123171561D01*
X83306548Y-123323942D02*
X83268453Y-123247752D01*
X83268453Y-123247752D02*
X83230358Y-123209657D01*
X83230358Y-123209657D02*
X83154167Y-123171561D01*
X83154167Y-123171561D02*
X83077977Y-123171561D01*
X82506548Y-123666800D02*
X82582739Y-123704895D01*
X82582739Y-123704895D02*
X82735120Y-123704895D01*
X82735120Y-123704895D02*
X82811310Y-123666800D01*
X82811310Y-123666800D02*
X82849406Y-123590609D01*
X82849406Y-123590609D02*
X82849406Y-123285847D01*
X82849406Y-123285847D02*
X82811310Y-123209657D01*
X82811310Y-123209657D02*
X82735120Y-123171561D01*
X82735120Y-123171561D02*
X82582739Y-123171561D01*
X82582739Y-123171561D02*
X82506548Y-123209657D01*
X82506548Y-123209657D02*
X82468453Y-123285847D01*
X82468453Y-123285847D02*
X82468453Y-123362038D01*
X82468453Y-123362038D02*
X82849406Y-123438228D01*
X82125596Y-123171561D02*
X82125596Y-123704895D01*
X82125596Y-123247752D02*
X82087501Y-123209657D01*
X82087501Y-123209657D02*
X82011311Y-123171561D01*
X82011311Y-123171561D02*
X81897025Y-123171561D01*
X81897025Y-123171561D02*
X81820834Y-123209657D01*
X81820834Y-123209657D02*
X81782739Y-123285847D01*
X81782739Y-123285847D02*
X81782739Y-123704895D01*
X81058929Y-122904895D02*
X81211310Y-122904895D01*
X81211310Y-122904895D02*
X81287501Y-122942990D01*
X81287501Y-122942990D02*
X81325596Y-122981085D01*
X81325596Y-122981085D02*
X81401786Y-123095371D01*
X81401786Y-123095371D02*
X81439882Y-123247752D01*
X81439882Y-123247752D02*
X81439882Y-123552514D01*
X81439882Y-123552514D02*
X81401786Y-123628704D01*
X81401786Y-123628704D02*
X81363691Y-123666800D01*
X81363691Y-123666800D02*
X81287501Y-123704895D01*
X81287501Y-123704895D02*
X81135120Y-123704895D01*
X81135120Y-123704895D02*
X81058929Y-123666800D01*
X81058929Y-123666800D02*
X81020834Y-123628704D01*
X81020834Y-123628704D02*
X80982739Y-123552514D01*
X80982739Y-123552514D02*
X80982739Y-123362038D01*
X80982739Y-123362038D02*
X81020834Y-123285847D01*
X81020834Y-123285847D02*
X81058929Y-123247752D01*
X81058929Y-123247752D02*
X81135120Y-123209657D01*
X81135120Y-123209657D02*
X81287501Y-123209657D01*
X81287501Y-123209657D02*
X81363691Y-123247752D01*
X81363691Y-123247752D02*
X81401786Y-123285847D01*
X81401786Y-123285847D02*
X81439882Y-123362038D01*
X80601786Y-123704895D02*
X80449405Y-123704895D01*
X80449405Y-123704895D02*
X80373215Y-123666800D01*
X80373215Y-123666800D02*
X80335119Y-123628704D01*
X80335119Y-123628704D02*
X80258929Y-123514419D01*
X80258929Y-123514419D02*
X80220834Y-123362038D01*
X80220834Y-123362038D02*
X80220834Y-123057276D01*
X80220834Y-123057276D02*
X80258929Y-122981085D01*
X80258929Y-122981085D02*
X80297024Y-122942990D01*
X80297024Y-122942990D02*
X80373215Y-122904895D01*
X80373215Y-122904895D02*
X80525596Y-122904895D01*
X80525596Y-122904895D02*
X80601786Y-122942990D01*
X80601786Y-122942990D02*
X80639881Y-122981085D01*
X80639881Y-122981085D02*
X80677977Y-123057276D01*
X80677977Y-123057276D02*
X80677977Y-123247752D01*
X80677977Y-123247752D02*
X80639881Y-123323942D01*
X80639881Y-123323942D02*
X80601786Y-123362038D01*
X80601786Y-123362038D02*
X80525596Y-123400133D01*
X80525596Y-123400133D02*
X80373215Y-123400133D01*
X80373215Y-123400133D02*
X80297024Y-123362038D01*
X80297024Y-123362038D02*
X80258929Y-123323942D01*
X80258929Y-123323942D02*
X80220834Y-123247752D01*
X79839881Y-123704895D02*
X79687500Y-123704895D01*
X79687500Y-123704895D02*
X79611310Y-123666800D01*
X79611310Y-123666800D02*
X79573214Y-123628704D01*
X79573214Y-123628704D02*
X79497024Y-123514419D01*
X79497024Y-123514419D02*
X79458929Y-123362038D01*
X79458929Y-123362038D02*
X79458929Y-123057276D01*
X79458929Y-123057276D02*
X79497024Y-122981085D01*
X79497024Y-122981085D02*
X79535119Y-122942990D01*
X79535119Y-122942990D02*
X79611310Y-122904895D01*
X79611310Y-122904895D02*
X79763691Y-122904895D01*
X79763691Y-122904895D02*
X79839881Y-122942990D01*
X79839881Y-122942990D02*
X79877976Y-122981085D01*
X79877976Y-122981085D02*
X79916072Y-123057276D01*
X79916072Y-123057276D02*
X79916072Y-123247752D01*
X79916072Y-123247752D02*
X79877976Y-123323942D01*
X79877976Y-123323942D02*
X79839881Y-123362038D01*
X79839881Y-123362038D02*
X79763691Y-123400133D01*
X79763691Y-123400133D02*
X79611310Y-123400133D01*
X79611310Y-123400133D02*
X79535119Y-123362038D01*
X79535119Y-123362038D02*
X79497024Y-123323942D01*
X79497024Y-123323942D02*
X79458929Y-123247752D01*
X78697024Y-123704895D02*
X79154167Y-123704895D01*
X78925595Y-123704895D02*
X78925595Y-122904895D01*
X78925595Y-122904895D02*
X79001786Y-123019180D01*
X79001786Y-123019180D02*
X79077976Y-123095371D01*
X79077976Y-123095371D02*
X79154167Y-123133466D01*
X77782738Y-122866800D02*
X78468452Y-123895371D01*
X77516071Y-123704895D02*
X77516071Y-122904895D01*
X77516071Y-122904895D02*
X77211309Y-122904895D01*
X77211309Y-122904895D02*
X77135119Y-122942990D01*
X77135119Y-122942990D02*
X77097024Y-122981085D01*
X77097024Y-122981085D02*
X77058928Y-123057276D01*
X77058928Y-123057276D02*
X77058928Y-123171561D01*
X77058928Y-123171561D02*
X77097024Y-123247752D01*
X77097024Y-123247752D02*
X77135119Y-123285847D01*
X77135119Y-123285847D02*
X77211309Y-123323942D01*
X77211309Y-123323942D02*
X77516071Y-123323942D01*
X76716071Y-123704895D02*
X76716071Y-123171561D01*
X76716071Y-122904895D02*
X76754167Y-122942990D01*
X76754167Y-122942990D02*
X76716071Y-122981085D01*
X76716071Y-122981085D02*
X76677976Y-122942990D01*
X76677976Y-122942990D02*
X76716071Y-122904895D01*
X76716071Y-122904895D02*
X76716071Y-122981085D01*
X75992262Y-123666800D02*
X76068453Y-123704895D01*
X76068453Y-123704895D02*
X76220834Y-123704895D01*
X76220834Y-123704895D02*
X76297024Y-123666800D01*
X76297024Y-123666800D02*
X76335119Y-123628704D01*
X76335119Y-123628704D02*
X76373215Y-123552514D01*
X76373215Y-123552514D02*
X76373215Y-123323942D01*
X76373215Y-123323942D02*
X76335119Y-123247752D01*
X76335119Y-123247752D02*
X76297024Y-123209657D01*
X76297024Y-123209657D02*
X76220834Y-123171561D01*
X76220834Y-123171561D02*
X76068453Y-123171561D01*
X76068453Y-123171561D02*
X75992262Y-123209657D01*
X75535120Y-123704895D02*
X75611310Y-123666800D01*
X75611310Y-123666800D02*
X75649405Y-123628704D01*
X75649405Y-123628704D02*
X75687501Y-123552514D01*
X75687501Y-123552514D02*
X75687501Y-123323942D01*
X75687501Y-123323942D02*
X75649405Y-123247752D01*
X75649405Y-123247752D02*
X75611310Y-123209657D01*
X75611310Y-123209657D02*
X75535120Y-123171561D01*
X75535120Y-123171561D02*
X75420834Y-123171561D01*
X75420834Y-123171561D02*
X75344643Y-123209657D01*
X75344643Y-123209657D02*
X75306548Y-123247752D01*
X75306548Y-123247752D02*
X75268453Y-123323942D01*
X75268453Y-123323942D02*
X75268453Y-123552514D01*
X75268453Y-123552514D02*
X75306548Y-123628704D01*
X75306548Y-123628704D02*
X75344643Y-123666800D01*
X75344643Y-123666800D02*
X75420834Y-123704895D01*
X75420834Y-123704895D02*
X75535120Y-123704895D01*
X74925595Y-123704895D02*
X74925595Y-122904895D01*
X74925595Y-122904895D02*
X74735119Y-122904895D01*
X74735119Y-122904895D02*
X74620833Y-122942990D01*
X74620833Y-122942990D02*
X74544643Y-123019180D01*
X74544643Y-123019180D02*
X74506548Y-123095371D01*
X74506548Y-123095371D02*
X74468452Y-123247752D01*
X74468452Y-123247752D02*
X74468452Y-123362038D01*
X74468452Y-123362038D02*
X74506548Y-123514419D01*
X74506548Y-123514419D02*
X74544643Y-123590609D01*
X74544643Y-123590609D02*
X74620833Y-123666800D01*
X74620833Y-123666800D02*
X74735119Y-123704895D01*
X74735119Y-123704895D02*
X74925595Y-123704895D01*
X74239881Y-122904895D02*
X73973214Y-123704895D01*
X73973214Y-123704895D02*
X73706548Y-122904895D01*
X73439881Y-123704895D02*
X73439881Y-122904895D01*
X72449405Y-123704895D02*
X72449405Y-123171561D01*
X72449405Y-122904895D02*
X72487501Y-122942990D01*
X72487501Y-122942990D02*
X72449405Y-122981085D01*
X72449405Y-122981085D02*
X72411310Y-122942990D01*
X72411310Y-122942990D02*
X72449405Y-122904895D01*
X72449405Y-122904895D02*
X72449405Y-122981085D01*
X72106549Y-123666800D02*
X72030358Y-123704895D01*
X72030358Y-123704895D02*
X71877977Y-123704895D01*
X71877977Y-123704895D02*
X71801787Y-123666800D01*
X71801787Y-123666800D02*
X71763691Y-123590609D01*
X71763691Y-123590609D02*
X71763691Y-123552514D01*
X71763691Y-123552514D02*
X71801787Y-123476323D01*
X71801787Y-123476323D02*
X71877977Y-123438228D01*
X71877977Y-123438228D02*
X71992263Y-123438228D01*
X71992263Y-123438228D02*
X72068453Y-123400133D01*
X72068453Y-123400133D02*
X72106549Y-123323942D01*
X72106549Y-123323942D02*
X72106549Y-123285847D01*
X72106549Y-123285847D02*
X72068453Y-123209657D01*
X72068453Y-123209657D02*
X71992263Y-123171561D01*
X71992263Y-123171561D02*
X71877977Y-123171561D01*
X71877977Y-123171561D02*
X71801787Y-123209657D01*
X70468453Y-123704895D02*
X70468453Y-122904895D01*
X70468453Y-123666800D02*
X70544644Y-123704895D01*
X70544644Y-123704895D02*
X70697025Y-123704895D01*
X70697025Y-123704895D02*
X70773215Y-123666800D01*
X70773215Y-123666800D02*
X70811310Y-123628704D01*
X70811310Y-123628704D02*
X70849406Y-123552514D01*
X70849406Y-123552514D02*
X70849406Y-123323942D01*
X70849406Y-123323942D02*
X70811310Y-123247752D01*
X70811310Y-123247752D02*
X70773215Y-123209657D01*
X70773215Y-123209657D02*
X70697025Y-123171561D01*
X70697025Y-123171561D02*
X70544644Y-123171561D01*
X70544644Y-123171561D02*
X70468453Y-123209657D01*
X70087500Y-123704895D02*
X70087500Y-123171561D01*
X70087500Y-123323942D02*
X70049405Y-123247752D01*
X70049405Y-123247752D02*
X70011310Y-123209657D01*
X70011310Y-123209657D02*
X69935119Y-123171561D01*
X69935119Y-123171561D02*
X69858929Y-123171561D01*
X69592262Y-123704895D02*
X69592262Y-123171561D01*
X69592262Y-122904895D02*
X69630358Y-122942990D01*
X69630358Y-122942990D02*
X69592262Y-122981085D01*
X69592262Y-122981085D02*
X69554167Y-122942990D01*
X69554167Y-122942990D02*
X69592262Y-122904895D01*
X69592262Y-122904895D02*
X69592262Y-122981085D01*
X69287501Y-123171561D02*
X69097025Y-123704895D01*
X69097025Y-123704895D02*
X68906548Y-123171561D01*
X68601786Y-123704895D02*
X68601786Y-123171561D01*
X68601786Y-122904895D02*
X68639882Y-122942990D01*
X68639882Y-122942990D02*
X68601786Y-122981085D01*
X68601786Y-122981085D02*
X68563691Y-122942990D01*
X68563691Y-122942990D02*
X68601786Y-122904895D01*
X68601786Y-122904895D02*
X68601786Y-122981085D01*
X68220834Y-123171561D02*
X68220834Y-123704895D01*
X68220834Y-123247752D02*
X68182739Y-123209657D01*
X68182739Y-123209657D02*
X68106549Y-123171561D01*
X68106549Y-123171561D02*
X67992263Y-123171561D01*
X67992263Y-123171561D02*
X67916072Y-123209657D01*
X67916072Y-123209657D02*
X67877977Y-123285847D01*
X67877977Y-123285847D02*
X67877977Y-123704895D01*
X67154167Y-123171561D02*
X67154167Y-123819180D01*
X67154167Y-123819180D02*
X67192262Y-123895371D01*
X67192262Y-123895371D02*
X67230358Y-123933466D01*
X67230358Y-123933466D02*
X67306548Y-123971561D01*
X67306548Y-123971561D02*
X67420834Y-123971561D01*
X67420834Y-123971561D02*
X67497024Y-123933466D01*
X67154167Y-123666800D02*
X67230358Y-123704895D01*
X67230358Y-123704895D02*
X67382739Y-123704895D01*
X67382739Y-123704895D02*
X67458929Y-123666800D01*
X67458929Y-123666800D02*
X67497024Y-123628704D01*
X67497024Y-123628704D02*
X67535120Y-123552514D01*
X67535120Y-123552514D02*
X67535120Y-123323942D01*
X67535120Y-123323942D02*
X67497024Y-123247752D01*
X67497024Y-123247752D02*
X67458929Y-123209657D01*
X67458929Y-123209657D02*
X67382739Y-123171561D01*
X67382739Y-123171561D02*
X67230358Y-123171561D01*
X67230358Y-123171561D02*
X67154167Y-123209657D01*
X66277976Y-123171561D02*
X65973214Y-123171561D01*
X66163690Y-122904895D02*
X66163690Y-123590609D01*
X66163690Y-123590609D02*
X66125595Y-123666800D01*
X66125595Y-123666800D02*
X66049405Y-123704895D01*
X66049405Y-123704895D02*
X65973214Y-123704895D01*
X65706547Y-123704895D02*
X65706547Y-122904895D01*
X65363690Y-123704895D02*
X65363690Y-123285847D01*
X65363690Y-123285847D02*
X65401785Y-123209657D01*
X65401785Y-123209657D02*
X65477976Y-123171561D01*
X65477976Y-123171561D02*
X65592262Y-123171561D01*
X65592262Y-123171561D02*
X65668452Y-123209657D01*
X65668452Y-123209657D02*
X65706547Y-123247752D01*
X64677975Y-123666800D02*
X64754166Y-123704895D01*
X64754166Y-123704895D02*
X64906547Y-123704895D01*
X64906547Y-123704895D02*
X64982737Y-123666800D01*
X64982737Y-123666800D02*
X65020833Y-123590609D01*
X65020833Y-123590609D02*
X65020833Y-123285847D01*
X65020833Y-123285847D02*
X64982737Y-123209657D01*
X64982737Y-123209657D02*
X64906547Y-123171561D01*
X64906547Y-123171561D02*
X64754166Y-123171561D01*
X64754166Y-123171561D02*
X64677975Y-123209657D01*
X64677975Y-123209657D02*
X64639880Y-123285847D01*
X64639880Y-123285847D02*
X64639880Y-123362038D01*
X64639880Y-123362038D02*
X65020833Y-123438228D01*
X63763690Y-123171561D02*
X63573214Y-123704895D01*
X63573214Y-123704895D02*
X63382737Y-123171561D01*
X63077975Y-123704895D02*
X63077975Y-123171561D01*
X63077975Y-122904895D02*
X63116071Y-122942990D01*
X63116071Y-122942990D02*
X63077975Y-122981085D01*
X63077975Y-122981085D02*
X63039880Y-122942990D01*
X63039880Y-122942990D02*
X63077975Y-122904895D01*
X63077975Y-122904895D02*
X63077975Y-122981085D01*
X62354166Y-123704895D02*
X62354166Y-122904895D01*
X62354166Y-123666800D02*
X62430357Y-123704895D01*
X62430357Y-123704895D02*
X62582738Y-123704895D01*
X62582738Y-123704895D02*
X62658928Y-123666800D01*
X62658928Y-123666800D02*
X62697023Y-123628704D01*
X62697023Y-123628704D02*
X62735119Y-123552514D01*
X62735119Y-123552514D02*
X62735119Y-123323942D01*
X62735119Y-123323942D02*
X62697023Y-123247752D01*
X62697023Y-123247752D02*
X62658928Y-123209657D01*
X62658928Y-123209657D02*
X62582738Y-123171561D01*
X62582738Y-123171561D02*
X62430357Y-123171561D01*
X62430357Y-123171561D02*
X62354166Y-123209657D01*
X61668451Y-123666800D02*
X61744642Y-123704895D01*
X61744642Y-123704895D02*
X61897023Y-123704895D01*
X61897023Y-123704895D02*
X61973213Y-123666800D01*
X61973213Y-123666800D02*
X62011309Y-123590609D01*
X62011309Y-123590609D02*
X62011309Y-123285847D01*
X62011309Y-123285847D02*
X61973213Y-123209657D01*
X61973213Y-123209657D02*
X61897023Y-123171561D01*
X61897023Y-123171561D02*
X61744642Y-123171561D01*
X61744642Y-123171561D02*
X61668451Y-123209657D01*
X61668451Y-123209657D02*
X61630356Y-123285847D01*
X61630356Y-123285847D02*
X61630356Y-123362038D01*
X61630356Y-123362038D02*
X62011309Y-123438228D01*
X61173214Y-123704895D02*
X61249404Y-123666800D01*
X61249404Y-123666800D02*
X61287499Y-123628704D01*
X61287499Y-123628704D02*
X61325595Y-123552514D01*
X61325595Y-123552514D02*
X61325595Y-123323942D01*
X61325595Y-123323942D02*
X61287499Y-123247752D01*
X61287499Y-123247752D02*
X61249404Y-123209657D01*
X61249404Y-123209657D02*
X61173214Y-123171561D01*
X61173214Y-123171561D02*
X61058928Y-123171561D01*
X61058928Y-123171561D02*
X60982737Y-123209657D01*
X60982737Y-123209657D02*
X60944642Y-123247752D01*
X60944642Y-123247752D02*
X60906547Y-123323942D01*
X60906547Y-123323942D02*
X60906547Y-123552514D01*
X60906547Y-123552514D02*
X60944642Y-123628704D01*
X60944642Y-123628704D02*
X60982737Y-123666800D01*
X60982737Y-123666800D02*
X61058928Y-123704895D01*
X61058928Y-123704895D02*
X61173214Y-123704895D01*
X59839880Y-123704895D02*
X59916070Y-123666800D01*
X59916070Y-123666800D02*
X59954165Y-123628704D01*
X59954165Y-123628704D02*
X59992261Y-123552514D01*
X59992261Y-123552514D02*
X59992261Y-123323942D01*
X59992261Y-123323942D02*
X59954165Y-123247752D01*
X59954165Y-123247752D02*
X59916070Y-123209657D01*
X59916070Y-123209657D02*
X59839880Y-123171561D01*
X59839880Y-123171561D02*
X59725594Y-123171561D01*
X59725594Y-123171561D02*
X59649403Y-123209657D01*
X59649403Y-123209657D02*
X59611308Y-123247752D01*
X59611308Y-123247752D02*
X59573213Y-123323942D01*
X59573213Y-123323942D02*
X59573213Y-123552514D01*
X59573213Y-123552514D02*
X59611308Y-123628704D01*
X59611308Y-123628704D02*
X59649403Y-123666800D01*
X59649403Y-123666800D02*
X59725594Y-123704895D01*
X59725594Y-123704895D02*
X59839880Y-123704895D01*
X59230355Y-123171561D02*
X59230355Y-123704895D01*
X59230355Y-123247752D02*
X59192260Y-123209657D01*
X59192260Y-123209657D02*
X59116070Y-123171561D01*
X59116070Y-123171561D02*
X59001784Y-123171561D01*
X59001784Y-123171561D02*
X58925593Y-123209657D01*
X58925593Y-123209657D02*
X58887498Y-123285847D01*
X58887498Y-123285847D02*
X58887498Y-123704895D01*
X58011307Y-123171561D02*
X57706545Y-123171561D01*
X57897021Y-122904895D02*
X57897021Y-123590609D01*
X57897021Y-123590609D02*
X57858926Y-123666800D01*
X57858926Y-123666800D02*
X57782736Y-123704895D01*
X57782736Y-123704895D02*
X57706545Y-123704895D01*
X57439878Y-123704895D02*
X57439878Y-122904895D01*
X57097021Y-123704895D02*
X57097021Y-123285847D01*
X57097021Y-123285847D02*
X57135116Y-123209657D01*
X57135116Y-123209657D02*
X57211307Y-123171561D01*
X57211307Y-123171561D02*
X57325593Y-123171561D01*
X57325593Y-123171561D02*
X57401783Y-123209657D01*
X57401783Y-123209657D02*
X57439878Y-123247752D01*
X56716068Y-123704895D02*
X56716068Y-123171561D01*
X56716068Y-122904895D02*
X56754164Y-122942990D01*
X56754164Y-122942990D02*
X56716068Y-122981085D01*
X56716068Y-122981085D02*
X56677973Y-122942990D01*
X56677973Y-122942990D02*
X56716068Y-122904895D01*
X56716068Y-122904895D02*
X56716068Y-122981085D01*
X56373212Y-123666800D02*
X56297021Y-123704895D01*
X56297021Y-123704895D02*
X56144640Y-123704895D01*
X56144640Y-123704895D02*
X56068450Y-123666800D01*
X56068450Y-123666800D02*
X56030354Y-123590609D01*
X56030354Y-123590609D02*
X56030354Y-123552514D01*
X56030354Y-123552514D02*
X56068450Y-123476323D01*
X56068450Y-123476323D02*
X56144640Y-123438228D01*
X56144640Y-123438228D02*
X56258926Y-123438228D01*
X56258926Y-123438228D02*
X56335116Y-123400133D01*
X56335116Y-123400133D02*
X56373212Y-123323942D01*
X56373212Y-123323942D02*
X56373212Y-123285847D01*
X56373212Y-123285847D02*
X56335116Y-123209657D01*
X56335116Y-123209657D02*
X56258926Y-123171561D01*
X56258926Y-123171561D02*
X56144640Y-123171561D01*
X56144640Y-123171561D02*
X56068450Y-123209657D01*
X55192259Y-123171561D02*
X54887497Y-123171561D01*
X55077973Y-122904895D02*
X55077973Y-123590609D01*
X55077973Y-123590609D02*
X55039878Y-123666800D01*
X55039878Y-123666800D02*
X54963688Y-123704895D01*
X54963688Y-123704895D02*
X54887497Y-123704895D01*
X54620830Y-123704895D02*
X54620830Y-122904895D01*
X54277973Y-123704895D02*
X54277973Y-123285847D01*
X54277973Y-123285847D02*
X54316068Y-123209657D01*
X54316068Y-123209657D02*
X54392259Y-123171561D01*
X54392259Y-123171561D02*
X54506545Y-123171561D01*
X54506545Y-123171561D02*
X54582735Y-123209657D01*
X54582735Y-123209657D02*
X54620830Y-123247752D01*
X53897020Y-123704895D02*
X53897020Y-123171561D01*
X53897020Y-122904895D02*
X53935116Y-122942990D01*
X53935116Y-122942990D02*
X53897020Y-122981085D01*
X53897020Y-122981085D02*
X53858925Y-122942990D01*
X53858925Y-122942990D02*
X53897020Y-122904895D01*
X53897020Y-122904895D02*
X53897020Y-122981085D01*
X53516068Y-123171561D02*
X53516068Y-123704895D01*
X53516068Y-123247752D02*
X53477973Y-123209657D01*
X53477973Y-123209657D02*
X53401783Y-123171561D01*
X53401783Y-123171561D02*
X53287497Y-123171561D01*
X53287497Y-123171561D02*
X53211306Y-123209657D01*
X53211306Y-123209657D02*
X53173211Y-123285847D01*
X53173211Y-123285847D02*
X53173211Y-123704895D01*
X52449401Y-123171561D02*
X52449401Y-123819180D01*
X52449401Y-123819180D02*
X52487496Y-123895371D01*
X52487496Y-123895371D02*
X52525592Y-123933466D01*
X52525592Y-123933466D02*
X52601782Y-123971561D01*
X52601782Y-123971561D02*
X52716068Y-123971561D01*
X52716068Y-123971561D02*
X52792258Y-123933466D01*
X52449401Y-123666800D02*
X52525592Y-123704895D01*
X52525592Y-123704895D02*
X52677973Y-123704895D01*
X52677973Y-123704895D02*
X52754163Y-123666800D01*
X52754163Y-123666800D02*
X52792258Y-123628704D01*
X52792258Y-123628704D02*
X52830354Y-123552514D01*
X52830354Y-123552514D02*
X52830354Y-123323942D01*
X52830354Y-123323942D02*
X52792258Y-123247752D01*
X52792258Y-123247752D02*
X52754163Y-123209657D01*
X52754163Y-123209657D02*
X52677973Y-123171561D01*
X52677973Y-123171561D02*
X52525592Y-123171561D01*
X52525592Y-123171561D02*
X52449401Y-123209657D01*
X111905163Y-97719895D02*
X111905163Y-98291323D01*
X111905163Y-98291323D02*
X111943258Y-98405609D01*
X111943258Y-98405609D02*
X112019449Y-98481800D01*
X112019449Y-98481800D02*
X112133734Y-98519895D01*
X112133734Y-98519895D02*
X112209925Y-98519895D01*
X111524210Y-98519895D02*
X111524210Y-97719895D01*
X111524210Y-97719895D02*
X111219448Y-97719895D01*
X111219448Y-97719895D02*
X111143258Y-97757990D01*
X111143258Y-97757990D02*
X111105163Y-97796085D01*
X111105163Y-97796085D02*
X111067067Y-97872276D01*
X111067067Y-97872276D02*
X111067067Y-97986561D01*
X111067067Y-97986561D02*
X111105163Y-98062752D01*
X111105163Y-98062752D02*
X111143258Y-98100847D01*
X111143258Y-98100847D02*
X111219448Y-98138942D01*
X111219448Y-98138942D02*
X111524210Y-98138942D01*
X110343258Y-97719895D02*
X110724210Y-97719895D01*
X110724210Y-97719895D02*
X110762306Y-98100847D01*
X110762306Y-98100847D02*
X110724210Y-98062752D01*
X110724210Y-98062752D02*
X110648020Y-98024657D01*
X110648020Y-98024657D02*
X110457544Y-98024657D01*
X110457544Y-98024657D02*
X110381353Y-98062752D01*
X110381353Y-98062752D02*
X110343258Y-98100847D01*
X110343258Y-98100847D02*
X110305163Y-98177038D01*
X110305163Y-98177038D02*
X110305163Y-98367514D01*
X110305163Y-98367514D02*
X110343258Y-98443704D01*
X110343258Y-98443704D02*
X110381353Y-98481800D01*
X110381353Y-98481800D02*
X110457544Y-98519895D01*
X110457544Y-98519895D02*
X110648020Y-98519895D01*
X110648020Y-98519895D02*
X110724210Y-98481800D01*
X110724210Y-98481800D02*
X110762306Y-98443704D01*
X118074837Y-98519895D02*
X117655789Y-97986561D01*
X118074837Y-97986561D02*
X117655789Y-98519895D01*
X116931980Y-98519895D02*
X117389123Y-98519895D01*
X117160551Y-98519895D02*
X117160551Y-97719895D01*
X117160551Y-97719895D02*
X117236742Y-97834180D01*
X117236742Y-97834180D02*
X117312932Y-97910371D01*
X117312932Y-97910371D02*
X117389123Y-97948466D01*
X116436741Y-97719895D02*
X116360551Y-97719895D01*
X116360551Y-97719895D02*
X116284360Y-97757990D01*
X116284360Y-97757990D02*
X116246265Y-97796085D01*
X116246265Y-97796085D02*
X116208170Y-97872276D01*
X116208170Y-97872276D02*
X116170075Y-98024657D01*
X116170075Y-98024657D02*
X116170075Y-98215133D01*
X116170075Y-98215133D02*
X116208170Y-98367514D01*
X116208170Y-98367514D02*
X116246265Y-98443704D01*
X116246265Y-98443704D02*
X116284360Y-98481800D01*
X116284360Y-98481800D02*
X116360551Y-98519895D01*
X116360551Y-98519895D02*
X116436741Y-98519895D01*
X116436741Y-98519895D02*
X116512932Y-98481800D01*
X116512932Y-98481800D02*
X116551027Y-98443704D01*
X116551027Y-98443704D02*
X116589122Y-98367514D01*
X116589122Y-98367514D02*
X116627218Y-98215133D01*
X116627218Y-98215133D02*
X116627218Y-98024657D01*
X116627218Y-98024657D02*
X116589122Y-97872276D01*
X116589122Y-97872276D02*
X116551027Y-97796085D01*
X116551027Y-97796085D02*
X116512932Y-97757990D01*
X116512932Y-97757990D02*
X116436741Y-97719895D01*
X115674836Y-97719895D02*
X115598646Y-97719895D01*
X115598646Y-97719895D02*
X115522455Y-97757990D01*
X115522455Y-97757990D02*
X115484360Y-97796085D01*
X115484360Y-97796085D02*
X115446265Y-97872276D01*
X115446265Y-97872276D02*
X115408170Y-98024657D01*
X115408170Y-98024657D02*
X115408170Y-98215133D01*
X115408170Y-98215133D02*
X115446265Y-98367514D01*
X115446265Y-98367514D02*
X115484360Y-98443704D01*
X115484360Y-98443704D02*
X115522455Y-98481800D01*
X115522455Y-98481800D02*
X115598646Y-98519895D01*
X115598646Y-98519895D02*
X115674836Y-98519895D01*
X115674836Y-98519895D02*
X115751027Y-98481800D01*
X115751027Y-98481800D02*
X115789122Y-98443704D01*
X115789122Y-98443704D02*
X115827217Y-98367514D01*
X115827217Y-98367514D02*
X115865313Y-98215133D01*
X115865313Y-98215133D02*
X115865313Y-98024657D01*
X115865313Y-98024657D02*
X115827217Y-97872276D01*
X115827217Y-97872276D02*
X115789122Y-97796085D01*
X115789122Y-97796085D02*
X115751027Y-97757990D01*
X115751027Y-97757990D02*
X115674836Y-97719895D01*
X111905163Y-92639895D02*
X111905163Y-93211323D01*
X111905163Y-93211323D02*
X111943258Y-93325609D01*
X111943258Y-93325609D02*
X112019449Y-93401800D01*
X112019449Y-93401800D02*
X112133734Y-93439895D01*
X112133734Y-93439895D02*
X112209925Y-93439895D01*
X111524210Y-93439895D02*
X111524210Y-92639895D01*
X111524210Y-92639895D02*
X111219448Y-92639895D01*
X111219448Y-92639895D02*
X111143258Y-92677990D01*
X111143258Y-92677990D02*
X111105163Y-92716085D01*
X111105163Y-92716085D02*
X111067067Y-92792276D01*
X111067067Y-92792276D02*
X111067067Y-92906561D01*
X111067067Y-92906561D02*
X111105163Y-92982752D01*
X111105163Y-92982752D02*
X111143258Y-93020847D01*
X111143258Y-93020847D02*
X111219448Y-93058942D01*
X111219448Y-93058942D02*
X111524210Y-93058942D01*
X110800401Y-92639895D02*
X110305163Y-92639895D01*
X110305163Y-92639895D02*
X110571829Y-92944657D01*
X110571829Y-92944657D02*
X110457544Y-92944657D01*
X110457544Y-92944657D02*
X110381353Y-92982752D01*
X110381353Y-92982752D02*
X110343258Y-93020847D01*
X110343258Y-93020847D02*
X110305163Y-93097038D01*
X110305163Y-93097038D02*
X110305163Y-93287514D01*
X110305163Y-93287514D02*
X110343258Y-93363704D01*
X110343258Y-93363704D02*
X110381353Y-93401800D01*
X110381353Y-93401800D02*
X110457544Y-93439895D01*
X110457544Y-93439895D02*
X110686115Y-93439895D01*
X110686115Y-93439895D02*
X110762306Y-93401800D01*
X110762306Y-93401800D02*
X110800401Y-93363704D01*
X118074837Y-93439895D02*
X117655789Y-92906561D01*
X118074837Y-92906561D02*
X117655789Y-93439895D01*
X117198646Y-92639895D02*
X117122456Y-92639895D01*
X117122456Y-92639895D02*
X117046265Y-92677990D01*
X117046265Y-92677990D02*
X117008170Y-92716085D01*
X117008170Y-92716085D02*
X116970075Y-92792276D01*
X116970075Y-92792276D02*
X116931980Y-92944657D01*
X116931980Y-92944657D02*
X116931980Y-93135133D01*
X116931980Y-93135133D02*
X116970075Y-93287514D01*
X116970075Y-93287514D02*
X117008170Y-93363704D01*
X117008170Y-93363704D02*
X117046265Y-93401800D01*
X117046265Y-93401800D02*
X117122456Y-93439895D01*
X117122456Y-93439895D02*
X117198646Y-93439895D01*
X117198646Y-93439895D02*
X117274837Y-93401800D01*
X117274837Y-93401800D02*
X117312932Y-93363704D01*
X117312932Y-93363704D02*
X117351027Y-93287514D01*
X117351027Y-93287514D02*
X117389123Y-93135133D01*
X117389123Y-93135133D02*
X117389123Y-92944657D01*
X117389123Y-92944657D02*
X117351027Y-92792276D01*
X117351027Y-92792276D02*
X117312932Y-92716085D01*
X117312932Y-92716085D02*
X117274837Y-92677990D01*
X117274837Y-92677990D02*
X117198646Y-92639895D01*
X116436741Y-92639895D02*
X116360551Y-92639895D01*
X116360551Y-92639895D02*
X116284360Y-92677990D01*
X116284360Y-92677990D02*
X116246265Y-92716085D01*
X116246265Y-92716085D02*
X116208170Y-92792276D01*
X116208170Y-92792276D02*
X116170075Y-92944657D01*
X116170075Y-92944657D02*
X116170075Y-93135133D01*
X116170075Y-93135133D02*
X116208170Y-93287514D01*
X116208170Y-93287514D02*
X116246265Y-93363704D01*
X116246265Y-93363704D02*
X116284360Y-93401800D01*
X116284360Y-93401800D02*
X116360551Y-93439895D01*
X116360551Y-93439895D02*
X116436741Y-93439895D01*
X116436741Y-93439895D02*
X116512932Y-93401800D01*
X116512932Y-93401800D02*
X116551027Y-93363704D01*
X116551027Y-93363704D02*
X116589122Y-93287514D01*
X116589122Y-93287514D02*
X116627218Y-93135133D01*
X116627218Y-93135133D02*
X116627218Y-92944657D01*
X116627218Y-92944657D02*
X116589122Y-92792276D01*
X116589122Y-92792276D02*
X116551027Y-92716085D01*
X116551027Y-92716085D02*
X116512932Y-92677990D01*
X116512932Y-92677990D02*
X116436741Y-92639895D01*
X115674836Y-92639895D02*
X115598646Y-92639895D01*
X115598646Y-92639895D02*
X115522455Y-92677990D01*
X115522455Y-92677990D02*
X115484360Y-92716085D01*
X115484360Y-92716085D02*
X115446265Y-92792276D01*
X115446265Y-92792276D02*
X115408170Y-92944657D01*
X115408170Y-92944657D02*
X115408170Y-93135133D01*
X115408170Y-93135133D02*
X115446265Y-93287514D01*
X115446265Y-93287514D02*
X115484360Y-93363704D01*
X115484360Y-93363704D02*
X115522455Y-93401800D01*
X115522455Y-93401800D02*
X115598646Y-93439895D01*
X115598646Y-93439895D02*
X115674836Y-93439895D01*
X115674836Y-93439895D02*
X115751027Y-93401800D01*
X115751027Y-93401800D02*
X115789122Y-93363704D01*
X115789122Y-93363704D02*
X115827217Y-93287514D01*
X115827217Y-93287514D02*
X115865313Y-93135133D01*
X115865313Y-93135133D02*
X115865313Y-92944657D01*
X115865313Y-92944657D02*
X115827217Y-92792276D01*
X115827217Y-92792276D02*
X115789122Y-92716085D01*
X115789122Y-92716085D02*
X115751027Y-92677990D01*
X115751027Y-92677990D02*
X115674836Y-92639895D01*
X111905163Y-110419895D02*
X111905163Y-110991323D01*
X111905163Y-110991323D02*
X111943258Y-111105609D01*
X111943258Y-111105609D02*
X112019449Y-111181800D01*
X112019449Y-111181800D02*
X112133734Y-111219895D01*
X112133734Y-111219895D02*
X112209925Y-111219895D01*
X111524210Y-111219895D02*
X111524210Y-110419895D01*
X111524210Y-110419895D02*
X111219448Y-110419895D01*
X111219448Y-110419895D02*
X111143258Y-110457990D01*
X111143258Y-110457990D02*
X111105163Y-110496085D01*
X111105163Y-110496085D02*
X111067067Y-110572276D01*
X111067067Y-110572276D02*
X111067067Y-110686561D01*
X111067067Y-110686561D02*
X111105163Y-110762752D01*
X111105163Y-110762752D02*
X111143258Y-110800847D01*
X111143258Y-110800847D02*
X111219448Y-110838942D01*
X111219448Y-110838942D02*
X111524210Y-110838942D01*
X110762306Y-110496085D02*
X110724210Y-110457990D01*
X110724210Y-110457990D02*
X110648020Y-110419895D01*
X110648020Y-110419895D02*
X110457544Y-110419895D01*
X110457544Y-110419895D02*
X110381353Y-110457990D01*
X110381353Y-110457990D02*
X110343258Y-110496085D01*
X110343258Y-110496085D02*
X110305163Y-110572276D01*
X110305163Y-110572276D02*
X110305163Y-110648466D01*
X110305163Y-110648466D02*
X110343258Y-110762752D01*
X110343258Y-110762752D02*
X110800401Y-111219895D01*
X110800401Y-111219895D02*
X110305163Y-111219895D01*
X117465313Y-111219895D02*
X117922456Y-111219895D01*
X117693884Y-111219895D02*
X117693884Y-110419895D01*
X117693884Y-110419895D02*
X117770075Y-110534180D01*
X117770075Y-110534180D02*
X117846265Y-110610371D01*
X117846265Y-110610371D02*
X117922456Y-110648466D01*
X117198646Y-111219895D02*
X116779598Y-110686561D01*
X117198646Y-110686561D02*
X116779598Y-111219895D01*
X116551027Y-111219895D02*
X116131979Y-110686561D01*
X116551027Y-110686561D02*
X116131979Y-111219895D01*
X115674836Y-110419895D02*
X115598646Y-110419895D01*
X115598646Y-110419895D02*
X115522455Y-110457990D01*
X115522455Y-110457990D02*
X115484360Y-110496085D01*
X115484360Y-110496085D02*
X115446265Y-110572276D01*
X115446265Y-110572276D02*
X115408170Y-110724657D01*
X115408170Y-110724657D02*
X115408170Y-110915133D01*
X115408170Y-110915133D02*
X115446265Y-111067514D01*
X115446265Y-111067514D02*
X115484360Y-111143704D01*
X115484360Y-111143704D02*
X115522455Y-111181800D01*
X115522455Y-111181800D02*
X115598646Y-111219895D01*
X115598646Y-111219895D02*
X115674836Y-111219895D01*
X115674836Y-111219895D02*
X115751027Y-111181800D01*
X115751027Y-111181800D02*
X115789122Y-111143704D01*
X115789122Y-111143704D02*
X115827217Y-111067514D01*
X115827217Y-111067514D02*
X115865313Y-110915133D01*
X115865313Y-110915133D02*
X115865313Y-110724657D01*
X115865313Y-110724657D02*
X115827217Y-110572276D01*
X115827217Y-110572276D02*
X115789122Y-110496085D01*
X115789122Y-110496085D02*
X115751027Y-110457990D01*
X115751027Y-110457990D02*
X115674836Y-110419895D01*
X111905163Y-95179895D02*
X111905163Y-95751323D01*
X111905163Y-95751323D02*
X111943258Y-95865609D01*
X111943258Y-95865609D02*
X112019449Y-95941800D01*
X112019449Y-95941800D02*
X112133734Y-95979895D01*
X112133734Y-95979895D02*
X112209925Y-95979895D01*
X111524210Y-95979895D02*
X111524210Y-95179895D01*
X111524210Y-95179895D02*
X111219448Y-95179895D01*
X111219448Y-95179895D02*
X111143258Y-95217990D01*
X111143258Y-95217990D02*
X111105163Y-95256085D01*
X111105163Y-95256085D02*
X111067067Y-95332276D01*
X111067067Y-95332276D02*
X111067067Y-95446561D01*
X111067067Y-95446561D02*
X111105163Y-95522752D01*
X111105163Y-95522752D02*
X111143258Y-95560847D01*
X111143258Y-95560847D02*
X111219448Y-95598942D01*
X111219448Y-95598942D02*
X111524210Y-95598942D01*
X110381353Y-95446561D02*
X110381353Y-95979895D01*
X110571829Y-95141800D02*
X110762306Y-95713228D01*
X110762306Y-95713228D02*
X110267067Y-95713228D01*
X118074837Y-95979895D02*
X117655789Y-95446561D01*
X118074837Y-95446561D02*
X117655789Y-95979895D01*
X117198646Y-95179895D02*
X117122456Y-95179895D01*
X117122456Y-95179895D02*
X117046265Y-95217990D01*
X117046265Y-95217990D02*
X117008170Y-95256085D01*
X117008170Y-95256085D02*
X116970075Y-95332276D01*
X116970075Y-95332276D02*
X116931980Y-95484657D01*
X116931980Y-95484657D02*
X116931980Y-95675133D01*
X116931980Y-95675133D02*
X116970075Y-95827514D01*
X116970075Y-95827514D02*
X117008170Y-95903704D01*
X117008170Y-95903704D02*
X117046265Y-95941800D01*
X117046265Y-95941800D02*
X117122456Y-95979895D01*
X117122456Y-95979895D02*
X117198646Y-95979895D01*
X117198646Y-95979895D02*
X117274837Y-95941800D01*
X117274837Y-95941800D02*
X117312932Y-95903704D01*
X117312932Y-95903704D02*
X117351027Y-95827514D01*
X117351027Y-95827514D02*
X117389123Y-95675133D01*
X117389123Y-95675133D02*
X117389123Y-95484657D01*
X117389123Y-95484657D02*
X117351027Y-95332276D01*
X117351027Y-95332276D02*
X117312932Y-95256085D01*
X117312932Y-95256085D02*
X117274837Y-95217990D01*
X117274837Y-95217990D02*
X117198646Y-95179895D01*
X116170075Y-95979895D02*
X116627218Y-95979895D01*
X116398646Y-95979895D02*
X116398646Y-95179895D01*
X116398646Y-95179895D02*
X116474837Y-95294180D01*
X116474837Y-95294180D02*
X116551027Y-95370371D01*
X116551027Y-95370371D02*
X116627218Y-95408466D01*
X115674836Y-95179895D02*
X115598646Y-95179895D01*
X115598646Y-95179895D02*
X115522455Y-95217990D01*
X115522455Y-95217990D02*
X115484360Y-95256085D01*
X115484360Y-95256085D02*
X115446265Y-95332276D01*
X115446265Y-95332276D02*
X115408170Y-95484657D01*
X115408170Y-95484657D02*
X115408170Y-95675133D01*
X115408170Y-95675133D02*
X115446265Y-95827514D01*
X115446265Y-95827514D02*
X115484360Y-95903704D01*
X115484360Y-95903704D02*
X115522455Y-95941800D01*
X115522455Y-95941800D02*
X115598646Y-95979895D01*
X115598646Y-95979895D02*
X115674836Y-95979895D01*
X115674836Y-95979895D02*
X115751027Y-95941800D01*
X115751027Y-95941800D02*
X115789122Y-95903704D01*
X115789122Y-95903704D02*
X115827217Y-95827514D01*
X115827217Y-95827514D02*
X115865313Y-95675133D01*
X115865313Y-95675133D02*
X115865313Y-95484657D01*
X115865313Y-95484657D02*
X115827217Y-95332276D01*
X115827217Y-95332276D02*
X115789122Y-95256085D01*
X115789122Y-95256085D02*
X115751027Y-95217990D01*
X115751027Y-95217990D02*
X115674836Y-95179895D01*
X111905163Y-107879895D02*
X111905163Y-108451323D01*
X111905163Y-108451323D02*
X111943258Y-108565609D01*
X111943258Y-108565609D02*
X112019449Y-108641800D01*
X112019449Y-108641800D02*
X112133734Y-108679895D01*
X112133734Y-108679895D02*
X112209925Y-108679895D01*
X111524210Y-108679895D02*
X111524210Y-107879895D01*
X111524210Y-107879895D02*
X111219448Y-107879895D01*
X111219448Y-107879895D02*
X111143258Y-107917990D01*
X111143258Y-107917990D02*
X111105163Y-107956085D01*
X111105163Y-107956085D02*
X111067067Y-108032276D01*
X111067067Y-108032276D02*
X111067067Y-108146561D01*
X111067067Y-108146561D02*
X111105163Y-108222752D01*
X111105163Y-108222752D02*
X111143258Y-108260847D01*
X111143258Y-108260847D02*
X111219448Y-108298942D01*
X111219448Y-108298942D02*
X111524210Y-108298942D01*
X110305163Y-108679895D02*
X110762306Y-108679895D01*
X110533734Y-108679895D02*
X110533734Y-107879895D01*
X110533734Y-107879895D02*
X110609925Y-107994180D01*
X110609925Y-107994180D02*
X110686115Y-108070371D01*
X110686115Y-108070371D02*
X110762306Y-108108466D01*
X117731979Y-107879895D02*
X117655789Y-107879895D01*
X117655789Y-107879895D02*
X117579598Y-107917990D01*
X117579598Y-107917990D02*
X117541503Y-107956085D01*
X117541503Y-107956085D02*
X117503408Y-108032276D01*
X117503408Y-108032276D02*
X117465313Y-108184657D01*
X117465313Y-108184657D02*
X117465313Y-108375133D01*
X117465313Y-108375133D02*
X117503408Y-108527514D01*
X117503408Y-108527514D02*
X117541503Y-108603704D01*
X117541503Y-108603704D02*
X117579598Y-108641800D01*
X117579598Y-108641800D02*
X117655789Y-108679895D01*
X117655789Y-108679895D02*
X117731979Y-108679895D01*
X117731979Y-108679895D02*
X117808170Y-108641800D01*
X117808170Y-108641800D02*
X117846265Y-108603704D01*
X117846265Y-108603704D02*
X117884360Y-108527514D01*
X117884360Y-108527514D02*
X117922456Y-108375133D01*
X117922456Y-108375133D02*
X117922456Y-108184657D01*
X117922456Y-108184657D02*
X117884360Y-108032276D01*
X117884360Y-108032276D02*
X117846265Y-107956085D01*
X117846265Y-107956085D02*
X117808170Y-107917990D01*
X117808170Y-107917990D02*
X117731979Y-107879895D01*
X117198646Y-108679895D02*
X116779598Y-108146561D01*
X117198646Y-108146561D02*
X116779598Y-108679895D01*
X116551027Y-108679895D02*
X116131979Y-108146561D01*
X116551027Y-108146561D02*
X116131979Y-108679895D01*
X115674836Y-107879895D02*
X115598646Y-107879895D01*
X115598646Y-107879895D02*
X115522455Y-107917990D01*
X115522455Y-107917990D02*
X115484360Y-107956085D01*
X115484360Y-107956085D02*
X115446265Y-108032276D01*
X115446265Y-108032276D02*
X115408170Y-108184657D01*
X115408170Y-108184657D02*
X115408170Y-108375133D01*
X115408170Y-108375133D02*
X115446265Y-108527514D01*
X115446265Y-108527514D02*
X115484360Y-108603704D01*
X115484360Y-108603704D02*
X115522455Y-108641800D01*
X115522455Y-108641800D02*
X115598646Y-108679895D01*
X115598646Y-108679895D02*
X115674836Y-108679895D01*
X115674836Y-108679895D02*
X115751027Y-108641800D01*
X115751027Y-108641800D02*
X115789122Y-108603704D01*
X115789122Y-108603704D02*
X115827217Y-108527514D01*
X115827217Y-108527514D02*
X115865313Y-108375133D01*
X115865313Y-108375133D02*
X115865313Y-108184657D01*
X115865313Y-108184657D02*
X115827217Y-108032276D01*
X115827217Y-108032276D02*
X115789122Y-107956085D01*
X115789122Y-107956085D02*
X115751027Y-107917990D01*
X115751027Y-107917990D02*
X115674836Y-107879895D01*
X94780163Y-46619895D02*
X94780163Y-47191323D01*
X94780163Y-47191323D02*
X94818258Y-47305609D01*
X94818258Y-47305609D02*
X94894449Y-47381800D01*
X94894449Y-47381800D02*
X95008734Y-47419895D01*
X95008734Y-47419895D02*
X95084925Y-47419895D01*
X94399210Y-47419895D02*
X94399210Y-46619895D01*
X94399210Y-46619895D02*
X94094448Y-46619895D01*
X94094448Y-46619895D02*
X94018258Y-46657990D01*
X94018258Y-46657990D02*
X93980163Y-46696085D01*
X93980163Y-46696085D02*
X93942067Y-46772276D01*
X93942067Y-46772276D02*
X93942067Y-46886561D01*
X93942067Y-46886561D02*
X93980163Y-46962752D01*
X93980163Y-46962752D02*
X94018258Y-47000847D01*
X94018258Y-47000847D02*
X94094448Y-47038942D01*
X94094448Y-47038942D02*
X94399210Y-47038942D01*
X93675401Y-46619895D02*
X93142067Y-46619895D01*
X93142067Y-46619895D02*
X93484925Y-47419895D01*
X101330790Y-47419895D02*
X101787933Y-47419895D01*
X101559361Y-47419895D02*
X101559361Y-46619895D01*
X101559361Y-46619895D02*
X101635552Y-46734180D01*
X101635552Y-46734180D02*
X101711742Y-46810371D01*
X101711742Y-46810371D02*
X101787933Y-46848466D01*
X100949837Y-47419895D02*
X100797456Y-47419895D01*
X100797456Y-47419895D02*
X100721266Y-47381800D01*
X100721266Y-47381800D02*
X100683170Y-47343704D01*
X100683170Y-47343704D02*
X100606980Y-47229419D01*
X100606980Y-47229419D02*
X100568885Y-47077038D01*
X100568885Y-47077038D02*
X100568885Y-46772276D01*
X100568885Y-46772276D02*
X100606980Y-46696085D01*
X100606980Y-46696085D02*
X100645075Y-46657990D01*
X100645075Y-46657990D02*
X100721266Y-46619895D01*
X100721266Y-46619895D02*
X100873647Y-46619895D01*
X100873647Y-46619895D02*
X100949837Y-46657990D01*
X100949837Y-46657990D02*
X100987932Y-46696085D01*
X100987932Y-46696085D02*
X101026028Y-46772276D01*
X101026028Y-46772276D02*
X101026028Y-46962752D01*
X101026028Y-46962752D02*
X100987932Y-47038942D01*
X100987932Y-47038942D02*
X100949837Y-47077038D01*
X100949837Y-47077038D02*
X100873647Y-47115133D01*
X100873647Y-47115133D02*
X100721266Y-47115133D01*
X100721266Y-47115133D02*
X100645075Y-47077038D01*
X100645075Y-47077038D02*
X100606980Y-47038942D01*
X100606980Y-47038942D02*
X100568885Y-46962752D01*
X100264123Y-46696085D02*
X100226027Y-46657990D01*
X100226027Y-46657990D02*
X100149837Y-46619895D01*
X100149837Y-46619895D02*
X99959361Y-46619895D01*
X99959361Y-46619895D02*
X99883170Y-46657990D01*
X99883170Y-46657990D02*
X99845075Y-46696085D01*
X99845075Y-46696085D02*
X99806980Y-46772276D01*
X99806980Y-46772276D02*
X99806980Y-46848466D01*
X99806980Y-46848466D02*
X99845075Y-46962752D01*
X99845075Y-46962752D02*
X100302218Y-47419895D01*
X100302218Y-47419895D02*
X99806980Y-47419895D01*
X99311741Y-46619895D02*
X99235551Y-46619895D01*
X99235551Y-46619895D02*
X99159360Y-46657990D01*
X99159360Y-46657990D02*
X99121265Y-46696085D01*
X99121265Y-46696085D02*
X99083170Y-46772276D01*
X99083170Y-46772276D02*
X99045075Y-46924657D01*
X99045075Y-46924657D02*
X99045075Y-47115133D01*
X99045075Y-47115133D02*
X99083170Y-47267514D01*
X99083170Y-47267514D02*
X99121265Y-47343704D01*
X99121265Y-47343704D02*
X99159360Y-47381800D01*
X99159360Y-47381800D02*
X99235551Y-47419895D01*
X99235551Y-47419895D02*
X99311741Y-47419895D01*
X99311741Y-47419895D02*
X99387932Y-47381800D01*
X99387932Y-47381800D02*
X99426027Y-47343704D01*
X99426027Y-47343704D02*
X99464122Y-47267514D01*
X99464122Y-47267514D02*
X99502218Y-47115133D01*
X99502218Y-47115133D02*
X99502218Y-46924657D01*
X99502218Y-46924657D02*
X99464122Y-46772276D01*
X99464122Y-46772276D02*
X99426027Y-46696085D01*
X99426027Y-46696085D02*
X99387932Y-46657990D01*
X99387932Y-46657990D02*
X99311741Y-46619895D01*
X98549836Y-46619895D02*
X98473646Y-46619895D01*
X98473646Y-46619895D02*
X98397455Y-46657990D01*
X98397455Y-46657990D02*
X98359360Y-46696085D01*
X98359360Y-46696085D02*
X98321265Y-46772276D01*
X98321265Y-46772276D02*
X98283170Y-46924657D01*
X98283170Y-46924657D02*
X98283170Y-47115133D01*
X98283170Y-47115133D02*
X98321265Y-47267514D01*
X98321265Y-47267514D02*
X98359360Y-47343704D01*
X98359360Y-47343704D02*
X98397455Y-47381800D01*
X98397455Y-47381800D02*
X98473646Y-47419895D01*
X98473646Y-47419895D02*
X98549836Y-47419895D01*
X98549836Y-47419895D02*
X98626027Y-47381800D01*
X98626027Y-47381800D02*
X98664122Y-47343704D01*
X98664122Y-47343704D02*
X98702217Y-47267514D01*
X98702217Y-47267514D02*
X98740313Y-47115133D01*
X98740313Y-47115133D02*
X98740313Y-46924657D01*
X98740313Y-46924657D02*
X98702217Y-46772276D01*
X98702217Y-46772276D02*
X98664122Y-46696085D01*
X98664122Y-46696085D02*
X98626027Y-46657990D01*
X98626027Y-46657990D02*
X98549836Y-46619895D01*
X94780163Y-49159895D02*
X94780163Y-49731323D01*
X94780163Y-49731323D02*
X94818258Y-49845609D01*
X94818258Y-49845609D02*
X94894449Y-49921800D01*
X94894449Y-49921800D02*
X95008734Y-49959895D01*
X95008734Y-49959895D02*
X95084925Y-49959895D01*
X94399210Y-49959895D02*
X94399210Y-49159895D01*
X94399210Y-49159895D02*
X94094448Y-49159895D01*
X94094448Y-49159895D02*
X94018258Y-49197990D01*
X94018258Y-49197990D02*
X93980163Y-49236085D01*
X93980163Y-49236085D02*
X93942067Y-49312276D01*
X93942067Y-49312276D02*
X93942067Y-49426561D01*
X93942067Y-49426561D02*
X93980163Y-49502752D01*
X93980163Y-49502752D02*
X94018258Y-49540847D01*
X94018258Y-49540847D02*
X94094448Y-49578942D01*
X94094448Y-49578942D02*
X94399210Y-49578942D01*
X93484925Y-49502752D02*
X93561115Y-49464657D01*
X93561115Y-49464657D02*
X93599210Y-49426561D01*
X93599210Y-49426561D02*
X93637306Y-49350371D01*
X93637306Y-49350371D02*
X93637306Y-49312276D01*
X93637306Y-49312276D02*
X93599210Y-49236085D01*
X93599210Y-49236085D02*
X93561115Y-49197990D01*
X93561115Y-49197990D02*
X93484925Y-49159895D01*
X93484925Y-49159895D02*
X93332544Y-49159895D01*
X93332544Y-49159895D02*
X93256353Y-49197990D01*
X93256353Y-49197990D02*
X93218258Y-49236085D01*
X93218258Y-49236085D02*
X93180163Y-49312276D01*
X93180163Y-49312276D02*
X93180163Y-49350371D01*
X93180163Y-49350371D02*
X93218258Y-49426561D01*
X93218258Y-49426561D02*
X93256353Y-49464657D01*
X93256353Y-49464657D02*
X93332544Y-49502752D01*
X93332544Y-49502752D02*
X93484925Y-49502752D01*
X93484925Y-49502752D02*
X93561115Y-49540847D01*
X93561115Y-49540847D02*
X93599210Y-49578942D01*
X93599210Y-49578942D02*
X93637306Y-49655133D01*
X93637306Y-49655133D02*
X93637306Y-49807514D01*
X93637306Y-49807514D02*
X93599210Y-49883704D01*
X93599210Y-49883704D02*
X93561115Y-49921800D01*
X93561115Y-49921800D02*
X93484925Y-49959895D01*
X93484925Y-49959895D02*
X93332544Y-49959895D01*
X93332544Y-49959895D02*
X93256353Y-49921800D01*
X93256353Y-49921800D02*
X93218258Y-49883704D01*
X93218258Y-49883704D02*
X93180163Y-49807514D01*
X93180163Y-49807514D02*
X93180163Y-49655133D01*
X93180163Y-49655133D02*
X93218258Y-49578942D01*
X93218258Y-49578942D02*
X93256353Y-49540847D01*
X93256353Y-49540847D02*
X93332544Y-49502752D01*
X100949837Y-49959895D02*
X100797456Y-49959895D01*
X100797456Y-49959895D02*
X100721266Y-49921800D01*
X100721266Y-49921800D02*
X100683170Y-49883704D01*
X100683170Y-49883704D02*
X100606980Y-49769419D01*
X100606980Y-49769419D02*
X100568885Y-49617038D01*
X100568885Y-49617038D02*
X100568885Y-49312276D01*
X100568885Y-49312276D02*
X100606980Y-49236085D01*
X100606980Y-49236085D02*
X100645075Y-49197990D01*
X100645075Y-49197990D02*
X100721266Y-49159895D01*
X100721266Y-49159895D02*
X100873647Y-49159895D01*
X100873647Y-49159895D02*
X100949837Y-49197990D01*
X100949837Y-49197990D02*
X100987932Y-49236085D01*
X100987932Y-49236085D02*
X101026028Y-49312276D01*
X101026028Y-49312276D02*
X101026028Y-49502752D01*
X101026028Y-49502752D02*
X100987932Y-49578942D01*
X100987932Y-49578942D02*
X100949837Y-49617038D01*
X100949837Y-49617038D02*
X100873647Y-49655133D01*
X100873647Y-49655133D02*
X100721266Y-49655133D01*
X100721266Y-49655133D02*
X100645075Y-49617038D01*
X100645075Y-49617038D02*
X100606980Y-49578942D01*
X100606980Y-49578942D02*
X100568885Y-49502752D01*
X99883170Y-49159895D02*
X100035551Y-49159895D01*
X100035551Y-49159895D02*
X100111742Y-49197990D01*
X100111742Y-49197990D02*
X100149837Y-49236085D01*
X100149837Y-49236085D02*
X100226027Y-49350371D01*
X100226027Y-49350371D02*
X100264123Y-49502752D01*
X100264123Y-49502752D02*
X100264123Y-49807514D01*
X100264123Y-49807514D02*
X100226027Y-49883704D01*
X100226027Y-49883704D02*
X100187932Y-49921800D01*
X100187932Y-49921800D02*
X100111742Y-49959895D01*
X100111742Y-49959895D02*
X99959361Y-49959895D01*
X99959361Y-49959895D02*
X99883170Y-49921800D01*
X99883170Y-49921800D02*
X99845075Y-49883704D01*
X99845075Y-49883704D02*
X99806980Y-49807514D01*
X99806980Y-49807514D02*
X99806980Y-49617038D01*
X99806980Y-49617038D02*
X99845075Y-49540847D01*
X99845075Y-49540847D02*
X99883170Y-49502752D01*
X99883170Y-49502752D02*
X99959361Y-49464657D01*
X99959361Y-49464657D02*
X100111742Y-49464657D01*
X100111742Y-49464657D02*
X100187932Y-49502752D01*
X100187932Y-49502752D02*
X100226027Y-49540847D01*
X100226027Y-49540847D02*
X100264123Y-49617038D01*
X99311741Y-49159895D02*
X99235551Y-49159895D01*
X99235551Y-49159895D02*
X99159360Y-49197990D01*
X99159360Y-49197990D02*
X99121265Y-49236085D01*
X99121265Y-49236085D02*
X99083170Y-49312276D01*
X99083170Y-49312276D02*
X99045075Y-49464657D01*
X99045075Y-49464657D02*
X99045075Y-49655133D01*
X99045075Y-49655133D02*
X99083170Y-49807514D01*
X99083170Y-49807514D02*
X99121265Y-49883704D01*
X99121265Y-49883704D02*
X99159360Y-49921800D01*
X99159360Y-49921800D02*
X99235551Y-49959895D01*
X99235551Y-49959895D02*
X99311741Y-49959895D01*
X99311741Y-49959895D02*
X99387932Y-49921800D01*
X99387932Y-49921800D02*
X99426027Y-49883704D01*
X99426027Y-49883704D02*
X99464122Y-49807514D01*
X99464122Y-49807514D02*
X99502218Y-49655133D01*
X99502218Y-49655133D02*
X99502218Y-49464657D01*
X99502218Y-49464657D02*
X99464122Y-49312276D01*
X99464122Y-49312276D02*
X99426027Y-49236085D01*
X99426027Y-49236085D02*
X99387932Y-49197990D01*
X99387932Y-49197990D02*
X99311741Y-49159895D01*
X98549836Y-49159895D02*
X98473646Y-49159895D01*
X98473646Y-49159895D02*
X98397455Y-49197990D01*
X98397455Y-49197990D02*
X98359360Y-49236085D01*
X98359360Y-49236085D02*
X98321265Y-49312276D01*
X98321265Y-49312276D02*
X98283170Y-49464657D01*
X98283170Y-49464657D02*
X98283170Y-49655133D01*
X98283170Y-49655133D02*
X98321265Y-49807514D01*
X98321265Y-49807514D02*
X98359360Y-49883704D01*
X98359360Y-49883704D02*
X98397455Y-49921800D01*
X98397455Y-49921800D02*
X98473646Y-49959895D01*
X98473646Y-49959895D02*
X98549836Y-49959895D01*
X98549836Y-49959895D02*
X98626027Y-49921800D01*
X98626027Y-49921800D02*
X98664122Y-49883704D01*
X98664122Y-49883704D02*
X98702217Y-49807514D01*
X98702217Y-49807514D02*
X98740313Y-49655133D01*
X98740313Y-49655133D02*
X98740313Y-49464657D01*
X98740313Y-49464657D02*
X98702217Y-49312276D01*
X98702217Y-49312276D02*
X98664122Y-49236085D01*
X98664122Y-49236085D02*
X98626027Y-49197990D01*
X98626027Y-49197990D02*
X98549836Y-49159895D01*
X111905163Y-100259895D02*
X111905163Y-100831323D01*
X111905163Y-100831323D02*
X111943258Y-100945609D01*
X111943258Y-100945609D02*
X112019449Y-101021800D01*
X112019449Y-101021800D02*
X112133734Y-101059895D01*
X112133734Y-101059895D02*
X112209925Y-101059895D01*
X111524210Y-101059895D02*
X111524210Y-100259895D01*
X111524210Y-100259895D02*
X111219448Y-100259895D01*
X111219448Y-100259895D02*
X111143258Y-100297990D01*
X111143258Y-100297990D02*
X111105163Y-100336085D01*
X111105163Y-100336085D02*
X111067067Y-100412276D01*
X111067067Y-100412276D02*
X111067067Y-100526561D01*
X111067067Y-100526561D02*
X111105163Y-100602752D01*
X111105163Y-100602752D02*
X111143258Y-100640847D01*
X111143258Y-100640847D02*
X111219448Y-100678942D01*
X111219448Y-100678942D02*
X111524210Y-100678942D01*
X110381353Y-100259895D02*
X110533734Y-100259895D01*
X110533734Y-100259895D02*
X110609925Y-100297990D01*
X110609925Y-100297990D02*
X110648020Y-100336085D01*
X110648020Y-100336085D02*
X110724210Y-100450371D01*
X110724210Y-100450371D02*
X110762306Y-100602752D01*
X110762306Y-100602752D02*
X110762306Y-100907514D01*
X110762306Y-100907514D02*
X110724210Y-100983704D01*
X110724210Y-100983704D02*
X110686115Y-101021800D01*
X110686115Y-101021800D02*
X110609925Y-101059895D01*
X110609925Y-101059895D02*
X110457544Y-101059895D01*
X110457544Y-101059895D02*
X110381353Y-101021800D01*
X110381353Y-101021800D02*
X110343258Y-100983704D01*
X110343258Y-100983704D02*
X110305163Y-100907514D01*
X110305163Y-100907514D02*
X110305163Y-100717038D01*
X110305163Y-100717038D02*
X110343258Y-100640847D01*
X110343258Y-100640847D02*
X110381353Y-100602752D01*
X110381353Y-100602752D02*
X110457544Y-100564657D01*
X110457544Y-100564657D02*
X110609925Y-100564657D01*
X110609925Y-100564657D02*
X110686115Y-100602752D01*
X110686115Y-100602752D02*
X110724210Y-100640847D01*
X110724210Y-100640847D02*
X110762306Y-100717038D01*
X118074837Y-101059895D02*
X117655789Y-100526561D01*
X118074837Y-100526561D02*
X117655789Y-101059895D01*
X116931980Y-101059895D02*
X117389123Y-101059895D01*
X117160551Y-101059895D02*
X117160551Y-100259895D01*
X117160551Y-100259895D02*
X117236742Y-100374180D01*
X117236742Y-100374180D02*
X117312932Y-100450371D01*
X117312932Y-100450371D02*
X117389123Y-100488466D01*
X116170075Y-101059895D02*
X116627218Y-101059895D01*
X116398646Y-101059895D02*
X116398646Y-100259895D01*
X116398646Y-100259895D02*
X116474837Y-100374180D01*
X116474837Y-100374180D02*
X116551027Y-100450371D01*
X116551027Y-100450371D02*
X116627218Y-100488466D01*
X115674836Y-100259895D02*
X115598646Y-100259895D01*
X115598646Y-100259895D02*
X115522455Y-100297990D01*
X115522455Y-100297990D02*
X115484360Y-100336085D01*
X115484360Y-100336085D02*
X115446265Y-100412276D01*
X115446265Y-100412276D02*
X115408170Y-100564657D01*
X115408170Y-100564657D02*
X115408170Y-100755133D01*
X115408170Y-100755133D02*
X115446265Y-100907514D01*
X115446265Y-100907514D02*
X115484360Y-100983704D01*
X115484360Y-100983704D02*
X115522455Y-101021800D01*
X115522455Y-101021800D02*
X115598646Y-101059895D01*
X115598646Y-101059895D02*
X115674836Y-101059895D01*
X115674836Y-101059895D02*
X115751027Y-101021800D01*
X115751027Y-101021800D02*
X115789122Y-100983704D01*
X115789122Y-100983704D02*
X115827217Y-100907514D01*
X115827217Y-100907514D02*
X115865313Y-100755133D01*
X115865313Y-100755133D02*
X115865313Y-100564657D01*
X115865313Y-100564657D02*
X115827217Y-100412276D01*
X115827217Y-100412276D02*
X115789122Y-100336085D01*
X115789122Y-100336085D02*
X115751027Y-100297990D01*
X115751027Y-100297990D02*
X115674836Y-100259895D01*
D11*
%TO.C,JP5*%
X112390000Y-97855000D02*
X112390000Y-98455000D01*
X113090000Y-99155000D02*
X114490000Y-99155000D01*
X114490000Y-97155000D02*
X113090000Y-97155000D01*
X115190000Y-98455000D02*
X115190000Y-97855000D01*
X112390000Y-97855000D02*
G75*
G02*
X113090000Y-97155000I700000J0D01*
G01*
X113090000Y-99155000D02*
G75*
G02*
X112390000Y-98455000I0J700000D01*
G01*
X114490000Y-97155000D02*
G75*
G02*
X115190000Y-97855000I1J-699999D01*
G01*
X115190000Y-98455000D02*
G75*
G02*
X114490000Y-99155000I-699999J-1D01*
G01*
%TO.C,JP3*%
X112390000Y-92775000D02*
X112390000Y-93375000D01*
X113090000Y-94075000D02*
X114490000Y-94075000D01*
X114490000Y-92075000D02*
X113090000Y-92075000D01*
X115190000Y-93375000D02*
X115190000Y-92775000D01*
X112390000Y-92775000D02*
G75*
G02*
X113090000Y-92075000I700000J0D01*
G01*
X113090000Y-94075000D02*
G75*
G02*
X112390000Y-93375000I0J700000D01*
G01*
X114490000Y-92075000D02*
G75*
G02*
X115190000Y-92775000I1J-699999D01*
G01*
X115190000Y-93375000D02*
G75*
G02*
X114490000Y-94075000I-699999J-1D01*
G01*
%TO.C,JP2*%
X112390000Y-110555000D02*
X112390000Y-111155000D01*
X113090000Y-111855000D02*
X114490000Y-111855000D01*
X114490000Y-109855000D02*
X113090000Y-109855000D01*
X115190000Y-111155000D02*
X115190000Y-110555000D01*
X112390000Y-110555000D02*
G75*
G02*
X113090000Y-109855000I700000J0D01*
G01*
X113090000Y-111855000D02*
G75*
G02*
X112390000Y-111155000I0J700000D01*
G01*
X114490000Y-109855000D02*
G75*
G02*
X115190000Y-110555000I1J-699999D01*
G01*
X115190000Y-111155000D02*
G75*
G02*
X114490000Y-111855000I-699999J-1D01*
G01*
%TO.C,JP4*%
X112390000Y-95315000D02*
X112390000Y-95915000D01*
X113090000Y-96615000D02*
X114490000Y-96615000D01*
X114490000Y-94615000D02*
X113090000Y-94615000D01*
X115190000Y-95915000D02*
X115190000Y-95315000D01*
X112390000Y-95315000D02*
G75*
G02*
X113090000Y-94615000I700000J0D01*
G01*
X113090000Y-96615000D02*
G75*
G02*
X112390000Y-95915000I0J700000D01*
G01*
X114490000Y-94615000D02*
G75*
G02*
X115190000Y-95315000I1J-699999D01*
G01*
X115190000Y-95915000D02*
G75*
G02*
X114490000Y-96615000I-699999J-1D01*
G01*
%TO.C,JP1*%
X112390000Y-108015000D02*
X112390000Y-108615000D01*
X113090000Y-109315000D02*
X114490000Y-109315000D01*
X114490000Y-107315000D02*
X113090000Y-107315000D01*
X115190000Y-108615000D02*
X115190000Y-108015000D01*
X112390000Y-108015000D02*
G75*
G02*
X113090000Y-107315000I700000J0D01*
G01*
X113090000Y-109315000D02*
G75*
G02*
X112390000Y-108615000I0J700000D01*
G01*
X114490000Y-107315000D02*
G75*
G02*
X115190000Y-108015000I1J-699999D01*
G01*
X115190000Y-108615000D02*
G75*
G02*
X114490000Y-109315000I-699999J-1D01*
G01*
%TO.C,JP7*%
X95265000Y-46755000D02*
X95265000Y-47355000D01*
X95965000Y-48055000D02*
X97365000Y-48055000D01*
X97365000Y-46055000D02*
X95965000Y-46055000D01*
X98065000Y-47355000D02*
X98065000Y-46755000D01*
X95265000Y-46755000D02*
G75*
G02*
X95965000Y-46055000I700000J0D01*
G01*
X95965000Y-48055000D02*
G75*
G02*
X95265000Y-47355000I0J700000D01*
G01*
X97365000Y-46055000D02*
G75*
G02*
X98065000Y-46755000I1J-699999D01*
G01*
X98065000Y-47355000D02*
G75*
G02*
X97365000Y-48055000I-699999J-1D01*
G01*
%TO.C,JP8*%
X95265000Y-49295000D02*
X95265000Y-49895000D01*
X95965000Y-50595000D02*
X97365000Y-50595000D01*
X97365000Y-48595000D02*
X95965000Y-48595000D01*
X98065000Y-49895000D02*
X98065000Y-49295000D01*
X95265000Y-49295000D02*
G75*
G02*
X95965000Y-48595000I700000J0D01*
G01*
X95965000Y-50595000D02*
G75*
G02*
X95265000Y-49895000I0J700000D01*
G01*
X97365000Y-48595000D02*
G75*
G02*
X98065000Y-49295000I1J-699999D01*
G01*
X98065000Y-49895000D02*
G75*
G02*
X97365000Y-50595000I-699999J-1D01*
G01*
%TO.C,JP6*%
X112390000Y-100395000D02*
X112390000Y-100995000D01*
X113090000Y-101695000D02*
X114490000Y-101695000D01*
X114490000Y-99695000D02*
X113090000Y-99695000D01*
X115190000Y-100995000D02*
X115190000Y-100395000D01*
X112390000Y-100395000D02*
G75*
G02*
X113090000Y-99695000I700000J0D01*
G01*
X113090000Y-101695000D02*
G75*
G02*
X112390000Y-100995000I0J700000D01*
G01*
X114490000Y-99695000D02*
G75*
G02*
X115190000Y-100395000I1J-699999D01*
G01*
X115190000Y-100995000D02*
G75*
G02*
X114490000Y-101695000I-699999J-1D01*
G01*
%TD*%
M02*
