M48
; DRILL file {KiCad 9.0.6} date 2026-04-03T23:40:38-0400
; FORMAT={-:-/ absolute / metric / decimal}
; #@! TF.CreationDate,2026-04-03T23:40:38-04:00
; #@! TF.GenerationSoftware,Kicad,Pcbnew,9.0.6
; #@! TF.FileFunction,Plated,1,2,PTH
FMAT,2
METRIC
; #@! TA.AperFunction,Plated,PTH,ViaDrill
T1C0.300
; #@! TA.AperFunction,Plated,PTH,ComponentDrill
T2C0.700
; #@! TA.AperFunction,Plated,PTH,ComponentDrill
T3C0.800
; #@! TA.AperFunction,Plated,PTH,ComponentDrill
T4C1.000
; #@! TA.AperFunction,Plated,PTH,ComponentDrill
T5C1.300
%
G90
G05
T1
X27.165Y-96.725
X29.135Y-42.335
X29.255Y-34.915
X40.265Y-96.885
X44.465Y-60.025
X44.715Y-57.625
X46.865Y-46.825
X50.465Y-53.025
X51.265Y-48.325
X51.365Y-52.425
X52.765Y-37.225
X52.865Y-39.735
X56.645Y-42.275
X56.645Y-54.975
X56.645Y-67.675
X56.645Y-80.375
X56.645Y-85.455
X57.218Y-30.755
X57.715Y-90.965
X57.865Y-31.225
X59.221Y-114.935
X60.325Y-93.305
X60.54Y-112.8
X66.937Y-34.884
X66.965Y-32.283
X66.975Y-33.584
X67.565Y-31.633
X67.578Y-34.234
X67.609Y-32.933
X74.335Y-35.705
X74.425Y-39.735
X74.425Y-42.275
X74.425Y-49.895
X74.425Y-52.435
X74.425Y-54.975
X74.425Y-57.515
X74.425Y-60.055
X74.425Y-65.135
X74.425Y-67.675
X74.425Y-70.215
X74.425Y-72.755
X74.425Y-75.295
X74.425Y-77.835
X74.425Y-80.375
X74.509Y-118.543
X74.765Y-87.125
X80.665Y-86.825
X82.225Y-75.225
X88.165Y-101.875
X90.665Y-85.225
X91.743Y-116.615
X92.145Y-82.735
X92.508Y-116.225
X93.234Y-115.824
X93.931Y-115.423
X94.295Y-114.675
X94.485Y-85.305
X97.315Y-47.055
X97.315Y-49.595
X101.815Y-85.115
X103.055Y-106.135
X105.895Y-97.445
X106.175Y-94.595
X107.055Y-48.375
X107.085Y-78.855
X110.195Y-57.495
X113.14Y-93.075
X113.14Y-95.615
X113.14Y-98.155
X113.14Y-100.695
X113.14Y-107.807
X113.14Y-110.855
X114.935Y-49.875
X115.785Y-57.505
X116.055Y-92.255
X118.965Y-121.725
X119.857Y-51.685
X119.857Y-119.025
T2
X40.135Y-65.135
X40.135Y-67.675
X47.755Y-65.135
X47.755Y-67.675
X81.075Y-51.075
X81.075Y-58.695
X83.615Y-51.075
X83.615Y-58.695
X94.575Y-55.248
X94.575Y-58.062
X102.195Y-55.248
X102.195Y-58.062
T3
X27.475Y-34.885
X32.475Y-34.885
X42.755Y-38.025
X42.755Y-40.565
X42.755Y-43.105
X42.755Y-45.645
X42.755Y-48.185
X42.755Y-50.725
X42.755Y-53.265
X42.755Y-55.805
X47.755Y-38.025
X47.755Y-40.565
X47.755Y-43.105
X47.755Y-45.645
X47.755Y-48.185
X47.755Y-50.725
X47.755Y-53.265
X47.755Y-55.805
X57.435Y-96.885
X57.435Y-99.425
X57.435Y-101.965
X57.435Y-104.505
X57.435Y-107.045
X60.37Y-99.425
X60.37Y-101.965
X60.37Y-104.505
X60.37Y-107.045
X67.99Y-99.425
X67.99Y-101.965
X67.99Y-104.505
X67.99Y-107.045
X82.04Y-64.885
X82.04Y-72.505
X82.04Y-80.125
X82.045Y-93.075
X82.045Y-95.615
X82.045Y-98.155
X82.045Y-100.695
X82.045Y-103.235
X82.045Y-105.775
X82.045Y-108.315
X82.045Y-110.855
X83.35Y-89.265
X88.35Y-89.265
X88.395Y-37.195
X88.395Y-52.435
X89.66Y-64.885
X89.66Y-72.505
X89.66Y-80.125
X89.665Y-93.075
X89.665Y-95.615
X89.665Y-98.155
X89.665Y-100.695
X89.665Y-103.235
X89.665Y-105.775
X89.665Y-108.315
X89.665Y-110.855
X90.935Y-37.195
X90.935Y-52.435
X93.475Y-37.195
X93.475Y-52.435
X94.136Y-70.035
X94.136Y-75.035
X96.015Y-37.195
X96.015Y-52.435
X96.882Y-64.875
X96.882Y-67.415
X96.882Y-69.955
X96.882Y-72.495
X96.882Y-75.035
X96.882Y-77.575
X96.882Y-80.115
X96.882Y-93.075
X96.882Y-95.615
X96.882Y-98.155
X96.882Y-100.695
X96.882Y-103.235
X96.882Y-105.775
X96.882Y-108.315
X96.882Y-110.855
X98.188Y-89.265
X98.555Y-37.195
X98.555Y-52.435
X101.095Y-37.195
X101.095Y-52.435
X103.188Y-89.265
X103.635Y-37.195
X103.635Y-52.435
X104.502Y-64.875
X104.502Y-67.415
X104.502Y-69.955
X104.502Y-72.495
X104.502Y-75.035
X104.502Y-77.575
X104.502Y-80.115
X104.502Y-93.075
X104.502Y-95.615
X104.502Y-98.155
X104.502Y-100.695
X104.502Y-103.235
X104.502Y-105.775
X104.502Y-108.315
X104.502Y-110.855
X106.175Y-37.195
X106.175Y-52.435
X107.239Y-70.035
X107.239Y-75.035
X108.715Y-37.195
X108.715Y-52.435
X109.985Y-64.875
X109.985Y-67.415
X109.985Y-69.955
X109.985Y-72.495
X109.985Y-75.035
X109.985Y-77.575
X109.985Y-80.115
X111.255Y-37.195
X111.255Y-52.435
X111.335Y-55.248
X113.795Y-37.195
X113.795Y-52.435
X116.335Y-37.195
X116.335Y-52.435
X116.335Y-55.248
X117.605Y-64.875
X117.605Y-67.415
X117.605Y-69.955
X117.605Y-72.495
X117.605Y-75.035
X117.605Y-77.575
X117.605Y-80.115
T4
X29.265Y-65.125
X29.265Y-67.665
X29.265Y-70.205
X29.265Y-72.745
X29.265Y-75.285
X29.265Y-77.825
X29.265Y-80.365
X29.265Y-82.905
X29.265Y-85.445
X32.62Y-120.57
X35.16Y-120.57
X37.7Y-120.57
X40.24Y-120.57
X44.05Y-118.06
X44.05Y-120.6
X46.59Y-118.06
X46.59Y-120.6
X49.13Y-118.06
X49.13Y-120.6
X51.67Y-118.06
X51.67Y-120.6
X55.48Y-118.03
X55.48Y-120.57
X58.02Y-118.03
X58.02Y-120.57
X60.56Y-118.03
X60.56Y-120.57
X63.1Y-118.03
X63.1Y-120.57
X65.64Y-118.03
X65.64Y-120.57
X68.18Y-118.03
X68.18Y-120.57
X70.72Y-118.03
X70.72Y-120.57
X73.26Y-118.03
X73.26Y-120.57
X75.8Y-118.03
X75.8Y-120.57
X78.34Y-118.03
X78.34Y-120.57
X80.88Y-118.03
X80.88Y-120.57
X83.42Y-118.03
X83.42Y-120.57
X85.96Y-118.03
X85.96Y-120.57
X88.5Y-118.03
X88.5Y-120.57
X91.04Y-118.03
X91.04Y-120.57
X93.58Y-118.03
X93.58Y-120.57
X96.12Y-118.03
X96.12Y-120.57
X98.66Y-118.03
X98.66Y-120.57
X101.2Y-118.03
X101.2Y-120.57
X103.74Y-118.03
X103.74Y-120.57
X106.28Y-118.03
X106.28Y-120.57
X108.82Y-118.03
X108.82Y-120.57
X111.36Y-118.03
X111.36Y-120.57
X113.9Y-118.03
X113.9Y-120.57
X116.44Y-118.03
X116.44Y-120.57
T5
X27.575Y-38.235
X27.575Y-53.935
X32.475Y-38.835
X32.475Y-53.335
M30
