%TF.GenerationSoftware,KiCad,Pcbnew,9.0.6*%
%TF.CreationDate,2026-04-03T23:40:34-04:00*%
%TF.ProjectId,Terminal,5465726d-696e-4616-9c2e-6b696361645f,rev?*%
%TF.SameCoordinates,Original*%
%TF.FileFunction,Soldermask,Top*%
%TF.FilePolarity,Negative*%
%FSLAX46Y46*%
G04 Gerber Fmt 4.6, Leading zero omitted, Abs format (unit mm)*
G04 Created by KiCad (PCBNEW 9.0.6) date 2026-04-03 23:40:34*
%MOMM*%
%LPD*%
G01*
G04 APERTURE LIST*
G04 Aperture macros list*
%AMRoundRect*
0 Rectangle with rounded corners*
0 $1 Rounding radius*
0 $2 $3 $4 $5 $6 $7 $8 $9 X,Y pos of 4 corners*
0 Add a 4 corners polygon primitive as box body*
4,1,4,$2,$3,$4,$5,$6,$7,$8,$9,$2,$3,0*
0 Add four circle primitives for the rounded corners*
1,1,$1+$1,$2,$3*
1,1,$1+$1,$4,$5*
1,1,$1+$1,$6,$7*
1,1,$1+$1,$8,$9*
0 Add four rect primitives between the rounded corners*
20,1,$1+$1,$2,$3,$4,$5,0*
20,1,$1+$1,$4,$5,$6,$7,0*
20,1,$1+$1,$6,$7,$8,$9,0*
20,1,$1+$1,$8,$9,$2,$3,0*%
%AMFreePoly0*
4,1,37,1.600000,0.796148,1.678414,0.796148,1.832228,0.765552,1.977117,0.705537,2.107515,0.618408,2.218408,0.507515,2.305537,0.377117,2.365552,0.232228,2.396148,0.078414,2.396148,-0.078414,2.365552,-0.232228,2.305537,-0.377117,2.218408,-0.507515,2.107515,-0.618408,1.977117,-0.705537,1.832228,-0.765552,1.678414,-0.796148,1.600000,-0.796148,1.600000,-0.800000,-0.600000,-0.800000,
-0.603843,-0.796157,-0.639018,-0.796157,-0.711114,-0.766294,-0.766294,-0.711114,-0.796157,-0.639018,-0.796157,-0.603843,-0.800000,-0.600000,-0.800000,0.600000,-0.796157,0.603843,-0.796157,0.639018,-0.766294,0.711114,-0.711114,0.766294,-0.639018,0.796157,-0.603843,0.796157,-0.600000,0.800000,1.600000,0.800000,1.600000,0.796148,1.600000,0.796148,$1*%
%AMFreePoly1*
4,1,37,0.000000,0.796148,0.078414,0.796148,0.232228,0.765552,0.377117,0.705537,0.507515,0.618408,0.618408,0.507515,0.705537,0.377117,0.765552,0.232228,0.796148,0.078414,0.796148,-0.078414,0.765552,-0.232228,0.705537,-0.377117,0.618408,-0.507515,0.507515,-0.618408,0.377117,-0.705537,0.232228,-0.765552,0.078414,-0.796148,0.000000,-0.796148,0.000000,-0.800000,-2.200000,-0.800000,
-2.203843,-0.796157,-2.239018,-0.796157,-2.311114,-0.766294,-2.366294,-0.711114,-2.396157,-0.639018,-2.396157,-0.603843,-2.400000,-0.600000,-2.400000,0.600000,-2.396157,0.603843,-2.396157,0.639018,-2.366294,0.711114,-2.311114,0.766294,-2.239018,0.796157,-2.203843,0.796157,-2.200000,0.800000,0.000000,0.800000,0.000000,0.796148,0.000000,0.796148,$1*%
%AMFreePoly2*
4,1,37,0.603843,0.796157,0.639018,0.796157,0.711114,0.766294,0.766294,0.711114,0.796157,0.639018,0.796157,0.603843,0.800000,0.600000,0.800000,-0.600000,0.796157,-0.603843,0.796157,-0.639018,0.766294,-0.711114,0.711114,-0.766294,0.639018,-0.796157,0.603843,-0.796157,0.600000,-0.800000,-1.600000,-0.800000,-1.600000,-0.796148,-1.678414,-0.796148,-1.832228,-0.765552,-1.977117,-0.705537,
-2.107515,-0.618408,-2.218408,-0.507515,-2.305537,-0.377117,-2.365552,-0.232228,-2.396148,-0.078414,-2.396148,0.078414,-2.365552,0.232228,-2.305537,0.377117,-2.218408,0.507515,-2.107515,0.618408,-1.977117,0.705537,-1.832228,0.765552,-1.678414,0.796148,-1.600000,0.796148,-1.600000,0.800000,0.600000,0.800000,0.603843,0.796157,0.603843,0.796157,$1*%
G04 Aperture macros list end*
%ADD10C,1.600000*%
%ADD11RoundRect,0.250000X-0.550000X-0.550000X0.550000X-0.550000X0.550000X0.550000X-0.550000X0.550000X0*%
%ADD12C,3.200000*%
%ADD13R,1.700000X1.700000*%
%ADD14C,1.700000*%
%ADD15C,1.400000*%
%ADD16R,1.900000X0.300000*%
%ADD17C,1.800000*%
%ADD18C,3.800000*%
%ADD19C,2.200000*%
%ADD20RoundRect,0.800000X0.000010X-0.800000X0.000010X0.800000X-0.000010X0.800000X-0.000010X-0.800000X0*%
%ADD21C,1.850000*%
%ADD22FreePoly0,270.000000*%
%ADD23FreePoly1,0.000000*%
%ADD24RoundRect,0.800000X-0.800000X-0.000010X0.800000X-0.000010X0.800000X0.000010X-0.800000X0.000010X0*%
%ADD25FreePoly2,0.000000*%
%ADD26FreePoly0,0.000000*%
%ADD27R,1.600000X1.600000*%
%ADD28RoundRect,0.250000X0.550000X-0.550000X0.550000X0.550000X-0.550000X0.550000X-0.550000X-0.550000X0*%
%ADD29RoundRect,0.250000X0.550000X0.550000X-0.550000X0.550000X-0.550000X-0.550000X0.550000X-0.550000X0*%
G04 APERTURE END LIST*
D10*
%TO.C,C1*%
X47755000Y-55805000D03*
X42755000Y-55805000D03*
%TD*%
D11*
%TO.C,U6*%
X109985000Y-64875000D03*
D10*
X109985000Y-67415000D03*
X109985000Y-69955000D03*
X109985000Y-72495000D03*
X109985000Y-75035000D03*
X109985000Y-77575000D03*
X109985000Y-80115000D03*
X117605000Y-80115000D03*
X117605000Y-77575000D03*
X117605000Y-75035000D03*
X117605000Y-72495000D03*
X117605000Y-69955000D03*
X117605000Y-67415000D03*
X117605000Y-64875000D03*
%TD*%
D12*
%TO.C,J1*%
X28200000Y-28200000D03*
X121800000Y-28200000D03*
D13*
X116440000Y-118030000D03*
D14*
X116440000Y-120570000D03*
X113900000Y-118030000D03*
X113900000Y-120570000D03*
X111360000Y-118030000D03*
X111360000Y-120570000D03*
X108820000Y-118030000D03*
X108820000Y-120570000D03*
X106280000Y-118030000D03*
X106280000Y-120570000D03*
X103740000Y-118030000D03*
X103740000Y-120570000D03*
X101200000Y-118030000D03*
X101200000Y-120570000D03*
X98660000Y-118030000D03*
X98660000Y-120570000D03*
X96120000Y-118030000D03*
X96120000Y-120570000D03*
X93580000Y-118030000D03*
X93580000Y-120570000D03*
X91040000Y-118030000D03*
X91040000Y-120570000D03*
X88500000Y-118030000D03*
X88500000Y-120570000D03*
X85960000Y-118030000D03*
X85960000Y-120570000D03*
X83420000Y-118030000D03*
X83420000Y-120570000D03*
X80880000Y-118030000D03*
X80880000Y-120570000D03*
X78340000Y-118030000D03*
X78340000Y-120570000D03*
X75800000Y-118030000D03*
X75800000Y-120570000D03*
X73260000Y-118030000D03*
X73260000Y-120570000D03*
X70720000Y-118030000D03*
X70720000Y-120570000D03*
X68180000Y-118030000D03*
X68180000Y-120570000D03*
X65640000Y-118030000D03*
X65640000Y-120570000D03*
X63100000Y-118030000D03*
X63100000Y-120570000D03*
X60560000Y-118030000D03*
X60560000Y-120570000D03*
X58020000Y-118030000D03*
X58020000Y-120570000D03*
X55480000Y-118030000D03*
X55480000Y-120570000D03*
D13*
X51670000Y-118060000D03*
D14*
X51670000Y-120600000D03*
X49130000Y-118060000D03*
X49130000Y-120600000D03*
X46590000Y-118060000D03*
X46590000Y-120600000D03*
X44050000Y-118060000D03*
X44050000Y-120600000D03*
D13*
X40240000Y-120570000D03*
D14*
X37700000Y-120570000D03*
X35160000Y-120570000D03*
X32620000Y-120570000D03*
%TD*%
D10*
%TO.C,C10*%
X83350000Y-89265000D03*
X88350000Y-89265000D03*
%TD*%
%TO.C,C5*%
X47755000Y-45645000D03*
X42755000Y-45645000D03*
%TD*%
D15*
%TO.C,R2*%
X94575000Y-55248333D03*
X102195000Y-55248333D03*
%TD*%
D16*
%TO.C,J2*%
X33475000Y-50835000D03*
X33475000Y-50335000D03*
X33475000Y-49835000D03*
X33475000Y-49335000D03*
X33475000Y-48835000D03*
X33475000Y-48335000D03*
X33475000Y-47835000D03*
X33475000Y-47335000D03*
X33475000Y-46835000D03*
X33475000Y-46335000D03*
X33475000Y-45835000D03*
X33475000Y-45335000D03*
X33475000Y-44835000D03*
X33475000Y-44335000D03*
X33475000Y-43835000D03*
X33475000Y-43335000D03*
X33475000Y-42835000D03*
X33475000Y-42335000D03*
X33475000Y-41835000D03*
D17*
X27575000Y-38235000D03*
X32475000Y-38835000D03*
X32475000Y-53335000D03*
X27575000Y-53935000D03*
%TD*%
D10*
%TO.C,C6*%
X42755000Y-43105000D03*
X47755000Y-43105000D03*
%TD*%
D11*
%TO.C,U4*%
X96882500Y-93075000D03*
D10*
X96882500Y-95615000D03*
X96882500Y-98155000D03*
X96882500Y-100695000D03*
X96882500Y-103235000D03*
X96882500Y-105775000D03*
X96882500Y-108315000D03*
X96882500Y-110855000D03*
X104502500Y-110855000D03*
X104502500Y-108315000D03*
X104502500Y-105775000D03*
X104502500Y-103235000D03*
X104502500Y-100695000D03*
X104502500Y-98155000D03*
X104502500Y-95615000D03*
X104502500Y-93075000D03*
%TD*%
%TO.C,C12*%
X32475000Y-34885000D03*
X27475000Y-34885000D03*
%TD*%
D15*
%TO.C,R6*%
X83615000Y-58695000D03*
X83615000Y-51075000D03*
%TD*%
%TO.C,R4*%
X40135000Y-65135000D03*
X47755000Y-65135000D03*
%TD*%
D10*
%TO.C,C11*%
X107238750Y-75035000D03*
X107238750Y-70035000D03*
%TD*%
D18*
%TO.C,\u03C01*%
X59835000Y-37825000D03*
X59835000Y-84825000D03*
D19*
X62810000Y-37325000D03*
D20*
X62995000Y-86025000D03*
D21*
X63110000Y-40355000D03*
D22*
X65535000Y-85225000D03*
D21*
X67960000Y-40355000D03*
D20*
X68075000Y-86025000D03*
D19*
X68260000Y-37325000D03*
D18*
X71235000Y-37825000D03*
X71235000Y-84825000D03*
D23*
X56645000Y-37195000D03*
D24*
X55845000Y-39735000D03*
D25*
X56645000Y-42275000D03*
D24*
X55845000Y-44815000D03*
X55845000Y-47355000D03*
X55845000Y-49895000D03*
X55845000Y-52435000D03*
D25*
X56645000Y-54975000D03*
D24*
X55845000Y-57515000D03*
X55845000Y-60055000D03*
X55845000Y-62595000D03*
X55845000Y-65135000D03*
D25*
X56645000Y-67675000D03*
D24*
X55845000Y-70215000D03*
X55845000Y-72755000D03*
X55845000Y-75295000D03*
X55845000Y-77835000D03*
D25*
X56645000Y-80375000D03*
D24*
X55845000Y-82915000D03*
X55845000Y-85455000D03*
X75225000Y-85455000D03*
X75225000Y-82915000D03*
D26*
X74425000Y-80375000D03*
D24*
X75225000Y-77835000D03*
X75225000Y-75295000D03*
X75225000Y-72755000D03*
X75225000Y-70215000D03*
D26*
X74425000Y-67675000D03*
D24*
X75225000Y-65135000D03*
X75225000Y-62595000D03*
X75225000Y-60055000D03*
X75225000Y-57515000D03*
D26*
X74425000Y-54975000D03*
D24*
X75225000Y-52435000D03*
X75225000Y-49895000D03*
X75225000Y-47355000D03*
X75225000Y-44815000D03*
D26*
X74425000Y-42275000D03*
D24*
X75225000Y-39735000D03*
X75225000Y-37195000D03*
%TD*%
D10*
%TO.C,C3*%
X47755000Y-50725000D03*
X42755000Y-50725000D03*
%TD*%
%TO.C,C9*%
X116335000Y-55248333D03*
X111335000Y-55248333D03*
%TD*%
%TO.C,C14*%
X94136250Y-70035000D03*
X94136250Y-75035000D03*
%TD*%
D15*
%TO.C,R3*%
X40135000Y-67675000D03*
X47755000Y-67675000D03*
%TD*%
D27*
%TO.C,RN1*%
X57435000Y-96885000D03*
D10*
X57435000Y-99425000D03*
X57435000Y-101965000D03*
X57435000Y-104505000D03*
X57435000Y-107045000D03*
%TD*%
D27*
%TO.C,Y1*%
X89660000Y-80125000D03*
D10*
X89660000Y-72505000D03*
X89660000Y-64885000D03*
X82040000Y-72505000D03*
X82040000Y-64885000D03*
X82040000Y-80125000D03*
%TD*%
D11*
%TO.C,U1*%
X82045000Y-93075000D03*
D10*
X82045000Y-95615000D03*
X82045000Y-98155000D03*
X82045000Y-100695000D03*
X82045000Y-103235000D03*
X82045000Y-105775000D03*
X82045000Y-108315000D03*
X82045000Y-110855000D03*
X89665000Y-110855000D03*
X89665000Y-108315000D03*
X89665000Y-105775000D03*
X89665000Y-103235000D03*
X89665000Y-100695000D03*
X89665000Y-98155000D03*
X89665000Y-95615000D03*
X89665000Y-93075000D03*
%TD*%
D11*
%TO.C,U2*%
X96882500Y-64875000D03*
D10*
X96882500Y-67415000D03*
X96882500Y-69955000D03*
X96882500Y-72495000D03*
X96882500Y-75035000D03*
X96882500Y-77575000D03*
X96882500Y-80115000D03*
X104502500Y-80115000D03*
X104502500Y-77575000D03*
X104502500Y-75035000D03*
X104502500Y-72495000D03*
X104502500Y-69955000D03*
X104502500Y-67415000D03*
X104502500Y-64875000D03*
%TD*%
D15*
%TO.C,R1*%
X94575000Y-58061667D03*
X102195000Y-58061667D03*
%TD*%
%TO.C,R5*%
X81075000Y-58695000D03*
X81075000Y-51075000D03*
%TD*%
D10*
%TO.C,C7*%
X47755000Y-40565000D03*
X42755000Y-40565000D03*
%TD*%
%TO.C,C2*%
X42755000Y-53265000D03*
X47755000Y-53265000D03*
%TD*%
%TO.C,C4*%
X42755000Y-48185000D03*
X47755000Y-48185000D03*
%TD*%
%TO.C,C13*%
X103187500Y-89265000D03*
X98187500Y-89265000D03*
%TD*%
D28*
%TO.C,U3*%
X88395000Y-52435000D03*
D10*
X90935000Y-52435000D03*
X93475000Y-52435000D03*
X96015000Y-52435000D03*
X98555000Y-52435000D03*
X101095000Y-52435000D03*
X103635000Y-52435000D03*
X106175000Y-52435000D03*
X108715000Y-52435000D03*
X111255000Y-52435000D03*
X113795000Y-52435000D03*
X116335000Y-52435000D03*
X116335000Y-37195000D03*
X113795000Y-37195000D03*
X111255000Y-37195000D03*
X108715000Y-37195000D03*
X106175000Y-37195000D03*
X103635000Y-37195000D03*
X101095000Y-37195000D03*
X98555000Y-37195000D03*
X96015000Y-37195000D03*
X93475000Y-37195000D03*
X90935000Y-37195000D03*
X88395000Y-37195000D03*
%TD*%
%TO.C,C8*%
X42755000Y-38025000D03*
X47755000Y-38025000D03*
%TD*%
D29*
%TO.C,SW1*%
X67990000Y-107045000D03*
D10*
X67990000Y-104505000D03*
X67990000Y-101965000D03*
X67990000Y-99425000D03*
X60370000Y-99425000D03*
X60370000Y-101965000D03*
X60370000Y-104505000D03*
X60370000Y-107045000D03*
%TD*%
D13*
%TO.C,J3*%
X29265000Y-65125000D03*
D14*
X29265000Y-67665000D03*
X29265000Y-70205000D03*
X29265000Y-72745000D03*
X29265000Y-75285000D03*
X29265000Y-77825000D03*
X29265000Y-80365000D03*
X29265000Y-82905000D03*
X29265000Y-85445000D03*
%TD*%
M02*
