%TF.GenerationSoftware,KiCad,Pcbnew,9.0.6*%
%TF.CreationDate,2026-04-03T23:40:34-04:00*%
%TF.ProjectId,Terminal,5465726d-696e-4616-9c2e-6b696361645f,rev?*%
%TF.SameCoordinates,Original*%
%TF.FileFunction,Paste,Top*%
%TF.FilePolarity,Positive*%
%FSLAX46Y46*%
G04 Gerber Fmt 4.6, Leading zero omitted, Abs format (unit mm)*
G04 Created by KiCad (PCBNEW 9.0.6) date 2026-04-03 23:40:34*
%MOMM*%
%LPD*%
G01*
G04 APERTURE LIST*
%ADD10R,1.900000X0.300000*%
%ADD11R,3.800000X2.200000*%
%ADD12R,2.200000X3.800000*%
G04 APERTURE END LIST*
D10*
%TO.C,J2*%
X33475000Y-50835000D03*
X33475000Y-50335000D03*
X33475000Y-49835000D03*
X33475000Y-49335000D03*
X33475000Y-48835000D03*
X33475000Y-48335000D03*
X33475000Y-47835000D03*
X33475000Y-47335000D03*
X33475000Y-46835000D03*
X33475000Y-46335000D03*
X33475000Y-45835000D03*
X33475000Y-45335000D03*
X33475000Y-44835000D03*
X33475000Y-44335000D03*
X33475000Y-43835000D03*
X33475000Y-43335000D03*
X33475000Y-42835000D03*
X33475000Y-42335000D03*
X33475000Y-41835000D03*
%TD*%
D11*
%TO.C,\u03C01*%
X55845000Y-37195000D03*
X55845000Y-39735000D03*
X55845000Y-42275000D03*
X55845000Y-44815000D03*
X55845000Y-47355000D03*
X55845000Y-49895000D03*
X55845000Y-52435000D03*
X55845000Y-54975000D03*
X55845000Y-57515000D03*
X55845000Y-60055000D03*
X55845000Y-62595000D03*
X55845000Y-65135000D03*
X55845000Y-67675000D03*
X55845000Y-70215000D03*
X55845000Y-72755000D03*
X55845000Y-75295000D03*
X55845000Y-77835000D03*
X55845000Y-80375000D03*
X55845000Y-82915000D03*
X55845000Y-85455000D03*
D12*
X62995000Y-86025000D03*
X65535000Y-86025000D03*
X68075000Y-86025000D03*
D11*
X75225000Y-37195000D03*
X75225000Y-39735000D03*
X75225000Y-42275000D03*
X75225000Y-44815000D03*
X75225000Y-47355000D03*
X75225000Y-49895000D03*
X75225000Y-52435000D03*
X75225000Y-54975000D03*
X75225000Y-57515000D03*
X75225000Y-60055000D03*
X75225000Y-62595000D03*
X75225000Y-65135000D03*
X75225000Y-67675000D03*
X75225000Y-70215000D03*
X75225000Y-72755000D03*
X75225000Y-75295000D03*
X75225000Y-77835000D03*
X75225000Y-80375000D03*
X75225000Y-82915000D03*
X75225000Y-85455000D03*
%TD*%
M02*
