%TF.GenerationSoftware,KiCad,Pcbnew,9.0.6*%
%TF.CreationDate,2026-04-03T23:40:34-04:00*%
%TF.ProjectId,Terminal,5465726d-696e-4616-9c2e-6b696361645f,rev?*%
%TF.SameCoordinates,Original*%
%TF.FileFunction,Soldermask,Bot*%
%TF.FilePolarity,Negative*%
%FSLAX46Y46*%
G04 Gerber Fmt 4.6, Leading zero omitted, Abs format (unit mm)*
G04 Created by KiCad (PCBNEW 9.0.6) date 2026-04-03 23:40:34*
%MOMM*%
%LPD*%
G01*
G04 APERTURE LIST*
G04 Aperture macros list*
%AMRoundRect*
0 Rectangle with rounded corners*
0 $1 Rounding radius*
0 $2 $3 $4 $5 $6 $7 $8 $9 X,Y pos of 4 corners*
0 Add a 4 corners polygon primitive as box body*
4,1,4,$2,$3,$4,$5,$6,$7,$8,$9,$2,$3,0*
0 Add four circle primitives for the rounded corners*
1,1,$1+$1,$2,$3*
1,1,$1+$1,$4,$5*
1,1,$1+$1,$6,$7*
1,1,$1+$1,$8,$9*
0 Add four rect primitives between the rounded corners*
20,1,$1+$1,$2,$3,$4,$5,0*
20,1,$1+$1,$4,$5,$6,$7,0*
20,1,$1+$1,$6,$7,$8,$9,0*
20,1,$1+$1,$8,$9,$2,$3,0*%
%AMFreePoly0*
4,1,23,0.500000,-0.750000,0.000000,-0.750000,0.000000,-0.745722,-0.065263,-0.745722,-0.191342,-0.711940,-0.304381,-0.646677,-0.396677,-0.554381,-0.461940,-0.441342,-0.495722,-0.315263,-0.495722,-0.250000,-0.500000,-0.250000,-0.500000,0.250000,-0.495722,0.250000,-0.495722,0.315263,-0.461940,0.441342,-0.396677,0.554381,-0.304381,0.646677,-0.191342,0.711940,-0.065263,0.745722,0.000000,0.745722,
0.000000,0.750000,0.500000,0.750000,0.500000,-0.750000,0.500000,-0.750000,$1*%
%AMFreePoly1*
4,1,23,0.000000,0.745722,0.065263,0.745722,0.191342,0.711940,0.304381,0.646677,0.396677,0.554381,0.461940,0.441342,0.495722,0.315263,0.495722,0.250000,0.500000,0.250000,0.500000,-0.250000,0.495722,-0.250000,0.495722,-0.315263,0.461940,-0.441342,0.396677,-0.554381,0.304381,-0.646677,0.191342,-0.711940,0.065263,-0.745722,0.000000,-0.745722,0.000000,-0.750000,-0.500000,-0.750000,
-0.500000,0.750000,0.000000,0.750000,0.000000,0.745722,0.000000,0.745722,$1*%
G04 Aperture macros list end*
%ADD10C,1.600000*%
%ADD11RoundRect,0.250000X-0.550000X-0.550000X0.550000X-0.550000X0.550000X0.550000X-0.550000X0.550000X0*%
%ADD12C,3.200000*%
%ADD13R,1.700000X1.700000*%
%ADD14C,1.700000*%
%ADD15C,1.400000*%
%ADD16C,1.800000*%
%ADD17C,3.800000*%
%ADD18C,2.200000*%
%ADD19C,1.850000*%
%ADD20R,1.600000X1.600000*%
%ADD21RoundRect,0.250000X0.550000X-0.550000X0.550000X0.550000X-0.550000X0.550000X-0.550000X-0.550000X0*%
%ADD22RoundRect,0.250000X0.550000X0.550000X-0.550000X0.550000X-0.550000X-0.550000X0.550000X-0.550000X0*%
%ADD23FreePoly0,180.000000*%
%ADD24FreePoly1,180.000000*%
G04 APERTURE END LIST*
%TO.C,JP5*%
G36*
X113940000Y-97405000D02*
G01*
X113640000Y-97405000D01*
X113640000Y-98905000D01*
X113940000Y-98905000D01*
X113940000Y-97405000D01*
G37*
%TO.C,JP3*%
G36*
X113940000Y-92325000D02*
G01*
X113640000Y-92325000D01*
X113640000Y-93825000D01*
X113940000Y-93825000D01*
X113940000Y-92325000D01*
G37*
%TO.C,JP2*%
G36*
X113940000Y-110105000D02*
G01*
X113640000Y-110105000D01*
X113640000Y-111605000D01*
X113940000Y-111605000D01*
X113940000Y-110105000D01*
G37*
%TO.C,JP4*%
G36*
X113940000Y-94865000D02*
G01*
X113640000Y-94865000D01*
X113640000Y-96365000D01*
X113940000Y-96365000D01*
X113940000Y-94865000D01*
G37*
%TO.C,JP1*%
G36*
X113940000Y-107565000D02*
G01*
X113640000Y-107565000D01*
X113640000Y-109065000D01*
X113940000Y-109065000D01*
X113940000Y-107565000D01*
G37*
%TO.C,JP7*%
G36*
X96815000Y-46305000D02*
G01*
X96515000Y-46305000D01*
X96515000Y-47805000D01*
X96815000Y-47805000D01*
X96815000Y-46305000D01*
G37*
%TO.C,JP8*%
G36*
X96815000Y-48845000D02*
G01*
X96515000Y-48845000D01*
X96515000Y-50345000D01*
X96815000Y-50345000D01*
X96815000Y-48845000D01*
G37*
%TO.C,JP6*%
G36*
X113940000Y-99945000D02*
G01*
X113640000Y-99945000D01*
X113640000Y-101445000D01*
X113940000Y-101445000D01*
X113940000Y-99945000D01*
G37*
%TD*%
D10*
%TO.C,C1*%
X47755000Y-55805000D03*
X42755000Y-55805000D03*
%TD*%
D11*
%TO.C,U6*%
X109985000Y-64875000D03*
D10*
X109985000Y-67415000D03*
X109985000Y-69955000D03*
X109985000Y-72495000D03*
X109985000Y-75035000D03*
X109985000Y-77575000D03*
X109985000Y-80115000D03*
X117605000Y-80115000D03*
X117605000Y-77575000D03*
X117605000Y-75035000D03*
X117605000Y-72495000D03*
X117605000Y-69955000D03*
X117605000Y-67415000D03*
X117605000Y-64875000D03*
%TD*%
D12*
%TO.C,J1*%
X28200000Y-28200000D03*
X121800000Y-28200000D03*
D13*
X116440000Y-118030000D03*
D14*
X116440000Y-120570000D03*
X113900000Y-118030000D03*
X113900000Y-120570000D03*
X111360000Y-118030000D03*
X111360000Y-120570000D03*
X108820000Y-118030000D03*
X108820000Y-120570000D03*
X106280000Y-118030000D03*
X106280000Y-120570000D03*
X103740000Y-118030000D03*
X103740000Y-120570000D03*
X101200000Y-118030000D03*
X101200000Y-120570000D03*
X98660000Y-118030000D03*
X98660000Y-120570000D03*
X96120000Y-118030000D03*
X96120000Y-120570000D03*
X93580000Y-118030000D03*
X93580000Y-120570000D03*
X91040000Y-118030000D03*
X91040000Y-120570000D03*
X88500000Y-118030000D03*
X88500000Y-120570000D03*
X85960000Y-118030000D03*
X85960000Y-120570000D03*
X83420000Y-118030000D03*
X83420000Y-120570000D03*
X80880000Y-118030000D03*
X80880000Y-120570000D03*
X78340000Y-118030000D03*
X78340000Y-120570000D03*
X75800000Y-118030000D03*
X75800000Y-120570000D03*
X73260000Y-118030000D03*
X73260000Y-120570000D03*
X70720000Y-118030000D03*
X70720000Y-120570000D03*
X68180000Y-118030000D03*
X68180000Y-120570000D03*
X65640000Y-118030000D03*
X65640000Y-120570000D03*
X63100000Y-118030000D03*
X63100000Y-120570000D03*
X60560000Y-118030000D03*
X60560000Y-120570000D03*
X58020000Y-118030000D03*
X58020000Y-120570000D03*
X55480000Y-118030000D03*
X55480000Y-120570000D03*
D13*
X51670000Y-118060000D03*
D14*
X51670000Y-120600000D03*
X49130000Y-118060000D03*
X49130000Y-120600000D03*
X46590000Y-118060000D03*
X46590000Y-120600000D03*
X44050000Y-118060000D03*
X44050000Y-120600000D03*
D13*
X40240000Y-120570000D03*
D14*
X37700000Y-120570000D03*
X35160000Y-120570000D03*
X32620000Y-120570000D03*
%TD*%
D10*
%TO.C,C10*%
X83350000Y-89265000D03*
X88350000Y-89265000D03*
%TD*%
%TO.C,C5*%
X47755000Y-45645000D03*
X42755000Y-45645000D03*
%TD*%
D15*
%TO.C,R2*%
X94575000Y-55248333D03*
X102195000Y-55248333D03*
%TD*%
D16*
%TO.C,J2*%
X27575000Y-38235000D03*
X32475000Y-38835000D03*
X32475000Y-53335000D03*
X27575000Y-53935000D03*
%TD*%
D10*
%TO.C,C6*%
X42755000Y-43105000D03*
X47755000Y-43105000D03*
%TD*%
D11*
%TO.C,U4*%
X96882500Y-93075000D03*
D10*
X96882500Y-95615000D03*
X96882500Y-98155000D03*
X96882500Y-100695000D03*
X96882500Y-103235000D03*
X96882500Y-105775000D03*
X96882500Y-108315000D03*
X96882500Y-110855000D03*
X104502500Y-110855000D03*
X104502500Y-108315000D03*
X104502500Y-105775000D03*
X104502500Y-103235000D03*
X104502500Y-100695000D03*
X104502500Y-98155000D03*
X104502500Y-95615000D03*
X104502500Y-93075000D03*
%TD*%
%TO.C,C12*%
X32475000Y-34885000D03*
X27475000Y-34885000D03*
%TD*%
D15*
%TO.C,R6*%
X83615000Y-58695000D03*
X83615000Y-51075000D03*
%TD*%
%TO.C,R4*%
X40135000Y-65135000D03*
X47755000Y-65135000D03*
%TD*%
D10*
%TO.C,C11*%
X107238750Y-75035000D03*
X107238750Y-70035000D03*
%TD*%
D17*
%TO.C,\u03C01*%
X59835000Y-37825000D03*
X59835000Y-84825000D03*
D18*
X62810000Y-37325000D03*
D19*
X63110000Y-40355000D03*
X67960000Y-40355000D03*
D18*
X68260000Y-37325000D03*
D17*
X71235000Y-37825000D03*
X71235000Y-84825000D03*
%TD*%
D10*
%TO.C,C3*%
X47755000Y-50725000D03*
X42755000Y-50725000D03*
%TD*%
%TO.C,C9*%
X116335000Y-55248333D03*
X111335000Y-55248333D03*
%TD*%
%TO.C,C14*%
X94136250Y-70035000D03*
X94136250Y-75035000D03*
%TD*%
D15*
%TO.C,R3*%
X40135000Y-67675000D03*
X47755000Y-67675000D03*
%TD*%
D20*
%TO.C,RN1*%
X57435000Y-96885000D03*
D10*
X57435000Y-99425000D03*
X57435000Y-101965000D03*
X57435000Y-104505000D03*
X57435000Y-107045000D03*
%TD*%
D20*
%TO.C,Y1*%
X89660000Y-80125000D03*
D10*
X89660000Y-72505000D03*
X89660000Y-64885000D03*
X82040000Y-72505000D03*
X82040000Y-64885000D03*
X82040000Y-80125000D03*
%TD*%
D11*
%TO.C,U1*%
X82045000Y-93075000D03*
D10*
X82045000Y-95615000D03*
X82045000Y-98155000D03*
X82045000Y-100695000D03*
X82045000Y-103235000D03*
X82045000Y-105775000D03*
X82045000Y-108315000D03*
X82045000Y-110855000D03*
X89665000Y-110855000D03*
X89665000Y-108315000D03*
X89665000Y-105775000D03*
X89665000Y-103235000D03*
X89665000Y-100695000D03*
X89665000Y-98155000D03*
X89665000Y-95615000D03*
X89665000Y-93075000D03*
%TD*%
D11*
%TO.C,U2*%
X96882500Y-64875000D03*
D10*
X96882500Y-67415000D03*
X96882500Y-69955000D03*
X96882500Y-72495000D03*
X96882500Y-75035000D03*
X96882500Y-77575000D03*
X96882500Y-80115000D03*
X104502500Y-80115000D03*
X104502500Y-77575000D03*
X104502500Y-75035000D03*
X104502500Y-72495000D03*
X104502500Y-69955000D03*
X104502500Y-67415000D03*
X104502500Y-64875000D03*
%TD*%
D15*
%TO.C,R1*%
X94575000Y-58061667D03*
X102195000Y-58061667D03*
%TD*%
%TO.C,R5*%
X81075000Y-58695000D03*
X81075000Y-51075000D03*
%TD*%
D10*
%TO.C,C7*%
X47755000Y-40565000D03*
X42755000Y-40565000D03*
%TD*%
%TO.C,C2*%
X42755000Y-53265000D03*
X47755000Y-53265000D03*
%TD*%
%TO.C,C4*%
X42755000Y-48185000D03*
X47755000Y-48185000D03*
%TD*%
%TO.C,C13*%
X103187500Y-89265000D03*
X98187500Y-89265000D03*
%TD*%
D21*
%TO.C,U3*%
X88395000Y-52435000D03*
D10*
X90935000Y-52435000D03*
X93475000Y-52435000D03*
X96015000Y-52435000D03*
X98555000Y-52435000D03*
X101095000Y-52435000D03*
X103635000Y-52435000D03*
X106175000Y-52435000D03*
X108715000Y-52435000D03*
X111255000Y-52435000D03*
X113795000Y-52435000D03*
X116335000Y-52435000D03*
X116335000Y-37195000D03*
X113795000Y-37195000D03*
X111255000Y-37195000D03*
X108715000Y-37195000D03*
X106175000Y-37195000D03*
X103635000Y-37195000D03*
X101095000Y-37195000D03*
X98555000Y-37195000D03*
X96015000Y-37195000D03*
X93475000Y-37195000D03*
X90935000Y-37195000D03*
X88395000Y-37195000D03*
%TD*%
%TO.C,C8*%
X42755000Y-38025000D03*
X47755000Y-38025000D03*
%TD*%
D22*
%TO.C,SW1*%
X67990000Y-107045000D03*
D10*
X67990000Y-104505000D03*
X67990000Y-101965000D03*
X67990000Y-99425000D03*
X60370000Y-99425000D03*
X60370000Y-101965000D03*
X60370000Y-104505000D03*
X60370000Y-107045000D03*
%TD*%
D23*
%TO.C,JP5*%
X114440000Y-98155000D03*
D24*
X113140000Y-98155000D03*
%TD*%
D23*
%TO.C,JP3*%
X114440000Y-93075000D03*
D24*
X113140000Y-93075000D03*
%TD*%
D23*
%TO.C,JP2*%
X114440000Y-110855000D03*
D24*
X113140000Y-110855000D03*
%TD*%
D23*
%TO.C,JP4*%
X114440000Y-95615000D03*
D24*
X113140000Y-95615000D03*
%TD*%
D13*
%TO.C,J3*%
X29265000Y-65125000D03*
D14*
X29265000Y-67665000D03*
X29265000Y-70205000D03*
X29265000Y-72745000D03*
X29265000Y-75285000D03*
X29265000Y-77825000D03*
X29265000Y-80365000D03*
X29265000Y-82905000D03*
X29265000Y-85445000D03*
%TD*%
D23*
%TO.C,JP1*%
X114440000Y-108315000D03*
D24*
X113140000Y-108315000D03*
%TD*%
D23*
%TO.C,JP7*%
X97315000Y-47055000D03*
D24*
X96015000Y-47055000D03*
%TD*%
D23*
%TO.C,JP8*%
X97315000Y-49595000D03*
D24*
X96015000Y-49595000D03*
%TD*%
D23*
%TO.C,JP6*%
X114440000Y-100695000D03*
D24*
X113140000Y-100695000D03*
%TD*%
M02*
