%TF.GenerationSoftware,KiCad,Pcbnew,9.0.6*%
%TF.CreationDate,2026-03-22T06:21:44-04:00*%
%TF.ProjectId,Keyboard,4b657962-6f61-4726-942e-6b696361645f,rev?*%
%TF.SameCoordinates,Original*%
%TF.FileFunction,Legend,Top*%
%TF.FilePolarity,Positive*%
%FSLAX46Y46*%
G04 Gerber Fmt 4.6, Leading zero omitted, Abs format (unit mm)*
G04 Created by KiCad (PCBNEW 9.0.6) date 2026-03-22 06:21:44*
%MOMM*%
%LPD*%
G01*
G04 APERTURE LIST*
%ADD10C,0.150000*%
%ADD11C,0.120000*%
G04 APERTURE END LIST*
D10*
X168484226Y-84968200D02*
X168627083Y-85015819D01*
X168627083Y-85015819D02*
X168865178Y-85015819D01*
X168865178Y-85015819D02*
X168960416Y-84968200D01*
X168960416Y-84968200D02*
X169008035Y-84920580D01*
X169008035Y-84920580D02*
X169055654Y-84825342D01*
X169055654Y-84825342D02*
X169055654Y-84730104D01*
X169055654Y-84730104D02*
X169008035Y-84634866D01*
X169008035Y-84634866D02*
X168960416Y-84587247D01*
X168960416Y-84587247D02*
X168865178Y-84539628D01*
X168865178Y-84539628D02*
X168674702Y-84492009D01*
X168674702Y-84492009D02*
X168579464Y-84444390D01*
X168579464Y-84444390D02*
X168531845Y-84396771D01*
X168531845Y-84396771D02*
X168484226Y-84301533D01*
X168484226Y-84301533D02*
X168484226Y-84206295D01*
X168484226Y-84206295D02*
X168531845Y-84111057D01*
X168531845Y-84111057D02*
X168579464Y-84063438D01*
X168579464Y-84063438D02*
X168674702Y-84015819D01*
X168674702Y-84015819D02*
X168912797Y-84015819D01*
X168912797Y-84015819D02*
X169055654Y-84063438D01*
X169388988Y-84015819D02*
X169627083Y-85015819D01*
X169627083Y-85015819D02*
X169817559Y-84301533D01*
X169817559Y-84301533D02*
X170008035Y-85015819D01*
X170008035Y-85015819D02*
X170246131Y-84015819D01*
X170531845Y-84015819D02*
X171150892Y-84015819D01*
X171150892Y-84015819D02*
X170817559Y-84396771D01*
X170817559Y-84396771D02*
X170960416Y-84396771D01*
X170960416Y-84396771D02*
X171055654Y-84444390D01*
X171055654Y-84444390D02*
X171103273Y-84492009D01*
X171103273Y-84492009D02*
X171150892Y-84587247D01*
X171150892Y-84587247D02*
X171150892Y-84825342D01*
X171150892Y-84825342D02*
X171103273Y-84920580D01*
X171103273Y-84920580D02*
X171055654Y-84968200D01*
X171055654Y-84968200D02*
X170960416Y-85015819D01*
X170960416Y-85015819D02*
X170674702Y-85015819D01*
X170674702Y-85015819D02*
X170579464Y-84968200D01*
X170579464Y-84968200D02*
X170531845Y-84920580D01*
X172008035Y-84015819D02*
X171817559Y-84015819D01*
X171817559Y-84015819D02*
X171722321Y-84063438D01*
X171722321Y-84063438D02*
X171674702Y-84111057D01*
X171674702Y-84111057D02*
X171579464Y-84253914D01*
X171579464Y-84253914D02*
X171531845Y-84444390D01*
X171531845Y-84444390D02*
X171531845Y-84825342D01*
X171531845Y-84825342D02*
X171579464Y-84920580D01*
X171579464Y-84920580D02*
X171627083Y-84968200D01*
X171627083Y-84968200D02*
X171722321Y-85015819D01*
X171722321Y-85015819D02*
X171912797Y-85015819D01*
X171912797Y-85015819D02*
X172008035Y-84968200D01*
X172008035Y-84968200D02*
X172055654Y-84920580D01*
X172055654Y-84920580D02*
X172103273Y-84825342D01*
X172103273Y-84825342D02*
X172103273Y-84587247D01*
X172103273Y-84587247D02*
X172055654Y-84492009D01*
X172055654Y-84492009D02*
X172008035Y-84444390D01*
X172008035Y-84444390D02*
X171912797Y-84396771D01*
X171912797Y-84396771D02*
X171722321Y-84396771D01*
X171722321Y-84396771D02*
X171627083Y-84444390D01*
X171627083Y-84444390D02*
X171579464Y-84492009D01*
X171579464Y-84492009D02*
X171531845Y-84587247D01*
X40372917Y-46868200D02*
X40515774Y-46915819D01*
X40515774Y-46915819D02*
X40753869Y-46915819D01*
X40753869Y-46915819D02*
X40849107Y-46868200D01*
X40849107Y-46868200D02*
X40896726Y-46820580D01*
X40896726Y-46820580D02*
X40944345Y-46725342D01*
X40944345Y-46725342D02*
X40944345Y-46630104D01*
X40944345Y-46630104D02*
X40896726Y-46534866D01*
X40896726Y-46534866D02*
X40849107Y-46487247D01*
X40849107Y-46487247D02*
X40753869Y-46439628D01*
X40753869Y-46439628D02*
X40563393Y-46392009D01*
X40563393Y-46392009D02*
X40468155Y-46344390D01*
X40468155Y-46344390D02*
X40420536Y-46296771D01*
X40420536Y-46296771D02*
X40372917Y-46201533D01*
X40372917Y-46201533D02*
X40372917Y-46106295D01*
X40372917Y-46106295D02*
X40420536Y-46011057D01*
X40420536Y-46011057D02*
X40468155Y-45963438D01*
X40468155Y-45963438D02*
X40563393Y-45915819D01*
X40563393Y-45915819D02*
X40801488Y-45915819D01*
X40801488Y-45915819D02*
X40944345Y-45963438D01*
X41277679Y-45915819D02*
X41515774Y-46915819D01*
X41515774Y-46915819D02*
X41706250Y-46201533D01*
X41706250Y-46201533D02*
X41896726Y-46915819D01*
X41896726Y-46915819D02*
X42134822Y-45915819D01*
X42468155Y-46011057D02*
X42515774Y-45963438D01*
X42515774Y-45963438D02*
X42611012Y-45915819D01*
X42611012Y-45915819D02*
X42849107Y-45915819D01*
X42849107Y-45915819D02*
X42944345Y-45963438D01*
X42944345Y-45963438D02*
X42991964Y-46011057D01*
X42991964Y-46011057D02*
X43039583Y-46106295D01*
X43039583Y-46106295D02*
X43039583Y-46201533D01*
X43039583Y-46201533D02*
X42991964Y-46344390D01*
X42991964Y-46344390D02*
X42420536Y-46915819D01*
X42420536Y-46915819D02*
X43039583Y-46915819D01*
X306346726Y-142248200D02*
X306489583Y-142295819D01*
X306489583Y-142295819D02*
X306727678Y-142295819D01*
X306727678Y-142295819D02*
X306822916Y-142248200D01*
X306822916Y-142248200D02*
X306870535Y-142200580D01*
X306870535Y-142200580D02*
X306918154Y-142105342D01*
X306918154Y-142105342D02*
X306918154Y-142010104D01*
X306918154Y-142010104D02*
X306870535Y-141914866D01*
X306870535Y-141914866D02*
X306822916Y-141867247D01*
X306822916Y-141867247D02*
X306727678Y-141819628D01*
X306727678Y-141819628D02*
X306537202Y-141772009D01*
X306537202Y-141772009D02*
X306441964Y-141724390D01*
X306441964Y-141724390D02*
X306394345Y-141676771D01*
X306394345Y-141676771D02*
X306346726Y-141581533D01*
X306346726Y-141581533D02*
X306346726Y-141486295D01*
X306346726Y-141486295D02*
X306394345Y-141391057D01*
X306394345Y-141391057D02*
X306441964Y-141343438D01*
X306441964Y-141343438D02*
X306537202Y-141295819D01*
X306537202Y-141295819D02*
X306775297Y-141295819D01*
X306775297Y-141295819D02*
X306918154Y-141343438D01*
X307251488Y-141295819D02*
X307489583Y-142295819D01*
X307489583Y-142295819D02*
X307680059Y-141581533D01*
X307680059Y-141581533D02*
X307870535Y-142295819D01*
X307870535Y-142295819D02*
X308108631Y-141295819D01*
X308918154Y-141295819D02*
X308727678Y-141295819D01*
X308727678Y-141295819D02*
X308632440Y-141343438D01*
X308632440Y-141343438D02*
X308584821Y-141391057D01*
X308584821Y-141391057D02*
X308489583Y-141533914D01*
X308489583Y-141533914D02*
X308441964Y-141724390D01*
X308441964Y-141724390D02*
X308441964Y-142105342D01*
X308441964Y-142105342D02*
X308489583Y-142200580D01*
X308489583Y-142200580D02*
X308537202Y-142248200D01*
X308537202Y-142248200D02*
X308632440Y-142295819D01*
X308632440Y-142295819D02*
X308822916Y-142295819D01*
X308822916Y-142295819D02*
X308918154Y-142248200D01*
X308918154Y-142248200D02*
X308965773Y-142200580D01*
X308965773Y-142200580D02*
X309013392Y-142105342D01*
X309013392Y-142105342D02*
X309013392Y-141867247D01*
X309013392Y-141867247D02*
X308965773Y-141772009D01*
X308965773Y-141772009D02*
X308918154Y-141724390D01*
X308918154Y-141724390D02*
X308822916Y-141676771D01*
X308822916Y-141676771D02*
X308632440Y-141676771D01*
X308632440Y-141676771D02*
X308537202Y-141724390D01*
X308537202Y-141724390D02*
X308489583Y-141772009D01*
X308489583Y-141772009D02*
X308441964Y-141867247D01*
X309870535Y-141629152D02*
X309870535Y-142295819D01*
X309632440Y-141248200D02*
X309394345Y-141962485D01*
X309394345Y-141962485D02*
X310013392Y-141962485D01*
X211346726Y-46868200D02*
X211489583Y-46915819D01*
X211489583Y-46915819D02*
X211727678Y-46915819D01*
X211727678Y-46915819D02*
X211822916Y-46868200D01*
X211822916Y-46868200D02*
X211870535Y-46820580D01*
X211870535Y-46820580D02*
X211918154Y-46725342D01*
X211918154Y-46725342D02*
X211918154Y-46630104D01*
X211918154Y-46630104D02*
X211870535Y-46534866D01*
X211870535Y-46534866D02*
X211822916Y-46487247D01*
X211822916Y-46487247D02*
X211727678Y-46439628D01*
X211727678Y-46439628D02*
X211537202Y-46392009D01*
X211537202Y-46392009D02*
X211441964Y-46344390D01*
X211441964Y-46344390D02*
X211394345Y-46296771D01*
X211394345Y-46296771D02*
X211346726Y-46201533D01*
X211346726Y-46201533D02*
X211346726Y-46106295D01*
X211346726Y-46106295D02*
X211394345Y-46011057D01*
X211394345Y-46011057D02*
X211441964Y-45963438D01*
X211441964Y-45963438D02*
X211537202Y-45915819D01*
X211537202Y-45915819D02*
X211775297Y-45915819D01*
X211775297Y-45915819D02*
X211918154Y-45963438D01*
X212251488Y-45915819D02*
X212489583Y-46915819D01*
X212489583Y-46915819D02*
X212680059Y-46201533D01*
X212680059Y-46201533D02*
X212870535Y-46915819D01*
X212870535Y-46915819D02*
X213108631Y-45915819D01*
X214013392Y-46915819D02*
X213441964Y-46915819D01*
X213727678Y-46915819D02*
X213727678Y-45915819D01*
X213727678Y-45915819D02*
X213632440Y-46058676D01*
X213632440Y-46058676D02*
X213537202Y-46153914D01*
X213537202Y-46153914D02*
X213441964Y-46201533D01*
X214965773Y-46915819D02*
X214394345Y-46915819D01*
X214680059Y-46915819D02*
X214680059Y-45915819D01*
X214680059Y-45915819D02*
X214584821Y-46058676D01*
X214584821Y-46058676D02*
X214489583Y-46153914D01*
X214489583Y-46153914D02*
X214394345Y-46201533D01*
X177996726Y-104018200D02*
X178139583Y-104065819D01*
X178139583Y-104065819D02*
X178377678Y-104065819D01*
X178377678Y-104065819D02*
X178472916Y-104018200D01*
X178472916Y-104018200D02*
X178520535Y-103970580D01*
X178520535Y-103970580D02*
X178568154Y-103875342D01*
X178568154Y-103875342D02*
X178568154Y-103780104D01*
X178568154Y-103780104D02*
X178520535Y-103684866D01*
X178520535Y-103684866D02*
X178472916Y-103637247D01*
X178472916Y-103637247D02*
X178377678Y-103589628D01*
X178377678Y-103589628D02*
X178187202Y-103542009D01*
X178187202Y-103542009D02*
X178091964Y-103494390D01*
X178091964Y-103494390D02*
X178044345Y-103446771D01*
X178044345Y-103446771D02*
X177996726Y-103351533D01*
X177996726Y-103351533D02*
X177996726Y-103256295D01*
X177996726Y-103256295D02*
X178044345Y-103161057D01*
X178044345Y-103161057D02*
X178091964Y-103113438D01*
X178091964Y-103113438D02*
X178187202Y-103065819D01*
X178187202Y-103065819D02*
X178425297Y-103065819D01*
X178425297Y-103065819D02*
X178568154Y-103113438D01*
X178901488Y-103065819D02*
X179139583Y-104065819D01*
X179139583Y-104065819D02*
X179330059Y-103351533D01*
X179330059Y-103351533D02*
X179520535Y-104065819D01*
X179520535Y-104065819D02*
X179758631Y-103065819D01*
X180568154Y-103399152D02*
X180568154Y-104065819D01*
X180330059Y-103018200D02*
X180091964Y-103732485D01*
X180091964Y-103732485D02*
X180711011Y-103732485D01*
X181139583Y-104065819D02*
X181330059Y-104065819D01*
X181330059Y-104065819D02*
X181425297Y-104018200D01*
X181425297Y-104018200D02*
X181472916Y-103970580D01*
X181472916Y-103970580D02*
X181568154Y-103827723D01*
X181568154Y-103827723D02*
X181615773Y-103637247D01*
X181615773Y-103637247D02*
X181615773Y-103256295D01*
X181615773Y-103256295D02*
X181568154Y-103161057D01*
X181568154Y-103161057D02*
X181520535Y-103113438D01*
X181520535Y-103113438D02*
X181425297Y-103065819D01*
X181425297Y-103065819D02*
X181234821Y-103065819D01*
X181234821Y-103065819D02*
X181139583Y-103113438D01*
X181139583Y-103113438D02*
X181091964Y-103161057D01*
X181091964Y-103161057D02*
X181044345Y-103256295D01*
X181044345Y-103256295D02*
X181044345Y-103494390D01*
X181044345Y-103494390D02*
X181091964Y-103589628D01*
X181091964Y-103589628D02*
X181139583Y-103637247D01*
X181139583Y-103637247D02*
X181234821Y-103684866D01*
X181234821Y-103684866D02*
X181425297Y-103684866D01*
X181425297Y-103684866D02*
X181520535Y-103637247D01*
X181520535Y-103637247D02*
X181568154Y-103589628D01*
X181568154Y-103589628D02*
X181615773Y-103494390D01*
X116572917Y-46868200D02*
X116715774Y-46915819D01*
X116715774Y-46915819D02*
X116953869Y-46915819D01*
X116953869Y-46915819D02*
X117049107Y-46868200D01*
X117049107Y-46868200D02*
X117096726Y-46820580D01*
X117096726Y-46820580D02*
X117144345Y-46725342D01*
X117144345Y-46725342D02*
X117144345Y-46630104D01*
X117144345Y-46630104D02*
X117096726Y-46534866D01*
X117096726Y-46534866D02*
X117049107Y-46487247D01*
X117049107Y-46487247D02*
X116953869Y-46439628D01*
X116953869Y-46439628D02*
X116763393Y-46392009D01*
X116763393Y-46392009D02*
X116668155Y-46344390D01*
X116668155Y-46344390D02*
X116620536Y-46296771D01*
X116620536Y-46296771D02*
X116572917Y-46201533D01*
X116572917Y-46201533D02*
X116572917Y-46106295D01*
X116572917Y-46106295D02*
X116620536Y-46011057D01*
X116620536Y-46011057D02*
X116668155Y-45963438D01*
X116668155Y-45963438D02*
X116763393Y-45915819D01*
X116763393Y-45915819D02*
X117001488Y-45915819D01*
X117001488Y-45915819D02*
X117144345Y-45963438D01*
X117477679Y-45915819D02*
X117715774Y-46915819D01*
X117715774Y-46915819D02*
X117906250Y-46201533D01*
X117906250Y-46201533D02*
X118096726Y-46915819D01*
X118096726Y-46915819D02*
X118334822Y-45915819D01*
X119144345Y-45915819D02*
X118953869Y-45915819D01*
X118953869Y-45915819D02*
X118858631Y-45963438D01*
X118858631Y-45963438D02*
X118811012Y-46011057D01*
X118811012Y-46011057D02*
X118715774Y-46153914D01*
X118715774Y-46153914D02*
X118668155Y-46344390D01*
X118668155Y-46344390D02*
X118668155Y-46725342D01*
X118668155Y-46725342D02*
X118715774Y-46820580D01*
X118715774Y-46820580D02*
X118763393Y-46868200D01*
X118763393Y-46868200D02*
X118858631Y-46915819D01*
X118858631Y-46915819D02*
X119049107Y-46915819D01*
X119049107Y-46915819D02*
X119144345Y-46868200D01*
X119144345Y-46868200D02*
X119191964Y-46820580D01*
X119191964Y-46820580D02*
X119239583Y-46725342D01*
X119239583Y-46725342D02*
X119239583Y-46487247D01*
X119239583Y-46487247D02*
X119191964Y-46392009D01*
X119191964Y-46392009D02*
X119144345Y-46344390D01*
X119144345Y-46344390D02*
X119049107Y-46296771D01*
X119049107Y-46296771D02*
X118858631Y-46296771D01*
X118858631Y-46296771D02*
X118763393Y-46344390D01*
X118763393Y-46344390D02*
X118715774Y-46392009D01*
X118715774Y-46392009D02*
X118668155Y-46487247D01*
X258939226Y-65918200D02*
X259082083Y-65965819D01*
X259082083Y-65965819D02*
X259320178Y-65965819D01*
X259320178Y-65965819D02*
X259415416Y-65918200D01*
X259415416Y-65918200D02*
X259463035Y-65870580D01*
X259463035Y-65870580D02*
X259510654Y-65775342D01*
X259510654Y-65775342D02*
X259510654Y-65680104D01*
X259510654Y-65680104D02*
X259463035Y-65584866D01*
X259463035Y-65584866D02*
X259415416Y-65537247D01*
X259415416Y-65537247D02*
X259320178Y-65489628D01*
X259320178Y-65489628D02*
X259129702Y-65442009D01*
X259129702Y-65442009D02*
X259034464Y-65394390D01*
X259034464Y-65394390D02*
X258986845Y-65346771D01*
X258986845Y-65346771D02*
X258939226Y-65251533D01*
X258939226Y-65251533D02*
X258939226Y-65156295D01*
X258939226Y-65156295D02*
X258986845Y-65061057D01*
X258986845Y-65061057D02*
X259034464Y-65013438D01*
X259034464Y-65013438D02*
X259129702Y-64965819D01*
X259129702Y-64965819D02*
X259367797Y-64965819D01*
X259367797Y-64965819D02*
X259510654Y-65013438D01*
X259843988Y-64965819D02*
X260082083Y-65965819D01*
X260082083Y-65965819D02*
X260272559Y-65251533D01*
X260272559Y-65251533D02*
X260463035Y-65965819D01*
X260463035Y-65965819D02*
X260701131Y-64965819D01*
X261034464Y-65061057D02*
X261082083Y-65013438D01*
X261082083Y-65013438D02*
X261177321Y-64965819D01*
X261177321Y-64965819D02*
X261415416Y-64965819D01*
X261415416Y-64965819D02*
X261510654Y-65013438D01*
X261510654Y-65013438D02*
X261558273Y-65061057D01*
X261558273Y-65061057D02*
X261605892Y-65156295D01*
X261605892Y-65156295D02*
X261605892Y-65251533D01*
X261605892Y-65251533D02*
X261558273Y-65394390D01*
X261558273Y-65394390D02*
X260986845Y-65965819D01*
X260986845Y-65965819D02*
X261605892Y-65965819D01*
X261939226Y-64965819D02*
X262605892Y-64965819D01*
X262605892Y-64965819D02*
X262177321Y-65965819D01*
X201789226Y-65918200D02*
X201932083Y-65965819D01*
X201932083Y-65965819D02*
X202170178Y-65965819D01*
X202170178Y-65965819D02*
X202265416Y-65918200D01*
X202265416Y-65918200D02*
X202313035Y-65870580D01*
X202313035Y-65870580D02*
X202360654Y-65775342D01*
X202360654Y-65775342D02*
X202360654Y-65680104D01*
X202360654Y-65680104D02*
X202313035Y-65584866D01*
X202313035Y-65584866D02*
X202265416Y-65537247D01*
X202265416Y-65537247D02*
X202170178Y-65489628D01*
X202170178Y-65489628D02*
X201979702Y-65442009D01*
X201979702Y-65442009D02*
X201884464Y-65394390D01*
X201884464Y-65394390D02*
X201836845Y-65346771D01*
X201836845Y-65346771D02*
X201789226Y-65251533D01*
X201789226Y-65251533D02*
X201789226Y-65156295D01*
X201789226Y-65156295D02*
X201836845Y-65061057D01*
X201836845Y-65061057D02*
X201884464Y-65013438D01*
X201884464Y-65013438D02*
X201979702Y-64965819D01*
X201979702Y-64965819D02*
X202217797Y-64965819D01*
X202217797Y-64965819D02*
X202360654Y-65013438D01*
X202693988Y-64965819D02*
X202932083Y-65965819D01*
X202932083Y-65965819D02*
X203122559Y-65251533D01*
X203122559Y-65251533D02*
X203313035Y-65965819D01*
X203313035Y-65965819D02*
X203551131Y-64965819D01*
X203884464Y-65061057D02*
X203932083Y-65013438D01*
X203932083Y-65013438D02*
X204027321Y-64965819D01*
X204027321Y-64965819D02*
X204265416Y-64965819D01*
X204265416Y-64965819D02*
X204360654Y-65013438D01*
X204360654Y-65013438D02*
X204408273Y-65061057D01*
X204408273Y-65061057D02*
X204455892Y-65156295D01*
X204455892Y-65156295D02*
X204455892Y-65251533D01*
X204455892Y-65251533D02*
X204408273Y-65394390D01*
X204408273Y-65394390D02*
X203836845Y-65965819D01*
X203836845Y-65965819D02*
X204455892Y-65965819D01*
X205313035Y-65299152D02*
X205313035Y-65965819D01*
X205074940Y-64918200D02*
X204836845Y-65632485D01*
X204836845Y-65632485D02*
X205455892Y-65632485D01*
X125589226Y-65918200D02*
X125732083Y-65965819D01*
X125732083Y-65965819D02*
X125970178Y-65965819D01*
X125970178Y-65965819D02*
X126065416Y-65918200D01*
X126065416Y-65918200D02*
X126113035Y-65870580D01*
X126113035Y-65870580D02*
X126160654Y-65775342D01*
X126160654Y-65775342D02*
X126160654Y-65680104D01*
X126160654Y-65680104D02*
X126113035Y-65584866D01*
X126113035Y-65584866D02*
X126065416Y-65537247D01*
X126065416Y-65537247D02*
X125970178Y-65489628D01*
X125970178Y-65489628D02*
X125779702Y-65442009D01*
X125779702Y-65442009D02*
X125684464Y-65394390D01*
X125684464Y-65394390D02*
X125636845Y-65346771D01*
X125636845Y-65346771D02*
X125589226Y-65251533D01*
X125589226Y-65251533D02*
X125589226Y-65156295D01*
X125589226Y-65156295D02*
X125636845Y-65061057D01*
X125636845Y-65061057D02*
X125684464Y-65013438D01*
X125684464Y-65013438D02*
X125779702Y-64965819D01*
X125779702Y-64965819D02*
X126017797Y-64965819D01*
X126017797Y-64965819D02*
X126160654Y-65013438D01*
X126493988Y-64965819D02*
X126732083Y-65965819D01*
X126732083Y-65965819D02*
X126922559Y-65251533D01*
X126922559Y-65251533D02*
X127113035Y-65965819D01*
X127113035Y-65965819D02*
X127351131Y-64965819D01*
X127684464Y-65061057D02*
X127732083Y-65013438D01*
X127732083Y-65013438D02*
X127827321Y-64965819D01*
X127827321Y-64965819D02*
X128065416Y-64965819D01*
X128065416Y-64965819D02*
X128160654Y-65013438D01*
X128160654Y-65013438D02*
X128208273Y-65061057D01*
X128208273Y-65061057D02*
X128255892Y-65156295D01*
X128255892Y-65156295D02*
X128255892Y-65251533D01*
X128255892Y-65251533D02*
X128208273Y-65394390D01*
X128208273Y-65394390D02*
X127636845Y-65965819D01*
X127636845Y-65965819D02*
X128255892Y-65965819D01*
X128874940Y-64965819D02*
X128970178Y-64965819D01*
X128970178Y-64965819D02*
X129065416Y-65013438D01*
X129065416Y-65013438D02*
X129113035Y-65061057D01*
X129113035Y-65061057D02*
X129160654Y-65156295D01*
X129160654Y-65156295D02*
X129208273Y-65346771D01*
X129208273Y-65346771D02*
X129208273Y-65584866D01*
X129208273Y-65584866D02*
X129160654Y-65775342D01*
X129160654Y-65775342D02*
X129113035Y-65870580D01*
X129113035Y-65870580D02*
X129065416Y-65918200D01*
X129065416Y-65918200D02*
X128970178Y-65965819D01*
X128970178Y-65965819D02*
X128874940Y-65965819D01*
X128874940Y-65965819D02*
X128779702Y-65918200D01*
X128779702Y-65918200D02*
X128732083Y-65870580D01*
X128732083Y-65870580D02*
X128684464Y-65775342D01*
X128684464Y-65775342D02*
X128636845Y-65584866D01*
X128636845Y-65584866D02*
X128636845Y-65346771D01*
X128636845Y-65346771D02*
X128684464Y-65156295D01*
X128684464Y-65156295D02*
X128732083Y-65061057D01*
X128732083Y-65061057D02*
X128779702Y-65013438D01*
X128779702Y-65013438D02*
X128874940Y-64965819D01*
X287296726Y-123198200D02*
X287439583Y-123245819D01*
X287439583Y-123245819D02*
X287677678Y-123245819D01*
X287677678Y-123245819D02*
X287772916Y-123198200D01*
X287772916Y-123198200D02*
X287820535Y-123150580D01*
X287820535Y-123150580D02*
X287868154Y-123055342D01*
X287868154Y-123055342D02*
X287868154Y-122960104D01*
X287868154Y-122960104D02*
X287820535Y-122864866D01*
X287820535Y-122864866D02*
X287772916Y-122817247D01*
X287772916Y-122817247D02*
X287677678Y-122769628D01*
X287677678Y-122769628D02*
X287487202Y-122722009D01*
X287487202Y-122722009D02*
X287391964Y-122674390D01*
X287391964Y-122674390D02*
X287344345Y-122626771D01*
X287344345Y-122626771D02*
X287296726Y-122531533D01*
X287296726Y-122531533D02*
X287296726Y-122436295D01*
X287296726Y-122436295D02*
X287344345Y-122341057D01*
X287344345Y-122341057D02*
X287391964Y-122293438D01*
X287391964Y-122293438D02*
X287487202Y-122245819D01*
X287487202Y-122245819D02*
X287725297Y-122245819D01*
X287725297Y-122245819D02*
X287868154Y-122293438D01*
X288201488Y-122245819D02*
X288439583Y-123245819D01*
X288439583Y-123245819D02*
X288630059Y-122531533D01*
X288630059Y-122531533D02*
X288820535Y-123245819D01*
X288820535Y-123245819D02*
X289058631Y-122245819D01*
X289868154Y-122245819D02*
X289677678Y-122245819D01*
X289677678Y-122245819D02*
X289582440Y-122293438D01*
X289582440Y-122293438D02*
X289534821Y-122341057D01*
X289534821Y-122341057D02*
X289439583Y-122483914D01*
X289439583Y-122483914D02*
X289391964Y-122674390D01*
X289391964Y-122674390D02*
X289391964Y-123055342D01*
X289391964Y-123055342D02*
X289439583Y-123150580D01*
X289439583Y-123150580D02*
X289487202Y-123198200D01*
X289487202Y-123198200D02*
X289582440Y-123245819D01*
X289582440Y-123245819D02*
X289772916Y-123245819D01*
X289772916Y-123245819D02*
X289868154Y-123198200D01*
X289868154Y-123198200D02*
X289915773Y-123150580D01*
X289915773Y-123150580D02*
X289963392Y-123055342D01*
X289963392Y-123055342D02*
X289963392Y-122817247D01*
X289963392Y-122817247D02*
X289915773Y-122722009D01*
X289915773Y-122722009D02*
X289868154Y-122674390D01*
X289868154Y-122674390D02*
X289772916Y-122626771D01*
X289772916Y-122626771D02*
X289582440Y-122626771D01*
X289582440Y-122626771D02*
X289487202Y-122674390D01*
X289487202Y-122674390D02*
X289439583Y-122722009D01*
X289439583Y-122722009D02*
X289391964Y-122817247D01*
X290915773Y-123245819D02*
X290344345Y-123245819D01*
X290630059Y-123245819D02*
X290630059Y-122245819D01*
X290630059Y-122245819D02*
X290534821Y-122388676D01*
X290534821Y-122388676D02*
X290439583Y-122483914D01*
X290439583Y-122483914D02*
X290344345Y-122531533D01*
X220839226Y-65918200D02*
X220982083Y-65965819D01*
X220982083Y-65965819D02*
X221220178Y-65965819D01*
X221220178Y-65965819D02*
X221315416Y-65918200D01*
X221315416Y-65918200D02*
X221363035Y-65870580D01*
X221363035Y-65870580D02*
X221410654Y-65775342D01*
X221410654Y-65775342D02*
X221410654Y-65680104D01*
X221410654Y-65680104D02*
X221363035Y-65584866D01*
X221363035Y-65584866D02*
X221315416Y-65537247D01*
X221315416Y-65537247D02*
X221220178Y-65489628D01*
X221220178Y-65489628D02*
X221029702Y-65442009D01*
X221029702Y-65442009D02*
X220934464Y-65394390D01*
X220934464Y-65394390D02*
X220886845Y-65346771D01*
X220886845Y-65346771D02*
X220839226Y-65251533D01*
X220839226Y-65251533D02*
X220839226Y-65156295D01*
X220839226Y-65156295D02*
X220886845Y-65061057D01*
X220886845Y-65061057D02*
X220934464Y-65013438D01*
X220934464Y-65013438D02*
X221029702Y-64965819D01*
X221029702Y-64965819D02*
X221267797Y-64965819D01*
X221267797Y-64965819D02*
X221410654Y-65013438D01*
X221743988Y-64965819D02*
X221982083Y-65965819D01*
X221982083Y-65965819D02*
X222172559Y-65251533D01*
X222172559Y-65251533D02*
X222363035Y-65965819D01*
X222363035Y-65965819D02*
X222601131Y-64965819D01*
X222934464Y-65061057D02*
X222982083Y-65013438D01*
X222982083Y-65013438D02*
X223077321Y-64965819D01*
X223077321Y-64965819D02*
X223315416Y-64965819D01*
X223315416Y-64965819D02*
X223410654Y-65013438D01*
X223410654Y-65013438D02*
X223458273Y-65061057D01*
X223458273Y-65061057D02*
X223505892Y-65156295D01*
X223505892Y-65156295D02*
X223505892Y-65251533D01*
X223505892Y-65251533D02*
X223458273Y-65394390D01*
X223458273Y-65394390D02*
X222886845Y-65965819D01*
X222886845Y-65965819D02*
X223505892Y-65965819D01*
X224410654Y-64965819D02*
X223934464Y-64965819D01*
X223934464Y-64965819D02*
X223886845Y-65442009D01*
X223886845Y-65442009D02*
X223934464Y-65394390D01*
X223934464Y-65394390D02*
X224029702Y-65346771D01*
X224029702Y-65346771D02*
X224267797Y-65346771D01*
X224267797Y-65346771D02*
X224363035Y-65394390D01*
X224363035Y-65394390D02*
X224410654Y-65442009D01*
X224410654Y-65442009D02*
X224458273Y-65537247D01*
X224458273Y-65537247D02*
X224458273Y-65775342D01*
X224458273Y-65775342D02*
X224410654Y-65870580D01*
X224410654Y-65870580D02*
X224363035Y-65918200D01*
X224363035Y-65918200D02*
X224267797Y-65965819D01*
X224267797Y-65965819D02*
X224029702Y-65965819D01*
X224029702Y-65965819D02*
X223934464Y-65918200D01*
X223934464Y-65918200D02*
X223886845Y-65870580D01*
X216096726Y-104018200D02*
X216239583Y-104065819D01*
X216239583Y-104065819D02*
X216477678Y-104065819D01*
X216477678Y-104065819D02*
X216572916Y-104018200D01*
X216572916Y-104018200D02*
X216620535Y-103970580D01*
X216620535Y-103970580D02*
X216668154Y-103875342D01*
X216668154Y-103875342D02*
X216668154Y-103780104D01*
X216668154Y-103780104D02*
X216620535Y-103684866D01*
X216620535Y-103684866D02*
X216572916Y-103637247D01*
X216572916Y-103637247D02*
X216477678Y-103589628D01*
X216477678Y-103589628D02*
X216287202Y-103542009D01*
X216287202Y-103542009D02*
X216191964Y-103494390D01*
X216191964Y-103494390D02*
X216144345Y-103446771D01*
X216144345Y-103446771D02*
X216096726Y-103351533D01*
X216096726Y-103351533D02*
X216096726Y-103256295D01*
X216096726Y-103256295D02*
X216144345Y-103161057D01*
X216144345Y-103161057D02*
X216191964Y-103113438D01*
X216191964Y-103113438D02*
X216287202Y-103065819D01*
X216287202Y-103065819D02*
X216525297Y-103065819D01*
X216525297Y-103065819D02*
X216668154Y-103113438D01*
X217001488Y-103065819D02*
X217239583Y-104065819D01*
X217239583Y-104065819D02*
X217430059Y-103351533D01*
X217430059Y-103351533D02*
X217620535Y-104065819D01*
X217620535Y-104065819D02*
X217858631Y-103065819D01*
X218715773Y-103065819D02*
X218239583Y-103065819D01*
X218239583Y-103065819D02*
X218191964Y-103542009D01*
X218191964Y-103542009D02*
X218239583Y-103494390D01*
X218239583Y-103494390D02*
X218334821Y-103446771D01*
X218334821Y-103446771D02*
X218572916Y-103446771D01*
X218572916Y-103446771D02*
X218668154Y-103494390D01*
X218668154Y-103494390D02*
X218715773Y-103542009D01*
X218715773Y-103542009D02*
X218763392Y-103637247D01*
X218763392Y-103637247D02*
X218763392Y-103875342D01*
X218763392Y-103875342D02*
X218715773Y-103970580D01*
X218715773Y-103970580D02*
X218668154Y-104018200D01*
X218668154Y-104018200D02*
X218572916Y-104065819D01*
X218572916Y-104065819D02*
X218334821Y-104065819D01*
X218334821Y-104065819D02*
X218239583Y-104018200D01*
X218239583Y-104018200D02*
X218191964Y-103970580D01*
X219715773Y-104065819D02*
X219144345Y-104065819D01*
X219430059Y-104065819D02*
X219430059Y-103065819D01*
X219430059Y-103065819D02*
X219334821Y-103208676D01*
X219334821Y-103208676D02*
X219239583Y-103303914D01*
X219239583Y-103303914D02*
X219144345Y-103351533D01*
X154672917Y-46868200D02*
X154815774Y-46915819D01*
X154815774Y-46915819D02*
X155053869Y-46915819D01*
X155053869Y-46915819D02*
X155149107Y-46868200D01*
X155149107Y-46868200D02*
X155196726Y-46820580D01*
X155196726Y-46820580D02*
X155244345Y-46725342D01*
X155244345Y-46725342D02*
X155244345Y-46630104D01*
X155244345Y-46630104D02*
X155196726Y-46534866D01*
X155196726Y-46534866D02*
X155149107Y-46487247D01*
X155149107Y-46487247D02*
X155053869Y-46439628D01*
X155053869Y-46439628D02*
X154863393Y-46392009D01*
X154863393Y-46392009D02*
X154768155Y-46344390D01*
X154768155Y-46344390D02*
X154720536Y-46296771D01*
X154720536Y-46296771D02*
X154672917Y-46201533D01*
X154672917Y-46201533D02*
X154672917Y-46106295D01*
X154672917Y-46106295D02*
X154720536Y-46011057D01*
X154720536Y-46011057D02*
X154768155Y-45963438D01*
X154768155Y-45963438D02*
X154863393Y-45915819D01*
X154863393Y-45915819D02*
X155101488Y-45915819D01*
X155101488Y-45915819D02*
X155244345Y-45963438D01*
X155577679Y-45915819D02*
X155815774Y-46915819D01*
X155815774Y-46915819D02*
X156006250Y-46201533D01*
X156006250Y-46201533D02*
X156196726Y-46915819D01*
X156196726Y-46915819D02*
X156434822Y-45915819D01*
X156958631Y-46344390D02*
X156863393Y-46296771D01*
X156863393Y-46296771D02*
X156815774Y-46249152D01*
X156815774Y-46249152D02*
X156768155Y-46153914D01*
X156768155Y-46153914D02*
X156768155Y-46106295D01*
X156768155Y-46106295D02*
X156815774Y-46011057D01*
X156815774Y-46011057D02*
X156863393Y-45963438D01*
X156863393Y-45963438D02*
X156958631Y-45915819D01*
X156958631Y-45915819D02*
X157149107Y-45915819D01*
X157149107Y-45915819D02*
X157244345Y-45963438D01*
X157244345Y-45963438D02*
X157291964Y-46011057D01*
X157291964Y-46011057D02*
X157339583Y-46106295D01*
X157339583Y-46106295D02*
X157339583Y-46153914D01*
X157339583Y-46153914D02*
X157291964Y-46249152D01*
X157291964Y-46249152D02*
X157244345Y-46296771D01*
X157244345Y-46296771D02*
X157149107Y-46344390D01*
X157149107Y-46344390D02*
X156958631Y-46344390D01*
X156958631Y-46344390D02*
X156863393Y-46392009D01*
X156863393Y-46392009D02*
X156815774Y-46439628D01*
X156815774Y-46439628D02*
X156768155Y-46534866D01*
X156768155Y-46534866D02*
X156768155Y-46725342D01*
X156768155Y-46725342D02*
X156815774Y-46820580D01*
X156815774Y-46820580D02*
X156863393Y-46868200D01*
X156863393Y-46868200D02*
X156958631Y-46915819D01*
X156958631Y-46915819D02*
X157149107Y-46915819D01*
X157149107Y-46915819D02*
X157244345Y-46868200D01*
X157244345Y-46868200D02*
X157291964Y-46820580D01*
X157291964Y-46820580D02*
X157339583Y-46725342D01*
X157339583Y-46725342D02*
X157339583Y-46534866D01*
X157339583Y-46534866D02*
X157291964Y-46439628D01*
X157291964Y-46439628D02*
X157244345Y-46392009D01*
X157244345Y-46392009D02*
X157149107Y-46344390D01*
X149434226Y-84968200D02*
X149577083Y-85015819D01*
X149577083Y-85015819D02*
X149815178Y-85015819D01*
X149815178Y-85015819D02*
X149910416Y-84968200D01*
X149910416Y-84968200D02*
X149958035Y-84920580D01*
X149958035Y-84920580D02*
X150005654Y-84825342D01*
X150005654Y-84825342D02*
X150005654Y-84730104D01*
X150005654Y-84730104D02*
X149958035Y-84634866D01*
X149958035Y-84634866D02*
X149910416Y-84587247D01*
X149910416Y-84587247D02*
X149815178Y-84539628D01*
X149815178Y-84539628D02*
X149624702Y-84492009D01*
X149624702Y-84492009D02*
X149529464Y-84444390D01*
X149529464Y-84444390D02*
X149481845Y-84396771D01*
X149481845Y-84396771D02*
X149434226Y-84301533D01*
X149434226Y-84301533D02*
X149434226Y-84206295D01*
X149434226Y-84206295D02*
X149481845Y-84111057D01*
X149481845Y-84111057D02*
X149529464Y-84063438D01*
X149529464Y-84063438D02*
X149624702Y-84015819D01*
X149624702Y-84015819D02*
X149862797Y-84015819D01*
X149862797Y-84015819D02*
X150005654Y-84063438D01*
X150338988Y-84015819D02*
X150577083Y-85015819D01*
X150577083Y-85015819D02*
X150767559Y-84301533D01*
X150767559Y-84301533D02*
X150958035Y-85015819D01*
X150958035Y-85015819D02*
X151196131Y-84015819D01*
X151481845Y-84015819D02*
X152100892Y-84015819D01*
X152100892Y-84015819D02*
X151767559Y-84396771D01*
X151767559Y-84396771D02*
X151910416Y-84396771D01*
X151910416Y-84396771D02*
X152005654Y-84444390D01*
X152005654Y-84444390D02*
X152053273Y-84492009D01*
X152053273Y-84492009D02*
X152100892Y-84587247D01*
X152100892Y-84587247D02*
X152100892Y-84825342D01*
X152100892Y-84825342D02*
X152053273Y-84920580D01*
X152053273Y-84920580D02*
X152005654Y-84968200D01*
X152005654Y-84968200D02*
X151910416Y-85015819D01*
X151910416Y-85015819D02*
X151624702Y-85015819D01*
X151624702Y-85015819D02*
X151529464Y-84968200D01*
X151529464Y-84968200D02*
X151481845Y-84920580D01*
X153005654Y-84015819D02*
X152529464Y-84015819D01*
X152529464Y-84015819D02*
X152481845Y-84492009D01*
X152481845Y-84492009D02*
X152529464Y-84444390D01*
X152529464Y-84444390D02*
X152624702Y-84396771D01*
X152624702Y-84396771D02*
X152862797Y-84396771D01*
X152862797Y-84396771D02*
X152958035Y-84444390D01*
X152958035Y-84444390D02*
X153005654Y-84492009D01*
X153005654Y-84492009D02*
X153053273Y-84587247D01*
X153053273Y-84587247D02*
X153053273Y-84825342D01*
X153053273Y-84825342D02*
X153005654Y-84920580D01*
X153005654Y-84920580D02*
X152958035Y-84968200D01*
X152958035Y-84968200D02*
X152862797Y-85015819D01*
X152862797Y-85015819D02*
X152624702Y-85015819D01*
X152624702Y-85015819D02*
X152529464Y-84968200D01*
X152529464Y-84968200D02*
X152481845Y-84920580D01*
X161086726Y-123198200D02*
X161229583Y-123245819D01*
X161229583Y-123245819D02*
X161467678Y-123245819D01*
X161467678Y-123245819D02*
X161562916Y-123198200D01*
X161562916Y-123198200D02*
X161610535Y-123150580D01*
X161610535Y-123150580D02*
X161658154Y-123055342D01*
X161658154Y-123055342D02*
X161658154Y-122960104D01*
X161658154Y-122960104D02*
X161610535Y-122864866D01*
X161610535Y-122864866D02*
X161562916Y-122817247D01*
X161562916Y-122817247D02*
X161467678Y-122769628D01*
X161467678Y-122769628D02*
X161277202Y-122722009D01*
X161277202Y-122722009D02*
X161181964Y-122674390D01*
X161181964Y-122674390D02*
X161134345Y-122626771D01*
X161134345Y-122626771D02*
X161086726Y-122531533D01*
X161086726Y-122531533D02*
X161086726Y-122436295D01*
X161086726Y-122436295D02*
X161134345Y-122341057D01*
X161134345Y-122341057D02*
X161181964Y-122293438D01*
X161181964Y-122293438D02*
X161277202Y-122245819D01*
X161277202Y-122245819D02*
X161515297Y-122245819D01*
X161515297Y-122245819D02*
X161658154Y-122293438D01*
X161991488Y-122245819D02*
X162229583Y-123245819D01*
X162229583Y-123245819D02*
X162420059Y-122531533D01*
X162420059Y-122531533D02*
X162610535Y-123245819D01*
X162610535Y-123245819D02*
X162848631Y-122245819D01*
X163705773Y-122245819D02*
X163229583Y-122245819D01*
X163229583Y-122245819D02*
X163181964Y-122722009D01*
X163181964Y-122722009D02*
X163229583Y-122674390D01*
X163229583Y-122674390D02*
X163324821Y-122626771D01*
X163324821Y-122626771D02*
X163562916Y-122626771D01*
X163562916Y-122626771D02*
X163658154Y-122674390D01*
X163658154Y-122674390D02*
X163705773Y-122722009D01*
X163705773Y-122722009D02*
X163753392Y-122817247D01*
X163753392Y-122817247D02*
X163753392Y-123055342D01*
X163753392Y-123055342D02*
X163705773Y-123150580D01*
X163705773Y-123150580D02*
X163658154Y-123198200D01*
X163658154Y-123198200D02*
X163562916Y-123245819D01*
X163562916Y-123245819D02*
X163324821Y-123245819D01*
X163324821Y-123245819D02*
X163229583Y-123198200D01*
X163229583Y-123198200D02*
X163181964Y-123150580D01*
X164324821Y-122674390D02*
X164229583Y-122626771D01*
X164229583Y-122626771D02*
X164181964Y-122579152D01*
X164181964Y-122579152D02*
X164134345Y-122483914D01*
X164134345Y-122483914D02*
X164134345Y-122436295D01*
X164134345Y-122436295D02*
X164181964Y-122341057D01*
X164181964Y-122341057D02*
X164229583Y-122293438D01*
X164229583Y-122293438D02*
X164324821Y-122245819D01*
X164324821Y-122245819D02*
X164515297Y-122245819D01*
X164515297Y-122245819D02*
X164610535Y-122293438D01*
X164610535Y-122293438D02*
X164658154Y-122341057D01*
X164658154Y-122341057D02*
X164705773Y-122436295D01*
X164705773Y-122436295D02*
X164705773Y-122483914D01*
X164705773Y-122483914D02*
X164658154Y-122579152D01*
X164658154Y-122579152D02*
X164610535Y-122626771D01*
X164610535Y-122626771D02*
X164515297Y-122674390D01*
X164515297Y-122674390D02*
X164324821Y-122674390D01*
X164324821Y-122674390D02*
X164229583Y-122722009D01*
X164229583Y-122722009D02*
X164181964Y-122769628D01*
X164181964Y-122769628D02*
X164134345Y-122864866D01*
X164134345Y-122864866D02*
X164134345Y-123055342D01*
X164134345Y-123055342D02*
X164181964Y-123150580D01*
X164181964Y-123150580D02*
X164229583Y-123198200D01*
X164229583Y-123198200D02*
X164324821Y-123245819D01*
X164324821Y-123245819D02*
X164515297Y-123245819D01*
X164515297Y-123245819D02*
X164610535Y-123198200D01*
X164610535Y-123198200D02*
X164658154Y-123150580D01*
X164658154Y-123150580D02*
X164705773Y-123055342D01*
X164705773Y-123055342D02*
X164705773Y-122864866D01*
X164705773Y-122864866D02*
X164658154Y-122769628D01*
X164658154Y-122769628D02*
X164610535Y-122722009D01*
X164610535Y-122722009D02*
X164515297Y-122674390D01*
X244684226Y-84968200D02*
X244827083Y-85015819D01*
X244827083Y-85015819D02*
X245065178Y-85015819D01*
X245065178Y-85015819D02*
X245160416Y-84968200D01*
X245160416Y-84968200D02*
X245208035Y-84920580D01*
X245208035Y-84920580D02*
X245255654Y-84825342D01*
X245255654Y-84825342D02*
X245255654Y-84730104D01*
X245255654Y-84730104D02*
X245208035Y-84634866D01*
X245208035Y-84634866D02*
X245160416Y-84587247D01*
X245160416Y-84587247D02*
X245065178Y-84539628D01*
X245065178Y-84539628D02*
X244874702Y-84492009D01*
X244874702Y-84492009D02*
X244779464Y-84444390D01*
X244779464Y-84444390D02*
X244731845Y-84396771D01*
X244731845Y-84396771D02*
X244684226Y-84301533D01*
X244684226Y-84301533D02*
X244684226Y-84206295D01*
X244684226Y-84206295D02*
X244731845Y-84111057D01*
X244731845Y-84111057D02*
X244779464Y-84063438D01*
X244779464Y-84063438D02*
X244874702Y-84015819D01*
X244874702Y-84015819D02*
X245112797Y-84015819D01*
X245112797Y-84015819D02*
X245255654Y-84063438D01*
X245588988Y-84015819D02*
X245827083Y-85015819D01*
X245827083Y-85015819D02*
X246017559Y-84301533D01*
X246017559Y-84301533D02*
X246208035Y-85015819D01*
X246208035Y-85015819D02*
X246446131Y-84015819D01*
X247255654Y-84349152D02*
X247255654Y-85015819D01*
X247017559Y-83968200D02*
X246779464Y-84682485D01*
X246779464Y-84682485D02*
X247398511Y-84682485D01*
X247969940Y-84015819D02*
X248065178Y-84015819D01*
X248065178Y-84015819D02*
X248160416Y-84063438D01*
X248160416Y-84063438D02*
X248208035Y-84111057D01*
X248208035Y-84111057D02*
X248255654Y-84206295D01*
X248255654Y-84206295D02*
X248303273Y-84396771D01*
X248303273Y-84396771D02*
X248303273Y-84634866D01*
X248303273Y-84634866D02*
X248255654Y-84825342D01*
X248255654Y-84825342D02*
X248208035Y-84920580D01*
X248208035Y-84920580D02*
X248160416Y-84968200D01*
X248160416Y-84968200D02*
X248065178Y-85015819D01*
X248065178Y-85015819D02*
X247969940Y-85015819D01*
X247969940Y-85015819D02*
X247874702Y-84968200D01*
X247874702Y-84968200D02*
X247827083Y-84920580D01*
X247827083Y-84920580D02*
X247779464Y-84825342D01*
X247779464Y-84825342D02*
X247731845Y-84634866D01*
X247731845Y-84634866D02*
X247731845Y-84396771D01*
X247731845Y-84396771D02*
X247779464Y-84206295D01*
X247779464Y-84206295D02*
X247827083Y-84111057D01*
X247827083Y-84111057D02*
X247874702Y-84063438D01*
X247874702Y-84063438D02*
X247969940Y-84015819D01*
X268246726Y-142248200D02*
X268389583Y-142295819D01*
X268389583Y-142295819D02*
X268627678Y-142295819D01*
X268627678Y-142295819D02*
X268722916Y-142248200D01*
X268722916Y-142248200D02*
X268770535Y-142200580D01*
X268770535Y-142200580D02*
X268818154Y-142105342D01*
X268818154Y-142105342D02*
X268818154Y-142010104D01*
X268818154Y-142010104D02*
X268770535Y-141914866D01*
X268770535Y-141914866D02*
X268722916Y-141867247D01*
X268722916Y-141867247D02*
X268627678Y-141819628D01*
X268627678Y-141819628D02*
X268437202Y-141772009D01*
X268437202Y-141772009D02*
X268341964Y-141724390D01*
X268341964Y-141724390D02*
X268294345Y-141676771D01*
X268294345Y-141676771D02*
X268246726Y-141581533D01*
X268246726Y-141581533D02*
X268246726Y-141486295D01*
X268246726Y-141486295D02*
X268294345Y-141391057D01*
X268294345Y-141391057D02*
X268341964Y-141343438D01*
X268341964Y-141343438D02*
X268437202Y-141295819D01*
X268437202Y-141295819D02*
X268675297Y-141295819D01*
X268675297Y-141295819D02*
X268818154Y-141343438D01*
X269151488Y-141295819D02*
X269389583Y-142295819D01*
X269389583Y-142295819D02*
X269580059Y-141581533D01*
X269580059Y-141581533D02*
X269770535Y-142295819D01*
X269770535Y-142295819D02*
X270008631Y-141295819D01*
X270818154Y-141295819D02*
X270627678Y-141295819D01*
X270627678Y-141295819D02*
X270532440Y-141343438D01*
X270532440Y-141343438D02*
X270484821Y-141391057D01*
X270484821Y-141391057D02*
X270389583Y-141533914D01*
X270389583Y-141533914D02*
X270341964Y-141724390D01*
X270341964Y-141724390D02*
X270341964Y-142105342D01*
X270341964Y-142105342D02*
X270389583Y-142200580D01*
X270389583Y-142200580D02*
X270437202Y-142248200D01*
X270437202Y-142248200D02*
X270532440Y-142295819D01*
X270532440Y-142295819D02*
X270722916Y-142295819D01*
X270722916Y-142295819D02*
X270818154Y-142248200D01*
X270818154Y-142248200D02*
X270865773Y-142200580D01*
X270865773Y-142200580D02*
X270913392Y-142105342D01*
X270913392Y-142105342D02*
X270913392Y-141867247D01*
X270913392Y-141867247D02*
X270865773Y-141772009D01*
X270865773Y-141772009D02*
X270818154Y-141724390D01*
X270818154Y-141724390D02*
X270722916Y-141676771D01*
X270722916Y-141676771D02*
X270532440Y-141676771D01*
X270532440Y-141676771D02*
X270437202Y-141724390D01*
X270437202Y-141724390D02*
X270389583Y-141772009D01*
X270389583Y-141772009D02*
X270341964Y-141867247D01*
X271294345Y-141391057D02*
X271341964Y-141343438D01*
X271341964Y-141343438D02*
X271437202Y-141295819D01*
X271437202Y-141295819D02*
X271675297Y-141295819D01*
X271675297Y-141295819D02*
X271770535Y-141343438D01*
X271770535Y-141343438D02*
X271818154Y-141391057D01*
X271818154Y-141391057D02*
X271865773Y-141486295D01*
X271865773Y-141486295D02*
X271865773Y-141581533D01*
X271865773Y-141581533D02*
X271818154Y-141724390D01*
X271818154Y-141724390D02*
X271246726Y-142295819D01*
X271246726Y-142295819D02*
X271865773Y-142295819D01*
X249446726Y-46868200D02*
X249589583Y-46915819D01*
X249589583Y-46915819D02*
X249827678Y-46915819D01*
X249827678Y-46915819D02*
X249922916Y-46868200D01*
X249922916Y-46868200D02*
X249970535Y-46820580D01*
X249970535Y-46820580D02*
X250018154Y-46725342D01*
X250018154Y-46725342D02*
X250018154Y-46630104D01*
X250018154Y-46630104D02*
X249970535Y-46534866D01*
X249970535Y-46534866D02*
X249922916Y-46487247D01*
X249922916Y-46487247D02*
X249827678Y-46439628D01*
X249827678Y-46439628D02*
X249637202Y-46392009D01*
X249637202Y-46392009D02*
X249541964Y-46344390D01*
X249541964Y-46344390D02*
X249494345Y-46296771D01*
X249494345Y-46296771D02*
X249446726Y-46201533D01*
X249446726Y-46201533D02*
X249446726Y-46106295D01*
X249446726Y-46106295D02*
X249494345Y-46011057D01*
X249494345Y-46011057D02*
X249541964Y-45963438D01*
X249541964Y-45963438D02*
X249637202Y-45915819D01*
X249637202Y-45915819D02*
X249875297Y-45915819D01*
X249875297Y-45915819D02*
X250018154Y-45963438D01*
X250351488Y-45915819D02*
X250589583Y-46915819D01*
X250589583Y-46915819D02*
X250780059Y-46201533D01*
X250780059Y-46201533D02*
X250970535Y-46915819D01*
X250970535Y-46915819D02*
X251208631Y-45915819D01*
X252113392Y-46915819D02*
X251541964Y-46915819D01*
X251827678Y-46915819D02*
X251827678Y-45915819D01*
X251827678Y-45915819D02*
X251732440Y-46058676D01*
X251732440Y-46058676D02*
X251637202Y-46153914D01*
X251637202Y-46153914D02*
X251541964Y-46201533D01*
X252446726Y-45915819D02*
X253065773Y-45915819D01*
X253065773Y-45915819D02*
X252732440Y-46296771D01*
X252732440Y-46296771D02*
X252875297Y-46296771D01*
X252875297Y-46296771D02*
X252970535Y-46344390D01*
X252970535Y-46344390D02*
X253018154Y-46392009D01*
X253018154Y-46392009D02*
X253065773Y-46487247D01*
X253065773Y-46487247D02*
X253065773Y-46725342D01*
X253065773Y-46725342D02*
X253018154Y-46820580D01*
X253018154Y-46820580D02*
X252970535Y-46868200D01*
X252970535Y-46868200D02*
X252875297Y-46915819D01*
X252875297Y-46915819D02*
X252589583Y-46915819D01*
X252589583Y-46915819D02*
X252494345Y-46868200D01*
X252494345Y-46868200D02*
X252446726Y-46820580D01*
X254196726Y-104018200D02*
X254339583Y-104065819D01*
X254339583Y-104065819D02*
X254577678Y-104065819D01*
X254577678Y-104065819D02*
X254672916Y-104018200D01*
X254672916Y-104018200D02*
X254720535Y-103970580D01*
X254720535Y-103970580D02*
X254768154Y-103875342D01*
X254768154Y-103875342D02*
X254768154Y-103780104D01*
X254768154Y-103780104D02*
X254720535Y-103684866D01*
X254720535Y-103684866D02*
X254672916Y-103637247D01*
X254672916Y-103637247D02*
X254577678Y-103589628D01*
X254577678Y-103589628D02*
X254387202Y-103542009D01*
X254387202Y-103542009D02*
X254291964Y-103494390D01*
X254291964Y-103494390D02*
X254244345Y-103446771D01*
X254244345Y-103446771D02*
X254196726Y-103351533D01*
X254196726Y-103351533D02*
X254196726Y-103256295D01*
X254196726Y-103256295D02*
X254244345Y-103161057D01*
X254244345Y-103161057D02*
X254291964Y-103113438D01*
X254291964Y-103113438D02*
X254387202Y-103065819D01*
X254387202Y-103065819D02*
X254625297Y-103065819D01*
X254625297Y-103065819D02*
X254768154Y-103113438D01*
X255101488Y-103065819D02*
X255339583Y-104065819D01*
X255339583Y-104065819D02*
X255530059Y-103351533D01*
X255530059Y-103351533D02*
X255720535Y-104065819D01*
X255720535Y-104065819D02*
X255958631Y-103065819D01*
X256815773Y-103065819D02*
X256339583Y-103065819D01*
X256339583Y-103065819D02*
X256291964Y-103542009D01*
X256291964Y-103542009D02*
X256339583Y-103494390D01*
X256339583Y-103494390D02*
X256434821Y-103446771D01*
X256434821Y-103446771D02*
X256672916Y-103446771D01*
X256672916Y-103446771D02*
X256768154Y-103494390D01*
X256768154Y-103494390D02*
X256815773Y-103542009D01*
X256815773Y-103542009D02*
X256863392Y-103637247D01*
X256863392Y-103637247D02*
X256863392Y-103875342D01*
X256863392Y-103875342D02*
X256815773Y-103970580D01*
X256815773Y-103970580D02*
X256768154Y-104018200D01*
X256768154Y-104018200D02*
X256672916Y-104065819D01*
X256672916Y-104065819D02*
X256434821Y-104065819D01*
X256434821Y-104065819D02*
X256339583Y-104018200D01*
X256339583Y-104018200D02*
X256291964Y-103970580D01*
X257196726Y-103065819D02*
X257815773Y-103065819D01*
X257815773Y-103065819D02*
X257482440Y-103446771D01*
X257482440Y-103446771D02*
X257625297Y-103446771D01*
X257625297Y-103446771D02*
X257720535Y-103494390D01*
X257720535Y-103494390D02*
X257768154Y-103542009D01*
X257768154Y-103542009D02*
X257815773Y-103637247D01*
X257815773Y-103637247D02*
X257815773Y-103875342D01*
X257815773Y-103875342D02*
X257768154Y-103970580D01*
X257768154Y-103970580D02*
X257720535Y-104018200D01*
X257720535Y-104018200D02*
X257625297Y-104065819D01*
X257625297Y-104065819D02*
X257339583Y-104065819D01*
X257339583Y-104065819D02*
X257244345Y-104018200D01*
X257244345Y-104018200D02*
X257196726Y-103970580D01*
X297096726Y-46808200D02*
X297239583Y-46855819D01*
X297239583Y-46855819D02*
X297477678Y-46855819D01*
X297477678Y-46855819D02*
X297572916Y-46808200D01*
X297572916Y-46808200D02*
X297620535Y-46760580D01*
X297620535Y-46760580D02*
X297668154Y-46665342D01*
X297668154Y-46665342D02*
X297668154Y-46570104D01*
X297668154Y-46570104D02*
X297620535Y-46474866D01*
X297620535Y-46474866D02*
X297572916Y-46427247D01*
X297572916Y-46427247D02*
X297477678Y-46379628D01*
X297477678Y-46379628D02*
X297287202Y-46332009D01*
X297287202Y-46332009D02*
X297191964Y-46284390D01*
X297191964Y-46284390D02*
X297144345Y-46236771D01*
X297144345Y-46236771D02*
X297096726Y-46141533D01*
X297096726Y-46141533D02*
X297096726Y-46046295D01*
X297096726Y-46046295D02*
X297144345Y-45951057D01*
X297144345Y-45951057D02*
X297191964Y-45903438D01*
X297191964Y-45903438D02*
X297287202Y-45855819D01*
X297287202Y-45855819D02*
X297525297Y-45855819D01*
X297525297Y-45855819D02*
X297668154Y-45903438D01*
X298001488Y-45855819D02*
X298239583Y-46855819D01*
X298239583Y-46855819D02*
X298430059Y-46141533D01*
X298430059Y-46141533D02*
X298620535Y-46855819D01*
X298620535Y-46855819D02*
X298858631Y-45855819D01*
X299763392Y-46855819D02*
X299191964Y-46855819D01*
X299477678Y-46855819D02*
X299477678Y-45855819D01*
X299477678Y-45855819D02*
X299382440Y-45998676D01*
X299382440Y-45998676D02*
X299287202Y-46093914D01*
X299287202Y-46093914D02*
X299191964Y-46141533D01*
X300668154Y-45855819D02*
X300191964Y-45855819D01*
X300191964Y-45855819D02*
X300144345Y-46332009D01*
X300144345Y-46332009D02*
X300191964Y-46284390D01*
X300191964Y-46284390D02*
X300287202Y-46236771D01*
X300287202Y-46236771D02*
X300525297Y-46236771D01*
X300525297Y-46236771D02*
X300620535Y-46284390D01*
X300620535Y-46284390D02*
X300668154Y-46332009D01*
X300668154Y-46332009D02*
X300715773Y-46427247D01*
X300715773Y-46427247D02*
X300715773Y-46665342D01*
X300715773Y-46665342D02*
X300668154Y-46760580D01*
X300668154Y-46760580D02*
X300620535Y-46808200D01*
X300620535Y-46808200D02*
X300525297Y-46855819D01*
X300525297Y-46855819D02*
X300287202Y-46855819D01*
X300287202Y-46855819D02*
X300191964Y-46808200D01*
X300191964Y-46808200D02*
X300144345Y-46760580D01*
X230146726Y-123198200D02*
X230289583Y-123245819D01*
X230289583Y-123245819D02*
X230527678Y-123245819D01*
X230527678Y-123245819D02*
X230622916Y-123198200D01*
X230622916Y-123198200D02*
X230670535Y-123150580D01*
X230670535Y-123150580D02*
X230718154Y-123055342D01*
X230718154Y-123055342D02*
X230718154Y-122960104D01*
X230718154Y-122960104D02*
X230670535Y-122864866D01*
X230670535Y-122864866D02*
X230622916Y-122817247D01*
X230622916Y-122817247D02*
X230527678Y-122769628D01*
X230527678Y-122769628D02*
X230337202Y-122722009D01*
X230337202Y-122722009D02*
X230241964Y-122674390D01*
X230241964Y-122674390D02*
X230194345Y-122626771D01*
X230194345Y-122626771D02*
X230146726Y-122531533D01*
X230146726Y-122531533D02*
X230146726Y-122436295D01*
X230146726Y-122436295D02*
X230194345Y-122341057D01*
X230194345Y-122341057D02*
X230241964Y-122293438D01*
X230241964Y-122293438D02*
X230337202Y-122245819D01*
X230337202Y-122245819D02*
X230575297Y-122245819D01*
X230575297Y-122245819D02*
X230718154Y-122293438D01*
X231051488Y-122245819D02*
X231289583Y-123245819D01*
X231289583Y-123245819D02*
X231480059Y-122531533D01*
X231480059Y-122531533D02*
X231670535Y-123245819D01*
X231670535Y-123245819D02*
X231908631Y-122245819D01*
X232765773Y-122245819D02*
X232289583Y-122245819D01*
X232289583Y-122245819D02*
X232241964Y-122722009D01*
X232241964Y-122722009D02*
X232289583Y-122674390D01*
X232289583Y-122674390D02*
X232384821Y-122626771D01*
X232384821Y-122626771D02*
X232622916Y-122626771D01*
X232622916Y-122626771D02*
X232718154Y-122674390D01*
X232718154Y-122674390D02*
X232765773Y-122722009D01*
X232765773Y-122722009D02*
X232813392Y-122817247D01*
X232813392Y-122817247D02*
X232813392Y-123055342D01*
X232813392Y-123055342D02*
X232765773Y-123150580D01*
X232765773Y-123150580D02*
X232718154Y-123198200D01*
X232718154Y-123198200D02*
X232622916Y-123245819D01*
X232622916Y-123245819D02*
X232384821Y-123245819D01*
X232384821Y-123245819D02*
X232289583Y-123198200D01*
X232289583Y-123198200D02*
X232241964Y-123150580D01*
X233289583Y-123245819D02*
X233480059Y-123245819D01*
X233480059Y-123245819D02*
X233575297Y-123198200D01*
X233575297Y-123198200D02*
X233622916Y-123150580D01*
X233622916Y-123150580D02*
X233718154Y-123007723D01*
X233718154Y-123007723D02*
X233765773Y-122817247D01*
X233765773Y-122817247D02*
X233765773Y-122436295D01*
X233765773Y-122436295D02*
X233718154Y-122341057D01*
X233718154Y-122341057D02*
X233670535Y-122293438D01*
X233670535Y-122293438D02*
X233575297Y-122245819D01*
X233575297Y-122245819D02*
X233384821Y-122245819D01*
X233384821Y-122245819D02*
X233289583Y-122293438D01*
X233289583Y-122293438D02*
X233241964Y-122341057D01*
X233241964Y-122341057D02*
X233194345Y-122436295D01*
X233194345Y-122436295D02*
X233194345Y-122674390D01*
X233194345Y-122674390D02*
X233241964Y-122769628D01*
X233241964Y-122769628D02*
X233289583Y-122817247D01*
X233289583Y-122817247D02*
X233384821Y-122864866D01*
X233384821Y-122864866D02*
X233575297Y-122864866D01*
X233575297Y-122864866D02*
X233670535Y-122817247D01*
X233670535Y-122817247D02*
X233718154Y-122769628D01*
X233718154Y-122769628D02*
X233765773Y-122674390D01*
X73234226Y-84968200D02*
X73377083Y-85015819D01*
X73377083Y-85015819D02*
X73615178Y-85015819D01*
X73615178Y-85015819D02*
X73710416Y-84968200D01*
X73710416Y-84968200D02*
X73758035Y-84920580D01*
X73758035Y-84920580D02*
X73805654Y-84825342D01*
X73805654Y-84825342D02*
X73805654Y-84730104D01*
X73805654Y-84730104D02*
X73758035Y-84634866D01*
X73758035Y-84634866D02*
X73710416Y-84587247D01*
X73710416Y-84587247D02*
X73615178Y-84539628D01*
X73615178Y-84539628D02*
X73424702Y-84492009D01*
X73424702Y-84492009D02*
X73329464Y-84444390D01*
X73329464Y-84444390D02*
X73281845Y-84396771D01*
X73281845Y-84396771D02*
X73234226Y-84301533D01*
X73234226Y-84301533D02*
X73234226Y-84206295D01*
X73234226Y-84206295D02*
X73281845Y-84111057D01*
X73281845Y-84111057D02*
X73329464Y-84063438D01*
X73329464Y-84063438D02*
X73424702Y-84015819D01*
X73424702Y-84015819D02*
X73662797Y-84015819D01*
X73662797Y-84015819D02*
X73805654Y-84063438D01*
X74138988Y-84015819D02*
X74377083Y-85015819D01*
X74377083Y-85015819D02*
X74567559Y-84301533D01*
X74567559Y-84301533D02*
X74758035Y-85015819D01*
X74758035Y-85015819D02*
X74996131Y-84015819D01*
X75281845Y-84015819D02*
X75900892Y-84015819D01*
X75900892Y-84015819D02*
X75567559Y-84396771D01*
X75567559Y-84396771D02*
X75710416Y-84396771D01*
X75710416Y-84396771D02*
X75805654Y-84444390D01*
X75805654Y-84444390D02*
X75853273Y-84492009D01*
X75853273Y-84492009D02*
X75900892Y-84587247D01*
X75900892Y-84587247D02*
X75900892Y-84825342D01*
X75900892Y-84825342D02*
X75853273Y-84920580D01*
X75853273Y-84920580D02*
X75805654Y-84968200D01*
X75805654Y-84968200D02*
X75710416Y-85015819D01*
X75710416Y-85015819D02*
X75424702Y-85015819D01*
X75424702Y-85015819D02*
X75329464Y-84968200D01*
X75329464Y-84968200D02*
X75281845Y-84920580D01*
X76853273Y-85015819D02*
X76281845Y-85015819D01*
X76567559Y-85015819D02*
X76567559Y-84015819D01*
X76567559Y-84015819D02*
X76472321Y-84158676D01*
X76472321Y-84158676D02*
X76377083Y-84253914D01*
X76377083Y-84253914D02*
X76281845Y-84301533D01*
X42076726Y-123148200D02*
X42219583Y-123195819D01*
X42219583Y-123195819D02*
X42457678Y-123195819D01*
X42457678Y-123195819D02*
X42552916Y-123148200D01*
X42552916Y-123148200D02*
X42600535Y-123100580D01*
X42600535Y-123100580D02*
X42648154Y-123005342D01*
X42648154Y-123005342D02*
X42648154Y-122910104D01*
X42648154Y-122910104D02*
X42600535Y-122814866D01*
X42600535Y-122814866D02*
X42552916Y-122767247D01*
X42552916Y-122767247D02*
X42457678Y-122719628D01*
X42457678Y-122719628D02*
X42267202Y-122672009D01*
X42267202Y-122672009D02*
X42171964Y-122624390D01*
X42171964Y-122624390D02*
X42124345Y-122576771D01*
X42124345Y-122576771D02*
X42076726Y-122481533D01*
X42076726Y-122481533D02*
X42076726Y-122386295D01*
X42076726Y-122386295D02*
X42124345Y-122291057D01*
X42124345Y-122291057D02*
X42171964Y-122243438D01*
X42171964Y-122243438D02*
X42267202Y-122195819D01*
X42267202Y-122195819D02*
X42505297Y-122195819D01*
X42505297Y-122195819D02*
X42648154Y-122243438D01*
X42981488Y-122195819D02*
X43219583Y-123195819D01*
X43219583Y-123195819D02*
X43410059Y-122481533D01*
X43410059Y-122481533D02*
X43600535Y-123195819D01*
X43600535Y-123195819D02*
X43838631Y-122195819D01*
X44695773Y-122195819D02*
X44219583Y-122195819D01*
X44219583Y-122195819D02*
X44171964Y-122672009D01*
X44171964Y-122672009D02*
X44219583Y-122624390D01*
X44219583Y-122624390D02*
X44314821Y-122576771D01*
X44314821Y-122576771D02*
X44552916Y-122576771D01*
X44552916Y-122576771D02*
X44648154Y-122624390D01*
X44648154Y-122624390D02*
X44695773Y-122672009D01*
X44695773Y-122672009D02*
X44743392Y-122767247D01*
X44743392Y-122767247D02*
X44743392Y-123005342D01*
X44743392Y-123005342D02*
X44695773Y-123100580D01*
X44695773Y-123100580D02*
X44648154Y-123148200D01*
X44648154Y-123148200D02*
X44552916Y-123195819D01*
X44552916Y-123195819D02*
X44314821Y-123195819D01*
X44314821Y-123195819D02*
X44219583Y-123148200D01*
X44219583Y-123148200D02*
X44171964Y-123100580D01*
X45648154Y-122195819D02*
X45171964Y-122195819D01*
X45171964Y-122195819D02*
X45124345Y-122672009D01*
X45124345Y-122672009D02*
X45171964Y-122624390D01*
X45171964Y-122624390D02*
X45267202Y-122576771D01*
X45267202Y-122576771D02*
X45505297Y-122576771D01*
X45505297Y-122576771D02*
X45600535Y-122624390D01*
X45600535Y-122624390D02*
X45648154Y-122672009D01*
X45648154Y-122672009D02*
X45695773Y-122767247D01*
X45695773Y-122767247D02*
X45695773Y-123005342D01*
X45695773Y-123005342D02*
X45648154Y-123100580D01*
X45648154Y-123100580D02*
X45600535Y-123148200D01*
X45600535Y-123148200D02*
X45505297Y-123195819D01*
X45505297Y-123195819D02*
X45267202Y-123195819D01*
X45267202Y-123195819D02*
X45171964Y-123148200D01*
X45171964Y-123148200D02*
X45124345Y-123100580D01*
X263734226Y-84968200D02*
X263877083Y-85015819D01*
X263877083Y-85015819D02*
X264115178Y-85015819D01*
X264115178Y-85015819D02*
X264210416Y-84968200D01*
X264210416Y-84968200D02*
X264258035Y-84920580D01*
X264258035Y-84920580D02*
X264305654Y-84825342D01*
X264305654Y-84825342D02*
X264305654Y-84730104D01*
X264305654Y-84730104D02*
X264258035Y-84634866D01*
X264258035Y-84634866D02*
X264210416Y-84587247D01*
X264210416Y-84587247D02*
X264115178Y-84539628D01*
X264115178Y-84539628D02*
X263924702Y-84492009D01*
X263924702Y-84492009D02*
X263829464Y-84444390D01*
X263829464Y-84444390D02*
X263781845Y-84396771D01*
X263781845Y-84396771D02*
X263734226Y-84301533D01*
X263734226Y-84301533D02*
X263734226Y-84206295D01*
X263734226Y-84206295D02*
X263781845Y-84111057D01*
X263781845Y-84111057D02*
X263829464Y-84063438D01*
X263829464Y-84063438D02*
X263924702Y-84015819D01*
X263924702Y-84015819D02*
X264162797Y-84015819D01*
X264162797Y-84015819D02*
X264305654Y-84063438D01*
X264638988Y-84015819D02*
X264877083Y-85015819D01*
X264877083Y-85015819D02*
X265067559Y-84301533D01*
X265067559Y-84301533D02*
X265258035Y-85015819D01*
X265258035Y-85015819D02*
X265496131Y-84015819D01*
X266305654Y-84349152D02*
X266305654Y-85015819D01*
X266067559Y-83968200D02*
X265829464Y-84682485D01*
X265829464Y-84682485D02*
X266448511Y-84682485D01*
X267353273Y-85015819D02*
X266781845Y-85015819D01*
X267067559Y-85015819D02*
X267067559Y-84015819D01*
X267067559Y-84015819D02*
X266972321Y-84158676D01*
X266972321Y-84158676D02*
X266877083Y-84253914D01*
X266877083Y-84253914D02*
X266781845Y-84301533D01*
X301866726Y-65998200D02*
X302009583Y-66045819D01*
X302009583Y-66045819D02*
X302247678Y-66045819D01*
X302247678Y-66045819D02*
X302342916Y-65998200D01*
X302342916Y-65998200D02*
X302390535Y-65950580D01*
X302390535Y-65950580D02*
X302438154Y-65855342D01*
X302438154Y-65855342D02*
X302438154Y-65760104D01*
X302438154Y-65760104D02*
X302390535Y-65664866D01*
X302390535Y-65664866D02*
X302342916Y-65617247D01*
X302342916Y-65617247D02*
X302247678Y-65569628D01*
X302247678Y-65569628D02*
X302057202Y-65522009D01*
X302057202Y-65522009D02*
X301961964Y-65474390D01*
X301961964Y-65474390D02*
X301914345Y-65426771D01*
X301914345Y-65426771D02*
X301866726Y-65331533D01*
X301866726Y-65331533D02*
X301866726Y-65236295D01*
X301866726Y-65236295D02*
X301914345Y-65141057D01*
X301914345Y-65141057D02*
X301961964Y-65093438D01*
X301961964Y-65093438D02*
X302057202Y-65045819D01*
X302057202Y-65045819D02*
X302295297Y-65045819D01*
X302295297Y-65045819D02*
X302438154Y-65093438D01*
X302771488Y-65045819D02*
X303009583Y-66045819D01*
X303009583Y-66045819D02*
X303200059Y-65331533D01*
X303200059Y-65331533D02*
X303390535Y-66045819D01*
X303390535Y-66045819D02*
X303628631Y-65045819D01*
X303961964Y-65141057D02*
X304009583Y-65093438D01*
X304009583Y-65093438D02*
X304104821Y-65045819D01*
X304104821Y-65045819D02*
X304342916Y-65045819D01*
X304342916Y-65045819D02*
X304438154Y-65093438D01*
X304438154Y-65093438D02*
X304485773Y-65141057D01*
X304485773Y-65141057D02*
X304533392Y-65236295D01*
X304533392Y-65236295D02*
X304533392Y-65331533D01*
X304533392Y-65331533D02*
X304485773Y-65474390D01*
X304485773Y-65474390D02*
X303914345Y-66045819D01*
X303914345Y-66045819D02*
X304533392Y-66045819D01*
X305009583Y-66045819D02*
X305200059Y-66045819D01*
X305200059Y-66045819D02*
X305295297Y-65998200D01*
X305295297Y-65998200D02*
X305342916Y-65950580D01*
X305342916Y-65950580D02*
X305438154Y-65807723D01*
X305438154Y-65807723D02*
X305485773Y-65617247D01*
X305485773Y-65617247D02*
X305485773Y-65236295D01*
X305485773Y-65236295D02*
X305438154Y-65141057D01*
X305438154Y-65141057D02*
X305390535Y-65093438D01*
X305390535Y-65093438D02*
X305295297Y-65045819D01*
X305295297Y-65045819D02*
X305104821Y-65045819D01*
X305104821Y-65045819D02*
X305009583Y-65093438D01*
X305009583Y-65093438D02*
X304961964Y-65141057D01*
X304961964Y-65141057D02*
X304914345Y-65236295D01*
X304914345Y-65236295D02*
X304914345Y-65474390D01*
X304914345Y-65474390D02*
X304961964Y-65569628D01*
X304961964Y-65569628D02*
X305009583Y-65617247D01*
X305009583Y-65617247D02*
X305104821Y-65664866D01*
X305104821Y-65664866D02*
X305295297Y-65664866D01*
X305295297Y-65664866D02*
X305390535Y-65617247D01*
X305390535Y-65617247D02*
X305438154Y-65569628D01*
X305438154Y-65569628D02*
X305485773Y-65474390D01*
X87489226Y-65918200D02*
X87632083Y-65965819D01*
X87632083Y-65965819D02*
X87870178Y-65965819D01*
X87870178Y-65965819D02*
X87965416Y-65918200D01*
X87965416Y-65918200D02*
X88013035Y-65870580D01*
X88013035Y-65870580D02*
X88060654Y-65775342D01*
X88060654Y-65775342D02*
X88060654Y-65680104D01*
X88060654Y-65680104D02*
X88013035Y-65584866D01*
X88013035Y-65584866D02*
X87965416Y-65537247D01*
X87965416Y-65537247D02*
X87870178Y-65489628D01*
X87870178Y-65489628D02*
X87679702Y-65442009D01*
X87679702Y-65442009D02*
X87584464Y-65394390D01*
X87584464Y-65394390D02*
X87536845Y-65346771D01*
X87536845Y-65346771D02*
X87489226Y-65251533D01*
X87489226Y-65251533D02*
X87489226Y-65156295D01*
X87489226Y-65156295D02*
X87536845Y-65061057D01*
X87536845Y-65061057D02*
X87584464Y-65013438D01*
X87584464Y-65013438D02*
X87679702Y-64965819D01*
X87679702Y-64965819D02*
X87917797Y-64965819D01*
X87917797Y-64965819D02*
X88060654Y-65013438D01*
X88393988Y-64965819D02*
X88632083Y-65965819D01*
X88632083Y-65965819D02*
X88822559Y-65251533D01*
X88822559Y-65251533D02*
X89013035Y-65965819D01*
X89013035Y-65965819D02*
X89251131Y-64965819D01*
X90155892Y-65965819D02*
X89584464Y-65965819D01*
X89870178Y-65965819D02*
X89870178Y-64965819D01*
X89870178Y-64965819D02*
X89774940Y-65108676D01*
X89774940Y-65108676D02*
X89679702Y-65203914D01*
X89679702Y-65203914D02*
X89584464Y-65251533D01*
X90727321Y-65394390D02*
X90632083Y-65346771D01*
X90632083Y-65346771D02*
X90584464Y-65299152D01*
X90584464Y-65299152D02*
X90536845Y-65203914D01*
X90536845Y-65203914D02*
X90536845Y-65156295D01*
X90536845Y-65156295D02*
X90584464Y-65061057D01*
X90584464Y-65061057D02*
X90632083Y-65013438D01*
X90632083Y-65013438D02*
X90727321Y-64965819D01*
X90727321Y-64965819D02*
X90917797Y-64965819D01*
X90917797Y-64965819D02*
X91013035Y-65013438D01*
X91013035Y-65013438D02*
X91060654Y-65061057D01*
X91060654Y-65061057D02*
X91108273Y-65156295D01*
X91108273Y-65156295D02*
X91108273Y-65203914D01*
X91108273Y-65203914D02*
X91060654Y-65299152D01*
X91060654Y-65299152D02*
X91013035Y-65346771D01*
X91013035Y-65346771D02*
X90917797Y-65394390D01*
X90917797Y-65394390D02*
X90727321Y-65394390D01*
X90727321Y-65394390D02*
X90632083Y-65442009D01*
X90632083Y-65442009D02*
X90584464Y-65489628D01*
X90584464Y-65489628D02*
X90536845Y-65584866D01*
X90536845Y-65584866D02*
X90536845Y-65775342D01*
X90536845Y-65775342D02*
X90584464Y-65870580D01*
X90584464Y-65870580D02*
X90632083Y-65918200D01*
X90632083Y-65918200D02*
X90727321Y-65965819D01*
X90727321Y-65965819D02*
X90917797Y-65965819D01*
X90917797Y-65965819D02*
X91013035Y-65918200D01*
X91013035Y-65918200D02*
X91060654Y-65870580D01*
X91060654Y-65870580D02*
X91108273Y-65775342D01*
X91108273Y-65775342D02*
X91108273Y-65584866D01*
X91108273Y-65584866D02*
X91060654Y-65489628D01*
X91060654Y-65489628D02*
X91013035Y-65442009D01*
X91013035Y-65442009D02*
X90917797Y-65394390D01*
X40372917Y-27818200D02*
X40515774Y-27865819D01*
X40515774Y-27865819D02*
X40753869Y-27865819D01*
X40753869Y-27865819D02*
X40849107Y-27818200D01*
X40849107Y-27818200D02*
X40896726Y-27770580D01*
X40896726Y-27770580D02*
X40944345Y-27675342D01*
X40944345Y-27675342D02*
X40944345Y-27580104D01*
X40944345Y-27580104D02*
X40896726Y-27484866D01*
X40896726Y-27484866D02*
X40849107Y-27437247D01*
X40849107Y-27437247D02*
X40753869Y-27389628D01*
X40753869Y-27389628D02*
X40563393Y-27342009D01*
X40563393Y-27342009D02*
X40468155Y-27294390D01*
X40468155Y-27294390D02*
X40420536Y-27246771D01*
X40420536Y-27246771D02*
X40372917Y-27151533D01*
X40372917Y-27151533D02*
X40372917Y-27056295D01*
X40372917Y-27056295D02*
X40420536Y-26961057D01*
X40420536Y-26961057D02*
X40468155Y-26913438D01*
X40468155Y-26913438D02*
X40563393Y-26865819D01*
X40563393Y-26865819D02*
X40801488Y-26865819D01*
X40801488Y-26865819D02*
X40944345Y-26913438D01*
X41277679Y-26865819D02*
X41515774Y-27865819D01*
X41515774Y-27865819D02*
X41706250Y-27151533D01*
X41706250Y-27151533D02*
X41896726Y-27865819D01*
X41896726Y-27865819D02*
X42134822Y-26865819D01*
X43039583Y-27865819D02*
X42468155Y-27865819D01*
X42753869Y-27865819D02*
X42753869Y-26865819D01*
X42753869Y-26865819D02*
X42658631Y-27008676D01*
X42658631Y-27008676D02*
X42563393Y-27103914D01*
X42563393Y-27103914D02*
X42468155Y-27151533D01*
X51716726Y-104098200D02*
X51859583Y-104145819D01*
X51859583Y-104145819D02*
X52097678Y-104145819D01*
X52097678Y-104145819D02*
X52192916Y-104098200D01*
X52192916Y-104098200D02*
X52240535Y-104050580D01*
X52240535Y-104050580D02*
X52288154Y-103955342D01*
X52288154Y-103955342D02*
X52288154Y-103860104D01*
X52288154Y-103860104D02*
X52240535Y-103764866D01*
X52240535Y-103764866D02*
X52192916Y-103717247D01*
X52192916Y-103717247D02*
X52097678Y-103669628D01*
X52097678Y-103669628D02*
X51907202Y-103622009D01*
X51907202Y-103622009D02*
X51811964Y-103574390D01*
X51811964Y-103574390D02*
X51764345Y-103526771D01*
X51764345Y-103526771D02*
X51716726Y-103431533D01*
X51716726Y-103431533D02*
X51716726Y-103336295D01*
X51716726Y-103336295D02*
X51764345Y-103241057D01*
X51764345Y-103241057D02*
X51811964Y-103193438D01*
X51811964Y-103193438D02*
X51907202Y-103145819D01*
X51907202Y-103145819D02*
X52145297Y-103145819D01*
X52145297Y-103145819D02*
X52288154Y-103193438D01*
X52621488Y-103145819D02*
X52859583Y-104145819D01*
X52859583Y-104145819D02*
X53050059Y-103431533D01*
X53050059Y-103431533D02*
X53240535Y-104145819D01*
X53240535Y-104145819D02*
X53478631Y-103145819D01*
X54288154Y-103479152D02*
X54288154Y-104145819D01*
X54050059Y-103098200D02*
X53811964Y-103812485D01*
X53811964Y-103812485D02*
X54431011Y-103812485D01*
X54716726Y-103145819D02*
X55335773Y-103145819D01*
X55335773Y-103145819D02*
X55002440Y-103526771D01*
X55002440Y-103526771D02*
X55145297Y-103526771D01*
X55145297Y-103526771D02*
X55240535Y-103574390D01*
X55240535Y-103574390D02*
X55288154Y-103622009D01*
X55288154Y-103622009D02*
X55335773Y-103717247D01*
X55335773Y-103717247D02*
X55335773Y-103955342D01*
X55335773Y-103955342D02*
X55288154Y-104050580D01*
X55288154Y-104050580D02*
X55240535Y-104098200D01*
X55240535Y-104098200D02*
X55145297Y-104145819D01*
X55145297Y-104145819D02*
X54859583Y-104145819D01*
X54859583Y-104145819D02*
X54764345Y-104098200D01*
X54764345Y-104098200D02*
X54716726Y-104050580D01*
X294756726Y-84928200D02*
X294899583Y-84975819D01*
X294899583Y-84975819D02*
X295137678Y-84975819D01*
X295137678Y-84975819D02*
X295232916Y-84928200D01*
X295232916Y-84928200D02*
X295280535Y-84880580D01*
X295280535Y-84880580D02*
X295328154Y-84785342D01*
X295328154Y-84785342D02*
X295328154Y-84690104D01*
X295328154Y-84690104D02*
X295280535Y-84594866D01*
X295280535Y-84594866D02*
X295232916Y-84547247D01*
X295232916Y-84547247D02*
X295137678Y-84499628D01*
X295137678Y-84499628D02*
X294947202Y-84452009D01*
X294947202Y-84452009D02*
X294851964Y-84404390D01*
X294851964Y-84404390D02*
X294804345Y-84356771D01*
X294804345Y-84356771D02*
X294756726Y-84261533D01*
X294756726Y-84261533D02*
X294756726Y-84166295D01*
X294756726Y-84166295D02*
X294804345Y-84071057D01*
X294804345Y-84071057D02*
X294851964Y-84023438D01*
X294851964Y-84023438D02*
X294947202Y-83975819D01*
X294947202Y-83975819D02*
X295185297Y-83975819D01*
X295185297Y-83975819D02*
X295328154Y-84023438D01*
X295661488Y-83975819D02*
X295899583Y-84975819D01*
X295899583Y-84975819D02*
X296090059Y-84261533D01*
X296090059Y-84261533D02*
X296280535Y-84975819D01*
X296280535Y-84975819D02*
X296518631Y-83975819D01*
X297328154Y-84309152D02*
X297328154Y-84975819D01*
X297090059Y-83928200D02*
X296851964Y-84642485D01*
X296851964Y-84642485D02*
X297471011Y-84642485D01*
X297804345Y-84071057D02*
X297851964Y-84023438D01*
X297851964Y-84023438D02*
X297947202Y-83975819D01*
X297947202Y-83975819D02*
X298185297Y-83975819D01*
X298185297Y-83975819D02*
X298280535Y-84023438D01*
X298280535Y-84023438D02*
X298328154Y-84071057D01*
X298328154Y-84071057D02*
X298375773Y-84166295D01*
X298375773Y-84166295D02*
X298375773Y-84261533D01*
X298375773Y-84261533D02*
X298328154Y-84404390D01*
X298328154Y-84404390D02*
X297756726Y-84975819D01*
X297756726Y-84975819D02*
X298375773Y-84975819D01*
X106539226Y-65918200D02*
X106682083Y-65965819D01*
X106682083Y-65965819D02*
X106920178Y-65965819D01*
X106920178Y-65965819D02*
X107015416Y-65918200D01*
X107015416Y-65918200D02*
X107063035Y-65870580D01*
X107063035Y-65870580D02*
X107110654Y-65775342D01*
X107110654Y-65775342D02*
X107110654Y-65680104D01*
X107110654Y-65680104D02*
X107063035Y-65584866D01*
X107063035Y-65584866D02*
X107015416Y-65537247D01*
X107015416Y-65537247D02*
X106920178Y-65489628D01*
X106920178Y-65489628D02*
X106729702Y-65442009D01*
X106729702Y-65442009D02*
X106634464Y-65394390D01*
X106634464Y-65394390D02*
X106586845Y-65346771D01*
X106586845Y-65346771D02*
X106539226Y-65251533D01*
X106539226Y-65251533D02*
X106539226Y-65156295D01*
X106539226Y-65156295D02*
X106586845Y-65061057D01*
X106586845Y-65061057D02*
X106634464Y-65013438D01*
X106634464Y-65013438D02*
X106729702Y-64965819D01*
X106729702Y-64965819D02*
X106967797Y-64965819D01*
X106967797Y-64965819D02*
X107110654Y-65013438D01*
X107443988Y-64965819D02*
X107682083Y-65965819D01*
X107682083Y-65965819D02*
X107872559Y-65251533D01*
X107872559Y-65251533D02*
X108063035Y-65965819D01*
X108063035Y-65965819D02*
X108301131Y-64965819D01*
X109205892Y-65965819D02*
X108634464Y-65965819D01*
X108920178Y-65965819D02*
X108920178Y-64965819D01*
X108920178Y-64965819D02*
X108824940Y-65108676D01*
X108824940Y-65108676D02*
X108729702Y-65203914D01*
X108729702Y-65203914D02*
X108634464Y-65251533D01*
X109682083Y-65965819D02*
X109872559Y-65965819D01*
X109872559Y-65965819D02*
X109967797Y-65918200D01*
X109967797Y-65918200D02*
X110015416Y-65870580D01*
X110015416Y-65870580D02*
X110110654Y-65727723D01*
X110110654Y-65727723D02*
X110158273Y-65537247D01*
X110158273Y-65537247D02*
X110158273Y-65156295D01*
X110158273Y-65156295D02*
X110110654Y-65061057D01*
X110110654Y-65061057D02*
X110063035Y-65013438D01*
X110063035Y-65013438D02*
X109967797Y-64965819D01*
X109967797Y-64965819D02*
X109777321Y-64965819D01*
X109777321Y-64965819D02*
X109682083Y-65013438D01*
X109682083Y-65013438D02*
X109634464Y-65061057D01*
X109634464Y-65061057D02*
X109586845Y-65156295D01*
X109586845Y-65156295D02*
X109586845Y-65394390D01*
X109586845Y-65394390D02*
X109634464Y-65489628D01*
X109634464Y-65489628D02*
X109682083Y-65537247D01*
X109682083Y-65537247D02*
X109777321Y-65584866D01*
X109777321Y-65584866D02*
X109967797Y-65584866D01*
X109967797Y-65584866D02*
X110063035Y-65537247D01*
X110063035Y-65537247D02*
X110110654Y-65489628D01*
X110110654Y-65489628D02*
X110158273Y-65394390D01*
X268496726Y-46868200D02*
X268639583Y-46915819D01*
X268639583Y-46915819D02*
X268877678Y-46915819D01*
X268877678Y-46915819D02*
X268972916Y-46868200D01*
X268972916Y-46868200D02*
X269020535Y-46820580D01*
X269020535Y-46820580D02*
X269068154Y-46725342D01*
X269068154Y-46725342D02*
X269068154Y-46630104D01*
X269068154Y-46630104D02*
X269020535Y-46534866D01*
X269020535Y-46534866D02*
X268972916Y-46487247D01*
X268972916Y-46487247D02*
X268877678Y-46439628D01*
X268877678Y-46439628D02*
X268687202Y-46392009D01*
X268687202Y-46392009D02*
X268591964Y-46344390D01*
X268591964Y-46344390D02*
X268544345Y-46296771D01*
X268544345Y-46296771D02*
X268496726Y-46201533D01*
X268496726Y-46201533D02*
X268496726Y-46106295D01*
X268496726Y-46106295D02*
X268544345Y-46011057D01*
X268544345Y-46011057D02*
X268591964Y-45963438D01*
X268591964Y-45963438D02*
X268687202Y-45915819D01*
X268687202Y-45915819D02*
X268925297Y-45915819D01*
X268925297Y-45915819D02*
X269068154Y-45963438D01*
X269401488Y-45915819D02*
X269639583Y-46915819D01*
X269639583Y-46915819D02*
X269830059Y-46201533D01*
X269830059Y-46201533D02*
X270020535Y-46915819D01*
X270020535Y-46915819D02*
X270258631Y-45915819D01*
X271163392Y-46915819D02*
X270591964Y-46915819D01*
X270877678Y-46915819D02*
X270877678Y-45915819D01*
X270877678Y-45915819D02*
X270782440Y-46058676D01*
X270782440Y-46058676D02*
X270687202Y-46153914D01*
X270687202Y-46153914D02*
X270591964Y-46201533D01*
X272020535Y-46249152D02*
X272020535Y-46915819D01*
X271782440Y-45868200D02*
X271544345Y-46582485D01*
X271544345Y-46582485D02*
X272163392Y-46582485D01*
X268246726Y-123198200D02*
X268389583Y-123245819D01*
X268389583Y-123245819D02*
X268627678Y-123245819D01*
X268627678Y-123245819D02*
X268722916Y-123198200D01*
X268722916Y-123198200D02*
X268770535Y-123150580D01*
X268770535Y-123150580D02*
X268818154Y-123055342D01*
X268818154Y-123055342D02*
X268818154Y-122960104D01*
X268818154Y-122960104D02*
X268770535Y-122864866D01*
X268770535Y-122864866D02*
X268722916Y-122817247D01*
X268722916Y-122817247D02*
X268627678Y-122769628D01*
X268627678Y-122769628D02*
X268437202Y-122722009D01*
X268437202Y-122722009D02*
X268341964Y-122674390D01*
X268341964Y-122674390D02*
X268294345Y-122626771D01*
X268294345Y-122626771D02*
X268246726Y-122531533D01*
X268246726Y-122531533D02*
X268246726Y-122436295D01*
X268246726Y-122436295D02*
X268294345Y-122341057D01*
X268294345Y-122341057D02*
X268341964Y-122293438D01*
X268341964Y-122293438D02*
X268437202Y-122245819D01*
X268437202Y-122245819D02*
X268675297Y-122245819D01*
X268675297Y-122245819D02*
X268818154Y-122293438D01*
X269151488Y-122245819D02*
X269389583Y-123245819D01*
X269389583Y-123245819D02*
X269580059Y-122531533D01*
X269580059Y-122531533D02*
X269770535Y-123245819D01*
X269770535Y-123245819D02*
X270008631Y-122245819D01*
X270818154Y-122245819D02*
X270627678Y-122245819D01*
X270627678Y-122245819D02*
X270532440Y-122293438D01*
X270532440Y-122293438D02*
X270484821Y-122341057D01*
X270484821Y-122341057D02*
X270389583Y-122483914D01*
X270389583Y-122483914D02*
X270341964Y-122674390D01*
X270341964Y-122674390D02*
X270341964Y-123055342D01*
X270341964Y-123055342D02*
X270389583Y-123150580D01*
X270389583Y-123150580D02*
X270437202Y-123198200D01*
X270437202Y-123198200D02*
X270532440Y-123245819D01*
X270532440Y-123245819D02*
X270722916Y-123245819D01*
X270722916Y-123245819D02*
X270818154Y-123198200D01*
X270818154Y-123198200D02*
X270865773Y-123150580D01*
X270865773Y-123150580D02*
X270913392Y-123055342D01*
X270913392Y-123055342D02*
X270913392Y-122817247D01*
X270913392Y-122817247D02*
X270865773Y-122722009D01*
X270865773Y-122722009D02*
X270818154Y-122674390D01*
X270818154Y-122674390D02*
X270722916Y-122626771D01*
X270722916Y-122626771D02*
X270532440Y-122626771D01*
X270532440Y-122626771D02*
X270437202Y-122674390D01*
X270437202Y-122674390D02*
X270389583Y-122722009D01*
X270389583Y-122722009D02*
X270341964Y-122817247D01*
X271818154Y-122245819D02*
X271341964Y-122245819D01*
X271341964Y-122245819D02*
X271294345Y-122722009D01*
X271294345Y-122722009D02*
X271341964Y-122674390D01*
X271341964Y-122674390D02*
X271437202Y-122626771D01*
X271437202Y-122626771D02*
X271675297Y-122626771D01*
X271675297Y-122626771D02*
X271770535Y-122674390D01*
X271770535Y-122674390D02*
X271818154Y-122722009D01*
X271818154Y-122722009D02*
X271865773Y-122817247D01*
X271865773Y-122817247D02*
X271865773Y-123055342D01*
X271865773Y-123055342D02*
X271818154Y-123150580D01*
X271818154Y-123150580D02*
X271770535Y-123198200D01*
X271770535Y-123198200D02*
X271675297Y-123245819D01*
X271675297Y-123245819D02*
X271437202Y-123245819D01*
X271437202Y-123245819D02*
X271341964Y-123198200D01*
X271341964Y-123198200D02*
X271294345Y-123150580D01*
X135622917Y-46868200D02*
X135765774Y-46915819D01*
X135765774Y-46915819D02*
X136003869Y-46915819D01*
X136003869Y-46915819D02*
X136099107Y-46868200D01*
X136099107Y-46868200D02*
X136146726Y-46820580D01*
X136146726Y-46820580D02*
X136194345Y-46725342D01*
X136194345Y-46725342D02*
X136194345Y-46630104D01*
X136194345Y-46630104D02*
X136146726Y-46534866D01*
X136146726Y-46534866D02*
X136099107Y-46487247D01*
X136099107Y-46487247D02*
X136003869Y-46439628D01*
X136003869Y-46439628D02*
X135813393Y-46392009D01*
X135813393Y-46392009D02*
X135718155Y-46344390D01*
X135718155Y-46344390D02*
X135670536Y-46296771D01*
X135670536Y-46296771D02*
X135622917Y-46201533D01*
X135622917Y-46201533D02*
X135622917Y-46106295D01*
X135622917Y-46106295D02*
X135670536Y-46011057D01*
X135670536Y-46011057D02*
X135718155Y-45963438D01*
X135718155Y-45963438D02*
X135813393Y-45915819D01*
X135813393Y-45915819D02*
X136051488Y-45915819D01*
X136051488Y-45915819D02*
X136194345Y-45963438D01*
X136527679Y-45915819D02*
X136765774Y-46915819D01*
X136765774Y-46915819D02*
X136956250Y-46201533D01*
X136956250Y-46201533D02*
X137146726Y-46915819D01*
X137146726Y-46915819D02*
X137384822Y-45915819D01*
X137670536Y-45915819D02*
X138337202Y-45915819D01*
X138337202Y-45915819D02*
X137908631Y-46915819D01*
X46946726Y-84968200D02*
X47089583Y-85015819D01*
X47089583Y-85015819D02*
X47327678Y-85015819D01*
X47327678Y-85015819D02*
X47422916Y-84968200D01*
X47422916Y-84968200D02*
X47470535Y-84920580D01*
X47470535Y-84920580D02*
X47518154Y-84825342D01*
X47518154Y-84825342D02*
X47518154Y-84730104D01*
X47518154Y-84730104D02*
X47470535Y-84634866D01*
X47470535Y-84634866D02*
X47422916Y-84587247D01*
X47422916Y-84587247D02*
X47327678Y-84539628D01*
X47327678Y-84539628D02*
X47137202Y-84492009D01*
X47137202Y-84492009D02*
X47041964Y-84444390D01*
X47041964Y-84444390D02*
X46994345Y-84396771D01*
X46994345Y-84396771D02*
X46946726Y-84301533D01*
X46946726Y-84301533D02*
X46946726Y-84206295D01*
X46946726Y-84206295D02*
X46994345Y-84111057D01*
X46994345Y-84111057D02*
X47041964Y-84063438D01*
X47041964Y-84063438D02*
X47137202Y-84015819D01*
X47137202Y-84015819D02*
X47375297Y-84015819D01*
X47375297Y-84015819D02*
X47518154Y-84063438D01*
X47851488Y-84015819D02*
X48089583Y-85015819D01*
X48089583Y-85015819D02*
X48280059Y-84301533D01*
X48280059Y-84301533D02*
X48470535Y-85015819D01*
X48470535Y-85015819D02*
X48708631Y-84015819D01*
X48994345Y-84015819D02*
X49613392Y-84015819D01*
X49613392Y-84015819D02*
X49280059Y-84396771D01*
X49280059Y-84396771D02*
X49422916Y-84396771D01*
X49422916Y-84396771D02*
X49518154Y-84444390D01*
X49518154Y-84444390D02*
X49565773Y-84492009D01*
X49565773Y-84492009D02*
X49613392Y-84587247D01*
X49613392Y-84587247D02*
X49613392Y-84825342D01*
X49613392Y-84825342D02*
X49565773Y-84920580D01*
X49565773Y-84920580D02*
X49518154Y-84968200D01*
X49518154Y-84968200D02*
X49422916Y-85015819D01*
X49422916Y-85015819D02*
X49137202Y-85015819D01*
X49137202Y-85015819D02*
X49041964Y-84968200D01*
X49041964Y-84968200D02*
X48994345Y-84920580D01*
X50232440Y-84015819D02*
X50327678Y-84015819D01*
X50327678Y-84015819D02*
X50422916Y-84063438D01*
X50422916Y-84063438D02*
X50470535Y-84111057D01*
X50470535Y-84111057D02*
X50518154Y-84206295D01*
X50518154Y-84206295D02*
X50565773Y-84396771D01*
X50565773Y-84396771D02*
X50565773Y-84634866D01*
X50565773Y-84634866D02*
X50518154Y-84825342D01*
X50518154Y-84825342D02*
X50470535Y-84920580D01*
X50470535Y-84920580D02*
X50422916Y-84968200D01*
X50422916Y-84968200D02*
X50327678Y-85015819D01*
X50327678Y-85015819D02*
X50232440Y-85015819D01*
X50232440Y-85015819D02*
X50137202Y-84968200D01*
X50137202Y-84968200D02*
X50089583Y-84920580D01*
X50089583Y-84920580D02*
X50041964Y-84825342D01*
X50041964Y-84825342D02*
X49994345Y-84634866D01*
X49994345Y-84634866D02*
X49994345Y-84396771D01*
X49994345Y-84396771D02*
X50041964Y-84206295D01*
X50041964Y-84206295D02*
X50089583Y-84111057D01*
X50089583Y-84111057D02*
X50137202Y-84063438D01*
X50137202Y-84063438D02*
X50232440Y-84015819D01*
X206584226Y-84968200D02*
X206727083Y-85015819D01*
X206727083Y-85015819D02*
X206965178Y-85015819D01*
X206965178Y-85015819D02*
X207060416Y-84968200D01*
X207060416Y-84968200D02*
X207108035Y-84920580D01*
X207108035Y-84920580D02*
X207155654Y-84825342D01*
X207155654Y-84825342D02*
X207155654Y-84730104D01*
X207155654Y-84730104D02*
X207108035Y-84634866D01*
X207108035Y-84634866D02*
X207060416Y-84587247D01*
X207060416Y-84587247D02*
X206965178Y-84539628D01*
X206965178Y-84539628D02*
X206774702Y-84492009D01*
X206774702Y-84492009D02*
X206679464Y-84444390D01*
X206679464Y-84444390D02*
X206631845Y-84396771D01*
X206631845Y-84396771D02*
X206584226Y-84301533D01*
X206584226Y-84301533D02*
X206584226Y-84206295D01*
X206584226Y-84206295D02*
X206631845Y-84111057D01*
X206631845Y-84111057D02*
X206679464Y-84063438D01*
X206679464Y-84063438D02*
X206774702Y-84015819D01*
X206774702Y-84015819D02*
X207012797Y-84015819D01*
X207012797Y-84015819D02*
X207155654Y-84063438D01*
X207488988Y-84015819D02*
X207727083Y-85015819D01*
X207727083Y-85015819D02*
X207917559Y-84301533D01*
X207917559Y-84301533D02*
X208108035Y-85015819D01*
X208108035Y-85015819D02*
X208346131Y-84015819D01*
X208631845Y-84015819D02*
X209250892Y-84015819D01*
X209250892Y-84015819D02*
X208917559Y-84396771D01*
X208917559Y-84396771D02*
X209060416Y-84396771D01*
X209060416Y-84396771D02*
X209155654Y-84444390D01*
X209155654Y-84444390D02*
X209203273Y-84492009D01*
X209203273Y-84492009D02*
X209250892Y-84587247D01*
X209250892Y-84587247D02*
X209250892Y-84825342D01*
X209250892Y-84825342D02*
X209203273Y-84920580D01*
X209203273Y-84920580D02*
X209155654Y-84968200D01*
X209155654Y-84968200D02*
X209060416Y-85015819D01*
X209060416Y-85015819D02*
X208774702Y-85015819D01*
X208774702Y-85015819D02*
X208679464Y-84968200D01*
X208679464Y-84968200D02*
X208631845Y-84920580D01*
X209822321Y-84444390D02*
X209727083Y-84396771D01*
X209727083Y-84396771D02*
X209679464Y-84349152D01*
X209679464Y-84349152D02*
X209631845Y-84253914D01*
X209631845Y-84253914D02*
X209631845Y-84206295D01*
X209631845Y-84206295D02*
X209679464Y-84111057D01*
X209679464Y-84111057D02*
X209727083Y-84063438D01*
X209727083Y-84063438D02*
X209822321Y-84015819D01*
X209822321Y-84015819D02*
X210012797Y-84015819D01*
X210012797Y-84015819D02*
X210108035Y-84063438D01*
X210108035Y-84063438D02*
X210155654Y-84111057D01*
X210155654Y-84111057D02*
X210203273Y-84206295D01*
X210203273Y-84206295D02*
X210203273Y-84253914D01*
X210203273Y-84253914D02*
X210155654Y-84349152D01*
X210155654Y-84349152D02*
X210108035Y-84396771D01*
X210108035Y-84396771D02*
X210012797Y-84444390D01*
X210012797Y-84444390D02*
X209822321Y-84444390D01*
X209822321Y-84444390D02*
X209727083Y-84492009D01*
X209727083Y-84492009D02*
X209679464Y-84539628D01*
X209679464Y-84539628D02*
X209631845Y-84634866D01*
X209631845Y-84634866D02*
X209631845Y-84825342D01*
X209631845Y-84825342D02*
X209679464Y-84920580D01*
X209679464Y-84920580D02*
X209727083Y-84968200D01*
X209727083Y-84968200D02*
X209822321Y-85015819D01*
X209822321Y-85015819D02*
X210012797Y-85015819D01*
X210012797Y-85015819D02*
X210108035Y-84968200D01*
X210108035Y-84968200D02*
X210155654Y-84920580D01*
X210155654Y-84920580D02*
X210203273Y-84825342D01*
X210203273Y-84825342D02*
X210203273Y-84634866D01*
X210203273Y-84634866D02*
X210155654Y-84539628D01*
X210155654Y-84539628D02*
X210108035Y-84492009D01*
X210108035Y-84492009D02*
X210012797Y-84444390D01*
X92284226Y-84968200D02*
X92427083Y-85015819D01*
X92427083Y-85015819D02*
X92665178Y-85015819D01*
X92665178Y-85015819D02*
X92760416Y-84968200D01*
X92760416Y-84968200D02*
X92808035Y-84920580D01*
X92808035Y-84920580D02*
X92855654Y-84825342D01*
X92855654Y-84825342D02*
X92855654Y-84730104D01*
X92855654Y-84730104D02*
X92808035Y-84634866D01*
X92808035Y-84634866D02*
X92760416Y-84587247D01*
X92760416Y-84587247D02*
X92665178Y-84539628D01*
X92665178Y-84539628D02*
X92474702Y-84492009D01*
X92474702Y-84492009D02*
X92379464Y-84444390D01*
X92379464Y-84444390D02*
X92331845Y-84396771D01*
X92331845Y-84396771D02*
X92284226Y-84301533D01*
X92284226Y-84301533D02*
X92284226Y-84206295D01*
X92284226Y-84206295D02*
X92331845Y-84111057D01*
X92331845Y-84111057D02*
X92379464Y-84063438D01*
X92379464Y-84063438D02*
X92474702Y-84015819D01*
X92474702Y-84015819D02*
X92712797Y-84015819D01*
X92712797Y-84015819D02*
X92855654Y-84063438D01*
X93188988Y-84015819D02*
X93427083Y-85015819D01*
X93427083Y-85015819D02*
X93617559Y-84301533D01*
X93617559Y-84301533D02*
X93808035Y-85015819D01*
X93808035Y-85015819D02*
X94046131Y-84015819D01*
X94331845Y-84015819D02*
X94950892Y-84015819D01*
X94950892Y-84015819D02*
X94617559Y-84396771D01*
X94617559Y-84396771D02*
X94760416Y-84396771D01*
X94760416Y-84396771D02*
X94855654Y-84444390D01*
X94855654Y-84444390D02*
X94903273Y-84492009D01*
X94903273Y-84492009D02*
X94950892Y-84587247D01*
X94950892Y-84587247D02*
X94950892Y-84825342D01*
X94950892Y-84825342D02*
X94903273Y-84920580D01*
X94903273Y-84920580D02*
X94855654Y-84968200D01*
X94855654Y-84968200D02*
X94760416Y-85015819D01*
X94760416Y-85015819D02*
X94474702Y-85015819D01*
X94474702Y-85015819D02*
X94379464Y-84968200D01*
X94379464Y-84968200D02*
X94331845Y-84920580D01*
X95331845Y-84111057D02*
X95379464Y-84063438D01*
X95379464Y-84063438D02*
X95474702Y-84015819D01*
X95474702Y-84015819D02*
X95712797Y-84015819D01*
X95712797Y-84015819D02*
X95808035Y-84063438D01*
X95808035Y-84063438D02*
X95855654Y-84111057D01*
X95855654Y-84111057D02*
X95903273Y-84206295D01*
X95903273Y-84206295D02*
X95903273Y-84301533D01*
X95903273Y-84301533D02*
X95855654Y-84444390D01*
X95855654Y-84444390D02*
X95284226Y-85015819D01*
X95284226Y-85015819D02*
X95903273Y-85015819D01*
X130384226Y-84968200D02*
X130527083Y-85015819D01*
X130527083Y-85015819D02*
X130765178Y-85015819D01*
X130765178Y-85015819D02*
X130860416Y-84968200D01*
X130860416Y-84968200D02*
X130908035Y-84920580D01*
X130908035Y-84920580D02*
X130955654Y-84825342D01*
X130955654Y-84825342D02*
X130955654Y-84730104D01*
X130955654Y-84730104D02*
X130908035Y-84634866D01*
X130908035Y-84634866D02*
X130860416Y-84587247D01*
X130860416Y-84587247D02*
X130765178Y-84539628D01*
X130765178Y-84539628D02*
X130574702Y-84492009D01*
X130574702Y-84492009D02*
X130479464Y-84444390D01*
X130479464Y-84444390D02*
X130431845Y-84396771D01*
X130431845Y-84396771D02*
X130384226Y-84301533D01*
X130384226Y-84301533D02*
X130384226Y-84206295D01*
X130384226Y-84206295D02*
X130431845Y-84111057D01*
X130431845Y-84111057D02*
X130479464Y-84063438D01*
X130479464Y-84063438D02*
X130574702Y-84015819D01*
X130574702Y-84015819D02*
X130812797Y-84015819D01*
X130812797Y-84015819D02*
X130955654Y-84063438D01*
X131288988Y-84015819D02*
X131527083Y-85015819D01*
X131527083Y-85015819D02*
X131717559Y-84301533D01*
X131717559Y-84301533D02*
X131908035Y-85015819D01*
X131908035Y-85015819D02*
X132146131Y-84015819D01*
X132431845Y-84015819D02*
X133050892Y-84015819D01*
X133050892Y-84015819D02*
X132717559Y-84396771D01*
X132717559Y-84396771D02*
X132860416Y-84396771D01*
X132860416Y-84396771D02*
X132955654Y-84444390D01*
X132955654Y-84444390D02*
X133003273Y-84492009D01*
X133003273Y-84492009D02*
X133050892Y-84587247D01*
X133050892Y-84587247D02*
X133050892Y-84825342D01*
X133050892Y-84825342D02*
X133003273Y-84920580D01*
X133003273Y-84920580D02*
X132955654Y-84968200D01*
X132955654Y-84968200D02*
X132860416Y-85015819D01*
X132860416Y-85015819D02*
X132574702Y-85015819D01*
X132574702Y-85015819D02*
X132479464Y-84968200D01*
X132479464Y-84968200D02*
X132431845Y-84920580D01*
X133908035Y-84349152D02*
X133908035Y-85015819D01*
X133669940Y-83968200D02*
X133431845Y-84682485D01*
X133431845Y-84682485D02*
X134050892Y-84682485D01*
X82746726Y-104018200D02*
X82889583Y-104065819D01*
X82889583Y-104065819D02*
X83127678Y-104065819D01*
X83127678Y-104065819D02*
X83222916Y-104018200D01*
X83222916Y-104018200D02*
X83270535Y-103970580D01*
X83270535Y-103970580D02*
X83318154Y-103875342D01*
X83318154Y-103875342D02*
X83318154Y-103780104D01*
X83318154Y-103780104D02*
X83270535Y-103684866D01*
X83270535Y-103684866D02*
X83222916Y-103637247D01*
X83222916Y-103637247D02*
X83127678Y-103589628D01*
X83127678Y-103589628D02*
X82937202Y-103542009D01*
X82937202Y-103542009D02*
X82841964Y-103494390D01*
X82841964Y-103494390D02*
X82794345Y-103446771D01*
X82794345Y-103446771D02*
X82746726Y-103351533D01*
X82746726Y-103351533D02*
X82746726Y-103256295D01*
X82746726Y-103256295D02*
X82794345Y-103161057D01*
X82794345Y-103161057D02*
X82841964Y-103113438D01*
X82841964Y-103113438D02*
X82937202Y-103065819D01*
X82937202Y-103065819D02*
X83175297Y-103065819D01*
X83175297Y-103065819D02*
X83318154Y-103113438D01*
X83651488Y-103065819D02*
X83889583Y-104065819D01*
X83889583Y-104065819D02*
X84080059Y-103351533D01*
X84080059Y-103351533D02*
X84270535Y-104065819D01*
X84270535Y-104065819D02*
X84508631Y-103065819D01*
X85318154Y-103399152D02*
X85318154Y-104065819D01*
X85080059Y-103018200D02*
X84841964Y-103732485D01*
X84841964Y-103732485D02*
X85461011Y-103732485D01*
X86270535Y-103399152D02*
X86270535Y-104065819D01*
X86032440Y-103018200D02*
X85794345Y-103732485D01*
X85794345Y-103732485D02*
X86413392Y-103732485D01*
X139896726Y-104018200D02*
X140039583Y-104065819D01*
X140039583Y-104065819D02*
X140277678Y-104065819D01*
X140277678Y-104065819D02*
X140372916Y-104018200D01*
X140372916Y-104018200D02*
X140420535Y-103970580D01*
X140420535Y-103970580D02*
X140468154Y-103875342D01*
X140468154Y-103875342D02*
X140468154Y-103780104D01*
X140468154Y-103780104D02*
X140420535Y-103684866D01*
X140420535Y-103684866D02*
X140372916Y-103637247D01*
X140372916Y-103637247D02*
X140277678Y-103589628D01*
X140277678Y-103589628D02*
X140087202Y-103542009D01*
X140087202Y-103542009D02*
X139991964Y-103494390D01*
X139991964Y-103494390D02*
X139944345Y-103446771D01*
X139944345Y-103446771D02*
X139896726Y-103351533D01*
X139896726Y-103351533D02*
X139896726Y-103256295D01*
X139896726Y-103256295D02*
X139944345Y-103161057D01*
X139944345Y-103161057D02*
X139991964Y-103113438D01*
X139991964Y-103113438D02*
X140087202Y-103065819D01*
X140087202Y-103065819D02*
X140325297Y-103065819D01*
X140325297Y-103065819D02*
X140468154Y-103113438D01*
X140801488Y-103065819D02*
X141039583Y-104065819D01*
X141039583Y-104065819D02*
X141230059Y-103351533D01*
X141230059Y-103351533D02*
X141420535Y-104065819D01*
X141420535Y-104065819D02*
X141658631Y-103065819D01*
X142468154Y-103399152D02*
X142468154Y-104065819D01*
X142230059Y-103018200D02*
X141991964Y-103732485D01*
X141991964Y-103732485D02*
X142611011Y-103732485D01*
X142896726Y-103065819D02*
X143563392Y-103065819D01*
X143563392Y-103065819D02*
X143134821Y-104065819D01*
X277989226Y-65918200D02*
X278132083Y-65965819D01*
X278132083Y-65965819D02*
X278370178Y-65965819D01*
X278370178Y-65965819D02*
X278465416Y-65918200D01*
X278465416Y-65918200D02*
X278513035Y-65870580D01*
X278513035Y-65870580D02*
X278560654Y-65775342D01*
X278560654Y-65775342D02*
X278560654Y-65680104D01*
X278560654Y-65680104D02*
X278513035Y-65584866D01*
X278513035Y-65584866D02*
X278465416Y-65537247D01*
X278465416Y-65537247D02*
X278370178Y-65489628D01*
X278370178Y-65489628D02*
X278179702Y-65442009D01*
X278179702Y-65442009D02*
X278084464Y-65394390D01*
X278084464Y-65394390D02*
X278036845Y-65346771D01*
X278036845Y-65346771D02*
X277989226Y-65251533D01*
X277989226Y-65251533D02*
X277989226Y-65156295D01*
X277989226Y-65156295D02*
X278036845Y-65061057D01*
X278036845Y-65061057D02*
X278084464Y-65013438D01*
X278084464Y-65013438D02*
X278179702Y-64965819D01*
X278179702Y-64965819D02*
X278417797Y-64965819D01*
X278417797Y-64965819D02*
X278560654Y-65013438D01*
X278893988Y-64965819D02*
X279132083Y-65965819D01*
X279132083Y-65965819D02*
X279322559Y-65251533D01*
X279322559Y-65251533D02*
X279513035Y-65965819D01*
X279513035Y-65965819D02*
X279751131Y-64965819D01*
X280084464Y-65061057D02*
X280132083Y-65013438D01*
X280132083Y-65013438D02*
X280227321Y-64965819D01*
X280227321Y-64965819D02*
X280465416Y-64965819D01*
X280465416Y-64965819D02*
X280560654Y-65013438D01*
X280560654Y-65013438D02*
X280608273Y-65061057D01*
X280608273Y-65061057D02*
X280655892Y-65156295D01*
X280655892Y-65156295D02*
X280655892Y-65251533D01*
X280655892Y-65251533D02*
X280608273Y-65394390D01*
X280608273Y-65394390D02*
X280036845Y-65965819D01*
X280036845Y-65965819D02*
X280655892Y-65965819D01*
X281227321Y-65394390D02*
X281132083Y-65346771D01*
X281132083Y-65346771D02*
X281084464Y-65299152D01*
X281084464Y-65299152D02*
X281036845Y-65203914D01*
X281036845Y-65203914D02*
X281036845Y-65156295D01*
X281036845Y-65156295D02*
X281084464Y-65061057D01*
X281084464Y-65061057D02*
X281132083Y-65013438D01*
X281132083Y-65013438D02*
X281227321Y-64965819D01*
X281227321Y-64965819D02*
X281417797Y-64965819D01*
X281417797Y-64965819D02*
X281513035Y-65013438D01*
X281513035Y-65013438D02*
X281560654Y-65061057D01*
X281560654Y-65061057D02*
X281608273Y-65156295D01*
X281608273Y-65156295D02*
X281608273Y-65203914D01*
X281608273Y-65203914D02*
X281560654Y-65299152D01*
X281560654Y-65299152D02*
X281513035Y-65346771D01*
X281513035Y-65346771D02*
X281417797Y-65394390D01*
X281417797Y-65394390D02*
X281227321Y-65394390D01*
X281227321Y-65394390D02*
X281132083Y-65442009D01*
X281132083Y-65442009D02*
X281084464Y-65489628D01*
X281084464Y-65489628D02*
X281036845Y-65584866D01*
X281036845Y-65584866D02*
X281036845Y-65775342D01*
X281036845Y-65775342D02*
X281084464Y-65870580D01*
X281084464Y-65870580D02*
X281132083Y-65918200D01*
X281132083Y-65918200D02*
X281227321Y-65965819D01*
X281227321Y-65965819D02*
X281417797Y-65965819D01*
X281417797Y-65965819D02*
X281513035Y-65918200D01*
X281513035Y-65918200D02*
X281560654Y-65870580D01*
X281560654Y-65870580D02*
X281608273Y-65775342D01*
X281608273Y-65775342D02*
X281608273Y-65584866D01*
X281608273Y-65584866D02*
X281560654Y-65489628D01*
X281560654Y-65489628D02*
X281513035Y-65442009D01*
X281513035Y-65442009D02*
X281417797Y-65394390D01*
X97522917Y-46868200D02*
X97665774Y-46915819D01*
X97665774Y-46915819D02*
X97903869Y-46915819D01*
X97903869Y-46915819D02*
X97999107Y-46868200D01*
X97999107Y-46868200D02*
X98046726Y-46820580D01*
X98046726Y-46820580D02*
X98094345Y-46725342D01*
X98094345Y-46725342D02*
X98094345Y-46630104D01*
X98094345Y-46630104D02*
X98046726Y-46534866D01*
X98046726Y-46534866D02*
X97999107Y-46487247D01*
X97999107Y-46487247D02*
X97903869Y-46439628D01*
X97903869Y-46439628D02*
X97713393Y-46392009D01*
X97713393Y-46392009D02*
X97618155Y-46344390D01*
X97618155Y-46344390D02*
X97570536Y-46296771D01*
X97570536Y-46296771D02*
X97522917Y-46201533D01*
X97522917Y-46201533D02*
X97522917Y-46106295D01*
X97522917Y-46106295D02*
X97570536Y-46011057D01*
X97570536Y-46011057D02*
X97618155Y-45963438D01*
X97618155Y-45963438D02*
X97713393Y-45915819D01*
X97713393Y-45915819D02*
X97951488Y-45915819D01*
X97951488Y-45915819D02*
X98094345Y-45963438D01*
X98427679Y-45915819D02*
X98665774Y-46915819D01*
X98665774Y-46915819D02*
X98856250Y-46201533D01*
X98856250Y-46201533D02*
X99046726Y-46915819D01*
X99046726Y-46915819D02*
X99284822Y-45915819D01*
X100141964Y-45915819D02*
X99665774Y-45915819D01*
X99665774Y-45915819D02*
X99618155Y-46392009D01*
X99618155Y-46392009D02*
X99665774Y-46344390D01*
X99665774Y-46344390D02*
X99761012Y-46296771D01*
X99761012Y-46296771D02*
X99999107Y-46296771D01*
X99999107Y-46296771D02*
X100094345Y-46344390D01*
X100094345Y-46344390D02*
X100141964Y-46392009D01*
X100141964Y-46392009D02*
X100189583Y-46487247D01*
X100189583Y-46487247D02*
X100189583Y-46725342D01*
X100189583Y-46725342D02*
X100141964Y-46820580D01*
X100141964Y-46820580D02*
X100094345Y-46868200D01*
X100094345Y-46868200D02*
X99999107Y-46915819D01*
X99999107Y-46915819D02*
X99761012Y-46915819D01*
X99761012Y-46915819D02*
X99665774Y-46868200D01*
X99665774Y-46868200D02*
X99618155Y-46820580D01*
X78472917Y-46868200D02*
X78615774Y-46915819D01*
X78615774Y-46915819D02*
X78853869Y-46915819D01*
X78853869Y-46915819D02*
X78949107Y-46868200D01*
X78949107Y-46868200D02*
X78996726Y-46820580D01*
X78996726Y-46820580D02*
X79044345Y-46725342D01*
X79044345Y-46725342D02*
X79044345Y-46630104D01*
X79044345Y-46630104D02*
X78996726Y-46534866D01*
X78996726Y-46534866D02*
X78949107Y-46487247D01*
X78949107Y-46487247D02*
X78853869Y-46439628D01*
X78853869Y-46439628D02*
X78663393Y-46392009D01*
X78663393Y-46392009D02*
X78568155Y-46344390D01*
X78568155Y-46344390D02*
X78520536Y-46296771D01*
X78520536Y-46296771D02*
X78472917Y-46201533D01*
X78472917Y-46201533D02*
X78472917Y-46106295D01*
X78472917Y-46106295D02*
X78520536Y-46011057D01*
X78520536Y-46011057D02*
X78568155Y-45963438D01*
X78568155Y-45963438D02*
X78663393Y-45915819D01*
X78663393Y-45915819D02*
X78901488Y-45915819D01*
X78901488Y-45915819D02*
X79044345Y-45963438D01*
X79377679Y-45915819D02*
X79615774Y-46915819D01*
X79615774Y-46915819D02*
X79806250Y-46201533D01*
X79806250Y-46201533D02*
X79996726Y-46915819D01*
X79996726Y-46915819D02*
X80234822Y-45915819D01*
X81044345Y-46249152D02*
X81044345Y-46915819D01*
X80806250Y-45868200D02*
X80568155Y-46582485D01*
X80568155Y-46582485D02*
X81187202Y-46582485D01*
X89701726Y-123148200D02*
X89844583Y-123195819D01*
X89844583Y-123195819D02*
X90082678Y-123195819D01*
X90082678Y-123195819D02*
X90177916Y-123148200D01*
X90177916Y-123148200D02*
X90225535Y-123100580D01*
X90225535Y-123100580D02*
X90273154Y-123005342D01*
X90273154Y-123005342D02*
X90273154Y-122910104D01*
X90273154Y-122910104D02*
X90225535Y-122814866D01*
X90225535Y-122814866D02*
X90177916Y-122767247D01*
X90177916Y-122767247D02*
X90082678Y-122719628D01*
X90082678Y-122719628D02*
X89892202Y-122672009D01*
X89892202Y-122672009D02*
X89796964Y-122624390D01*
X89796964Y-122624390D02*
X89749345Y-122576771D01*
X89749345Y-122576771D02*
X89701726Y-122481533D01*
X89701726Y-122481533D02*
X89701726Y-122386295D01*
X89701726Y-122386295D02*
X89749345Y-122291057D01*
X89749345Y-122291057D02*
X89796964Y-122243438D01*
X89796964Y-122243438D02*
X89892202Y-122195819D01*
X89892202Y-122195819D02*
X90130297Y-122195819D01*
X90130297Y-122195819D02*
X90273154Y-122243438D01*
X90606488Y-122195819D02*
X90844583Y-123195819D01*
X90844583Y-123195819D02*
X91035059Y-122481533D01*
X91035059Y-122481533D02*
X91225535Y-123195819D01*
X91225535Y-123195819D02*
X91463631Y-122195819D01*
X92320773Y-122195819D02*
X91844583Y-122195819D01*
X91844583Y-122195819D02*
X91796964Y-122672009D01*
X91796964Y-122672009D02*
X91844583Y-122624390D01*
X91844583Y-122624390D02*
X91939821Y-122576771D01*
X91939821Y-122576771D02*
X92177916Y-122576771D01*
X92177916Y-122576771D02*
X92273154Y-122624390D01*
X92273154Y-122624390D02*
X92320773Y-122672009D01*
X92320773Y-122672009D02*
X92368392Y-122767247D01*
X92368392Y-122767247D02*
X92368392Y-123005342D01*
X92368392Y-123005342D02*
X92320773Y-123100580D01*
X92320773Y-123100580D02*
X92273154Y-123148200D01*
X92273154Y-123148200D02*
X92177916Y-123195819D01*
X92177916Y-123195819D02*
X91939821Y-123195819D01*
X91939821Y-123195819D02*
X91844583Y-123148200D01*
X91844583Y-123148200D02*
X91796964Y-123100580D01*
X92701726Y-122195819D02*
X93368392Y-122195819D01*
X93368392Y-122195819D02*
X92939821Y-123195819D01*
X239889226Y-65918200D02*
X240032083Y-65965819D01*
X240032083Y-65965819D02*
X240270178Y-65965819D01*
X240270178Y-65965819D02*
X240365416Y-65918200D01*
X240365416Y-65918200D02*
X240413035Y-65870580D01*
X240413035Y-65870580D02*
X240460654Y-65775342D01*
X240460654Y-65775342D02*
X240460654Y-65680104D01*
X240460654Y-65680104D02*
X240413035Y-65584866D01*
X240413035Y-65584866D02*
X240365416Y-65537247D01*
X240365416Y-65537247D02*
X240270178Y-65489628D01*
X240270178Y-65489628D02*
X240079702Y-65442009D01*
X240079702Y-65442009D02*
X239984464Y-65394390D01*
X239984464Y-65394390D02*
X239936845Y-65346771D01*
X239936845Y-65346771D02*
X239889226Y-65251533D01*
X239889226Y-65251533D02*
X239889226Y-65156295D01*
X239889226Y-65156295D02*
X239936845Y-65061057D01*
X239936845Y-65061057D02*
X239984464Y-65013438D01*
X239984464Y-65013438D02*
X240079702Y-64965819D01*
X240079702Y-64965819D02*
X240317797Y-64965819D01*
X240317797Y-64965819D02*
X240460654Y-65013438D01*
X240793988Y-64965819D02*
X241032083Y-65965819D01*
X241032083Y-65965819D02*
X241222559Y-65251533D01*
X241222559Y-65251533D02*
X241413035Y-65965819D01*
X241413035Y-65965819D02*
X241651131Y-64965819D01*
X241984464Y-65061057D02*
X242032083Y-65013438D01*
X242032083Y-65013438D02*
X242127321Y-64965819D01*
X242127321Y-64965819D02*
X242365416Y-64965819D01*
X242365416Y-64965819D02*
X242460654Y-65013438D01*
X242460654Y-65013438D02*
X242508273Y-65061057D01*
X242508273Y-65061057D02*
X242555892Y-65156295D01*
X242555892Y-65156295D02*
X242555892Y-65251533D01*
X242555892Y-65251533D02*
X242508273Y-65394390D01*
X242508273Y-65394390D02*
X241936845Y-65965819D01*
X241936845Y-65965819D02*
X242555892Y-65965819D01*
X243413035Y-64965819D02*
X243222559Y-64965819D01*
X243222559Y-64965819D02*
X243127321Y-65013438D01*
X243127321Y-65013438D02*
X243079702Y-65061057D01*
X243079702Y-65061057D02*
X242984464Y-65203914D01*
X242984464Y-65203914D02*
X242936845Y-65394390D01*
X242936845Y-65394390D02*
X242936845Y-65775342D01*
X242936845Y-65775342D02*
X242984464Y-65870580D01*
X242984464Y-65870580D02*
X243032083Y-65918200D01*
X243032083Y-65918200D02*
X243127321Y-65965819D01*
X243127321Y-65965819D02*
X243317797Y-65965819D01*
X243317797Y-65965819D02*
X243413035Y-65918200D01*
X243413035Y-65918200D02*
X243460654Y-65870580D01*
X243460654Y-65870580D02*
X243508273Y-65775342D01*
X243508273Y-65775342D02*
X243508273Y-65537247D01*
X243508273Y-65537247D02*
X243460654Y-65442009D01*
X243460654Y-65442009D02*
X243413035Y-65394390D01*
X243413035Y-65394390D02*
X243317797Y-65346771D01*
X243317797Y-65346771D02*
X243127321Y-65346771D01*
X243127321Y-65346771D02*
X243032083Y-65394390D01*
X243032083Y-65394390D02*
X242984464Y-65442009D01*
X242984464Y-65442009D02*
X242936845Y-65537247D01*
X287296726Y-142248200D02*
X287439583Y-142295819D01*
X287439583Y-142295819D02*
X287677678Y-142295819D01*
X287677678Y-142295819D02*
X287772916Y-142248200D01*
X287772916Y-142248200D02*
X287820535Y-142200580D01*
X287820535Y-142200580D02*
X287868154Y-142105342D01*
X287868154Y-142105342D02*
X287868154Y-142010104D01*
X287868154Y-142010104D02*
X287820535Y-141914866D01*
X287820535Y-141914866D02*
X287772916Y-141867247D01*
X287772916Y-141867247D02*
X287677678Y-141819628D01*
X287677678Y-141819628D02*
X287487202Y-141772009D01*
X287487202Y-141772009D02*
X287391964Y-141724390D01*
X287391964Y-141724390D02*
X287344345Y-141676771D01*
X287344345Y-141676771D02*
X287296726Y-141581533D01*
X287296726Y-141581533D02*
X287296726Y-141486295D01*
X287296726Y-141486295D02*
X287344345Y-141391057D01*
X287344345Y-141391057D02*
X287391964Y-141343438D01*
X287391964Y-141343438D02*
X287487202Y-141295819D01*
X287487202Y-141295819D02*
X287725297Y-141295819D01*
X287725297Y-141295819D02*
X287868154Y-141343438D01*
X288201488Y-141295819D02*
X288439583Y-142295819D01*
X288439583Y-142295819D02*
X288630059Y-141581533D01*
X288630059Y-141581533D02*
X288820535Y-142295819D01*
X288820535Y-142295819D02*
X289058631Y-141295819D01*
X289868154Y-141295819D02*
X289677678Y-141295819D01*
X289677678Y-141295819D02*
X289582440Y-141343438D01*
X289582440Y-141343438D02*
X289534821Y-141391057D01*
X289534821Y-141391057D02*
X289439583Y-141533914D01*
X289439583Y-141533914D02*
X289391964Y-141724390D01*
X289391964Y-141724390D02*
X289391964Y-142105342D01*
X289391964Y-142105342D02*
X289439583Y-142200580D01*
X289439583Y-142200580D02*
X289487202Y-142248200D01*
X289487202Y-142248200D02*
X289582440Y-142295819D01*
X289582440Y-142295819D02*
X289772916Y-142295819D01*
X289772916Y-142295819D02*
X289868154Y-142248200D01*
X289868154Y-142248200D02*
X289915773Y-142200580D01*
X289915773Y-142200580D02*
X289963392Y-142105342D01*
X289963392Y-142105342D02*
X289963392Y-141867247D01*
X289963392Y-141867247D02*
X289915773Y-141772009D01*
X289915773Y-141772009D02*
X289868154Y-141724390D01*
X289868154Y-141724390D02*
X289772916Y-141676771D01*
X289772916Y-141676771D02*
X289582440Y-141676771D01*
X289582440Y-141676771D02*
X289487202Y-141724390D01*
X289487202Y-141724390D02*
X289439583Y-141772009D01*
X289439583Y-141772009D02*
X289391964Y-141867247D01*
X290296726Y-141295819D02*
X290915773Y-141295819D01*
X290915773Y-141295819D02*
X290582440Y-141676771D01*
X290582440Y-141676771D02*
X290725297Y-141676771D01*
X290725297Y-141676771D02*
X290820535Y-141724390D01*
X290820535Y-141724390D02*
X290868154Y-141772009D01*
X290868154Y-141772009D02*
X290915773Y-141867247D01*
X290915773Y-141867247D02*
X290915773Y-142105342D01*
X290915773Y-142105342D02*
X290868154Y-142200580D01*
X290868154Y-142200580D02*
X290820535Y-142248200D01*
X290820535Y-142248200D02*
X290725297Y-142295819D01*
X290725297Y-142295819D02*
X290439583Y-142295819D01*
X290439583Y-142295819D02*
X290344345Y-142248200D01*
X290344345Y-142248200D02*
X290296726Y-142200580D01*
X111334226Y-84968200D02*
X111477083Y-85015819D01*
X111477083Y-85015819D02*
X111715178Y-85015819D01*
X111715178Y-85015819D02*
X111810416Y-84968200D01*
X111810416Y-84968200D02*
X111858035Y-84920580D01*
X111858035Y-84920580D02*
X111905654Y-84825342D01*
X111905654Y-84825342D02*
X111905654Y-84730104D01*
X111905654Y-84730104D02*
X111858035Y-84634866D01*
X111858035Y-84634866D02*
X111810416Y-84587247D01*
X111810416Y-84587247D02*
X111715178Y-84539628D01*
X111715178Y-84539628D02*
X111524702Y-84492009D01*
X111524702Y-84492009D02*
X111429464Y-84444390D01*
X111429464Y-84444390D02*
X111381845Y-84396771D01*
X111381845Y-84396771D02*
X111334226Y-84301533D01*
X111334226Y-84301533D02*
X111334226Y-84206295D01*
X111334226Y-84206295D02*
X111381845Y-84111057D01*
X111381845Y-84111057D02*
X111429464Y-84063438D01*
X111429464Y-84063438D02*
X111524702Y-84015819D01*
X111524702Y-84015819D02*
X111762797Y-84015819D01*
X111762797Y-84015819D02*
X111905654Y-84063438D01*
X112238988Y-84015819D02*
X112477083Y-85015819D01*
X112477083Y-85015819D02*
X112667559Y-84301533D01*
X112667559Y-84301533D02*
X112858035Y-85015819D01*
X112858035Y-85015819D02*
X113096131Y-84015819D01*
X113381845Y-84015819D02*
X114000892Y-84015819D01*
X114000892Y-84015819D02*
X113667559Y-84396771D01*
X113667559Y-84396771D02*
X113810416Y-84396771D01*
X113810416Y-84396771D02*
X113905654Y-84444390D01*
X113905654Y-84444390D02*
X113953273Y-84492009D01*
X113953273Y-84492009D02*
X114000892Y-84587247D01*
X114000892Y-84587247D02*
X114000892Y-84825342D01*
X114000892Y-84825342D02*
X113953273Y-84920580D01*
X113953273Y-84920580D02*
X113905654Y-84968200D01*
X113905654Y-84968200D02*
X113810416Y-85015819D01*
X113810416Y-85015819D02*
X113524702Y-85015819D01*
X113524702Y-85015819D02*
X113429464Y-84968200D01*
X113429464Y-84968200D02*
X113381845Y-84920580D01*
X114334226Y-84015819D02*
X114953273Y-84015819D01*
X114953273Y-84015819D02*
X114619940Y-84396771D01*
X114619940Y-84396771D02*
X114762797Y-84396771D01*
X114762797Y-84396771D02*
X114858035Y-84444390D01*
X114858035Y-84444390D02*
X114905654Y-84492009D01*
X114905654Y-84492009D02*
X114953273Y-84587247D01*
X114953273Y-84587247D02*
X114953273Y-84825342D01*
X114953273Y-84825342D02*
X114905654Y-84920580D01*
X114905654Y-84920580D02*
X114858035Y-84968200D01*
X114858035Y-84968200D02*
X114762797Y-85015819D01*
X114762797Y-85015819D02*
X114477083Y-85015819D01*
X114477083Y-85015819D02*
X114381845Y-84968200D01*
X114381845Y-84968200D02*
X114334226Y-84920580D01*
X230396726Y-46868200D02*
X230539583Y-46915819D01*
X230539583Y-46915819D02*
X230777678Y-46915819D01*
X230777678Y-46915819D02*
X230872916Y-46868200D01*
X230872916Y-46868200D02*
X230920535Y-46820580D01*
X230920535Y-46820580D02*
X230968154Y-46725342D01*
X230968154Y-46725342D02*
X230968154Y-46630104D01*
X230968154Y-46630104D02*
X230920535Y-46534866D01*
X230920535Y-46534866D02*
X230872916Y-46487247D01*
X230872916Y-46487247D02*
X230777678Y-46439628D01*
X230777678Y-46439628D02*
X230587202Y-46392009D01*
X230587202Y-46392009D02*
X230491964Y-46344390D01*
X230491964Y-46344390D02*
X230444345Y-46296771D01*
X230444345Y-46296771D02*
X230396726Y-46201533D01*
X230396726Y-46201533D02*
X230396726Y-46106295D01*
X230396726Y-46106295D02*
X230444345Y-46011057D01*
X230444345Y-46011057D02*
X230491964Y-45963438D01*
X230491964Y-45963438D02*
X230587202Y-45915819D01*
X230587202Y-45915819D02*
X230825297Y-45915819D01*
X230825297Y-45915819D02*
X230968154Y-45963438D01*
X231301488Y-45915819D02*
X231539583Y-46915819D01*
X231539583Y-46915819D02*
X231730059Y-46201533D01*
X231730059Y-46201533D02*
X231920535Y-46915819D01*
X231920535Y-46915819D02*
X232158631Y-45915819D01*
X233063392Y-46915819D02*
X232491964Y-46915819D01*
X232777678Y-46915819D02*
X232777678Y-45915819D01*
X232777678Y-45915819D02*
X232682440Y-46058676D01*
X232682440Y-46058676D02*
X232587202Y-46153914D01*
X232587202Y-46153914D02*
X232491964Y-46201533D01*
X233444345Y-46011057D02*
X233491964Y-45963438D01*
X233491964Y-45963438D02*
X233587202Y-45915819D01*
X233587202Y-45915819D02*
X233825297Y-45915819D01*
X233825297Y-45915819D02*
X233920535Y-45963438D01*
X233920535Y-45963438D02*
X233968154Y-46011057D01*
X233968154Y-46011057D02*
X234015773Y-46106295D01*
X234015773Y-46106295D02*
X234015773Y-46201533D01*
X234015773Y-46201533D02*
X233968154Y-46344390D01*
X233968154Y-46344390D02*
X233396726Y-46915819D01*
X233396726Y-46915819D02*
X234015773Y-46915819D01*
X235146726Y-104018200D02*
X235289583Y-104065819D01*
X235289583Y-104065819D02*
X235527678Y-104065819D01*
X235527678Y-104065819D02*
X235622916Y-104018200D01*
X235622916Y-104018200D02*
X235670535Y-103970580D01*
X235670535Y-103970580D02*
X235718154Y-103875342D01*
X235718154Y-103875342D02*
X235718154Y-103780104D01*
X235718154Y-103780104D02*
X235670535Y-103684866D01*
X235670535Y-103684866D02*
X235622916Y-103637247D01*
X235622916Y-103637247D02*
X235527678Y-103589628D01*
X235527678Y-103589628D02*
X235337202Y-103542009D01*
X235337202Y-103542009D02*
X235241964Y-103494390D01*
X235241964Y-103494390D02*
X235194345Y-103446771D01*
X235194345Y-103446771D02*
X235146726Y-103351533D01*
X235146726Y-103351533D02*
X235146726Y-103256295D01*
X235146726Y-103256295D02*
X235194345Y-103161057D01*
X235194345Y-103161057D02*
X235241964Y-103113438D01*
X235241964Y-103113438D02*
X235337202Y-103065819D01*
X235337202Y-103065819D02*
X235575297Y-103065819D01*
X235575297Y-103065819D02*
X235718154Y-103113438D01*
X236051488Y-103065819D02*
X236289583Y-104065819D01*
X236289583Y-104065819D02*
X236480059Y-103351533D01*
X236480059Y-103351533D02*
X236670535Y-104065819D01*
X236670535Y-104065819D02*
X236908631Y-103065819D01*
X237765773Y-103065819D02*
X237289583Y-103065819D01*
X237289583Y-103065819D02*
X237241964Y-103542009D01*
X237241964Y-103542009D02*
X237289583Y-103494390D01*
X237289583Y-103494390D02*
X237384821Y-103446771D01*
X237384821Y-103446771D02*
X237622916Y-103446771D01*
X237622916Y-103446771D02*
X237718154Y-103494390D01*
X237718154Y-103494390D02*
X237765773Y-103542009D01*
X237765773Y-103542009D02*
X237813392Y-103637247D01*
X237813392Y-103637247D02*
X237813392Y-103875342D01*
X237813392Y-103875342D02*
X237765773Y-103970580D01*
X237765773Y-103970580D02*
X237718154Y-104018200D01*
X237718154Y-104018200D02*
X237622916Y-104065819D01*
X237622916Y-104065819D02*
X237384821Y-104065819D01*
X237384821Y-104065819D02*
X237289583Y-104018200D01*
X237289583Y-104018200D02*
X237241964Y-103970580D01*
X238194345Y-103161057D02*
X238241964Y-103113438D01*
X238241964Y-103113438D02*
X238337202Y-103065819D01*
X238337202Y-103065819D02*
X238575297Y-103065819D01*
X238575297Y-103065819D02*
X238670535Y-103113438D01*
X238670535Y-103113438D02*
X238718154Y-103161057D01*
X238718154Y-103161057D02*
X238765773Y-103256295D01*
X238765773Y-103256295D02*
X238765773Y-103351533D01*
X238765773Y-103351533D02*
X238718154Y-103494390D01*
X238718154Y-103494390D02*
X238146726Y-104065819D01*
X238146726Y-104065819D02*
X238765773Y-104065819D01*
X290016726Y-103980700D02*
X290159583Y-104028319D01*
X290159583Y-104028319D02*
X290397678Y-104028319D01*
X290397678Y-104028319D02*
X290492916Y-103980700D01*
X290492916Y-103980700D02*
X290540535Y-103933080D01*
X290540535Y-103933080D02*
X290588154Y-103837842D01*
X290588154Y-103837842D02*
X290588154Y-103742604D01*
X290588154Y-103742604D02*
X290540535Y-103647366D01*
X290540535Y-103647366D02*
X290492916Y-103599747D01*
X290492916Y-103599747D02*
X290397678Y-103552128D01*
X290397678Y-103552128D02*
X290207202Y-103504509D01*
X290207202Y-103504509D02*
X290111964Y-103456890D01*
X290111964Y-103456890D02*
X290064345Y-103409271D01*
X290064345Y-103409271D02*
X290016726Y-103314033D01*
X290016726Y-103314033D02*
X290016726Y-103218795D01*
X290016726Y-103218795D02*
X290064345Y-103123557D01*
X290064345Y-103123557D02*
X290111964Y-103075938D01*
X290111964Y-103075938D02*
X290207202Y-103028319D01*
X290207202Y-103028319D02*
X290445297Y-103028319D01*
X290445297Y-103028319D02*
X290588154Y-103075938D01*
X290921488Y-103028319D02*
X291159583Y-104028319D01*
X291159583Y-104028319D02*
X291350059Y-103314033D01*
X291350059Y-103314033D02*
X291540535Y-104028319D01*
X291540535Y-104028319D02*
X291778631Y-103028319D01*
X292635773Y-103028319D02*
X292159583Y-103028319D01*
X292159583Y-103028319D02*
X292111964Y-103504509D01*
X292111964Y-103504509D02*
X292159583Y-103456890D01*
X292159583Y-103456890D02*
X292254821Y-103409271D01*
X292254821Y-103409271D02*
X292492916Y-103409271D01*
X292492916Y-103409271D02*
X292588154Y-103456890D01*
X292588154Y-103456890D02*
X292635773Y-103504509D01*
X292635773Y-103504509D02*
X292683392Y-103599747D01*
X292683392Y-103599747D02*
X292683392Y-103837842D01*
X292683392Y-103837842D02*
X292635773Y-103933080D01*
X292635773Y-103933080D02*
X292588154Y-103980700D01*
X292588154Y-103980700D02*
X292492916Y-104028319D01*
X292492916Y-104028319D02*
X292254821Y-104028319D01*
X292254821Y-104028319D02*
X292159583Y-103980700D01*
X292159583Y-103980700D02*
X292111964Y-103933080D01*
X293540535Y-103361652D02*
X293540535Y-104028319D01*
X293302440Y-102980700D02*
X293064345Y-103694985D01*
X293064345Y-103694985D02*
X293683392Y-103694985D01*
X163689226Y-65918200D02*
X163832083Y-65965819D01*
X163832083Y-65965819D02*
X164070178Y-65965819D01*
X164070178Y-65965819D02*
X164165416Y-65918200D01*
X164165416Y-65918200D02*
X164213035Y-65870580D01*
X164213035Y-65870580D02*
X164260654Y-65775342D01*
X164260654Y-65775342D02*
X164260654Y-65680104D01*
X164260654Y-65680104D02*
X164213035Y-65584866D01*
X164213035Y-65584866D02*
X164165416Y-65537247D01*
X164165416Y-65537247D02*
X164070178Y-65489628D01*
X164070178Y-65489628D02*
X163879702Y-65442009D01*
X163879702Y-65442009D02*
X163784464Y-65394390D01*
X163784464Y-65394390D02*
X163736845Y-65346771D01*
X163736845Y-65346771D02*
X163689226Y-65251533D01*
X163689226Y-65251533D02*
X163689226Y-65156295D01*
X163689226Y-65156295D02*
X163736845Y-65061057D01*
X163736845Y-65061057D02*
X163784464Y-65013438D01*
X163784464Y-65013438D02*
X163879702Y-64965819D01*
X163879702Y-64965819D02*
X164117797Y-64965819D01*
X164117797Y-64965819D02*
X164260654Y-65013438D01*
X164593988Y-64965819D02*
X164832083Y-65965819D01*
X164832083Y-65965819D02*
X165022559Y-65251533D01*
X165022559Y-65251533D02*
X165213035Y-65965819D01*
X165213035Y-65965819D02*
X165451131Y-64965819D01*
X165784464Y-65061057D02*
X165832083Y-65013438D01*
X165832083Y-65013438D02*
X165927321Y-64965819D01*
X165927321Y-64965819D02*
X166165416Y-64965819D01*
X166165416Y-64965819D02*
X166260654Y-65013438D01*
X166260654Y-65013438D02*
X166308273Y-65061057D01*
X166308273Y-65061057D02*
X166355892Y-65156295D01*
X166355892Y-65156295D02*
X166355892Y-65251533D01*
X166355892Y-65251533D02*
X166308273Y-65394390D01*
X166308273Y-65394390D02*
X165736845Y-65965819D01*
X165736845Y-65965819D02*
X166355892Y-65965819D01*
X166736845Y-65061057D02*
X166784464Y-65013438D01*
X166784464Y-65013438D02*
X166879702Y-64965819D01*
X166879702Y-64965819D02*
X167117797Y-64965819D01*
X167117797Y-64965819D02*
X167213035Y-65013438D01*
X167213035Y-65013438D02*
X167260654Y-65061057D01*
X167260654Y-65061057D02*
X167308273Y-65156295D01*
X167308273Y-65156295D02*
X167308273Y-65251533D01*
X167308273Y-65251533D02*
X167260654Y-65394390D01*
X167260654Y-65394390D02*
X166689226Y-65965819D01*
X166689226Y-65965819D02*
X167308273Y-65965819D01*
X44626726Y-65918200D02*
X44769583Y-65965819D01*
X44769583Y-65965819D02*
X45007678Y-65965819D01*
X45007678Y-65965819D02*
X45102916Y-65918200D01*
X45102916Y-65918200D02*
X45150535Y-65870580D01*
X45150535Y-65870580D02*
X45198154Y-65775342D01*
X45198154Y-65775342D02*
X45198154Y-65680104D01*
X45198154Y-65680104D02*
X45150535Y-65584866D01*
X45150535Y-65584866D02*
X45102916Y-65537247D01*
X45102916Y-65537247D02*
X45007678Y-65489628D01*
X45007678Y-65489628D02*
X44817202Y-65442009D01*
X44817202Y-65442009D02*
X44721964Y-65394390D01*
X44721964Y-65394390D02*
X44674345Y-65346771D01*
X44674345Y-65346771D02*
X44626726Y-65251533D01*
X44626726Y-65251533D02*
X44626726Y-65156295D01*
X44626726Y-65156295D02*
X44674345Y-65061057D01*
X44674345Y-65061057D02*
X44721964Y-65013438D01*
X44721964Y-65013438D02*
X44817202Y-64965819D01*
X44817202Y-64965819D02*
X45055297Y-64965819D01*
X45055297Y-64965819D02*
X45198154Y-65013438D01*
X45531488Y-64965819D02*
X45769583Y-65965819D01*
X45769583Y-65965819D02*
X45960059Y-65251533D01*
X45960059Y-65251533D02*
X46150535Y-65965819D01*
X46150535Y-65965819D02*
X46388631Y-64965819D01*
X47293392Y-65965819D02*
X46721964Y-65965819D01*
X47007678Y-65965819D02*
X47007678Y-64965819D01*
X47007678Y-64965819D02*
X46912440Y-65108676D01*
X46912440Y-65108676D02*
X46817202Y-65203914D01*
X46817202Y-65203914D02*
X46721964Y-65251533D01*
X48150535Y-64965819D02*
X47960059Y-64965819D01*
X47960059Y-64965819D02*
X47864821Y-65013438D01*
X47864821Y-65013438D02*
X47817202Y-65061057D01*
X47817202Y-65061057D02*
X47721964Y-65203914D01*
X47721964Y-65203914D02*
X47674345Y-65394390D01*
X47674345Y-65394390D02*
X47674345Y-65775342D01*
X47674345Y-65775342D02*
X47721964Y-65870580D01*
X47721964Y-65870580D02*
X47769583Y-65918200D01*
X47769583Y-65918200D02*
X47864821Y-65965819D01*
X47864821Y-65965819D02*
X48055297Y-65965819D01*
X48055297Y-65965819D02*
X48150535Y-65918200D01*
X48150535Y-65918200D02*
X48198154Y-65870580D01*
X48198154Y-65870580D02*
X48245773Y-65775342D01*
X48245773Y-65775342D02*
X48245773Y-65537247D01*
X48245773Y-65537247D02*
X48198154Y-65442009D01*
X48198154Y-65442009D02*
X48150535Y-65394390D01*
X48150535Y-65394390D02*
X48055297Y-65346771D01*
X48055297Y-65346771D02*
X47864821Y-65346771D01*
X47864821Y-65346771D02*
X47769583Y-65394390D01*
X47769583Y-65394390D02*
X47721964Y-65442009D01*
X47721964Y-65442009D02*
X47674345Y-65537247D01*
X225634226Y-84968200D02*
X225777083Y-85015819D01*
X225777083Y-85015819D02*
X226015178Y-85015819D01*
X226015178Y-85015819D02*
X226110416Y-84968200D01*
X226110416Y-84968200D02*
X226158035Y-84920580D01*
X226158035Y-84920580D02*
X226205654Y-84825342D01*
X226205654Y-84825342D02*
X226205654Y-84730104D01*
X226205654Y-84730104D02*
X226158035Y-84634866D01*
X226158035Y-84634866D02*
X226110416Y-84587247D01*
X226110416Y-84587247D02*
X226015178Y-84539628D01*
X226015178Y-84539628D02*
X225824702Y-84492009D01*
X225824702Y-84492009D02*
X225729464Y-84444390D01*
X225729464Y-84444390D02*
X225681845Y-84396771D01*
X225681845Y-84396771D02*
X225634226Y-84301533D01*
X225634226Y-84301533D02*
X225634226Y-84206295D01*
X225634226Y-84206295D02*
X225681845Y-84111057D01*
X225681845Y-84111057D02*
X225729464Y-84063438D01*
X225729464Y-84063438D02*
X225824702Y-84015819D01*
X225824702Y-84015819D02*
X226062797Y-84015819D01*
X226062797Y-84015819D02*
X226205654Y-84063438D01*
X226538988Y-84015819D02*
X226777083Y-85015819D01*
X226777083Y-85015819D02*
X226967559Y-84301533D01*
X226967559Y-84301533D02*
X227158035Y-85015819D01*
X227158035Y-85015819D02*
X227396131Y-84015819D01*
X227681845Y-84015819D02*
X228300892Y-84015819D01*
X228300892Y-84015819D02*
X227967559Y-84396771D01*
X227967559Y-84396771D02*
X228110416Y-84396771D01*
X228110416Y-84396771D02*
X228205654Y-84444390D01*
X228205654Y-84444390D02*
X228253273Y-84492009D01*
X228253273Y-84492009D02*
X228300892Y-84587247D01*
X228300892Y-84587247D02*
X228300892Y-84825342D01*
X228300892Y-84825342D02*
X228253273Y-84920580D01*
X228253273Y-84920580D02*
X228205654Y-84968200D01*
X228205654Y-84968200D02*
X228110416Y-85015819D01*
X228110416Y-85015819D02*
X227824702Y-85015819D01*
X227824702Y-85015819D02*
X227729464Y-84968200D01*
X227729464Y-84968200D02*
X227681845Y-84920580D01*
X228777083Y-85015819D02*
X228967559Y-85015819D01*
X228967559Y-85015819D02*
X229062797Y-84968200D01*
X229062797Y-84968200D02*
X229110416Y-84920580D01*
X229110416Y-84920580D02*
X229205654Y-84777723D01*
X229205654Y-84777723D02*
X229253273Y-84587247D01*
X229253273Y-84587247D02*
X229253273Y-84206295D01*
X229253273Y-84206295D02*
X229205654Y-84111057D01*
X229205654Y-84111057D02*
X229158035Y-84063438D01*
X229158035Y-84063438D02*
X229062797Y-84015819D01*
X229062797Y-84015819D02*
X228872321Y-84015819D01*
X228872321Y-84015819D02*
X228777083Y-84063438D01*
X228777083Y-84063438D02*
X228729464Y-84111057D01*
X228729464Y-84111057D02*
X228681845Y-84206295D01*
X228681845Y-84206295D02*
X228681845Y-84444390D01*
X228681845Y-84444390D02*
X228729464Y-84539628D01*
X228729464Y-84539628D02*
X228777083Y-84587247D01*
X228777083Y-84587247D02*
X228872321Y-84634866D01*
X228872321Y-84634866D02*
X229062797Y-84634866D01*
X229062797Y-84634866D02*
X229158035Y-84587247D01*
X229158035Y-84587247D02*
X229205654Y-84539628D01*
X229205654Y-84539628D02*
X229253273Y-84444390D01*
X68439226Y-65918200D02*
X68582083Y-65965819D01*
X68582083Y-65965819D02*
X68820178Y-65965819D01*
X68820178Y-65965819D02*
X68915416Y-65918200D01*
X68915416Y-65918200D02*
X68963035Y-65870580D01*
X68963035Y-65870580D02*
X69010654Y-65775342D01*
X69010654Y-65775342D02*
X69010654Y-65680104D01*
X69010654Y-65680104D02*
X68963035Y-65584866D01*
X68963035Y-65584866D02*
X68915416Y-65537247D01*
X68915416Y-65537247D02*
X68820178Y-65489628D01*
X68820178Y-65489628D02*
X68629702Y-65442009D01*
X68629702Y-65442009D02*
X68534464Y-65394390D01*
X68534464Y-65394390D02*
X68486845Y-65346771D01*
X68486845Y-65346771D02*
X68439226Y-65251533D01*
X68439226Y-65251533D02*
X68439226Y-65156295D01*
X68439226Y-65156295D02*
X68486845Y-65061057D01*
X68486845Y-65061057D02*
X68534464Y-65013438D01*
X68534464Y-65013438D02*
X68629702Y-64965819D01*
X68629702Y-64965819D02*
X68867797Y-64965819D01*
X68867797Y-64965819D02*
X69010654Y-65013438D01*
X69343988Y-64965819D02*
X69582083Y-65965819D01*
X69582083Y-65965819D02*
X69772559Y-65251533D01*
X69772559Y-65251533D02*
X69963035Y-65965819D01*
X69963035Y-65965819D02*
X70201131Y-64965819D01*
X71105892Y-65965819D02*
X70534464Y-65965819D01*
X70820178Y-65965819D02*
X70820178Y-64965819D01*
X70820178Y-64965819D02*
X70724940Y-65108676D01*
X70724940Y-65108676D02*
X70629702Y-65203914D01*
X70629702Y-65203914D02*
X70534464Y-65251533D01*
X71439226Y-64965819D02*
X72105892Y-64965819D01*
X72105892Y-64965819D02*
X71677321Y-65965819D01*
X120846726Y-104018200D02*
X120989583Y-104065819D01*
X120989583Y-104065819D02*
X121227678Y-104065819D01*
X121227678Y-104065819D02*
X121322916Y-104018200D01*
X121322916Y-104018200D02*
X121370535Y-103970580D01*
X121370535Y-103970580D02*
X121418154Y-103875342D01*
X121418154Y-103875342D02*
X121418154Y-103780104D01*
X121418154Y-103780104D02*
X121370535Y-103684866D01*
X121370535Y-103684866D02*
X121322916Y-103637247D01*
X121322916Y-103637247D02*
X121227678Y-103589628D01*
X121227678Y-103589628D02*
X121037202Y-103542009D01*
X121037202Y-103542009D02*
X120941964Y-103494390D01*
X120941964Y-103494390D02*
X120894345Y-103446771D01*
X120894345Y-103446771D02*
X120846726Y-103351533D01*
X120846726Y-103351533D02*
X120846726Y-103256295D01*
X120846726Y-103256295D02*
X120894345Y-103161057D01*
X120894345Y-103161057D02*
X120941964Y-103113438D01*
X120941964Y-103113438D02*
X121037202Y-103065819D01*
X121037202Y-103065819D02*
X121275297Y-103065819D01*
X121275297Y-103065819D02*
X121418154Y-103113438D01*
X121751488Y-103065819D02*
X121989583Y-104065819D01*
X121989583Y-104065819D02*
X122180059Y-103351533D01*
X122180059Y-103351533D02*
X122370535Y-104065819D01*
X122370535Y-104065819D02*
X122608631Y-103065819D01*
X123418154Y-103399152D02*
X123418154Y-104065819D01*
X123180059Y-103018200D02*
X122941964Y-103732485D01*
X122941964Y-103732485D02*
X123561011Y-103732485D01*
X124370535Y-103065819D02*
X124180059Y-103065819D01*
X124180059Y-103065819D02*
X124084821Y-103113438D01*
X124084821Y-103113438D02*
X124037202Y-103161057D01*
X124037202Y-103161057D02*
X123941964Y-103303914D01*
X123941964Y-103303914D02*
X123894345Y-103494390D01*
X123894345Y-103494390D02*
X123894345Y-103875342D01*
X123894345Y-103875342D02*
X123941964Y-103970580D01*
X123941964Y-103970580D02*
X123989583Y-104018200D01*
X123989583Y-104018200D02*
X124084821Y-104065819D01*
X124084821Y-104065819D02*
X124275297Y-104065819D01*
X124275297Y-104065819D02*
X124370535Y-104018200D01*
X124370535Y-104018200D02*
X124418154Y-103970580D01*
X124418154Y-103970580D02*
X124465773Y-103875342D01*
X124465773Y-103875342D02*
X124465773Y-103637247D01*
X124465773Y-103637247D02*
X124418154Y-103542009D01*
X124418154Y-103542009D02*
X124370535Y-103494390D01*
X124370535Y-103494390D02*
X124275297Y-103446771D01*
X124275297Y-103446771D02*
X124084821Y-103446771D01*
X124084821Y-103446771D02*
X123989583Y-103494390D01*
X123989583Y-103494390D02*
X123941964Y-103542009D01*
X123941964Y-103542009D02*
X123894345Y-103637247D01*
X192296726Y-46868200D02*
X192439583Y-46915819D01*
X192439583Y-46915819D02*
X192677678Y-46915819D01*
X192677678Y-46915819D02*
X192772916Y-46868200D01*
X192772916Y-46868200D02*
X192820535Y-46820580D01*
X192820535Y-46820580D02*
X192868154Y-46725342D01*
X192868154Y-46725342D02*
X192868154Y-46630104D01*
X192868154Y-46630104D02*
X192820535Y-46534866D01*
X192820535Y-46534866D02*
X192772916Y-46487247D01*
X192772916Y-46487247D02*
X192677678Y-46439628D01*
X192677678Y-46439628D02*
X192487202Y-46392009D01*
X192487202Y-46392009D02*
X192391964Y-46344390D01*
X192391964Y-46344390D02*
X192344345Y-46296771D01*
X192344345Y-46296771D02*
X192296726Y-46201533D01*
X192296726Y-46201533D02*
X192296726Y-46106295D01*
X192296726Y-46106295D02*
X192344345Y-46011057D01*
X192344345Y-46011057D02*
X192391964Y-45963438D01*
X192391964Y-45963438D02*
X192487202Y-45915819D01*
X192487202Y-45915819D02*
X192725297Y-45915819D01*
X192725297Y-45915819D02*
X192868154Y-45963438D01*
X193201488Y-45915819D02*
X193439583Y-46915819D01*
X193439583Y-46915819D02*
X193630059Y-46201533D01*
X193630059Y-46201533D02*
X193820535Y-46915819D01*
X193820535Y-46915819D02*
X194058631Y-45915819D01*
X194963392Y-46915819D02*
X194391964Y-46915819D01*
X194677678Y-46915819D02*
X194677678Y-45915819D01*
X194677678Y-45915819D02*
X194582440Y-46058676D01*
X194582440Y-46058676D02*
X194487202Y-46153914D01*
X194487202Y-46153914D02*
X194391964Y-46201533D01*
X195582440Y-45915819D02*
X195677678Y-45915819D01*
X195677678Y-45915819D02*
X195772916Y-45963438D01*
X195772916Y-45963438D02*
X195820535Y-46011057D01*
X195820535Y-46011057D02*
X195868154Y-46106295D01*
X195868154Y-46106295D02*
X195915773Y-46296771D01*
X195915773Y-46296771D02*
X195915773Y-46534866D01*
X195915773Y-46534866D02*
X195868154Y-46725342D01*
X195868154Y-46725342D02*
X195820535Y-46820580D01*
X195820535Y-46820580D02*
X195772916Y-46868200D01*
X195772916Y-46868200D02*
X195677678Y-46915819D01*
X195677678Y-46915819D02*
X195582440Y-46915819D01*
X195582440Y-46915819D02*
X195487202Y-46868200D01*
X195487202Y-46868200D02*
X195439583Y-46820580D01*
X195439583Y-46820580D02*
X195391964Y-46725342D01*
X195391964Y-46725342D02*
X195344345Y-46534866D01*
X195344345Y-46534866D02*
X195344345Y-46296771D01*
X195344345Y-46296771D02*
X195391964Y-46106295D01*
X195391964Y-46106295D02*
X195439583Y-46011057D01*
X195439583Y-46011057D02*
X195487202Y-45963438D01*
X195487202Y-45963438D02*
X195582440Y-45915819D01*
X173722917Y-46868200D02*
X173865774Y-46915819D01*
X173865774Y-46915819D02*
X174103869Y-46915819D01*
X174103869Y-46915819D02*
X174199107Y-46868200D01*
X174199107Y-46868200D02*
X174246726Y-46820580D01*
X174246726Y-46820580D02*
X174294345Y-46725342D01*
X174294345Y-46725342D02*
X174294345Y-46630104D01*
X174294345Y-46630104D02*
X174246726Y-46534866D01*
X174246726Y-46534866D02*
X174199107Y-46487247D01*
X174199107Y-46487247D02*
X174103869Y-46439628D01*
X174103869Y-46439628D02*
X173913393Y-46392009D01*
X173913393Y-46392009D02*
X173818155Y-46344390D01*
X173818155Y-46344390D02*
X173770536Y-46296771D01*
X173770536Y-46296771D02*
X173722917Y-46201533D01*
X173722917Y-46201533D02*
X173722917Y-46106295D01*
X173722917Y-46106295D02*
X173770536Y-46011057D01*
X173770536Y-46011057D02*
X173818155Y-45963438D01*
X173818155Y-45963438D02*
X173913393Y-45915819D01*
X173913393Y-45915819D02*
X174151488Y-45915819D01*
X174151488Y-45915819D02*
X174294345Y-45963438D01*
X174627679Y-45915819D02*
X174865774Y-46915819D01*
X174865774Y-46915819D02*
X175056250Y-46201533D01*
X175056250Y-46201533D02*
X175246726Y-46915819D01*
X175246726Y-46915819D02*
X175484822Y-45915819D01*
X175913393Y-46915819D02*
X176103869Y-46915819D01*
X176103869Y-46915819D02*
X176199107Y-46868200D01*
X176199107Y-46868200D02*
X176246726Y-46820580D01*
X176246726Y-46820580D02*
X176341964Y-46677723D01*
X176341964Y-46677723D02*
X176389583Y-46487247D01*
X176389583Y-46487247D02*
X176389583Y-46106295D01*
X176389583Y-46106295D02*
X176341964Y-46011057D01*
X176341964Y-46011057D02*
X176294345Y-45963438D01*
X176294345Y-45963438D02*
X176199107Y-45915819D01*
X176199107Y-45915819D02*
X176008631Y-45915819D01*
X176008631Y-45915819D02*
X175913393Y-45963438D01*
X175913393Y-45963438D02*
X175865774Y-46011057D01*
X175865774Y-46011057D02*
X175818155Y-46106295D01*
X175818155Y-46106295D02*
X175818155Y-46344390D01*
X175818155Y-46344390D02*
X175865774Y-46439628D01*
X175865774Y-46439628D02*
X175913393Y-46487247D01*
X175913393Y-46487247D02*
X176008631Y-46534866D01*
X176008631Y-46534866D02*
X176199107Y-46534866D01*
X176199107Y-46534866D02*
X176294345Y-46487247D01*
X176294345Y-46487247D02*
X176341964Y-46439628D01*
X176341964Y-46439628D02*
X176389583Y-46344390D01*
X65889226Y-123148200D02*
X66032083Y-123195819D01*
X66032083Y-123195819D02*
X66270178Y-123195819D01*
X66270178Y-123195819D02*
X66365416Y-123148200D01*
X66365416Y-123148200D02*
X66413035Y-123100580D01*
X66413035Y-123100580D02*
X66460654Y-123005342D01*
X66460654Y-123005342D02*
X66460654Y-122910104D01*
X66460654Y-122910104D02*
X66413035Y-122814866D01*
X66413035Y-122814866D02*
X66365416Y-122767247D01*
X66365416Y-122767247D02*
X66270178Y-122719628D01*
X66270178Y-122719628D02*
X66079702Y-122672009D01*
X66079702Y-122672009D02*
X65984464Y-122624390D01*
X65984464Y-122624390D02*
X65936845Y-122576771D01*
X65936845Y-122576771D02*
X65889226Y-122481533D01*
X65889226Y-122481533D02*
X65889226Y-122386295D01*
X65889226Y-122386295D02*
X65936845Y-122291057D01*
X65936845Y-122291057D02*
X65984464Y-122243438D01*
X65984464Y-122243438D02*
X66079702Y-122195819D01*
X66079702Y-122195819D02*
X66317797Y-122195819D01*
X66317797Y-122195819D02*
X66460654Y-122243438D01*
X66793988Y-122195819D02*
X67032083Y-123195819D01*
X67032083Y-123195819D02*
X67222559Y-122481533D01*
X67222559Y-122481533D02*
X67413035Y-123195819D01*
X67413035Y-123195819D02*
X67651131Y-122195819D01*
X68508273Y-122195819D02*
X68032083Y-122195819D01*
X68032083Y-122195819D02*
X67984464Y-122672009D01*
X67984464Y-122672009D02*
X68032083Y-122624390D01*
X68032083Y-122624390D02*
X68127321Y-122576771D01*
X68127321Y-122576771D02*
X68365416Y-122576771D01*
X68365416Y-122576771D02*
X68460654Y-122624390D01*
X68460654Y-122624390D02*
X68508273Y-122672009D01*
X68508273Y-122672009D02*
X68555892Y-122767247D01*
X68555892Y-122767247D02*
X68555892Y-123005342D01*
X68555892Y-123005342D02*
X68508273Y-123100580D01*
X68508273Y-123100580D02*
X68460654Y-123148200D01*
X68460654Y-123148200D02*
X68365416Y-123195819D01*
X68365416Y-123195819D02*
X68127321Y-123195819D01*
X68127321Y-123195819D02*
X68032083Y-123148200D01*
X68032083Y-123148200D02*
X67984464Y-123100580D01*
X69413035Y-122195819D02*
X69222559Y-122195819D01*
X69222559Y-122195819D02*
X69127321Y-122243438D01*
X69127321Y-122243438D02*
X69079702Y-122291057D01*
X69079702Y-122291057D02*
X68984464Y-122433914D01*
X68984464Y-122433914D02*
X68936845Y-122624390D01*
X68936845Y-122624390D02*
X68936845Y-123005342D01*
X68936845Y-123005342D02*
X68984464Y-123100580D01*
X68984464Y-123100580D02*
X69032083Y-123148200D01*
X69032083Y-123148200D02*
X69127321Y-123195819D01*
X69127321Y-123195819D02*
X69317797Y-123195819D01*
X69317797Y-123195819D02*
X69413035Y-123148200D01*
X69413035Y-123148200D02*
X69460654Y-123100580D01*
X69460654Y-123100580D02*
X69508273Y-123005342D01*
X69508273Y-123005342D02*
X69508273Y-122767247D01*
X69508273Y-122767247D02*
X69460654Y-122672009D01*
X69460654Y-122672009D02*
X69413035Y-122624390D01*
X69413035Y-122624390D02*
X69317797Y-122576771D01*
X69317797Y-122576771D02*
X69127321Y-122576771D01*
X69127321Y-122576771D02*
X69032083Y-122624390D01*
X69032083Y-122624390D02*
X68984464Y-122672009D01*
X68984464Y-122672009D02*
X68936845Y-122767247D01*
X144639226Y-65918200D02*
X144782083Y-65965819D01*
X144782083Y-65965819D02*
X145020178Y-65965819D01*
X145020178Y-65965819D02*
X145115416Y-65918200D01*
X145115416Y-65918200D02*
X145163035Y-65870580D01*
X145163035Y-65870580D02*
X145210654Y-65775342D01*
X145210654Y-65775342D02*
X145210654Y-65680104D01*
X145210654Y-65680104D02*
X145163035Y-65584866D01*
X145163035Y-65584866D02*
X145115416Y-65537247D01*
X145115416Y-65537247D02*
X145020178Y-65489628D01*
X145020178Y-65489628D02*
X144829702Y-65442009D01*
X144829702Y-65442009D02*
X144734464Y-65394390D01*
X144734464Y-65394390D02*
X144686845Y-65346771D01*
X144686845Y-65346771D02*
X144639226Y-65251533D01*
X144639226Y-65251533D02*
X144639226Y-65156295D01*
X144639226Y-65156295D02*
X144686845Y-65061057D01*
X144686845Y-65061057D02*
X144734464Y-65013438D01*
X144734464Y-65013438D02*
X144829702Y-64965819D01*
X144829702Y-64965819D02*
X145067797Y-64965819D01*
X145067797Y-64965819D02*
X145210654Y-65013438D01*
X145543988Y-64965819D02*
X145782083Y-65965819D01*
X145782083Y-65965819D02*
X145972559Y-65251533D01*
X145972559Y-65251533D02*
X146163035Y-65965819D01*
X146163035Y-65965819D02*
X146401131Y-64965819D01*
X146734464Y-65061057D02*
X146782083Y-65013438D01*
X146782083Y-65013438D02*
X146877321Y-64965819D01*
X146877321Y-64965819D02*
X147115416Y-64965819D01*
X147115416Y-64965819D02*
X147210654Y-65013438D01*
X147210654Y-65013438D02*
X147258273Y-65061057D01*
X147258273Y-65061057D02*
X147305892Y-65156295D01*
X147305892Y-65156295D02*
X147305892Y-65251533D01*
X147305892Y-65251533D02*
X147258273Y-65394390D01*
X147258273Y-65394390D02*
X146686845Y-65965819D01*
X146686845Y-65965819D02*
X147305892Y-65965819D01*
X148258273Y-65965819D02*
X147686845Y-65965819D01*
X147972559Y-65965819D02*
X147972559Y-64965819D01*
X147972559Y-64965819D02*
X147877321Y-65108676D01*
X147877321Y-65108676D02*
X147782083Y-65203914D01*
X147782083Y-65203914D02*
X147686845Y-65251533D01*
X158946726Y-104018200D02*
X159089583Y-104065819D01*
X159089583Y-104065819D02*
X159327678Y-104065819D01*
X159327678Y-104065819D02*
X159422916Y-104018200D01*
X159422916Y-104018200D02*
X159470535Y-103970580D01*
X159470535Y-103970580D02*
X159518154Y-103875342D01*
X159518154Y-103875342D02*
X159518154Y-103780104D01*
X159518154Y-103780104D02*
X159470535Y-103684866D01*
X159470535Y-103684866D02*
X159422916Y-103637247D01*
X159422916Y-103637247D02*
X159327678Y-103589628D01*
X159327678Y-103589628D02*
X159137202Y-103542009D01*
X159137202Y-103542009D02*
X159041964Y-103494390D01*
X159041964Y-103494390D02*
X158994345Y-103446771D01*
X158994345Y-103446771D02*
X158946726Y-103351533D01*
X158946726Y-103351533D02*
X158946726Y-103256295D01*
X158946726Y-103256295D02*
X158994345Y-103161057D01*
X158994345Y-103161057D02*
X159041964Y-103113438D01*
X159041964Y-103113438D02*
X159137202Y-103065819D01*
X159137202Y-103065819D02*
X159375297Y-103065819D01*
X159375297Y-103065819D02*
X159518154Y-103113438D01*
X159851488Y-103065819D02*
X160089583Y-104065819D01*
X160089583Y-104065819D02*
X160280059Y-103351533D01*
X160280059Y-103351533D02*
X160470535Y-104065819D01*
X160470535Y-104065819D02*
X160708631Y-103065819D01*
X161518154Y-103399152D02*
X161518154Y-104065819D01*
X161280059Y-103018200D02*
X161041964Y-103732485D01*
X161041964Y-103732485D02*
X161661011Y-103732485D01*
X162184821Y-103494390D02*
X162089583Y-103446771D01*
X162089583Y-103446771D02*
X162041964Y-103399152D01*
X162041964Y-103399152D02*
X161994345Y-103303914D01*
X161994345Y-103303914D02*
X161994345Y-103256295D01*
X161994345Y-103256295D02*
X162041964Y-103161057D01*
X162041964Y-103161057D02*
X162089583Y-103113438D01*
X162089583Y-103113438D02*
X162184821Y-103065819D01*
X162184821Y-103065819D02*
X162375297Y-103065819D01*
X162375297Y-103065819D02*
X162470535Y-103113438D01*
X162470535Y-103113438D02*
X162518154Y-103161057D01*
X162518154Y-103161057D02*
X162565773Y-103256295D01*
X162565773Y-103256295D02*
X162565773Y-103303914D01*
X162565773Y-103303914D02*
X162518154Y-103399152D01*
X162518154Y-103399152D02*
X162470535Y-103446771D01*
X162470535Y-103446771D02*
X162375297Y-103494390D01*
X162375297Y-103494390D02*
X162184821Y-103494390D01*
X162184821Y-103494390D02*
X162089583Y-103542009D01*
X162089583Y-103542009D02*
X162041964Y-103589628D01*
X162041964Y-103589628D02*
X161994345Y-103684866D01*
X161994345Y-103684866D02*
X161994345Y-103875342D01*
X161994345Y-103875342D02*
X162041964Y-103970580D01*
X162041964Y-103970580D02*
X162089583Y-104018200D01*
X162089583Y-104018200D02*
X162184821Y-104065819D01*
X162184821Y-104065819D02*
X162375297Y-104065819D01*
X162375297Y-104065819D02*
X162470535Y-104018200D01*
X162470535Y-104018200D02*
X162518154Y-103970580D01*
X162518154Y-103970580D02*
X162565773Y-103875342D01*
X162565773Y-103875342D02*
X162565773Y-103684866D01*
X162565773Y-103684866D02*
X162518154Y-103589628D01*
X162518154Y-103589628D02*
X162470535Y-103542009D01*
X162470535Y-103542009D02*
X162375297Y-103494390D01*
X59422917Y-46868200D02*
X59565774Y-46915819D01*
X59565774Y-46915819D02*
X59803869Y-46915819D01*
X59803869Y-46915819D02*
X59899107Y-46868200D01*
X59899107Y-46868200D02*
X59946726Y-46820580D01*
X59946726Y-46820580D02*
X59994345Y-46725342D01*
X59994345Y-46725342D02*
X59994345Y-46630104D01*
X59994345Y-46630104D02*
X59946726Y-46534866D01*
X59946726Y-46534866D02*
X59899107Y-46487247D01*
X59899107Y-46487247D02*
X59803869Y-46439628D01*
X59803869Y-46439628D02*
X59613393Y-46392009D01*
X59613393Y-46392009D02*
X59518155Y-46344390D01*
X59518155Y-46344390D02*
X59470536Y-46296771D01*
X59470536Y-46296771D02*
X59422917Y-46201533D01*
X59422917Y-46201533D02*
X59422917Y-46106295D01*
X59422917Y-46106295D02*
X59470536Y-46011057D01*
X59470536Y-46011057D02*
X59518155Y-45963438D01*
X59518155Y-45963438D02*
X59613393Y-45915819D01*
X59613393Y-45915819D02*
X59851488Y-45915819D01*
X59851488Y-45915819D02*
X59994345Y-45963438D01*
X60327679Y-45915819D02*
X60565774Y-46915819D01*
X60565774Y-46915819D02*
X60756250Y-46201533D01*
X60756250Y-46201533D02*
X60946726Y-46915819D01*
X60946726Y-46915819D02*
X61184822Y-45915819D01*
X61470536Y-45915819D02*
X62089583Y-45915819D01*
X62089583Y-45915819D02*
X61756250Y-46296771D01*
X61756250Y-46296771D02*
X61899107Y-46296771D01*
X61899107Y-46296771D02*
X61994345Y-46344390D01*
X61994345Y-46344390D02*
X62041964Y-46392009D01*
X62041964Y-46392009D02*
X62089583Y-46487247D01*
X62089583Y-46487247D02*
X62089583Y-46725342D01*
X62089583Y-46725342D02*
X62041964Y-46820580D01*
X62041964Y-46820580D02*
X61994345Y-46868200D01*
X61994345Y-46868200D02*
X61899107Y-46915819D01*
X61899107Y-46915819D02*
X61613393Y-46915819D01*
X61613393Y-46915819D02*
X61518155Y-46868200D01*
X61518155Y-46868200D02*
X61470536Y-46820580D01*
X249196726Y-123198200D02*
X249339583Y-123245819D01*
X249339583Y-123245819D02*
X249577678Y-123245819D01*
X249577678Y-123245819D02*
X249672916Y-123198200D01*
X249672916Y-123198200D02*
X249720535Y-123150580D01*
X249720535Y-123150580D02*
X249768154Y-123055342D01*
X249768154Y-123055342D02*
X249768154Y-122960104D01*
X249768154Y-122960104D02*
X249720535Y-122864866D01*
X249720535Y-122864866D02*
X249672916Y-122817247D01*
X249672916Y-122817247D02*
X249577678Y-122769628D01*
X249577678Y-122769628D02*
X249387202Y-122722009D01*
X249387202Y-122722009D02*
X249291964Y-122674390D01*
X249291964Y-122674390D02*
X249244345Y-122626771D01*
X249244345Y-122626771D02*
X249196726Y-122531533D01*
X249196726Y-122531533D02*
X249196726Y-122436295D01*
X249196726Y-122436295D02*
X249244345Y-122341057D01*
X249244345Y-122341057D02*
X249291964Y-122293438D01*
X249291964Y-122293438D02*
X249387202Y-122245819D01*
X249387202Y-122245819D02*
X249625297Y-122245819D01*
X249625297Y-122245819D02*
X249768154Y-122293438D01*
X250101488Y-122245819D02*
X250339583Y-123245819D01*
X250339583Y-123245819D02*
X250530059Y-122531533D01*
X250530059Y-122531533D02*
X250720535Y-123245819D01*
X250720535Y-123245819D02*
X250958631Y-122245819D01*
X251768154Y-122245819D02*
X251577678Y-122245819D01*
X251577678Y-122245819D02*
X251482440Y-122293438D01*
X251482440Y-122293438D02*
X251434821Y-122341057D01*
X251434821Y-122341057D02*
X251339583Y-122483914D01*
X251339583Y-122483914D02*
X251291964Y-122674390D01*
X251291964Y-122674390D02*
X251291964Y-123055342D01*
X251291964Y-123055342D02*
X251339583Y-123150580D01*
X251339583Y-123150580D02*
X251387202Y-123198200D01*
X251387202Y-123198200D02*
X251482440Y-123245819D01*
X251482440Y-123245819D02*
X251672916Y-123245819D01*
X251672916Y-123245819D02*
X251768154Y-123198200D01*
X251768154Y-123198200D02*
X251815773Y-123150580D01*
X251815773Y-123150580D02*
X251863392Y-123055342D01*
X251863392Y-123055342D02*
X251863392Y-122817247D01*
X251863392Y-122817247D02*
X251815773Y-122722009D01*
X251815773Y-122722009D02*
X251768154Y-122674390D01*
X251768154Y-122674390D02*
X251672916Y-122626771D01*
X251672916Y-122626771D02*
X251482440Y-122626771D01*
X251482440Y-122626771D02*
X251387202Y-122674390D01*
X251387202Y-122674390D02*
X251339583Y-122722009D01*
X251339583Y-122722009D02*
X251291964Y-122817247D01*
X252482440Y-122245819D02*
X252577678Y-122245819D01*
X252577678Y-122245819D02*
X252672916Y-122293438D01*
X252672916Y-122293438D02*
X252720535Y-122341057D01*
X252720535Y-122341057D02*
X252768154Y-122436295D01*
X252768154Y-122436295D02*
X252815773Y-122626771D01*
X252815773Y-122626771D02*
X252815773Y-122864866D01*
X252815773Y-122864866D02*
X252768154Y-123055342D01*
X252768154Y-123055342D02*
X252720535Y-123150580D01*
X252720535Y-123150580D02*
X252672916Y-123198200D01*
X252672916Y-123198200D02*
X252577678Y-123245819D01*
X252577678Y-123245819D02*
X252482440Y-123245819D01*
X252482440Y-123245819D02*
X252387202Y-123198200D01*
X252387202Y-123198200D02*
X252339583Y-123150580D01*
X252339583Y-123150580D02*
X252291964Y-123055342D01*
X252291964Y-123055342D02*
X252244345Y-122864866D01*
X252244345Y-122864866D02*
X252244345Y-122626771D01*
X252244345Y-122626771D02*
X252291964Y-122436295D01*
X252291964Y-122436295D02*
X252339583Y-122341057D01*
X252339583Y-122341057D02*
X252387202Y-122293438D01*
X252387202Y-122293438D02*
X252482440Y-122245819D01*
X187534226Y-84968200D02*
X187677083Y-85015819D01*
X187677083Y-85015819D02*
X187915178Y-85015819D01*
X187915178Y-85015819D02*
X188010416Y-84968200D01*
X188010416Y-84968200D02*
X188058035Y-84920580D01*
X188058035Y-84920580D02*
X188105654Y-84825342D01*
X188105654Y-84825342D02*
X188105654Y-84730104D01*
X188105654Y-84730104D02*
X188058035Y-84634866D01*
X188058035Y-84634866D02*
X188010416Y-84587247D01*
X188010416Y-84587247D02*
X187915178Y-84539628D01*
X187915178Y-84539628D02*
X187724702Y-84492009D01*
X187724702Y-84492009D02*
X187629464Y-84444390D01*
X187629464Y-84444390D02*
X187581845Y-84396771D01*
X187581845Y-84396771D02*
X187534226Y-84301533D01*
X187534226Y-84301533D02*
X187534226Y-84206295D01*
X187534226Y-84206295D02*
X187581845Y-84111057D01*
X187581845Y-84111057D02*
X187629464Y-84063438D01*
X187629464Y-84063438D02*
X187724702Y-84015819D01*
X187724702Y-84015819D02*
X187962797Y-84015819D01*
X187962797Y-84015819D02*
X188105654Y-84063438D01*
X188438988Y-84015819D02*
X188677083Y-85015819D01*
X188677083Y-85015819D02*
X188867559Y-84301533D01*
X188867559Y-84301533D02*
X189058035Y-85015819D01*
X189058035Y-85015819D02*
X189296131Y-84015819D01*
X189581845Y-84015819D02*
X190200892Y-84015819D01*
X190200892Y-84015819D02*
X189867559Y-84396771D01*
X189867559Y-84396771D02*
X190010416Y-84396771D01*
X190010416Y-84396771D02*
X190105654Y-84444390D01*
X190105654Y-84444390D02*
X190153273Y-84492009D01*
X190153273Y-84492009D02*
X190200892Y-84587247D01*
X190200892Y-84587247D02*
X190200892Y-84825342D01*
X190200892Y-84825342D02*
X190153273Y-84920580D01*
X190153273Y-84920580D02*
X190105654Y-84968200D01*
X190105654Y-84968200D02*
X190010416Y-85015819D01*
X190010416Y-85015819D02*
X189724702Y-85015819D01*
X189724702Y-85015819D02*
X189629464Y-84968200D01*
X189629464Y-84968200D02*
X189581845Y-84920580D01*
X190534226Y-84015819D02*
X191200892Y-84015819D01*
X191200892Y-84015819D02*
X190772321Y-85015819D01*
X182739226Y-65918200D02*
X182882083Y-65965819D01*
X182882083Y-65965819D02*
X183120178Y-65965819D01*
X183120178Y-65965819D02*
X183215416Y-65918200D01*
X183215416Y-65918200D02*
X183263035Y-65870580D01*
X183263035Y-65870580D02*
X183310654Y-65775342D01*
X183310654Y-65775342D02*
X183310654Y-65680104D01*
X183310654Y-65680104D02*
X183263035Y-65584866D01*
X183263035Y-65584866D02*
X183215416Y-65537247D01*
X183215416Y-65537247D02*
X183120178Y-65489628D01*
X183120178Y-65489628D02*
X182929702Y-65442009D01*
X182929702Y-65442009D02*
X182834464Y-65394390D01*
X182834464Y-65394390D02*
X182786845Y-65346771D01*
X182786845Y-65346771D02*
X182739226Y-65251533D01*
X182739226Y-65251533D02*
X182739226Y-65156295D01*
X182739226Y-65156295D02*
X182786845Y-65061057D01*
X182786845Y-65061057D02*
X182834464Y-65013438D01*
X182834464Y-65013438D02*
X182929702Y-64965819D01*
X182929702Y-64965819D02*
X183167797Y-64965819D01*
X183167797Y-64965819D02*
X183310654Y-65013438D01*
X183643988Y-64965819D02*
X183882083Y-65965819D01*
X183882083Y-65965819D02*
X184072559Y-65251533D01*
X184072559Y-65251533D02*
X184263035Y-65965819D01*
X184263035Y-65965819D02*
X184501131Y-64965819D01*
X184834464Y-65061057D02*
X184882083Y-65013438D01*
X184882083Y-65013438D02*
X184977321Y-64965819D01*
X184977321Y-64965819D02*
X185215416Y-64965819D01*
X185215416Y-64965819D02*
X185310654Y-65013438D01*
X185310654Y-65013438D02*
X185358273Y-65061057D01*
X185358273Y-65061057D02*
X185405892Y-65156295D01*
X185405892Y-65156295D02*
X185405892Y-65251533D01*
X185405892Y-65251533D02*
X185358273Y-65394390D01*
X185358273Y-65394390D02*
X184786845Y-65965819D01*
X184786845Y-65965819D02*
X185405892Y-65965819D01*
X185739226Y-64965819D02*
X186358273Y-64965819D01*
X186358273Y-64965819D02*
X186024940Y-65346771D01*
X186024940Y-65346771D02*
X186167797Y-65346771D01*
X186167797Y-65346771D02*
X186263035Y-65394390D01*
X186263035Y-65394390D02*
X186310654Y-65442009D01*
X186310654Y-65442009D02*
X186358273Y-65537247D01*
X186358273Y-65537247D02*
X186358273Y-65775342D01*
X186358273Y-65775342D02*
X186310654Y-65870580D01*
X186310654Y-65870580D02*
X186263035Y-65918200D01*
X186263035Y-65918200D02*
X186167797Y-65965819D01*
X186167797Y-65965819D02*
X185882083Y-65965819D01*
X185882083Y-65965819D02*
X185786845Y-65918200D01*
X185786845Y-65918200D02*
X185739226Y-65870580D01*
X197046726Y-104018200D02*
X197189583Y-104065819D01*
X197189583Y-104065819D02*
X197427678Y-104065819D01*
X197427678Y-104065819D02*
X197522916Y-104018200D01*
X197522916Y-104018200D02*
X197570535Y-103970580D01*
X197570535Y-103970580D02*
X197618154Y-103875342D01*
X197618154Y-103875342D02*
X197618154Y-103780104D01*
X197618154Y-103780104D02*
X197570535Y-103684866D01*
X197570535Y-103684866D02*
X197522916Y-103637247D01*
X197522916Y-103637247D02*
X197427678Y-103589628D01*
X197427678Y-103589628D02*
X197237202Y-103542009D01*
X197237202Y-103542009D02*
X197141964Y-103494390D01*
X197141964Y-103494390D02*
X197094345Y-103446771D01*
X197094345Y-103446771D02*
X197046726Y-103351533D01*
X197046726Y-103351533D02*
X197046726Y-103256295D01*
X197046726Y-103256295D02*
X197094345Y-103161057D01*
X197094345Y-103161057D02*
X197141964Y-103113438D01*
X197141964Y-103113438D02*
X197237202Y-103065819D01*
X197237202Y-103065819D02*
X197475297Y-103065819D01*
X197475297Y-103065819D02*
X197618154Y-103113438D01*
X197951488Y-103065819D02*
X198189583Y-104065819D01*
X198189583Y-104065819D02*
X198380059Y-103351533D01*
X198380059Y-103351533D02*
X198570535Y-104065819D01*
X198570535Y-104065819D02*
X198808631Y-103065819D01*
X199665773Y-103065819D02*
X199189583Y-103065819D01*
X199189583Y-103065819D02*
X199141964Y-103542009D01*
X199141964Y-103542009D02*
X199189583Y-103494390D01*
X199189583Y-103494390D02*
X199284821Y-103446771D01*
X199284821Y-103446771D02*
X199522916Y-103446771D01*
X199522916Y-103446771D02*
X199618154Y-103494390D01*
X199618154Y-103494390D02*
X199665773Y-103542009D01*
X199665773Y-103542009D02*
X199713392Y-103637247D01*
X199713392Y-103637247D02*
X199713392Y-103875342D01*
X199713392Y-103875342D02*
X199665773Y-103970580D01*
X199665773Y-103970580D02*
X199618154Y-104018200D01*
X199618154Y-104018200D02*
X199522916Y-104065819D01*
X199522916Y-104065819D02*
X199284821Y-104065819D01*
X199284821Y-104065819D02*
X199189583Y-104018200D01*
X199189583Y-104018200D02*
X199141964Y-103970580D01*
X200332440Y-103065819D02*
X200427678Y-103065819D01*
X200427678Y-103065819D02*
X200522916Y-103113438D01*
X200522916Y-103113438D02*
X200570535Y-103161057D01*
X200570535Y-103161057D02*
X200618154Y-103256295D01*
X200618154Y-103256295D02*
X200665773Y-103446771D01*
X200665773Y-103446771D02*
X200665773Y-103684866D01*
X200665773Y-103684866D02*
X200618154Y-103875342D01*
X200618154Y-103875342D02*
X200570535Y-103970580D01*
X200570535Y-103970580D02*
X200522916Y-104018200D01*
X200522916Y-104018200D02*
X200427678Y-104065819D01*
X200427678Y-104065819D02*
X200332440Y-104065819D01*
X200332440Y-104065819D02*
X200237202Y-104018200D01*
X200237202Y-104018200D02*
X200189583Y-103970580D01*
X200189583Y-103970580D02*
X200141964Y-103875342D01*
X200141964Y-103875342D02*
X200094345Y-103684866D01*
X200094345Y-103684866D02*
X200094345Y-103446771D01*
X200094345Y-103446771D02*
X200141964Y-103256295D01*
X200141964Y-103256295D02*
X200189583Y-103161057D01*
X200189583Y-103161057D02*
X200237202Y-103113438D01*
X200237202Y-103113438D02*
X200332440Y-103065819D01*
X101796726Y-104018200D02*
X101939583Y-104065819D01*
X101939583Y-104065819D02*
X102177678Y-104065819D01*
X102177678Y-104065819D02*
X102272916Y-104018200D01*
X102272916Y-104018200D02*
X102320535Y-103970580D01*
X102320535Y-103970580D02*
X102368154Y-103875342D01*
X102368154Y-103875342D02*
X102368154Y-103780104D01*
X102368154Y-103780104D02*
X102320535Y-103684866D01*
X102320535Y-103684866D02*
X102272916Y-103637247D01*
X102272916Y-103637247D02*
X102177678Y-103589628D01*
X102177678Y-103589628D02*
X101987202Y-103542009D01*
X101987202Y-103542009D02*
X101891964Y-103494390D01*
X101891964Y-103494390D02*
X101844345Y-103446771D01*
X101844345Y-103446771D02*
X101796726Y-103351533D01*
X101796726Y-103351533D02*
X101796726Y-103256295D01*
X101796726Y-103256295D02*
X101844345Y-103161057D01*
X101844345Y-103161057D02*
X101891964Y-103113438D01*
X101891964Y-103113438D02*
X101987202Y-103065819D01*
X101987202Y-103065819D02*
X102225297Y-103065819D01*
X102225297Y-103065819D02*
X102368154Y-103113438D01*
X102701488Y-103065819D02*
X102939583Y-104065819D01*
X102939583Y-104065819D02*
X103130059Y-103351533D01*
X103130059Y-103351533D02*
X103320535Y-104065819D01*
X103320535Y-104065819D02*
X103558631Y-103065819D01*
X104368154Y-103399152D02*
X104368154Y-104065819D01*
X104130059Y-103018200D02*
X103891964Y-103732485D01*
X103891964Y-103732485D02*
X104511011Y-103732485D01*
X105368154Y-103065819D02*
X104891964Y-103065819D01*
X104891964Y-103065819D02*
X104844345Y-103542009D01*
X104844345Y-103542009D02*
X104891964Y-103494390D01*
X104891964Y-103494390D02*
X104987202Y-103446771D01*
X104987202Y-103446771D02*
X105225297Y-103446771D01*
X105225297Y-103446771D02*
X105320535Y-103494390D01*
X105320535Y-103494390D02*
X105368154Y-103542009D01*
X105368154Y-103542009D02*
X105415773Y-103637247D01*
X105415773Y-103637247D02*
X105415773Y-103875342D01*
X105415773Y-103875342D02*
X105368154Y-103970580D01*
X105368154Y-103970580D02*
X105320535Y-104018200D01*
X105320535Y-104018200D02*
X105225297Y-104065819D01*
X105225297Y-104065819D02*
X104987202Y-104065819D01*
X104987202Y-104065819D02*
X104891964Y-104018200D01*
X104891964Y-104018200D02*
X104844345Y-103970580D01*
D11*
%TO.C,SW36*%
X163308750Y-85450000D02*
X177278750Y-85450000D01*
X163308750Y-99420000D02*
X163308750Y-85450000D01*
X177278750Y-85450000D02*
X177278750Y-99420000D01*
X177278750Y-99420000D02*
X163308750Y-99420000D01*
%TO.C,SW2*%
X34721250Y-47350000D02*
X48691250Y-47350000D01*
X34721250Y-61320000D02*
X34721250Y-47350000D01*
X48691250Y-47350000D02*
X48691250Y-61320000D01*
X48691250Y-61320000D02*
X34721250Y-61320000D01*
%TO.C,SW64*%
X301171250Y-142730000D02*
X315141250Y-142730000D01*
X301171250Y-156700000D02*
X301171250Y-142730000D01*
X315141250Y-142730000D02*
X315141250Y-156700000D01*
X315141250Y-156700000D02*
X301171250Y-156700000D01*
%TO.C,SW11*%
X206171250Y-47350000D02*
X220141250Y-47350000D01*
X206171250Y-61320000D02*
X206171250Y-47350000D01*
X220141250Y-47350000D02*
X220141250Y-61320000D01*
X220141250Y-61320000D02*
X206171250Y-61320000D01*
%TO.C,SW49*%
X172821250Y-104500000D02*
X186791250Y-104500000D01*
X172821250Y-118470000D02*
X172821250Y-104500000D01*
X186791250Y-104500000D02*
X186791250Y-118470000D01*
X186791250Y-118470000D02*
X172821250Y-118470000D01*
%TO.C,SW6*%
X110921250Y-47350000D02*
X124891250Y-47350000D01*
X110921250Y-61320000D02*
X110921250Y-47350000D01*
X124891250Y-47350000D02*
X124891250Y-61320000D01*
X124891250Y-61320000D02*
X110921250Y-61320000D01*
%TO.C,SW27*%
X253763750Y-66400000D02*
X267733750Y-66400000D01*
X253763750Y-80370000D02*
X253763750Y-66400000D01*
X267733750Y-66400000D02*
X267733750Y-80370000D01*
X267733750Y-80370000D02*
X253763750Y-80370000D01*
%TO.C,SW24*%
X196613750Y-66400000D02*
X210583750Y-66400000D01*
X196613750Y-80370000D02*
X196613750Y-66400000D01*
X210583750Y-66400000D02*
X210583750Y-80370000D01*
X210583750Y-80370000D02*
X196613750Y-80370000D01*
%TO.C,SW20*%
X120413750Y-66400000D02*
X134383750Y-66400000D01*
X120413750Y-80370000D02*
X120413750Y-66400000D01*
X134383750Y-66400000D02*
X134383750Y-80370000D01*
X134383750Y-80370000D02*
X120413750Y-80370000D01*
%TO.C,SW61*%
X282121250Y-123680000D02*
X296091250Y-123680000D01*
X282121250Y-137650000D02*
X282121250Y-123680000D01*
X296091250Y-123680000D02*
X296091250Y-137650000D01*
X296091250Y-137650000D02*
X282121250Y-137650000D01*
%TO.C,SW25*%
X215663750Y-66400000D02*
X229633750Y-66400000D01*
X215663750Y-80370000D02*
X215663750Y-66400000D01*
X229633750Y-66400000D02*
X229633750Y-80370000D01*
X229633750Y-80370000D02*
X215663750Y-80370000D01*
%TO.C,SW51*%
X210921250Y-104500000D02*
X224891250Y-104500000D01*
X210921250Y-118470000D02*
X210921250Y-104500000D01*
X224891250Y-104500000D02*
X224891250Y-118470000D01*
X224891250Y-118470000D02*
X210921250Y-118470000D01*
%TO.C,SW8*%
X149021250Y-47350000D02*
X162991250Y-47350000D01*
X149021250Y-61320000D02*
X149021250Y-47350000D01*
X162991250Y-47350000D02*
X162991250Y-61320000D01*
X162991250Y-61320000D02*
X149021250Y-61320000D01*
%TO.C,SW35*%
X144258750Y-85450000D02*
X158228750Y-85450000D01*
X144258750Y-99420000D02*
X144258750Y-85450000D01*
X158228750Y-85450000D02*
X158228750Y-99420000D01*
X158228750Y-99420000D02*
X144258750Y-99420000D01*
%TO.C,SW58*%
X155911250Y-123680000D02*
X169881250Y-123680000D01*
X155911250Y-137650000D02*
X155911250Y-123680000D01*
X169881250Y-123680000D02*
X169881250Y-137650000D01*
X169881250Y-137650000D02*
X155911250Y-137650000D01*
%TO.C,SW40*%
X239508750Y-85450000D02*
X253478750Y-85450000D01*
X239508750Y-99420000D02*
X239508750Y-85450000D01*
X253478750Y-85450000D02*
X253478750Y-99420000D01*
X253478750Y-99420000D02*
X239508750Y-99420000D01*
%TO.C,SW62*%
X263071250Y-142730000D02*
X277041250Y-142730000D01*
X263071250Y-156700000D02*
X263071250Y-142730000D01*
X277041250Y-142730000D02*
X277041250Y-156700000D01*
X277041250Y-156700000D02*
X263071250Y-156700000D01*
%TO.C,SW13*%
X244271250Y-47350000D02*
X258241250Y-47350000D01*
X244271250Y-61320000D02*
X244271250Y-47350000D01*
X258241250Y-47350000D02*
X258241250Y-61320000D01*
X258241250Y-61320000D02*
X244271250Y-61320000D01*
%TO.C,SW53*%
X249021250Y-104500000D02*
X262991250Y-104500000D01*
X249021250Y-118470000D02*
X249021250Y-104500000D01*
X262991250Y-104500000D02*
X262991250Y-118470000D01*
X262991250Y-118470000D02*
X249021250Y-118470000D01*
%TO.C,SW15*%
X291921250Y-47290000D02*
X305891250Y-47290000D01*
X291921250Y-61260000D02*
X291921250Y-47290000D01*
X305891250Y-47290000D02*
X305891250Y-61260000D01*
X305891250Y-61260000D02*
X291921250Y-61260000D01*
%TO.C,SW59*%
X224971250Y-123680000D02*
X238941250Y-123680000D01*
X224971250Y-137650000D02*
X224971250Y-123680000D01*
X238941250Y-123680000D02*
X238941250Y-137650000D01*
X238941250Y-137650000D02*
X224971250Y-137650000D01*
%TO.C,SW31*%
X68058750Y-85450000D02*
X82028750Y-85450000D01*
X68058750Y-99420000D02*
X68058750Y-85450000D01*
X82028750Y-85450000D02*
X82028750Y-99420000D01*
X82028750Y-99420000D02*
X68058750Y-99420000D01*
%TO.C,SW55*%
X36901250Y-123630000D02*
X50871250Y-123630000D01*
X36901250Y-137600000D02*
X36901250Y-123630000D01*
X50871250Y-123630000D02*
X50871250Y-137600000D01*
X50871250Y-137600000D02*
X36901250Y-137600000D01*
%TO.C,SW41*%
X258558750Y-85450000D02*
X272528750Y-85450000D01*
X258558750Y-99420000D02*
X258558750Y-85450000D01*
X272528750Y-85450000D02*
X272528750Y-99420000D01*
X272528750Y-99420000D02*
X258558750Y-99420000D01*
%TO.C,SW29*%
X296691250Y-66480000D02*
X310661250Y-66480000D01*
X296691250Y-80450000D02*
X296691250Y-66480000D01*
X310661250Y-66480000D02*
X310661250Y-80450000D01*
X310661250Y-80450000D02*
X296691250Y-80450000D01*
%TO.C,SW18*%
X82313750Y-66400000D02*
X96283750Y-66400000D01*
X82313750Y-80370000D02*
X82313750Y-66400000D01*
X96283750Y-66400000D02*
X96283750Y-80370000D01*
X96283750Y-80370000D02*
X82313750Y-80370000D01*
%TO.C,SW1*%
X34721250Y-28300000D02*
X48691250Y-28300000D01*
X34721250Y-42270000D02*
X34721250Y-28300000D01*
X48691250Y-28300000D02*
X48691250Y-42270000D01*
X48691250Y-42270000D02*
X34721250Y-42270000D01*
%TO.C,SW43*%
X46541250Y-104580000D02*
X60511250Y-104580000D01*
X46541250Y-118550000D02*
X46541250Y-104580000D01*
X60511250Y-104580000D02*
X60511250Y-118550000D01*
X60511250Y-118550000D02*
X46541250Y-118550000D01*
%TO.C,SW42*%
X289581250Y-85410000D02*
X303551250Y-85410000D01*
X289581250Y-99380000D02*
X289581250Y-85410000D01*
X303551250Y-85410000D02*
X303551250Y-99380000D01*
X303551250Y-99380000D02*
X289581250Y-99380000D01*
%TO.C,SW19*%
X101363750Y-66400000D02*
X115333750Y-66400000D01*
X101363750Y-80370000D02*
X101363750Y-66400000D01*
X115333750Y-66400000D02*
X115333750Y-80370000D01*
X115333750Y-80370000D02*
X101363750Y-80370000D01*
%TO.C,SW14*%
X263321250Y-47350000D02*
X277291250Y-47350000D01*
X263321250Y-61320000D02*
X263321250Y-47350000D01*
X277291250Y-47350000D02*
X277291250Y-61320000D01*
X277291250Y-61320000D02*
X263321250Y-61320000D01*
%TO.C,SW65*%
X263071250Y-123680000D02*
X277041250Y-123680000D01*
X263071250Y-137650000D02*
X263071250Y-123680000D01*
X277041250Y-123680000D02*
X277041250Y-137650000D01*
X277041250Y-137650000D02*
X263071250Y-137650000D01*
%TO.C,SW7*%
X129971250Y-47350000D02*
X143941250Y-47350000D01*
X129971250Y-61320000D02*
X129971250Y-47350000D01*
X143941250Y-47350000D02*
X143941250Y-61320000D01*
X143941250Y-61320000D02*
X129971250Y-61320000D01*
%TO.C,SW30*%
X41771250Y-85450000D02*
X55741250Y-85450000D01*
X41771250Y-99420000D02*
X41771250Y-85450000D01*
X55741250Y-85450000D02*
X55741250Y-99420000D01*
X55741250Y-99420000D02*
X41771250Y-99420000D01*
%TO.C,SW38*%
X201408750Y-85450000D02*
X215378750Y-85450000D01*
X201408750Y-99420000D02*
X201408750Y-85450000D01*
X215378750Y-85450000D02*
X215378750Y-99420000D01*
X215378750Y-99420000D02*
X201408750Y-99420000D01*
%TO.C,SW32*%
X87108750Y-85450000D02*
X101078750Y-85450000D01*
X87108750Y-99420000D02*
X87108750Y-85450000D01*
X101078750Y-85450000D02*
X101078750Y-99420000D01*
X101078750Y-99420000D02*
X87108750Y-99420000D01*
%TO.C,SW34*%
X125208750Y-85450000D02*
X139178750Y-85450000D01*
X125208750Y-99420000D02*
X125208750Y-85450000D01*
X139178750Y-85450000D02*
X139178750Y-99420000D01*
X139178750Y-99420000D02*
X125208750Y-99420000D01*
%TO.C,SW44*%
X77571250Y-104500000D02*
X91541250Y-104500000D01*
X77571250Y-118470000D02*
X77571250Y-104500000D01*
X91541250Y-104500000D02*
X91541250Y-118470000D01*
X91541250Y-118470000D02*
X77571250Y-118470000D01*
%TO.C,SW47*%
X134721250Y-104500000D02*
X148691250Y-104500000D01*
X134721250Y-118470000D02*
X134721250Y-104500000D01*
X148691250Y-104500000D02*
X148691250Y-118470000D01*
X148691250Y-118470000D02*
X134721250Y-118470000D01*
%TO.C,SW28*%
X272813750Y-66400000D02*
X286783750Y-66400000D01*
X272813750Y-80370000D02*
X272813750Y-66400000D01*
X286783750Y-66400000D02*
X286783750Y-80370000D01*
X286783750Y-80370000D02*
X272813750Y-80370000D01*
%TO.C,SW5*%
X91871250Y-47350000D02*
X105841250Y-47350000D01*
X91871250Y-61320000D02*
X91871250Y-47350000D01*
X105841250Y-47350000D02*
X105841250Y-61320000D01*
X105841250Y-61320000D02*
X91871250Y-61320000D01*
%TO.C,SW4*%
X72821250Y-47350000D02*
X86791250Y-47350000D01*
X72821250Y-61320000D02*
X72821250Y-47350000D01*
X86791250Y-47350000D02*
X86791250Y-61320000D01*
X86791250Y-61320000D02*
X72821250Y-61320000D01*
%TO.C,SW57*%
X84526250Y-123630000D02*
X98496250Y-123630000D01*
X84526250Y-137600000D02*
X84526250Y-123630000D01*
X98496250Y-123630000D02*
X98496250Y-137600000D01*
X98496250Y-137600000D02*
X84526250Y-137600000D01*
%TO.C,SW26*%
X234713750Y-66400000D02*
X248683750Y-66400000D01*
X234713750Y-80370000D02*
X234713750Y-66400000D01*
X248683750Y-66400000D02*
X248683750Y-80370000D01*
X248683750Y-80370000D02*
X234713750Y-80370000D01*
%TO.C,SW63*%
X282121250Y-142730000D02*
X296091250Y-142730000D01*
X282121250Y-156700000D02*
X282121250Y-142730000D01*
X296091250Y-142730000D02*
X296091250Y-156700000D01*
X296091250Y-156700000D02*
X282121250Y-156700000D01*
%TO.C,SW33*%
X106158750Y-85450000D02*
X120128750Y-85450000D01*
X106158750Y-99420000D02*
X106158750Y-85450000D01*
X120128750Y-85450000D02*
X120128750Y-99420000D01*
X120128750Y-99420000D02*
X106158750Y-99420000D01*
%TO.C,SW12*%
X225221250Y-47350000D02*
X239191250Y-47350000D01*
X225221250Y-61320000D02*
X225221250Y-47350000D01*
X239191250Y-47350000D02*
X239191250Y-61320000D01*
X239191250Y-61320000D02*
X225221250Y-61320000D01*
%TO.C,SW52*%
X229971250Y-104500000D02*
X243941250Y-104500000D01*
X229971250Y-118470000D02*
X229971250Y-104500000D01*
X243941250Y-104500000D02*
X243941250Y-118470000D01*
X243941250Y-118470000D02*
X229971250Y-118470000D01*
%TO.C,SW54*%
X284841250Y-104462500D02*
X298811250Y-104462500D01*
X284841250Y-118432500D02*
X284841250Y-104462500D01*
X298811250Y-104462500D02*
X298811250Y-118432500D01*
X298811250Y-118432500D02*
X284841250Y-118432500D01*
%TO.C,SW22*%
X158513750Y-66400000D02*
X172483750Y-66400000D01*
X158513750Y-80370000D02*
X158513750Y-66400000D01*
X172483750Y-66400000D02*
X172483750Y-80370000D01*
X172483750Y-80370000D02*
X158513750Y-80370000D01*
%TO.C,SW16*%
X39451250Y-66400000D02*
X53421250Y-66400000D01*
X39451250Y-80370000D02*
X39451250Y-66400000D01*
X53421250Y-66400000D02*
X53421250Y-80370000D01*
X53421250Y-80370000D02*
X39451250Y-80370000D01*
%TO.C,SW39*%
X220458750Y-85450000D02*
X234428750Y-85450000D01*
X220458750Y-99420000D02*
X220458750Y-85450000D01*
X234428750Y-85450000D02*
X234428750Y-99420000D01*
X234428750Y-99420000D02*
X220458750Y-99420000D01*
%TO.C,SW17*%
X63263750Y-66400000D02*
X77233750Y-66400000D01*
X63263750Y-80370000D02*
X63263750Y-66400000D01*
X77233750Y-66400000D02*
X77233750Y-80370000D01*
X77233750Y-80370000D02*
X63263750Y-80370000D01*
%TO.C,SW46*%
X115671250Y-104500000D02*
X129641250Y-104500000D01*
X115671250Y-118470000D02*
X115671250Y-104500000D01*
X129641250Y-104500000D02*
X129641250Y-118470000D01*
X129641250Y-118470000D02*
X115671250Y-118470000D01*
%TO.C,SW10*%
X187121250Y-47350000D02*
X201091250Y-47350000D01*
X187121250Y-61320000D02*
X187121250Y-47350000D01*
X201091250Y-47350000D02*
X201091250Y-61320000D01*
X201091250Y-61320000D02*
X187121250Y-61320000D01*
%TO.C,SW9*%
X168071250Y-47350000D02*
X182041250Y-47350000D01*
X168071250Y-61320000D02*
X168071250Y-47350000D01*
X182041250Y-47350000D02*
X182041250Y-61320000D01*
X182041250Y-61320000D02*
X168071250Y-61320000D01*
%TO.C,SW56*%
X60713750Y-123630000D02*
X74683750Y-123630000D01*
X60713750Y-137600000D02*
X60713750Y-123630000D01*
X74683750Y-123630000D02*
X74683750Y-137600000D01*
X74683750Y-137600000D02*
X60713750Y-137600000D01*
%TO.C,SW21*%
X139463750Y-66400000D02*
X153433750Y-66400000D01*
X139463750Y-80370000D02*
X139463750Y-66400000D01*
X153433750Y-66400000D02*
X153433750Y-80370000D01*
X153433750Y-80370000D02*
X139463750Y-80370000D01*
%TO.C,SW48*%
X153771250Y-104500000D02*
X167741250Y-104500000D01*
X153771250Y-118470000D02*
X153771250Y-104500000D01*
X167741250Y-104500000D02*
X167741250Y-118470000D01*
X167741250Y-118470000D02*
X153771250Y-118470000D01*
%TO.C,SW3*%
X53771250Y-47350000D02*
X67741250Y-47350000D01*
X53771250Y-61320000D02*
X53771250Y-47350000D01*
X67741250Y-47350000D02*
X67741250Y-61320000D01*
X67741250Y-61320000D02*
X53771250Y-61320000D01*
%TO.C,SW60*%
X244021250Y-123680000D02*
X257991250Y-123680000D01*
X244021250Y-137650000D02*
X244021250Y-123680000D01*
X257991250Y-123680000D02*
X257991250Y-137650000D01*
X257991250Y-137650000D02*
X244021250Y-137650000D01*
%TO.C,SW37*%
X182358750Y-85450000D02*
X196328750Y-85450000D01*
X182358750Y-99420000D02*
X182358750Y-85450000D01*
X196328750Y-85450000D02*
X196328750Y-99420000D01*
X196328750Y-99420000D02*
X182358750Y-99420000D01*
%TO.C,SW23*%
X177563750Y-66400000D02*
X191533750Y-66400000D01*
X177563750Y-80370000D02*
X177563750Y-66400000D01*
X191533750Y-66400000D02*
X191533750Y-80370000D01*
X191533750Y-80370000D02*
X177563750Y-80370000D01*
%TO.C,SW50*%
X191871250Y-104500000D02*
X205841250Y-104500000D01*
X191871250Y-118470000D02*
X191871250Y-104500000D01*
X205841250Y-104500000D02*
X205841250Y-118470000D01*
X205841250Y-118470000D02*
X191871250Y-118470000D01*
%TO.C,SW45*%
X96621250Y-104500000D02*
X110591250Y-104500000D01*
X96621250Y-118470000D02*
X96621250Y-104500000D01*
X110591250Y-104500000D02*
X110591250Y-118470000D01*
X110591250Y-118470000D02*
X96621250Y-118470000D01*
%TD*%
M02*
