M48
; DRILL file {KiCad 9.0.6} date 2026-04-06T18:56:56-0400
; FORMAT={-:-/ absolute / metric / decimal}
; #@! TF.CreationDate,2026-04-06T18:56:56-04:00
; #@! TF.GenerationSoftware,Kicad,Pcbnew,9.0.6
; #@! TF.FileFunction,Plated,1,2,PTH
FMAT,2
METRIC
; #@! TA.AperFunction,Plated,PTH,ViaDrill
T1C0.300
; #@! TA.AperFunction,Plated,PTH,ComponentDrill
T2C0.800
; #@! TA.AperFunction,Plated,PTH,ComponentDrill
T3C1.000
%
G90
G05
T1
X40.745Y-95.945
X41.38Y-33.715
X46.938Y-84.629
X47.73Y-84.515
X49.635Y-80.705
X49.635Y-106.74
X49.704Y-52.765
X50.113Y-38.681
X50.27Y-53.4
X50.27Y-81.34
X50.27Y-106.105
X50.905Y-38.795
X50.905Y-45.78
X50.905Y-65.261
X50.905Y-81.975
X50.905Y-105.47
X51.54Y-53.52
X51.54Y-82.61
X51.54Y-104.835
X51.818Y-51.003
X52.085Y-60.27
X52.14Y-83.77
X52.175Y-36.255
X52.339Y-53.435
X52.703Y-49.458
X54.08Y-68.64
X54.715Y-71.18
X55.35Y-73.72
X55.35Y-104.835
X55.985Y-76.26
X56.62Y-78.8
X57.255Y-77.361
X57.89Y-105.47
X59.795Y-72.281
X60.43Y-42.605
X60.43Y-83.245
X60.43Y-86.42
X60.43Y-106.105
X60.692Y-49.315
X61.7Y-85.785
X62.022Y-55.582
X62.335Y-47.05
X62.335Y-48.35
X62.469Y-43.741
X62.97Y-106.74
X64.185Y-41.97
X64.185Y-43.92
X65.345Y-86.42
X66.145Y-33.715
X66.145Y-86.42
X67.231Y-44.623
X67.415Y-77.961
X68.05Y-61.02
X68.05Y-108.01
X68.536Y-51.495
X68.685Y-38.16
X68.685Y-55.94
X68.685Y-58.48
X68.792Y-48.427
X68.793Y-39.43
X69.993Y-46.415
X70.59Y-50.225
X70.59Y-53.52
X70.59Y-108.645
X71.225Y-34.985
X71.225Y-63.56
X71.86Y-48.32
X73.261Y-72.281
X75.035Y-50.86
X75.035Y-104.2
X75.67Y-57.041
X75.67Y-115.63
X76.305Y-54.67
X76.623Y-116.23
X76.94Y-59.581
X76.94Y-97.85
X77.575Y-62.121
X77.575Y-99.12
X78.21Y-64.661
X78.21Y-99.755
X78.845Y-67.201
X78.845Y-100.39
X79.48Y-74.99
X79.48Y-108.645
X80.115Y-77.361
X80.222Y-107.903
X80.75Y-87.055
X83.925Y-48.32
X83.925Y-74.99
X85.195Y-70.545
X85.195Y-75.625
X86.465Y-96.58
X87.1Y-118.805
X88.37Y-114.995
X89.64Y-122.615
X90.91Y-85.15
X90.91Y-98.52
X90.91Y-114.36
X91.545Y-53.4
X91.545Y-87.69
X92.18Y-52.13
X92.18Y-123.25
X92.815Y-47.05
X93.45Y-68.64
X93.45Y-98.485
X94.085Y-38.16
X94.085Y-43.24
X94.085Y-57.845
X94.085Y-60.385
X94.085Y-71.18
X94.72Y-34.985
X94.72Y-45.145
X94.72Y-62.925
X94.72Y-73.219
X94.72Y-121.345
X95.355Y-52.13
X95.355Y-65.465
X95.355Y-75.625
X95.672Y-39.112
X95.99Y-68.005
X95.99Y-87.69
X97.26Y-83.245
X97.26Y-86.42
X98.53Y-80.07
X98.53Y-83.88
X98.53Y-114.36
X99.165Y-80.705
X99.8Y-81.34
X99.8Y-85.785
X99.8Y-116.265
X100.366Y-81.906
X100.435Y-39.43
X100.435Y-59.115
X101.035Y-42.802
X101.035Y-48.389
X101.07Y-55.94
X101.07Y-83.245
X101.07Y-114.995
X101.705Y-83.88
X101.835Y-49.59
X102.34Y-84.515
X102.34Y-86.42
X102.34Y-115.63
X102.975Y-56.575
X103.369Y-48.955
X103.61Y-61.655
X104.245Y-64.195
X104.88Y-69.275
X104.88Y-98.485
X105.515Y-71.815
X106.12Y-73.72
X106.15Y-50.86
X106.15Y-101.025
X107.42Y-99.12
X108.335Y-54.17
X108.69Y-66.735
X108.69Y-101.66
X109.96Y-99.755
X112.895Y-47.08
X113.124Y-54.481
X113.135Y-55.34
X115.04Y-85.15
X115.04Y-87.055
X115.675Y-54.67
T2
X33.125Y-40.7
X33.125Y-43.24
X33.125Y-45.78
X33.125Y-48.32
X33.125Y-50.86
X33.125Y-53.4
X33.125Y-55.94
X33.125Y-58.48
X33.125Y-61.02
X33.125Y-63.56
X33.125Y-66.1
X33.125Y-68.64
X33.125Y-71.18
X33.125Y-73.72
X33.125Y-76.26
X33.125Y-78.8
X43.365Y-36.89
X48.365Y-36.89
X48.365Y-40.7
X48.365Y-43.24
X48.365Y-45.78
X48.365Y-48.32
X48.365Y-50.86
X48.365Y-53.4
X48.365Y-55.94
X48.365Y-58.48
X48.365Y-61.02
X48.365Y-63.56
X48.365Y-66.1
X48.365Y-68.64
X48.365Y-71.18
X48.365Y-73.72
X48.365Y-76.26
X48.365Y-78.8
X54.715Y-34.39
X54.715Y-36.89
X54.715Y-40.7
X54.715Y-45.7
X58.525Y-40.7
X58.525Y-43.24
X58.525Y-45.78
X58.525Y-48.32
X58.525Y-55.94
X58.525Y-58.48
X58.525Y-61.02
X58.525Y-63.56
X58.525Y-66.1
X58.525Y-68.64
X58.525Y-71.18
X58.525Y-73.72
X58.525Y-76.26
X58.525Y-78.8
X61.145Y-36.89
X61.145Y-52.13
X66.145Y-36.89
X66.145Y-40.7
X66.145Y-43.24
X66.145Y-45.78
X66.145Y-48.32
X66.145Y-52.13
X66.145Y-55.94
X66.145Y-58.48
X66.145Y-61.02
X66.145Y-63.56
X66.145Y-66.1
X66.145Y-68.64
X66.145Y-71.18
X66.145Y-73.72
X66.145Y-76.26
X66.145Y-78.8
X82.02Y-40.7
X82.02Y-43.24
X82.02Y-45.78
X82.02Y-48.32
X82.02Y-50.86
X82.02Y-53.4
X82.02Y-55.94
X82.02Y-58.48
X82.02Y-61.02
X82.02Y-63.56
X82.02Y-66.1
X82.02Y-68.64
X82.02Y-71.18
X82.02Y-73.72
X82.02Y-76.26
X82.02Y-78.8
X83.085Y-96.625
X83.085Y-101.625
X87.1Y-95.31
X87.1Y-102.93
X89.64Y-95.31
X89.64Y-102.93
X92.18Y-95.31
X92.18Y-102.93
X92.26Y-36.89
X94.72Y-95.31
X94.72Y-102.93
X97.26Y-36.89
X97.26Y-40.7
X97.26Y-43.24
X97.26Y-45.78
X97.26Y-48.32
X97.26Y-50.86
X97.26Y-53.4
X97.26Y-55.94
X97.26Y-58.48
X97.26Y-61.02
X97.26Y-63.56
X97.26Y-66.1
X97.26Y-68.64
X97.26Y-71.18
X97.26Y-73.72
X97.26Y-76.26
X97.26Y-78.8
X97.26Y-95.31
X97.26Y-102.93
X99.8Y-95.31
X99.8Y-102.93
X102.34Y-95.31
X102.34Y-102.93
X103.61Y-34.39
X103.61Y-36.89
X103.61Y-40.7
X103.61Y-45.7
X104.88Y-95.31
X104.88Y-102.93
X107.42Y-40.7
X107.42Y-43.24
X107.42Y-45.78
X107.42Y-48.32
X107.42Y-55.94
X107.42Y-58.48
X107.42Y-61.02
X107.42Y-63.56
X107.42Y-66.1
X107.42Y-68.64
X107.42Y-71.18
X107.42Y-73.72
X107.42Y-76.26
X107.42Y-78.8
X107.42Y-95.31
X107.42Y-102.93
X109.96Y-95.31
X109.96Y-102.93
X110.04Y-36.89
X110.04Y-52.13
X112.5Y-95.31
X112.5Y-102.93
X115.04Y-36.89
X115.04Y-40.7
X115.04Y-43.24
X115.04Y-45.78
X115.04Y-48.32
X115.04Y-52.13
X115.04Y-55.94
X115.04Y-58.48
X115.04Y-61.02
X115.04Y-63.56
X115.04Y-66.1
X115.04Y-68.64
X115.04Y-71.18
X115.04Y-73.72
X115.04Y-76.26
X115.04Y-78.8
X115.04Y-95.31
X115.04Y-102.93
T3
X32.62Y-120.57
X35.16Y-120.57
X37.7Y-120.57
X40.24Y-120.57
X44.05Y-118.06
X44.05Y-120.6
X46.59Y-118.06
X46.59Y-120.6
X49.13Y-118.06
X49.13Y-120.6
X51.67Y-118.06
X51.67Y-120.6
X55.48Y-118.03
X55.48Y-120.57
X58.02Y-118.03
X58.02Y-120.57
X60.56Y-118.03
X60.56Y-120.57
X63.1Y-118.03
X63.1Y-120.57
X65.64Y-118.03
X65.64Y-120.57
X68.18Y-118.03
X68.18Y-120.57
X70.72Y-118.03
X70.72Y-120.57
X73.26Y-118.03
X73.26Y-120.57
X75.8Y-118.03
X75.8Y-120.57
X78.34Y-118.03
X78.34Y-120.57
X80.88Y-118.03
X80.88Y-120.57
X83.42Y-118.03
X83.42Y-120.57
X85.96Y-118.03
X85.96Y-120.57
X88.5Y-118.03
X88.5Y-120.57
X91.04Y-118.03
X91.04Y-120.57
X93.58Y-118.03
X93.58Y-120.57
X96.12Y-118.03
X96.12Y-120.57
X98.66Y-118.03
X98.66Y-120.57
X101.2Y-118.03
X101.2Y-120.57
X103.74Y-118.03
X103.74Y-120.57
X106.28Y-118.03
X106.28Y-120.57
X108.82Y-118.03
X108.82Y-120.57
X111.36Y-118.03
X111.36Y-120.57
X113.9Y-118.03
X113.9Y-120.57
X116.44Y-118.03
X116.44Y-120.57
M30
