%TF.GenerationSoftware,KiCad,Pcbnew,9.0.6*%
%TF.CreationDate,2026-04-06T18:56:52-04:00*%
%TF.ProjectId,BankedMemory,42616e6b-6564-44d6-956d-6f72792e6b69,rev?*%
%TF.SameCoordinates,Original*%
%TF.FileFunction,Soldermask,Bot*%
%TF.FilePolarity,Negative*%
%FSLAX46Y46*%
G04 Gerber Fmt 4.6, Leading zero omitted, Abs format (unit mm)*
G04 Created by KiCad (PCBNEW 9.0.6) date 2026-04-06 18:56:52*
%MOMM*%
%LPD*%
G01*
G04 APERTURE LIST*
G04 Aperture macros list*
%AMRoundRect*
0 Rectangle with rounded corners*
0 $1 Rounding radius*
0 $2 $3 $4 $5 $6 $7 $8 $9 X,Y pos of 4 corners*
0 Add a 4 corners polygon primitive as box body*
4,1,4,$2,$3,$4,$5,$6,$7,$8,$9,$2,$3,0*
0 Add four circle primitives for the rounded corners*
1,1,$1+$1,$2,$3*
1,1,$1+$1,$4,$5*
1,1,$1+$1,$6,$7*
1,1,$1+$1,$8,$9*
0 Add four rect primitives between the rounded corners*
20,1,$1+$1,$2,$3,$4,$5,0*
20,1,$1+$1,$4,$5,$6,$7,0*
20,1,$1+$1,$6,$7,$8,$9,0*
20,1,$1+$1,$8,$9,$2,$3,0*%
%AMFreePoly0*
4,1,23,0.550000,-0.750000,0.000000,-0.750000,0.000000,-0.745722,-0.065263,-0.745722,-0.191342,-0.711940,-0.304381,-0.646677,-0.396677,-0.554381,-0.461940,-0.441342,-0.495722,-0.315263,-0.495722,-0.250000,-0.500000,-0.250000,-0.500000,0.250000,-0.495722,0.250000,-0.495722,0.315263,-0.461940,0.441342,-0.396677,0.554381,-0.304381,0.646677,-0.191342,0.711940,-0.065263,0.745722,0.000000,0.745722,
0.000000,0.750000,0.550000,0.750000,0.550000,-0.750000,0.550000,-0.750000,$1*%
%AMFreePoly1*
4,1,23,0.000000,0.745722,0.065263,0.745722,0.191342,0.711940,0.304381,0.646677,0.396677,0.554381,0.461940,0.441342,0.495722,0.315263,0.495722,0.250000,0.500000,0.250000,0.500000,-0.250000,0.495722,-0.250000,0.495722,-0.315263,0.461940,-0.441342,0.396677,-0.554381,0.304381,-0.646677,0.191342,-0.711940,0.065263,-0.745722,0.000000,-0.745722,0.000000,-0.750000,-0.550000,-0.750000,
-0.550000,0.750000,0.000000,0.750000,0.000000,0.745722,0.000000,0.745722,$1*%
G04 Aperture macros list end*
%ADD10RoundRect,0.250000X-0.550000X-0.550000X0.550000X-0.550000X0.550000X0.550000X-0.550000X0.550000X0*%
%ADD11C,1.600000*%
%ADD12RoundRect,0.250000X0.550000X-0.550000X0.550000X0.550000X-0.550000X0.550000X-0.550000X-0.550000X0*%
%ADD13C,3.200000*%
%ADD14R,1.700000X1.700000*%
%ADD15C,1.700000*%
%ADD16FreePoly0,0.000000*%
%ADD17R,1.000000X1.500000*%
%ADD18FreePoly1,0.000000*%
%ADD19FreePoly0,270.000000*%
%ADD20R,1.500000X1.000000*%
%ADD21FreePoly1,270.000000*%
G04 APERTURE END LIST*
%TO.C,JP1*%
G36*
X61615000Y-41450000D02*
G01*
X63115000Y-41450000D01*
X63115000Y-39950000D01*
X61615000Y-39950000D01*
X61615000Y-41450000D01*
G37*
%TO.C,JP2*%
G36*
X110480000Y-41450000D02*
G01*
X111980000Y-41450000D01*
X111980000Y-39950000D01*
X110480000Y-39950000D01*
X110480000Y-41450000D01*
G37*
%TO.C,JP3*%
G36*
X61585000Y-46300000D02*
G01*
X63085000Y-46300000D01*
X63085000Y-47800000D01*
X61585000Y-47800000D01*
X61585000Y-46300000D01*
G37*
%TO.C,JP4*%
G36*
X110480000Y-46330000D02*
G01*
X111980000Y-46330000D01*
X111980000Y-47830000D01*
X110480000Y-47830000D01*
X110480000Y-46330000D01*
G37*
%TD*%
D10*
%TO.C,U7*%
X107420000Y-40700000D03*
D11*
X107420000Y-43240000D03*
X107420000Y-45780000D03*
X107420000Y-48320000D03*
X115040000Y-48320000D03*
X115040000Y-45780000D03*
X115040000Y-43240000D03*
X115040000Y-40700000D03*
%TD*%
%TO.C,C9*%
X66145000Y-36890000D03*
X61145000Y-36890000D03*
%TD*%
D12*
%TO.C,U4*%
X87100000Y-102930000D03*
D11*
X89640000Y-102930000D03*
X92180000Y-102930000D03*
X94720000Y-102930000D03*
X97260000Y-102930000D03*
X99800000Y-102930000D03*
X102340000Y-102930000D03*
X104880000Y-102930000D03*
X107420000Y-102930000D03*
X109960000Y-102930000D03*
X112500000Y-102930000D03*
X115040000Y-102930000D03*
X115040000Y-95310000D03*
X112500000Y-95310000D03*
X109960000Y-95310000D03*
X107420000Y-95310000D03*
X104880000Y-95310000D03*
X102340000Y-95310000D03*
X99800000Y-95310000D03*
X97260000Y-95310000D03*
X94720000Y-95310000D03*
X92180000Y-95310000D03*
X89640000Y-95310000D03*
X87100000Y-95310000D03*
%TD*%
D12*
%TO.C,C10*%
X103610000Y-36890000D03*
D11*
X103610000Y-34390000D03*
%TD*%
D13*
%TO.C,J1*%
X28200000Y-28200000D03*
X121800000Y-28200000D03*
D14*
X116440000Y-118030000D03*
D15*
X116440000Y-120570000D03*
X113900000Y-118030000D03*
X113900000Y-120570000D03*
X111360000Y-118030000D03*
X111360000Y-120570000D03*
X108820000Y-118030000D03*
X108820000Y-120570000D03*
X106280000Y-118030000D03*
X106280000Y-120570000D03*
X103740000Y-118030000D03*
X103740000Y-120570000D03*
X101200000Y-118030000D03*
X101200000Y-120570000D03*
X98660000Y-118030000D03*
X98660000Y-120570000D03*
X96120000Y-118030000D03*
X96120000Y-120570000D03*
X93580000Y-118030000D03*
X93580000Y-120570000D03*
X91040000Y-118030000D03*
X91040000Y-120570000D03*
X88500000Y-118030000D03*
X88500000Y-120570000D03*
X85960000Y-118030000D03*
X85960000Y-120570000D03*
X83420000Y-118030000D03*
X83420000Y-120570000D03*
X80880000Y-118030000D03*
X80880000Y-120570000D03*
X78340000Y-118030000D03*
X78340000Y-120570000D03*
X75800000Y-118030000D03*
X75800000Y-120570000D03*
X73260000Y-118030000D03*
X73260000Y-120570000D03*
X70720000Y-118030000D03*
X70720000Y-120570000D03*
X68180000Y-118030000D03*
X68180000Y-120570000D03*
X65640000Y-118030000D03*
X65640000Y-120570000D03*
X63100000Y-118030000D03*
X63100000Y-120570000D03*
X60560000Y-118030000D03*
X60560000Y-120570000D03*
X58020000Y-118030000D03*
X58020000Y-120570000D03*
X55480000Y-118030000D03*
X55480000Y-120570000D03*
D14*
X51670000Y-118060000D03*
D15*
X51670000Y-120600000D03*
X49130000Y-118060000D03*
X49130000Y-120600000D03*
X46590000Y-118060000D03*
X46590000Y-120600000D03*
X44050000Y-118060000D03*
X44050000Y-120600000D03*
D14*
X40240000Y-120570000D03*
D15*
X37700000Y-120570000D03*
X35160000Y-120570000D03*
X32620000Y-120570000D03*
%TD*%
D11*
%TO.C,C8*%
X54715000Y-45700000D03*
X54715000Y-40700000D03*
%TD*%
%TO.C,C3*%
X115040000Y-52130000D03*
X110040000Y-52130000D03*
%TD*%
%TO.C,C6*%
X115040000Y-36890000D03*
X110040000Y-36890000D03*
%TD*%
D10*
%TO.C,U3*%
X107420000Y-55940000D03*
D11*
X107420000Y-58480000D03*
X107420000Y-61020000D03*
X107420000Y-63560000D03*
X107420000Y-66100000D03*
X107420000Y-68640000D03*
X107420000Y-71180000D03*
X107420000Y-73720000D03*
X107420000Y-76260000D03*
X107420000Y-78800000D03*
X115040000Y-78800000D03*
X115040000Y-76260000D03*
X115040000Y-73720000D03*
X115040000Y-71180000D03*
X115040000Y-68640000D03*
X115040000Y-66100000D03*
X115040000Y-63560000D03*
X115040000Y-61020000D03*
X115040000Y-58480000D03*
X115040000Y-55940000D03*
%TD*%
%TO.C,C11*%
X103610000Y-45700000D03*
X103610000Y-40700000D03*
%TD*%
D10*
%TO.C,U5*%
X58525000Y-55940000D03*
D11*
X58525000Y-58480000D03*
X58525000Y-61020000D03*
X58525000Y-63560000D03*
X58525000Y-66100000D03*
X58525000Y-68640000D03*
X58525000Y-71180000D03*
X58525000Y-73720000D03*
X58525000Y-76260000D03*
X58525000Y-78800000D03*
X66145000Y-78800000D03*
X66145000Y-76260000D03*
X66145000Y-73720000D03*
X66145000Y-71180000D03*
X66145000Y-68640000D03*
X66145000Y-66100000D03*
X66145000Y-63560000D03*
X66145000Y-61020000D03*
X66145000Y-58480000D03*
X66145000Y-55940000D03*
%TD*%
D10*
%TO.C,U6*%
X58525000Y-40700000D03*
D11*
X58525000Y-43240000D03*
X58525000Y-45780000D03*
X58525000Y-48320000D03*
X66145000Y-48320000D03*
X66145000Y-45780000D03*
X66145000Y-43240000D03*
X66145000Y-40700000D03*
%TD*%
%TO.C,C5*%
X66145000Y-52130000D03*
X61145000Y-52130000D03*
%TD*%
D10*
%TO.C,U1*%
X33125000Y-40700000D03*
D11*
X33125000Y-43240000D03*
X33125000Y-45780000D03*
X33125000Y-48320000D03*
X33125000Y-50860000D03*
X33125000Y-53400000D03*
X33125000Y-55940000D03*
X33125000Y-58480000D03*
X33125000Y-61020000D03*
X33125000Y-63560000D03*
X33125000Y-66100000D03*
X33125000Y-68640000D03*
X33125000Y-71180000D03*
X33125000Y-73720000D03*
X33125000Y-76260000D03*
X33125000Y-78800000D03*
X48365000Y-78800000D03*
X48365000Y-76260000D03*
X48365000Y-73720000D03*
X48365000Y-71180000D03*
X48365000Y-68640000D03*
X48365000Y-66100000D03*
X48365000Y-63560000D03*
X48365000Y-61020000D03*
X48365000Y-58480000D03*
X48365000Y-55940000D03*
X48365000Y-53400000D03*
X48365000Y-50860000D03*
X48365000Y-48320000D03*
X48365000Y-45780000D03*
X48365000Y-43240000D03*
X48365000Y-40700000D03*
%TD*%
D12*
%TO.C,C7*%
X54715000Y-36890000D03*
D11*
X54715000Y-34390000D03*
%TD*%
%TO.C,C1*%
X48365000Y-36890000D03*
X43365000Y-36890000D03*
%TD*%
D10*
%TO.C,U2*%
X82020000Y-40700000D03*
D11*
X82020000Y-43240000D03*
X82020000Y-45780000D03*
X82020000Y-48320000D03*
X82020000Y-50860000D03*
X82020000Y-53400000D03*
X82020000Y-55940000D03*
X82020000Y-58480000D03*
X82020000Y-61020000D03*
X82020000Y-63560000D03*
X82020000Y-66100000D03*
X82020000Y-68640000D03*
X82020000Y-71180000D03*
X82020000Y-73720000D03*
X82020000Y-76260000D03*
X82020000Y-78800000D03*
X97260000Y-78800000D03*
X97260000Y-76260000D03*
X97260000Y-73720000D03*
X97260000Y-71180000D03*
X97260000Y-68640000D03*
X97260000Y-66100000D03*
X97260000Y-63560000D03*
X97260000Y-61020000D03*
X97260000Y-58480000D03*
X97260000Y-55940000D03*
X97260000Y-53400000D03*
X97260000Y-50860000D03*
X97260000Y-48320000D03*
X97260000Y-45780000D03*
X97260000Y-43240000D03*
X97260000Y-40700000D03*
%TD*%
%TO.C,C4*%
X83085000Y-96625000D03*
X83085000Y-101625000D03*
%TD*%
%TO.C,C2*%
X97260000Y-36890000D03*
X92260000Y-36890000D03*
%TD*%
D16*
%TO.C,JP1*%
X61065000Y-40700000D03*
D17*
X62365000Y-40700000D03*
D18*
X63665000Y-40700000D03*
%TD*%
D16*
%TO.C,JP2*%
X109930000Y-40700000D03*
D17*
X111230000Y-40700000D03*
D18*
X112530000Y-40700000D03*
%TD*%
D19*
%TO.C,JP3*%
X62335000Y-45750000D03*
D20*
X62335000Y-47050000D03*
D21*
X62335000Y-48350000D03*
%TD*%
D19*
%TO.C,JP4*%
X111230000Y-45780000D03*
D20*
X111230000Y-47080000D03*
D21*
X111230000Y-48380000D03*
%TD*%
M02*
