%TF.GenerationSoftware,KiCad,Pcbnew,9.0.6*%
%TF.CreationDate,2026-04-06T18:56:52-04:00*%
%TF.ProjectId,BankedMemory,42616e6b-6564-44d6-956d-6f72792e6b69,rev?*%
%TF.SameCoordinates,Original*%
%TF.FileFunction,Legend,Bot*%
%TF.FilePolarity,Positive*%
%FSLAX46Y46*%
G04 Gerber Fmt 4.6, Leading zero omitted, Abs format (unit mm)*
G04 Created by KiCad (PCBNEW 9.0.6) date 2026-04-06 18:56:52*
%MOMM*%
%LPD*%
G01*
G04 APERTURE LIST*
%ADD10C,0.100000*%
%ADD11C,0.150000*%
%ADD12C,0.120000*%
G04 APERTURE END LIST*
D10*
G36*
X97243963Y-123333852D02*
G01*
X97249279Y-123435560D01*
X97259006Y-123471074D01*
X97277023Y-123497963D01*
X97306009Y-123517425D01*
X97348648Y-123530661D01*
X97407622Y-123538870D01*
X97485611Y-123543252D01*
X97720603Y-123545336D01*
X97972245Y-123539833D01*
X98052566Y-123527587D01*
X98108458Y-123504241D01*
X98128626Y-123487287D01*
X98144347Y-123466216D01*
X98164660Y-123409936D01*
X98173826Y-123331822D01*
X98176272Y-123228295D01*
X98176360Y-123179430D01*
X98173196Y-123046690D01*
X98162775Y-122951946D01*
X98151529Y-122907365D01*
X98136295Y-122873405D01*
X98109132Y-122841092D01*
X98086874Y-122827337D01*
X98056383Y-122816751D01*
X97954271Y-122803448D01*
X97722709Y-122798777D01*
X97531565Y-122801751D01*
X97400461Y-122810844D01*
X97342042Y-122820686D01*
X97306292Y-122833575D01*
X97298551Y-122838986D01*
X97281561Y-122858465D01*
X97271953Y-122887679D01*
X97264937Y-122972251D01*
X96838672Y-122972251D01*
X96838672Y-122902459D01*
X96841730Y-122807532D01*
X96851414Y-122728002D01*
X96863983Y-122675796D01*
X96881361Y-122631030D01*
X96900964Y-122597079D01*
X96924831Y-122567742D01*
X96985124Y-122521403D01*
X97000331Y-122513196D01*
X97044799Y-122493584D01*
X97097208Y-122478032D01*
X97234899Y-122458100D01*
X97490371Y-122448593D01*
X97600893Y-122448075D01*
X97919233Y-122451538D01*
X98156080Y-122464054D01*
X98259187Y-122476362D01*
X98343018Y-122493171D01*
X98398028Y-122510310D01*
X98443488Y-122531022D01*
X98476996Y-122552738D01*
X98504837Y-122577742D01*
X98547119Y-122638440D01*
X98562691Y-122672840D01*
X98576485Y-122715204D01*
X98586895Y-122768195D01*
X98599619Y-122936843D01*
X98602625Y-123181536D01*
X98599929Y-123398293D01*
X98592783Y-123533796D01*
X98592092Y-123541031D01*
X98581006Y-123609479D01*
X98564612Y-123667479D01*
X98546827Y-123707802D01*
X98524599Y-123742701D01*
X98469867Y-123795570D01*
X98440875Y-123814064D01*
X98398614Y-123834731D01*
X98348467Y-123851824D01*
X98215748Y-123876147D01*
X97983605Y-123891283D01*
X97603000Y-123895947D01*
X97377079Y-123892785D01*
X97209392Y-123882377D01*
X97121494Y-123870572D01*
X97048410Y-123854420D01*
X97025518Y-123847678D01*
X96977446Y-123828927D01*
X96936160Y-123805730D01*
X96905608Y-123781558D01*
X96879730Y-123753221D01*
X96842316Y-123685494D01*
X96819300Y-123593039D01*
X96811378Y-123467026D01*
X96812583Y-123424399D01*
X96815500Y-123333852D01*
X97243963Y-123333852D01*
G37*
G36*
X96679853Y-122877821D02*
G01*
X96679853Y-123872500D01*
X96308177Y-123872500D01*
X96308177Y-123460157D01*
X96304821Y-123344301D01*
X96293056Y-123268057D01*
X96281127Y-123235203D01*
X96264854Y-123207360D01*
X96262015Y-123203427D01*
X96218948Y-123166115D01*
X96153579Y-123140650D01*
X96072971Y-123131894D01*
X96008965Y-123135083D01*
X95959693Y-123145684D01*
X95933901Y-123157850D01*
X95913640Y-123174602D01*
X95889417Y-123218208D01*
X95878339Y-123289831D01*
X95877699Y-123319198D01*
X95526997Y-123319198D01*
X95526997Y-123251787D01*
X95530021Y-123169322D01*
X95539472Y-123097789D01*
X95552307Y-123047223D01*
X95570083Y-123003241D01*
X95590157Y-122969601D01*
X95614543Y-122940667D01*
X95674119Y-122897599D01*
X95755244Y-122868803D01*
X95870074Y-122853944D01*
X95928074Y-122852541D01*
X96010682Y-122855556D01*
X96081971Y-122864938D01*
X96132922Y-122877777D01*
X96177651Y-122895542D01*
X96213390Y-122916157D01*
X96245019Y-122941269D01*
X96297642Y-123005456D01*
X96310283Y-123026931D01*
X96329151Y-123026931D01*
X96329151Y-122877821D01*
X96679853Y-122877821D01*
G37*
G36*
X94873287Y-122855495D02*
G01*
X95021198Y-122864445D01*
X95115401Y-122876018D01*
X95189675Y-122891587D01*
X95245720Y-122911343D01*
X95290960Y-122936938D01*
X95328566Y-122965830D01*
X95355384Y-122994142D01*
X95377176Y-123026008D01*
X95406595Y-123100781D01*
X95420018Y-123188955D01*
X95048250Y-123188955D01*
X95038698Y-123145989D01*
X95029490Y-123130296D01*
X95015720Y-123117942D01*
X94968429Y-123101451D01*
X94859706Y-123093019D01*
X94743801Y-123091960D01*
X94623106Y-123096047D01*
X94580376Y-123102454D01*
X94547681Y-123112926D01*
X94526819Y-123125671D01*
X94511491Y-123142511D01*
X94494805Y-123187593D01*
X94489728Y-123265709D01*
X94489728Y-123318190D01*
X94506489Y-123318190D01*
X94540134Y-123287166D01*
X94577367Y-123265302D01*
X94650606Y-123246763D01*
X94787857Y-123240521D01*
X95038436Y-123244215D01*
X95187422Y-123258346D01*
X95247827Y-123272028D01*
X95293397Y-123286947D01*
X95333259Y-123306572D01*
X95364700Y-123328696D01*
X95391536Y-123354982D01*
X95430712Y-123418276D01*
X95453782Y-123501563D01*
X95459860Y-123587193D01*
X95456815Y-123651459D01*
X95447218Y-123706993D01*
X95434272Y-123745673D01*
X95416280Y-123779272D01*
X95395369Y-123805489D01*
X95369775Y-123827951D01*
X95303108Y-123862498D01*
X95204779Y-123885606D01*
X95053667Y-123895782D01*
X95027276Y-123895947D01*
X94826412Y-123892674D01*
X94701591Y-123881488D01*
X94630412Y-123862424D01*
X94587760Y-123841779D01*
X94552541Y-123816829D01*
X94506307Y-123761130D01*
X94491834Y-123734289D01*
X94477088Y-123734289D01*
X94477088Y-123870759D01*
X94120066Y-123870759D01*
X94120066Y-123545153D01*
X94495956Y-123545153D01*
X94499064Y-123573228D01*
X94509093Y-123596628D01*
X94542454Y-123625348D01*
X94606453Y-123645369D01*
X94732271Y-123657126D01*
X94832004Y-123658726D01*
X94937570Y-123655505D01*
X95011487Y-123644681D01*
X95042928Y-123633609D01*
X95065283Y-123618671D01*
X95077594Y-123603173D01*
X95084989Y-123584559D01*
X95088184Y-123555686D01*
X95085040Y-123527267D01*
X95074754Y-123504080D01*
X95041467Y-123477348D01*
X94976537Y-123459596D01*
X94844128Y-123450775D01*
X94800496Y-123450448D01*
X94630366Y-123452554D01*
X94561077Y-123460981D01*
X94536138Y-123472825D01*
X94516947Y-123488685D01*
X94504643Y-123506518D01*
X94497623Y-123527282D01*
X94495956Y-123545153D01*
X94120066Y-123545153D01*
X94120066Y-123272028D01*
X94123206Y-123170362D01*
X94133458Y-123091553D01*
X94145723Y-123046436D01*
X94162640Y-123007968D01*
X94204147Y-122951277D01*
X94242435Y-122917831D01*
X94284884Y-122892705D01*
X94367585Y-122868232D01*
X94505930Y-122855343D01*
X94689213Y-122852541D01*
X94873287Y-122855495D01*
G37*
G36*
X93958500Y-122877821D02*
G01*
X93958500Y-123872500D01*
X93586823Y-123872500D01*
X93586823Y-123474903D01*
X93582735Y-123329960D01*
X93576323Y-123282890D01*
X93565843Y-123247276D01*
X93534285Y-123199280D01*
X93532235Y-123197107D01*
X93509348Y-123177429D01*
X93481398Y-123161544D01*
X93406010Y-123140186D01*
X93278161Y-123131894D01*
X93183890Y-123135003D01*
X93112661Y-123145042D01*
X93074753Y-123156686D01*
X93045012Y-123172563D01*
X93028209Y-123186574D01*
X93007043Y-123211737D01*
X92993431Y-123243643D01*
X92983501Y-123325087D01*
X92982047Y-123420223D01*
X92982047Y-123872500D01*
X92610371Y-123872500D01*
X92610371Y-123420223D01*
X92613921Y-123261652D01*
X92627050Y-123149246D01*
X92639784Y-123101301D01*
X92657215Y-123060197D01*
X92704686Y-122992602D01*
X92719547Y-122976464D01*
X92754030Y-122945468D01*
X92792542Y-122919429D01*
X92879753Y-122882788D01*
X92997580Y-122860427D01*
X93166878Y-122852541D01*
X93262301Y-122855562D01*
X93343614Y-122864985D01*
X93399951Y-122877637D01*
X93448748Y-122895101D01*
X93486424Y-122914913D01*
X93519243Y-122938960D01*
X93571175Y-122998671D01*
X93588930Y-123028946D01*
X93607797Y-123028946D01*
X93607797Y-122877821D01*
X93958500Y-122877821D01*
G37*
G36*
X92449079Y-122471523D02*
G01*
X92449079Y-123872500D01*
X92077402Y-123872500D01*
X92077402Y-123473895D01*
X91982880Y-123473895D01*
X91583910Y-123872500D01*
X91090417Y-123872500D01*
X91674218Y-123341638D01*
X91159751Y-122879286D01*
X91657457Y-122879286D01*
X91997626Y-123203060D01*
X92077402Y-123203060D01*
X92077402Y-122471523D01*
X92449079Y-122471523D01*
G37*
G36*
X90618161Y-122855722D02*
G01*
X90755851Y-122866263D01*
X90827878Y-122878172D01*
X90887383Y-122894498D01*
X90931577Y-122912742D01*
X90970634Y-122935005D01*
X90979134Y-122940744D01*
X91014706Y-122969456D01*
X91043865Y-123002080D01*
X91064098Y-123034283D01*
X91080357Y-123071531D01*
X91102786Y-123168967D01*
X91113075Y-123326690D01*
X91113498Y-123378640D01*
X91110338Y-123502366D01*
X91099946Y-123599995D01*
X91087672Y-123655195D01*
X91070737Y-123701574D01*
X91051739Y-123736167D01*
X91028506Y-123766310D01*
X90987560Y-123803623D01*
X90950908Y-123827094D01*
X90908563Y-123846751D01*
X90802092Y-123875362D01*
X90639887Y-123892226D01*
X90473001Y-123895947D01*
X90297481Y-123892770D01*
X90153413Y-123882255D01*
X90069677Y-123869740D01*
X89998847Y-123852400D01*
X89949332Y-123834075D01*
X89907342Y-123811827D01*
X89875569Y-123788269D01*
X89848973Y-123761110D01*
X89810226Y-123696574D01*
X89785345Y-123608987D01*
X89777917Y-123554404D01*
X90147578Y-123554404D01*
X90157111Y-123590176D01*
X90174525Y-123616973D01*
X90215363Y-123640509D01*
X90294097Y-123654311D01*
X90443692Y-123658726D01*
X90543337Y-123655705D01*
X90618968Y-123646286D01*
X90660436Y-123635060D01*
X90691385Y-123619929D01*
X90695659Y-123616960D01*
X90715698Y-123597549D01*
X90729361Y-123572476D01*
X90740541Y-123507405D01*
X90741821Y-123456310D01*
X89771689Y-123456310D01*
X89769582Y-123355560D01*
X89772553Y-123252703D01*
X90143365Y-123252703D01*
X90741821Y-123252703D01*
X90737111Y-123204187D01*
X90725069Y-123165486D01*
X90711367Y-123143769D01*
X90692609Y-123126009D01*
X90639771Y-123101647D01*
X90546847Y-123087157D01*
X90428946Y-123083626D01*
X90328586Y-123086666D01*
X90253907Y-123096228D01*
X90214779Y-123107340D01*
X90185953Y-123122309D01*
X90172766Y-123133634D01*
X90156337Y-123155474D01*
X90147690Y-123185871D01*
X90143365Y-123252703D01*
X89772553Y-123252703D01*
X89772617Y-123250498D01*
X89782137Y-123162887D01*
X89794600Y-123104734D01*
X89811771Y-123054907D01*
X89831191Y-123016793D01*
X89854768Y-122983607D01*
X89891398Y-122947063D01*
X89928354Y-122921025D01*
X89970593Y-122899877D01*
X90068969Y-122872640D01*
X90225450Y-122856762D01*
X90435266Y-122852541D01*
X90618161Y-122855722D01*
G37*
G36*
X89631005Y-122877821D02*
G01*
X89631005Y-123872500D01*
X89259328Y-123872500D01*
X89259328Y-123460157D01*
X89255973Y-123344301D01*
X89244207Y-123268057D01*
X89232278Y-123235203D01*
X89216005Y-123207360D01*
X89213166Y-123203427D01*
X89170099Y-123166115D01*
X89104731Y-123140650D01*
X89024122Y-123131894D01*
X88960117Y-123135083D01*
X88910845Y-123145684D01*
X88885053Y-123157850D01*
X88864791Y-123174602D01*
X88840568Y-123218208D01*
X88829491Y-123289831D01*
X88828850Y-123319198D01*
X88478148Y-123319198D01*
X88478148Y-123251787D01*
X88481173Y-123169322D01*
X88490624Y-123097789D01*
X88503459Y-123047223D01*
X88521234Y-123003241D01*
X88541309Y-122969601D01*
X88565694Y-122940667D01*
X88625270Y-122897599D01*
X88706396Y-122868803D01*
X88821225Y-122853944D01*
X88879225Y-122852541D01*
X88961833Y-122855556D01*
X89033122Y-122864938D01*
X89084074Y-122877777D01*
X89128803Y-122895542D01*
X89164542Y-122916157D01*
X89196170Y-122941269D01*
X89248794Y-123005456D01*
X89261435Y-123026931D01*
X89280303Y-123026931D01*
X89280303Y-122877821D01*
X89631005Y-122877821D01*
G37*
G36*
X88473294Y-122879286D02*
G01*
X88030176Y-123872500D01*
X87881066Y-123872500D01*
X87916933Y-123953151D01*
X87952678Y-124007437D01*
X87974771Y-124027962D01*
X87999665Y-124042433D01*
X88059039Y-124056121D01*
X88103632Y-124057330D01*
X88187621Y-124059437D01*
X88187621Y-124313510D01*
X88028070Y-124319830D01*
X87942995Y-124316839D01*
X87871962Y-124307622D01*
X87822700Y-124295165D01*
X87780266Y-124278079D01*
X87757143Y-124265242D01*
X87724066Y-124243295D01*
X87697399Y-124216067D01*
X87669073Y-124171295D01*
X87631018Y-124096714D01*
X87584952Y-124000635D01*
X87055739Y-122879286D01*
X87467349Y-122879286D01*
X87782331Y-123601665D01*
X88065897Y-122879286D01*
X88473294Y-122879286D01*
G37*
G36*
X86556384Y-123227698D02*
G01*
X86558399Y-123511264D01*
X85672256Y-123511264D01*
X85672256Y-123227698D01*
X86556384Y-123227698D01*
G37*
G36*
X85184350Y-123872500D02*
G01*
X84697177Y-123872500D01*
X84577468Y-123633996D01*
X83651390Y-123633996D01*
X83531681Y-123872500D01*
X83046615Y-123872500D01*
X83331807Y-123327349D01*
X83800501Y-123327349D01*
X84426251Y-123327349D01*
X84155416Y-122797037D01*
X84071427Y-122797037D01*
X83800501Y-123327349D01*
X83331807Y-123327349D01*
X83779526Y-122471523D01*
X84443104Y-122471523D01*
X85184350Y-123872500D01*
G37*
G36*
X82297386Y-122855664D02*
G01*
X82397179Y-122865798D01*
X82455770Y-122878063D01*
X82504818Y-122894976D01*
X82540343Y-122913553D01*
X82570609Y-122936153D01*
X82617678Y-122992890D01*
X82628776Y-123012185D01*
X82647644Y-123012185D01*
X82647644Y-122877821D01*
X82998346Y-122877821D01*
X82998346Y-124284476D01*
X82626669Y-124284476D01*
X82626669Y-123742715D01*
X82609908Y-123742715D01*
X82580748Y-123783468D01*
X82547930Y-123816926D01*
X82516847Y-123839486D01*
X82481194Y-123857759D01*
X82391939Y-123882796D01*
X82254784Y-123895029D01*
X82189872Y-123895947D01*
X82043063Y-123892684D01*
X81921829Y-123881569D01*
X81853777Y-123868739D01*
X81795498Y-123850891D01*
X81754030Y-123831823D01*
X81718439Y-123808538D01*
X81690626Y-123783179D01*
X81667125Y-123753718D01*
X81631623Y-123680778D01*
X81608481Y-123577844D01*
X81598071Y-123421795D01*
X81597735Y-123379556D01*
X81598230Y-123358582D01*
X81969412Y-123358582D01*
X81972757Y-123450564D01*
X81984447Y-123513683D01*
X81996215Y-123540290D01*
X82012230Y-123560971D01*
X82026107Y-123572630D01*
X82077359Y-123595744D01*
X82177628Y-123612281D01*
X82297033Y-123616686D01*
X82413370Y-123613265D01*
X82499606Y-123601043D01*
X82537366Y-123588805D01*
X82567247Y-123572073D01*
X82586891Y-123554076D01*
X82601995Y-123532149D01*
X82620760Y-123473628D01*
X82626669Y-123385876D01*
X82623045Y-123298664D01*
X82609395Y-123233702D01*
X82596303Y-123206624D01*
X82578361Y-123184670D01*
X82531360Y-123156315D01*
X82453554Y-123138975D01*
X82284394Y-123131894D01*
X82169949Y-123135366D01*
X82086213Y-123147943D01*
X82050978Y-123160218D01*
X82023243Y-123176965D01*
X82004985Y-123195136D01*
X81991086Y-123217302D01*
X81974014Y-123277915D01*
X81969412Y-123358582D01*
X81598230Y-123358582D01*
X81600959Y-123242908D01*
X81611801Y-123139212D01*
X81623911Y-123085662D01*
X81640561Y-123041314D01*
X81659272Y-123008458D01*
X81682184Y-122979805D01*
X81700592Y-122961810D01*
X81732534Y-122935564D01*
X81769279Y-122913341D01*
X81859552Y-122880289D01*
X81989454Y-122859543D01*
X82173111Y-122852541D01*
X82297386Y-122855664D01*
G37*
G36*
X81458151Y-122877821D02*
G01*
X81458151Y-123872500D01*
X81086474Y-123872500D01*
X81086474Y-123460157D01*
X81083119Y-123344301D01*
X81071353Y-123268057D01*
X81059424Y-123235203D01*
X81043151Y-123207360D01*
X81040312Y-123203427D01*
X80997245Y-123166115D01*
X80931876Y-123140650D01*
X80851268Y-123131894D01*
X80787262Y-123135083D01*
X80737991Y-123145684D01*
X80712199Y-123157850D01*
X80691937Y-123174602D01*
X80667714Y-123218208D01*
X80656637Y-123289831D01*
X80655996Y-123319198D01*
X80305294Y-123319198D01*
X80305294Y-123251787D01*
X80308319Y-123169322D01*
X80317769Y-123097789D01*
X80330604Y-123047223D01*
X80348380Y-123003241D01*
X80368455Y-122969601D01*
X80392840Y-122940667D01*
X80452416Y-122897599D01*
X80533541Y-122868803D01*
X80648371Y-122853944D01*
X80706371Y-122852541D01*
X80788979Y-122855556D01*
X80860268Y-122864938D01*
X80911220Y-122877777D01*
X80955948Y-122895542D01*
X80991688Y-122916157D01*
X81023316Y-122941269D01*
X81075940Y-123005456D01*
X81088581Y-123026931D01*
X81107448Y-123026931D01*
X81107448Y-122877821D01*
X81458151Y-122877821D01*
G37*
G36*
X80200788Y-122879011D02*
G01*
X80200788Y-123872500D01*
X79829112Y-123872500D01*
X79829112Y-122879011D01*
X80200788Y-122879011D01*
G37*
G36*
X80200788Y-122471523D02*
G01*
X80200788Y-122750875D01*
X79829112Y-122750875D01*
X79829112Y-122471523D01*
X80200788Y-122471523D01*
G37*
G36*
X79661500Y-122471523D02*
G01*
X79661500Y-123872500D01*
X79289824Y-123872500D01*
X79289824Y-122471523D01*
X79661500Y-122471523D01*
G37*
G36*
X78156659Y-122991851D02*
G01*
X78156659Y-122943491D01*
X78151033Y-122854708D01*
X78144619Y-122826024D01*
X78134851Y-122805895D01*
X78110406Y-122787878D01*
X78044235Y-122773392D01*
X77862789Y-122764045D01*
X77684141Y-122762691D01*
X77456251Y-122765324D01*
X77401206Y-122769800D01*
X77367052Y-122777437D01*
X77339915Y-122788307D01*
X77320726Y-122804541D01*
X77304144Y-122844362D01*
X77299825Y-122903558D01*
X77305231Y-122966395D01*
X77314774Y-122988269D01*
X77331353Y-123005094D01*
X77379626Y-123024575D01*
X77490838Y-123040280D01*
X77566538Y-123046531D01*
X78040006Y-123084402D01*
X78169207Y-123094891D01*
X78262529Y-123110615D01*
X78338957Y-123130971D01*
X78386427Y-123150084D01*
X78426202Y-123173055D01*
X78455526Y-123196938D01*
X78480031Y-123224599D01*
X78516662Y-123292438D01*
X78522016Y-123307291D01*
X78542114Y-123402701D01*
X78552531Y-123591094D01*
X78553523Y-123712948D01*
X78547203Y-123872500D01*
X76877773Y-123872500D01*
X76877773Y-123551290D01*
X78156659Y-123551290D01*
X78156659Y-123536543D01*
X78151854Y-123489557D01*
X78138921Y-123456315D01*
X78106270Y-123427550D01*
X78087325Y-123418757D01*
X78012264Y-123405484D01*
X77390133Y-123361971D01*
X77285685Y-123353439D01*
X77196341Y-123339642D01*
X77131956Y-123323693D01*
X77077181Y-123303657D01*
X77036424Y-123282479D01*
X77002351Y-123257904D01*
X76961762Y-123212677D01*
X76940761Y-123175010D01*
X76924592Y-123132225D01*
X76905843Y-123027852D01*
X76900854Y-122897238D01*
X76904001Y-122787817D01*
X76914309Y-122700791D01*
X76926608Y-122650869D01*
X76943583Y-122609060D01*
X76962594Y-122578189D01*
X76985825Y-122551699D01*
X77024777Y-122521165D01*
X77073203Y-122494295D01*
X77134031Y-122475669D01*
X77267716Y-122460822D01*
X77586524Y-122454270D01*
X77770236Y-122453937D01*
X78027191Y-122457677D01*
X78222953Y-122472131D01*
X78302443Y-122485320D01*
X78368997Y-122503286D01*
X78414119Y-122521764D01*
X78452082Y-122544149D01*
X78480548Y-122567862D01*
X78504135Y-122595260D01*
X78538235Y-122661752D01*
X78559337Y-122755354D01*
X78568021Y-122901258D01*
X78568178Y-122930943D01*
X78568178Y-122991851D01*
X78156659Y-122991851D01*
G37*
G36*
X76066180Y-122456868D02*
G01*
X76260350Y-122465661D01*
X76389501Y-122479216D01*
X76441858Y-122489439D01*
X76489691Y-122504818D01*
X76531224Y-122524289D01*
X76568347Y-122548238D01*
X76600123Y-122575712D01*
X76627504Y-122607176D01*
X76668474Y-122681150D01*
X76687721Y-122750051D01*
X76700875Y-122859410D01*
X76704417Y-123077471D01*
X76704483Y-123152044D01*
X76702387Y-123467060D01*
X76697412Y-123536602D01*
X76687721Y-123594063D01*
X76676381Y-123640451D01*
X76659877Y-123682996D01*
X76639096Y-123720388D01*
X76613703Y-123753924D01*
X76550421Y-123808352D01*
X76469423Y-123846618D01*
X76389501Y-123864897D01*
X76222497Y-123880898D01*
X75824567Y-123890085D01*
X75582775Y-123887147D01*
X75388096Y-123878303D01*
X75261832Y-123864897D01*
X75209458Y-123854677D01*
X75161617Y-123839300D01*
X75120089Y-123819836D01*
X75082973Y-123795895D01*
X75051207Y-123768431D01*
X75023835Y-123736977D01*
X74982872Y-123663015D01*
X74963611Y-123594063D01*
X74949701Y-123467850D01*
X74946850Y-123171004D01*
X75373115Y-123171004D01*
X75377357Y-123339903D01*
X75386607Y-123399309D01*
X75404120Y-123444579D01*
X75432527Y-123477632D01*
X75474461Y-123500387D01*
X75532552Y-123514765D01*
X75609434Y-123522684D01*
X75853968Y-123526835D01*
X76002879Y-123525231D01*
X76112146Y-123516936D01*
X76187893Y-123496725D01*
X76215111Y-123480517D01*
X76236245Y-123459371D01*
X76260932Y-123408391D01*
X76274499Y-123323502D01*
X76278218Y-123164684D01*
X76276945Y-123063256D01*
X76270965Y-122983741D01*
X76257037Y-122923480D01*
X76231919Y-122879813D01*
X76188399Y-122848184D01*
X76118605Y-122828603D01*
X75990896Y-122818665D01*
X75851861Y-122817279D01*
X75624589Y-122820555D01*
X75544658Y-122827512D01*
X75483751Y-122840557D01*
X75439285Y-122861599D01*
X75408676Y-122892546D01*
X75389339Y-122935304D01*
X75378691Y-122991782D01*
X75373115Y-123171004D01*
X74946850Y-123171004D01*
X74949701Y-122876000D01*
X74963611Y-122750051D01*
X74974956Y-122703639D01*
X74991466Y-122661075D01*
X75012246Y-122623681D01*
X75037641Y-122590145D01*
X75100917Y-122535733D01*
X75181912Y-122497484D01*
X75261832Y-122479216D01*
X75434074Y-122462924D01*
X75824567Y-122453937D01*
X76066180Y-122456868D01*
G37*
G36*
X74349402Y-122991851D02*
G01*
X74349402Y-122943491D01*
X74343776Y-122854708D01*
X74337362Y-122826024D01*
X74327593Y-122805895D01*
X74303148Y-122787878D01*
X74236977Y-122773392D01*
X74055531Y-122764045D01*
X73876883Y-122762691D01*
X73648993Y-122765324D01*
X73593948Y-122769800D01*
X73559795Y-122777437D01*
X73532658Y-122788307D01*
X73513469Y-122804541D01*
X73496887Y-122844362D01*
X73492567Y-122903558D01*
X73497974Y-122966395D01*
X73507517Y-122988269D01*
X73524096Y-123005094D01*
X73572369Y-123024575D01*
X73683581Y-123040280D01*
X73759280Y-123046531D01*
X74232749Y-123084402D01*
X74361949Y-123094891D01*
X74455272Y-123110615D01*
X74531699Y-123130971D01*
X74579170Y-123150084D01*
X74618945Y-123173055D01*
X74648268Y-123196938D01*
X74672773Y-123224599D01*
X74709405Y-123292438D01*
X74714758Y-123307291D01*
X74734857Y-123402701D01*
X74745274Y-123591094D01*
X74746266Y-123712948D01*
X74739946Y-123872500D01*
X73070515Y-123872500D01*
X73070515Y-123551290D01*
X74349402Y-123551290D01*
X74349402Y-123536543D01*
X74344597Y-123489557D01*
X74331664Y-123456315D01*
X74299012Y-123427550D01*
X74280067Y-123418757D01*
X74205007Y-123405484D01*
X73582876Y-123361971D01*
X73478427Y-123353439D01*
X73389083Y-123339642D01*
X73324698Y-123323693D01*
X73269923Y-123303657D01*
X73229166Y-123282479D01*
X73195094Y-123257904D01*
X73154504Y-123212677D01*
X73133504Y-123175010D01*
X73117334Y-123132225D01*
X73098585Y-123027852D01*
X73093596Y-122897238D01*
X73096744Y-122787817D01*
X73107051Y-122700791D01*
X73119350Y-122650869D01*
X73136325Y-122609060D01*
X73155336Y-122578189D01*
X73178568Y-122551699D01*
X73217519Y-122521165D01*
X73265945Y-122494295D01*
X73326773Y-122475669D01*
X73460458Y-122460822D01*
X73779267Y-122454270D01*
X73962979Y-122453937D01*
X74219934Y-122457677D01*
X74415695Y-122472131D01*
X74495186Y-122485320D01*
X74561740Y-122503286D01*
X74606861Y-122521764D01*
X74644824Y-122544149D01*
X74673290Y-122567862D01*
X74696878Y-122595260D01*
X74730977Y-122661752D01*
X74752080Y-122755354D01*
X74760763Y-122901258D01*
X74760920Y-122930943D01*
X74760920Y-122991851D01*
X74349402Y-122991851D01*
G37*
G36*
X72216904Y-122457165D02*
G01*
X72403111Y-122468040D01*
X72503673Y-122480394D01*
X72587447Y-122497451D01*
X72644334Y-122515162D01*
X72692040Y-122536619D01*
X72727275Y-122558944D01*
X72756606Y-122584615D01*
X72798795Y-122644457D01*
X72827891Y-122729077D01*
X72842179Y-122808180D01*
X72849914Y-122902972D01*
X72853170Y-123127223D01*
X72849390Y-123405080D01*
X72834655Y-123584450D01*
X72822455Y-123643508D01*
X72806155Y-123690593D01*
X72788272Y-123724214D01*
X72766549Y-123753283D01*
X72741795Y-123778802D01*
X72708136Y-123805313D01*
X72669017Y-123827599D01*
X72574730Y-123859085D01*
X72429898Y-123879878D01*
X72179908Y-123889705D01*
X72099192Y-123890085D01*
X71771150Y-123886729D01*
X71559558Y-123874964D01*
X71481403Y-123864026D01*
X71423310Y-123849375D01*
X71408321Y-123843923D01*
X71365461Y-123824568D01*
X71328503Y-123800711D01*
X71300422Y-123775316D01*
X71276568Y-123745535D01*
X71241131Y-123672359D01*
X71218833Y-123569619D01*
X71211284Y-123429931D01*
X71624659Y-123429931D01*
X71627679Y-123474304D01*
X71637093Y-123508954D01*
X71649036Y-123529488D01*
X71665330Y-123545053D01*
X71709413Y-123562226D01*
X71727516Y-123564570D01*
X72092964Y-123575103D01*
X72261211Y-123572172D01*
X72353833Y-123563380D01*
X72357571Y-123562464D01*
X72384341Y-123553697D01*
X72405376Y-123539819D01*
X72429428Y-123502121D01*
X72439284Y-123439614D01*
X72439453Y-123427825D01*
X72436540Y-123391327D01*
X72427870Y-123359955D01*
X72415275Y-123336442D01*
X72398205Y-123317570D01*
X72372225Y-123301521D01*
X72337455Y-123290915D01*
X72284775Y-123284437D01*
X72082431Y-123280455D01*
X71870033Y-123282179D01*
X71736059Y-123291319D01*
X71692855Y-123300529D01*
X71662508Y-123313823D01*
X71642766Y-123331947D01*
X71631381Y-123355642D01*
X71624796Y-123412764D01*
X71624659Y-123429931D01*
X71211284Y-123429931D01*
X71210942Y-123423612D01*
X71214111Y-123327451D01*
X71224574Y-123245171D01*
X71237634Y-123193313D01*
X71255898Y-123147934D01*
X71276268Y-123113685D01*
X71301284Y-123083726D01*
X71363420Y-123037444D01*
X71450679Y-123003005D01*
X71578712Y-122978958D01*
X71777027Y-122966541D01*
X71878732Y-122965473D01*
X72080762Y-122969011D01*
X72223622Y-122982049D01*
X72283008Y-122994518D01*
X72332716Y-123011521D01*
X72406167Y-123054891D01*
X72445773Y-123089396D01*
X72447788Y-123011727D01*
X72444603Y-122923042D01*
X72434033Y-122862217D01*
X72422948Y-122835641D01*
X72407979Y-122816265D01*
X72389078Y-122802807D01*
X72322550Y-122785652D01*
X72164100Y-122773195D01*
X72023630Y-122771117D01*
X71786317Y-122777437D01*
X71663493Y-122784295D01*
X71638687Y-122790510D01*
X71622552Y-122800701D01*
X71610294Y-122813676D01*
X71602905Y-122834084D01*
X71599471Y-122864082D01*
X71200409Y-122864082D01*
X71205155Y-122744088D01*
X71217749Y-122660642D01*
X71230139Y-122623433D01*
X71246826Y-122592917D01*
X71267637Y-122567418D01*
X71294630Y-122542873D01*
X71327584Y-122521857D01*
X71412608Y-122490649D01*
X71549791Y-122468432D01*
X71791142Y-122455744D01*
X71983696Y-122453937D01*
X72216904Y-122457165D01*
G37*
G36*
X70540404Y-123227698D02*
G01*
X70542419Y-123511264D01*
X69656275Y-123511264D01*
X69656275Y-123227698D01*
X70540404Y-123227698D01*
G37*
G36*
X69034005Y-123872500D02*
G01*
X68023939Y-123872500D01*
X67763376Y-123869020D01*
X67580227Y-123856386D01*
X67505040Y-123844299D01*
X67443963Y-123827872D01*
X67400597Y-123810065D01*
X67362944Y-123788376D01*
X67320428Y-123754988D01*
X67289542Y-123722477D01*
X67263347Y-123685277D01*
X67226240Y-123599653D01*
X67201244Y-123477628D01*
X67187683Y-123284661D01*
X67186298Y-123177323D01*
X67606009Y-123177323D01*
X67611187Y-123327414D01*
X67620188Y-123382103D01*
X67635710Y-123425085D01*
X67651320Y-123448907D01*
X67671508Y-123468175D01*
X67725203Y-123494145D01*
X67815332Y-123509767D01*
X68019726Y-123515569D01*
X68613969Y-123515569D01*
X68613969Y-122822225D01*
X68023939Y-122822225D01*
X67821251Y-122826483D01*
X67758896Y-122833298D01*
X67714987Y-122844565D01*
X67689882Y-122857097D01*
X67669877Y-122873423D01*
X67662704Y-122881118D01*
X67645249Y-122904862D01*
X67631377Y-122934452D01*
X67613020Y-123018929D01*
X67606009Y-123177323D01*
X67186298Y-123177323D01*
X67185973Y-123152136D01*
X67189482Y-122961160D01*
X67202325Y-122832316D01*
X67225906Y-122736129D01*
X67243890Y-122689970D01*
X67266483Y-122648497D01*
X67292425Y-122613163D01*
X67322521Y-122582179D01*
X67394074Y-122533817D01*
X67483427Y-122502225D01*
X67498939Y-122498908D01*
X67615170Y-122479929D01*
X67777454Y-122472634D01*
X68023939Y-122471523D01*
X69034005Y-122471523D01*
X69034005Y-123872500D01*
G37*
G36*
X66478591Y-122855495D02*
G01*
X66626502Y-122864445D01*
X66720704Y-122876018D01*
X66794979Y-122891587D01*
X66851024Y-122911343D01*
X66896264Y-122936938D01*
X66933869Y-122965830D01*
X66960688Y-122994142D01*
X66982479Y-123026008D01*
X67011898Y-123100781D01*
X67025322Y-123188955D01*
X66653554Y-123188955D01*
X66644001Y-123145989D01*
X66634794Y-123130296D01*
X66621024Y-123117942D01*
X66573733Y-123101451D01*
X66465010Y-123093019D01*
X66349105Y-123091960D01*
X66228409Y-123096047D01*
X66185680Y-123102454D01*
X66152984Y-123112926D01*
X66132123Y-123125671D01*
X66116795Y-123142511D01*
X66100108Y-123187593D01*
X66095031Y-123265709D01*
X66095031Y-123318190D01*
X66111792Y-123318190D01*
X66145437Y-123287166D01*
X66182671Y-123265302D01*
X66255909Y-123246763D01*
X66393160Y-123240521D01*
X66643740Y-123244215D01*
X66792725Y-123258346D01*
X66853131Y-123272028D01*
X66898701Y-123286947D01*
X66938563Y-123306572D01*
X66970004Y-123328696D01*
X66996840Y-123354982D01*
X67036015Y-123418276D01*
X67059086Y-123501563D01*
X67065164Y-123587193D01*
X67062118Y-123651459D01*
X67052522Y-123706993D01*
X67039576Y-123745673D01*
X67021583Y-123779272D01*
X67000673Y-123805489D01*
X66975079Y-123827951D01*
X66908412Y-123862498D01*
X66810083Y-123885606D01*
X66658971Y-123895782D01*
X66632579Y-123895947D01*
X66431716Y-123892674D01*
X66306894Y-123881488D01*
X66235715Y-123862424D01*
X66193064Y-123841779D01*
X66157845Y-123816829D01*
X66111611Y-123761130D01*
X66097138Y-123734289D01*
X66082392Y-123734289D01*
X66082392Y-123870759D01*
X65725370Y-123870759D01*
X65725370Y-123545153D01*
X66101260Y-123545153D01*
X66104367Y-123573228D01*
X66114397Y-123596628D01*
X66147757Y-123625348D01*
X66211756Y-123645369D01*
X66337575Y-123657126D01*
X66437307Y-123658726D01*
X66542873Y-123655505D01*
X66616791Y-123644681D01*
X66648232Y-123633609D01*
X66670587Y-123618671D01*
X66682898Y-123603173D01*
X66690292Y-123584559D01*
X66693487Y-123555686D01*
X66690343Y-123527267D01*
X66680058Y-123504080D01*
X66646770Y-123477348D01*
X66581840Y-123459596D01*
X66449431Y-123450775D01*
X66405800Y-123450448D01*
X66235669Y-123452554D01*
X66166381Y-123460981D01*
X66141442Y-123472825D01*
X66122250Y-123488685D01*
X66109947Y-123506518D01*
X66102927Y-123527282D01*
X66101260Y-123545153D01*
X65725370Y-123545153D01*
X65725370Y-123272028D01*
X65728509Y-123170362D01*
X65738762Y-123091553D01*
X65751027Y-123046436D01*
X65767944Y-123007968D01*
X65809450Y-122951277D01*
X65847739Y-122917831D01*
X65890187Y-122892705D01*
X65972889Y-122868232D01*
X66111234Y-122855343D01*
X66294517Y-122852541D01*
X66478591Y-122855495D01*
G37*
G36*
X65692763Y-122879286D02*
G01*
X65203392Y-123872500D01*
X64722539Y-123872500D01*
X64233260Y-122879286D01*
X64655311Y-122879286D01*
X64961958Y-123584812D01*
X65270620Y-122879286D01*
X65692763Y-122879286D01*
G37*
G36*
X63724092Y-122855722D02*
G01*
X63861782Y-122866263D01*
X63933810Y-122878172D01*
X63993315Y-122894498D01*
X64037509Y-122912742D01*
X64076565Y-122935005D01*
X64085065Y-122940744D01*
X64120638Y-122969456D01*
X64149797Y-123002080D01*
X64170030Y-123034283D01*
X64186288Y-123071531D01*
X64208718Y-123168967D01*
X64219007Y-123326690D01*
X64219429Y-123378640D01*
X64216270Y-123502366D01*
X64205877Y-123599995D01*
X64193603Y-123655195D01*
X64176669Y-123701574D01*
X64157670Y-123736167D01*
X64134438Y-123766310D01*
X64093492Y-123803623D01*
X64056840Y-123827094D01*
X64014495Y-123846751D01*
X63908023Y-123875362D01*
X63745818Y-123892226D01*
X63578933Y-123895947D01*
X63403412Y-123892770D01*
X63259345Y-123882255D01*
X63175609Y-123869740D01*
X63104778Y-123852400D01*
X63055264Y-123834075D01*
X63013274Y-123811827D01*
X62981500Y-123788269D01*
X62954905Y-123761110D01*
X62916158Y-123696574D01*
X62891277Y-123608987D01*
X62883848Y-123554404D01*
X63253510Y-123554404D01*
X63263042Y-123590176D01*
X63280456Y-123616973D01*
X63321294Y-123640509D01*
X63400029Y-123654311D01*
X63549624Y-123658726D01*
X63649269Y-123655705D01*
X63724900Y-123646286D01*
X63766368Y-123635060D01*
X63797317Y-123619929D01*
X63801591Y-123616960D01*
X63821630Y-123597549D01*
X63835293Y-123572476D01*
X63846473Y-123507405D01*
X63847753Y-123456310D01*
X62877620Y-123456310D01*
X62875514Y-123355560D01*
X62878485Y-123252703D01*
X63249297Y-123252703D01*
X63847753Y-123252703D01*
X63843043Y-123204187D01*
X63831001Y-123165486D01*
X63817298Y-123143769D01*
X63798541Y-123126009D01*
X63745703Y-123101647D01*
X63652779Y-123087157D01*
X63534878Y-123083626D01*
X63434517Y-123086666D01*
X63359838Y-123096228D01*
X63320711Y-123107340D01*
X63291884Y-123122309D01*
X63278698Y-123133634D01*
X63262269Y-123155474D01*
X63253622Y-123185871D01*
X63249297Y-123252703D01*
X62878485Y-123252703D01*
X62878549Y-123250498D01*
X62888069Y-123162887D01*
X62900531Y-123104734D01*
X62917703Y-123054907D01*
X62937123Y-123016793D01*
X62960700Y-122983607D01*
X62997330Y-122947063D01*
X63034286Y-122921025D01*
X63076525Y-122899877D01*
X63174901Y-122872640D01*
X63331382Y-122856762D01*
X63541198Y-122852541D01*
X63724092Y-122855722D01*
G37*
G36*
X62197648Y-122471523D02*
G01*
X62197648Y-123872500D01*
X61750317Y-123872500D01*
X61750317Y-123368382D01*
X60786413Y-123368382D01*
X60786413Y-123872500D01*
X60339174Y-123872500D01*
X60339174Y-122471523D01*
X60786413Y-122471523D01*
X60786413Y-122975640D01*
X61750317Y-122975640D01*
X61750317Y-122471523D01*
X62197648Y-122471523D01*
G37*
G36*
X59602666Y-122855495D02*
G01*
X59750577Y-122864445D01*
X59844780Y-122876018D01*
X59919054Y-122891587D01*
X59975099Y-122911343D01*
X60020339Y-122936938D01*
X60057945Y-122965830D01*
X60084763Y-122994142D01*
X60106555Y-123026008D01*
X60135973Y-123100781D01*
X60149397Y-123188955D01*
X59777629Y-123188955D01*
X59768077Y-123145989D01*
X59758869Y-123130296D01*
X59745099Y-123117942D01*
X59697808Y-123101451D01*
X59589085Y-123093019D01*
X59473180Y-123091960D01*
X59352484Y-123096047D01*
X59309755Y-123102454D01*
X59277060Y-123112926D01*
X59256198Y-123125671D01*
X59240870Y-123142511D01*
X59224184Y-123187593D01*
X59219107Y-123265709D01*
X59219107Y-123318190D01*
X59235868Y-123318190D01*
X59269513Y-123287166D01*
X59306746Y-123265302D01*
X59379985Y-123246763D01*
X59517236Y-123240521D01*
X59767815Y-123244215D01*
X59916801Y-123258346D01*
X59977206Y-123272028D01*
X60022776Y-123286947D01*
X60062638Y-123306572D01*
X60094079Y-123328696D01*
X60120915Y-123354982D01*
X60160091Y-123418276D01*
X60183161Y-123501563D01*
X60189239Y-123587193D01*
X60186194Y-123651459D01*
X60176597Y-123706993D01*
X60163651Y-123745673D01*
X60145658Y-123779272D01*
X60124748Y-123805489D01*
X60099154Y-123827951D01*
X60032487Y-123862498D01*
X59934158Y-123885606D01*
X59783046Y-123895782D01*
X59756655Y-123895947D01*
X59555791Y-123892674D01*
X59430970Y-123881488D01*
X59359791Y-123862424D01*
X59317139Y-123841779D01*
X59281920Y-123816829D01*
X59235686Y-123761130D01*
X59221213Y-123734289D01*
X59206467Y-123734289D01*
X59206467Y-123870759D01*
X58849445Y-123870759D01*
X58849445Y-123545153D01*
X59225335Y-123545153D01*
X59228442Y-123573228D01*
X59238472Y-123596628D01*
X59271833Y-123625348D01*
X59335831Y-123645369D01*
X59461650Y-123657126D01*
X59561383Y-123658726D01*
X59666949Y-123655505D01*
X59740866Y-123644681D01*
X59772307Y-123633609D01*
X59794662Y-123618671D01*
X59806973Y-123603173D01*
X59814368Y-123584559D01*
X59817563Y-123555686D01*
X59814419Y-123527267D01*
X59804133Y-123504080D01*
X59770845Y-123477348D01*
X59705916Y-123459596D01*
X59573507Y-123450775D01*
X59529875Y-123450448D01*
X59359745Y-123452554D01*
X59290456Y-123460981D01*
X59265517Y-123472825D01*
X59246326Y-123488685D01*
X59234022Y-123506518D01*
X59227002Y-123527282D01*
X59225335Y-123545153D01*
X58849445Y-123545153D01*
X58849445Y-123272028D01*
X58852585Y-123170362D01*
X58862837Y-123091553D01*
X58875102Y-123046436D01*
X58892019Y-123007968D01*
X58933526Y-122951277D01*
X58971814Y-122917831D01*
X59014262Y-122892705D01*
X59096964Y-122868232D01*
X59235309Y-122855343D01*
X59418592Y-122852541D01*
X59602666Y-122855495D01*
G37*
G36*
X58687878Y-122877821D02*
G01*
X58687878Y-123872500D01*
X58316202Y-123872500D01*
X58316202Y-123462263D01*
X58312903Y-123346727D01*
X58301533Y-123267951D01*
X58289974Y-123234111D01*
X58274273Y-123207444D01*
X58261614Y-123192894D01*
X58211832Y-123159666D01*
X58135645Y-123138654D01*
X58034834Y-123131894D01*
X57964646Y-123134883D01*
X57908173Y-123144078D01*
X57872794Y-123155909D01*
X57844947Y-123171970D01*
X57829029Y-123186574D01*
X57807729Y-123215178D01*
X57795676Y-123252823D01*
X57789351Y-123354488D01*
X57789095Y-123407583D01*
X57789095Y-123872500D01*
X57417419Y-123872500D01*
X57417419Y-123462263D01*
X57414120Y-123348754D01*
X57402750Y-123271616D01*
X57391043Y-123237673D01*
X57375097Y-123210091D01*
X57362831Y-123195000D01*
X57315424Y-123160321D01*
X57244194Y-123139108D01*
X57142371Y-123131894D01*
X57071208Y-123134883D01*
X57014386Y-123144078D01*
X56978434Y-123155972D01*
X56949456Y-123172134D01*
X56932352Y-123186574D01*
X56907546Y-123219468D01*
X56895413Y-123271198D01*
X56890312Y-123407583D01*
X56890312Y-123872500D01*
X56518636Y-123872500D01*
X56518636Y-123407583D01*
X56522136Y-123257339D01*
X56534918Y-123148593D01*
X56547638Y-123100357D01*
X56565097Y-123059055D01*
X56611924Y-122993065D01*
X56623599Y-122980677D01*
X56657786Y-122949136D01*
X56695918Y-122922377D01*
X56782876Y-122883586D01*
X56896049Y-122860092D01*
X57037316Y-122852541D01*
X57125590Y-122855540D01*
X57202529Y-122864805D01*
X57258735Y-122877653D01*
X57308058Y-122895400D01*
X57346834Y-122915683D01*
X57380792Y-122940270D01*
X57433921Y-123000450D01*
X57465687Y-123060453D01*
X57492885Y-123016622D01*
X57523998Y-122978403D01*
X57556589Y-122947901D01*
X57593170Y-122921903D01*
X57678686Y-122883122D01*
X57789523Y-122859610D01*
X57917231Y-122852541D01*
X58000630Y-122855497D01*
X58074234Y-122864463D01*
X58130730Y-122877316D01*
X58180234Y-122894959D01*
X58219120Y-122915093D01*
X58252644Y-122939287D01*
X58279628Y-122966050D01*
X58302073Y-122996592D01*
X58318309Y-123026931D01*
X58337176Y-123026931D01*
X58337176Y-122877821D01*
X58687878Y-122877821D01*
G37*
G36*
X56359267Y-122879011D02*
G01*
X56359267Y-123872500D01*
X55987591Y-123872500D01*
X55987591Y-122879011D01*
X56359267Y-122879011D01*
G37*
G36*
X56359267Y-122471523D02*
G01*
X56359267Y-122750875D01*
X55987591Y-122750875D01*
X55987591Y-122471523D01*
X56359267Y-122471523D01*
G37*
G36*
X55819979Y-122471523D02*
G01*
X55819979Y-123872500D01*
X55448302Y-123872500D01*
X55448302Y-122471523D01*
X55819979Y-122471523D01*
G37*
G36*
X55169408Y-122652964D02*
G01*
X55169408Y-122881851D01*
X55364680Y-122881851D01*
X55364680Y-123148564D01*
X55169408Y-123148564D01*
X55169408Y-123435793D01*
X55167301Y-123583530D01*
X55161660Y-123652132D01*
X55149790Y-123706627D01*
X55135825Y-123741326D01*
X55117121Y-123771849D01*
X55089632Y-123803623D01*
X55057843Y-123830161D01*
X55021659Y-123851491D01*
X54937963Y-123878554D01*
X54808327Y-123893212D01*
X54682235Y-123895947D01*
X54559451Y-123892842D01*
X54459853Y-123882833D01*
X54399481Y-123870483D01*
X54348377Y-123853436D01*
X54310411Y-123834474D01*
X54277518Y-123811378D01*
X54237011Y-123770009D01*
X54208352Y-123727299D01*
X54187912Y-123681258D01*
X54168998Y-123587248D01*
X54161448Y-123448250D01*
X54501617Y-123448250D01*
X54504250Y-123544478D01*
X54516363Y-123581423D01*
X54527555Y-123598176D01*
X54543677Y-123611281D01*
X54592927Y-123627553D01*
X54650727Y-123631432D01*
X54699715Y-123628428D01*
X54736692Y-123619122D01*
X54757726Y-123607562D01*
X54773401Y-123591912D01*
X54778863Y-123583530D01*
X54792574Y-123552674D01*
X54797309Y-123493848D01*
X54797731Y-123435793D01*
X54797731Y-123148564D01*
X54209716Y-123148564D01*
X54209716Y-122881851D01*
X54797731Y-122881851D01*
X54797731Y-122652964D01*
X55169408Y-122652964D01*
G37*
G36*
X53555681Y-122855652D02*
G01*
X53699154Y-122865705D01*
X53779422Y-122877576D01*
X53845179Y-122893829D01*
X53891594Y-122911378D01*
X53930964Y-122932603D01*
X53946026Y-122942850D01*
X53980670Y-122971742D01*
X54008975Y-123004378D01*
X54028801Y-123036881D01*
X54044561Y-123074265D01*
X54065742Y-123171685D01*
X54074070Y-123341729D01*
X54070736Y-123495996D01*
X54059124Y-123610002D01*
X54046940Y-123663772D01*
X54030226Y-123708148D01*
X54011522Y-123740838D01*
X53988591Y-123769400D01*
X53958574Y-123797303D01*
X53921352Y-123823842D01*
X53878807Y-123845485D01*
X53780185Y-123873522D01*
X53623952Y-123890420D01*
X53368544Y-123895947D01*
X53162466Y-123892657D01*
X53011570Y-123881350D01*
X52940284Y-123869420D01*
X52882074Y-123853099D01*
X52840248Y-123835217D01*
X52803874Y-123813410D01*
X52782636Y-123797303D01*
X52749795Y-123765656D01*
X52723372Y-123729865D01*
X52691928Y-123654214D01*
X52673502Y-123541991D01*
X52667643Y-123371130D01*
X53038816Y-123371130D01*
X53042280Y-123450544D01*
X53054800Y-123511186D01*
X53067677Y-123539046D01*
X53085441Y-123561731D01*
X53131842Y-123591094D01*
X53207708Y-123609164D01*
X53368544Y-123616686D01*
X53468310Y-123613749D01*
X53547660Y-123604920D01*
X53618404Y-123585178D01*
X53648166Y-123569702D01*
X53670344Y-123549338D01*
X53692188Y-123502575D01*
X53701829Y-123419604D01*
X53702393Y-123381663D01*
X53698969Y-123302850D01*
X53686722Y-123242107D01*
X53673880Y-123213367D01*
X53656137Y-123189875D01*
X53610037Y-123159380D01*
X53535599Y-123140404D01*
X53401841Y-123132089D01*
X53368544Y-123131894D01*
X53277960Y-123134763D01*
X53201024Y-123143121D01*
X53129125Y-123161295D01*
X53099121Y-123176487D01*
X53076033Y-123196639D01*
X53051608Y-123243758D01*
X53039926Y-123323237D01*
X53038816Y-123371130D01*
X52667643Y-123371130D01*
X52667140Y-123356475D01*
X52670383Y-123230868D01*
X52681364Y-123133710D01*
X52693727Y-123082463D01*
X52710793Y-123039381D01*
X52730106Y-123006938D01*
X52753832Y-122978401D01*
X52795184Y-122942850D01*
X52831663Y-122920130D01*
X52874293Y-122901135D01*
X52983123Y-122873629D01*
X53156123Y-122856913D01*
X53370651Y-122852541D01*
X53555681Y-122855652D01*
G37*
G36*
X52528562Y-122877821D02*
G01*
X52528562Y-123872500D01*
X52156886Y-123872500D01*
X52156886Y-123474903D01*
X52152798Y-123329960D01*
X52146386Y-123282890D01*
X52135905Y-123247276D01*
X52104348Y-123199280D01*
X52102298Y-123197107D01*
X52079411Y-123177429D01*
X52051460Y-123161544D01*
X51976073Y-123140186D01*
X51848224Y-123131894D01*
X51753953Y-123135003D01*
X51682723Y-123145042D01*
X51644816Y-123156686D01*
X51615074Y-123172563D01*
X51598272Y-123186574D01*
X51577106Y-123211737D01*
X51563494Y-123243643D01*
X51553564Y-123325087D01*
X51552110Y-123420223D01*
X51552110Y-123872500D01*
X51180433Y-123872500D01*
X51180433Y-123420223D01*
X51183984Y-123261652D01*
X51197113Y-123149246D01*
X51209847Y-123101301D01*
X51227277Y-123060197D01*
X51274749Y-122992602D01*
X51289610Y-122976464D01*
X51324093Y-122945468D01*
X51362605Y-122919429D01*
X51449816Y-122882788D01*
X51567642Y-122860427D01*
X51736941Y-122852541D01*
X51832363Y-122855562D01*
X51913676Y-122864985D01*
X51970014Y-122877637D01*
X52018811Y-122895101D01*
X52056487Y-122914913D01*
X52089305Y-122938960D01*
X52141238Y-122998671D01*
X52158992Y-123028946D01*
X52177860Y-123028946D01*
X52177860Y-122877821D01*
X52528562Y-122877821D01*
G37*
D11*
X63198333Y-41954819D02*
X63198333Y-42669104D01*
X63198333Y-42669104D02*
X63245952Y-42811961D01*
X63245952Y-42811961D02*
X63341190Y-42907200D01*
X63341190Y-42907200D02*
X63484047Y-42954819D01*
X63484047Y-42954819D02*
X63579285Y-42954819D01*
X62722142Y-42954819D02*
X62722142Y-41954819D01*
X62722142Y-41954819D02*
X62341190Y-41954819D01*
X62341190Y-41954819D02*
X62245952Y-42002438D01*
X62245952Y-42002438D02*
X62198333Y-42050057D01*
X62198333Y-42050057D02*
X62150714Y-42145295D01*
X62150714Y-42145295D02*
X62150714Y-42288152D01*
X62150714Y-42288152D02*
X62198333Y-42383390D01*
X62198333Y-42383390D02*
X62245952Y-42431009D01*
X62245952Y-42431009D02*
X62341190Y-42478628D01*
X62341190Y-42478628D02*
X62722142Y-42478628D01*
X61198333Y-42954819D02*
X61769761Y-42954819D01*
X61484047Y-42954819D02*
X61484047Y-41954819D01*
X61484047Y-41954819D02*
X61579285Y-42097676D01*
X61579285Y-42097676D02*
X61674523Y-42192914D01*
X61674523Y-42192914D02*
X61769761Y-42240533D01*
X112063333Y-41954819D02*
X112063333Y-42669104D01*
X112063333Y-42669104D02*
X112110952Y-42811961D01*
X112110952Y-42811961D02*
X112206190Y-42907200D01*
X112206190Y-42907200D02*
X112349047Y-42954819D01*
X112349047Y-42954819D02*
X112444285Y-42954819D01*
X111587142Y-42954819D02*
X111587142Y-41954819D01*
X111587142Y-41954819D02*
X111206190Y-41954819D01*
X111206190Y-41954819D02*
X111110952Y-42002438D01*
X111110952Y-42002438D02*
X111063333Y-42050057D01*
X111063333Y-42050057D02*
X111015714Y-42145295D01*
X111015714Y-42145295D02*
X111015714Y-42288152D01*
X111015714Y-42288152D02*
X111063333Y-42383390D01*
X111063333Y-42383390D02*
X111110952Y-42431009D01*
X111110952Y-42431009D02*
X111206190Y-42478628D01*
X111206190Y-42478628D02*
X111587142Y-42478628D01*
X110634761Y-42050057D02*
X110587142Y-42002438D01*
X110587142Y-42002438D02*
X110491904Y-41954819D01*
X110491904Y-41954819D02*
X110253809Y-41954819D01*
X110253809Y-41954819D02*
X110158571Y-42002438D01*
X110158571Y-42002438D02*
X110110952Y-42050057D01*
X110110952Y-42050057D02*
X110063333Y-42145295D01*
X110063333Y-42145295D02*
X110063333Y-42240533D01*
X110063333Y-42240533D02*
X110110952Y-42383390D01*
X110110952Y-42383390D02*
X110682380Y-42954819D01*
X110682380Y-42954819D02*
X110063333Y-42954819D01*
X59989819Y-46216666D02*
X60704104Y-46216666D01*
X60704104Y-46216666D02*
X60846961Y-46169047D01*
X60846961Y-46169047D02*
X60942200Y-46073809D01*
X60942200Y-46073809D02*
X60989819Y-45930952D01*
X60989819Y-45930952D02*
X60989819Y-45835714D01*
X60989819Y-46692857D02*
X59989819Y-46692857D01*
X59989819Y-46692857D02*
X59989819Y-47073809D01*
X59989819Y-47073809D02*
X60037438Y-47169047D01*
X60037438Y-47169047D02*
X60085057Y-47216666D01*
X60085057Y-47216666D02*
X60180295Y-47264285D01*
X60180295Y-47264285D02*
X60323152Y-47264285D01*
X60323152Y-47264285D02*
X60418390Y-47216666D01*
X60418390Y-47216666D02*
X60466009Y-47169047D01*
X60466009Y-47169047D02*
X60513628Y-47073809D01*
X60513628Y-47073809D02*
X60513628Y-46692857D01*
X59989819Y-47597619D02*
X59989819Y-48216666D01*
X59989819Y-48216666D02*
X60370771Y-47883333D01*
X60370771Y-47883333D02*
X60370771Y-48026190D01*
X60370771Y-48026190D02*
X60418390Y-48121428D01*
X60418390Y-48121428D02*
X60466009Y-48169047D01*
X60466009Y-48169047D02*
X60561247Y-48216666D01*
X60561247Y-48216666D02*
X60799342Y-48216666D01*
X60799342Y-48216666D02*
X60894580Y-48169047D01*
X60894580Y-48169047D02*
X60942200Y-48121428D01*
X60942200Y-48121428D02*
X60989819Y-48026190D01*
X60989819Y-48026190D02*
X60989819Y-47740476D01*
X60989819Y-47740476D02*
X60942200Y-47645238D01*
X60942200Y-47645238D02*
X60894580Y-47597619D01*
X108884819Y-46246666D02*
X109599104Y-46246666D01*
X109599104Y-46246666D02*
X109741961Y-46199047D01*
X109741961Y-46199047D02*
X109837200Y-46103809D01*
X109837200Y-46103809D02*
X109884819Y-45960952D01*
X109884819Y-45960952D02*
X109884819Y-45865714D01*
X109884819Y-46722857D02*
X108884819Y-46722857D01*
X108884819Y-46722857D02*
X108884819Y-47103809D01*
X108884819Y-47103809D02*
X108932438Y-47199047D01*
X108932438Y-47199047D02*
X108980057Y-47246666D01*
X108980057Y-47246666D02*
X109075295Y-47294285D01*
X109075295Y-47294285D02*
X109218152Y-47294285D01*
X109218152Y-47294285D02*
X109313390Y-47246666D01*
X109313390Y-47246666D02*
X109361009Y-47199047D01*
X109361009Y-47199047D02*
X109408628Y-47103809D01*
X109408628Y-47103809D02*
X109408628Y-46722857D01*
X109218152Y-48151428D02*
X109884819Y-48151428D01*
X108837200Y-47913333D02*
X109551485Y-47675238D01*
X109551485Y-47675238D02*
X109551485Y-48294285D01*
D12*
%TO.C,JP1*%
X60315000Y-40400000D02*
X60315000Y-41000000D01*
X60865000Y-39200000D02*
X61465000Y-39200000D01*
X60965000Y-41700000D02*
X63765000Y-41700000D01*
X61165000Y-39500000D02*
X60865000Y-39200000D01*
X61165000Y-39500000D02*
X61465000Y-39200000D01*
X63765000Y-39700000D02*
X60965000Y-39700000D01*
X64415000Y-41000000D02*
X64415000Y-40400000D01*
X60315000Y-40400000D02*
G75*
G02*
X61015000Y-39700000I699999J1D01*
G01*
X61015000Y-41700000D02*
G75*
G02*
X60315000Y-41000000I-1J699999D01*
G01*
X63715000Y-39700000D02*
G75*
G02*
X64415000Y-40400000I0J-700000D01*
G01*
X64415000Y-41000000D02*
G75*
G02*
X63715000Y-41700000I-700000J0D01*
G01*
%TO.C,JP2*%
X109180000Y-40400000D02*
X109180000Y-41000000D01*
X109730000Y-39200000D02*
X110330000Y-39200000D01*
X109830000Y-41700000D02*
X112630000Y-41700000D01*
X110030000Y-39500000D02*
X109730000Y-39200000D01*
X110030000Y-39500000D02*
X110330000Y-39200000D01*
X112630000Y-39700000D02*
X109830000Y-39700000D01*
X113280000Y-41000000D02*
X113280000Y-40400000D01*
X109180000Y-40400000D02*
G75*
G02*
X109880000Y-39700000I699999J1D01*
G01*
X109880000Y-41700000D02*
G75*
G02*
X109180000Y-41000000I-1J699999D01*
G01*
X112580000Y-39700000D02*
G75*
G02*
X113280000Y-40400000I0J-700000D01*
G01*
X113280000Y-41000000D02*
G75*
G02*
X112580000Y-41700000I-700000J0D01*
G01*
%TO.C,JP3*%
X61335000Y-45650000D02*
X61335000Y-48450000D01*
X62035000Y-49100000D02*
X62635000Y-49100000D01*
X62635000Y-45000000D02*
X62035000Y-45000000D01*
X63335000Y-48450000D02*
X63335000Y-45650000D01*
X63535000Y-45850000D02*
X63835000Y-45550000D01*
X63535000Y-45850000D02*
X63835000Y-46150000D01*
X63835000Y-45550000D02*
X63835000Y-46150000D01*
X61335000Y-45700000D02*
G75*
G02*
X62035000Y-45000000I699999J1D01*
G01*
X62035000Y-49100000D02*
G75*
G02*
X61335000Y-48400000I0J700000D01*
G01*
X62635000Y-45000000D02*
G75*
G02*
X63335000Y-45700000I1J-699999D01*
G01*
X63335000Y-48400000D02*
G75*
G02*
X62635000Y-49100000I-700000J0D01*
G01*
%TO.C,JP4*%
X110230000Y-45680000D02*
X110230000Y-48480000D01*
X110930000Y-49130000D02*
X111530000Y-49130000D01*
X111530000Y-45030000D02*
X110930000Y-45030000D01*
X112230000Y-48480000D02*
X112230000Y-45680000D01*
X112430000Y-45880000D02*
X112730000Y-45580000D01*
X112430000Y-45880000D02*
X112730000Y-46180000D01*
X112730000Y-45580000D02*
X112730000Y-46180000D01*
X110230000Y-45730000D02*
G75*
G02*
X110930000Y-45030000I699999J1D01*
G01*
X110930000Y-49130000D02*
G75*
G02*
X110230000Y-48430000I0J700000D01*
G01*
X111530000Y-45030000D02*
G75*
G02*
X112230000Y-45730000I1J-699999D01*
G01*
X112230000Y-48430000D02*
G75*
G02*
X111530000Y-49130000I-700000J0D01*
G01*
%TD*%
M02*
