M48
; DRILL file {KiCad 9.0.6} date 2026-04-02T02:57:54-0400
; FORMAT={-:-/ absolute / metric / decimal}
; #@! TF.CreationDate,2026-04-02T02:57:54-04:00
; #@! TF.GenerationSoftware,Kicad,Pcbnew,9.0.6
; #@! TF.FileFunction,Plated,1,2,PTH
FMAT,2
METRIC
; #@! TA.AperFunction,Plated,PTH,ComponentDrill
T1C1.000
%
G90
G05
T1
X32.62Y-26.61
X32.62Y-29.15
X32.62Y-40.11
X32.62Y-53.61
X32.62Y-67.11
X32.62Y-80.61
X32.62Y-94.11
X32.62Y-107.61
X32.62Y-121.11
X35.16Y-26.61
X35.16Y-29.15
X35.16Y-40.11
X35.16Y-53.61
X35.16Y-67.11
X35.16Y-80.61
X35.16Y-94.11
X35.16Y-107.61
X35.16Y-121.11
X37.7Y-26.61
X37.7Y-29.15
X37.7Y-40.11
X37.7Y-53.61
X37.7Y-67.11
X37.7Y-80.61
X37.7Y-94.11
X37.7Y-107.61
X37.7Y-121.11
X40.24Y-26.61
X40.24Y-29.15
X40.24Y-40.11
X40.24Y-53.61
X40.24Y-67.11
X40.24Y-80.61
X40.24Y-94.11
X40.24Y-107.61
X40.24Y-121.11
X44.05Y-26.61
X44.05Y-29.15
X44.05Y-40.11
X44.05Y-42.65
X44.05Y-53.61
X44.05Y-56.15
X44.05Y-67.11
X44.05Y-69.65
X44.05Y-80.61
X44.05Y-83.15
X44.05Y-94.11
X44.05Y-96.65
X44.05Y-107.61
X44.05Y-110.15
X44.05Y-121.11
X44.05Y-123.65
X46.59Y-26.61
X46.59Y-29.15
X46.59Y-40.11
X46.59Y-42.65
X46.59Y-53.61
X46.59Y-56.15
X46.59Y-67.11
X46.59Y-69.65
X46.59Y-80.61
X46.59Y-83.15
X46.59Y-94.11
X46.59Y-96.65
X46.59Y-107.61
X46.59Y-110.15
X46.59Y-121.11
X46.59Y-123.65
X49.13Y-26.61
X49.13Y-29.15
X49.13Y-40.11
X49.13Y-42.65
X49.13Y-53.61
X49.13Y-56.15
X49.13Y-67.11
X49.13Y-69.65
X49.13Y-80.61
X49.13Y-83.15
X49.13Y-94.11
X49.13Y-96.65
X49.13Y-107.61
X49.13Y-110.15
X49.13Y-121.11
X49.13Y-123.65
X51.67Y-26.61
X51.67Y-29.15
X51.67Y-40.11
X51.67Y-42.65
X51.67Y-53.61
X51.67Y-56.15
X51.67Y-67.11
X51.67Y-69.65
X51.67Y-80.61
X51.67Y-83.15
X51.67Y-94.11
X51.67Y-96.65
X51.67Y-107.61
X51.67Y-110.15
X51.67Y-121.11
X51.67Y-123.65
X55.48Y-26.61
X55.48Y-29.15
X55.48Y-40.11
X55.48Y-42.65
X55.48Y-53.61
X55.48Y-56.15
X55.48Y-67.11
X55.48Y-69.65
X55.48Y-80.61
X55.48Y-83.15
X55.48Y-94.11
X55.48Y-96.65
X55.48Y-107.61
X55.48Y-110.15
X55.48Y-121.11
X55.48Y-123.65
X58.02Y-26.61
X58.02Y-29.15
X58.02Y-40.11
X58.02Y-42.65
X58.02Y-53.61
X58.02Y-56.15
X58.02Y-67.11
X58.02Y-69.65
X58.02Y-80.61
X58.02Y-83.15
X58.02Y-94.11
X58.02Y-96.65
X58.02Y-107.61
X58.02Y-110.15
X58.02Y-121.11
X58.02Y-123.65
X60.56Y-26.61
X60.56Y-29.15
X60.56Y-40.11
X60.56Y-42.65
X60.56Y-53.61
X60.56Y-56.15
X60.56Y-67.11
X60.56Y-69.65
X60.56Y-80.61
X60.56Y-83.15
X60.56Y-94.11
X60.56Y-96.65
X60.56Y-107.61
X60.56Y-110.15
X60.56Y-121.11
X60.56Y-123.65
X63.1Y-26.61
X63.1Y-29.15
X63.1Y-40.11
X63.1Y-42.65
X63.1Y-53.61
X63.1Y-56.15
X63.1Y-67.11
X63.1Y-69.65
X63.1Y-80.61
X63.1Y-83.15
X63.1Y-94.11
X63.1Y-96.65
X63.1Y-107.61
X63.1Y-110.15
X63.1Y-121.11
X63.1Y-123.65
X65.64Y-26.61
X65.64Y-29.15
X65.64Y-40.11
X65.64Y-42.65
X65.64Y-53.61
X65.64Y-56.15
X65.64Y-67.11
X65.64Y-69.65
X65.64Y-80.61
X65.64Y-83.15
X65.64Y-94.11
X65.64Y-96.65
X65.64Y-107.61
X65.64Y-110.15
X65.64Y-121.11
X65.64Y-123.65
X68.18Y-26.61
X68.18Y-29.15
X68.18Y-40.11
X68.18Y-42.65
X68.18Y-53.61
X68.18Y-56.15
X68.18Y-67.11
X68.18Y-69.65
X68.18Y-80.61
X68.18Y-83.15
X68.18Y-94.11
X68.18Y-96.65
X68.18Y-107.61
X68.18Y-110.15
X68.18Y-121.11
X68.18Y-123.65
X70.72Y-26.61
X70.72Y-29.15
X70.72Y-40.11
X70.72Y-42.65
X70.72Y-53.61
X70.72Y-56.15
X70.72Y-67.11
X70.72Y-69.65
X70.72Y-80.61
X70.72Y-83.15
X70.72Y-94.11
X70.72Y-96.65
X70.72Y-107.61
X70.72Y-110.15
X70.72Y-121.11
X70.72Y-123.65
X73.26Y-26.61
X73.26Y-29.15
X73.26Y-40.11
X73.26Y-42.65
X73.26Y-53.61
X73.26Y-56.15
X73.26Y-67.11
X73.26Y-69.65
X73.26Y-80.61
X73.26Y-83.15
X73.26Y-94.11
X73.26Y-96.65
X73.26Y-107.61
X73.26Y-110.15
X73.26Y-121.11
X73.26Y-123.65
X75.8Y-26.61
X75.8Y-29.15
X75.8Y-40.11
X75.8Y-42.65
X75.8Y-53.61
X75.8Y-56.15
X75.8Y-67.11
X75.8Y-69.65
X75.8Y-80.61
X75.8Y-83.15
X75.8Y-94.11
X75.8Y-96.65
X75.8Y-107.61
X75.8Y-110.15
X75.8Y-121.11
X75.8Y-123.65
X78.34Y-26.61
X78.34Y-29.15
X78.34Y-40.11
X78.34Y-42.65
X78.34Y-53.61
X78.34Y-56.15
X78.34Y-67.11
X78.34Y-69.65
X78.34Y-80.61
X78.34Y-83.15
X78.34Y-94.11
X78.34Y-96.65
X78.34Y-107.61
X78.34Y-110.15
X78.34Y-121.11
X78.34Y-123.65
X80.88Y-26.61
X80.88Y-29.15
X80.88Y-40.11
X80.88Y-42.65
X80.88Y-53.61
X80.88Y-56.15
X80.88Y-67.11
X80.88Y-69.65
X80.88Y-80.61
X80.88Y-83.15
X80.88Y-94.11
X80.88Y-96.65
X80.88Y-107.61
X80.88Y-110.15
X80.88Y-121.11
X80.88Y-123.65
X83.42Y-26.61
X83.42Y-29.15
X83.42Y-40.11
X83.42Y-42.65
X83.42Y-53.61
X83.42Y-56.15
X83.42Y-67.11
X83.42Y-69.65
X83.42Y-80.61
X83.42Y-83.15
X83.42Y-94.11
X83.42Y-96.65
X83.42Y-107.61
X83.42Y-110.15
X83.42Y-121.11
X83.42Y-123.65
X85.96Y-26.61
X85.96Y-29.15
X85.96Y-40.11
X85.96Y-42.65
X85.96Y-53.61
X85.96Y-56.15
X85.96Y-67.11
X85.96Y-69.65
X85.96Y-80.61
X85.96Y-83.15
X85.96Y-94.11
X85.96Y-96.65
X85.96Y-107.61
X85.96Y-110.15
X85.96Y-121.11
X85.96Y-123.65
X88.5Y-26.61
X88.5Y-29.15
X88.5Y-40.11
X88.5Y-42.65
X88.5Y-53.61
X88.5Y-56.15
X88.5Y-67.11
X88.5Y-69.65
X88.5Y-80.61
X88.5Y-83.15
X88.5Y-94.11
X88.5Y-96.65
X88.5Y-107.61
X88.5Y-110.15
X88.5Y-121.11
X88.5Y-123.65
X91.04Y-26.61
X91.04Y-29.15
X91.04Y-40.11
X91.04Y-42.65
X91.04Y-53.61
X91.04Y-56.15
X91.04Y-67.11
X91.04Y-69.65
X91.04Y-80.61
X91.04Y-83.15
X91.04Y-94.11
X91.04Y-96.65
X91.04Y-107.61
X91.04Y-110.15
X91.04Y-121.11
X91.04Y-123.65
X93.58Y-26.61
X93.58Y-29.15
X93.58Y-40.11
X93.58Y-42.65
X93.58Y-53.61
X93.58Y-56.15
X93.58Y-67.11
X93.58Y-69.65
X93.58Y-80.61
X93.58Y-83.15
X93.58Y-94.11
X93.58Y-96.65
X93.58Y-107.61
X93.58Y-110.15
X93.58Y-121.11
X93.58Y-123.65
X96.12Y-26.61
X96.12Y-29.15
X96.12Y-40.11
X96.12Y-42.65
X96.12Y-53.61
X96.12Y-56.15
X96.12Y-67.11
X96.12Y-69.65
X96.12Y-80.61
X96.12Y-83.15
X96.12Y-94.11
X96.12Y-96.65
X96.12Y-107.61
X96.12Y-110.15
X96.12Y-121.11
X96.12Y-123.65
X98.66Y-26.61
X98.66Y-29.15
X98.66Y-40.11
X98.66Y-42.65
X98.66Y-53.61
X98.66Y-56.15
X98.66Y-67.11
X98.66Y-69.65
X98.66Y-80.61
X98.66Y-83.15
X98.66Y-94.11
X98.66Y-96.65
X98.66Y-107.61
X98.66Y-110.15
X98.66Y-121.11
X98.66Y-123.65
X101.2Y-26.61
X101.2Y-29.15
X101.2Y-40.11
X101.2Y-42.65
X101.2Y-53.61
X101.2Y-56.15
X101.2Y-67.11
X101.2Y-69.65
X101.2Y-80.61
X101.2Y-83.15
X101.2Y-94.11
X101.2Y-96.65
X101.2Y-107.61
X101.2Y-110.15
X101.2Y-121.11
X101.2Y-123.65
X103.74Y-26.61
X103.74Y-29.15
X103.74Y-40.11
X103.74Y-42.65
X103.74Y-53.61
X103.74Y-56.15
X103.74Y-67.11
X103.74Y-69.65
X103.74Y-80.61
X103.74Y-83.15
X103.74Y-94.11
X103.74Y-96.65
X103.74Y-107.61
X103.74Y-110.15
X103.74Y-121.11
X103.74Y-123.65
X106.28Y-26.61
X106.28Y-29.15
X106.28Y-40.11
X106.28Y-42.65
X106.28Y-53.61
X106.28Y-56.15
X106.28Y-67.11
X106.28Y-69.65
X106.28Y-80.61
X106.28Y-83.15
X106.28Y-94.11
X106.28Y-96.65
X106.28Y-107.61
X106.28Y-110.15
X106.28Y-121.11
X106.28Y-123.65
X108.82Y-26.61
X108.82Y-29.15
X108.82Y-40.11
X108.82Y-42.65
X108.82Y-53.61
X108.82Y-56.15
X108.82Y-67.11
X108.82Y-69.65
X108.82Y-80.61
X108.82Y-83.15
X108.82Y-94.11
X108.82Y-96.65
X108.82Y-107.61
X108.82Y-110.15
X108.82Y-121.11
X108.82Y-123.65
X111.36Y-26.61
X111.36Y-29.15
X111.36Y-40.11
X111.36Y-42.65
X111.36Y-53.61
X111.36Y-56.15
X111.36Y-67.11
X111.36Y-69.65
X111.36Y-80.61
X111.36Y-83.15
X111.36Y-94.11
X111.36Y-96.65
X111.36Y-107.61
X111.36Y-110.15
X111.36Y-121.11
X111.36Y-123.65
X113.9Y-26.61
X113.9Y-29.15
X113.9Y-40.11
X113.9Y-42.65
X113.9Y-53.61
X113.9Y-56.15
X113.9Y-67.11
X113.9Y-69.65
X113.9Y-80.61
X113.9Y-83.15
X113.9Y-94.11
X113.9Y-96.65
X113.9Y-107.61
X113.9Y-110.15
X113.9Y-121.11
X113.9Y-123.65
X116.44Y-26.61
X116.44Y-29.15
X116.44Y-40.11
X116.44Y-42.65
X116.44Y-53.61
X116.44Y-56.15
X116.44Y-67.11
X116.44Y-69.65
X116.44Y-80.61
X116.44Y-83.15
X116.44Y-94.11
X116.44Y-96.65
X116.44Y-107.61
X116.44Y-110.15
X116.44Y-121.11
X116.44Y-123.65
M30
