%TF.GenerationSoftware,KiCad,Pcbnew,9.0.6*%
%TF.CreationDate,2026-04-05T02:01:26-04:00*%
%TF.ProjectId,Processor,50726f63-6573-4736-9f72-2e6b69636164,rev?*%
%TF.SameCoordinates,Original*%
%TF.FileFunction,Soldermask,Top*%
%TF.FilePolarity,Negative*%
%FSLAX46Y46*%
G04 Gerber Fmt 4.6, Leading zero omitted, Abs format (unit mm)*
G04 Created by KiCad (PCBNEW 9.0.6) date 2026-04-05 02:01:26*
%MOMM*%
%LPD*%
G01*
G04 APERTURE LIST*
G04 Aperture macros list*
%AMRoundRect*
0 Rectangle with rounded corners*
0 $1 Rounding radius*
0 $2 $3 $4 $5 $6 $7 $8 $9 X,Y pos of 4 corners*
0 Add a 4 corners polygon primitive as box body*
4,1,4,$2,$3,$4,$5,$6,$7,$8,$9,$2,$3,0*
0 Add four circle primitives for the rounded corners*
1,1,$1+$1,$2,$3*
1,1,$1+$1,$4,$5*
1,1,$1+$1,$6,$7*
1,1,$1+$1,$8,$9*
0 Add four rect primitives between the rounded corners*
20,1,$1+$1,$2,$3,$4,$5,0*
20,1,$1+$1,$4,$5,$6,$7,0*
20,1,$1+$1,$6,$7,$8,$9,0*
20,1,$1+$1,$8,$9,$2,$3,0*%
G04 Aperture macros list end*
%ADD10C,1.600000*%
%ADD11C,1.400000*%
%ADD12R,1.600000X1.600000*%
%ADD13RoundRect,0.250000X-0.550000X-0.550000X0.550000X-0.550000X0.550000X0.550000X-0.550000X0.550000X0*%
%ADD14C,3.200000*%
%ADD15R,1.700000X1.700000*%
%ADD16C,1.700000*%
G04 APERTURE END LIST*
D10*
%TO.C,C1*%
X106750000Y-50320000D03*
X106750000Y-45320000D03*
%TD*%
D11*
%TO.C,R5*%
X44520000Y-66910000D03*
X44520000Y-74530000D03*
%TD*%
D12*
%TO.C,RN1*%
X110560000Y-60560000D03*
D10*
X110560000Y-58020000D03*
X110560000Y-55480000D03*
X110560000Y-52940000D03*
X110560000Y-50400000D03*
%TD*%
D13*
%TO.C,U7*%
X95959000Y-73260000D03*
D10*
X95959000Y-75800000D03*
X95959000Y-78340000D03*
X95959000Y-80880000D03*
X95959000Y-83420000D03*
X95959000Y-85960000D03*
X95959000Y-88500000D03*
X95959000Y-91040000D03*
X95959000Y-93580000D03*
X95959000Y-96120000D03*
X95959000Y-98660000D03*
X95959000Y-101200000D03*
X103579000Y-101200000D03*
X103579000Y-98660000D03*
X103579000Y-96120000D03*
X103579000Y-93580000D03*
X103579000Y-91040000D03*
X103579000Y-88500000D03*
X103579000Y-85960000D03*
X103579000Y-83420000D03*
X103579000Y-80880000D03*
X103579000Y-78340000D03*
X103579000Y-75800000D03*
X103579000Y-73260000D03*
%TD*%
D12*
%TO.C,RN6*%
X88970000Y-93580000D03*
D10*
X88970000Y-91040000D03*
X88970000Y-88500000D03*
X88970000Y-85960000D03*
X88970000Y-83420000D03*
%TD*%
D11*
%TO.C,R1*%
X41980000Y-66910000D03*
X41980000Y-74530000D03*
%TD*%
D10*
%TO.C,C5*%
X66140000Y-55480000D03*
X66140000Y-60480000D03*
%TD*%
D11*
%TO.C,R6*%
X46590000Y-107550000D03*
X46590000Y-115170000D03*
%TD*%
D12*
%TO.C,RN8*%
X88970000Y-58020000D03*
D10*
X88970000Y-55480000D03*
X88970000Y-52940000D03*
X88970000Y-50400000D03*
X88970000Y-47860000D03*
%TD*%
D13*
%TO.C,U4*%
X95959000Y-45320000D03*
D10*
X95959000Y-47860000D03*
X95959000Y-50400000D03*
X95959000Y-52940000D03*
X95959000Y-55480000D03*
X95959000Y-58020000D03*
X95959000Y-60560000D03*
X95959000Y-63100000D03*
X95959000Y-65640000D03*
X95959000Y-68180000D03*
X103579000Y-68180000D03*
X103579000Y-65640000D03*
X103579000Y-63100000D03*
X103579000Y-60560000D03*
X103579000Y-58020000D03*
X103579000Y-55480000D03*
X103579000Y-52940000D03*
X103579000Y-50400000D03*
X103579000Y-47860000D03*
X103579000Y-45320000D03*
%TD*%
D12*
%TO.C,RN5*%
X62300000Y-83420000D03*
D10*
X62300000Y-85960000D03*
X62300000Y-88500000D03*
X62300000Y-91040000D03*
X62300000Y-93580000D03*
%TD*%
D12*
%TO.C,RN4*%
X106750000Y-68180000D03*
D10*
X106750000Y-65640000D03*
X106750000Y-63100000D03*
X106750000Y-60560000D03*
X106750000Y-58020000D03*
%TD*%
D11*
%TO.C,R4*%
X58490000Y-74530000D03*
X58490000Y-66910000D03*
%TD*%
D14*
%TO.C,J1*%
X28200000Y-28200000D03*
X121800000Y-28200000D03*
D15*
X116440000Y-118030000D03*
D16*
X116440000Y-120570000D03*
X113900000Y-118030000D03*
X113900000Y-120570000D03*
X111360000Y-118030000D03*
X111360000Y-120570000D03*
X108820000Y-118030000D03*
X108820000Y-120570000D03*
X106280000Y-118030000D03*
X106280000Y-120570000D03*
X103740000Y-118030000D03*
X103740000Y-120570000D03*
X101200000Y-118030000D03*
X101200000Y-120570000D03*
X98660000Y-118030000D03*
X98660000Y-120570000D03*
X96120000Y-118030000D03*
X96120000Y-120570000D03*
X93580000Y-118030000D03*
X93580000Y-120570000D03*
X91040000Y-118030000D03*
X91040000Y-120570000D03*
X88500000Y-118030000D03*
X88500000Y-120570000D03*
X85960000Y-118030000D03*
X85960000Y-120570000D03*
X83420000Y-118030000D03*
X83420000Y-120570000D03*
X80880000Y-118030000D03*
X80880000Y-120570000D03*
X78340000Y-118030000D03*
X78340000Y-120570000D03*
X75800000Y-118030000D03*
X75800000Y-120570000D03*
X73260000Y-118030000D03*
X73260000Y-120570000D03*
X70720000Y-118030000D03*
X70720000Y-120570000D03*
X68180000Y-118030000D03*
X68180000Y-120570000D03*
X65640000Y-118030000D03*
X65640000Y-120570000D03*
X63100000Y-118030000D03*
X63100000Y-120570000D03*
X60560000Y-118030000D03*
X60560000Y-120570000D03*
X58020000Y-118030000D03*
X58020000Y-120570000D03*
X55480000Y-118030000D03*
X55480000Y-120570000D03*
D15*
X51670000Y-118060000D03*
D16*
X51670000Y-120600000D03*
X49130000Y-118060000D03*
X49130000Y-120600000D03*
X46590000Y-118060000D03*
X46590000Y-120600000D03*
X44050000Y-118060000D03*
X44050000Y-120600000D03*
D15*
X40240000Y-120570000D03*
D16*
X37700000Y-120570000D03*
X35160000Y-120570000D03*
X32620000Y-120570000D03*
%TD*%
D12*
%TO.C,RN7*%
X66110000Y-73260000D03*
D10*
X66110000Y-75800000D03*
X66110000Y-78340000D03*
X66110000Y-80880000D03*
X66110000Y-83420000D03*
%TD*%
D12*
%TO.C,RN2*%
X92780000Y-68180000D03*
D10*
X92780000Y-65640000D03*
X92780000Y-63100000D03*
X92780000Y-60560000D03*
X92780000Y-58020000D03*
%TD*%
D11*
%TO.C,R9*%
X54172000Y-107550000D03*
X54172000Y-115170000D03*
%TD*%
D10*
%TO.C,C4*%
X66110000Y-50320000D03*
X66110000Y-45320000D03*
%TD*%
D11*
%TO.C,R2*%
X92780000Y-83420000D03*
X92780000Y-75800000D03*
%TD*%
%TO.C,R3*%
X41530000Y-107549000D03*
X41530000Y-115169000D03*
%TD*%
D10*
%TO.C,C3*%
X66110000Y-68100000D03*
X66110000Y-63100000D03*
%TD*%
D12*
%TO.C,RN3*%
X62300000Y-77070000D03*
D10*
X62300000Y-74530000D03*
X62300000Y-71990000D03*
X62300000Y-69450000D03*
X62300000Y-66910000D03*
%TD*%
%TO.C,C2*%
X106881000Y-78260000D03*
X106881000Y-73260000D03*
%TD*%
D11*
%TO.C,R7*%
X58020000Y-107550000D03*
X58020000Y-115170000D03*
%TD*%
D12*
%TO.C,Y1*%
X49600000Y-62084000D03*
D10*
X49600000Y-54464000D03*
X49600000Y-46844000D03*
X41980000Y-54464000D03*
X41980000Y-46844000D03*
X41980000Y-62084000D03*
%TD*%
D13*
%TO.C,U1*%
X69920000Y-45320000D03*
D10*
X69920000Y-47860000D03*
X69920000Y-50400000D03*
X69920000Y-52940000D03*
X69920000Y-55480000D03*
X69920000Y-58020000D03*
X69920000Y-60560000D03*
X69920000Y-63100000D03*
X69920000Y-65640000D03*
X69920000Y-68180000D03*
X69920000Y-70720000D03*
X69920000Y-73260000D03*
X69920000Y-75800000D03*
X69920000Y-78340000D03*
X69920000Y-80880000D03*
X69920000Y-83420000D03*
X69920000Y-85960000D03*
X69920000Y-88500000D03*
X69920000Y-91040000D03*
X69920000Y-93580000D03*
X85160000Y-93580000D03*
X85160000Y-91040000D03*
X85160000Y-88500000D03*
X85160000Y-85960000D03*
X85160000Y-83420000D03*
X85160000Y-80880000D03*
X85160000Y-78340000D03*
X85160000Y-75800000D03*
X85160000Y-73260000D03*
X85160000Y-70720000D03*
X85160000Y-68180000D03*
X85160000Y-65640000D03*
X85160000Y-63100000D03*
X85160000Y-60560000D03*
X85160000Y-58020000D03*
X85160000Y-55480000D03*
X85160000Y-52940000D03*
X85160000Y-50400000D03*
X85160000Y-47860000D03*
X85160000Y-45320000D03*
%TD*%
D11*
%TO.C,R8*%
X49130000Y-107550000D03*
X49130000Y-115170000D03*
%TD*%
D13*
%TO.C,U2*%
X54680000Y-45320000D03*
D10*
X54680000Y-47860000D03*
X54680000Y-50400000D03*
X54680000Y-52940000D03*
X54680000Y-55480000D03*
X54680000Y-58020000D03*
X54680000Y-60560000D03*
X54680000Y-63100000D03*
X62300000Y-63100000D03*
X62300000Y-60560000D03*
X62300000Y-58020000D03*
X62300000Y-55480000D03*
X62300000Y-52940000D03*
X62300000Y-50400000D03*
X62300000Y-47860000D03*
X62300000Y-45320000D03*
%TD*%
M02*
