M48
; DRILL file {KiCad 9.0.6} date 2026-04-05T02:01:28-0400
; FORMAT={-:-/ absolute / metric / decimal}
; #@! TF.CreationDate,2026-04-05T02:01:28-04:00
; #@! TF.GenerationSoftware,Kicad,Pcbnew,9.0.6
; #@! TF.FileFunction,Plated,1,2,PTH
FMAT,2
METRIC
; #@! TA.AperFunction,Plated,PTH,ViaDrill
T1C0.300
; #@! TA.AperFunction,Plated,PTH,ComponentDrill
T2C0.700
; #@! TA.AperFunction,Plated,PTH,ComponentDrill
T3C0.800
; #@! TA.AperFunction,Plated,PTH,ComponentDrill
T4C1.000
%
G90
G05
T1
X33.99Y-121.89
X34.218Y-75.688
X36.45Y-121.61
X36.73Y-74.68
X40.24Y-116.46
X43.504Y-64.116
X44.63Y-72.8
X45.542Y-58.274
X46.21Y-49.38
X46.392Y-99.45
X47.0Y-41.94
X47.0Y-64.419
X47.379Y-116.5
X50.101Y-66.08
X50.33Y-60.48
X51.31Y-46.92
X51.78Y-56.9
X55.49Y-65.27
X55.95Y-106.407
X57.25Y-83.7
X57.38Y-54.36
X57.601Y-51.289
X57.651Y-105.747
X57.84Y-55.56
X58.495Y-65.309
X58.57Y-50.43
X58.77Y-41.184
X59.21Y-42.384
X59.21Y-48.905
X59.76Y-107.042
X60.93Y-107.348
X61.3Y-105.14
X63.231Y-59.459
X63.34Y-107.749
X63.57Y-52.051
X64.332Y-71.482
X64.459Y-105.747
X66.11Y-108.18
X66.79Y-40.783
X67.99Y-58.28
X68.742Y-63.956
X68.91Y-108.551
X69.539Y-105.391
X70.71Y-42.384
X71.19Y-59.29
X71.44Y-64.35
X71.444Y-116.186
X71.79Y-68.18
X72.021Y-115.632
X72.206Y-70.974
X72.575Y-115.055
X72.592Y-73.26
X72.993Y-75.8
X73.141Y-114.489
X73.394Y-78.34
X73.706Y-113.923
X73.795Y-80.88
X74.196Y-83.42
X74.272Y-113.358
X74.597Y-86.36
X74.838Y-112.792
X74.998Y-88.5
X74.998Y-96.49
X75.399Y-91.294
X75.399Y-95.739
X75.404Y-112.226
X75.8Y-92.31
X75.969Y-111.661
X76.535Y-111.095
X77.003Y-55.408
X77.01Y-98.061
X77.023Y-77.53
X77.101Y-110.529
X77.145Y-98.969
X77.424Y-54.728
X77.666Y-109.964
X77.72Y-108.551
X78.271Y-54.33
X78.672Y-51.85
X79.55Y-108.551
X79.66Y-49.22
X80.46Y-83.73
X80.95Y-86.26
X81.38Y-88.75
X81.82Y-91.15
X83.471Y-41.983
X83.923Y-45.778
X84.4Y-46.421
X85.05Y-41.55
X85.99Y-69.47
X86.601Y-64.243
X86.861Y-78.05
X87.06Y-61.842
X87.4Y-75.61
X87.461Y-59.89
X87.801Y-73.26
X88.26Y-68.15
X88.263Y-111.83
X88.661Y-60.81
X89.02Y-75.62
X90.494Y-84.436
X90.79Y-62.46
X90.901Y-112.231
X91.21Y-64.94
X91.256Y-51.924
X91.71Y-54.22
X91.779Y-74.741
X93.427Y-112.632
X94.558Y-66.91
X94.812Y-56.75
X95.987Y-113.033
X98.067Y-105.254
X98.457Y-113.434
X98.59Y-105.86
X99.066Y-106.503
X99.58Y-107.16
X100.121Y-107.749
X100.753Y-108.24
X100.93Y-86.075
X100.963Y-113.835
X102.178Y-70.466
X103.4Y-41.04
X103.61Y-114.236
X104.591Y-66.91
X106.242Y-114.637
X108.695Y-115.038
X109.8Y-83.68
X111.217Y-115.437
X112.32Y-81.06
X113.8Y-115.84
X114.91Y-77.35
X117.36Y-76.02
T2
X41.53Y-107.549
X41.53Y-115.169
X41.98Y-66.91
X41.98Y-74.53
X44.52Y-66.91
X44.52Y-74.53
X46.59Y-107.55
X46.59Y-115.17
X49.13Y-107.55
X49.13Y-115.17
X54.172Y-107.55
X54.172Y-115.17
X58.02Y-107.55
X58.02Y-115.17
X58.49Y-66.91
X58.49Y-74.53
X92.78Y-75.8
X92.78Y-83.42
T3
X41.98Y-46.844
X41.98Y-54.464
X41.98Y-62.084
X49.6Y-46.844
X49.6Y-54.464
X49.6Y-62.084
X54.68Y-45.32
X54.68Y-47.86
X54.68Y-50.4
X54.68Y-52.94
X54.68Y-55.48
X54.68Y-58.02
X54.68Y-60.56
X54.68Y-63.1
X62.3Y-45.32
X62.3Y-47.86
X62.3Y-50.4
X62.3Y-52.94
X62.3Y-55.48
X62.3Y-58.02
X62.3Y-60.56
X62.3Y-63.1
X62.3Y-66.91
X62.3Y-69.45
X62.3Y-71.99
X62.3Y-74.53
X62.3Y-77.07
X62.3Y-83.42
X62.3Y-85.96
X62.3Y-88.5
X62.3Y-91.04
X62.3Y-93.58
X66.11Y-45.32
X66.11Y-50.32
X66.11Y-63.1
X66.11Y-68.1
X66.11Y-73.26
X66.11Y-75.8
X66.11Y-78.34
X66.11Y-80.88
X66.11Y-83.42
X66.14Y-55.48
X66.14Y-60.48
X69.92Y-45.32
X69.92Y-47.86
X69.92Y-50.4
X69.92Y-52.94
X69.92Y-55.48
X69.92Y-58.02
X69.92Y-60.56
X69.92Y-63.1
X69.92Y-65.64
X69.92Y-68.18
X69.92Y-70.72
X69.92Y-73.26
X69.92Y-75.8
X69.92Y-78.34
X69.92Y-80.88
X69.92Y-83.42
X69.92Y-85.96
X69.92Y-88.5
X69.92Y-91.04
X69.92Y-93.58
X85.16Y-45.32
X85.16Y-47.86
X85.16Y-50.4
X85.16Y-52.94
X85.16Y-55.48
X85.16Y-58.02
X85.16Y-60.56
X85.16Y-63.1
X85.16Y-65.64
X85.16Y-68.18
X85.16Y-70.72
X85.16Y-73.26
X85.16Y-75.8
X85.16Y-78.34
X85.16Y-80.88
X85.16Y-83.42
X85.16Y-85.96
X85.16Y-88.5
X85.16Y-91.04
X85.16Y-93.58
X88.97Y-47.86
X88.97Y-50.4
X88.97Y-52.94
X88.97Y-55.48
X88.97Y-58.02
X88.97Y-83.42
X88.97Y-85.96
X88.97Y-88.5
X88.97Y-91.04
X88.97Y-93.58
X92.78Y-58.02
X92.78Y-60.56
X92.78Y-63.1
X92.78Y-65.64
X92.78Y-68.18
X95.959Y-45.32
X95.959Y-47.86
X95.959Y-50.4
X95.959Y-52.94
X95.959Y-55.48
X95.959Y-58.02
X95.959Y-60.56
X95.959Y-63.1
X95.959Y-65.64
X95.959Y-68.18
X95.959Y-73.26
X95.959Y-75.8
X95.959Y-78.34
X95.959Y-80.88
X95.959Y-83.42
X95.959Y-85.96
X95.959Y-88.5
X95.959Y-91.04
X95.959Y-93.58
X95.959Y-96.12
X95.959Y-98.66
X95.959Y-101.2
X103.579Y-45.32
X103.579Y-47.86
X103.579Y-50.4
X103.579Y-52.94
X103.579Y-55.48
X103.579Y-58.02
X103.579Y-60.56
X103.579Y-63.1
X103.579Y-65.64
X103.579Y-68.18
X103.579Y-73.26
X103.579Y-75.8
X103.579Y-78.34
X103.579Y-80.88
X103.579Y-83.42
X103.579Y-85.96
X103.579Y-88.5
X103.579Y-91.04
X103.579Y-93.58
X103.579Y-96.12
X103.579Y-98.66
X103.579Y-101.2
X106.75Y-45.32
X106.75Y-50.32
X106.75Y-58.02
X106.75Y-60.56
X106.75Y-63.1
X106.75Y-65.64
X106.75Y-68.18
X106.881Y-73.26
X106.881Y-78.26
X110.56Y-50.4
X110.56Y-52.94
X110.56Y-55.48
X110.56Y-58.02
X110.56Y-60.56
T4
X32.62Y-120.57
X35.16Y-120.57
X37.7Y-120.57
X40.24Y-120.57
X44.05Y-118.06
X44.05Y-120.6
X46.59Y-118.06
X46.59Y-120.6
X49.13Y-118.06
X49.13Y-120.6
X51.67Y-118.06
X51.67Y-120.6
X55.48Y-118.03
X55.48Y-120.57
X58.02Y-118.03
X58.02Y-120.57
X60.56Y-118.03
X60.56Y-120.57
X63.1Y-118.03
X63.1Y-120.57
X65.64Y-118.03
X65.64Y-120.57
X68.18Y-118.03
X68.18Y-120.57
X70.72Y-118.03
X70.72Y-120.57
X73.26Y-118.03
X73.26Y-120.57
X75.8Y-118.03
X75.8Y-120.57
X78.34Y-118.03
X78.34Y-120.57
X80.88Y-118.03
X80.88Y-120.57
X83.42Y-118.03
X83.42Y-120.57
X85.96Y-118.03
X85.96Y-120.57
X88.5Y-118.03
X88.5Y-120.57
X91.04Y-118.03
X91.04Y-120.57
X93.58Y-118.03
X93.58Y-120.57
X96.12Y-118.03
X96.12Y-120.57
X98.66Y-118.03
X98.66Y-120.57
X101.2Y-118.03
X101.2Y-120.57
X103.74Y-118.03
X103.74Y-120.57
X106.28Y-118.03
X106.28Y-120.57
X108.82Y-118.03
X108.82Y-120.57
X111.36Y-118.03
X111.36Y-120.57
X113.9Y-118.03
X113.9Y-120.57
X116.44Y-118.03
X116.44Y-120.57
M30
