M48
; DRILL file {KiCad 9.0.6} date 2026-03-22T06:21:49-0400
; FORMAT={-:-/ absolute / metric / decimal}
; #@! TF.CreationDate,2026-03-22T06:21:49-04:00
; #@! TF.GenerationSoftware,Kicad,Pcbnew,9.0.6
; #@! TF.FileFunction,Plated,1,2,PTH
FMAT,2
METRIC
; #@! TA.AperFunction,Plated,PTH,ComponentDrill
T1C1.500
%
G90
G05
T1
X37.896Y-32.745
X37.896Y-51.795
X40.076Y-128.075
X42.626Y-70.845
X44.246Y-30.205
X44.246Y-49.255
X44.946Y-89.895
X46.426Y-125.535
X48.976Y-68.305
X49.716Y-109.025
X51.296Y-87.355
X56.066Y-106.485
X56.946Y-51.795
X63.296Y-49.255
X63.889Y-128.075
X66.439Y-70.845
X70.239Y-125.535
X71.234Y-89.895
X72.789Y-68.305
X75.996Y-51.795
X77.584Y-87.355
X80.746Y-108.945
X82.346Y-49.255
X85.489Y-70.845
X87.096Y-106.405
X87.701Y-128.075
X90.284Y-89.895
X91.839Y-68.305
X94.051Y-125.535
X95.046Y-51.795
X96.634Y-87.355
X99.796Y-108.945
X101.396Y-49.255
X104.539Y-70.845
X106.146Y-106.405
X109.334Y-89.895
X110.889Y-68.305
X114.096Y-51.795
X115.684Y-87.355
X118.846Y-108.945
X120.446Y-49.255
X123.589Y-70.845
X125.196Y-106.405
X128.384Y-89.895
X129.939Y-68.305
X133.146Y-51.795
X134.734Y-87.355
X137.896Y-108.945
X139.496Y-49.255
X142.639Y-70.845
X144.246Y-106.405
X147.434Y-89.895
X148.989Y-68.305
X152.196Y-51.795
X153.784Y-87.355
X156.946Y-108.945
X158.546Y-49.255
X159.086Y-128.125
X161.689Y-70.845
X163.296Y-106.405
X165.436Y-125.585
X166.484Y-89.895
X168.039Y-68.305
X171.246Y-51.795
X172.834Y-87.355
X175.996Y-108.945
X177.596Y-49.255
X180.739Y-70.845
X182.346Y-106.405
X185.534Y-89.895
X187.089Y-68.305
X190.296Y-51.795
X191.884Y-87.355
X195.046Y-108.945
X196.646Y-49.255
X199.789Y-70.845
X201.396Y-106.405
X204.584Y-89.895
X206.139Y-68.305
X209.346Y-51.795
X210.934Y-87.355
X214.096Y-108.945
X215.696Y-49.255
X218.839Y-70.845
X220.446Y-106.405
X223.634Y-89.895
X225.189Y-68.305
X228.146Y-128.125
X228.396Y-51.795
X229.984Y-87.355
X233.146Y-108.945
X234.496Y-125.585
X234.746Y-49.255
X237.889Y-70.845
X239.496Y-106.405
X242.684Y-89.895
X244.239Y-68.305
X247.196Y-128.125
X247.446Y-51.795
X249.034Y-87.355
X252.196Y-108.945
X253.546Y-125.585
X253.796Y-49.255
X256.939Y-70.845
X258.546Y-106.405
X261.734Y-89.895
X263.289Y-68.305
X266.246Y-128.125
X266.246Y-147.175
X266.496Y-51.795
X268.084Y-87.355
X272.596Y-125.585
X272.596Y-144.635
X272.846Y-49.255
X275.989Y-70.845
X282.339Y-68.305
X285.296Y-128.125
X285.296Y-147.175
X288.016Y-108.907
X291.646Y-125.585
X291.646Y-144.635
X292.756Y-89.855
X294.366Y-106.367
X295.096Y-51.735
X299.106Y-87.315
X299.866Y-70.925
X301.446Y-49.195
X304.346Y-147.175
X306.216Y-68.385
X310.696Y-144.635
M30
