M48
; DRILL file {KiCad 9.0.6} date 2026-03-22T06:21:49-0400
; FORMAT={-:-/ absolute / metric / decimal}
; #@! TF.CreationDate,2026-03-22T06:21:49-04:00
; #@! TF.GenerationSoftware,Kicad,Pcbnew,9.0.6
; #@! TF.FileFunction,NonPlated,1,2,NPTH
FMAT,2
METRIC
; #@! TA.AperFunction,NonPlated,NPTH,ComponentDrill
T1C1.700
; #@! TA.AperFunction,NonPlated,NPTH,ComponentDrill
T2C3.050
; #@! TA.AperFunction,NonPlated,NPTH,ComponentDrill
T3C4.000
%
G90
G05
T1
X36.626Y-35.285
X36.626Y-54.335
X38.806Y-130.615
X41.356Y-73.385
X43.676Y-92.435
X46.786Y-35.285
X46.786Y-54.335
X48.446Y-111.565
X48.966Y-130.615
X51.516Y-73.385
X53.836Y-92.435
X55.676Y-54.335
X58.606Y-111.565
X62.619Y-130.615
X65.169Y-73.385
X65.836Y-54.335
X69.964Y-92.435
X72.779Y-130.615
X74.726Y-54.335
X75.329Y-73.385
X79.476Y-111.485
X80.124Y-92.435
X84.219Y-73.385
X84.886Y-54.335
X86.431Y-130.615
X89.014Y-92.435
X89.636Y-111.485
X93.776Y-54.335
X94.379Y-73.385
X96.591Y-130.615
X98.526Y-111.485
X99.174Y-92.435
X103.269Y-73.385
X103.936Y-54.335
X108.064Y-92.435
X108.686Y-111.485
X112.826Y-54.335
X113.429Y-73.385
X117.576Y-111.485
X118.224Y-92.435
X122.319Y-73.385
X122.986Y-54.335
X127.114Y-92.435
X127.736Y-111.485
X131.876Y-54.335
X132.479Y-73.385
X136.626Y-111.485
X137.274Y-92.435
X141.369Y-73.385
X142.036Y-54.335
X146.164Y-92.435
X146.786Y-111.485
X150.926Y-54.335
X151.529Y-73.385
X155.676Y-111.485
X156.324Y-92.435
X157.816Y-130.665
X160.419Y-73.385
X161.086Y-54.335
X165.214Y-92.435
X165.836Y-111.485
X167.976Y-130.665
X169.976Y-54.335
X170.579Y-73.385
X174.726Y-111.485
X175.374Y-92.435
X179.469Y-73.385
X180.136Y-54.335
X184.264Y-92.435
X184.886Y-111.485
X189.026Y-54.335
X189.629Y-73.385
X193.776Y-111.485
X194.424Y-92.435
X198.519Y-73.385
X199.186Y-54.335
X203.314Y-92.435
X203.936Y-111.485
X208.076Y-54.335
X208.679Y-73.385
X212.826Y-111.485
X213.474Y-92.435
X217.569Y-73.385
X218.236Y-54.335
X222.364Y-92.435
X222.986Y-111.485
X226.876Y-130.665
X227.126Y-54.335
X227.729Y-73.385
X231.876Y-111.485
X232.524Y-92.435
X236.619Y-73.385
X237.036Y-130.665
X237.286Y-54.335
X241.414Y-92.435
X242.036Y-111.485
X245.926Y-130.665
X246.176Y-54.335
X246.779Y-73.385
X250.926Y-111.485
X251.574Y-92.435
X255.669Y-73.385
X256.086Y-130.665
X256.336Y-54.335
X260.464Y-92.435
X261.086Y-111.485
X264.976Y-130.665
X264.976Y-149.715
X265.226Y-54.335
X265.829Y-73.385
X270.624Y-92.435
X274.719Y-73.385
X275.136Y-130.665
X275.136Y-149.715
X275.386Y-54.335
X284.026Y-130.665
X284.026Y-149.715
X284.879Y-73.385
X286.746Y-111.447
X291.486Y-92.395
X293.826Y-54.275
X294.186Y-130.665
X294.186Y-149.715
X296.906Y-111.447
X298.596Y-73.465
X301.646Y-92.395
X303.076Y-149.715
X303.986Y-54.275
X308.756Y-73.465
X313.236Y-149.715
T2
X41.626Y-104.565
X65.426Y-104.565
X112.896Y-123.665
X212.896Y-123.665
X279.926Y-104.447
X284.666Y-85.395
X287.006Y-47.275
X303.726Y-104.447
X308.466Y-85.395
X310.806Y-47.275
T3
X41.626Y-119.805
X41.706Y-35.285
X41.706Y-54.335
X43.886Y-130.615
X46.436Y-73.385
X48.756Y-92.435
X53.526Y-111.565
X60.756Y-54.335
X65.426Y-119.805
X67.699Y-130.615
X70.249Y-73.385
X75.044Y-92.435
X79.806Y-54.335
X84.556Y-111.485
X89.299Y-73.385
X91.511Y-130.615
X94.094Y-92.435
X98.856Y-54.335
X103.606Y-111.485
X108.349Y-73.385
X112.896Y-138.905
X113.144Y-92.435
X117.906Y-54.335
X122.656Y-111.485
X127.399Y-73.385
X132.194Y-92.435
X136.956Y-54.335
X141.706Y-111.485
X146.449Y-73.385
X151.244Y-92.435
X156.006Y-54.335
X160.756Y-111.485
X162.896Y-130.665
X165.499Y-73.385
X170.294Y-92.435
X175.056Y-54.335
X179.806Y-111.485
X184.549Y-73.385
X189.344Y-92.435
X194.106Y-54.335
X198.856Y-111.485
X203.599Y-73.385
X208.394Y-92.435
X212.896Y-138.905
X213.156Y-54.335
X217.906Y-111.485
X222.649Y-73.385
X227.444Y-92.435
X231.956Y-130.665
X232.206Y-54.335
X236.956Y-111.485
X241.699Y-73.385
X246.494Y-92.435
X251.006Y-130.665
X251.256Y-54.335
X256.006Y-111.485
X260.749Y-73.385
X265.544Y-92.435
X270.056Y-130.665
X270.056Y-149.715
X270.306Y-54.335
X279.799Y-73.385
X279.926Y-119.688
X284.666Y-100.635
X287.006Y-62.515
X289.106Y-130.665
X289.106Y-149.715
X291.826Y-111.447
X296.566Y-92.395
X298.906Y-54.275
X303.676Y-73.465
X303.726Y-119.688
X308.156Y-149.715
X308.466Y-100.635
X310.806Y-62.515
M30
