%TF.GenerationSoftware,KiCad,Pcbnew,9.0.6*%
%TF.CreationDate,2026-04-02T02:11:09-04:00*%
%TF.ProjectId,Keyboard,4b657962-6f61-4726-942e-6b696361645f,rev?*%
%TF.SameCoordinates,Original*%
%TF.FileFunction,Soldermask,Top*%
%TF.FilePolarity,Negative*%
%FSLAX46Y46*%
G04 Gerber Fmt 4.6, Leading zero omitted, Abs format (unit mm)*
G04 Created by KiCad (PCBNEW 9.0.6) date 2026-04-02 02:11:09*
%MOMM*%
%LPD*%
G01*
G04 APERTURE LIST*
G04 Aperture macros list*
%AMRoundRect*
0 Rectangle with rounded corners*
0 $1 Rounding radius*
0 $2 $3 $4 $5 $6 $7 $8 $9 X,Y pos of 4 corners*
0 Add a 4 corners polygon primitive as box body*
4,1,4,$2,$3,$4,$5,$6,$7,$8,$9,$2,$3,0*
0 Add four circle primitives for the rounded corners*
1,1,$1+$1,$2,$3*
1,1,$1+$1,$4,$5*
1,1,$1+$1,$6,$7*
1,1,$1+$1,$8,$9*
0 Add four rect primitives between the rounded corners*
20,1,$1+$1,$2,$3,$4,$5,0*
20,1,$1+$1,$4,$5,$6,$7,0*
20,1,$1+$1,$6,$7,$8,$9,0*
20,1,$1+$1,$8,$9,$2,$3,0*%
G04 Aperture macros list end*
%ADD10C,3.100000*%
%ADD11C,1.700000*%
%ADD12C,4.000000*%
%ADD13C,2.200000*%
%ADD14C,3.050000*%
%ADD15R,1.800000X1.800000*%
%ADD16C,1.800000*%
%ADD17R,1.700000X1.700000*%
%ADD18RoundRect,0.250000X-0.550000X0.550000X-0.550000X-0.550000X0.550000X-0.550000X0.550000X0.550000X0*%
%ADD19C,1.600000*%
%ADD20R,1.600000X1.600000*%
%ADD21C,1.400000*%
G04 APERTURE END LIST*
D10*
%TO.C,H11*%
X260785000Y-44810000D03*
%TD*%
%TO.C,H13*%
X32181250Y-102025000D03*
%TD*%
D11*
%TO.C,SW36*%
X165213750Y-92435000D03*
D12*
X170293750Y-92435000D03*
D11*
X175373750Y-92435000D03*
D13*
X172833750Y-87355000D03*
X166483750Y-89895000D03*
%TD*%
D10*
%TO.C,H12*%
X260785000Y-159240000D03*
%TD*%
D11*
%TO.C,SW2*%
X303326250Y-130615000D03*
D12*
X308406250Y-130615000D03*
D11*
X313486250Y-130615000D03*
D13*
X310946250Y-125535000D03*
X304596250Y-128075000D03*
%TD*%
D11*
%TO.C,SW64*%
X303326250Y-149715000D03*
D12*
X308406250Y-149715000D03*
D11*
X313486250Y-149715000D03*
D13*
X310946250Y-144635000D03*
X304596250Y-147175000D03*
%TD*%
D11*
%TO.C,SW11*%
X208076250Y-54335000D03*
D12*
X213156250Y-54335000D03*
D11*
X218236250Y-54335000D03*
D13*
X215696250Y-49255000D03*
X209346250Y-51795000D03*
%TD*%
D11*
%TO.C,SW49*%
X174726250Y-111485000D03*
D12*
X179806250Y-111485000D03*
D11*
X184886250Y-111485000D03*
D13*
X182346250Y-106405000D03*
X175996250Y-108945000D03*
%TD*%
D11*
%TO.C,SW6*%
X112826250Y-54335000D03*
D12*
X117906250Y-54335000D03*
D11*
X122986250Y-54335000D03*
D13*
X120446250Y-49255000D03*
X114096250Y-51795000D03*
%TD*%
D11*
%TO.C,SW27*%
X255668750Y-73385000D03*
D12*
X260748750Y-73385000D03*
D11*
X265828750Y-73385000D03*
D13*
X263288750Y-68305000D03*
X256938750Y-70845000D03*
%TD*%
D11*
%TO.C,SW24*%
X198518750Y-73385000D03*
D12*
X203598750Y-73385000D03*
D11*
X208678750Y-73385000D03*
D13*
X206138750Y-68305000D03*
X199788750Y-70845000D03*
%TD*%
D11*
%TO.C,SW20*%
X122318750Y-73385000D03*
D12*
X127398750Y-73385000D03*
D11*
X132478750Y-73385000D03*
D13*
X129938750Y-68305000D03*
X123588750Y-70845000D03*
%TD*%
D11*
%TO.C,SW61*%
X284276250Y-130615000D03*
D12*
X289356250Y-130615000D03*
D11*
X294436250Y-130615000D03*
D13*
X291896250Y-125535000D03*
X285546250Y-128075000D03*
%TD*%
D11*
%TO.C,SW25*%
X217568750Y-73385000D03*
D12*
X222648750Y-73385000D03*
D11*
X227728750Y-73385000D03*
D13*
X225188750Y-68305000D03*
X218838750Y-70845000D03*
%TD*%
D11*
%TO.C,SW51*%
X212826250Y-111485000D03*
D12*
X217906250Y-111485000D03*
D11*
X222986250Y-111485000D03*
D13*
X220446250Y-106405000D03*
X214096250Y-108945000D03*
%TD*%
D11*
%TO.C,SW8*%
X150926250Y-54335000D03*
D12*
X156006250Y-54335000D03*
D11*
X161086250Y-54335000D03*
D13*
X158546250Y-49255000D03*
X152196250Y-51795000D03*
%TD*%
D11*
%TO.C,SW35*%
X146163750Y-92435000D03*
D12*
X151243750Y-92435000D03*
D11*
X156323750Y-92435000D03*
D13*
X153783750Y-87355000D03*
X147433750Y-89895000D03*
%TD*%
D14*
%TO.C,SW58*%
X113150000Y-123615000D03*
D12*
X113150000Y-138855000D03*
D11*
X158070000Y-130615000D03*
D12*
X163150000Y-130615000D03*
D11*
X168230000Y-130615000D03*
D14*
X213150000Y-123615000D03*
D12*
X213150000Y-138855000D03*
D13*
X165690000Y-125535000D03*
X159340000Y-128075000D03*
%TD*%
D11*
%TO.C,SW40*%
X241413750Y-92435000D03*
D12*
X246493750Y-92435000D03*
D11*
X251573750Y-92435000D03*
D13*
X249033750Y-87355000D03*
X242683750Y-89895000D03*
%TD*%
D10*
%TO.C,H2*%
X317898750Y-44810000D03*
%TD*%
%TO.C,H18*%
X317898750Y-102025000D03*
%TD*%
D11*
%TO.C,SW62*%
X265226250Y-149715000D03*
D12*
X270306250Y-149715000D03*
D11*
X275386250Y-149715000D03*
D13*
X272846250Y-144635000D03*
X266496250Y-147175000D03*
%TD*%
D10*
%TO.C,H3*%
X317898750Y-159240000D03*
%TD*%
D11*
%TO.C,SW13*%
X246176250Y-54335000D03*
D12*
X251256250Y-54335000D03*
D11*
X256336250Y-54335000D03*
D13*
X253796250Y-49255000D03*
X247446250Y-51795000D03*
%TD*%
D11*
%TO.C,SW53*%
X250926250Y-111485000D03*
D12*
X256006250Y-111485000D03*
D11*
X261086250Y-111485000D03*
D13*
X258546250Y-106405000D03*
X252196250Y-108945000D03*
%TD*%
D10*
%TO.C,H4*%
X32330000Y-159240000D03*
%TD*%
D14*
%TO.C,SW15*%
X286948750Y-47335000D03*
D12*
X286948750Y-62575000D03*
D11*
X293768750Y-54335000D03*
D12*
X298848750Y-54335000D03*
D11*
X303928750Y-54335000D03*
D14*
X310748750Y-47335000D03*
D12*
X310748750Y-62575000D03*
D13*
X301388750Y-49255000D03*
X295038750Y-51795000D03*
%TD*%
D11*
%TO.C,SW59*%
X227126250Y-130615000D03*
D12*
X232206250Y-130615000D03*
D11*
X237286250Y-130615000D03*
D13*
X234746250Y-125535000D03*
X228396250Y-128075000D03*
%TD*%
D10*
%TO.C,H7*%
X146557500Y-44810000D03*
%TD*%
D11*
%TO.C,SW31*%
X69963750Y-92435000D03*
D12*
X75043750Y-92435000D03*
D11*
X80123750Y-92435000D03*
D13*
X77583750Y-87355000D03*
X71233750Y-89895000D03*
%TD*%
D11*
%TO.C,SW55*%
X39007500Y-130615000D03*
D12*
X44087500Y-130615000D03*
D11*
X49167500Y-130615000D03*
D13*
X46627500Y-125535000D03*
X40277500Y-128075000D03*
%TD*%
D11*
%TO.C,SW41*%
X260463750Y-92435000D03*
D12*
X265543750Y-92435000D03*
D11*
X270623750Y-92435000D03*
D13*
X268083750Y-87355000D03*
X261733750Y-89895000D03*
%TD*%
D10*
%TO.C,H14*%
X94093750Y-102025000D03*
%TD*%
D11*
%TO.C,SW29*%
X298531250Y-73385000D03*
D12*
X303611250Y-73385000D03*
D11*
X308691250Y-73385000D03*
D13*
X306151250Y-68305000D03*
X299801250Y-70845000D03*
%TD*%
D11*
%TO.C,SW18*%
X84218750Y-73385000D03*
D12*
X89298750Y-73385000D03*
D11*
X94378750Y-73385000D03*
D13*
X91838750Y-68305000D03*
X85488750Y-70845000D03*
%TD*%
D11*
%TO.C,SW1*%
X36626250Y-54335000D03*
D12*
X41706250Y-54335000D03*
D11*
X46786250Y-54335000D03*
D13*
X44246250Y-49255000D03*
X37896250Y-51795000D03*
%TD*%
D14*
%TO.C,SW43*%
X41712500Y-104485000D03*
D12*
X41712500Y-119725000D03*
D11*
X48532500Y-111485000D03*
D12*
X53612500Y-111485000D03*
D11*
X58692500Y-111485000D03*
D14*
X65512500Y-104485000D03*
D12*
X65512500Y-119725000D03*
D13*
X56152500Y-106405000D03*
X49802500Y-108945000D03*
%TD*%
D14*
%TO.C,SW42*%
X284600000Y-85435000D03*
D12*
X284600000Y-100675000D03*
D11*
X291420000Y-92435000D03*
D12*
X296500000Y-92435000D03*
D11*
X301580000Y-92435000D03*
D14*
X308400000Y-85435000D03*
D12*
X308400000Y-100675000D03*
D13*
X299040000Y-87355000D03*
X292690000Y-89895000D03*
%TD*%
D11*
%TO.C,SW19*%
X103268750Y-73385000D03*
D12*
X108348750Y-73385000D03*
D11*
X113428750Y-73385000D03*
D13*
X110888750Y-68305000D03*
X104538750Y-70845000D03*
%TD*%
D11*
%TO.C,SW14*%
X265226250Y-54335000D03*
D12*
X270306250Y-54335000D03*
D11*
X275386250Y-54335000D03*
D13*
X272846250Y-49255000D03*
X266496250Y-51795000D03*
%TD*%
D10*
%TO.C,H9*%
X203671250Y-44810000D03*
%TD*%
D11*
%TO.C,SW65*%
X265226250Y-130615000D03*
D12*
X270306250Y-130615000D03*
D11*
X275386250Y-130615000D03*
D13*
X272846250Y-125535000D03*
X266496250Y-128075000D03*
%TD*%
D11*
%TO.C,SW7*%
X131876250Y-54335000D03*
D12*
X136956250Y-54335000D03*
D11*
X142036250Y-54335000D03*
D13*
X139496250Y-49255000D03*
X133146250Y-51795000D03*
%TD*%
D10*
%TO.C,H16*%
X208393750Y-102025000D03*
%TD*%
D11*
%TO.C,SW30*%
X43770000Y-92435000D03*
D12*
X48850000Y-92435000D03*
D11*
X53930000Y-92435000D03*
D13*
X51390000Y-87355000D03*
X45040000Y-89895000D03*
D15*
X47580000Y-97515000D03*
D16*
X50120000Y-97515000D03*
%TD*%
D10*
%TO.C,H6*%
X75936875Y-159240000D03*
%TD*%
D11*
%TO.C,SW38*%
X203313750Y-92435000D03*
D12*
X208393750Y-92435000D03*
D11*
X213473750Y-92435000D03*
D13*
X210933750Y-87355000D03*
X204583750Y-89895000D03*
%TD*%
D11*
%TO.C,SW32*%
X89013750Y-92435000D03*
D12*
X94093750Y-92435000D03*
D11*
X99173750Y-92435000D03*
D13*
X96633750Y-87355000D03*
X90283750Y-89895000D03*
%TD*%
D10*
%TO.C,H8*%
X146557500Y-159240000D03*
%TD*%
D11*
%TO.C,SW34*%
X127113750Y-92435000D03*
D12*
X132193750Y-92435000D03*
D11*
X137273750Y-92435000D03*
D13*
X134733750Y-87355000D03*
X128383750Y-89895000D03*
%TD*%
D11*
%TO.C,SW44*%
X79476250Y-111485000D03*
D12*
X84556250Y-111485000D03*
D11*
X89636250Y-111485000D03*
D13*
X87096250Y-106405000D03*
X80746250Y-108945000D03*
%TD*%
D10*
%TO.C,H10*%
X203671250Y-159240000D03*
%TD*%
D11*
%TO.C,SW47*%
X136626250Y-111485000D03*
D12*
X141706250Y-111485000D03*
D11*
X146786250Y-111485000D03*
D13*
X144246250Y-106405000D03*
X137896250Y-108945000D03*
%TD*%
D11*
%TO.C,SW28*%
X274718750Y-73385000D03*
D12*
X279798750Y-73385000D03*
D11*
X284878750Y-73385000D03*
D13*
X282338750Y-68305000D03*
X275988750Y-70845000D03*
%TD*%
D11*
%TO.C,SW5*%
X93776250Y-54335000D03*
D12*
X98856250Y-54335000D03*
D11*
X103936250Y-54335000D03*
D13*
X101396250Y-49255000D03*
X95046250Y-51795000D03*
%TD*%
D11*
%TO.C,SW4*%
X74726250Y-54335000D03*
D12*
X79806250Y-54335000D03*
D11*
X84886250Y-54335000D03*
D13*
X82346250Y-49255000D03*
X75996250Y-51795000D03*
%TD*%
D10*
%TO.C,H1*%
X32330000Y-44810000D03*
%TD*%
D11*
%TO.C,SW57*%
X86632500Y-130615000D03*
D12*
X91712500Y-130615000D03*
D11*
X96792500Y-130615000D03*
D13*
X94252500Y-125535000D03*
X87902500Y-128075000D03*
%TD*%
D11*
%TO.C,SW26*%
X236618750Y-73385000D03*
D12*
X241698750Y-73385000D03*
D11*
X246778750Y-73385000D03*
D13*
X244238750Y-68305000D03*
X237888750Y-70845000D03*
%TD*%
D11*
%TO.C,SW63*%
X284276250Y-149715000D03*
D12*
X289356250Y-149715000D03*
D11*
X294436250Y-149715000D03*
D13*
X291896250Y-144635000D03*
X285546250Y-147175000D03*
%TD*%
D11*
%TO.C,SW33*%
X108063750Y-92435000D03*
D12*
X113143750Y-92435000D03*
D11*
X118223750Y-92435000D03*
D13*
X115683750Y-87355000D03*
X109333750Y-89895000D03*
%TD*%
D11*
%TO.C,SW12*%
X227126250Y-54335000D03*
D12*
X232206250Y-54335000D03*
D11*
X237286250Y-54335000D03*
D13*
X234746250Y-49255000D03*
X228396250Y-51795000D03*
%TD*%
D11*
%TO.C,SW52*%
X231876250Y-111485000D03*
D12*
X236956250Y-111485000D03*
D11*
X242036250Y-111485000D03*
D13*
X239496250Y-106405000D03*
X233146250Y-108945000D03*
%TD*%
D14*
%TO.C,SW54*%
X279825000Y-104565000D03*
D12*
X279825000Y-119805000D03*
D11*
X286645000Y-111565000D03*
D12*
X291725000Y-111565000D03*
D11*
X296805000Y-111565000D03*
D14*
X303625000Y-104565000D03*
D12*
X303625000Y-119805000D03*
D13*
X294265000Y-106485000D03*
X287915000Y-109025000D03*
%TD*%
D11*
%TO.C,SW22*%
X160418750Y-73385000D03*
D12*
X165498750Y-73385000D03*
D11*
X170578750Y-73385000D03*
D13*
X168038750Y-68305000D03*
X161688750Y-70845000D03*
%TD*%
D11*
%TO.C,SW16*%
X41388750Y-73385000D03*
D12*
X46468750Y-73385000D03*
D11*
X51548750Y-73385000D03*
D13*
X49008750Y-68305000D03*
X42658750Y-70845000D03*
%TD*%
D11*
%TO.C,SW39*%
X222363750Y-92435000D03*
D12*
X227443750Y-92435000D03*
D11*
X232523750Y-92435000D03*
D13*
X229983750Y-87355000D03*
X223633750Y-89895000D03*
%TD*%
D11*
%TO.C,SW17*%
X65168750Y-73385000D03*
D12*
X70248750Y-73385000D03*
D11*
X75328750Y-73385000D03*
D13*
X72788750Y-68305000D03*
X66438750Y-70845000D03*
%TD*%
D10*
%TO.C,H15*%
X151243750Y-102025000D03*
%TD*%
D11*
%TO.C,SW46*%
X117576250Y-111485000D03*
D12*
X122656250Y-111485000D03*
D11*
X127736250Y-111485000D03*
D13*
X125196250Y-106405000D03*
X118846250Y-108945000D03*
%TD*%
D11*
%TO.C,SW10*%
X189026250Y-54335000D03*
D12*
X194106250Y-54335000D03*
D11*
X199186250Y-54335000D03*
D13*
X196646250Y-49255000D03*
X190296250Y-51795000D03*
%TD*%
D11*
%TO.C,SW9*%
X169976250Y-54335000D03*
D12*
X175056250Y-54335000D03*
D11*
X180136250Y-54335000D03*
D13*
X177596250Y-49255000D03*
X171246250Y-51795000D03*
%TD*%
D10*
%TO.C,H5*%
X89443750Y-44810000D03*
%TD*%
D11*
%TO.C,SW56*%
X62820000Y-130615000D03*
D12*
X67900000Y-130615000D03*
D11*
X72980000Y-130615000D03*
D13*
X70440000Y-125535000D03*
X64090000Y-128075000D03*
%TD*%
D11*
%TO.C,SW21*%
X141368750Y-73385000D03*
D12*
X146448750Y-73385000D03*
D11*
X151528750Y-73385000D03*
D13*
X148988750Y-68305000D03*
X142638750Y-70845000D03*
%TD*%
D11*
%TO.C,SW48*%
X155676250Y-111485000D03*
D12*
X160756250Y-111485000D03*
D11*
X165836250Y-111485000D03*
D13*
X163296250Y-106405000D03*
X156946250Y-108945000D03*
%TD*%
D11*
%TO.C,SW3*%
X55676250Y-54335000D03*
D12*
X60756250Y-54335000D03*
D11*
X65836250Y-54335000D03*
D13*
X63296250Y-49255000D03*
X56946250Y-51795000D03*
%TD*%
D11*
%TO.C,SW60*%
X246176250Y-130615000D03*
D12*
X251256250Y-130615000D03*
D11*
X256336250Y-130615000D03*
D13*
X253796250Y-125535000D03*
X247446250Y-128075000D03*
%TD*%
D11*
%TO.C,SW37*%
X184263750Y-92435000D03*
D12*
X189343750Y-92435000D03*
D11*
X194423750Y-92435000D03*
D13*
X191883750Y-87355000D03*
X185533750Y-89895000D03*
%TD*%
D11*
%TO.C,SW23*%
X179468750Y-73385000D03*
D12*
X184548750Y-73385000D03*
D11*
X189628750Y-73385000D03*
D13*
X187088750Y-68305000D03*
X180738750Y-70845000D03*
%TD*%
D10*
%TO.C,H17*%
X265543750Y-102025000D03*
%TD*%
D11*
%TO.C,SW50*%
X193776250Y-111485000D03*
D12*
X198856250Y-111485000D03*
D11*
X203936250Y-111485000D03*
D13*
X201396250Y-106405000D03*
X195046250Y-108945000D03*
%TD*%
D11*
%TO.C,SW45*%
X98526250Y-111485000D03*
D12*
X103606250Y-111485000D03*
D11*
X108686250Y-111485000D03*
D13*
X106146250Y-106405000D03*
X99796250Y-108945000D03*
%TD*%
D17*
%TO.C,J1*%
X50726875Y-144475000D03*
D11*
X53266875Y-144475000D03*
X55806875Y-144475000D03*
X58346875Y-144475000D03*
X60886875Y-144475000D03*
X63426875Y-144475000D03*
X65966875Y-144475000D03*
X68506875Y-144475000D03*
X71046875Y-144475000D03*
%TD*%
D18*
%TO.C,D21*%
X136923750Y-69575000D03*
D19*
X136923750Y-77195000D03*
%TD*%
D18*
%TO.C,D66*%
X260781250Y-145905000D03*
D19*
X260781250Y-153525000D03*
%TD*%
D18*
%TO.C,D34*%
X122668750Y-88625000D03*
D19*
X122668750Y-96245000D03*
%TD*%
D18*
%TO.C,D27*%
X251223750Y-69575000D03*
D19*
X251223750Y-77195000D03*
%TD*%
D18*
%TO.C,D23*%
X175023750Y-69575000D03*
D19*
X175023750Y-77195000D03*
%TD*%
D18*
%TO.C,D54*%
X246481250Y-107675000D03*
D19*
X246481250Y-115295000D03*
%TD*%
D18*
%TO.C,D6*%
X108381250Y-50525000D03*
D19*
X108381250Y-58145000D03*
%TD*%
D18*
%TO.C,D44*%
X44087500Y-107675000D03*
D19*
X44087500Y-115295000D03*
%TD*%
D18*
%TO.C,D26*%
X232173750Y-69575000D03*
D19*
X232173750Y-77195000D03*
%TD*%
D18*
%TO.C,D9*%
X165531250Y-50525000D03*
D19*
X165531250Y-58145000D03*
%TD*%
D18*
%TO.C,D51*%
X189331250Y-107675000D03*
D19*
X189331250Y-115295000D03*
%TD*%
D18*
%TO.C,D11*%
X203631250Y-50525000D03*
D19*
X203631250Y-58145000D03*
%TD*%
D18*
%TO.C,D5*%
X89331250Y-50525000D03*
D19*
X89331250Y-58145000D03*
%TD*%
D18*
%TO.C,D61*%
X153625000Y-126805000D03*
D19*
X153625000Y-134425000D03*
%TD*%
D18*
%TO.C,D38*%
X198868750Y-88625000D03*
D19*
X198868750Y-96245000D03*
%TD*%
D18*
%TO.C,D20*%
X117873750Y-69575000D03*
D19*
X117873750Y-77195000D03*
%TD*%
D18*
%TO.C,U1*%
X90744583Y-146345000D03*
D19*
X93284583Y-146345000D03*
X95824583Y-146345000D03*
X98364583Y-146345000D03*
X100904583Y-146345000D03*
X103444583Y-146345000D03*
X105984583Y-146345000D03*
X108524583Y-146345000D03*
X108524583Y-153965000D03*
X105984583Y-153965000D03*
X103444583Y-153965000D03*
X100904583Y-153965000D03*
X98364583Y-153965000D03*
X95824583Y-153965000D03*
X93284583Y-153965000D03*
X90744583Y-153965000D03*
%TD*%
D18*
%TO.C,D22*%
X155973750Y-69575000D03*
D19*
X155973750Y-77195000D03*
%TD*%
D18*
%TO.C,D59*%
X58375000Y-126805000D03*
D19*
X58375000Y-134425000D03*
%TD*%
D18*
%TO.C,D30*%
X39325000Y-88625000D03*
D19*
X39325000Y-96245000D03*
%TD*%
D18*
%TO.C,D69*%
X282200000Y-107675000D03*
D19*
X282200000Y-115295000D03*
%TD*%
D18*
%TO.C,D53*%
X227431250Y-107675000D03*
D19*
X227431250Y-115295000D03*
%TD*%
D18*
%TO.C,D12*%
X222681250Y-50525000D03*
D19*
X222681250Y-58145000D03*
%TD*%
D20*
%TO.C,RN1*%
X137742292Y-157775000D03*
D19*
X135202292Y-157775000D03*
X132662292Y-157775000D03*
X130122292Y-157775000D03*
X127582292Y-157775000D03*
%TD*%
D18*
%TO.C,D52*%
X208381250Y-107675000D03*
D19*
X208381250Y-115295000D03*
%TD*%
D18*
%TO.C,D70*%
X298881250Y-126805000D03*
D19*
X298881250Y-134425000D03*
%TD*%
D18*
%TO.C,D55*%
X294086250Y-69575000D03*
D19*
X294086250Y-77195000D03*
%TD*%
D18*
%TO.C,D24*%
X194073750Y-69575000D03*
D19*
X194073750Y-77195000D03*
%TD*%
D18*
%TO.C,D45*%
X75031250Y-107675000D03*
D19*
X75031250Y-115295000D03*
%TD*%
D18*
%TO.C,D18*%
X79773750Y-69575000D03*
D19*
X79773750Y-77195000D03*
%TD*%
D18*
%TO.C,D39*%
X217918750Y-88625000D03*
D19*
X217918750Y-96245000D03*
%TD*%
D18*
%TO.C,D35*%
X141718750Y-88625000D03*
D19*
X141718750Y-96245000D03*
%TD*%
%TO.C,C3*%
X86934583Y-147650000D03*
X86934583Y-152650000D03*
%TD*%
D18*
%TO.C,D50*%
X170281250Y-107675000D03*
D19*
X170281250Y-115295000D03*
%TD*%
D18*
%TO.C,D49*%
X151231250Y-107675000D03*
D19*
X151231250Y-115295000D03*
%TD*%
D18*
%TO.C,D36*%
X160768750Y-88625000D03*
D19*
X160768750Y-96245000D03*
%TD*%
D18*
%TO.C,D40*%
X236968750Y-88625000D03*
D19*
X236968750Y-96245000D03*
%TD*%
D18*
%TO.C,D47*%
X113131250Y-107675000D03*
D19*
X113131250Y-115295000D03*
%TD*%
D18*
%TO.C,D3*%
X51231250Y-50525000D03*
D19*
X51231250Y-58145000D03*
%TD*%
D18*
%TO.C,D65*%
X279831250Y-126805000D03*
D19*
X279831250Y-134425000D03*
%TD*%
D18*
%TO.C,D7*%
X127431250Y-50525000D03*
D19*
X127431250Y-58145000D03*
%TD*%
D18*
%TO.C,D58*%
X34562500Y-126805000D03*
D19*
X34562500Y-134425000D03*
%TD*%
D18*
%TO.C,D14*%
X260781250Y-50525000D03*
D19*
X260781250Y-58145000D03*
%TD*%
D18*
%TO.C,D63*%
X241731250Y-126805000D03*
D19*
X241731250Y-134425000D03*
%TD*%
D18*
%TO.C,D56*%
X286975000Y-88625000D03*
D19*
X286975000Y-96245000D03*
%TD*%
D18*
%TO.C,D42*%
X289323750Y-50525000D03*
D19*
X289323750Y-58145000D03*
%TD*%
D18*
%TO.C,U2*%
X122502292Y-146345000D03*
D19*
X125042292Y-146345000D03*
X127582292Y-146345000D03*
X130122292Y-146345000D03*
X132662292Y-146345000D03*
X135202292Y-146345000D03*
X137742292Y-146345000D03*
X140282292Y-146345000D03*
X140282292Y-153965000D03*
X137742292Y-153965000D03*
X135202292Y-153965000D03*
X132662292Y-153965000D03*
X130122292Y-153965000D03*
X127582292Y-153965000D03*
X125042292Y-153965000D03*
X122502292Y-153965000D03*
%TD*%
D20*
%TO.C,RN2*%
X125042292Y-142535000D03*
D19*
X127582292Y-142535000D03*
X130122292Y-142535000D03*
X132662292Y-142535000D03*
X135202292Y-142535000D03*
%TD*%
D18*
%TO.C,D67*%
X279831250Y-145905000D03*
D19*
X279831250Y-153525000D03*
%TD*%
D18*
%TO.C,D8*%
X146481250Y-50525000D03*
D19*
X146481250Y-58145000D03*
%TD*%
D18*
%TO.C,D31*%
X65518750Y-88625000D03*
D19*
X65518750Y-96245000D03*
%TD*%
D18*
%TO.C,D32*%
X84568750Y-88625000D03*
D19*
X84568750Y-96245000D03*
%TD*%
D18*
%TO.C,D25*%
X213123750Y-69575000D03*
D19*
X213123750Y-77195000D03*
%TD*%
D18*
%TO.C,D17*%
X60723750Y-69575000D03*
D19*
X60723750Y-77195000D03*
%TD*%
D18*
%TO.C,D13*%
X241731250Y-50525000D03*
D19*
X241731250Y-58145000D03*
%TD*%
%TO.C,C1*%
X150450000Y-147650000D03*
X150450000Y-152650000D03*
%TD*%
D18*
%TO.C,D19*%
X98823750Y-69575000D03*
D19*
X98823750Y-77195000D03*
%TD*%
D18*
%TO.C,D2*%
X32181250Y-50525000D03*
D19*
X32181250Y-58145000D03*
%TD*%
%TO.C,C2*%
X118692292Y-147650000D03*
X118692292Y-152650000D03*
%TD*%
D18*
%TO.C,D10*%
X184581250Y-50525000D03*
D19*
X184581250Y-58145000D03*
%TD*%
D18*
%TO.C,D46*%
X94081250Y-107675000D03*
D19*
X94081250Y-115295000D03*
%TD*%
D18*
%TO.C,D62*%
X222681250Y-126805000D03*
D19*
X222681250Y-134425000D03*
%TD*%
D18*
%TO.C,D60*%
X82187500Y-126805000D03*
D19*
X82187500Y-134425000D03*
%TD*%
D20*
%TO.C,RN3*%
X169500000Y-157775000D03*
D19*
X166960000Y-157775000D03*
X164420000Y-157775000D03*
X161880000Y-157775000D03*
X159340000Y-157775000D03*
%TD*%
D18*
%TO.C,U3*%
X154260000Y-146345000D03*
D19*
X156800000Y-146345000D03*
X159340000Y-146345000D03*
X161880000Y-146345000D03*
X164420000Y-146345000D03*
X166960000Y-146345000D03*
X169500000Y-146345000D03*
X172040000Y-146345000D03*
X172040000Y-153965000D03*
X169500000Y-153965000D03*
X166960000Y-153965000D03*
X164420000Y-153965000D03*
X161880000Y-153965000D03*
X159340000Y-153965000D03*
X156800000Y-153965000D03*
X154260000Y-153965000D03*
%TD*%
D18*
%TO.C,D41*%
X256018750Y-88625000D03*
D19*
X256018750Y-96245000D03*
%TD*%
D18*
%TO.C,D68*%
X298881250Y-145905000D03*
D19*
X298881250Y-153525000D03*
%TD*%
D18*
%TO.C,D48*%
X132181250Y-107675000D03*
D19*
X132181250Y-115295000D03*
%TD*%
D18*
%TO.C,D4*%
X70281250Y-50525000D03*
D19*
X70281250Y-58145000D03*
%TD*%
D18*
%TO.C,D28*%
X270273750Y-69575000D03*
D19*
X270273750Y-77195000D03*
%TD*%
D18*
%TO.C,D16*%
X36943750Y-69575000D03*
D19*
X36943750Y-77195000D03*
%TD*%
D18*
%TO.C,D33*%
X103618750Y-88625000D03*
D19*
X103618750Y-96245000D03*
%TD*%
D18*
%TO.C,D64*%
X260781250Y-126805000D03*
D19*
X260781250Y-134425000D03*
%TD*%
D21*
%TO.C,R12*%
X36785000Y-88625000D03*
X36785000Y-96245000D03*
%TD*%
D18*
%TO.C,D37*%
X179818750Y-88625000D03*
D19*
X179818750Y-96245000D03*
%TD*%
M02*
