%TF.GenerationSoftware,KiCad,Pcbnew,9.0.6*%
%TF.CreationDate,2026-04-02T02:11:09-04:00*%
%TF.ProjectId,Keyboard,4b657962-6f61-4726-942e-6b696361645f,rev?*%
%TF.SameCoordinates,Original*%
%TF.FileFunction,Legend,Bot*%
%TF.FilePolarity,Positive*%
%FSLAX46Y46*%
G04 Gerber Fmt 4.6, Leading zero omitted, Abs format (unit mm)*
G04 Created by KiCad (PCBNEW 9.0.6) date 2026-04-02 02:11:09*
%MOMM*%
%LPD*%
G01*
G04 APERTURE LIST*
%ADD10C,0.100000*%
%ADD11C,0.150000*%
%ADD12C,0.120000*%
G04 APERTURE END LIST*
D10*
X293945134Y-158651919D02*
X293945134Y-159366204D01*
X293945134Y-159366204D02*
X293992753Y-159509061D01*
X293992753Y-159509061D02*
X294087991Y-159604300D01*
X294087991Y-159604300D02*
X294230848Y-159651919D01*
X294230848Y-159651919D02*
X294326086Y-159651919D01*
X292992753Y-159651919D02*
X293468943Y-159651919D01*
X293468943Y-159651919D02*
X293468943Y-158651919D01*
X292087991Y-159556680D02*
X292135610Y-159604300D01*
X292135610Y-159604300D02*
X292278467Y-159651919D01*
X292278467Y-159651919D02*
X292373705Y-159651919D01*
X292373705Y-159651919D02*
X292516562Y-159604300D01*
X292516562Y-159604300D02*
X292611800Y-159509061D01*
X292611800Y-159509061D02*
X292659419Y-159413823D01*
X292659419Y-159413823D02*
X292707038Y-159223347D01*
X292707038Y-159223347D02*
X292707038Y-159080490D01*
X292707038Y-159080490D02*
X292659419Y-158890014D01*
X292659419Y-158890014D02*
X292611800Y-158794776D01*
X292611800Y-158794776D02*
X292516562Y-158699538D01*
X292516562Y-158699538D02*
X292373705Y-158651919D01*
X292373705Y-158651919D02*
X292278467Y-158651919D01*
X292278467Y-158651919D02*
X292135610Y-158699538D01*
X292135610Y-158699538D02*
X292087991Y-158747157D01*
X291373705Y-158651919D02*
X291373705Y-159366204D01*
X291373705Y-159366204D02*
X291421324Y-159509061D01*
X291421324Y-159509061D02*
X291516562Y-159604300D01*
X291516562Y-159604300D02*
X291659419Y-159651919D01*
X291659419Y-159651919D02*
X291754657Y-159651919D01*
X290421324Y-159651919D02*
X290897514Y-159651919D01*
X290897514Y-159651919D02*
X290897514Y-158651919D01*
X289516562Y-159556680D02*
X289564181Y-159604300D01*
X289564181Y-159604300D02*
X289707038Y-159651919D01*
X289707038Y-159651919D02*
X289802276Y-159651919D01*
X289802276Y-159651919D02*
X289945133Y-159604300D01*
X289945133Y-159604300D02*
X290040371Y-159509061D01*
X290040371Y-159509061D02*
X290087990Y-159413823D01*
X290087990Y-159413823D02*
X290135609Y-159223347D01*
X290135609Y-159223347D02*
X290135609Y-159080490D01*
X290135609Y-159080490D02*
X290087990Y-158890014D01*
X290087990Y-158890014D02*
X290040371Y-158794776D01*
X290040371Y-158794776D02*
X289945133Y-158699538D01*
X289945133Y-158699538D02*
X289802276Y-158651919D01*
X289802276Y-158651919D02*
X289707038Y-158651919D01*
X289707038Y-158651919D02*
X289564181Y-158699538D01*
X289564181Y-158699538D02*
X289516562Y-158747157D01*
X288802276Y-158651919D02*
X288802276Y-159366204D01*
X288802276Y-159366204D02*
X288849895Y-159509061D01*
X288849895Y-159509061D02*
X288945133Y-159604300D01*
X288945133Y-159604300D02*
X289087990Y-159651919D01*
X289087990Y-159651919D02*
X289183228Y-159651919D01*
X287849895Y-159651919D02*
X288326085Y-159651919D01*
X288326085Y-159651919D02*
X288326085Y-158651919D01*
X286945133Y-159556680D02*
X286992752Y-159604300D01*
X286992752Y-159604300D02*
X287135609Y-159651919D01*
X287135609Y-159651919D02*
X287230847Y-159651919D01*
X287230847Y-159651919D02*
X287373704Y-159604300D01*
X287373704Y-159604300D02*
X287468942Y-159509061D01*
X287468942Y-159509061D02*
X287516561Y-159413823D01*
X287516561Y-159413823D02*
X287564180Y-159223347D01*
X287564180Y-159223347D02*
X287564180Y-159080490D01*
X287564180Y-159080490D02*
X287516561Y-158890014D01*
X287516561Y-158890014D02*
X287468942Y-158794776D01*
X287468942Y-158794776D02*
X287373704Y-158699538D01*
X287373704Y-158699538D02*
X287230847Y-158651919D01*
X287230847Y-158651919D02*
X287135609Y-158651919D01*
X287135609Y-158651919D02*
X286992752Y-158699538D01*
X286992752Y-158699538D02*
X286945133Y-158747157D01*
X286230847Y-158651919D02*
X286230847Y-159366204D01*
X286230847Y-159366204D02*
X286278466Y-159509061D01*
X286278466Y-159509061D02*
X286373704Y-159604300D01*
X286373704Y-159604300D02*
X286516561Y-159651919D01*
X286516561Y-159651919D02*
X286611799Y-159651919D01*
X285278466Y-159651919D02*
X285754656Y-159651919D01*
X285754656Y-159651919D02*
X285754656Y-158651919D01*
X284373704Y-159556680D02*
X284421323Y-159604300D01*
X284421323Y-159604300D02*
X284564180Y-159651919D01*
X284564180Y-159651919D02*
X284659418Y-159651919D01*
X284659418Y-159651919D02*
X284802275Y-159604300D01*
X284802275Y-159604300D02*
X284897513Y-159509061D01*
X284897513Y-159509061D02*
X284945132Y-159413823D01*
X284945132Y-159413823D02*
X284992751Y-159223347D01*
X284992751Y-159223347D02*
X284992751Y-159080490D01*
X284992751Y-159080490D02*
X284945132Y-158890014D01*
X284945132Y-158890014D02*
X284897513Y-158794776D01*
X284897513Y-158794776D02*
X284802275Y-158699538D01*
X284802275Y-158699538D02*
X284659418Y-158651919D01*
X284659418Y-158651919D02*
X284564180Y-158651919D01*
X284564180Y-158651919D02*
X284421323Y-158699538D01*
X284421323Y-158699538D02*
X284373704Y-158747157D01*
D11*
X47911694Y-144141666D02*
X48625979Y-144141666D01*
X48625979Y-144141666D02*
X48768836Y-144094047D01*
X48768836Y-144094047D02*
X48864075Y-143998809D01*
X48864075Y-143998809D02*
X48911694Y-143855952D01*
X48911694Y-143855952D02*
X48911694Y-143760714D01*
X48911694Y-145141666D02*
X48911694Y-144570238D01*
X48911694Y-144855952D02*
X47911694Y-144855952D01*
X47911694Y-144855952D02*
X48054551Y-144760714D01*
X48054551Y-144760714D02*
X48149789Y-144665476D01*
X48149789Y-144665476D02*
X48197408Y-144570238D01*
D10*
X137288645Y-72921571D02*
X136488645Y-72921571D01*
X136488645Y-72921571D02*
X136488645Y-73112047D01*
X136488645Y-73112047D02*
X136526740Y-73226333D01*
X136526740Y-73226333D02*
X136602930Y-73302523D01*
X136602930Y-73302523D02*
X136679121Y-73340618D01*
X136679121Y-73340618D02*
X136831502Y-73378714D01*
X136831502Y-73378714D02*
X136945788Y-73378714D01*
X136945788Y-73378714D02*
X137098169Y-73340618D01*
X137098169Y-73340618D02*
X137174359Y-73302523D01*
X137174359Y-73302523D02*
X137250550Y-73226333D01*
X137250550Y-73226333D02*
X137288645Y-73112047D01*
X137288645Y-73112047D02*
X137288645Y-72921571D01*
X136564835Y-73683475D02*
X136526740Y-73721571D01*
X136526740Y-73721571D02*
X136488645Y-73797761D01*
X136488645Y-73797761D02*
X136488645Y-73988237D01*
X136488645Y-73988237D02*
X136526740Y-74064428D01*
X136526740Y-74064428D02*
X136564835Y-74102523D01*
X136564835Y-74102523D02*
X136641026Y-74140618D01*
X136641026Y-74140618D02*
X136717216Y-74140618D01*
X136717216Y-74140618D02*
X136831502Y-74102523D01*
X136831502Y-74102523D02*
X137288645Y-73645380D01*
X137288645Y-73645380D02*
X137288645Y-74140618D01*
X137288645Y-74902523D02*
X137288645Y-74445380D01*
X137288645Y-74673952D02*
X136488645Y-74673952D01*
X136488645Y-74673952D02*
X136602930Y-74597761D01*
X136602930Y-74597761D02*
X136679121Y-74521571D01*
X136679121Y-74521571D02*
X136717216Y-74445380D01*
X261146145Y-149251571D02*
X260346145Y-149251571D01*
X260346145Y-149251571D02*
X260346145Y-149442047D01*
X260346145Y-149442047D02*
X260384240Y-149556333D01*
X260384240Y-149556333D02*
X260460430Y-149632523D01*
X260460430Y-149632523D02*
X260536621Y-149670618D01*
X260536621Y-149670618D02*
X260689002Y-149708714D01*
X260689002Y-149708714D02*
X260803288Y-149708714D01*
X260803288Y-149708714D02*
X260955669Y-149670618D01*
X260955669Y-149670618D02*
X261031859Y-149632523D01*
X261031859Y-149632523D02*
X261108050Y-149556333D01*
X261108050Y-149556333D02*
X261146145Y-149442047D01*
X261146145Y-149442047D02*
X261146145Y-149251571D01*
X260346145Y-150394428D02*
X260346145Y-150242047D01*
X260346145Y-150242047D02*
X260384240Y-150165856D01*
X260384240Y-150165856D02*
X260422335Y-150127761D01*
X260422335Y-150127761D02*
X260536621Y-150051571D01*
X260536621Y-150051571D02*
X260689002Y-150013475D01*
X260689002Y-150013475D02*
X260993764Y-150013475D01*
X260993764Y-150013475D02*
X261069954Y-150051571D01*
X261069954Y-150051571D02*
X261108050Y-150089666D01*
X261108050Y-150089666D02*
X261146145Y-150165856D01*
X261146145Y-150165856D02*
X261146145Y-150318237D01*
X261146145Y-150318237D02*
X261108050Y-150394428D01*
X261108050Y-150394428D02*
X261069954Y-150432523D01*
X261069954Y-150432523D02*
X260993764Y-150470618D01*
X260993764Y-150470618D02*
X260803288Y-150470618D01*
X260803288Y-150470618D02*
X260727097Y-150432523D01*
X260727097Y-150432523D02*
X260689002Y-150394428D01*
X260689002Y-150394428D02*
X260650907Y-150318237D01*
X260650907Y-150318237D02*
X260650907Y-150165856D01*
X260650907Y-150165856D02*
X260689002Y-150089666D01*
X260689002Y-150089666D02*
X260727097Y-150051571D01*
X260727097Y-150051571D02*
X260803288Y-150013475D01*
X260346145Y-151156333D02*
X260346145Y-151003952D01*
X260346145Y-151003952D02*
X260384240Y-150927761D01*
X260384240Y-150927761D02*
X260422335Y-150889666D01*
X260422335Y-150889666D02*
X260536621Y-150813476D01*
X260536621Y-150813476D02*
X260689002Y-150775380D01*
X260689002Y-150775380D02*
X260993764Y-150775380D01*
X260993764Y-150775380D02*
X261069954Y-150813476D01*
X261069954Y-150813476D02*
X261108050Y-150851571D01*
X261108050Y-150851571D02*
X261146145Y-150927761D01*
X261146145Y-150927761D02*
X261146145Y-151080142D01*
X261146145Y-151080142D02*
X261108050Y-151156333D01*
X261108050Y-151156333D02*
X261069954Y-151194428D01*
X261069954Y-151194428D02*
X260993764Y-151232523D01*
X260993764Y-151232523D02*
X260803288Y-151232523D01*
X260803288Y-151232523D02*
X260727097Y-151194428D01*
X260727097Y-151194428D02*
X260689002Y-151156333D01*
X260689002Y-151156333D02*
X260650907Y-151080142D01*
X260650907Y-151080142D02*
X260650907Y-150927761D01*
X260650907Y-150927761D02*
X260689002Y-150851571D01*
X260689002Y-150851571D02*
X260727097Y-150813476D01*
X260727097Y-150813476D02*
X260803288Y-150775380D01*
X123033645Y-91971571D02*
X122233645Y-91971571D01*
X122233645Y-91971571D02*
X122233645Y-92162047D01*
X122233645Y-92162047D02*
X122271740Y-92276333D01*
X122271740Y-92276333D02*
X122347930Y-92352523D01*
X122347930Y-92352523D02*
X122424121Y-92390618D01*
X122424121Y-92390618D02*
X122576502Y-92428714D01*
X122576502Y-92428714D02*
X122690788Y-92428714D01*
X122690788Y-92428714D02*
X122843169Y-92390618D01*
X122843169Y-92390618D02*
X122919359Y-92352523D01*
X122919359Y-92352523D02*
X122995550Y-92276333D01*
X122995550Y-92276333D02*
X123033645Y-92162047D01*
X123033645Y-92162047D02*
X123033645Y-91971571D01*
X122233645Y-92695380D02*
X122233645Y-93190618D01*
X122233645Y-93190618D02*
X122538407Y-92923952D01*
X122538407Y-92923952D02*
X122538407Y-93038237D01*
X122538407Y-93038237D02*
X122576502Y-93114428D01*
X122576502Y-93114428D02*
X122614597Y-93152523D01*
X122614597Y-93152523D02*
X122690788Y-93190618D01*
X122690788Y-93190618D02*
X122881264Y-93190618D01*
X122881264Y-93190618D02*
X122957454Y-93152523D01*
X122957454Y-93152523D02*
X122995550Y-93114428D01*
X122995550Y-93114428D02*
X123033645Y-93038237D01*
X123033645Y-93038237D02*
X123033645Y-92809666D01*
X123033645Y-92809666D02*
X122995550Y-92733475D01*
X122995550Y-92733475D02*
X122957454Y-92695380D01*
X122500311Y-93876333D02*
X123033645Y-93876333D01*
X122195550Y-93685857D02*
X122766978Y-93495380D01*
X122766978Y-93495380D02*
X122766978Y-93990619D01*
X251588645Y-72921571D02*
X250788645Y-72921571D01*
X250788645Y-72921571D02*
X250788645Y-73112047D01*
X250788645Y-73112047D02*
X250826740Y-73226333D01*
X250826740Y-73226333D02*
X250902930Y-73302523D01*
X250902930Y-73302523D02*
X250979121Y-73340618D01*
X250979121Y-73340618D02*
X251131502Y-73378714D01*
X251131502Y-73378714D02*
X251245788Y-73378714D01*
X251245788Y-73378714D02*
X251398169Y-73340618D01*
X251398169Y-73340618D02*
X251474359Y-73302523D01*
X251474359Y-73302523D02*
X251550550Y-73226333D01*
X251550550Y-73226333D02*
X251588645Y-73112047D01*
X251588645Y-73112047D02*
X251588645Y-72921571D01*
X250864835Y-73683475D02*
X250826740Y-73721571D01*
X250826740Y-73721571D02*
X250788645Y-73797761D01*
X250788645Y-73797761D02*
X250788645Y-73988237D01*
X250788645Y-73988237D02*
X250826740Y-74064428D01*
X250826740Y-74064428D02*
X250864835Y-74102523D01*
X250864835Y-74102523D02*
X250941026Y-74140618D01*
X250941026Y-74140618D02*
X251017216Y-74140618D01*
X251017216Y-74140618D02*
X251131502Y-74102523D01*
X251131502Y-74102523D02*
X251588645Y-73645380D01*
X251588645Y-73645380D02*
X251588645Y-74140618D01*
X250788645Y-74407285D02*
X250788645Y-74940619D01*
X250788645Y-74940619D02*
X251588645Y-74597761D01*
X175388645Y-72921571D02*
X174588645Y-72921571D01*
X174588645Y-72921571D02*
X174588645Y-73112047D01*
X174588645Y-73112047D02*
X174626740Y-73226333D01*
X174626740Y-73226333D02*
X174702930Y-73302523D01*
X174702930Y-73302523D02*
X174779121Y-73340618D01*
X174779121Y-73340618D02*
X174931502Y-73378714D01*
X174931502Y-73378714D02*
X175045788Y-73378714D01*
X175045788Y-73378714D02*
X175198169Y-73340618D01*
X175198169Y-73340618D02*
X175274359Y-73302523D01*
X175274359Y-73302523D02*
X175350550Y-73226333D01*
X175350550Y-73226333D02*
X175388645Y-73112047D01*
X175388645Y-73112047D02*
X175388645Y-72921571D01*
X174664835Y-73683475D02*
X174626740Y-73721571D01*
X174626740Y-73721571D02*
X174588645Y-73797761D01*
X174588645Y-73797761D02*
X174588645Y-73988237D01*
X174588645Y-73988237D02*
X174626740Y-74064428D01*
X174626740Y-74064428D02*
X174664835Y-74102523D01*
X174664835Y-74102523D02*
X174741026Y-74140618D01*
X174741026Y-74140618D02*
X174817216Y-74140618D01*
X174817216Y-74140618D02*
X174931502Y-74102523D01*
X174931502Y-74102523D02*
X175388645Y-73645380D01*
X175388645Y-73645380D02*
X175388645Y-74140618D01*
X174588645Y-74407285D02*
X174588645Y-74902523D01*
X174588645Y-74902523D02*
X174893407Y-74635857D01*
X174893407Y-74635857D02*
X174893407Y-74750142D01*
X174893407Y-74750142D02*
X174931502Y-74826333D01*
X174931502Y-74826333D02*
X174969597Y-74864428D01*
X174969597Y-74864428D02*
X175045788Y-74902523D01*
X175045788Y-74902523D02*
X175236264Y-74902523D01*
X175236264Y-74902523D02*
X175312454Y-74864428D01*
X175312454Y-74864428D02*
X175350550Y-74826333D01*
X175350550Y-74826333D02*
X175388645Y-74750142D01*
X175388645Y-74750142D02*
X175388645Y-74521571D01*
X175388645Y-74521571D02*
X175350550Y-74445380D01*
X175350550Y-74445380D02*
X175312454Y-74407285D01*
X246846145Y-111021571D02*
X246046145Y-111021571D01*
X246046145Y-111021571D02*
X246046145Y-111212047D01*
X246046145Y-111212047D02*
X246084240Y-111326333D01*
X246084240Y-111326333D02*
X246160430Y-111402523D01*
X246160430Y-111402523D02*
X246236621Y-111440618D01*
X246236621Y-111440618D02*
X246389002Y-111478714D01*
X246389002Y-111478714D02*
X246503288Y-111478714D01*
X246503288Y-111478714D02*
X246655669Y-111440618D01*
X246655669Y-111440618D02*
X246731859Y-111402523D01*
X246731859Y-111402523D02*
X246808050Y-111326333D01*
X246808050Y-111326333D02*
X246846145Y-111212047D01*
X246846145Y-111212047D02*
X246846145Y-111021571D01*
X246046145Y-112202523D02*
X246046145Y-111821571D01*
X246046145Y-111821571D02*
X246427097Y-111783475D01*
X246427097Y-111783475D02*
X246389002Y-111821571D01*
X246389002Y-111821571D02*
X246350907Y-111897761D01*
X246350907Y-111897761D02*
X246350907Y-112088237D01*
X246350907Y-112088237D02*
X246389002Y-112164428D01*
X246389002Y-112164428D02*
X246427097Y-112202523D01*
X246427097Y-112202523D02*
X246503288Y-112240618D01*
X246503288Y-112240618D02*
X246693764Y-112240618D01*
X246693764Y-112240618D02*
X246769954Y-112202523D01*
X246769954Y-112202523D02*
X246808050Y-112164428D01*
X246808050Y-112164428D02*
X246846145Y-112088237D01*
X246846145Y-112088237D02*
X246846145Y-111897761D01*
X246846145Y-111897761D02*
X246808050Y-111821571D01*
X246808050Y-111821571D02*
X246769954Y-111783475D01*
X246312811Y-112926333D02*
X246846145Y-112926333D01*
X246008050Y-112735857D02*
X246579478Y-112545380D01*
X246579478Y-112545380D02*
X246579478Y-113040619D01*
X108746145Y-54252524D02*
X107946145Y-54252524D01*
X107946145Y-54252524D02*
X107946145Y-54443000D01*
X107946145Y-54443000D02*
X107984240Y-54557286D01*
X107984240Y-54557286D02*
X108060430Y-54633476D01*
X108060430Y-54633476D02*
X108136621Y-54671571D01*
X108136621Y-54671571D02*
X108289002Y-54709667D01*
X108289002Y-54709667D02*
X108403288Y-54709667D01*
X108403288Y-54709667D02*
X108555669Y-54671571D01*
X108555669Y-54671571D02*
X108631859Y-54633476D01*
X108631859Y-54633476D02*
X108708050Y-54557286D01*
X108708050Y-54557286D02*
X108746145Y-54443000D01*
X108746145Y-54443000D02*
X108746145Y-54252524D01*
X107946145Y-55395381D02*
X107946145Y-55243000D01*
X107946145Y-55243000D02*
X107984240Y-55166809D01*
X107984240Y-55166809D02*
X108022335Y-55128714D01*
X108022335Y-55128714D02*
X108136621Y-55052524D01*
X108136621Y-55052524D02*
X108289002Y-55014428D01*
X108289002Y-55014428D02*
X108593764Y-55014428D01*
X108593764Y-55014428D02*
X108669954Y-55052524D01*
X108669954Y-55052524D02*
X108708050Y-55090619D01*
X108708050Y-55090619D02*
X108746145Y-55166809D01*
X108746145Y-55166809D02*
X108746145Y-55319190D01*
X108746145Y-55319190D02*
X108708050Y-55395381D01*
X108708050Y-55395381D02*
X108669954Y-55433476D01*
X108669954Y-55433476D02*
X108593764Y-55471571D01*
X108593764Y-55471571D02*
X108403288Y-55471571D01*
X108403288Y-55471571D02*
X108327097Y-55433476D01*
X108327097Y-55433476D02*
X108289002Y-55395381D01*
X108289002Y-55395381D02*
X108250907Y-55319190D01*
X108250907Y-55319190D02*
X108250907Y-55166809D01*
X108250907Y-55166809D02*
X108289002Y-55090619D01*
X108289002Y-55090619D02*
X108327097Y-55052524D01*
X108327097Y-55052524D02*
X108403288Y-55014428D01*
X44452395Y-111021571D02*
X43652395Y-111021571D01*
X43652395Y-111021571D02*
X43652395Y-111212047D01*
X43652395Y-111212047D02*
X43690490Y-111326333D01*
X43690490Y-111326333D02*
X43766680Y-111402523D01*
X43766680Y-111402523D02*
X43842871Y-111440618D01*
X43842871Y-111440618D02*
X43995252Y-111478714D01*
X43995252Y-111478714D02*
X44109538Y-111478714D01*
X44109538Y-111478714D02*
X44261919Y-111440618D01*
X44261919Y-111440618D02*
X44338109Y-111402523D01*
X44338109Y-111402523D02*
X44414300Y-111326333D01*
X44414300Y-111326333D02*
X44452395Y-111212047D01*
X44452395Y-111212047D02*
X44452395Y-111021571D01*
X43919061Y-112164428D02*
X44452395Y-112164428D01*
X43614300Y-111973952D02*
X44185728Y-111783475D01*
X44185728Y-111783475D02*
X44185728Y-112278714D01*
X43919061Y-112926333D02*
X44452395Y-112926333D01*
X43614300Y-112735857D02*
X44185728Y-112545380D01*
X44185728Y-112545380D02*
X44185728Y-113040619D01*
X232538645Y-72921571D02*
X231738645Y-72921571D01*
X231738645Y-72921571D02*
X231738645Y-73112047D01*
X231738645Y-73112047D02*
X231776740Y-73226333D01*
X231776740Y-73226333D02*
X231852930Y-73302523D01*
X231852930Y-73302523D02*
X231929121Y-73340618D01*
X231929121Y-73340618D02*
X232081502Y-73378714D01*
X232081502Y-73378714D02*
X232195788Y-73378714D01*
X232195788Y-73378714D02*
X232348169Y-73340618D01*
X232348169Y-73340618D02*
X232424359Y-73302523D01*
X232424359Y-73302523D02*
X232500550Y-73226333D01*
X232500550Y-73226333D02*
X232538645Y-73112047D01*
X232538645Y-73112047D02*
X232538645Y-72921571D01*
X231814835Y-73683475D02*
X231776740Y-73721571D01*
X231776740Y-73721571D02*
X231738645Y-73797761D01*
X231738645Y-73797761D02*
X231738645Y-73988237D01*
X231738645Y-73988237D02*
X231776740Y-74064428D01*
X231776740Y-74064428D02*
X231814835Y-74102523D01*
X231814835Y-74102523D02*
X231891026Y-74140618D01*
X231891026Y-74140618D02*
X231967216Y-74140618D01*
X231967216Y-74140618D02*
X232081502Y-74102523D01*
X232081502Y-74102523D02*
X232538645Y-73645380D01*
X232538645Y-73645380D02*
X232538645Y-74140618D01*
X231738645Y-74826333D02*
X231738645Y-74673952D01*
X231738645Y-74673952D02*
X231776740Y-74597761D01*
X231776740Y-74597761D02*
X231814835Y-74559666D01*
X231814835Y-74559666D02*
X231929121Y-74483476D01*
X231929121Y-74483476D02*
X232081502Y-74445380D01*
X232081502Y-74445380D02*
X232386264Y-74445380D01*
X232386264Y-74445380D02*
X232462454Y-74483476D01*
X232462454Y-74483476D02*
X232500550Y-74521571D01*
X232500550Y-74521571D02*
X232538645Y-74597761D01*
X232538645Y-74597761D02*
X232538645Y-74750142D01*
X232538645Y-74750142D02*
X232500550Y-74826333D01*
X232500550Y-74826333D02*
X232462454Y-74864428D01*
X232462454Y-74864428D02*
X232386264Y-74902523D01*
X232386264Y-74902523D02*
X232195788Y-74902523D01*
X232195788Y-74902523D02*
X232119597Y-74864428D01*
X232119597Y-74864428D02*
X232081502Y-74826333D01*
X232081502Y-74826333D02*
X232043407Y-74750142D01*
X232043407Y-74750142D02*
X232043407Y-74597761D01*
X232043407Y-74597761D02*
X232081502Y-74521571D01*
X232081502Y-74521571D02*
X232119597Y-74483476D01*
X232119597Y-74483476D02*
X232195788Y-74445380D01*
X165896145Y-54252524D02*
X165096145Y-54252524D01*
X165096145Y-54252524D02*
X165096145Y-54443000D01*
X165096145Y-54443000D02*
X165134240Y-54557286D01*
X165134240Y-54557286D02*
X165210430Y-54633476D01*
X165210430Y-54633476D02*
X165286621Y-54671571D01*
X165286621Y-54671571D02*
X165439002Y-54709667D01*
X165439002Y-54709667D02*
X165553288Y-54709667D01*
X165553288Y-54709667D02*
X165705669Y-54671571D01*
X165705669Y-54671571D02*
X165781859Y-54633476D01*
X165781859Y-54633476D02*
X165858050Y-54557286D01*
X165858050Y-54557286D02*
X165896145Y-54443000D01*
X165896145Y-54443000D02*
X165896145Y-54252524D01*
X165896145Y-55090619D02*
X165896145Y-55243000D01*
X165896145Y-55243000D02*
X165858050Y-55319190D01*
X165858050Y-55319190D02*
X165819954Y-55357286D01*
X165819954Y-55357286D02*
X165705669Y-55433476D01*
X165705669Y-55433476D02*
X165553288Y-55471571D01*
X165553288Y-55471571D02*
X165248526Y-55471571D01*
X165248526Y-55471571D02*
X165172335Y-55433476D01*
X165172335Y-55433476D02*
X165134240Y-55395381D01*
X165134240Y-55395381D02*
X165096145Y-55319190D01*
X165096145Y-55319190D02*
X165096145Y-55166809D01*
X165096145Y-55166809D02*
X165134240Y-55090619D01*
X165134240Y-55090619D02*
X165172335Y-55052524D01*
X165172335Y-55052524D02*
X165248526Y-55014428D01*
X165248526Y-55014428D02*
X165439002Y-55014428D01*
X165439002Y-55014428D02*
X165515192Y-55052524D01*
X165515192Y-55052524D02*
X165553288Y-55090619D01*
X165553288Y-55090619D02*
X165591383Y-55166809D01*
X165591383Y-55166809D02*
X165591383Y-55319190D01*
X165591383Y-55319190D02*
X165553288Y-55395381D01*
X165553288Y-55395381D02*
X165515192Y-55433476D01*
X165515192Y-55433476D02*
X165439002Y-55471571D01*
X189696145Y-111021571D02*
X188896145Y-111021571D01*
X188896145Y-111021571D02*
X188896145Y-111212047D01*
X188896145Y-111212047D02*
X188934240Y-111326333D01*
X188934240Y-111326333D02*
X189010430Y-111402523D01*
X189010430Y-111402523D02*
X189086621Y-111440618D01*
X189086621Y-111440618D02*
X189239002Y-111478714D01*
X189239002Y-111478714D02*
X189353288Y-111478714D01*
X189353288Y-111478714D02*
X189505669Y-111440618D01*
X189505669Y-111440618D02*
X189581859Y-111402523D01*
X189581859Y-111402523D02*
X189658050Y-111326333D01*
X189658050Y-111326333D02*
X189696145Y-111212047D01*
X189696145Y-111212047D02*
X189696145Y-111021571D01*
X188896145Y-112202523D02*
X188896145Y-111821571D01*
X188896145Y-111821571D02*
X189277097Y-111783475D01*
X189277097Y-111783475D02*
X189239002Y-111821571D01*
X189239002Y-111821571D02*
X189200907Y-111897761D01*
X189200907Y-111897761D02*
X189200907Y-112088237D01*
X189200907Y-112088237D02*
X189239002Y-112164428D01*
X189239002Y-112164428D02*
X189277097Y-112202523D01*
X189277097Y-112202523D02*
X189353288Y-112240618D01*
X189353288Y-112240618D02*
X189543764Y-112240618D01*
X189543764Y-112240618D02*
X189619954Y-112202523D01*
X189619954Y-112202523D02*
X189658050Y-112164428D01*
X189658050Y-112164428D02*
X189696145Y-112088237D01*
X189696145Y-112088237D02*
X189696145Y-111897761D01*
X189696145Y-111897761D02*
X189658050Y-111821571D01*
X189658050Y-111821571D02*
X189619954Y-111783475D01*
X189696145Y-113002523D02*
X189696145Y-112545380D01*
X189696145Y-112773952D02*
X188896145Y-112773952D01*
X188896145Y-112773952D02*
X189010430Y-112697761D01*
X189010430Y-112697761D02*
X189086621Y-112621571D01*
X189086621Y-112621571D02*
X189124716Y-112545380D01*
X203996145Y-53871571D02*
X203196145Y-53871571D01*
X203196145Y-53871571D02*
X203196145Y-54062047D01*
X203196145Y-54062047D02*
X203234240Y-54176333D01*
X203234240Y-54176333D02*
X203310430Y-54252523D01*
X203310430Y-54252523D02*
X203386621Y-54290618D01*
X203386621Y-54290618D02*
X203539002Y-54328714D01*
X203539002Y-54328714D02*
X203653288Y-54328714D01*
X203653288Y-54328714D02*
X203805669Y-54290618D01*
X203805669Y-54290618D02*
X203881859Y-54252523D01*
X203881859Y-54252523D02*
X203958050Y-54176333D01*
X203958050Y-54176333D02*
X203996145Y-54062047D01*
X203996145Y-54062047D02*
X203996145Y-53871571D01*
X203996145Y-55090618D02*
X203996145Y-54633475D01*
X203996145Y-54862047D02*
X203196145Y-54862047D01*
X203196145Y-54862047D02*
X203310430Y-54785856D01*
X203310430Y-54785856D02*
X203386621Y-54709666D01*
X203386621Y-54709666D02*
X203424716Y-54633475D01*
X203996145Y-55852523D02*
X203996145Y-55395380D01*
X203996145Y-55623952D02*
X203196145Y-55623952D01*
X203196145Y-55623952D02*
X203310430Y-55547761D01*
X203310430Y-55547761D02*
X203386621Y-55471571D01*
X203386621Y-55471571D02*
X203424716Y-55395380D01*
X89696145Y-54252524D02*
X88896145Y-54252524D01*
X88896145Y-54252524D02*
X88896145Y-54443000D01*
X88896145Y-54443000D02*
X88934240Y-54557286D01*
X88934240Y-54557286D02*
X89010430Y-54633476D01*
X89010430Y-54633476D02*
X89086621Y-54671571D01*
X89086621Y-54671571D02*
X89239002Y-54709667D01*
X89239002Y-54709667D02*
X89353288Y-54709667D01*
X89353288Y-54709667D02*
X89505669Y-54671571D01*
X89505669Y-54671571D02*
X89581859Y-54633476D01*
X89581859Y-54633476D02*
X89658050Y-54557286D01*
X89658050Y-54557286D02*
X89696145Y-54443000D01*
X89696145Y-54443000D02*
X89696145Y-54252524D01*
X88896145Y-55433476D02*
X88896145Y-55052524D01*
X88896145Y-55052524D02*
X89277097Y-55014428D01*
X89277097Y-55014428D02*
X89239002Y-55052524D01*
X89239002Y-55052524D02*
X89200907Y-55128714D01*
X89200907Y-55128714D02*
X89200907Y-55319190D01*
X89200907Y-55319190D02*
X89239002Y-55395381D01*
X89239002Y-55395381D02*
X89277097Y-55433476D01*
X89277097Y-55433476D02*
X89353288Y-55471571D01*
X89353288Y-55471571D02*
X89543764Y-55471571D01*
X89543764Y-55471571D02*
X89619954Y-55433476D01*
X89619954Y-55433476D02*
X89658050Y-55395381D01*
X89658050Y-55395381D02*
X89696145Y-55319190D01*
X89696145Y-55319190D02*
X89696145Y-55128714D01*
X89696145Y-55128714D02*
X89658050Y-55052524D01*
X89658050Y-55052524D02*
X89619954Y-55014428D01*
X153989895Y-130151571D02*
X153189895Y-130151571D01*
X153189895Y-130151571D02*
X153189895Y-130342047D01*
X153189895Y-130342047D02*
X153227990Y-130456333D01*
X153227990Y-130456333D02*
X153304180Y-130532523D01*
X153304180Y-130532523D02*
X153380371Y-130570618D01*
X153380371Y-130570618D02*
X153532752Y-130608714D01*
X153532752Y-130608714D02*
X153647038Y-130608714D01*
X153647038Y-130608714D02*
X153799419Y-130570618D01*
X153799419Y-130570618D02*
X153875609Y-130532523D01*
X153875609Y-130532523D02*
X153951800Y-130456333D01*
X153951800Y-130456333D02*
X153989895Y-130342047D01*
X153989895Y-130342047D02*
X153989895Y-130151571D01*
X153189895Y-131294428D02*
X153189895Y-131142047D01*
X153189895Y-131142047D02*
X153227990Y-131065856D01*
X153227990Y-131065856D02*
X153266085Y-131027761D01*
X153266085Y-131027761D02*
X153380371Y-130951571D01*
X153380371Y-130951571D02*
X153532752Y-130913475D01*
X153532752Y-130913475D02*
X153837514Y-130913475D01*
X153837514Y-130913475D02*
X153913704Y-130951571D01*
X153913704Y-130951571D02*
X153951800Y-130989666D01*
X153951800Y-130989666D02*
X153989895Y-131065856D01*
X153989895Y-131065856D02*
X153989895Y-131218237D01*
X153989895Y-131218237D02*
X153951800Y-131294428D01*
X153951800Y-131294428D02*
X153913704Y-131332523D01*
X153913704Y-131332523D02*
X153837514Y-131370618D01*
X153837514Y-131370618D02*
X153647038Y-131370618D01*
X153647038Y-131370618D02*
X153570847Y-131332523D01*
X153570847Y-131332523D02*
X153532752Y-131294428D01*
X153532752Y-131294428D02*
X153494657Y-131218237D01*
X153494657Y-131218237D02*
X153494657Y-131065856D01*
X153494657Y-131065856D02*
X153532752Y-130989666D01*
X153532752Y-130989666D02*
X153570847Y-130951571D01*
X153570847Y-130951571D02*
X153647038Y-130913475D01*
X153989895Y-132132523D02*
X153989895Y-131675380D01*
X153989895Y-131903952D02*
X153189895Y-131903952D01*
X153189895Y-131903952D02*
X153304180Y-131827761D01*
X153304180Y-131827761D02*
X153380371Y-131751571D01*
X153380371Y-131751571D02*
X153418466Y-131675380D01*
X199233645Y-91971571D02*
X198433645Y-91971571D01*
X198433645Y-91971571D02*
X198433645Y-92162047D01*
X198433645Y-92162047D02*
X198471740Y-92276333D01*
X198471740Y-92276333D02*
X198547930Y-92352523D01*
X198547930Y-92352523D02*
X198624121Y-92390618D01*
X198624121Y-92390618D02*
X198776502Y-92428714D01*
X198776502Y-92428714D02*
X198890788Y-92428714D01*
X198890788Y-92428714D02*
X199043169Y-92390618D01*
X199043169Y-92390618D02*
X199119359Y-92352523D01*
X199119359Y-92352523D02*
X199195550Y-92276333D01*
X199195550Y-92276333D02*
X199233645Y-92162047D01*
X199233645Y-92162047D02*
X199233645Y-91971571D01*
X198433645Y-92695380D02*
X198433645Y-93190618D01*
X198433645Y-93190618D02*
X198738407Y-92923952D01*
X198738407Y-92923952D02*
X198738407Y-93038237D01*
X198738407Y-93038237D02*
X198776502Y-93114428D01*
X198776502Y-93114428D02*
X198814597Y-93152523D01*
X198814597Y-93152523D02*
X198890788Y-93190618D01*
X198890788Y-93190618D02*
X199081264Y-93190618D01*
X199081264Y-93190618D02*
X199157454Y-93152523D01*
X199157454Y-93152523D02*
X199195550Y-93114428D01*
X199195550Y-93114428D02*
X199233645Y-93038237D01*
X199233645Y-93038237D02*
X199233645Y-92809666D01*
X199233645Y-92809666D02*
X199195550Y-92733475D01*
X199195550Y-92733475D02*
X199157454Y-92695380D01*
X198776502Y-93647761D02*
X198738407Y-93571571D01*
X198738407Y-93571571D02*
X198700311Y-93533476D01*
X198700311Y-93533476D02*
X198624121Y-93495380D01*
X198624121Y-93495380D02*
X198586026Y-93495380D01*
X198586026Y-93495380D02*
X198509835Y-93533476D01*
X198509835Y-93533476D02*
X198471740Y-93571571D01*
X198471740Y-93571571D02*
X198433645Y-93647761D01*
X198433645Y-93647761D02*
X198433645Y-93800142D01*
X198433645Y-93800142D02*
X198471740Y-93876333D01*
X198471740Y-93876333D02*
X198509835Y-93914428D01*
X198509835Y-93914428D02*
X198586026Y-93952523D01*
X198586026Y-93952523D02*
X198624121Y-93952523D01*
X198624121Y-93952523D02*
X198700311Y-93914428D01*
X198700311Y-93914428D02*
X198738407Y-93876333D01*
X198738407Y-93876333D02*
X198776502Y-93800142D01*
X198776502Y-93800142D02*
X198776502Y-93647761D01*
X198776502Y-93647761D02*
X198814597Y-93571571D01*
X198814597Y-93571571D02*
X198852692Y-93533476D01*
X198852692Y-93533476D02*
X198928883Y-93495380D01*
X198928883Y-93495380D02*
X199081264Y-93495380D01*
X199081264Y-93495380D02*
X199157454Y-93533476D01*
X199157454Y-93533476D02*
X199195550Y-93571571D01*
X199195550Y-93571571D02*
X199233645Y-93647761D01*
X199233645Y-93647761D02*
X199233645Y-93800142D01*
X199233645Y-93800142D02*
X199195550Y-93876333D01*
X199195550Y-93876333D02*
X199157454Y-93914428D01*
X199157454Y-93914428D02*
X199081264Y-93952523D01*
X199081264Y-93952523D02*
X198928883Y-93952523D01*
X198928883Y-93952523D02*
X198852692Y-93914428D01*
X198852692Y-93914428D02*
X198814597Y-93876333D01*
X198814597Y-93876333D02*
X198776502Y-93800142D01*
X118238645Y-72921571D02*
X117438645Y-72921571D01*
X117438645Y-72921571D02*
X117438645Y-73112047D01*
X117438645Y-73112047D02*
X117476740Y-73226333D01*
X117476740Y-73226333D02*
X117552930Y-73302523D01*
X117552930Y-73302523D02*
X117629121Y-73340618D01*
X117629121Y-73340618D02*
X117781502Y-73378714D01*
X117781502Y-73378714D02*
X117895788Y-73378714D01*
X117895788Y-73378714D02*
X118048169Y-73340618D01*
X118048169Y-73340618D02*
X118124359Y-73302523D01*
X118124359Y-73302523D02*
X118200550Y-73226333D01*
X118200550Y-73226333D02*
X118238645Y-73112047D01*
X118238645Y-73112047D02*
X118238645Y-72921571D01*
X117514835Y-73683475D02*
X117476740Y-73721571D01*
X117476740Y-73721571D02*
X117438645Y-73797761D01*
X117438645Y-73797761D02*
X117438645Y-73988237D01*
X117438645Y-73988237D02*
X117476740Y-74064428D01*
X117476740Y-74064428D02*
X117514835Y-74102523D01*
X117514835Y-74102523D02*
X117591026Y-74140618D01*
X117591026Y-74140618D02*
X117667216Y-74140618D01*
X117667216Y-74140618D02*
X117781502Y-74102523D01*
X117781502Y-74102523D02*
X118238645Y-73645380D01*
X118238645Y-73645380D02*
X118238645Y-74140618D01*
X117438645Y-74635857D02*
X117438645Y-74712047D01*
X117438645Y-74712047D02*
X117476740Y-74788238D01*
X117476740Y-74788238D02*
X117514835Y-74826333D01*
X117514835Y-74826333D02*
X117591026Y-74864428D01*
X117591026Y-74864428D02*
X117743407Y-74902523D01*
X117743407Y-74902523D02*
X117933883Y-74902523D01*
X117933883Y-74902523D02*
X118086264Y-74864428D01*
X118086264Y-74864428D02*
X118162454Y-74826333D01*
X118162454Y-74826333D02*
X118200550Y-74788238D01*
X118200550Y-74788238D02*
X118238645Y-74712047D01*
X118238645Y-74712047D02*
X118238645Y-74635857D01*
X118238645Y-74635857D02*
X118200550Y-74559666D01*
X118200550Y-74559666D02*
X118162454Y-74521571D01*
X118162454Y-74521571D02*
X118086264Y-74483476D01*
X118086264Y-74483476D02*
X117933883Y-74445380D01*
X117933883Y-74445380D02*
X117743407Y-74445380D01*
X117743407Y-74445380D02*
X117591026Y-74483476D01*
X117591026Y-74483476D02*
X117514835Y-74521571D01*
X117514835Y-74521571D02*
X117476740Y-74559666D01*
X117476740Y-74559666D02*
X117438645Y-74635857D01*
D11*
X100396487Y-148593819D02*
X100396487Y-149403342D01*
X100396487Y-149403342D02*
X100348868Y-149498580D01*
X100348868Y-149498580D02*
X100301249Y-149546200D01*
X100301249Y-149546200D02*
X100206011Y-149593819D01*
X100206011Y-149593819D02*
X100015535Y-149593819D01*
X100015535Y-149593819D02*
X99920297Y-149546200D01*
X99920297Y-149546200D02*
X99872678Y-149498580D01*
X99872678Y-149498580D02*
X99825059Y-149403342D01*
X99825059Y-149403342D02*
X99825059Y-148593819D01*
X98825059Y-149593819D02*
X99396487Y-149593819D01*
X99110773Y-149593819D02*
X99110773Y-148593819D01*
X99110773Y-148593819D02*
X99206011Y-148736676D01*
X99206011Y-148736676D02*
X99301249Y-148831914D01*
X99301249Y-148831914D02*
X99396487Y-148879533D01*
X102753630Y-150625819D02*
X102086964Y-150625819D01*
X102086964Y-150625819D02*
X102515535Y-151625819D01*
X101277440Y-150959152D02*
X101277440Y-151625819D01*
X101515535Y-150578200D02*
X101753630Y-151292485D01*
X101753630Y-151292485D02*
X101134583Y-151292485D01*
X100277440Y-151625819D02*
X100753630Y-151625819D01*
X100753630Y-151625819D02*
X100753630Y-150625819D01*
X99991725Y-151578200D02*
X99848868Y-151625819D01*
X99848868Y-151625819D02*
X99610773Y-151625819D01*
X99610773Y-151625819D02*
X99515535Y-151578200D01*
X99515535Y-151578200D02*
X99467916Y-151530580D01*
X99467916Y-151530580D02*
X99420297Y-151435342D01*
X99420297Y-151435342D02*
X99420297Y-151340104D01*
X99420297Y-151340104D02*
X99467916Y-151244866D01*
X99467916Y-151244866D02*
X99515535Y-151197247D01*
X99515535Y-151197247D02*
X99610773Y-151149628D01*
X99610773Y-151149628D02*
X99801249Y-151102009D01*
X99801249Y-151102009D02*
X99896487Y-151054390D01*
X99896487Y-151054390D02*
X99944106Y-151006771D01*
X99944106Y-151006771D02*
X99991725Y-150911533D01*
X99991725Y-150911533D02*
X99991725Y-150816295D01*
X99991725Y-150816295D02*
X99944106Y-150721057D01*
X99944106Y-150721057D02*
X99896487Y-150673438D01*
X99896487Y-150673438D02*
X99801249Y-150625819D01*
X99801249Y-150625819D02*
X99563154Y-150625819D01*
X99563154Y-150625819D02*
X99420297Y-150673438D01*
X98467916Y-151625819D02*
X99039344Y-151625819D01*
X98753630Y-151625819D02*
X98753630Y-150625819D01*
X98753630Y-150625819D02*
X98848868Y-150768676D01*
X98848868Y-150768676D02*
X98944106Y-150863914D01*
X98944106Y-150863914D02*
X99039344Y-150911533D01*
X98134582Y-150625819D02*
X97515535Y-150625819D01*
X97515535Y-150625819D02*
X97848868Y-151006771D01*
X97848868Y-151006771D02*
X97706011Y-151006771D01*
X97706011Y-151006771D02*
X97610773Y-151054390D01*
X97610773Y-151054390D02*
X97563154Y-151102009D01*
X97563154Y-151102009D02*
X97515535Y-151197247D01*
X97515535Y-151197247D02*
X97515535Y-151435342D01*
X97515535Y-151435342D02*
X97563154Y-151530580D01*
X97563154Y-151530580D02*
X97610773Y-151578200D01*
X97610773Y-151578200D02*
X97706011Y-151625819D01*
X97706011Y-151625819D02*
X97991725Y-151625819D01*
X97991725Y-151625819D02*
X98086963Y-151578200D01*
X98086963Y-151578200D02*
X98134582Y-151530580D01*
X96944106Y-151054390D02*
X97039344Y-151006771D01*
X97039344Y-151006771D02*
X97086963Y-150959152D01*
X97086963Y-150959152D02*
X97134582Y-150863914D01*
X97134582Y-150863914D02*
X97134582Y-150816295D01*
X97134582Y-150816295D02*
X97086963Y-150721057D01*
X97086963Y-150721057D02*
X97039344Y-150673438D01*
X97039344Y-150673438D02*
X96944106Y-150625819D01*
X96944106Y-150625819D02*
X96753630Y-150625819D01*
X96753630Y-150625819D02*
X96658392Y-150673438D01*
X96658392Y-150673438D02*
X96610773Y-150721057D01*
X96610773Y-150721057D02*
X96563154Y-150816295D01*
X96563154Y-150816295D02*
X96563154Y-150863914D01*
X96563154Y-150863914D02*
X96610773Y-150959152D01*
X96610773Y-150959152D02*
X96658392Y-151006771D01*
X96658392Y-151006771D02*
X96753630Y-151054390D01*
X96753630Y-151054390D02*
X96944106Y-151054390D01*
X96944106Y-151054390D02*
X97039344Y-151102009D01*
X97039344Y-151102009D02*
X97086963Y-151149628D01*
X97086963Y-151149628D02*
X97134582Y-151244866D01*
X97134582Y-151244866D02*
X97134582Y-151435342D01*
X97134582Y-151435342D02*
X97086963Y-151530580D01*
X97086963Y-151530580D02*
X97039344Y-151578200D01*
X97039344Y-151578200D02*
X96944106Y-151625819D01*
X96944106Y-151625819D02*
X96753630Y-151625819D01*
X96753630Y-151625819D02*
X96658392Y-151578200D01*
X96658392Y-151578200D02*
X96610773Y-151530580D01*
X96610773Y-151530580D02*
X96563154Y-151435342D01*
X96563154Y-151435342D02*
X96563154Y-151244866D01*
X96563154Y-151244866D02*
X96610773Y-151149628D01*
X96610773Y-151149628D02*
X96658392Y-151102009D01*
X96658392Y-151102009D02*
X96753630Y-151054390D01*
D10*
X156338645Y-72921571D02*
X155538645Y-72921571D01*
X155538645Y-72921571D02*
X155538645Y-73112047D01*
X155538645Y-73112047D02*
X155576740Y-73226333D01*
X155576740Y-73226333D02*
X155652930Y-73302523D01*
X155652930Y-73302523D02*
X155729121Y-73340618D01*
X155729121Y-73340618D02*
X155881502Y-73378714D01*
X155881502Y-73378714D02*
X155995788Y-73378714D01*
X155995788Y-73378714D02*
X156148169Y-73340618D01*
X156148169Y-73340618D02*
X156224359Y-73302523D01*
X156224359Y-73302523D02*
X156300550Y-73226333D01*
X156300550Y-73226333D02*
X156338645Y-73112047D01*
X156338645Y-73112047D02*
X156338645Y-72921571D01*
X155614835Y-73683475D02*
X155576740Y-73721571D01*
X155576740Y-73721571D02*
X155538645Y-73797761D01*
X155538645Y-73797761D02*
X155538645Y-73988237D01*
X155538645Y-73988237D02*
X155576740Y-74064428D01*
X155576740Y-74064428D02*
X155614835Y-74102523D01*
X155614835Y-74102523D02*
X155691026Y-74140618D01*
X155691026Y-74140618D02*
X155767216Y-74140618D01*
X155767216Y-74140618D02*
X155881502Y-74102523D01*
X155881502Y-74102523D02*
X156338645Y-73645380D01*
X156338645Y-73645380D02*
X156338645Y-74140618D01*
X155614835Y-74445380D02*
X155576740Y-74483476D01*
X155576740Y-74483476D02*
X155538645Y-74559666D01*
X155538645Y-74559666D02*
X155538645Y-74750142D01*
X155538645Y-74750142D02*
X155576740Y-74826333D01*
X155576740Y-74826333D02*
X155614835Y-74864428D01*
X155614835Y-74864428D02*
X155691026Y-74902523D01*
X155691026Y-74902523D02*
X155767216Y-74902523D01*
X155767216Y-74902523D02*
X155881502Y-74864428D01*
X155881502Y-74864428D02*
X156338645Y-74407285D01*
X156338645Y-74407285D02*
X156338645Y-74902523D01*
X58739895Y-130151571D02*
X57939895Y-130151571D01*
X57939895Y-130151571D02*
X57939895Y-130342047D01*
X57939895Y-130342047D02*
X57977990Y-130456333D01*
X57977990Y-130456333D02*
X58054180Y-130532523D01*
X58054180Y-130532523D02*
X58130371Y-130570618D01*
X58130371Y-130570618D02*
X58282752Y-130608714D01*
X58282752Y-130608714D02*
X58397038Y-130608714D01*
X58397038Y-130608714D02*
X58549419Y-130570618D01*
X58549419Y-130570618D02*
X58625609Y-130532523D01*
X58625609Y-130532523D02*
X58701800Y-130456333D01*
X58701800Y-130456333D02*
X58739895Y-130342047D01*
X58739895Y-130342047D02*
X58739895Y-130151571D01*
X57939895Y-131332523D02*
X57939895Y-130951571D01*
X57939895Y-130951571D02*
X58320847Y-130913475D01*
X58320847Y-130913475D02*
X58282752Y-130951571D01*
X58282752Y-130951571D02*
X58244657Y-131027761D01*
X58244657Y-131027761D02*
X58244657Y-131218237D01*
X58244657Y-131218237D02*
X58282752Y-131294428D01*
X58282752Y-131294428D02*
X58320847Y-131332523D01*
X58320847Y-131332523D02*
X58397038Y-131370618D01*
X58397038Y-131370618D02*
X58587514Y-131370618D01*
X58587514Y-131370618D02*
X58663704Y-131332523D01*
X58663704Y-131332523D02*
X58701800Y-131294428D01*
X58701800Y-131294428D02*
X58739895Y-131218237D01*
X58739895Y-131218237D02*
X58739895Y-131027761D01*
X58739895Y-131027761D02*
X58701800Y-130951571D01*
X58701800Y-130951571D02*
X58663704Y-130913475D01*
X58739895Y-131751571D02*
X58739895Y-131903952D01*
X58739895Y-131903952D02*
X58701800Y-131980142D01*
X58701800Y-131980142D02*
X58663704Y-132018238D01*
X58663704Y-132018238D02*
X58549419Y-132094428D01*
X58549419Y-132094428D02*
X58397038Y-132132523D01*
X58397038Y-132132523D02*
X58092276Y-132132523D01*
X58092276Y-132132523D02*
X58016085Y-132094428D01*
X58016085Y-132094428D02*
X57977990Y-132056333D01*
X57977990Y-132056333D02*
X57939895Y-131980142D01*
X57939895Y-131980142D02*
X57939895Y-131827761D01*
X57939895Y-131827761D02*
X57977990Y-131751571D01*
X57977990Y-131751571D02*
X58016085Y-131713476D01*
X58016085Y-131713476D02*
X58092276Y-131675380D01*
X58092276Y-131675380D02*
X58282752Y-131675380D01*
X58282752Y-131675380D02*
X58358942Y-131713476D01*
X58358942Y-131713476D02*
X58397038Y-131751571D01*
X58397038Y-131751571D02*
X58435133Y-131827761D01*
X58435133Y-131827761D02*
X58435133Y-131980142D01*
X58435133Y-131980142D02*
X58397038Y-132056333D01*
X58397038Y-132056333D02*
X58358942Y-132094428D01*
X58358942Y-132094428D02*
X58282752Y-132132523D01*
X39689895Y-91971571D02*
X38889895Y-91971571D01*
X38889895Y-91971571D02*
X38889895Y-92162047D01*
X38889895Y-92162047D02*
X38927990Y-92276333D01*
X38927990Y-92276333D02*
X39004180Y-92352523D01*
X39004180Y-92352523D02*
X39080371Y-92390618D01*
X39080371Y-92390618D02*
X39232752Y-92428714D01*
X39232752Y-92428714D02*
X39347038Y-92428714D01*
X39347038Y-92428714D02*
X39499419Y-92390618D01*
X39499419Y-92390618D02*
X39575609Y-92352523D01*
X39575609Y-92352523D02*
X39651800Y-92276333D01*
X39651800Y-92276333D02*
X39689895Y-92162047D01*
X39689895Y-92162047D02*
X39689895Y-91971571D01*
X38889895Y-92695380D02*
X38889895Y-93190618D01*
X38889895Y-93190618D02*
X39194657Y-92923952D01*
X39194657Y-92923952D02*
X39194657Y-93038237D01*
X39194657Y-93038237D02*
X39232752Y-93114428D01*
X39232752Y-93114428D02*
X39270847Y-93152523D01*
X39270847Y-93152523D02*
X39347038Y-93190618D01*
X39347038Y-93190618D02*
X39537514Y-93190618D01*
X39537514Y-93190618D02*
X39613704Y-93152523D01*
X39613704Y-93152523D02*
X39651800Y-93114428D01*
X39651800Y-93114428D02*
X39689895Y-93038237D01*
X39689895Y-93038237D02*
X39689895Y-92809666D01*
X39689895Y-92809666D02*
X39651800Y-92733475D01*
X39651800Y-92733475D02*
X39613704Y-92695380D01*
X38889895Y-93685857D02*
X38889895Y-93762047D01*
X38889895Y-93762047D02*
X38927990Y-93838238D01*
X38927990Y-93838238D02*
X38966085Y-93876333D01*
X38966085Y-93876333D02*
X39042276Y-93914428D01*
X39042276Y-93914428D02*
X39194657Y-93952523D01*
X39194657Y-93952523D02*
X39385133Y-93952523D01*
X39385133Y-93952523D02*
X39537514Y-93914428D01*
X39537514Y-93914428D02*
X39613704Y-93876333D01*
X39613704Y-93876333D02*
X39651800Y-93838238D01*
X39651800Y-93838238D02*
X39689895Y-93762047D01*
X39689895Y-93762047D02*
X39689895Y-93685857D01*
X39689895Y-93685857D02*
X39651800Y-93609666D01*
X39651800Y-93609666D02*
X39613704Y-93571571D01*
X39613704Y-93571571D02*
X39537514Y-93533476D01*
X39537514Y-93533476D02*
X39385133Y-93495380D01*
X39385133Y-93495380D02*
X39194657Y-93495380D01*
X39194657Y-93495380D02*
X39042276Y-93533476D01*
X39042276Y-93533476D02*
X38966085Y-93571571D01*
X38966085Y-93571571D02*
X38927990Y-93609666D01*
X38927990Y-93609666D02*
X38889895Y-93685857D01*
X282564895Y-111021571D02*
X281764895Y-111021571D01*
X281764895Y-111021571D02*
X281764895Y-111212047D01*
X281764895Y-111212047D02*
X281802990Y-111326333D01*
X281802990Y-111326333D02*
X281879180Y-111402523D01*
X281879180Y-111402523D02*
X281955371Y-111440618D01*
X281955371Y-111440618D02*
X282107752Y-111478714D01*
X282107752Y-111478714D02*
X282222038Y-111478714D01*
X282222038Y-111478714D02*
X282374419Y-111440618D01*
X282374419Y-111440618D02*
X282450609Y-111402523D01*
X282450609Y-111402523D02*
X282526800Y-111326333D01*
X282526800Y-111326333D02*
X282564895Y-111212047D01*
X282564895Y-111212047D02*
X282564895Y-111021571D01*
X281764895Y-112164428D02*
X281764895Y-112012047D01*
X281764895Y-112012047D02*
X281802990Y-111935856D01*
X281802990Y-111935856D02*
X281841085Y-111897761D01*
X281841085Y-111897761D02*
X281955371Y-111821571D01*
X281955371Y-111821571D02*
X282107752Y-111783475D01*
X282107752Y-111783475D02*
X282412514Y-111783475D01*
X282412514Y-111783475D02*
X282488704Y-111821571D01*
X282488704Y-111821571D02*
X282526800Y-111859666D01*
X282526800Y-111859666D02*
X282564895Y-111935856D01*
X282564895Y-111935856D02*
X282564895Y-112088237D01*
X282564895Y-112088237D02*
X282526800Y-112164428D01*
X282526800Y-112164428D02*
X282488704Y-112202523D01*
X282488704Y-112202523D02*
X282412514Y-112240618D01*
X282412514Y-112240618D02*
X282222038Y-112240618D01*
X282222038Y-112240618D02*
X282145847Y-112202523D01*
X282145847Y-112202523D02*
X282107752Y-112164428D01*
X282107752Y-112164428D02*
X282069657Y-112088237D01*
X282069657Y-112088237D02*
X282069657Y-111935856D01*
X282069657Y-111935856D02*
X282107752Y-111859666D01*
X282107752Y-111859666D02*
X282145847Y-111821571D01*
X282145847Y-111821571D02*
X282222038Y-111783475D01*
X282564895Y-112621571D02*
X282564895Y-112773952D01*
X282564895Y-112773952D02*
X282526800Y-112850142D01*
X282526800Y-112850142D02*
X282488704Y-112888238D01*
X282488704Y-112888238D02*
X282374419Y-112964428D01*
X282374419Y-112964428D02*
X282222038Y-113002523D01*
X282222038Y-113002523D02*
X281917276Y-113002523D01*
X281917276Y-113002523D02*
X281841085Y-112964428D01*
X281841085Y-112964428D02*
X281802990Y-112926333D01*
X281802990Y-112926333D02*
X281764895Y-112850142D01*
X281764895Y-112850142D02*
X281764895Y-112697761D01*
X281764895Y-112697761D02*
X281802990Y-112621571D01*
X281802990Y-112621571D02*
X281841085Y-112583476D01*
X281841085Y-112583476D02*
X281917276Y-112545380D01*
X281917276Y-112545380D02*
X282107752Y-112545380D01*
X282107752Y-112545380D02*
X282183942Y-112583476D01*
X282183942Y-112583476D02*
X282222038Y-112621571D01*
X282222038Y-112621571D02*
X282260133Y-112697761D01*
X282260133Y-112697761D02*
X282260133Y-112850142D01*
X282260133Y-112850142D02*
X282222038Y-112926333D01*
X282222038Y-112926333D02*
X282183942Y-112964428D01*
X282183942Y-112964428D02*
X282107752Y-113002523D01*
X227796145Y-111021571D02*
X226996145Y-111021571D01*
X226996145Y-111021571D02*
X226996145Y-111212047D01*
X226996145Y-111212047D02*
X227034240Y-111326333D01*
X227034240Y-111326333D02*
X227110430Y-111402523D01*
X227110430Y-111402523D02*
X227186621Y-111440618D01*
X227186621Y-111440618D02*
X227339002Y-111478714D01*
X227339002Y-111478714D02*
X227453288Y-111478714D01*
X227453288Y-111478714D02*
X227605669Y-111440618D01*
X227605669Y-111440618D02*
X227681859Y-111402523D01*
X227681859Y-111402523D02*
X227758050Y-111326333D01*
X227758050Y-111326333D02*
X227796145Y-111212047D01*
X227796145Y-111212047D02*
X227796145Y-111021571D01*
X226996145Y-112202523D02*
X226996145Y-111821571D01*
X226996145Y-111821571D02*
X227377097Y-111783475D01*
X227377097Y-111783475D02*
X227339002Y-111821571D01*
X227339002Y-111821571D02*
X227300907Y-111897761D01*
X227300907Y-111897761D02*
X227300907Y-112088237D01*
X227300907Y-112088237D02*
X227339002Y-112164428D01*
X227339002Y-112164428D02*
X227377097Y-112202523D01*
X227377097Y-112202523D02*
X227453288Y-112240618D01*
X227453288Y-112240618D02*
X227643764Y-112240618D01*
X227643764Y-112240618D02*
X227719954Y-112202523D01*
X227719954Y-112202523D02*
X227758050Y-112164428D01*
X227758050Y-112164428D02*
X227796145Y-112088237D01*
X227796145Y-112088237D02*
X227796145Y-111897761D01*
X227796145Y-111897761D02*
X227758050Y-111821571D01*
X227758050Y-111821571D02*
X227719954Y-111783475D01*
X226996145Y-112507285D02*
X226996145Y-113002523D01*
X226996145Y-113002523D02*
X227300907Y-112735857D01*
X227300907Y-112735857D02*
X227300907Y-112850142D01*
X227300907Y-112850142D02*
X227339002Y-112926333D01*
X227339002Y-112926333D02*
X227377097Y-112964428D01*
X227377097Y-112964428D02*
X227453288Y-113002523D01*
X227453288Y-113002523D02*
X227643764Y-113002523D01*
X227643764Y-113002523D02*
X227719954Y-112964428D01*
X227719954Y-112964428D02*
X227758050Y-112926333D01*
X227758050Y-112926333D02*
X227796145Y-112850142D01*
X227796145Y-112850142D02*
X227796145Y-112621571D01*
X227796145Y-112621571D02*
X227758050Y-112545380D01*
X227758050Y-112545380D02*
X227719954Y-112507285D01*
X223046145Y-53871571D02*
X222246145Y-53871571D01*
X222246145Y-53871571D02*
X222246145Y-54062047D01*
X222246145Y-54062047D02*
X222284240Y-54176333D01*
X222284240Y-54176333D02*
X222360430Y-54252523D01*
X222360430Y-54252523D02*
X222436621Y-54290618D01*
X222436621Y-54290618D02*
X222589002Y-54328714D01*
X222589002Y-54328714D02*
X222703288Y-54328714D01*
X222703288Y-54328714D02*
X222855669Y-54290618D01*
X222855669Y-54290618D02*
X222931859Y-54252523D01*
X222931859Y-54252523D02*
X223008050Y-54176333D01*
X223008050Y-54176333D02*
X223046145Y-54062047D01*
X223046145Y-54062047D02*
X223046145Y-53871571D01*
X223046145Y-55090618D02*
X223046145Y-54633475D01*
X223046145Y-54862047D02*
X222246145Y-54862047D01*
X222246145Y-54862047D02*
X222360430Y-54785856D01*
X222360430Y-54785856D02*
X222436621Y-54709666D01*
X222436621Y-54709666D02*
X222474716Y-54633475D01*
X222322335Y-55395380D02*
X222284240Y-55433476D01*
X222284240Y-55433476D02*
X222246145Y-55509666D01*
X222246145Y-55509666D02*
X222246145Y-55700142D01*
X222246145Y-55700142D02*
X222284240Y-55776333D01*
X222284240Y-55776333D02*
X222322335Y-55814428D01*
X222322335Y-55814428D02*
X222398526Y-55852523D01*
X222398526Y-55852523D02*
X222474716Y-55852523D01*
X222474716Y-55852523D02*
X222589002Y-55814428D01*
X222589002Y-55814428D02*
X223046145Y-55357285D01*
X223046145Y-55357285D02*
X223046145Y-55852523D01*
D11*
X132082768Y-155919819D02*
X132416101Y-155443628D01*
X132654196Y-155919819D02*
X132654196Y-154919819D01*
X132654196Y-154919819D02*
X132273244Y-154919819D01*
X132273244Y-154919819D02*
X132178006Y-154967438D01*
X132178006Y-154967438D02*
X132130387Y-155015057D01*
X132130387Y-155015057D02*
X132082768Y-155110295D01*
X132082768Y-155110295D02*
X132082768Y-155253152D01*
X132082768Y-155253152D02*
X132130387Y-155348390D01*
X132130387Y-155348390D02*
X132178006Y-155396009D01*
X132178006Y-155396009D02*
X132273244Y-155443628D01*
X132273244Y-155443628D02*
X132654196Y-155443628D01*
X131654196Y-155919819D02*
X131654196Y-154919819D01*
X131654196Y-154919819D02*
X131082768Y-155919819D01*
X131082768Y-155919819D02*
X131082768Y-154919819D01*
X130082768Y-155919819D02*
X130654196Y-155919819D01*
X130368482Y-155919819D02*
X130368482Y-154919819D01*
X130368482Y-154919819D02*
X130463720Y-155062676D01*
X130463720Y-155062676D02*
X130558958Y-155157914D01*
X130558958Y-155157914D02*
X130654196Y-155205533D01*
D10*
X208746145Y-111021571D02*
X207946145Y-111021571D01*
X207946145Y-111021571D02*
X207946145Y-111212047D01*
X207946145Y-111212047D02*
X207984240Y-111326333D01*
X207984240Y-111326333D02*
X208060430Y-111402523D01*
X208060430Y-111402523D02*
X208136621Y-111440618D01*
X208136621Y-111440618D02*
X208289002Y-111478714D01*
X208289002Y-111478714D02*
X208403288Y-111478714D01*
X208403288Y-111478714D02*
X208555669Y-111440618D01*
X208555669Y-111440618D02*
X208631859Y-111402523D01*
X208631859Y-111402523D02*
X208708050Y-111326333D01*
X208708050Y-111326333D02*
X208746145Y-111212047D01*
X208746145Y-111212047D02*
X208746145Y-111021571D01*
X207946145Y-112202523D02*
X207946145Y-111821571D01*
X207946145Y-111821571D02*
X208327097Y-111783475D01*
X208327097Y-111783475D02*
X208289002Y-111821571D01*
X208289002Y-111821571D02*
X208250907Y-111897761D01*
X208250907Y-111897761D02*
X208250907Y-112088237D01*
X208250907Y-112088237D02*
X208289002Y-112164428D01*
X208289002Y-112164428D02*
X208327097Y-112202523D01*
X208327097Y-112202523D02*
X208403288Y-112240618D01*
X208403288Y-112240618D02*
X208593764Y-112240618D01*
X208593764Y-112240618D02*
X208669954Y-112202523D01*
X208669954Y-112202523D02*
X208708050Y-112164428D01*
X208708050Y-112164428D02*
X208746145Y-112088237D01*
X208746145Y-112088237D02*
X208746145Y-111897761D01*
X208746145Y-111897761D02*
X208708050Y-111821571D01*
X208708050Y-111821571D02*
X208669954Y-111783475D01*
X208022335Y-112545380D02*
X207984240Y-112583476D01*
X207984240Y-112583476D02*
X207946145Y-112659666D01*
X207946145Y-112659666D02*
X207946145Y-112850142D01*
X207946145Y-112850142D02*
X207984240Y-112926333D01*
X207984240Y-112926333D02*
X208022335Y-112964428D01*
X208022335Y-112964428D02*
X208098526Y-113002523D01*
X208098526Y-113002523D02*
X208174716Y-113002523D01*
X208174716Y-113002523D02*
X208289002Y-112964428D01*
X208289002Y-112964428D02*
X208746145Y-112507285D01*
X208746145Y-112507285D02*
X208746145Y-113002523D01*
X299246145Y-130151571D02*
X298446145Y-130151571D01*
X298446145Y-130151571D02*
X298446145Y-130342047D01*
X298446145Y-130342047D02*
X298484240Y-130456333D01*
X298484240Y-130456333D02*
X298560430Y-130532523D01*
X298560430Y-130532523D02*
X298636621Y-130570618D01*
X298636621Y-130570618D02*
X298789002Y-130608714D01*
X298789002Y-130608714D02*
X298903288Y-130608714D01*
X298903288Y-130608714D02*
X299055669Y-130570618D01*
X299055669Y-130570618D02*
X299131859Y-130532523D01*
X299131859Y-130532523D02*
X299208050Y-130456333D01*
X299208050Y-130456333D02*
X299246145Y-130342047D01*
X299246145Y-130342047D02*
X299246145Y-130151571D01*
X298446145Y-130875380D02*
X298446145Y-131408714D01*
X298446145Y-131408714D02*
X299246145Y-131065856D01*
X298446145Y-131865857D02*
X298446145Y-131942047D01*
X298446145Y-131942047D02*
X298484240Y-132018238D01*
X298484240Y-132018238D02*
X298522335Y-132056333D01*
X298522335Y-132056333D02*
X298598526Y-132094428D01*
X298598526Y-132094428D02*
X298750907Y-132132523D01*
X298750907Y-132132523D02*
X298941383Y-132132523D01*
X298941383Y-132132523D02*
X299093764Y-132094428D01*
X299093764Y-132094428D02*
X299169954Y-132056333D01*
X299169954Y-132056333D02*
X299208050Y-132018238D01*
X299208050Y-132018238D02*
X299246145Y-131942047D01*
X299246145Y-131942047D02*
X299246145Y-131865857D01*
X299246145Y-131865857D02*
X299208050Y-131789666D01*
X299208050Y-131789666D02*
X299169954Y-131751571D01*
X299169954Y-131751571D02*
X299093764Y-131713476D01*
X299093764Y-131713476D02*
X298941383Y-131675380D01*
X298941383Y-131675380D02*
X298750907Y-131675380D01*
X298750907Y-131675380D02*
X298598526Y-131713476D01*
X298598526Y-131713476D02*
X298522335Y-131751571D01*
X298522335Y-131751571D02*
X298484240Y-131789666D01*
X298484240Y-131789666D02*
X298446145Y-131865857D01*
X294451145Y-72921571D02*
X293651145Y-72921571D01*
X293651145Y-72921571D02*
X293651145Y-73112047D01*
X293651145Y-73112047D02*
X293689240Y-73226333D01*
X293689240Y-73226333D02*
X293765430Y-73302523D01*
X293765430Y-73302523D02*
X293841621Y-73340618D01*
X293841621Y-73340618D02*
X293994002Y-73378714D01*
X293994002Y-73378714D02*
X294108288Y-73378714D01*
X294108288Y-73378714D02*
X294260669Y-73340618D01*
X294260669Y-73340618D02*
X294336859Y-73302523D01*
X294336859Y-73302523D02*
X294413050Y-73226333D01*
X294413050Y-73226333D02*
X294451145Y-73112047D01*
X294451145Y-73112047D02*
X294451145Y-72921571D01*
X293651145Y-74102523D02*
X293651145Y-73721571D01*
X293651145Y-73721571D02*
X294032097Y-73683475D01*
X294032097Y-73683475D02*
X293994002Y-73721571D01*
X293994002Y-73721571D02*
X293955907Y-73797761D01*
X293955907Y-73797761D02*
X293955907Y-73988237D01*
X293955907Y-73988237D02*
X293994002Y-74064428D01*
X293994002Y-74064428D02*
X294032097Y-74102523D01*
X294032097Y-74102523D02*
X294108288Y-74140618D01*
X294108288Y-74140618D02*
X294298764Y-74140618D01*
X294298764Y-74140618D02*
X294374954Y-74102523D01*
X294374954Y-74102523D02*
X294413050Y-74064428D01*
X294413050Y-74064428D02*
X294451145Y-73988237D01*
X294451145Y-73988237D02*
X294451145Y-73797761D01*
X294451145Y-73797761D02*
X294413050Y-73721571D01*
X294413050Y-73721571D02*
X294374954Y-73683475D01*
X293651145Y-74864428D02*
X293651145Y-74483476D01*
X293651145Y-74483476D02*
X294032097Y-74445380D01*
X294032097Y-74445380D02*
X293994002Y-74483476D01*
X293994002Y-74483476D02*
X293955907Y-74559666D01*
X293955907Y-74559666D02*
X293955907Y-74750142D01*
X293955907Y-74750142D02*
X293994002Y-74826333D01*
X293994002Y-74826333D02*
X294032097Y-74864428D01*
X294032097Y-74864428D02*
X294108288Y-74902523D01*
X294108288Y-74902523D02*
X294298764Y-74902523D01*
X294298764Y-74902523D02*
X294374954Y-74864428D01*
X294374954Y-74864428D02*
X294413050Y-74826333D01*
X294413050Y-74826333D02*
X294451145Y-74750142D01*
X294451145Y-74750142D02*
X294451145Y-74559666D01*
X294451145Y-74559666D02*
X294413050Y-74483476D01*
X294413050Y-74483476D02*
X294374954Y-74445380D01*
X194438645Y-72921571D02*
X193638645Y-72921571D01*
X193638645Y-72921571D02*
X193638645Y-73112047D01*
X193638645Y-73112047D02*
X193676740Y-73226333D01*
X193676740Y-73226333D02*
X193752930Y-73302523D01*
X193752930Y-73302523D02*
X193829121Y-73340618D01*
X193829121Y-73340618D02*
X193981502Y-73378714D01*
X193981502Y-73378714D02*
X194095788Y-73378714D01*
X194095788Y-73378714D02*
X194248169Y-73340618D01*
X194248169Y-73340618D02*
X194324359Y-73302523D01*
X194324359Y-73302523D02*
X194400550Y-73226333D01*
X194400550Y-73226333D02*
X194438645Y-73112047D01*
X194438645Y-73112047D02*
X194438645Y-72921571D01*
X193714835Y-73683475D02*
X193676740Y-73721571D01*
X193676740Y-73721571D02*
X193638645Y-73797761D01*
X193638645Y-73797761D02*
X193638645Y-73988237D01*
X193638645Y-73988237D02*
X193676740Y-74064428D01*
X193676740Y-74064428D02*
X193714835Y-74102523D01*
X193714835Y-74102523D02*
X193791026Y-74140618D01*
X193791026Y-74140618D02*
X193867216Y-74140618D01*
X193867216Y-74140618D02*
X193981502Y-74102523D01*
X193981502Y-74102523D02*
X194438645Y-73645380D01*
X194438645Y-73645380D02*
X194438645Y-74140618D01*
X193905311Y-74826333D02*
X194438645Y-74826333D01*
X193600550Y-74635857D02*
X194171978Y-74445380D01*
X194171978Y-74445380D02*
X194171978Y-74940619D01*
X75396145Y-111021571D02*
X74596145Y-111021571D01*
X74596145Y-111021571D02*
X74596145Y-111212047D01*
X74596145Y-111212047D02*
X74634240Y-111326333D01*
X74634240Y-111326333D02*
X74710430Y-111402523D01*
X74710430Y-111402523D02*
X74786621Y-111440618D01*
X74786621Y-111440618D02*
X74939002Y-111478714D01*
X74939002Y-111478714D02*
X75053288Y-111478714D01*
X75053288Y-111478714D02*
X75205669Y-111440618D01*
X75205669Y-111440618D02*
X75281859Y-111402523D01*
X75281859Y-111402523D02*
X75358050Y-111326333D01*
X75358050Y-111326333D02*
X75396145Y-111212047D01*
X75396145Y-111212047D02*
X75396145Y-111021571D01*
X74862811Y-112164428D02*
X75396145Y-112164428D01*
X74558050Y-111973952D02*
X75129478Y-111783475D01*
X75129478Y-111783475D02*
X75129478Y-112278714D01*
X74596145Y-112964428D02*
X74596145Y-112583476D01*
X74596145Y-112583476D02*
X74977097Y-112545380D01*
X74977097Y-112545380D02*
X74939002Y-112583476D01*
X74939002Y-112583476D02*
X74900907Y-112659666D01*
X74900907Y-112659666D02*
X74900907Y-112850142D01*
X74900907Y-112850142D02*
X74939002Y-112926333D01*
X74939002Y-112926333D02*
X74977097Y-112964428D01*
X74977097Y-112964428D02*
X75053288Y-113002523D01*
X75053288Y-113002523D02*
X75243764Y-113002523D01*
X75243764Y-113002523D02*
X75319954Y-112964428D01*
X75319954Y-112964428D02*
X75358050Y-112926333D01*
X75358050Y-112926333D02*
X75396145Y-112850142D01*
X75396145Y-112850142D02*
X75396145Y-112659666D01*
X75396145Y-112659666D02*
X75358050Y-112583476D01*
X75358050Y-112583476D02*
X75319954Y-112545380D01*
X80138645Y-72921571D02*
X79338645Y-72921571D01*
X79338645Y-72921571D02*
X79338645Y-73112047D01*
X79338645Y-73112047D02*
X79376740Y-73226333D01*
X79376740Y-73226333D02*
X79452930Y-73302523D01*
X79452930Y-73302523D02*
X79529121Y-73340618D01*
X79529121Y-73340618D02*
X79681502Y-73378714D01*
X79681502Y-73378714D02*
X79795788Y-73378714D01*
X79795788Y-73378714D02*
X79948169Y-73340618D01*
X79948169Y-73340618D02*
X80024359Y-73302523D01*
X80024359Y-73302523D02*
X80100550Y-73226333D01*
X80100550Y-73226333D02*
X80138645Y-73112047D01*
X80138645Y-73112047D02*
X80138645Y-72921571D01*
X80138645Y-74140618D02*
X80138645Y-73683475D01*
X80138645Y-73912047D02*
X79338645Y-73912047D01*
X79338645Y-73912047D02*
X79452930Y-73835856D01*
X79452930Y-73835856D02*
X79529121Y-73759666D01*
X79529121Y-73759666D02*
X79567216Y-73683475D01*
X79681502Y-74597761D02*
X79643407Y-74521571D01*
X79643407Y-74521571D02*
X79605311Y-74483476D01*
X79605311Y-74483476D02*
X79529121Y-74445380D01*
X79529121Y-74445380D02*
X79491026Y-74445380D01*
X79491026Y-74445380D02*
X79414835Y-74483476D01*
X79414835Y-74483476D02*
X79376740Y-74521571D01*
X79376740Y-74521571D02*
X79338645Y-74597761D01*
X79338645Y-74597761D02*
X79338645Y-74750142D01*
X79338645Y-74750142D02*
X79376740Y-74826333D01*
X79376740Y-74826333D02*
X79414835Y-74864428D01*
X79414835Y-74864428D02*
X79491026Y-74902523D01*
X79491026Y-74902523D02*
X79529121Y-74902523D01*
X79529121Y-74902523D02*
X79605311Y-74864428D01*
X79605311Y-74864428D02*
X79643407Y-74826333D01*
X79643407Y-74826333D02*
X79681502Y-74750142D01*
X79681502Y-74750142D02*
X79681502Y-74597761D01*
X79681502Y-74597761D02*
X79719597Y-74521571D01*
X79719597Y-74521571D02*
X79757692Y-74483476D01*
X79757692Y-74483476D02*
X79833883Y-74445380D01*
X79833883Y-74445380D02*
X79986264Y-74445380D01*
X79986264Y-74445380D02*
X80062454Y-74483476D01*
X80062454Y-74483476D02*
X80100550Y-74521571D01*
X80100550Y-74521571D02*
X80138645Y-74597761D01*
X80138645Y-74597761D02*
X80138645Y-74750142D01*
X80138645Y-74750142D02*
X80100550Y-74826333D01*
X80100550Y-74826333D02*
X80062454Y-74864428D01*
X80062454Y-74864428D02*
X79986264Y-74902523D01*
X79986264Y-74902523D02*
X79833883Y-74902523D01*
X79833883Y-74902523D02*
X79757692Y-74864428D01*
X79757692Y-74864428D02*
X79719597Y-74826333D01*
X79719597Y-74826333D02*
X79681502Y-74750142D01*
X218283645Y-91971571D02*
X217483645Y-91971571D01*
X217483645Y-91971571D02*
X217483645Y-92162047D01*
X217483645Y-92162047D02*
X217521740Y-92276333D01*
X217521740Y-92276333D02*
X217597930Y-92352523D01*
X217597930Y-92352523D02*
X217674121Y-92390618D01*
X217674121Y-92390618D02*
X217826502Y-92428714D01*
X217826502Y-92428714D02*
X217940788Y-92428714D01*
X217940788Y-92428714D02*
X218093169Y-92390618D01*
X218093169Y-92390618D02*
X218169359Y-92352523D01*
X218169359Y-92352523D02*
X218245550Y-92276333D01*
X218245550Y-92276333D02*
X218283645Y-92162047D01*
X218283645Y-92162047D02*
X218283645Y-91971571D01*
X217483645Y-92695380D02*
X217483645Y-93190618D01*
X217483645Y-93190618D02*
X217788407Y-92923952D01*
X217788407Y-92923952D02*
X217788407Y-93038237D01*
X217788407Y-93038237D02*
X217826502Y-93114428D01*
X217826502Y-93114428D02*
X217864597Y-93152523D01*
X217864597Y-93152523D02*
X217940788Y-93190618D01*
X217940788Y-93190618D02*
X218131264Y-93190618D01*
X218131264Y-93190618D02*
X218207454Y-93152523D01*
X218207454Y-93152523D02*
X218245550Y-93114428D01*
X218245550Y-93114428D02*
X218283645Y-93038237D01*
X218283645Y-93038237D02*
X218283645Y-92809666D01*
X218283645Y-92809666D02*
X218245550Y-92733475D01*
X218245550Y-92733475D02*
X218207454Y-92695380D01*
X218283645Y-93571571D02*
X218283645Y-93723952D01*
X218283645Y-93723952D02*
X218245550Y-93800142D01*
X218245550Y-93800142D02*
X218207454Y-93838238D01*
X218207454Y-93838238D02*
X218093169Y-93914428D01*
X218093169Y-93914428D02*
X217940788Y-93952523D01*
X217940788Y-93952523D02*
X217636026Y-93952523D01*
X217636026Y-93952523D02*
X217559835Y-93914428D01*
X217559835Y-93914428D02*
X217521740Y-93876333D01*
X217521740Y-93876333D02*
X217483645Y-93800142D01*
X217483645Y-93800142D02*
X217483645Y-93647761D01*
X217483645Y-93647761D02*
X217521740Y-93571571D01*
X217521740Y-93571571D02*
X217559835Y-93533476D01*
X217559835Y-93533476D02*
X217636026Y-93495380D01*
X217636026Y-93495380D02*
X217826502Y-93495380D01*
X217826502Y-93495380D02*
X217902692Y-93533476D01*
X217902692Y-93533476D02*
X217940788Y-93571571D01*
X217940788Y-93571571D02*
X217978883Y-93647761D01*
X217978883Y-93647761D02*
X217978883Y-93800142D01*
X217978883Y-93800142D02*
X217940788Y-93876333D01*
X217940788Y-93876333D02*
X217902692Y-93914428D01*
X217902692Y-93914428D02*
X217826502Y-93952523D01*
X142083645Y-91971571D02*
X141283645Y-91971571D01*
X141283645Y-91971571D02*
X141283645Y-92162047D01*
X141283645Y-92162047D02*
X141321740Y-92276333D01*
X141321740Y-92276333D02*
X141397930Y-92352523D01*
X141397930Y-92352523D02*
X141474121Y-92390618D01*
X141474121Y-92390618D02*
X141626502Y-92428714D01*
X141626502Y-92428714D02*
X141740788Y-92428714D01*
X141740788Y-92428714D02*
X141893169Y-92390618D01*
X141893169Y-92390618D02*
X141969359Y-92352523D01*
X141969359Y-92352523D02*
X142045550Y-92276333D01*
X142045550Y-92276333D02*
X142083645Y-92162047D01*
X142083645Y-92162047D02*
X142083645Y-91971571D01*
X141283645Y-92695380D02*
X141283645Y-93190618D01*
X141283645Y-93190618D02*
X141588407Y-92923952D01*
X141588407Y-92923952D02*
X141588407Y-93038237D01*
X141588407Y-93038237D02*
X141626502Y-93114428D01*
X141626502Y-93114428D02*
X141664597Y-93152523D01*
X141664597Y-93152523D02*
X141740788Y-93190618D01*
X141740788Y-93190618D02*
X141931264Y-93190618D01*
X141931264Y-93190618D02*
X142007454Y-93152523D01*
X142007454Y-93152523D02*
X142045550Y-93114428D01*
X142045550Y-93114428D02*
X142083645Y-93038237D01*
X142083645Y-93038237D02*
X142083645Y-92809666D01*
X142083645Y-92809666D02*
X142045550Y-92733475D01*
X142045550Y-92733475D02*
X142007454Y-92695380D01*
X141283645Y-93914428D02*
X141283645Y-93533476D01*
X141283645Y-93533476D02*
X141664597Y-93495380D01*
X141664597Y-93495380D02*
X141626502Y-93533476D01*
X141626502Y-93533476D02*
X141588407Y-93609666D01*
X141588407Y-93609666D02*
X141588407Y-93800142D01*
X141588407Y-93800142D02*
X141626502Y-93876333D01*
X141626502Y-93876333D02*
X141664597Y-93914428D01*
X141664597Y-93914428D02*
X141740788Y-93952523D01*
X141740788Y-93952523D02*
X141931264Y-93952523D01*
X141931264Y-93952523D02*
X142007454Y-93914428D01*
X142007454Y-93914428D02*
X142045550Y-93876333D01*
X142045550Y-93876333D02*
X142083645Y-93800142D01*
X142083645Y-93800142D02*
X142083645Y-93609666D01*
X142083645Y-93609666D02*
X142045550Y-93533476D01*
X142045550Y-93533476D02*
X142007454Y-93495380D01*
X87223287Y-150016667D02*
X87261383Y-149978571D01*
X87261383Y-149978571D02*
X87299478Y-149864286D01*
X87299478Y-149864286D02*
X87299478Y-149788095D01*
X87299478Y-149788095D02*
X87261383Y-149673809D01*
X87261383Y-149673809D02*
X87185192Y-149597619D01*
X87185192Y-149597619D02*
X87109002Y-149559524D01*
X87109002Y-149559524D02*
X86956621Y-149521428D01*
X86956621Y-149521428D02*
X86842335Y-149521428D01*
X86842335Y-149521428D02*
X86689954Y-149559524D01*
X86689954Y-149559524D02*
X86613763Y-149597619D01*
X86613763Y-149597619D02*
X86537573Y-149673809D01*
X86537573Y-149673809D02*
X86499478Y-149788095D01*
X86499478Y-149788095D02*
X86499478Y-149864286D01*
X86499478Y-149864286D02*
X86537573Y-149978571D01*
X86537573Y-149978571D02*
X86575668Y-150016667D01*
X86499478Y-150283333D02*
X86499478Y-150778571D01*
X86499478Y-150778571D02*
X86804240Y-150511905D01*
X86804240Y-150511905D02*
X86804240Y-150626190D01*
X86804240Y-150626190D02*
X86842335Y-150702381D01*
X86842335Y-150702381D02*
X86880430Y-150740476D01*
X86880430Y-150740476D02*
X86956621Y-150778571D01*
X86956621Y-150778571D02*
X87147097Y-150778571D01*
X87147097Y-150778571D02*
X87223287Y-150740476D01*
X87223287Y-150740476D02*
X87261383Y-150702381D01*
X87261383Y-150702381D02*
X87299478Y-150626190D01*
X87299478Y-150626190D02*
X87299478Y-150397619D01*
X87299478Y-150397619D02*
X87261383Y-150321428D01*
X87261383Y-150321428D02*
X87223287Y-150283333D01*
X170646145Y-111021571D02*
X169846145Y-111021571D01*
X169846145Y-111021571D02*
X169846145Y-111212047D01*
X169846145Y-111212047D02*
X169884240Y-111326333D01*
X169884240Y-111326333D02*
X169960430Y-111402523D01*
X169960430Y-111402523D02*
X170036621Y-111440618D01*
X170036621Y-111440618D02*
X170189002Y-111478714D01*
X170189002Y-111478714D02*
X170303288Y-111478714D01*
X170303288Y-111478714D02*
X170455669Y-111440618D01*
X170455669Y-111440618D02*
X170531859Y-111402523D01*
X170531859Y-111402523D02*
X170608050Y-111326333D01*
X170608050Y-111326333D02*
X170646145Y-111212047D01*
X170646145Y-111212047D02*
X170646145Y-111021571D01*
X169846145Y-112202523D02*
X169846145Y-111821571D01*
X169846145Y-111821571D02*
X170227097Y-111783475D01*
X170227097Y-111783475D02*
X170189002Y-111821571D01*
X170189002Y-111821571D02*
X170150907Y-111897761D01*
X170150907Y-111897761D02*
X170150907Y-112088237D01*
X170150907Y-112088237D02*
X170189002Y-112164428D01*
X170189002Y-112164428D02*
X170227097Y-112202523D01*
X170227097Y-112202523D02*
X170303288Y-112240618D01*
X170303288Y-112240618D02*
X170493764Y-112240618D01*
X170493764Y-112240618D02*
X170569954Y-112202523D01*
X170569954Y-112202523D02*
X170608050Y-112164428D01*
X170608050Y-112164428D02*
X170646145Y-112088237D01*
X170646145Y-112088237D02*
X170646145Y-111897761D01*
X170646145Y-111897761D02*
X170608050Y-111821571D01*
X170608050Y-111821571D02*
X170569954Y-111783475D01*
X169846145Y-112735857D02*
X169846145Y-112812047D01*
X169846145Y-112812047D02*
X169884240Y-112888238D01*
X169884240Y-112888238D02*
X169922335Y-112926333D01*
X169922335Y-112926333D02*
X169998526Y-112964428D01*
X169998526Y-112964428D02*
X170150907Y-113002523D01*
X170150907Y-113002523D02*
X170341383Y-113002523D01*
X170341383Y-113002523D02*
X170493764Y-112964428D01*
X170493764Y-112964428D02*
X170569954Y-112926333D01*
X170569954Y-112926333D02*
X170608050Y-112888238D01*
X170608050Y-112888238D02*
X170646145Y-112812047D01*
X170646145Y-112812047D02*
X170646145Y-112735857D01*
X170646145Y-112735857D02*
X170608050Y-112659666D01*
X170608050Y-112659666D02*
X170569954Y-112621571D01*
X170569954Y-112621571D02*
X170493764Y-112583476D01*
X170493764Y-112583476D02*
X170341383Y-112545380D01*
X170341383Y-112545380D02*
X170150907Y-112545380D01*
X170150907Y-112545380D02*
X169998526Y-112583476D01*
X169998526Y-112583476D02*
X169922335Y-112621571D01*
X169922335Y-112621571D02*
X169884240Y-112659666D01*
X169884240Y-112659666D02*
X169846145Y-112735857D01*
X151596145Y-111021571D02*
X150796145Y-111021571D01*
X150796145Y-111021571D02*
X150796145Y-111212047D01*
X150796145Y-111212047D02*
X150834240Y-111326333D01*
X150834240Y-111326333D02*
X150910430Y-111402523D01*
X150910430Y-111402523D02*
X150986621Y-111440618D01*
X150986621Y-111440618D02*
X151139002Y-111478714D01*
X151139002Y-111478714D02*
X151253288Y-111478714D01*
X151253288Y-111478714D02*
X151405669Y-111440618D01*
X151405669Y-111440618D02*
X151481859Y-111402523D01*
X151481859Y-111402523D02*
X151558050Y-111326333D01*
X151558050Y-111326333D02*
X151596145Y-111212047D01*
X151596145Y-111212047D02*
X151596145Y-111021571D01*
X151062811Y-112164428D02*
X151596145Y-112164428D01*
X150758050Y-111973952D02*
X151329478Y-111783475D01*
X151329478Y-111783475D02*
X151329478Y-112278714D01*
X151596145Y-112621571D02*
X151596145Y-112773952D01*
X151596145Y-112773952D02*
X151558050Y-112850142D01*
X151558050Y-112850142D02*
X151519954Y-112888238D01*
X151519954Y-112888238D02*
X151405669Y-112964428D01*
X151405669Y-112964428D02*
X151253288Y-113002523D01*
X151253288Y-113002523D02*
X150948526Y-113002523D01*
X150948526Y-113002523D02*
X150872335Y-112964428D01*
X150872335Y-112964428D02*
X150834240Y-112926333D01*
X150834240Y-112926333D02*
X150796145Y-112850142D01*
X150796145Y-112850142D02*
X150796145Y-112697761D01*
X150796145Y-112697761D02*
X150834240Y-112621571D01*
X150834240Y-112621571D02*
X150872335Y-112583476D01*
X150872335Y-112583476D02*
X150948526Y-112545380D01*
X150948526Y-112545380D02*
X151139002Y-112545380D01*
X151139002Y-112545380D02*
X151215192Y-112583476D01*
X151215192Y-112583476D02*
X151253288Y-112621571D01*
X151253288Y-112621571D02*
X151291383Y-112697761D01*
X151291383Y-112697761D02*
X151291383Y-112850142D01*
X151291383Y-112850142D02*
X151253288Y-112926333D01*
X151253288Y-112926333D02*
X151215192Y-112964428D01*
X151215192Y-112964428D02*
X151139002Y-113002523D01*
X161133645Y-91971571D02*
X160333645Y-91971571D01*
X160333645Y-91971571D02*
X160333645Y-92162047D01*
X160333645Y-92162047D02*
X160371740Y-92276333D01*
X160371740Y-92276333D02*
X160447930Y-92352523D01*
X160447930Y-92352523D02*
X160524121Y-92390618D01*
X160524121Y-92390618D02*
X160676502Y-92428714D01*
X160676502Y-92428714D02*
X160790788Y-92428714D01*
X160790788Y-92428714D02*
X160943169Y-92390618D01*
X160943169Y-92390618D02*
X161019359Y-92352523D01*
X161019359Y-92352523D02*
X161095550Y-92276333D01*
X161095550Y-92276333D02*
X161133645Y-92162047D01*
X161133645Y-92162047D02*
X161133645Y-91971571D01*
X160333645Y-92695380D02*
X160333645Y-93190618D01*
X160333645Y-93190618D02*
X160638407Y-92923952D01*
X160638407Y-92923952D02*
X160638407Y-93038237D01*
X160638407Y-93038237D02*
X160676502Y-93114428D01*
X160676502Y-93114428D02*
X160714597Y-93152523D01*
X160714597Y-93152523D02*
X160790788Y-93190618D01*
X160790788Y-93190618D02*
X160981264Y-93190618D01*
X160981264Y-93190618D02*
X161057454Y-93152523D01*
X161057454Y-93152523D02*
X161095550Y-93114428D01*
X161095550Y-93114428D02*
X161133645Y-93038237D01*
X161133645Y-93038237D02*
X161133645Y-92809666D01*
X161133645Y-92809666D02*
X161095550Y-92733475D01*
X161095550Y-92733475D02*
X161057454Y-92695380D01*
X160333645Y-93876333D02*
X160333645Y-93723952D01*
X160333645Y-93723952D02*
X160371740Y-93647761D01*
X160371740Y-93647761D02*
X160409835Y-93609666D01*
X160409835Y-93609666D02*
X160524121Y-93533476D01*
X160524121Y-93533476D02*
X160676502Y-93495380D01*
X160676502Y-93495380D02*
X160981264Y-93495380D01*
X160981264Y-93495380D02*
X161057454Y-93533476D01*
X161057454Y-93533476D02*
X161095550Y-93571571D01*
X161095550Y-93571571D02*
X161133645Y-93647761D01*
X161133645Y-93647761D02*
X161133645Y-93800142D01*
X161133645Y-93800142D02*
X161095550Y-93876333D01*
X161095550Y-93876333D02*
X161057454Y-93914428D01*
X161057454Y-93914428D02*
X160981264Y-93952523D01*
X160981264Y-93952523D02*
X160790788Y-93952523D01*
X160790788Y-93952523D02*
X160714597Y-93914428D01*
X160714597Y-93914428D02*
X160676502Y-93876333D01*
X160676502Y-93876333D02*
X160638407Y-93800142D01*
X160638407Y-93800142D02*
X160638407Y-93647761D01*
X160638407Y-93647761D02*
X160676502Y-93571571D01*
X160676502Y-93571571D02*
X160714597Y-93533476D01*
X160714597Y-93533476D02*
X160790788Y-93495380D01*
X237333645Y-91971571D02*
X236533645Y-91971571D01*
X236533645Y-91971571D02*
X236533645Y-92162047D01*
X236533645Y-92162047D02*
X236571740Y-92276333D01*
X236571740Y-92276333D02*
X236647930Y-92352523D01*
X236647930Y-92352523D02*
X236724121Y-92390618D01*
X236724121Y-92390618D02*
X236876502Y-92428714D01*
X236876502Y-92428714D02*
X236990788Y-92428714D01*
X236990788Y-92428714D02*
X237143169Y-92390618D01*
X237143169Y-92390618D02*
X237219359Y-92352523D01*
X237219359Y-92352523D02*
X237295550Y-92276333D01*
X237295550Y-92276333D02*
X237333645Y-92162047D01*
X237333645Y-92162047D02*
X237333645Y-91971571D01*
X236800311Y-93114428D02*
X237333645Y-93114428D01*
X236495550Y-92923952D02*
X237066978Y-92733475D01*
X237066978Y-92733475D02*
X237066978Y-93228714D01*
X236533645Y-93685857D02*
X236533645Y-93762047D01*
X236533645Y-93762047D02*
X236571740Y-93838238D01*
X236571740Y-93838238D02*
X236609835Y-93876333D01*
X236609835Y-93876333D02*
X236686026Y-93914428D01*
X236686026Y-93914428D02*
X236838407Y-93952523D01*
X236838407Y-93952523D02*
X237028883Y-93952523D01*
X237028883Y-93952523D02*
X237181264Y-93914428D01*
X237181264Y-93914428D02*
X237257454Y-93876333D01*
X237257454Y-93876333D02*
X237295550Y-93838238D01*
X237295550Y-93838238D02*
X237333645Y-93762047D01*
X237333645Y-93762047D02*
X237333645Y-93685857D01*
X237333645Y-93685857D02*
X237295550Y-93609666D01*
X237295550Y-93609666D02*
X237257454Y-93571571D01*
X237257454Y-93571571D02*
X237181264Y-93533476D01*
X237181264Y-93533476D02*
X237028883Y-93495380D01*
X237028883Y-93495380D02*
X236838407Y-93495380D01*
X236838407Y-93495380D02*
X236686026Y-93533476D01*
X236686026Y-93533476D02*
X236609835Y-93571571D01*
X236609835Y-93571571D02*
X236571740Y-93609666D01*
X236571740Y-93609666D02*
X236533645Y-93685857D01*
X113496145Y-111021571D02*
X112696145Y-111021571D01*
X112696145Y-111021571D02*
X112696145Y-111212047D01*
X112696145Y-111212047D02*
X112734240Y-111326333D01*
X112734240Y-111326333D02*
X112810430Y-111402523D01*
X112810430Y-111402523D02*
X112886621Y-111440618D01*
X112886621Y-111440618D02*
X113039002Y-111478714D01*
X113039002Y-111478714D02*
X113153288Y-111478714D01*
X113153288Y-111478714D02*
X113305669Y-111440618D01*
X113305669Y-111440618D02*
X113381859Y-111402523D01*
X113381859Y-111402523D02*
X113458050Y-111326333D01*
X113458050Y-111326333D02*
X113496145Y-111212047D01*
X113496145Y-111212047D02*
X113496145Y-111021571D01*
X112962811Y-112164428D02*
X113496145Y-112164428D01*
X112658050Y-111973952D02*
X113229478Y-111783475D01*
X113229478Y-111783475D02*
X113229478Y-112278714D01*
X112696145Y-112507285D02*
X112696145Y-113040619D01*
X112696145Y-113040619D02*
X113496145Y-112697761D01*
X51596145Y-54252524D02*
X50796145Y-54252524D01*
X50796145Y-54252524D02*
X50796145Y-54443000D01*
X50796145Y-54443000D02*
X50834240Y-54557286D01*
X50834240Y-54557286D02*
X50910430Y-54633476D01*
X50910430Y-54633476D02*
X50986621Y-54671571D01*
X50986621Y-54671571D02*
X51139002Y-54709667D01*
X51139002Y-54709667D02*
X51253288Y-54709667D01*
X51253288Y-54709667D02*
X51405669Y-54671571D01*
X51405669Y-54671571D02*
X51481859Y-54633476D01*
X51481859Y-54633476D02*
X51558050Y-54557286D01*
X51558050Y-54557286D02*
X51596145Y-54443000D01*
X51596145Y-54443000D02*
X51596145Y-54252524D01*
X50796145Y-54976333D02*
X50796145Y-55471571D01*
X50796145Y-55471571D02*
X51100907Y-55204905D01*
X51100907Y-55204905D02*
X51100907Y-55319190D01*
X51100907Y-55319190D02*
X51139002Y-55395381D01*
X51139002Y-55395381D02*
X51177097Y-55433476D01*
X51177097Y-55433476D02*
X51253288Y-55471571D01*
X51253288Y-55471571D02*
X51443764Y-55471571D01*
X51443764Y-55471571D02*
X51519954Y-55433476D01*
X51519954Y-55433476D02*
X51558050Y-55395381D01*
X51558050Y-55395381D02*
X51596145Y-55319190D01*
X51596145Y-55319190D02*
X51596145Y-55090619D01*
X51596145Y-55090619D02*
X51558050Y-55014428D01*
X51558050Y-55014428D02*
X51519954Y-54976333D01*
X280196145Y-130151571D02*
X279396145Y-130151571D01*
X279396145Y-130151571D02*
X279396145Y-130342047D01*
X279396145Y-130342047D02*
X279434240Y-130456333D01*
X279434240Y-130456333D02*
X279510430Y-130532523D01*
X279510430Y-130532523D02*
X279586621Y-130570618D01*
X279586621Y-130570618D02*
X279739002Y-130608714D01*
X279739002Y-130608714D02*
X279853288Y-130608714D01*
X279853288Y-130608714D02*
X280005669Y-130570618D01*
X280005669Y-130570618D02*
X280081859Y-130532523D01*
X280081859Y-130532523D02*
X280158050Y-130456333D01*
X280158050Y-130456333D02*
X280196145Y-130342047D01*
X280196145Y-130342047D02*
X280196145Y-130151571D01*
X279396145Y-131294428D02*
X279396145Y-131142047D01*
X279396145Y-131142047D02*
X279434240Y-131065856D01*
X279434240Y-131065856D02*
X279472335Y-131027761D01*
X279472335Y-131027761D02*
X279586621Y-130951571D01*
X279586621Y-130951571D02*
X279739002Y-130913475D01*
X279739002Y-130913475D02*
X280043764Y-130913475D01*
X280043764Y-130913475D02*
X280119954Y-130951571D01*
X280119954Y-130951571D02*
X280158050Y-130989666D01*
X280158050Y-130989666D02*
X280196145Y-131065856D01*
X280196145Y-131065856D02*
X280196145Y-131218237D01*
X280196145Y-131218237D02*
X280158050Y-131294428D01*
X280158050Y-131294428D02*
X280119954Y-131332523D01*
X280119954Y-131332523D02*
X280043764Y-131370618D01*
X280043764Y-131370618D02*
X279853288Y-131370618D01*
X279853288Y-131370618D02*
X279777097Y-131332523D01*
X279777097Y-131332523D02*
X279739002Y-131294428D01*
X279739002Y-131294428D02*
X279700907Y-131218237D01*
X279700907Y-131218237D02*
X279700907Y-131065856D01*
X279700907Y-131065856D02*
X279739002Y-130989666D01*
X279739002Y-130989666D02*
X279777097Y-130951571D01*
X279777097Y-130951571D02*
X279853288Y-130913475D01*
X279396145Y-132094428D02*
X279396145Y-131713476D01*
X279396145Y-131713476D02*
X279777097Y-131675380D01*
X279777097Y-131675380D02*
X279739002Y-131713476D01*
X279739002Y-131713476D02*
X279700907Y-131789666D01*
X279700907Y-131789666D02*
X279700907Y-131980142D01*
X279700907Y-131980142D02*
X279739002Y-132056333D01*
X279739002Y-132056333D02*
X279777097Y-132094428D01*
X279777097Y-132094428D02*
X279853288Y-132132523D01*
X279853288Y-132132523D02*
X280043764Y-132132523D01*
X280043764Y-132132523D02*
X280119954Y-132094428D01*
X280119954Y-132094428D02*
X280158050Y-132056333D01*
X280158050Y-132056333D02*
X280196145Y-131980142D01*
X280196145Y-131980142D02*
X280196145Y-131789666D01*
X280196145Y-131789666D02*
X280158050Y-131713476D01*
X280158050Y-131713476D02*
X280119954Y-131675380D01*
X127796145Y-54252524D02*
X126996145Y-54252524D01*
X126996145Y-54252524D02*
X126996145Y-54443000D01*
X126996145Y-54443000D02*
X127034240Y-54557286D01*
X127034240Y-54557286D02*
X127110430Y-54633476D01*
X127110430Y-54633476D02*
X127186621Y-54671571D01*
X127186621Y-54671571D02*
X127339002Y-54709667D01*
X127339002Y-54709667D02*
X127453288Y-54709667D01*
X127453288Y-54709667D02*
X127605669Y-54671571D01*
X127605669Y-54671571D02*
X127681859Y-54633476D01*
X127681859Y-54633476D02*
X127758050Y-54557286D01*
X127758050Y-54557286D02*
X127796145Y-54443000D01*
X127796145Y-54443000D02*
X127796145Y-54252524D01*
X126996145Y-54976333D02*
X126996145Y-55509667D01*
X126996145Y-55509667D02*
X127796145Y-55166809D01*
X34927395Y-130151571D02*
X34127395Y-130151571D01*
X34127395Y-130151571D02*
X34127395Y-130342047D01*
X34127395Y-130342047D02*
X34165490Y-130456333D01*
X34165490Y-130456333D02*
X34241680Y-130532523D01*
X34241680Y-130532523D02*
X34317871Y-130570618D01*
X34317871Y-130570618D02*
X34470252Y-130608714D01*
X34470252Y-130608714D02*
X34584538Y-130608714D01*
X34584538Y-130608714D02*
X34736919Y-130570618D01*
X34736919Y-130570618D02*
X34813109Y-130532523D01*
X34813109Y-130532523D02*
X34889300Y-130456333D01*
X34889300Y-130456333D02*
X34927395Y-130342047D01*
X34927395Y-130342047D02*
X34927395Y-130151571D01*
X34127395Y-131332523D02*
X34127395Y-130951571D01*
X34127395Y-130951571D02*
X34508347Y-130913475D01*
X34508347Y-130913475D02*
X34470252Y-130951571D01*
X34470252Y-130951571D02*
X34432157Y-131027761D01*
X34432157Y-131027761D02*
X34432157Y-131218237D01*
X34432157Y-131218237D02*
X34470252Y-131294428D01*
X34470252Y-131294428D02*
X34508347Y-131332523D01*
X34508347Y-131332523D02*
X34584538Y-131370618D01*
X34584538Y-131370618D02*
X34775014Y-131370618D01*
X34775014Y-131370618D02*
X34851204Y-131332523D01*
X34851204Y-131332523D02*
X34889300Y-131294428D01*
X34889300Y-131294428D02*
X34927395Y-131218237D01*
X34927395Y-131218237D02*
X34927395Y-131027761D01*
X34927395Y-131027761D02*
X34889300Y-130951571D01*
X34889300Y-130951571D02*
X34851204Y-130913475D01*
X34470252Y-131827761D02*
X34432157Y-131751571D01*
X34432157Y-131751571D02*
X34394061Y-131713476D01*
X34394061Y-131713476D02*
X34317871Y-131675380D01*
X34317871Y-131675380D02*
X34279776Y-131675380D01*
X34279776Y-131675380D02*
X34203585Y-131713476D01*
X34203585Y-131713476D02*
X34165490Y-131751571D01*
X34165490Y-131751571D02*
X34127395Y-131827761D01*
X34127395Y-131827761D02*
X34127395Y-131980142D01*
X34127395Y-131980142D02*
X34165490Y-132056333D01*
X34165490Y-132056333D02*
X34203585Y-132094428D01*
X34203585Y-132094428D02*
X34279776Y-132132523D01*
X34279776Y-132132523D02*
X34317871Y-132132523D01*
X34317871Y-132132523D02*
X34394061Y-132094428D01*
X34394061Y-132094428D02*
X34432157Y-132056333D01*
X34432157Y-132056333D02*
X34470252Y-131980142D01*
X34470252Y-131980142D02*
X34470252Y-131827761D01*
X34470252Y-131827761D02*
X34508347Y-131751571D01*
X34508347Y-131751571D02*
X34546442Y-131713476D01*
X34546442Y-131713476D02*
X34622633Y-131675380D01*
X34622633Y-131675380D02*
X34775014Y-131675380D01*
X34775014Y-131675380D02*
X34851204Y-131713476D01*
X34851204Y-131713476D02*
X34889300Y-131751571D01*
X34889300Y-131751571D02*
X34927395Y-131827761D01*
X34927395Y-131827761D02*
X34927395Y-131980142D01*
X34927395Y-131980142D02*
X34889300Y-132056333D01*
X34889300Y-132056333D02*
X34851204Y-132094428D01*
X34851204Y-132094428D02*
X34775014Y-132132523D01*
X34775014Y-132132523D02*
X34622633Y-132132523D01*
X34622633Y-132132523D02*
X34546442Y-132094428D01*
X34546442Y-132094428D02*
X34508347Y-132056333D01*
X34508347Y-132056333D02*
X34470252Y-131980142D01*
X261146145Y-53871571D02*
X260346145Y-53871571D01*
X260346145Y-53871571D02*
X260346145Y-54062047D01*
X260346145Y-54062047D02*
X260384240Y-54176333D01*
X260384240Y-54176333D02*
X260460430Y-54252523D01*
X260460430Y-54252523D02*
X260536621Y-54290618D01*
X260536621Y-54290618D02*
X260689002Y-54328714D01*
X260689002Y-54328714D02*
X260803288Y-54328714D01*
X260803288Y-54328714D02*
X260955669Y-54290618D01*
X260955669Y-54290618D02*
X261031859Y-54252523D01*
X261031859Y-54252523D02*
X261108050Y-54176333D01*
X261108050Y-54176333D02*
X261146145Y-54062047D01*
X261146145Y-54062047D02*
X261146145Y-53871571D01*
X261146145Y-55090618D02*
X261146145Y-54633475D01*
X261146145Y-54862047D02*
X260346145Y-54862047D01*
X260346145Y-54862047D02*
X260460430Y-54785856D01*
X260460430Y-54785856D02*
X260536621Y-54709666D01*
X260536621Y-54709666D02*
X260574716Y-54633475D01*
X260612811Y-55776333D02*
X261146145Y-55776333D01*
X260308050Y-55585857D02*
X260879478Y-55395380D01*
X260879478Y-55395380D02*
X260879478Y-55890619D01*
X242096145Y-130151571D02*
X241296145Y-130151571D01*
X241296145Y-130151571D02*
X241296145Y-130342047D01*
X241296145Y-130342047D02*
X241334240Y-130456333D01*
X241334240Y-130456333D02*
X241410430Y-130532523D01*
X241410430Y-130532523D02*
X241486621Y-130570618D01*
X241486621Y-130570618D02*
X241639002Y-130608714D01*
X241639002Y-130608714D02*
X241753288Y-130608714D01*
X241753288Y-130608714D02*
X241905669Y-130570618D01*
X241905669Y-130570618D02*
X241981859Y-130532523D01*
X241981859Y-130532523D02*
X242058050Y-130456333D01*
X242058050Y-130456333D02*
X242096145Y-130342047D01*
X242096145Y-130342047D02*
X242096145Y-130151571D01*
X241296145Y-131294428D02*
X241296145Y-131142047D01*
X241296145Y-131142047D02*
X241334240Y-131065856D01*
X241334240Y-131065856D02*
X241372335Y-131027761D01*
X241372335Y-131027761D02*
X241486621Y-130951571D01*
X241486621Y-130951571D02*
X241639002Y-130913475D01*
X241639002Y-130913475D02*
X241943764Y-130913475D01*
X241943764Y-130913475D02*
X242019954Y-130951571D01*
X242019954Y-130951571D02*
X242058050Y-130989666D01*
X242058050Y-130989666D02*
X242096145Y-131065856D01*
X242096145Y-131065856D02*
X242096145Y-131218237D01*
X242096145Y-131218237D02*
X242058050Y-131294428D01*
X242058050Y-131294428D02*
X242019954Y-131332523D01*
X242019954Y-131332523D02*
X241943764Y-131370618D01*
X241943764Y-131370618D02*
X241753288Y-131370618D01*
X241753288Y-131370618D02*
X241677097Y-131332523D01*
X241677097Y-131332523D02*
X241639002Y-131294428D01*
X241639002Y-131294428D02*
X241600907Y-131218237D01*
X241600907Y-131218237D02*
X241600907Y-131065856D01*
X241600907Y-131065856D02*
X241639002Y-130989666D01*
X241639002Y-130989666D02*
X241677097Y-130951571D01*
X241677097Y-130951571D02*
X241753288Y-130913475D01*
X241296145Y-131637285D02*
X241296145Y-132132523D01*
X241296145Y-132132523D02*
X241600907Y-131865857D01*
X241600907Y-131865857D02*
X241600907Y-131980142D01*
X241600907Y-131980142D02*
X241639002Y-132056333D01*
X241639002Y-132056333D02*
X241677097Y-132094428D01*
X241677097Y-132094428D02*
X241753288Y-132132523D01*
X241753288Y-132132523D02*
X241943764Y-132132523D01*
X241943764Y-132132523D02*
X242019954Y-132094428D01*
X242019954Y-132094428D02*
X242058050Y-132056333D01*
X242058050Y-132056333D02*
X242096145Y-131980142D01*
X242096145Y-131980142D02*
X242096145Y-131751571D01*
X242096145Y-131751571D02*
X242058050Y-131675380D01*
X242058050Y-131675380D02*
X242019954Y-131637285D01*
X287339895Y-91971571D02*
X286539895Y-91971571D01*
X286539895Y-91971571D02*
X286539895Y-92162047D01*
X286539895Y-92162047D02*
X286577990Y-92276333D01*
X286577990Y-92276333D02*
X286654180Y-92352523D01*
X286654180Y-92352523D02*
X286730371Y-92390618D01*
X286730371Y-92390618D02*
X286882752Y-92428714D01*
X286882752Y-92428714D02*
X286997038Y-92428714D01*
X286997038Y-92428714D02*
X287149419Y-92390618D01*
X287149419Y-92390618D02*
X287225609Y-92352523D01*
X287225609Y-92352523D02*
X287301800Y-92276333D01*
X287301800Y-92276333D02*
X287339895Y-92162047D01*
X287339895Y-92162047D02*
X287339895Y-91971571D01*
X286539895Y-93152523D02*
X286539895Y-92771571D01*
X286539895Y-92771571D02*
X286920847Y-92733475D01*
X286920847Y-92733475D02*
X286882752Y-92771571D01*
X286882752Y-92771571D02*
X286844657Y-92847761D01*
X286844657Y-92847761D02*
X286844657Y-93038237D01*
X286844657Y-93038237D02*
X286882752Y-93114428D01*
X286882752Y-93114428D02*
X286920847Y-93152523D01*
X286920847Y-93152523D02*
X286997038Y-93190618D01*
X286997038Y-93190618D02*
X287187514Y-93190618D01*
X287187514Y-93190618D02*
X287263704Y-93152523D01*
X287263704Y-93152523D02*
X287301800Y-93114428D01*
X287301800Y-93114428D02*
X287339895Y-93038237D01*
X287339895Y-93038237D02*
X287339895Y-92847761D01*
X287339895Y-92847761D02*
X287301800Y-92771571D01*
X287301800Y-92771571D02*
X287263704Y-92733475D01*
X286539895Y-93876333D02*
X286539895Y-93723952D01*
X286539895Y-93723952D02*
X286577990Y-93647761D01*
X286577990Y-93647761D02*
X286616085Y-93609666D01*
X286616085Y-93609666D02*
X286730371Y-93533476D01*
X286730371Y-93533476D02*
X286882752Y-93495380D01*
X286882752Y-93495380D02*
X287187514Y-93495380D01*
X287187514Y-93495380D02*
X287263704Y-93533476D01*
X287263704Y-93533476D02*
X287301800Y-93571571D01*
X287301800Y-93571571D02*
X287339895Y-93647761D01*
X287339895Y-93647761D02*
X287339895Y-93800142D01*
X287339895Y-93800142D02*
X287301800Y-93876333D01*
X287301800Y-93876333D02*
X287263704Y-93914428D01*
X287263704Y-93914428D02*
X287187514Y-93952523D01*
X287187514Y-93952523D02*
X286997038Y-93952523D01*
X286997038Y-93952523D02*
X286920847Y-93914428D01*
X286920847Y-93914428D02*
X286882752Y-93876333D01*
X286882752Y-93876333D02*
X286844657Y-93800142D01*
X286844657Y-93800142D02*
X286844657Y-93647761D01*
X286844657Y-93647761D02*
X286882752Y-93571571D01*
X286882752Y-93571571D02*
X286920847Y-93533476D01*
X286920847Y-93533476D02*
X286997038Y-93495380D01*
X289688645Y-53871571D02*
X288888645Y-53871571D01*
X288888645Y-53871571D02*
X288888645Y-54062047D01*
X288888645Y-54062047D02*
X288926740Y-54176333D01*
X288926740Y-54176333D02*
X289002930Y-54252523D01*
X289002930Y-54252523D02*
X289079121Y-54290618D01*
X289079121Y-54290618D02*
X289231502Y-54328714D01*
X289231502Y-54328714D02*
X289345788Y-54328714D01*
X289345788Y-54328714D02*
X289498169Y-54290618D01*
X289498169Y-54290618D02*
X289574359Y-54252523D01*
X289574359Y-54252523D02*
X289650550Y-54176333D01*
X289650550Y-54176333D02*
X289688645Y-54062047D01*
X289688645Y-54062047D02*
X289688645Y-53871571D01*
X289155311Y-55014428D02*
X289688645Y-55014428D01*
X288850550Y-54823952D02*
X289421978Y-54633475D01*
X289421978Y-54633475D02*
X289421978Y-55128714D01*
X288964835Y-55395380D02*
X288926740Y-55433476D01*
X288926740Y-55433476D02*
X288888645Y-55509666D01*
X288888645Y-55509666D02*
X288888645Y-55700142D01*
X288888645Y-55700142D02*
X288926740Y-55776333D01*
X288926740Y-55776333D02*
X288964835Y-55814428D01*
X288964835Y-55814428D02*
X289041026Y-55852523D01*
X289041026Y-55852523D02*
X289117216Y-55852523D01*
X289117216Y-55852523D02*
X289231502Y-55814428D01*
X289231502Y-55814428D02*
X289688645Y-55357285D01*
X289688645Y-55357285D02*
X289688645Y-55852523D01*
D11*
X132154196Y-148593819D02*
X132154196Y-149403342D01*
X132154196Y-149403342D02*
X132106577Y-149498580D01*
X132106577Y-149498580D02*
X132058958Y-149546200D01*
X132058958Y-149546200D02*
X131963720Y-149593819D01*
X131963720Y-149593819D02*
X131773244Y-149593819D01*
X131773244Y-149593819D02*
X131678006Y-149546200D01*
X131678006Y-149546200D02*
X131630387Y-149498580D01*
X131630387Y-149498580D02*
X131582768Y-149403342D01*
X131582768Y-149403342D02*
X131582768Y-148593819D01*
X131154196Y-148689057D02*
X131106577Y-148641438D01*
X131106577Y-148641438D02*
X131011339Y-148593819D01*
X131011339Y-148593819D02*
X130773244Y-148593819D01*
X130773244Y-148593819D02*
X130678006Y-148641438D01*
X130678006Y-148641438D02*
X130630387Y-148689057D01*
X130630387Y-148689057D02*
X130582768Y-148784295D01*
X130582768Y-148784295D02*
X130582768Y-148879533D01*
X130582768Y-148879533D02*
X130630387Y-149022390D01*
X130630387Y-149022390D02*
X131201815Y-149593819D01*
X131201815Y-149593819D02*
X130582768Y-149593819D01*
X134511339Y-150625819D02*
X133844673Y-150625819D01*
X133844673Y-150625819D02*
X134273244Y-151625819D01*
X133035149Y-150959152D02*
X133035149Y-151625819D01*
X133273244Y-150578200D02*
X133511339Y-151292485D01*
X133511339Y-151292485D02*
X132892292Y-151292485D01*
X132035149Y-151625819D02*
X132511339Y-151625819D01*
X132511339Y-151625819D02*
X132511339Y-150625819D01*
X131749434Y-151578200D02*
X131606577Y-151625819D01*
X131606577Y-151625819D02*
X131368482Y-151625819D01*
X131368482Y-151625819D02*
X131273244Y-151578200D01*
X131273244Y-151578200D02*
X131225625Y-151530580D01*
X131225625Y-151530580D02*
X131178006Y-151435342D01*
X131178006Y-151435342D02*
X131178006Y-151340104D01*
X131178006Y-151340104D02*
X131225625Y-151244866D01*
X131225625Y-151244866D02*
X131273244Y-151197247D01*
X131273244Y-151197247D02*
X131368482Y-151149628D01*
X131368482Y-151149628D02*
X131558958Y-151102009D01*
X131558958Y-151102009D02*
X131654196Y-151054390D01*
X131654196Y-151054390D02*
X131701815Y-151006771D01*
X131701815Y-151006771D02*
X131749434Y-150911533D01*
X131749434Y-150911533D02*
X131749434Y-150816295D01*
X131749434Y-150816295D02*
X131701815Y-150721057D01*
X131701815Y-150721057D02*
X131654196Y-150673438D01*
X131654196Y-150673438D02*
X131558958Y-150625819D01*
X131558958Y-150625819D02*
X131320863Y-150625819D01*
X131320863Y-150625819D02*
X131178006Y-150673438D01*
X130225625Y-151625819D02*
X130797053Y-151625819D01*
X130511339Y-151625819D02*
X130511339Y-150625819D01*
X130511339Y-150625819D02*
X130606577Y-150768676D01*
X130606577Y-150768676D02*
X130701815Y-150863914D01*
X130701815Y-150863914D02*
X130797053Y-150911533D01*
X129368482Y-150625819D02*
X129558958Y-150625819D01*
X129558958Y-150625819D02*
X129654196Y-150673438D01*
X129654196Y-150673438D02*
X129701815Y-150721057D01*
X129701815Y-150721057D02*
X129797053Y-150863914D01*
X129797053Y-150863914D02*
X129844672Y-151054390D01*
X129844672Y-151054390D02*
X129844672Y-151435342D01*
X129844672Y-151435342D02*
X129797053Y-151530580D01*
X129797053Y-151530580D02*
X129749434Y-151578200D01*
X129749434Y-151578200D02*
X129654196Y-151625819D01*
X129654196Y-151625819D02*
X129463720Y-151625819D01*
X129463720Y-151625819D02*
X129368482Y-151578200D01*
X129368482Y-151578200D02*
X129320863Y-151530580D01*
X129320863Y-151530580D02*
X129273244Y-151435342D01*
X129273244Y-151435342D02*
X129273244Y-151197247D01*
X129273244Y-151197247D02*
X129320863Y-151102009D01*
X129320863Y-151102009D02*
X129368482Y-151054390D01*
X129368482Y-151054390D02*
X129463720Y-151006771D01*
X129463720Y-151006771D02*
X129654196Y-151006771D01*
X129654196Y-151006771D02*
X129749434Y-151054390D01*
X129749434Y-151054390D02*
X129797053Y-151102009D01*
X129797053Y-151102009D02*
X129844672Y-151197247D01*
X128368482Y-150625819D02*
X128844672Y-150625819D01*
X128844672Y-150625819D02*
X128892291Y-151102009D01*
X128892291Y-151102009D02*
X128844672Y-151054390D01*
X128844672Y-151054390D02*
X128749434Y-151006771D01*
X128749434Y-151006771D02*
X128511339Y-151006771D01*
X128511339Y-151006771D02*
X128416101Y-151054390D01*
X128416101Y-151054390D02*
X128368482Y-151102009D01*
X128368482Y-151102009D02*
X128320863Y-151197247D01*
X128320863Y-151197247D02*
X128320863Y-151435342D01*
X128320863Y-151435342D02*
X128368482Y-151530580D01*
X128368482Y-151530580D02*
X128416101Y-151578200D01*
X128416101Y-151578200D02*
X128511339Y-151625819D01*
X128511339Y-151625819D02*
X128749434Y-151625819D01*
X128749434Y-151625819D02*
X128844672Y-151578200D01*
X128844672Y-151578200D02*
X128892291Y-151530580D01*
X132082768Y-145299819D02*
X132416101Y-144823628D01*
X132654196Y-145299819D02*
X132654196Y-144299819D01*
X132654196Y-144299819D02*
X132273244Y-144299819D01*
X132273244Y-144299819D02*
X132178006Y-144347438D01*
X132178006Y-144347438D02*
X132130387Y-144395057D01*
X132130387Y-144395057D02*
X132082768Y-144490295D01*
X132082768Y-144490295D02*
X132082768Y-144633152D01*
X132082768Y-144633152D02*
X132130387Y-144728390D01*
X132130387Y-144728390D02*
X132178006Y-144776009D01*
X132178006Y-144776009D02*
X132273244Y-144823628D01*
X132273244Y-144823628D02*
X132654196Y-144823628D01*
X131654196Y-145299819D02*
X131654196Y-144299819D01*
X131654196Y-144299819D02*
X131082768Y-145299819D01*
X131082768Y-145299819D02*
X131082768Y-144299819D01*
X130654196Y-144395057D02*
X130606577Y-144347438D01*
X130606577Y-144347438D02*
X130511339Y-144299819D01*
X130511339Y-144299819D02*
X130273244Y-144299819D01*
X130273244Y-144299819D02*
X130178006Y-144347438D01*
X130178006Y-144347438D02*
X130130387Y-144395057D01*
X130130387Y-144395057D02*
X130082768Y-144490295D01*
X130082768Y-144490295D02*
X130082768Y-144585533D01*
X130082768Y-144585533D02*
X130130387Y-144728390D01*
X130130387Y-144728390D02*
X130701815Y-145299819D01*
X130701815Y-145299819D02*
X130082768Y-145299819D01*
D10*
X280196145Y-149251571D02*
X279396145Y-149251571D01*
X279396145Y-149251571D02*
X279396145Y-149442047D01*
X279396145Y-149442047D02*
X279434240Y-149556333D01*
X279434240Y-149556333D02*
X279510430Y-149632523D01*
X279510430Y-149632523D02*
X279586621Y-149670618D01*
X279586621Y-149670618D02*
X279739002Y-149708714D01*
X279739002Y-149708714D02*
X279853288Y-149708714D01*
X279853288Y-149708714D02*
X280005669Y-149670618D01*
X280005669Y-149670618D02*
X280081859Y-149632523D01*
X280081859Y-149632523D02*
X280158050Y-149556333D01*
X280158050Y-149556333D02*
X280196145Y-149442047D01*
X280196145Y-149442047D02*
X280196145Y-149251571D01*
X279396145Y-150394428D02*
X279396145Y-150242047D01*
X279396145Y-150242047D02*
X279434240Y-150165856D01*
X279434240Y-150165856D02*
X279472335Y-150127761D01*
X279472335Y-150127761D02*
X279586621Y-150051571D01*
X279586621Y-150051571D02*
X279739002Y-150013475D01*
X279739002Y-150013475D02*
X280043764Y-150013475D01*
X280043764Y-150013475D02*
X280119954Y-150051571D01*
X280119954Y-150051571D02*
X280158050Y-150089666D01*
X280158050Y-150089666D02*
X280196145Y-150165856D01*
X280196145Y-150165856D02*
X280196145Y-150318237D01*
X280196145Y-150318237D02*
X280158050Y-150394428D01*
X280158050Y-150394428D02*
X280119954Y-150432523D01*
X280119954Y-150432523D02*
X280043764Y-150470618D01*
X280043764Y-150470618D02*
X279853288Y-150470618D01*
X279853288Y-150470618D02*
X279777097Y-150432523D01*
X279777097Y-150432523D02*
X279739002Y-150394428D01*
X279739002Y-150394428D02*
X279700907Y-150318237D01*
X279700907Y-150318237D02*
X279700907Y-150165856D01*
X279700907Y-150165856D02*
X279739002Y-150089666D01*
X279739002Y-150089666D02*
X279777097Y-150051571D01*
X279777097Y-150051571D02*
X279853288Y-150013475D01*
X279396145Y-150737285D02*
X279396145Y-151270619D01*
X279396145Y-151270619D02*
X280196145Y-150927761D01*
X146846145Y-54252524D02*
X146046145Y-54252524D01*
X146046145Y-54252524D02*
X146046145Y-54443000D01*
X146046145Y-54443000D02*
X146084240Y-54557286D01*
X146084240Y-54557286D02*
X146160430Y-54633476D01*
X146160430Y-54633476D02*
X146236621Y-54671571D01*
X146236621Y-54671571D02*
X146389002Y-54709667D01*
X146389002Y-54709667D02*
X146503288Y-54709667D01*
X146503288Y-54709667D02*
X146655669Y-54671571D01*
X146655669Y-54671571D02*
X146731859Y-54633476D01*
X146731859Y-54633476D02*
X146808050Y-54557286D01*
X146808050Y-54557286D02*
X146846145Y-54443000D01*
X146846145Y-54443000D02*
X146846145Y-54252524D01*
X146389002Y-55166809D02*
X146350907Y-55090619D01*
X146350907Y-55090619D02*
X146312811Y-55052524D01*
X146312811Y-55052524D02*
X146236621Y-55014428D01*
X146236621Y-55014428D02*
X146198526Y-55014428D01*
X146198526Y-55014428D02*
X146122335Y-55052524D01*
X146122335Y-55052524D02*
X146084240Y-55090619D01*
X146084240Y-55090619D02*
X146046145Y-55166809D01*
X146046145Y-55166809D02*
X146046145Y-55319190D01*
X146046145Y-55319190D02*
X146084240Y-55395381D01*
X146084240Y-55395381D02*
X146122335Y-55433476D01*
X146122335Y-55433476D02*
X146198526Y-55471571D01*
X146198526Y-55471571D02*
X146236621Y-55471571D01*
X146236621Y-55471571D02*
X146312811Y-55433476D01*
X146312811Y-55433476D02*
X146350907Y-55395381D01*
X146350907Y-55395381D02*
X146389002Y-55319190D01*
X146389002Y-55319190D02*
X146389002Y-55166809D01*
X146389002Y-55166809D02*
X146427097Y-55090619D01*
X146427097Y-55090619D02*
X146465192Y-55052524D01*
X146465192Y-55052524D02*
X146541383Y-55014428D01*
X146541383Y-55014428D02*
X146693764Y-55014428D01*
X146693764Y-55014428D02*
X146769954Y-55052524D01*
X146769954Y-55052524D02*
X146808050Y-55090619D01*
X146808050Y-55090619D02*
X146846145Y-55166809D01*
X146846145Y-55166809D02*
X146846145Y-55319190D01*
X146846145Y-55319190D02*
X146808050Y-55395381D01*
X146808050Y-55395381D02*
X146769954Y-55433476D01*
X146769954Y-55433476D02*
X146693764Y-55471571D01*
X146693764Y-55471571D02*
X146541383Y-55471571D01*
X146541383Y-55471571D02*
X146465192Y-55433476D01*
X146465192Y-55433476D02*
X146427097Y-55395381D01*
X146427097Y-55395381D02*
X146389002Y-55319190D01*
X65883645Y-91971571D02*
X65083645Y-91971571D01*
X65083645Y-91971571D02*
X65083645Y-92162047D01*
X65083645Y-92162047D02*
X65121740Y-92276333D01*
X65121740Y-92276333D02*
X65197930Y-92352523D01*
X65197930Y-92352523D02*
X65274121Y-92390618D01*
X65274121Y-92390618D02*
X65426502Y-92428714D01*
X65426502Y-92428714D02*
X65540788Y-92428714D01*
X65540788Y-92428714D02*
X65693169Y-92390618D01*
X65693169Y-92390618D02*
X65769359Y-92352523D01*
X65769359Y-92352523D02*
X65845550Y-92276333D01*
X65845550Y-92276333D02*
X65883645Y-92162047D01*
X65883645Y-92162047D02*
X65883645Y-91971571D01*
X65083645Y-92695380D02*
X65083645Y-93190618D01*
X65083645Y-93190618D02*
X65388407Y-92923952D01*
X65388407Y-92923952D02*
X65388407Y-93038237D01*
X65388407Y-93038237D02*
X65426502Y-93114428D01*
X65426502Y-93114428D02*
X65464597Y-93152523D01*
X65464597Y-93152523D02*
X65540788Y-93190618D01*
X65540788Y-93190618D02*
X65731264Y-93190618D01*
X65731264Y-93190618D02*
X65807454Y-93152523D01*
X65807454Y-93152523D02*
X65845550Y-93114428D01*
X65845550Y-93114428D02*
X65883645Y-93038237D01*
X65883645Y-93038237D02*
X65883645Y-92809666D01*
X65883645Y-92809666D02*
X65845550Y-92733475D01*
X65845550Y-92733475D02*
X65807454Y-92695380D01*
X65883645Y-93952523D02*
X65883645Y-93495380D01*
X65883645Y-93723952D02*
X65083645Y-93723952D01*
X65083645Y-93723952D02*
X65197930Y-93647761D01*
X65197930Y-93647761D02*
X65274121Y-93571571D01*
X65274121Y-93571571D02*
X65312216Y-93495380D01*
X84933645Y-91971571D02*
X84133645Y-91971571D01*
X84133645Y-91971571D02*
X84133645Y-92162047D01*
X84133645Y-92162047D02*
X84171740Y-92276333D01*
X84171740Y-92276333D02*
X84247930Y-92352523D01*
X84247930Y-92352523D02*
X84324121Y-92390618D01*
X84324121Y-92390618D02*
X84476502Y-92428714D01*
X84476502Y-92428714D02*
X84590788Y-92428714D01*
X84590788Y-92428714D02*
X84743169Y-92390618D01*
X84743169Y-92390618D02*
X84819359Y-92352523D01*
X84819359Y-92352523D02*
X84895550Y-92276333D01*
X84895550Y-92276333D02*
X84933645Y-92162047D01*
X84933645Y-92162047D02*
X84933645Y-91971571D01*
X84133645Y-92695380D02*
X84133645Y-93190618D01*
X84133645Y-93190618D02*
X84438407Y-92923952D01*
X84438407Y-92923952D02*
X84438407Y-93038237D01*
X84438407Y-93038237D02*
X84476502Y-93114428D01*
X84476502Y-93114428D02*
X84514597Y-93152523D01*
X84514597Y-93152523D02*
X84590788Y-93190618D01*
X84590788Y-93190618D02*
X84781264Y-93190618D01*
X84781264Y-93190618D02*
X84857454Y-93152523D01*
X84857454Y-93152523D02*
X84895550Y-93114428D01*
X84895550Y-93114428D02*
X84933645Y-93038237D01*
X84933645Y-93038237D02*
X84933645Y-92809666D01*
X84933645Y-92809666D02*
X84895550Y-92733475D01*
X84895550Y-92733475D02*
X84857454Y-92695380D01*
X84209835Y-93495380D02*
X84171740Y-93533476D01*
X84171740Y-93533476D02*
X84133645Y-93609666D01*
X84133645Y-93609666D02*
X84133645Y-93800142D01*
X84133645Y-93800142D02*
X84171740Y-93876333D01*
X84171740Y-93876333D02*
X84209835Y-93914428D01*
X84209835Y-93914428D02*
X84286026Y-93952523D01*
X84286026Y-93952523D02*
X84362216Y-93952523D01*
X84362216Y-93952523D02*
X84476502Y-93914428D01*
X84476502Y-93914428D02*
X84933645Y-93457285D01*
X84933645Y-93457285D02*
X84933645Y-93952523D01*
X213488645Y-72921571D02*
X212688645Y-72921571D01*
X212688645Y-72921571D02*
X212688645Y-73112047D01*
X212688645Y-73112047D02*
X212726740Y-73226333D01*
X212726740Y-73226333D02*
X212802930Y-73302523D01*
X212802930Y-73302523D02*
X212879121Y-73340618D01*
X212879121Y-73340618D02*
X213031502Y-73378714D01*
X213031502Y-73378714D02*
X213145788Y-73378714D01*
X213145788Y-73378714D02*
X213298169Y-73340618D01*
X213298169Y-73340618D02*
X213374359Y-73302523D01*
X213374359Y-73302523D02*
X213450550Y-73226333D01*
X213450550Y-73226333D02*
X213488645Y-73112047D01*
X213488645Y-73112047D02*
X213488645Y-72921571D01*
X212764835Y-73683475D02*
X212726740Y-73721571D01*
X212726740Y-73721571D02*
X212688645Y-73797761D01*
X212688645Y-73797761D02*
X212688645Y-73988237D01*
X212688645Y-73988237D02*
X212726740Y-74064428D01*
X212726740Y-74064428D02*
X212764835Y-74102523D01*
X212764835Y-74102523D02*
X212841026Y-74140618D01*
X212841026Y-74140618D02*
X212917216Y-74140618D01*
X212917216Y-74140618D02*
X213031502Y-74102523D01*
X213031502Y-74102523D02*
X213488645Y-73645380D01*
X213488645Y-73645380D02*
X213488645Y-74140618D01*
X212688645Y-74864428D02*
X212688645Y-74483476D01*
X212688645Y-74483476D02*
X213069597Y-74445380D01*
X213069597Y-74445380D02*
X213031502Y-74483476D01*
X213031502Y-74483476D02*
X212993407Y-74559666D01*
X212993407Y-74559666D02*
X212993407Y-74750142D01*
X212993407Y-74750142D02*
X213031502Y-74826333D01*
X213031502Y-74826333D02*
X213069597Y-74864428D01*
X213069597Y-74864428D02*
X213145788Y-74902523D01*
X213145788Y-74902523D02*
X213336264Y-74902523D01*
X213336264Y-74902523D02*
X213412454Y-74864428D01*
X213412454Y-74864428D02*
X213450550Y-74826333D01*
X213450550Y-74826333D02*
X213488645Y-74750142D01*
X213488645Y-74750142D02*
X213488645Y-74559666D01*
X213488645Y-74559666D02*
X213450550Y-74483476D01*
X213450550Y-74483476D02*
X213412454Y-74445380D01*
X61088645Y-72921571D02*
X60288645Y-72921571D01*
X60288645Y-72921571D02*
X60288645Y-73112047D01*
X60288645Y-73112047D02*
X60326740Y-73226333D01*
X60326740Y-73226333D02*
X60402930Y-73302523D01*
X60402930Y-73302523D02*
X60479121Y-73340618D01*
X60479121Y-73340618D02*
X60631502Y-73378714D01*
X60631502Y-73378714D02*
X60745788Y-73378714D01*
X60745788Y-73378714D02*
X60898169Y-73340618D01*
X60898169Y-73340618D02*
X60974359Y-73302523D01*
X60974359Y-73302523D02*
X61050550Y-73226333D01*
X61050550Y-73226333D02*
X61088645Y-73112047D01*
X61088645Y-73112047D02*
X61088645Y-72921571D01*
X61088645Y-74140618D02*
X61088645Y-73683475D01*
X61088645Y-73912047D02*
X60288645Y-73912047D01*
X60288645Y-73912047D02*
X60402930Y-73835856D01*
X60402930Y-73835856D02*
X60479121Y-73759666D01*
X60479121Y-73759666D02*
X60517216Y-73683475D01*
X60288645Y-74407285D02*
X60288645Y-74940619D01*
X60288645Y-74940619D02*
X61088645Y-74597761D01*
X242096145Y-53871571D02*
X241296145Y-53871571D01*
X241296145Y-53871571D02*
X241296145Y-54062047D01*
X241296145Y-54062047D02*
X241334240Y-54176333D01*
X241334240Y-54176333D02*
X241410430Y-54252523D01*
X241410430Y-54252523D02*
X241486621Y-54290618D01*
X241486621Y-54290618D02*
X241639002Y-54328714D01*
X241639002Y-54328714D02*
X241753288Y-54328714D01*
X241753288Y-54328714D02*
X241905669Y-54290618D01*
X241905669Y-54290618D02*
X241981859Y-54252523D01*
X241981859Y-54252523D02*
X242058050Y-54176333D01*
X242058050Y-54176333D02*
X242096145Y-54062047D01*
X242096145Y-54062047D02*
X242096145Y-53871571D01*
X242096145Y-55090618D02*
X242096145Y-54633475D01*
X242096145Y-54862047D02*
X241296145Y-54862047D01*
X241296145Y-54862047D02*
X241410430Y-54785856D01*
X241410430Y-54785856D02*
X241486621Y-54709666D01*
X241486621Y-54709666D02*
X241524716Y-54633475D01*
X241296145Y-55357285D02*
X241296145Y-55852523D01*
X241296145Y-55852523D02*
X241600907Y-55585857D01*
X241600907Y-55585857D02*
X241600907Y-55700142D01*
X241600907Y-55700142D02*
X241639002Y-55776333D01*
X241639002Y-55776333D02*
X241677097Y-55814428D01*
X241677097Y-55814428D02*
X241753288Y-55852523D01*
X241753288Y-55852523D02*
X241943764Y-55852523D01*
X241943764Y-55852523D02*
X242019954Y-55814428D01*
X242019954Y-55814428D02*
X242058050Y-55776333D01*
X242058050Y-55776333D02*
X242096145Y-55700142D01*
X242096145Y-55700142D02*
X242096145Y-55471571D01*
X242096145Y-55471571D02*
X242058050Y-55395380D01*
X242058050Y-55395380D02*
X242019954Y-55357285D01*
X150738704Y-150016667D02*
X150776800Y-149978571D01*
X150776800Y-149978571D02*
X150814895Y-149864286D01*
X150814895Y-149864286D02*
X150814895Y-149788095D01*
X150814895Y-149788095D02*
X150776800Y-149673809D01*
X150776800Y-149673809D02*
X150700609Y-149597619D01*
X150700609Y-149597619D02*
X150624419Y-149559524D01*
X150624419Y-149559524D02*
X150472038Y-149521428D01*
X150472038Y-149521428D02*
X150357752Y-149521428D01*
X150357752Y-149521428D02*
X150205371Y-149559524D01*
X150205371Y-149559524D02*
X150129180Y-149597619D01*
X150129180Y-149597619D02*
X150052990Y-149673809D01*
X150052990Y-149673809D02*
X150014895Y-149788095D01*
X150014895Y-149788095D02*
X150014895Y-149864286D01*
X150014895Y-149864286D02*
X150052990Y-149978571D01*
X150052990Y-149978571D02*
X150091085Y-150016667D01*
X150814895Y-150778571D02*
X150814895Y-150321428D01*
X150814895Y-150550000D02*
X150014895Y-150550000D01*
X150014895Y-150550000D02*
X150129180Y-150473809D01*
X150129180Y-150473809D02*
X150205371Y-150397619D01*
X150205371Y-150397619D02*
X150243466Y-150321428D01*
X99188645Y-72921571D02*
X98388645Y-72921571D01*
X98388645Y-72921571D02*
X98388645Y-73112047D01*
X98388645Y-73112047D02*
X98426740Y-73226333D01*
X98426740Y-73226333D02*
X98502930Y-73302523D01*
X98502930Y-73302523D02*
X98579121Y-73340618D01*
X98579121Y-73340618D02*
X98731502Y-73378714D01*
X98731502Y-73378714D02*
X98845788Y-73378714D01*
X98845788Y-73378714D02*
X98998169Y-73340618D01*
X98998169Y-73340618D02*
X99074359Y-73302523D01*
X99074359Y-73302523D02*
X99150550Y-73226333D01*
X99150550Y-73226333D02*
X99188645Y-73112047D01*
X99188645Y-73112047D02*
X99188645Y-72921571D01*
X99188645Y-74140618D02*
X99188645Y-73683475D01*
X99188645Y-73912047D02*
X98388645Y-73912047D01*
X98388645Y-73912047D02*
X98502930Y-73835856D01*
X98502930Y-73835856D02*
X98579121Y-73759666D01*
X98579121Y-73759666D02*
X98617216Y-73683475D01*
X99188645Y-74521571D02*
X99188645Y-74673952D01*
X99188645Y-74673952D02*
X99150550Y-74750142D01*
X99150550Y-74750142D02*
X99112454Y-74788238D01*
X99112454Y-74788238D02*
X98998169Y-74864428D01*
X98998169Y-74864428D02*
X98845788Y-74902523D01*
X98845788Y-74902523D02*
X98541026Y-74902523D01*
X98541026Y-74902523D02*
X98464835Y-74864428D01*
X98464835Y-74864428D02*
X98426740Y-74826333D01*
X98426740Y-74826333D02*
X98388645Y-74750142D01*
X98388645Y-74750142D02*
X98388645Y-74597761D01*
X98388645Y-74597761D02*
X98426740Y-74521571D01*
X98426740Y-74521571D02*
X98464835Y-74483476D01*
X98464835Y-74483476D02*
X98541026Y-74445380D01*
X98541026Y-74445380D02*
X98731502Y-74445380D01*
X98731502Y-74445380D02*
X98807692Y-74483476D01*
X98807692Y-74483476D02*
X98845788Y-74521571D01*
X98845788Y-74521571D02*
X98883883Y-74597761D01*
X98883883Y-74597761D02*
X98883883Y-74750142D01*
X98883883Y-74750142D02*
X98845788Y-74826333D01*
X98845788Y-74826333D02*
X98807692Y-74864428D01*
X98807692Y-74864428D02*
X98731502Y-74902523D01*
X32546145Y-54252524D02*
X31746145Y-54252524D01*
X31746145Y-54252524D02*
X31746145Y-54443000D01*
X31746145Y-54443000D02*
X31784240Y-54557286D01*
X31784240Y-54557286D02*
X31860430Y-54633476D01*
X31860430Y-54633476D02*
X31936621Y-54671571D01*
X31936621Y-54671571D02*
X32089002Y-54709667D01*
X32089002Y-54709667D02*
X32203288Y-54709667D01*
X32203288Y-54709667D02*
X32355669Y-54671571D01*
X32355669Y-54671571D02*
X32431859Y-54633476D01*
X32431859Y-54633476D02*
X32508050Y-54557286D01*
X32508050Y-54557286D02*
X32546145Y-54443000D01*
X32546145Y-54443000D02*
X32546145Y-54252524D01*
X31822335Y-55014428D02*
X31784240Y-55052524D01*
X31784240Y-55052524D02*
X31746145Y-55128714D01*
X31746145Y-55128714D02*
X31746145Y-55319190D01*
X31746145Y-55319190D02*
X31784240Y-55395381D01*
X31784240Y-55395381D02*
X31822335Y-55433476D01*
X31822335Y-55433476D02*
X31898526Y-55471571D01*
X31898526Y-55471571D02*
X31974716Y-55471571D01*
X31974716Y-55471571D02*
X32089002Y-55433476D01*
X32089002Y-55433476D02*
X32546145Y-54976333D01*
X32546145Y-54976333D02*
X32546145Y-55471571D01*
X118980996Y-150016667D02*
X119019092Y-149978571D01*
X119019092Y-149978571D02*
X119057187Y-149864286D01*
X119057187Y-149864286D02*
X119057187Y-149788095D01*
X119057187Y-149788095D02*
X119019092Y-149673809D01*
X119019092Y-149673809D02*
X118942901Y-149597619D01*
X118942901Y-149597619D02*
X118866711Y-149559524D01*
X118866711Y-149559524D02*
X118714330Y-149521428D01*
X118714330Y-149521428D02*
X118600044Y-149521428D01*
X118600044Y-149521428D02*
X118447663Y-149559524D01*
X118447663Y-149559524D02*
X118371472Y-149597619D01*
X118371472Y-149597619D02*
X118295282Y-149673809D01*
X118295282Y-149673809D02*
X118257187Y-149788095D01*
X118257187Y-149788095D02*
X118257187Y-149864286D01*
X118257187Y-149864286D02*
X118295282Y-149978571D01*
X118295282Y-149978571D02*
X118333377Y-150016667D01*
X118333377Y-150321428D02*
X118295282Y-150359524D01*
X118295282Y-150359524D02*
X118257187Y-150435714D01*
X118257187Y-150435714D02*
X118257187Y-150626190D01*
X118257187Y-150626190D02*
X118295282Y-150702381D01*
X118295282Y-150702381D02*
X118333377Y-150740476D01*
X118333377Y-150740476D02*
X118409568Y-150778571D01*
X118409568Y-150778571D02*
X118485758Y-150778571D01*
X118485758Y-150778571D02*
X118600044Y-150740476D01*
X118600044Y-150740476D02*
X119057187Y-150283333D01*
X119057187Y-150283333D02*
X119057187Y-150778571D01*
X184946145Y-53871571D02*
X184146145Y-53871571D01*
X184146145Y-53871571D02*
X184146145Y-54062047D01*
X184146145Y-54062047D02*
X184184240Y-54176333D01*
X184184240Y-54176333D02*
X184260430Y-54252523D01*
X184260430Y-54252523D02*
X184336621Y-54290618D01*
X184336621Y-54290618D02*
X184489002Y-54328714D01*
X184489002Y-54328714D02*
X184603288Y-54328714D01*
X184603288Y-54328714D02*
X184755669Y-54290618D01*
X184755669Y-54290618D02*
X184831859Y-54252523D01*
X184831859Y-54252523D02*
X184908050Y-54176333D01*
X184908050Y-54176333D02*
X184946145Y-54062047D01*
X184946145Y-54062047D02*
X184946145Y-53871571D01*
X184946145Y-55090618D02*
X184946145Y-54633475D01*
X184946145Y-54862047D02*
X184146145Y-54862047D01*
X184146145Y-54862047D02*
X184260430Y-54785856D01*
X184260430Y-54785856D02*
X184336621Y-54709666D01*
X184336621Y-54709666D02*
X184374716Y-54633475D01*
X184146145Y-55585857D02*
X184146145Y-55662047D01*
X184146145Y-55662047D02*
X184184240Y-55738238D01*
X184184240Y-55738238D02*
X184222335Y-55776333D01*
X184222335Y-55776333D02*
X184298526Y-55814428D01*
X184298526Y-55814428D02*
X184450907Y-55852523D01*
X184450907Y-55852523D02*
X184641383Y-55852523D01*
X184641383Y-55852523D02*
X184793764Y-55814428D01*
X184793764Y-55814428D02*
X184869954Y-55776333D01*
X184869954Y-55776333D02*
X184908050Y-55738238D01*
X184908050Y-55738238D02*
X184946145Y-55662047D01*
X184946145Y-55662047D02*
X184946145Y-55585857D01*
X184946145Y-55585857D02*
X184908050Y-55509666D01*
X184908050Y-55509666D02*
X184869954Y-55471571D01*
X184869954Y-55471571D02*
X184793764Y-55433476D01*
X184793764Y-55433476D02*
X184641383Y-55395380D01*
X184641383Y-55395380D02*
X184450907Y-55395380D01*
X184450907Y-55395380D02*
X184298526Y-55433476D01*
X184298526Y-55433476D02*
X184222335Y-55471571D01*
X184222335Y-55471571D02*
X184184240Y-55509666D01*
X184184240Y-55509666D02*
X184146145Y-55585857D01*
X94446145Y-111021571D02*
X93646145Y-111021571D01*
X93646145Y-111021571D02*
X93646145Y-111212047D01*
X93646145Y-111212047D02*
X93684240Y-111326333D01*
X93684240Y-111326333D02*
X93760430Y-111402523D01*
X93760430Y-111402523D02*
X93836621Y-111440618D01*
X93836621Y-111440618D02*
X93989002Y-111478714D01*
X93989002Y-111478714D02*
X94103288Y-111478714D01*
X94103288Y-111478714D02*
X94255669Y-111440618D01*
X94255669Y-111440618D02*
X94331859Y-111402523D01*
X94331859Y-111402523D02*
X94408050Y-111326333D01*
X94408050Y-111326333D02*
X94446145Y-111212047D01*
X94446145Y-111212047D02*
X94446145Y-111021571D01*
X93912811Y-112164428D02*
X94446145Y-112164428D01*
X93608050Y-111973952D02*
X94179478Y-111783475D01*
X94179478Y-111783475D02*
X94179478Y-112278714D01*
X93646145Y-112926333D02*
X93646145Y-112773952D01*
X93646145Y-112773952D02*
X93684240Y-112697761D01*
X93684240Y-112697761D02*
X93722335Y-112659666D01*
X93722335Y-112659666D02*
X93836621Y-112583476D01*
X93836621Y-112583476D02*
X93989002Y-112545380D01*
X93989002Y-112545380D02*
X94293764Y-112545380D01*
X94293764Y-112545380D02*
X94369954Y-112583476D01*
X94369954Y-112583476D02*
X94408050Y-112621571D01*
X94408050Y-112621571D02*
X94446145Y-112697761D01*
X94446145Y-112697761D02*
X94446145Y-112850142D01*
X94446145Y-112850142D02*
X94408050Y-112926333D01*
X94408050Y-112926333D02*
X94369954Y-112964428D01*
X94369954Y-112964428D02*
X94293764Y-113002523D01*
X94293764Y-113002523D02*
X94103288Y-113002523D01*
X94103288Y-113002523D02*
X94027097Y-112964428D01*
X94027097Y-112964428D02*
X93989002Y-112926333D01*
X93989002Y-112926333D02*
X93950907Y-112850142D01*
X93950907Y-112850142D02*
X93950907Y-112697761D01*
X93950907Y-112697761D02*
X93989002Y-112621571D01*
X93989002Y-112621571D02*
X94027097Y-112583476D01*
X94027097Y-112583476D02*
X94103288Y-112545380D01*
X223046145Y-130151571D02*
X222246145Y-130151571D01*
X222246145Y-130151571D02*
X222246145Y-130342047D01*
X222246145Y-130342047D02*
X222284240Y-130456333D01*
X222284240Y-130456333D02*
X222360430Y-130532523D01*
X222360430Y-130532523D02*
X222436621Y-130570618D01*
X222436621Y-130570618D02*
X222589002Y-130608714D01*
X222589002Y-130608714D02*
X222703288Y-130608714D01*
X222703288Y-130608714D02*
X222855669Y-130570618D01*
X222855669Y-130570618D02*
X222931859Y-130532523D01*
X222931859Y-130532523D02*
X223008050Y-130456333D01*
X223008050Y-130456333D02*
X223046145Y-130342047D01*
X223046145Y-130342047D02*
X223046145Y-130151571D01*
X222246145Y-131294428D02*
X222246145Y-131142047D01*
X222246145Y-131142047D02*
X222284240Y-131065856D01*
X222284240Y-131065856D02*
X222322335Y-131027761D01*
X222322335Y-131027761D02*
X222436621Y-130951571D01*
X222436621Y-130951571D02*
X222589002Y-130913475D01*
X222589002Y-130913475D02*
X222893764Y-130913475D01*
X222893764Y-130913475D02*
X222969954Y-130951571D01*
X222969954Y-130951571D02*
X223008050Y-130989666D01*
X223008050Y-130989666D02*
X223046145Y-131065856D01*
X223046145Y-131065856D02*
X223046145Y-131218237D01*
X223046145Y-131218237D02*
X223008050Y-131294428D01*
X223008050Y-131294428D02*
X222969954Y-131332523D01*
X222969954Y-131332523D02*
X222893764Y-131370618D01*
X222893764Y-131370618D02*
X222703288Y-131370618D01*
X222703288Y-131370618D02*
X222627097Y-131332523D01*
X222627097Y-131332523D02*
X222589002Y-131294428D01*
X222589002Y-131294428D02*
X222550907Y-131218237D01*
X222550907Y-131218237D02*
X222550907Y-131065856D01*
X222550907Y-131065856D02*
X222589002Y-130989666D01*
X222589002Y-130989666D02*
X222627097Y-130951571D01*
X222627097Y-130951571D02*
X222703288Y-130913475D01*
X222322335Y-131675380D02*
X222284240Y-131713476D01*
X222284240Y-131713476D02*
X222246145Y-131789666D01*
X222246145Y-131789666D02*
X222246145Y-131980142D01*
X222246145Y-131980142D02*
X222284240Y-132056333D01*
X222284240Y-132056333D02*
X222322335Y-132094428D01*
X222322335Y-132094428D02*
X222398526Y-132132523D01*
X222398526Y-132132523D02*
X222474716Y-132132523D01*
X222474716Y-132132523D02*
X222589002Y-132094428D01*
X222589002Y-132094428D02*
X223046145Y-131637285D01*
X223046145Y-131637285D02*
X223046145Y-132132523D01*
X82552395Y-130151571D02*
X81752395Y-130151571D01*
X81752395Y-130151571D02*
X81752395Y-130342047D01*
X81752395Y-130342047D02*
X81790490Y-130456333D01*
X81790490Y-130456333D02*
X81866680Y-130532523D01*
X81866680Y-130532523D02*
X81942871Y-130570618D01*
X81942871Y-130570618D02*
X82095252Y-130608714D01*
X82095252Y-130608714D02*
X82209538Y-130608714D01*
X82209538Y-130608714D02*
X82361919Y-130570618D01*
X82361919Y-130570618D02*
X82438109Y-130532523D01*
X82438109Y-130532523D02*
X82514300Y-130456333D01*
X82514300Y-130456333D02*
X82552395Y-130342047D01*
X82552395Y-130342047D02*
X82552395Y-130151571D01*
X81752395Y-131294428D02*
X81752395Y-131142047D01*
X81752395Y-131142047D02*
X81790490Y-131065856D01*
X81790490Y-131065856D02*
X81828585Y-131027761D01*
X81828585Y-131027761D02*
X81942871Y-130951571D01*
X81942871Y-130951571D02*
X82095252Y-130913475D01*
X82095252Y-130913475D02*
X82400014Y-130913475D01*
X82400014Y-130913475D02*
X82476204Y-130951571D01*
X82476204Y-130951571D02*
X82514300Y-130989666D01*
X82514300Y-130989666D02*
X82552395Y-131065856D01*
X82552395Y-131065856D02*
X82552395Y-131218237D01*
X82552395Y-131218237D02*
X82514300Y-131294428D01*
X82514300Y-131294428D02*
X82476204Y-131332523D01*
X82476204Y-131332523D02*
X82400014Y-131370618D01*
X82400014Y-131370618D02*
X82209538Y-131370618D01*
X82209538Y-131370618D02*
X82133347Y-131332523D01*
X82133347Y-131332523D02*
X82095252Y-131294428D01*
X82095252Y-131294428D02*
X82057157Y-131218237D01*
X82057157Y-131218237D02*
X82057157Y-131065856D01*
X82057157Y-131065856D02*
X82095252Y-130989666D01*
X82095252Y-130989666D02*
X82133347Y-130951571D01*
X82133347Y-130951571D02*
X82209538Y-130913475D01*
X81752395Y-131865857D02*
X81752395Y-131942047D01*
X81752395Y-131942047D02*
X81790490Y-132018238D01*
X81790490Y-132018238D02*
X81828585Y-132056333D01*
X81828585Y-132056333D02*
X81904776Y-132094428D01*
X81904776Y-132094428D02*
X82057157Y-132132523D01*
X82057157Y-132132523D02*
X82247633Y-132132523D01*
X82247633Y-132132523D02*
X82400014Y-132094428D01*
X82400014Y-132094428D02*
X82476204Y-132056333D01*
X82476204Y-132056333D02*
X82514300Y-132018238D01*
X82514300Y-132018238D02*
X82552395Y-131942047D01*
X82552395Y-131942047D02*
X82552395Y-131865857D01*
X82552395Y-131865857D02*
X82514300Y-131789666D01*
X82514300Y-131789666D02*
X82476204Y-131751571D01*
X82476204Y-131751571D02*
X82400014Y-131713476D01*
X82400014Y-131713476D02*
X82247633Y-131675380D01*
X82247633Y-131675380D02*
X82057157Y-131675380D01*
X82057157Y-131675380D02*
X81904776Y-131713476D01*
X81904776Y-131713476D02*
X81828585Y-131751571D01*
X81828585Y-131751571D02*
X81790490Y-131789666D01*
X81790490Y-131789666D02*
X81752395Y-131865857D01*
D11*
X163840476Y-155919819D02*
X164173809Y-155443628D01*
X164411904Y-155919819D02*
X164411904Y-154919819D01*
X164411904Y-154919819D02*
X164030952Y-154919819D01*
X164030952Y-154919819D02*
X163935714Y-154967438D01*
X163935714Y-154967438D02*
X163888095Y-155015057D01*
X163888095Y-155015057D02*
X163840476Y-155110295D01*
X163840476Y-155110295D02*
X163840476Y-155253152D01*
X163840476Y-155253152D02*
X163888095Y-155348390D01*
X163888095Y-155348390D02*
X163935714Y-155396009D01*
X163935714Y-155396009D02*
X164030952Y-155443628D01*
X164030952Y-155443628D02*
X164411904Y-155443628D01*
X163411904Y-155919819D02*
X163411904Y-154919819D01*
X163411904Y-154919819D02*
X162840476Y-155919819D01*
X162840476Y-155919819D02*
X162840476Y-154919819D01*
X162459523Y-154919819D02*
X161840476Y-154919819D01*
X161840476Y-154919819D02*
X162173809Y-155300771D01*
X162173809Y-155300771D02*
X162030952Y-155300771D01*
X162030952Y-155300771D02*
X161935714Y-155348390D01*
X161935714Y-155348390D02*
X161888095Y-155396009D01*
X161888095Y-155396009D02*
X161840476Y-155491247D01*
X161840476Y-155491247D02*
X161840476Y-155729342D01*
X161840476Y-155729342D02*
X161888095Y-155824580D01*
X161888095Y-155824580D02*
X161935714Y-155872200D01*
X161935714Y-155872200D02*
X162030952Y-155919819D01*
X162030952Y-155919819D02*
X162316666Y-155919819D01*
X162316666Y-155919819D02*
X162411904Y-155872200D01*
X162411904Y-155872200D02*
X162459523Y-155824580D01*
X163911904Y-148593819D02*
X163911904Y-149403342D01*
X163911904Y-149403342D02*
X163864285Y-149498580D01*
X163864285Y-149498580D02*
X163816666Y-149546200D01*
X163816666Y-149546200D02*
X163721428Y-149593819D01*
X163721428Y-149593819D02*
X163530952Y-149593819D01*
X163530952Y-149593819D02*
X163435714Y-149546200D01*
X163435714Y-149546200D02*
X163388095Y-149498580D01*
X163388095Y-149498580D02*
X163340476Y-149403342D01*
X163340476Y-149403342D02*
X163340476Y-148593819D01*
X162959523Y-148593819D02*
X162340476Y-148593819D01*
X162340476Y-148593819D02*
X162673809Y-148974771D01*
X162673809Y-148974771D02*
X162530952Y-148974771D01*
X162530952Y-148974771D02*
X162435714Y-149022390D01*
X162435714Y-149022390D02*
X162388095Y-149070009D01*
X162388095Y-149070009D02*
X162340476Y-149165247D01*
X162340476Y-149165247D02*
X162340476Y-149403342D01*
X162340476Y-149403342D02*
X162388095Y-149498580D01*
X162388095Y-149498580D02*
X162435714Y-149546200D01*
X162435714Y-149546200D02*
X162530952Y-149593819D01*
X162530952Y-149593819D02*
X162816666Y-149593819D01*
X162816666Y-149593819D02*
X162911904Y-149546200D01*
X162911904Y-149546200D02*
X162959523Y-149498580D01*
X166269047Y-150625819D02*
X165602381Y-150625819D01*
X165602381Y-150625819D02*
X166030952Y-151625819D01*
X164792857Y-150959152D02*
X164792857Y-151625819D01*
X165030952Y-150578200D02*
X165269047Y-151292485D01*
X165269047Y-151292485D02*
X164650000Y-151292485D01*
X163792857Y-151625819D02*
X164269047Y-151625819D01*
X164269047Y-151625819D02*
X164269047Y-150625819D01*
X163507142Y-151578200D02*
X163364285Y-151625819D01*
X163364285Y-151625819D02*
X163126190Y-151625819D01*
X163126190Y-151625819D02*
X163030952Y-151578200D01*
X163030952Y-151578200D02*
X162983333Y-151530580D01*
X162983333Y-151530580D02*
X162935714Y-151435342D01*
X162935714Y-151435342D02*
X162935714Y-151340104D01*
X162935714Y-151340104D02*
X162983333Y-151244866D01*
X162983333Y-151244866D02*
X163030952Y-151197247D01*
X163030952Y-151197247D02*
X163126190Y-151149628D01*
X163126190Y-151149628D02*
X163316666Y-151102009D01*
X163316666Y-151102009D02*
X163411904Y-151054390D01*
X163411904Y-151054390D02*
X163459523Y-151006771D01*
X163459523Y-151006771D02*
X163507142Y-150911533D01*
X163507142Y-150911533D02*
X163507142Y-150816295D01*
X163507142Y-150816295D02*
X163459523Y-150721057D01*
X163459523Y-150721057D02*
X163411904Y-150673438D01*
X163411904Y-150673438D02*
X163316666Y-150625819D01*
X163316666Y-150625819D02*
X163078571Y-150625819D01*
X163078571Y-150625819D02*
X162935714Y-150673438D01*
X161983333Y-151625819D02*
X162554761Y-151625819D01*
X162269047Y-151625819D02*
X162269047Y-150625819D01*
X162269047Y-150625819D02*
X162364285Y-150768676D01*
X162364285Y-150768676D02*
X162459523Y-150863914D01*
X162459523Y-150863914D02*
X162554761Y-150911533D01*
X161126190Y-150625819D02*
X161316666Y-150625819D01*
X161316666Y-150625819D02*
X161411904Y-150673438D01*
X161411904Y-150673438D02*
X161459523Y-150721057D01*
X161459523Y-150721057D02*
X161554761Y-150863914D01*
X161554761Y-150863914D02*
X161602380Y-151054390D01*
X161602380Y-151054390D02*
X161602380Y-151435342D01*
X161602380Y-151435342D02*
X161554761Y-151530580D01*
X161554761Y-151530580D02*
X161507142Y-151578200D01*
X161507142Y-151578200D02*
X161411904Y-151625819D01*
X161411904Y-151625819D02*
X161221428Y-151625819D01*
X161221428Y-151625819D02*
X161126190Y-151578200D01*
X161126190Y-151578200D02*
X161078571Y-151530580D01*
X161078571Y-151530580D02*
X161030952Y-151435342D01*
X161030952Y-151435342D02*
X161030952Y-151197247D01*
X161030952Y-151197247D02*
X161078571Y-151102009D01*
X161078571Y-151102009D02*
X161126190Y-151054390D01*
X161126190Y-151054390D02*
X161221428Y-151006771D01*
X161221428Y-151006771D02*
X161411904Y-151006771D01*
X161411904Y-151006771D02*
X161507142Y-151054390D01*
X161507142Y-151054390D02*
X161554761Y-151102009D01*
X161554761Y-151102009D02*
X161602380Y-151197247D01*
X160126190Y-150625819D02*
X160602380Y-150625819D01*
X160602380Y-150625819D02*
X160649999Y-151102009D01*
X160649999Y-151102009D02*
X160602380Y-151054390D01*
X160602380Y-151054390D02*
X160507142Y-151006771D01*
X160507142Y-151006771D02*
X160269047Y-151006771D01*
X160269047Y-151006771D02*
X160173809Y-151054390D01*
X160173809Y-151054390D02*
X160126190Y-151102009D01*
X160126190Y-151102009D02*
X160078571Y-151197247D01*
X160078571Y-151197247D02*
X160078571Y-151435342D01*
X160078571Y-151435342D02*
X160126190Y-151530580D01*
X160126190Y-151530580D02*
X160173809Y-151578200D01*
X160173809Y-151578200D02*
X160269047Y-151625819D01*
X160269047Y-151625819D02*
X160507142Y-151625819D01*
X160507142Y-151625819D02*
X160602380Y-151578200D01*
X160602380Y-151578200D02*
X160649999Y-151530580D01*
D10*
X256383645Y-91971571D02*
X255583645Y-91971571D01*
X255583645Y-91971571D02*
X255583645Y-92162047D01*
X255583645Y-92162047D02*
X255621740Y-92276333D01*
X255621740Y-92276333D02*
X255697930Y-92352523D01*
X255697930Y-92352523D02*
X255774121Y-92390618D01*
X255774121Y-92390618D02*
X255926502Y-92428714D01*
X255926502Y-92428714D02*
X256040788Y-92428714D01*
X256040788Y-92428714D02*
X256193169Y-92390618D01*
X256193169Y-92390618D02*
X256269359Y-92352523D01*
X256269359Y-92352523D02*
X256345550Y-92276333D01*
X256345550Y-92276333D02*
X256383645Y-92162047D01*
X256383645Y-92162047D02*
X256383645Y-91971571D01*
X255850311Y-93114428D02*
X256383645Y-93114428D01*
X255545550Y-92923952D02*
X256116978Y-92733475D01*
X256116978Y-92733475D02*
X256116978Y-93228714D01*
X256383645Y-93952523D02*
X256383645Y-93495380D01*
X256383645Y-93723952D02*
X255583645Y-93723952D01*
X255583645Y-93723952D02*
X255697930Y-93647761D01*
X255697930Y-93647761D02*
X255774121Y-93571571D01*
X255774121Y-93571571D02*
X255812216Y-93495380D01*
X299246145Y-149251571D02*
X298446145Y-149251571D01*
X298446145Y-149251571D02*
X298446145Y-149442047D01*
X298446145Y-149442047D02*
X298484240Y-149556333D01*
X298484240Y-149556333D02*
X298560430Y-149632523D01*
X298560430Y-149632523D02*
X298636621Y-149670618D01*
X298636621Y-149670618D02*
X298789002Y-149708714D01*
X298789002Y-149708714D02*
X298903288Y-149708714D01*
X298903288Y-149708714D02*
X299055669Y-149670618D01*
X299055669Y-149670618D02*
X299131859Y-149632523D01*
X299131859Y-149632523D02*
X299208050Y-149556333D01*
X299208050Y-149556333D02*
X299246145Y-149442047D01*
X299246145Y-149442047D02*
X299246145Y-149251571D01*
X298446145Y-150394428D02*
X298446145Y-150242047D01*
X298446145Y-150242047D02*
X298484240Y-150165856D01*
X298484240Y-150165856D02*
X298522335Y-150127761D01*
X298522335Y-150127761D02*
X298636621Y-150051571D01*
X298636621Y-150051571D02*
X298789002Y-150013475D01*
X298789002Y-150013475D02*
X299093764Y-150013475D01*
X299093764Y-150013475D02*
X299169954Y-150051571D01*
X299169954Y-150051571D02*
X299208050Y-150089666D01*
X299208050Y-150089666D02*
X299246145Y-150165856D01*
X299246145Y-150165856D02*
X299246145Y-150318237D01*
X299246145Y-150318237D02*
X299208050Y-150394428D01*
X299208050Y-150394428D02*
X299169954Y-150432523D01*
X299169954Y-150432523D02*
X299093764Y-150470618D01*
X299093764Y-150470618D02*
X298903288Y-150470618D01*
X298903288Y-150470618D02*
X298827097Y-150432523D01*
X298827097Y-150432523D02*
X298789002Y-150394428D01*
X298789002Y-150394428D02*
X298750907Y-150318237D01*
X298750907Y-150318237D02*
X298750907Y-150165856D01*
X298750907Y-150165856D02*
X298789002Y-150089666D01*
X298789002Y-150089666D02*
X298827097Y-150051571D01*
X298827097Y-150051571D02*
X298903288Y-150013475D01*
X298789002Y-150927761D02*
X298750907Y-150851571D01*
X298750907Y-150851571D02*
X298712811Y-150813476D01*
X298712811Y-150813476D02*
X298636621Y-150775380D01*
X298636621Y-150775380D02*
X298598526Y-150775380D01*
X298598526Y-150775380D02*
X298522335Y-150813476D01*
X298522335Y-150813476D02*
X298484240Y-150851571D01*
X298484240Y-150851571D02*
X298446145Y-150927761D01*
X298446145Y-150927761D02*
X298446145Y-151080142D01*
X298446145Y-151080142D02*
X298484240Y-151156333D01*
X298484240Y-151156333D02*
X298522335Y-151194428D01*
X298522335Y-151194428D02*
X298598526Y-151232523D01*
X298598526Y-151232523D02*
X298636621Y-151232523D01*
X298636621Y-151232523D02*
X298712811Y-151194428D01*
X298712811Y-151194428D02*
X298750907Y-151156333D01*
X298750907Y-151156333D02*
X298789002Y-151080142D01*
X298789002Y-151080142D02*
X298789002Y-150927761D01*
X298789002Y-150927761D02*
X298827097Y-150851571D01*
X298827097Y-150851571D02*
X298865192Y-150813476D01*
X298865192Y-150813476D02*
X298941383Y-150775380D01*
X298941383Y-150775380D02*
X299093764Y-150775380D01*
X299093764Y-150775380D02*
X299169954Y-150813476D01*
X299169954Y-150813476D02*
X299208050Y-150851571D01*
X299208050Y-150851571D02*
X299246145Y-150927761D01*
X299246145Y-150927761D02*
X299246145Y-151080142D01*
X299246145Y-151080142D02*
X299208050Y-151156333D01*
X299208050Y-151156333D02*
X299169954Y-151194428D01*
X299169954Y-151194428D02*
X299093764Y-151232523D01*
X299093764Y-151232523D02*
X298941383Y-151232523D01*
X298941383Y-151232523D02*
X298865192Y-151194428D01*
X298865192Y-151194428D02*
X298827097Y-151156333D01*
X298827097Y-151156333D02*
X298789002Y-151080142D01*
X132546145Y-111021571D02*
X131746145Y-111021571D01*
X131746145Y-111021571D02*
X131746145Y-111212047D01*
X131746145Y-111212047D02*
X131784240Y-111326333D01*
X131784240Y-111326333D02*
X131860430Y-111402523D01*
X131860430Y-111402523D02*
X131936621Y-111440618D01*
X131936621Y-111440618D02*
X132089002Y-111478714D01*
X132089002Y-111478714D02*
X132203288Y-111478714D01*
X132203288Y-111478714D02*
X132355669Y-111440618D01*
X132355669Y-111440618D02*
X132431859Y-111402523D01*
X132431859Y-111402523D02*
X132508050Y-111326333D01*
X132508050Y-111326333D02*
X132546145Y-111212047D01*
X132546145Y-111212047D02*
X132546145Y-111021571D01*
X132012811Y-112164428D02*
X132546145Y-112164428D01*
X131708050Y-111973952D02*
X132279478Y-111783475D01*
X132279478Y-111783475D02*
X132279478Y-112278714D01*
X132089002Y-112697761D02*
X132050907Y-112621571D01*
X132050907Y-112621571D02*
X132012811Y-112583476D01*
X132012811Y-112583476D02*
X131936621Y-112545380D01*
X131936621Y-112545380D02*
X131898526Y-112545380D01*
X131898526Y-112545380D02*
X131822335Y-112583476D01*
X131822335Y-112583476D02*
X131784240Y-112621571D01*
X131784240Y-112621571D02*
X131746145Y-112697761D01*
X131746145Y-112697761D02*
X131746145Y-112850142D01*
X131746145Y-112850142D02*
X131784240Y-112926333D01*
X131784240Y-112926333D02*
X131822335Y-112964428D01*
X131822335Y-112964428D02*
X131898526Y-113002523D01*
X131898526Y-113002523D02*
X131936621Y-113002523D01*
X131936621Y-113002523D02*
X132012811Y-112964428D01*
X132012811Y-112964428D02*
X132050907Y-112926333D01*
X132050907Y-112926333D02*
X132089002Y-112850142D01*
X132089002Y-112850142D02*
X132089002Y-112697761D01*
X132089002Y-112697761D02*
X132127097Y-112621571D01*
X132127097Y-112621571D02*
X132165192Y-112583476D01*
X132165192Y-112583476D02*
X132241383Y-112545380D01*
X132241383Y-112545380D02*
X132393764Y-112545380D01*
X132393764Y-112545380D02*
X132469954Y-112583476D01*
X132469954Y-112583476D02*
X132508050Y-112621571D01*
X132508050Y-112621571D02*
X132546145Y-112697761D01*
X132546145Y-112697761D02*
X132546145Y-112850142D01*
X132546145Y-112850142D02*
X132508050Y-112926333D01*
X132508050Y-112926333D02*
X132469954Y-112964428D01*
X132469954Y-112964428D02*
X132393764Y-113002523D01*
X132393764Y-113002523D02*
X132241383Y-113002523D01*
X132241383Y-113002523D02*
X132165192Y-112964428D01*
X132165192Y-112964428D02*
X132127097Y-112926333D01*
X132127097Y-112926333D02*
X132089002Y-112850142D01*
X70646145Y-54252524D02*
X69846145Y-54252524D01*
X69846145Y-54252524D02*
X69846145Y-54443000D01*
X69846145Y-54443000D02*
X69884240Y-54557286D01*
X69884240Y-54557286D02*
X69960430Y-54633476D01*
X69960430Y-54633476D02*
X70036621Y-54671571D01*
X70036621Y-54671571D02*
X70189002Y-54709667D01*
X70189002Y-54709667D02*
X70303288Y-54709667D01*
X70303288Y-54709667D02*
X70455669Y-54671571D01*
X70455669Y-54671571D02*
X70531859Y-54633476D01*
X70531859Y-54633476D02*
X70608050Y-54557286D01*
X70608050Y-54557286D02*
X70646145Y-54443000D01*
X70646145Y-54443000D02*
X70646145Y-54252524D01*
X70112811Y-55395381D02*
X70646145Y-55395381D01*
X69808050Y-55204905D02*
X70379478Y-55014428D01*
X70379478Y-55014428D02*
X70379478Y-55509667D01*
X270638645Y-72921571D02*
X269838645Y-72921571D01*
X269838645Y-72921571D02*
X269838645Y-73112047D01*
X269838645Y-73112047D02*
X269876740Y-73226333D01*
X269876740Y-73226333D02*
X269952930Y-73302523D01*
X269952930Y-73302523D02*
X270029121Y-73340618D01*
X270029121Y-73340618D02*
X270181502Y-73378714D01*
X270181502Y-73378714D02*
X270295788Y-73378714D01*
X270295788Y-73378714D02*
X270448169Y-73340618D01*
X270448169Y-73340618D02*
X270524359Y-73302523D01*
X270524359Y-73302523D02*
X270600550Y-73226333D01*
X270600550Y-73226333D02*
X270638645Y-73112047D01*
X270638645Y-73112047D02*
X270638645Y-72921571D01*
X269914835Y-73683475D02*
X269876740Y-73721571D01*
X269876740Y-73721571D02*
X269838645Y-73797761D01*
X269838645Y-73797761D02*
X269838645Y-73988237D01*
X269838645Y-73988237D02*
X269876740Y-74064428D01*
X269876740Y-74064428D02*
X269914835Y-74102523D01*
X269914835Y-74102523D02*
X269991026Y-74140618D01*
X269991026Y-74140618D02*
X270067216Y-74140618D01*
X270067216Y-74140618D02*
X270181502Y-74102523D01*
X270181502Y-74102523D02*
X270638645Y-73645380D01*
X270638645Y-73645380D02*
X270638645Y-74140618D01*
X270181502Y-74597761D02*
X270143407Y-74521571D01*
X270143407Y-74521571D02*
X270105311Y-74483476D01*
X270105311Y-74483476D02*
X270029121Y-74445380D01*
X270029121Y-74445380D02*
X269991026Y-74445380D01*
X269991026Y-74445380D02*
X269914835Y-74483476D01*
X269914835Y-74483476D02*
X269876740Y-74521571D01*
X269876740Y-74521571D02*
X269838645Y-74597761D01*
X269838645Y-74597761D02*
X269838645Y-74750142D01*
X269838645Y-74750142D02*
X269876740Y-74826333D01*
X269876740Y-74826333D02*
X269914835Y-74864428D01*
X269914835Y-74864428D02*
X269991026Y-74902523D01*
X269991026Y-74902523D02*
X270029121Y-74902523D01*
X270029121Y-74902523D02*
X270105311Y-74864428D01*
X270105311Y-74864428D02*
X270143407Y-74826333D01*
X270143407Y-74826333D02*
X270181502Y-74750142D01*
X270181502Y-74750142D02*
X270181502Y-74597761D01*
X270181502Y-74597761D02*
X270219597Y-74521571D01*
X270219597Y-74521571D02*
X270257692Y-74483476D01*
X270257692Y-74483476D02*
X270333883Y-74445380D01*
X270333883Y-74445380D02*
X270486264Y-74445380D01*
X270486264Y-74445380D02*
X270562454Y-74483476D01*
X270562454Y-74483476D02*
X270600550Y-74521571D01*
X270600550Y-74521571D02*
X270638645Y-74597761D01*
X270638645Y-74597761D02*
X270638645Y-74750142D01*
X270638645Y-74750142D02*
X270600550Y-74826333D01*
X270600550Y-74826333D02*
X270562454Y-74864428D01*
X270562454Y-74864428D02*
X270486264Y-74902523D01*
X270486264Y-74902523D02*
X270333883Y-74902523D01*
X270333883Y-74902523D02*
X270257692Y-74864428D01*
X270257692Y-74864428D02*
X270219597Y-74826333D01*
X270219597Y-74826333D02*
X270181502Y-74750142D01*
X37308645Y-72921571D02*
X36508645Y-72921571D01*
X36508645Y-72921571D02*
X36508645Y-73112047D01*
X36508645Y-73112047D02*
X36546740Y-73226333D01*
X36546740Y-73226333D02*
X36622930Y-73302523D01*
X36622930Y-73302523D02*
X36699121Y-73340618D01*
X36699121Y-73340618D02*
X36851502Y-73378714D01*
X36851502Y-73378714D02*
X36965788Y-73378714D01*
X36965788Y-73378714D02*
X37118169Y-73340618D01*
X37118169Y-73340618D02*
X37194359Y-73302523D01*
X37194359Y-73302523D02*
X37270550Y-73226333D01*
X37270550Y-73226333D02*
X37308645Y-73112047D01*
X37308645Y-73112047D02*
X37308645Y-72921571D01*
X37308645Y-74140618D02*
X37308645Y-73683475D01*
X37308645Y-73912047D02*
X36508645Y-73912047D01*
X36508645Y-73912047D02*
X36622930Y-73835856D01*
X36622930Y-73835856D02*
X36699121Y-73759666D01*
X36699121Y-73759666D02*
X36737216Y-73683475D01*
X36508645Y-74826333D02*
X36508645Y-74673952D01*
X36508645Y-74673952D02*
X36546740Y-74597761D01*
X36546740Y-74597761D02*
X36584835Y-74559666D01*
X36584835Y-74559666D02*
X36699121Y-74483476D01*
X36699121Y-74483476D02*
X36851502Y-74445380D01*
X36851502Y-74445380D02*
X37156264Y-74445380D01*
X37156264Y-74445380D02*
X37232454Y-74483476D01*
X37232454Y-74483476D02*
X37270550Y-74521571D01*
X37270550Y-74521571D02*
X37308645Y-74597761D01*
X37308645Y-74597761D02*
X37308645Y-74750142D01*
X37308645Y-74750142D02*
X37270550Y-74826333D01*
X37270550Y-74826333D02*
X37232454Y-74864428D01*
X37232454Y-74864428D02*
X37156264Y-74902523D01*
X37156264Y-74902523D02*
X36965788Y-74902523D01*
X36965788Y-74902523D02*
X36889597Y-74864428D01*
X36889597Y-74864428D02*
X36851502Y-74826333D01*
X36851502Y-74826333D02*
X36813407Y-74750142D01*
X36813407Y-74750142D02*
X36813407Y-74597761D01*
X36813407Y-74597761D02*
X36851502Y-74521571D01*
X36851502Y-74521571D02*
X36889597Y-74483476D01*
X36889597Y-74483476D02*
X36965788Y-74445380D01*
X103983645Y-91971571D02*
X103183645Y-91971571D01*
X103183645Y-91971571D02*
X103183645Y-92162047D01*
X103183645Y-92162047D02*
X103221740Y-92276333D01*
X103221740Y-92276333D02*
X103297930Y-92352523D01*
X103297930Y-92352523D02*
X103374121Y-92390618D01*
X103374121Y-92390618D02*
X103526502Y-92428714D01*
X103526502Y-92428714D02*
X103640788Y-92428714D01*
X103640788Y-92428714D02*
X103793169Y-92390618D01*
X103793169Y-92390618D02*
X103869359Y-92352523D01*
X103869359Y-92352523D02*
X103945550Y-92276333D01*
X103945550Y-92276333D02*
X103983645Y-92162047D01*
X103983645Y-92162047D02*
X103983645Y-91971571D01*
X103183645Y-92695380D02*
X103183645Y-93190618D01*
X103183645Y-93190618D02*
X103488407Y-92923952D01*
X103488407Y-92923952D02*
X103488407Y-93038237D01*
X103488407Y-93038237D02*
X103526502Y-93114428D01*
X103526502Y-93114428D02*
X103564597Y-93152523D01*
X103564597Y-93152523D02*
X103640788Y-93190618D01*
X103640788Y-93190618D02*
X103831264Y-93190618D01*
X103831264Y-93190618D02*
X103907454Y-93152523D01*
X103907454Y-93152523D02*
X103945550Y-93114428D01*
X103945550Y-93114428D02*
X103983645Y-93038237D01*
X103983645Y-93038237D02*
X103983645Y-92809666D01*
X103983645Y-92809666D02*
X103945550Y-92733475D01*
X103945550Y-92733475D02*
X103907454Y-92695380D01*
X103183645Y-93457285D02*
X103183645Y-93952523D01*
X103183645Y-93952523D02*
X103488407Y-93685857D01*
X103488407Y-93685857D02*
X103488407Y-93800142D01*
X103488407Y-93800142D02*
X103526502Y-93876333D01*
X103526502Y-93876333D02*
X103564597Y-93914428D01*
X103564597Y-93914428D02*
X103640788Y-93952523D01*
X103640788Y-93952523D02*
X103831264Y-93952523D01*
X103831264Y-93952523D02*
X103907454Y-93914428D01*
X103907454Y-93914428D02*
X103945550Y-93876333D01*
X103945550Y-93876333D02*
X103983645Y-93800142D01*
X103983645Y-93800142D02*
X103983645Y-93571571D01*
X103983645Y-93571571D02*
X103945550Y-93495380D01*
X103945550Y-93495380D02*
X103907454Y-93457285D01*
X261146145Y-130151571D02*
X260346145Y-130151571D01*
X260346145Y-130151571D02*
X260346145Y-130342047D01*
X260346145Y-130342047D02*
X260384240Y-130456333D01*
X260384240Y-130456333D02*
X260460430Y-130532523D01*
X260460430Y-130532523D02*
X260536621Y-130570618D01*
X260536621Y-130570618D02*
X260689002Y-130608714D01*
X260689002Y-130608714D02*
X260803288Y-130608714D01*
X260803288Y-130608714D02*
X260955669Y-130570618D01*
X260955669Y-130570618D02*
X261031859Y-130532523D01*
X261031859Y-130532523D02*
X261108050Y-130456333D01*
X261108050Y-130456333D02*
X261146145Y-130342047D01*
X261146145Y-130342047D02*
X261146145Y-130151571D01*
X260346145Y-131294428D02*
X260346145Y-131142047D01*
X260346145Y-131142047D02*
X260384240Y-131065856D01*
X260384240Y-131065856D02*
X260422335Y-131027761D01*
X260422335Y-131027761D02*
X260536621Y-130951571D01*
X260536621Y-130951571D02*
X260689002Y-130913475D01*
X260689002Y-130913475D02*
X260993764Y-130913475D01*
X260993764Y-130913475D02*
X261069954Y-130951571D01*
X261069954Y-130951571D02*
X261108050Y-130989666D01*
X261108050Y-130989666D02*
X261146145Y-131065856D01*
X261146145Y-131065856D02*
X261146145Y-131218237D01*
X261146145Y-131218237D02*
X261108050Y-131294428D01*
X261108050Y-131294428D02*
X261069954Y-131332523D01*
X261069954Y-131332523D02*
X260993764Y-131370618D01*
X260993764Y-131370618D02*
X260803288Y-131370618D01*
X260803288Y-131370618D02*
X260727097Y-131332523D01*
X260727097Y-131332523D02*
X260689002Y-131294428D01*
X260689002Y-131294428D02*
X260650907Y-131218237D01*
X260650907Y-131218237D02*
X260650907Y-131065856D01*
X260650907Y-131065856D02*
X260689002Y-130989666D01*
X260689002Y-130989666D02*
X260727097Y-130951571D01*
X260727097Y-130951571D02*
X260803288Y-130913475D01*
X260612811Y-132056333D02*
X261146145Y-132056333D01*
X260308050Y-131865857D02*
X260879478Y-131675380D01*
X260879478Y-131675380D02*
X260879478Y-132170619D01*
D11*
X35319819Y-91792142D02*
X34843628Y-91458809D01*
X35319819Y-91220714D02*
X34319819Y-91220714D01*
X34319819Y-91220714D02*
X34319819Y-91601666D01*
X34319819Y-91601666D02*
X34367438Y-91696904D01*
X34367438Y-91696904D02*
X34415057Y-91744523D01*
X34415057Y-91744523D02*
X34510295Y-91792142D01*
X34510295Y-91792142D02*
X34653152Y-91792142D01*
X34653152Y-91792142D02*
X34748390Y-91744523D01*
X34748390Y-91744523D02*
X34796009Y-91696904D01*
X34796009Y-91696904D02*
X34843628Y-91601666D01*
X34843628Y-91601666D02*
X34843628Y-91220714D01*
X35319819Y-92744523D02*
X35319819Y-92173095D01*
X35319819Y-92458809D02*
X34319819Y-92458809D01*
X34319819Y-92458809D02*
X34462676Y-92363571D01*
X34462676Y-92363571D02*
X34557914Y-92268333D01*
X34557914Y-92268333D02*
X34605533Y-92173095D01*
X34415057Y-93125476D02*
X34367438Y-93173095D01*
X34367438Y-93173095D02*
X34319819Y-93268333D01*
X34319819Y-93268333D02*
X34319819Y-93506428D01*
X34319819Y-93506428D02*
X34367438Y-93601666D01*
X34367438Y-93601666D02*
X34415057Y-93649285D01*
X34415057Y-93649285D02*
X34510295Y-93696904D01*
X34510295Y-93696904D02*
X34605533Y-93696904D01*
X34605533Y-93696904D02*
X34748390Y-93649285D01*
X34748390Y-93649285D02*
X35319819Y-93077857D01*
X35319819Y-93077857D02*
X35319819Y-93696904D01*
D10*
X180183645Y-91971571D02*
X179383645Y-91971571D01*
X179383645Y-91971571D02*
X179383645Y-92162047D01*
X179383645Y-92162047D02*
X179421740Y-92276333D01*
X179421740Y-92276333D02*
X179497930Y-92352523D01*
X179497930Y-92352523D02*
X179574121Y-92390618D01*
X179574121Y-92390618D02*
X179726502Y-92428714D01*
X179726502Y-92428714D02*
X179840788Y-92428714D01*
X179840788Y-92428714D02*
X179993169Y-92390618D01*
X179993169Y-92390618D02*
X180069359Y-92352523D01*
X180069359Y-92352523D02*
X180145550Y-92276333D01*
X180145550Y-92276333D02*
X180183645Y-92162047D01*
X180183645Y-92162047D02*
X180183645Y-91971571D01*
X179383645Y-92695380D02*
X179383645Y-93190618D01*
X179383645Y-93190618D02*
X179688407Y-92923952D01*
X179688407Y-92923952D02*
X179688407Y-93038237D01*
X179688407Y-93038237D02*
X179726502Y-93114428D01*
X179726502Y-93114428D02*
X179764597Y-93152523D01*
X179764597Y-93152523D02*
X179840788Y-93190618D01*
X179840788Y-93190618D02*
X180031264Y-93190618D01*
X180031264Y-93190618D02*
X180107454Y-93152523D01*
X180107454Y-93152523D02*
X180145550Y-93114428D01*
X180145550Y-93114428D02*
X180183645Y-93038237D01*
X180183645Y-93038237D02*
X180183645Y-92809666D01*
X180183645Y-92809666D02*
X180145550Y-92733475D01*
X180145550Y-92733475D02*
X180107454Y-92695380D01*
X179383645Y-93457285D02*
X179383645Y-93990619D01*
X179383645Y-93990619D02*
X180183645Y-93647761D01*
D12*
%TO.C,J1*%
X49346875Y-145865000D02*
X72426875Y-145865000D01*
X49346875Y-148625000D02*
X49346875Y-145865000D01*
X49456875Y-143205000D02*
X49456875Y-144475000D01*
X50296875Y-145635000D02*
X50296875Y-145865000D01*
X50726875Y-143205000D02*
X49456875Y-143205000D01*
X51156875Y-145635000D02*
X51156875Y-145865000D01*
X51996875Y-145865000D02*
X51996875Y-148625000D01*
X52836875Y-145552358D02*
X52836875Y-145865000D01*
X53696875Y-145552358D02*
X53696875Y-145865000D01*
X54536875Y-145865000D02*
X54536875Y-148625000D01*
X55376875Y-145552358D02*
X55376875Y-145865000D01*
X56236875Y-145552358D02*
X56236875Y-145865000D01*
X57076875Y-145865000D02*
X57076875Y-148625000D01*
X57916875Y-145552358D02*
X57916875Y-145865000D01*
X58776875Y-145552358D02*
X58776875Y-145865000D01*
X59616875Y-145865000D02*
X59616875Y-148625000D01*
X60456875Y-145552358D02*
X60456875Y-145865000D01*
X61316875Y-145552358D02*
X61316875Y-145865000D01*
X62156875Y-145865000D02*
X62156875Y-148625000D01*
X62996875Y-145552358D02*
X62996875Y-145865000D01*
X63856875Y-145552358D02*
X63856875Y-145865000D01*
X64696875Y-145865000D02*
X64696875Y-148625000D01*
X65536875Y-145552358D02*
X65536875Y-145865000D01*
X66396875Y-145552358D02*
X66396875Y-145865000D01*
X67236875Y-145865000D02*
X67236875Y-148625000D01*
X68076875Y-145552358D02*
X68076875Y-145865000D01*
X68936875Y-145552358D02*
X68936875Y-145865000D01*
X69776875Y-145865000D02*
X69776875Y-148625000D01*
X70616875Y-145552358D02*
X70616875Y-145865000D01*
X71476875Y-145552358D02*
X71476875Y-145865000D01*
X72426875Y-145865000D02*
X72426875Y-148625000D01*
X72426875Y-148625000D02*
X49346875Y-148625000D01*
%TO.C,D21*%
X135803750Y-71865000D02*
X138043750Y-71865000D01*
X135803750Y-71985000D02*
X138043750Y-71985000D01*
X135803750Y-72105000D02*
X138043750Y-72105000D01*
X136923750Y-70615000D02*
X136923750Y-71265000D01*
X136923750Y-76155000D02*
X136923750Y-75505000D01*
X135803750Y-71265000D02*
X138043750Y-71265000D01*
X138043750Y-75505000D01*
X135803750Y-75505000D01*
X135803750Y-71265000D01*
%TO.C,D66*%
X259661250Y-148195000D02*
X261901250Y-148195000D01*
X259661250Y-148315000D02*
X261901250Y-148315000D01*
X259661250Y-148435000D02*
X261901250Y-148435000D01*
X260781250Y-146945000D02*
X260781250Y-147595000D01*
X260781250Y-152485000D02*
X260781250Y-151835000D01*
X259661250Y-147595000D02*
X261901250Y-147595000D01*
X261901250Y-151835000D01*
X259661250Y-151835000D01*
X259661250Y-147595000D01*
%TO.C,D34*%
X121548750Y-90915000D02*
X123788750Y-90915000D01*
X121548750Y-91035000D02*
X123788750Y-91035000D01*
X121548750Y-91155000D02*
X123788750Y-91155000D01*
X122668750Y-89665000D02*
X122668750Y-90315000D01*
X122668750Y-95205000D02*
X122668750Y-94555000D01*
X121548750Y-90315000D02*
X123788750Y-90315000D01*
X123788750Y-94555000D01*
X121548750Y-94555000D01*
X121548750Y-90315000D01*
%TO.C,D27*%
X250103750Y-71865000D02*
X252343750Y-71865000D01*
X250103750Y-71985000D02*
X252343750Y-71985000D01*
X250103750Y-72105000D02*
X252343750Y-72105000D01*
X251223750Y-70615000D02*
X251223750Y-71265000D01*
X251223750Y-76155000D02*
X251223750Y-75505000D01*
X250103750Y-71265000D02*
X252343750Y-71265000D01*
X252343750Y-75505000D01*
X250103750Y-75505000D01*
X250103750Y-71265000D01*
%TO.C,D23*%
X173903750Y-71865000D02*
X176143750Y-71865000D01*
X173903750Y-71985000D02*
X176143750Y-71985000D01*
X173903750Y-72105000D02*
X176143750Y-72105000D01*
X175023750Y-70615000D02*
X175023750Y-71265000D01*
X175023750Y-76155000D02*
X175023750Y-75505000D01*
X173903750Y-71265000D02*
X176143750Y-71265000D01*
X176143750Y-75505000D01*
X173903750Y-75505000D01*
X173903750Y-71265000D01*
%TO.C,D54*%
X245361250Y-109965000D02*
X247601250Y-109965000D01*
X245361250Y-110085000D02*
X247601250Y-110085000D01*
X245361250Y-110205000D02*
X247601250Y-110205000D01*
X246481250Y-108715000D02*
X246481250Y-109365000D01*
X246481250Y-114255000D02*
X246481250Y-113605000D01*
X245361250Y-109365000D02*
X247601250Y-109365000D01*
X247601250Y-113605000D01*
X245361250Y-113605000D01*
X245361250Y-109365000D01*
%TO.C,D6*%
X107261250Y-52815000D02*
X109501250Y-52815000D01*
X107261250Y-52935000D02*
X109501250Y-52935000D01*
X107261250Y-53055000D02*
X109501250Y-53055000D01*
X108381250Y-51565000D02*
X108381250Y-52215000D01*
X108381250Y-57105000D02*
X108381250Y-56455000D01*
X107261250Y-52215000D02*
X109501250Y-52215000D01*
X109501250Y-56455000D01*
X107261250Y-56455000D01*
X107261250Y-52215000D01*
%TO.C,D44*%
X42967500Y-109965000D02*
X45207500Y-109965000D01*
X42967500Y-110085000D02*
X45207500Y-110085000D01*
X42967500Y-110205000D02*
X45207500Y-110205000D01*
X44087500Y-108715000D02*
X44087500Y-109365000D01*
X44087500Y-114255000D02*
X44087500Y-113605000D01*
X42967500Y-109365000D02*
X45207500Y-109365000D01*
X45207500Y-113605000D01*
X42967500Y-113605000D01*
X42967500Y-109365000D01*
%TO.C,D26*%
X231053750Y-71865000D02*
X233293750Y-71865000D01*
X231053750Y-71985000D02*
X233293750Y-71985000D01*
X231053750Y-72105000D02*
X233293750Y-72105000D01*
X232173750Y-70615000D02*
X232173750Y-71265000D01*
X232173750Y-76155000D02*
X232173750Y-75505000D01*
X231053750Y-71265000D02*
X233293750Y-71265000D01*
X233293750Y-75505000D01*
X231053750Y-75505000D01*
X231053750Y-71265000D01*
%TO.C,D9*%
X164411250Y-52815000D02*
X166651250Y-52815000D01*
X164411250Y-52935000D02*
X166651250Y-52935000D01*
X164411250Y-53055000D02*
X166651250Y-53055000D01*
X165531250Y-51565000D02*
X165531250Y-52215000D01*
X165531250Y-57105000D02*
X165531250Y-56455000D01*
X164411250Y-52215000D02*
X166651250Y-52215000D01*
X166651250Y-56455000D01*
X164411250Y-56455000D01*
X164411250Y-52215000D01*
%TO.C,D51*%
X188211250Y-109965000D02*
X190451250Y-109965000D01*
X188211250Y-110085000D02*
X190451250Y-110085000D01*
X188211250Y-110205000D02*
X190451250Y-110205000D01*
X189331250Y-108715000D02*
X189331250Y-109365000D01*
X189331250Y-114255000D02*
X189331250Y-113605000D01*
X188211250Y-109365000D02*
X190451250Y-109365000D01*
X190451250Y-113605000D01*
X188211250Y-113605000D01*
X188211250Y-109365000D01*
%TO.C,D11*%
X202511250Y-52815000D02*
X204751250Y-52815000D01*
X202511250Y-52935000D02*
X204751250Y-52935000D01*
X202511250Y-53055000D02*
X204751250Y-53055000D01*
X203631250Y-51565000D02*
X203631250Y-52215000D01*
X203631250Y-57105000D02*
X203631250Y-56455000D01*
X202511250Y-52215000D02*
X204751250Y-52215000D01*
X204751250Y-56455000D01*
X202511250Y-56455000D01*
X202511250Y-52215000D01*
%TO.C,D5*%
X88211250Y-52815000D02*
X90451250Y-52815000D01*
X88211250Y-52935000D02*
X90451250Y-52935000D01*
X88211250Y-53055000D02*
X90451250Y-53055000D01*
X89331250Y-51565000D02*
X89331250Y-52215000D01*
X89331250Y-57105000D02*
X89331250Y-56455000D01*
X88211250Y-52215000D02*
X90451250Y-52215000D01*
X90451250Y-56455000D01*
X88211250Y-56455000D01*
X88211250Y-52215000D01*
%TO.C,D61*%
X152505000Y-129095000D02*
X154745000Y-129095000D01*
X152505000Y-129215000D02*
X154745000Y-129215000D01*
X152505000Y-129335000D02*
X154745000Y-129335000D01*
X153625000Y-127845000D02*
X153625000Y-128495000D01*
X153625000Y-133385000D02*
X153625000Y-132735000D01*
X152505000Y-128495000D02*
X154745000Y-128495000D01*
X154745000Y-132735000D01*
X152505000Y-132735000D01*
X152505000Y-128495000D01*
%TO.C,D38*%
X197748750Y-90915000D02*
X199988750Y-90915000D01*
X197748750Y-91035000D02*
X199988750Y-91035000D01*
X197748750Y-91155000D02*
X199988750Y-91155000D01*
X198868750Y-89665000D02*
X198868750Y-90315000D01*
X198868750Y-95205000D02*
X198868750Y-94555000D01*
X197748750Y-90315000D02*
X199988750Y-90315000D01*
X199988750Y-94555000D01*
X197748750Y-94555000D01*
X197748750Y-90315000D01*
%TO.C,D20*%
X116753750Y-71865000D02*
X118993750Y-71865000D01*
X116753750Y-71985000D02*
X118993750Y-71985000D01*
X116753750Y-72105000D02*
X118993750Y-72105000D01*
X117873750Y-70615000D02*
X117873750Y-71265000D01*
X117873750Y-76155000D02*
X117873750Y-75505000D01*
X116753750Y-71265000D02*
X118993750Y-71265000D01*
X118993750Y-75505000D01*
X116753750Y-75505000D01*
X116753750Y-71265000D01*
%TO.C,U1*%
X89414583Y-147505000D02*
X109854583Y-147505000D01*
X89414583Y-149155000D02*
X89414583Y-147505000D01*
X89414583Y-152805000D02*
X89414583Y-151155000D01*
X109854583Y-147505000D02*
X109854583Y-152805000D01*
X109854583Y-152805000D02*
X89414583Y-152805000D01*
X89414583Y-149155000D02*
G75*
G02*
X89414583Y-151155000I0J-1000000D01*
G01*
%TO.C,D22*%
X154853750Y-71865000D02*
X157093750Y-71865000D01*
X154853750Y-71985000D02*
X157093750Y-71985000D01*
X154853750Y-72105000D02*
X157093750Y-72105000D01*
X155973750Y-70615000D02*
X155973750Y-71265000D01*
X155973750Y-76155000D02*
X155973750Y-75505000D01*
X154853750Y-71265000D02*
X157093750Y-71265000D01*
X157093750Y-75505000D01*
X154853750Y-75505000D01*
X154853750Y-71265000D01*
%TO.C,D59*%
X57255000Y-129095000D02*
X59495000Y-129095000D01*
X57255000Y-129215000D02*
X59495000Y-129215000D01*
X57255000Y-129335000D02*
X59495000Y-129335000D01*
X58375000Y-127845000D02*
X58375000Y-128495000D01*
X58375000Y-133385000D02*
X58375000Y-132735000D01*
X57255000Y-128495000D02*
X59495000Y-128495000D01*
X59495000Y-132735000D01*
X57255000Y-132735000D01*
X57255000Y-128495000D01*
%TO.C,D30*%
X38205000Y-90915000D02*
X40445000Y-90915000D01*
X38205000Y-91035000D02*
X40445000Y-91035000D01*
X38205000Y-91155000D02*
X40445000Y-91155000D01*
X39325000Y-89665000D02*
X39325000Y-90315000D01*
X39325000Y-95205000D02*
X39325000Y-94555000D01*
X38205000Y-90315000D02*
X40445000Y-90315000D01*
X40445000Y-94555000D01*
X38205000Y-94555000D01*
X38205000Y-90315000D01*
%TO.C,D69*%
X281080000Y-109965000D02*
X283320000Y-109965000D01*
X281080000Y-110085000D02*
X283320000Y-110085000D01*
X281080000Y-110205000D02*
X283320000Y-110205000D01*
X282200000Y-108715000D02*
X282200000Y-109365000D01*
X282200000Y-114255000D02*
X282200000Y-113605000D01*
X281080000Y-109365000D02*
X283320000Y-109365000D01*
X283320000Y-113605000D01*
X281080000Y-113605000D01*
X281080000Y-109365000D01*
%TO.C,D53*%
X226311250Y-109965000D02*
X228551250Y-109965000D01*
X226311250Y-110085000D02*
X228551250Y-110085000D01*
X226311250Y-110205000D02*
X228551250Y-110205000D01*
X227431250Y-108715000D02*
X227431250Y-109365000D01*
X227431250Y-114255000D02*
X227431250Y-113605000D01*
X226311250Y-109365000D02*
X228551250Y-109365000D01*
X228551250Y-113605000D01*
X226311250Y-113605000D01*
X226311250Y-109365000D01*
%TO.C,D12*%
X221561250Y-52815000D02*
X223801250Y-52815000D01*
X221561250Y-52935000D02*
X223801250Y-52935000D01*
X221561250Y-53055000D02*
X223801250Y-53055000D01*
X222681250Y-51565000D02*
X222681250Y-52215000D01*
X222681250Y-57105000D02*
X222681250Y-56455000D01*
X221561250Y-52215000D02*
X223801250Y-52215000D01*
X223801250Y-56455000D01*
X221561250Y-56455000D01*
X221561250Y-52215000D01*
%TO.C,RN1*%
X126232292Y-156465000D02*
X139092292Y-156465000D01*
X126232292Y-159085000D02*
X126232292Y-156465000D01*
X136472292Y-156465000D02*
X136472292Y-159085000D01*
X139092292Y-156465000D02*
X139092292Y-159085000D01*
X139092292Y-159085000D02*
X126232292Y-159085000D01*
%TO.C,D52*%
X207261250Y-109965000D02*
X209501250Y-109965000D01*
X207261250Y-110085000D02*
X209501250Y-110085000D01*
X207261250Y-110205000D02*
X209501250Y-110205000D01*
X208381250Y-108715000D02*
X208381250Y-109365000D01*
X208381250Y-114255000D02*
X208381250Y-113605000D01*
X207261250Y-109365000D02*
X209501250Y-109365000D01*
X209501250Y-113605000D01*
X207261250Y-113605000D01*
X207261250Y-109365000D01*
%TO.C,D70*%
X297761250Y-129095000D02*
X300001250Y-129095000D01*
X297761250Y-129215000D02*
X300001250Y-129215000D01*
X297761250Y-129335000D02*
X300001250Y-129335000D01*
X298881250Y-127845000D02*
X298881250Y-128495000D01*
X298881250Y-133385000D02*
X298881250Y-132735000D01*
X297761250Y-128495000D02*
X300001250Y-128495000D01*
X300001250Y-132735000D01*
X297761250Y-132735000D01*
X297761250Y-128495000D01*
%TO.C,D55*%
X292966250Y-71865000D02*
X295206250Y-71865000D01*
X292966250Y-71985000D02*
X295206250Y-71985000D01*
X292966250Y-72105000D02*
X295206250Y-72105000D01*
X294086250Y-70615000D02*
X294086250Y-71265000D01*
X294086250Y-76155000D02*
X294086250Y-75505000D01*
X292966250Y-71265000D02*
X295206250Y-71265000D01*
X295206250Y-75505000D01*
X292966250Y-75505000D01*
X292966250Y-71265000D01*
%TO.C,D24*%
X192953750Y-71865000D02*
X195193750Y-71865000D01*
X192953750Y-71985000D02*
X195193750Y-71985000D01*
X192953750Y-72105000D02*
X195193750Y-72105000D01*
X194073750Y-70615000D02*
X194073750Y-71265000D01*
X194073750Y-76155000D02*
X194073750Y-75505000D01*
X192953750Y-71265000D02*
X195193750Y-71265000D01*
X195193750Y-75505000D01*
X192953750Y-75505000D01*
X192953750Y-71265000D01*
%TO.C,D45*%
X73911250Y-109965000D02*
X76151250Y-109965000D01*
X73911250Y-110085000D02*
X76151250Y-110085000D01*
X73911250Y-110205000D02*
X76151250Y-110205000D01*
X75031250Y-108715000D02*
X75031250Y-109365000D01*
X75031250Y-114255000D02*
X75031250Y-113605000D01*
X73911250Y-109365000D02*
X76151250Y-109365000D01*
X76151250Y-113605000D01*
X73911250Y-113605000D01*
X73911250Y-109365000D01*
%TO.C,D18*%
X78653750Y-71865000D02*
X80893750Y-71865000D01*
X78653750Y-71985000D02*
X80893750Y-71985000D01*
X78653750Y-72105000D02*
X80893750Y-72105000D01*
X79773750Y-70615000D02*
X79773750Y-71265000D01*
X79773750Y-76155000D02*
X79773750Y-75505000D01*
X78653750Y-71265000D02*
X80893750Y-71265000D01*
X80893750Y-75505000D01*
X78653750Y-75505000D01*
X78653750Y-71265000D01*
%TO.C,D39*%
X216798750Y-90915000D02*
X219038750Y-90915000D01*
X216798750Y-91035000D02*
X219038750Y-91035000D01*
X216798750Y-91155000D02*
X219038750Y-91155000D01*
X217918750Y-89665000D02*
X217918750Y-90315000D01*
X217918750Y-95205000D02*
X217918750Y-94555000D01*
X216798750Y-90315000D02*
X219038750Y-90315000D01*
X219038750Y-94555000D01*
X216798750Y-94555000D01*
X216798750Y-90315000D01*
%TO.C,D35*%
X140598750Y-90915000D02*
X142838750Y-90915000D01*
X140598750Y-91035000D02*
X142838750Y-91035000D01*
X140598750Y-91155000D02*
X142838750Y-91155000D01*
X141718750Y-89665000D02*
X141718750Y-90315000D01*
X141718750Y-95205000D02*
X141718750Y-94555000D01*
X140598750Y-90315000D02*
X142838750Y-90315000D01*
X142838750Y-94555000D01*
X140598750Y-94555000D01*
X140598750Y-90315000D01*
%TO.C,C3*%
X85564583Y-147530000D02*
X85564583Y-152770000D01*
X85564583Y-152770000D02*
X85901583Y-152770000D01*
X85901583Y-147530000D02*
X85564583Y-147530000D01*
X87967583Y-152770000D02*
X88304583Y-152770000D01*
X88304583Y-147530000D02*
X87967583Y-147530000D01*
X88304583Y-152770000D02*
X88304583Y-147530000D01*
%TO.C,D50*%
X169161250Y-109965000D02*
X171401250Y-109965000D01*
X169161250Y-110085000D02*
X171401250Y-110085000D01*
X169161250Y-110205000D02*
X171401250Y-110205000D01*
X170281250Y-108715000D02*
X170281250Y-109365000D01*
X170281250Y-114255000D02*
X170281250Y-113605000D01*
X169161250Y-109365000D02*
X171401250Y-109365000D01*
X171401250Y-113605000D01*
X169161250Y-113605000D01*
X169161250Y-109365000D01*
%TO.C,D49*%
X150111250Y-109965000D02*
X152351250Y-109965000D01*
X150111250Y-110085000D02*
X152351250Y-110085000D01*
X150111250Y-110205000D02*
X152351250Y-110205000D01*
X151231250Y-108715000D02*
X151231250Y-109365000D01*
X151231250Y-114255000D02*
X151231250Y-113605000D01*
X150111250Y-109365000D02*
X152351250Y-109365000D01*
X152351250Y-113605000D01*
X150111250Y-113605000D01*
X150111250Y-109365000D01*
%TO.C,D36*%
X159648750Y-90915000D02*
X161888750Y-90915000D01*
X159648750Y-91035000D02*
X161888750Y-91035000D01*
X159648750Y-91155000D02*
X161888750Y-91155000D01*
X160768750Y-89665000D02*
X160768750Y-90315000D01*
X160768750Y-95205000D02*
X160768750Y-94555000D01*
X159648750Y-90315000D02*
X161888750Y-90315000D01*
X161888750Y-94555000D01*
X159648750Y-94555000D01*
X159648750Y-90315000D01*
%TO.C,D40*%
X235848750Y-90915000D02*
X238088750Y-90915000D01*
X235848750Y-91035000D02*
X238088750Y-91035000D01*
X235848750Y-91155000D02*
X238088750Y-91155000D01*
X236968750Y-89665000D02*
X236968750Y-90315000D01*
X236968750Y-95205000D02*
X236968750Y-94555000D01*
X235848750Y-90315000D02*
X238088750Y-90315000D01*
X238088750Y-94555000D01*
X235848750Y-94555000D01*
X235848750Y-90315000D01*
%TO.C,D47*%
X112011250Y-109965000D02*
X114251250Y-109965000D01*
X112011250Y-110085000D02*
X114251250Y-110085000D01*
X112011250Y-110205000D02*
X114251250Y-110205000D01*
X113131250Y-108715000D02*
X113131250Y-109365000D01*
X113131250Y-114255000D02*
X113131250Y-113605000D01*
X112011250Y-109365000D02*
X114251250Y-109365000D01*
X114251250Y-113605000D01*
X112011250Y-113605000D01*
X112011250Y-109365000D01*
%TO.C,D3*%
X50111250Y-52815000D02*
X52351250Y-52815000D01*
X50111250Y-52935000D02*
X52351250Y-52935000D01*
X50111250Y-53055000D02*
X52351250Y-53055000D01*
X51231250Y-51565000D02*
X51231250Y-52215000D01*
X51231250Y-57105000D02*
X51231250Y-56455000D01*
X50111250Y-52215000D02*
X52351250Y-52215000D01*
X52351250Y-56455000D01*
X50111250Y-56455000D01*
X50111250Y-52215000D01*
%TO.C,D65*%
X278711250Y-129095000D02*
X280951250Y-129095000D01*
X278711250Y-129215000D02*
X280951250Y-129215000D01*
X278711250Y-129335000D02*
X280951250Y-129335000D01*
X279831250Y-127845000D02*
X279831250Y-128495000D01*
X279831250Y-133385000D02*
X279831250Y-132735000D01*
X278711250Y-128495000D02*
X280951250Y-128495000D01*
X280951250Y-132735000D01*
X278711250Y-132735000D01*
X278711250Y-128495000D01*
%TO.C,D7*%
X126311250Y-52815000D02*
X128551250Y-52815000D01*
X126311250Y-52935000D02*
X128551250Y-52935000D01*
X126311250Y-53055000D02*
X128551250Y-53055000D01*
X127431250Y-51565000D02*
X127431250Y-52215000D01*
X127431250Y-57105000D02*
X127431250Y-56455000D01*
X126311250Y-52215000D02*
X128551250Y-52215000D01*
X128551250Y-56455000D01*
X126311250Y-56455000D01*
X126311250Y-52215000D01*
%TO.C,D58*%
X33442500Y-129095000D02*
X35682500Y-129095000D01*
X33442500Y-129215000D02*
X35682500Y-129215000D01*
X33442500Y-129335000D02*
X35682500Y-129335000D01*
X34562500Y-127845000D02*
X34562500Y-128495000D01*
X34562500Y-133385000D02*
X34562500Y-132735000D01*
X33442500Y-128495000D02*
X35682500Y-128495000D01*
X35682500Y-132735000D01*
X33442500Y-132735000D01*
X33442500Y-128495000D01*
%TO.C,D14*%
X259661250Y-52815000D02*
X261901250Y-52815000D01*
X259661250Y-52935000D02*
X261901250Y-52935000D01*
X259661250Y-53055000D02*
X261901250Y-53055000D01*
X260781250Y-51565000D02*
X260781250Y-52215000D01*
X260781250Y-57105000D02*
X260781250Y-56455000D01*
X259661250Y-52215000D02*
X261901250Y-52215000D01*
X261901250Y-56455000D01*
X259661250Y-56455000D01*
X259661250Y-52215000D01*
%TO.C,D63*%
X240611250Y-129095000D02*
X242851250Y-129095000D01*
X240611250Y-129215000D02*
X242851250Y-129215000D01*
X240611250Y-129335000D02*
X242851250Y-129335000D01*
X241731250Y-127845000D02*
X241731250Y-128495000D01*
X241731250Y-133385000D02*
X241731250Y-132735000D01*
X240611250Y-128495000D02*
X242851250Y-128495000D01*
X242851250Y-132735000D01*
X240611250Y-132735000D01*
X240611250Y-128495000D01*
%TO.C,D56*%
X285855000Y-90915000D02*
X288095000Y-90915000D01*
X285855000Y-91035000D02*
X288095000Y-91035000D01*
X285855000Y-91155000D02*
X288095000Y-91155000D01*
X286975000Y-89665000D02*
X286975000Y-90315000D01*
X286975000Y-95205000D02*
X286975000Y-94555000D01*
X285855000Y-90315000D02*
X288095000Y-90315000D01*
X288095000Y-94555000D01*
X285855000Y-94555000D01*
X285855000Y-90315000D01*
%TO.C,D42*%
X288203750Y-52815000D02*
X290443750Y-52815000D01*
X288203750Y-52935000D02*
X290443750Y-52935000D01*
X288203750Y-53055000D02*
X290443750Y-53055000D01*
X289323750Y-51565000D02*
X289323750Y-52215000D01*
X289323750Y-57105000D02*
X289323750Y-56455000D01*
X288203750Y-52215000D02*
X290443750Y-52215000D01*
X290443750Y-56455000D01*
X288203750Y-56455000D01*
X288203750Y-52215000D01*
%TO.C,U2*%
X121172292Y-147505000D02*
X141612292Y-147505000D01*
X121172292Y-149155000D02*
X121172292Y-147505000D01*
X121172292Y-152805000D02*
X121172292Y-151155000D01*
X141612292Y-147505000D02*
X141612292Y-152805000D01*
X141612292Y-152805000D02*
X121172292Y-152805000D01*
X121172292Y-149155000D02*
G75*
G02*
X121172292Y-151155000I0J-1000000D01*
G01*
%TO.C,RN2*%
X123692292Y-141225000D02*
X136552292Y-141225000D01*
X123692292Y-143845000D02*
X123692292Y-141225000D01*
X126312292Y-143845000D02*
X126312292Y-141225000D01*
X136552292Y-141225000D02*
X136552292Y-143845000D01*
X136552292Y-143845000D02*
X123692292Y-143845000D01*
%TO.C,D67*%
X278711250Y-148195000D02*
X280951250Y-148195000D01*
X278711250Y-148315000D02*
X280951250Y-148315000D01*
X278711250Y-148435000D02*
X280951250Y-148435000D01*
X279831250Y-146945000D02*
X279831250Y-147595000D01*
X279831250Y-152485000D02*
X279831250Y-151835000D01*
X278711250Y-147595000D02*
X280951250Y-147595000D01*
X280951250Y-151835000D01*
X278711250Y-151835000D01*
X278711250Y-147595000D01*
%TO.C,D8*%
X145361250Y-52815000D02*
X147601250Y-52815000D01*
X145361250Y-52935000D02*
X147601250Y-52935000D01*
X145361250Y-53055000D02*
X147601250Y-53055000D01*
X146481250Y-51565000D02*
X146481250Y-52215000D01*
X146481250Y-57105000D02*
X146481250Y-56455000D01*
X145361250Y-52215000D02*
X147601250Y-52215000D01*
X147601250Y-56455000D01*
X145361250Y-56455000D01*
X145361250Y-52215000D01*
%TO.C,D31*%
X64398750Y-90915000D02*
X66638750Y-90915000D01*
X64398750Y-91035000D02*
X66638750Y-91035000D01*
X64398750Y-91155000D02*
X66638750Y-91155000D01*
X65518750Y-89665000D02*
X65518750Y-90315000D01*
X65518750Y-95205000D02*
X65518750Y-94555000D01*
X64398750Y-90315000D02*
X66638750Y-90315000D01*
X66638750Y-94555000D01*
X64398750Y-94555000D01*
X64398750Y-90315000D01*
%TO.C,D32*%
X83448750Y-90915000D02*
X85688750Y-90915000D01*
X83448750Y-91035000D02*
X85688750Y-91035000D01*
X83448750Y-91155000D02*
X85688750Y-91155000D01*
X84568750Y-89665000D02*
X84568750Y-90315000D01*
X84568750Y-95205000D02*
X84568750Y-94555000D01*
X83448750Y-90315000D02*
X85688750Y-90315000D01*
X85688750Y-94555000D01*
X83448750Y-94555000D01*
X83448750Y-90315000D01*
%TO.C,D25*%
X212003750Y-71865000D02*
X214243750Y-71865000D01*
X212003750Y-71985000D02*
X214243750Y-71985000D01*
X212003750Y-72105000D02*
X214243750Y-72105000D01*
X213123750Y-70615000D02*
X213123750Y-71265000D01*
X213123750Y-76155000D02*
X213123750Y-75505000D01*
X212003750Y-71265000D02*
X214243750Y-71265000D01*
X214243750Y-75505000D01*
X212003750Y-75505000D01*
X212003750Y-71265000D01*
%TO.C,D17*%
X59603750Y-71865000D02*
X61843750Y-71865000D01*
X59603750Y-71985000D02*
X61843750Y-71985000D01*
X59603750Y-72105000D02*
X61843750Y-72105000D01*
X60723750Y-70615000D02*
X60723750Y-71265000D01*
X60723750Y-76155000D02*
X60723750Y-75505000D01*
X59603750Y-71265000D02*
X61843750Y-71265000D01*
X61843750Y-75505000D01*
X59603750Y-75505000D01*
X59603750Y-71265000D01*
%TO.C,D13*%
X240611250Y-52815000D02*
X242851250Y-52815000D01*
X240611250Y-52935000D02*
X242851250Y-52935000D01*
X240611250Y-53055000D02*
X242851250Y-53055000D01*
X241731250Y-51565000D02*
X241731250Y-52215000D01*
X241731250Y-57105000D02*
X241731250Y-56455000D01*
X240611250Y-52215000D02*
X242851250Y-52215000D01*
X242851250Y-56455000D01*
X240611250Y-56455000D01*
X240611250Y-52215000D01*
%TO.C,C1*%
X149080000Y-147530000D02*
X149080000Y-152770000D01*
X149080000Y-152770000D02*
X149417000Y-152770000D01*
X149417000Y-147530000D02*
X149080000Y-147530000D01*
X151483000Y-152770000D02*
X151820000Y-152770000D01*
X151820000Y-147530000D02*
X151483000Y-147530000D01*
X151820000Y-152770000D02*
X151820000Y-147530000D01*
%TO.C,D19*%
X97703750Y-71865000D02*
X99943750Y-71865000D01*
X97703750Y-71985000D02*
X99943750Y-71985000D01*
X97703750Y-72105000D02*
X99943750Y-72105000D01*
X98823750Y-70615000D02*
X98823750Y-71265000D01*
X98823750Y-76155000D02*
X98823750Y-75505000D01*
X97703750Y-71265000D02*
X99943750Y-71265000D01*
X99943750Y-75505000D01*
X97703750Y-75505000D01*
X97703750Y-71265000D01*
%TO.C,D2*%
X31061250Y-52815000D02*
X33301250Y-52815000D01*
X31061250Y-52935000D02*
X33301250Y-52935000D01*
X31061250Y-53055000D02*
X33301250Y-53055000D01*
X32181250Y-51565000D02*
X32181250Y-52215000D01*
X32181250Y-57105000D02*
X32181250Y-56455000D01*
X31061250Y-52215000D02*
X33301250Y-52215000D01*
X33301250Y-56455000D01*
X31061250Y-56455000D01*
X31061250Y-52215000D01*
%TO.C,C2*%
X117322292Y-147530000D02*
X117322292Y-152770000D01*
X117322292Y-152770000D02*
X117659292Y-152770000D01*
X117659292Y-147530000D02*
X117322292Y-147530000D01*
X119725292Y-152770000D02*
X120062292Y-152770000D01*
X120062292Y-147530000D02*
X119725292Y-147530000D01*
X120062292Y-152770000D02*
X120062292Y-147530000D01*
%TO.C,D10*%
X183461250Y-52815000D02*
X185701250Y-52815000D01*
X183461250Y-52935000D02*
X185701250Y-52935000D01*
X183461250Y-53055000D02*
X185701250Y-53055000D01*
X184581250Y-51565000D02*
X184581250Y-52215000D01*
X184581250Y-57105000D02*
X184581250Y-56455000D01*
X183461250Y-52215000D02*
X185701250Y-52215000D01*
X185701250Y-56455000D01*
X183461250Y-56455000D01*
X183461250Y-52215000D01*
%TO.C,D46*%
X92961250Y-109965000D02*
X95201250Y-109965000D01*
X92961250Y-110085000D02*
X95201250Y-110085000D01*
X92961250Y-110205000D02*
X95201250Y-110205000D01*
X94081250Y-108715000D02*
X94081250Y-109365000D01*
X94081250Y-114255000D02*
X94081250Y-113605000D01*
X92961250Y-109365000D02*
X95201250Y-109365000D01*
X95201250Y-113605000D01*
X92961250Y-113605000D01*
X92961250Y-109365000D01*
%TO.C,D62*%
X221561250Y-129095000D02*
X223801250Y-129095000D01*
X221561250Y-129215000D02*
X223801250Y-129215000D01*
X221561250Y-129335000D02*
X223801250Y-129335000D01*
X222681250Y-127845000D02*
X222681250Y-128495000D01*
X222681250Y-133385000D02*
X222681250Y-132735000D01*
X221561250Y-128495000D02*
X223801250Y-128495000D01*
X223801250Y-132735000D01*
X221561250Y-132735000D01*
X221561250Y-128495000D01*
%TO.C,D60*%
X81067500Y-129095000D02*
X83307500Y-129095000D01*
X81067500Y-129215000D02*
X83307500Y-129215000D01*
X81067500Y-129335000D02*
X83307500Y-129335000D01*
X82187500Y-127845000D02*
X82187500Y-128495000D01*
X82187500Y-133385000D02*
X82187500Y-132735000D01*
X81067500Y-128495000D02*
X83307500Y-128495000D01*
X83307500Y-132735000D01*
X81067500Y-132735000D01*
X81067500Y-128495000D01*
%TO.C,RN3*%
X157990000Y-156465000D02*
X170850000Y-156465000D01*
X157990000Y-159085000D02*
X157990000Y-156465000D01*
X168230000Y-156465000D02*
X168230000Y-159085000D01*
X170850000Y-156465000D02*
X170850000Y-159085000D01*
X170850000Y-159085000D02*
X157990000Y-159085000D01*
%TO.C,U3*%
X152930000Y-147505000D02*
X173370000Y-147505000D01*
X152930000Y-149155000D02*
X152930000Y-147505000D01*
X152930000Y-152805000D02*
X152930000Y-151155000D01*
X173370000Y-147505000D02*
X173370000Y-152805000D01*
X173370000Y-152805000D02*
X152930000Y-152805000D01*
X152930000Y-149155000D02*
G75*
G02*
X152930000Y-151155000I0J-1000000D01*
G01*
%TO.C,D41*%
X254898750Y-90915000D02*
X257138750Y-90915000D01*
X254898750Y-91035000D02*
X257138750Y-91035000D01*
X254898750Y-91155000D02*
X257138750Y-91155000D01*
X256018750Y-89665000D02*
X256018750Y-90315000D01*
X256018750Y-95205000D02*
X256018750Y-94555000D01*
X254898750Y-90315000D02*
X257138750Y-90315000D01*
X257138750Y-94555000D01*
X254898750Y-94555000D01*
X254898750Y-90315000D01*
%TO.C,D68*%
X297761250Y-148195000D02*
X300001250Y-148195000D01*
X297761250Y-148315000D02*
X300001250Y-148315000D01*
X297761250Y-148435000D02*
X300001250Y-148435000D01*
X298881250Y-146945000D02*
X298881250Y-147595000D01*
X298881250Y-152485000D02*
X298881250Y-151835000D01*
X297761250Y-147595000D02*
X300001250Y-147595000D01*
X300001250Y-151835000D01*
X297761250Y-151835000D01*
X297761250Y-147595000D01*
%TO.C,D48*%
X131061250Y-109965000D02*
X133301250Y-109965000D01*
X131061250Y-110085000D02*
X133301250Y-110085000D01*
X131061250Y-110205000D02*
X133301250Y-110205000D01*
X132181250Y-108715000D02*
X132181250Y-109365000D01*
X132181250Y-114255000D02*
X132181250Y-113605000D01*
X131061250Y-109365000D02*
X133301250Y-109365000D01*
X133301250Y-113605000D01*
X131061250Y-113605000D01*
X131061250Y-109365000D01*
%TO.C,D4*%
X69161250Y-52815000D02*
X71401250Y-52815000D01*
X69161250Y-52935000D02*
X71401250Y-52935000D01*
X69161250Y-53055000D02*
X71401250Y-53055000D01*
X70281250Y-51565000D02*
X70281250Y-52215000D01*
X70281250Y-57105000D02*
X70281250Y-56455000D01*
X69161250Y-52215000D02*
X71401250Y-52215000D01*
X71401250Y-56455000D01*
X69161250Y-56455000D01*
X69161250Y-52215000D01*
%TO.C,D28*%
X269153750Y-71865000D02*
X271393750Y-71865000D01*
X269153750Y-71985000D02*
X271393750Y-71985000D01*
X269153750Y-72105000D02*
X271393750Y-72105000D01*
X270273750Y-70615000D02*
X270273750Y-71265000D01*
X270273750Y-76155000D02*
X270273750Y-75505000D01*
X269153750Y-71265000D02*
X271393750Y-71265000D01*
X271393750Y-75505000D01*
X269153750Y-75505000D01*
X269153750Y-71265000D01*
%TO.C,D16*%
X35823750Y-71865000D02*
X38063750Y-71865000D01*
X35823750Y-71985000D02*
X38063750Y-71985000D01*
X35823750Y-72105000D02*
X38063750Y-72105000D01*
X36943750Y-70615000D02*
X36943750Y-71265000D01*
X36943750Y-76155000D02*
X36943750Y-75505000D01*
X35823750Y-71265000D02*
X38063750Y-71265000D01*
X38063750Y-75505000D01*
X35823750Y-75505000D01*
X35823750Y-71265000D01*
%TO.C,D33*%
X102498750Y-90915000D02*
X104738750Y-90915000D01*
X102498750Y-91035000D02*
X104738750Y-91035000D01*
X102498750Y-91155000D02*
X104738750Y-91155000D01*
X103618750Y-89665000D02*
X103618750Y-90315000D01*
X103618750Y-95205000D02*
X103618750Y-94555000D01*
X102498750Y-90315000D02*
X104738750Y-90315000D01*
X104738750Y-94555000D01*
X102498750Y-94555000D01*
X102498750Y-90315000D01*
%TO.C,D64*%
X259661250Y-129095000D02*
X261901250Y-129095000D01*
X259661250Y-129215000D02*
X261901250Y-129215000D01*
X259661250Y-129335000D02*
X261901250Y-129335000D01*
X260781250Y-127845000D02*
X260781250Y-128495000D01*
X260781250Y-133385000D02*
X260781250Y-132735000D01*
X259661250Y-128495000D02*
X261901250Y-128495000D01*
X261901250Y-132735000D01*
X259661250Y-132735000D01*
X259661250Y-128495000D01*
%TO.C,R12*%
X36785000Y-89565000D02*
X36785000Y-90515000D01*
X36785000Y-95305000D02*
X36785000Y-94355000D01*
X35865000Y-90515000D02*
X37705000Y-90515000D01*
X37705000Y-94355000D01*
X35865000Y-94355000D01*
X35865000Y-90515000D01*
%TO.C,D37*%
X178698750Y-90915000D02*
X180938750Y-90915000D01*
X178698750Y-91035000D02*
X180938750Y-91035000D01*
X178698750Y-91155000D02*
X180938750Y-91155000D01*
X179818750Y-89665000D02*
X179818750Y-90315000D01*
X179818750Y-95205000D02*
X179818750Y-94555000D01*
X178698750Y-90315000D02*
X180938750Y-90315000D01*
X180938750Y-94555000D01*
X178698750Y-94555000D01*
X178698750Y-90315000D01*
%TD*%
M02*
