%TF.GenerationSoftware,KiCad,Pcbnew,9.0.6*%
%TF.CreationDate,2026-03-22T06:21:44-04:00*%
%TF.ProjectId,Keyboard,4b657962-6f61-4726-942e-6b696361645f,rev?*%
%TF.SameCoordinates,Original*%
%TF.FileFunction,Copper,L1,Top*%
%TF.FilePolarity,Positive*%
%FSLAX46Y46*%
G04 Gerber Fmt 4.6, Leading zero omitted, Abs format (unit mm)*
G04 Created by KiCad (PCBNEW 9.0.6) date 2026-03-22 06:21:44*
%MOMM*%
%LPD*%
G01*
G04 APERTURE LIST*
%TA.AperFunction,ComponentPad*%
%ADD10C,2.200000*%
%TD*%
G04 APERTURE END LIST*
D10*
%TO.P,SW36,1,1*%
%TO.N,unconnected-(SW36-Pad1)*%
X172833750Y-87355000D03*
%TO.P,SW36,2,2*%
%TO.N,unconnected-(SW36-Pad2)*%
X166483750Y-89895000D03*
%TD*%
%TO.P,SW2,1,1*%
%TO.N,unconnected-(SW2-Pad1)*%
X44246250Y-49255000D03*
%TO.P,SW2,2,2*%
%TO.N,unconnected-(SW2-Pad2)*%
X37896250Y-51795000D03*
%TD*%
%TO.P,SW64,1,1*%
%TO.N,unconnected-(SW64-Pad1)*%
X310696250Y-144635000D03*
%TO.P,SW64,2,2*%
%TO.N,unconnected-(SW64-Pad2)*%
X304346250Y-147175000D03*
%TD*%
%TO.P,SW11,1,1*%
%TO.N,unconnected-(SW11-Pad1)*%
X215696250Y-49255000D03*
%TO.P,SW11,2,2*%
%TO.N,unconnected-(SW11-Pad2)*%
X209346250Y-51795000D03*
%TD*%
%TO.P,SW49,1,1*%
%TO.N,unconnected-(SW49-Pad1)*%
X182346250Y-106405000D03*
%TO.P,SW49,2,2*%
%TO.N,unconnected-(SW49-Pad2)*%
X175996250Y-108945000D03*
%TD*%
%TO.P,SW6,1,1*%
%TO.N,unconnected-(SW6-Pad1)*%
X120446250Y-49255000D03*
%TO.P,SW6,2,2*%
%TO.N,unconnected-(SW6-Pad2)*%
X114096250Y-51795000D03*
%TD*%
%TO.P,SW27,1,1*%
%TO.N,unconnected-(SW27-Pad1)*%
X263288750Y-68305000D03*
%TO.P,SW27,2,2*%
%TO.N,unconnected-(SW27-Pad2)*%
X256938750Y-70845000D03*
%TD*%
%TO.P,SW24,1,1*%
%TO.N,unconnected-(SW24-Pad1)*%
X206138750Y-68305000D03*
%TO.P,SW24,2,2*%
%TO.N,unconnected-(SW24-Pad2)*%
X199788750Y-70845000D03*
%TD*%
%TO.P,SW20,1,1*%
%TO.N,unconnected-(SW20-Pad1)*%
X129938750Y-68305000D03*
%TO.P,SW20,2,2*%
%TO.N,unconnected-(SW20-Pad2)*%
X123588750Y-70845000D03*
%TD*%
%TO.P,SW61,1,1*%
%TO.N,unconnected-(SW61-Pad1)*%
X291646250Y-125585000D03*
%TO.P,SW61,2,2*%
%TO.N,unconnected-(SW61-Pad2)*%
X285296250Y-128125000D03*
%TD*%
%TO.P,SW25,1,1*%
%TO.N,unconnected-(SW25-Pad1)*%
X225188750Y-68305000D03*
%TO.P,SW25,2,2*%
%TO.N,unconnected-(SW25-Pad2)*%
X218838750Y-70845000D03*
%TD*%
%TO.P,SW51,1,1*%
%TO.N,unconnected-(SW51-Pad1)*%
X220446250Y-106405000D03*
%TO.P,SW51,2,2*%
%TO.N,unconnected-(SW51-Pad2)*%
X214096250Y-108945000D03*
%TD*%
%TO.P,SW8,1,1*%
%TO.N,unconnected-(SW8-Pad1)*%
X158546250Y-49255000D03*
%TO.P,SW8,2,2*%
%TO.N,unconnected-(SW8-Pad2)*%
X152196250Y-51795000D03*
%TD*%
%TO.P,SW35,1,1*%
%TO.N,unconnected-(SW35-Pad1)*%
X153783750Y-87355000D03*
%TO.P,SW35,2,2*%
%TO.N,unconnected-(SW35-Pad2)*%
X147433750Y-89895000D03*
%TD*%
%TO.P,SW58,1,1*%
%TO.N,unconnected-(SW58-Pad1)*%
X165436250Y-125585000D03*
%TO.P,SW58,2,2*%
%TO.N,unconnected-(SW58-Pad2)*%
X159086250Y-128125000D03*
%TD*%
%TO.P,SW40,1,1*%
%TO.N,unconnected-(SW40-Pad1)*%
X249033750Y-87355000D03*
%TO.P,SW40,2,2*%
%TO.N,unconnected-(SW40-Pad2)*%
X242683750Y-89895000D03*
%TD*%
%TO.P,SW62,1,1*%
%TO.N,unconnected-(SW62-Pad1)*%
X272596250Y-144635000D03*
%TO.P,SW62,2,2*%
%TO.N,unconnected-(SW62-Pad2)*%
X266246250Y-147175000D03*
%TD*%
%TO.P,SW13,1,1*%
%TO.N,unconnected-(SW13-Pad1)*%
X253796250Y-49255000D03*
%TO.P,SW13,2,2*%
%TO.N,unconnected-(SW13-Pad2)*%
X247446250Y-51795000D03*
%TD*%
%TO.P,SW53,1,1*%
%TO.N,unconnected-(SW53-Pad1)*%
X258546250Y-106405000D03*
%TO.P,SW53,2,2*%
%TO.N,unconnected-(SW53-Pad2)*%
X252196250Y-108945000D03*
%TD*%
%TO.P,SW15,1,1*%
%TO.N,unconnected-(SW15-Pad1)*%
X301446250Y-49195000D03*
%TO.P,SW15,2,2*%
%TO.N,unconnected-(SW15-Pad2)*%
X295096250Y-51735000D03*
%TD*%
%TO.P,SW59,1,1*%
%TO.N,unconnected-(SW59-Pad1)*%
X234496250Y-125585000D03*
%TO.P,SW59,2,2*%
%TO.N,unconnected-(SW59-Pad2)*%
X228146250Y-128125000D03*
%TD*%
%TO.P,SW31,1,1*%
%TO.N,unconnected-(SW31-Pad1)*%
X77583750Y-87355000D03*
%TO.P,SW31,2,2*%
%TO.N,unconnected-(SW31-Pad2)*%
X71233750Y-89895000D03*
%TD*%
%TO.P,SW55,1,1*%
%TO.N,unconnected-(SW55-Pad1)*%
X46426250Y-125535000D03*
%TO.P,SW55,2,2*%
%TO.N,unconnected-(SW55-Pad2)*%
X40076250Y-128075000D03*
%TD*%
%TO.P,SW41,1,1*%
%TO.N,unconnected-(SW41-Pad1)*%
X268083750Y-87355000D03*
%TO.P,SW41,2,2*%
%TO.N,unconnected-(SW41-Pad2)*%
X261733750Y-89895000D03*
%TD*%
%TO.P,SW29,1,1*%
%TO.N,unconnected-(SW29-Pad1)*%
X306216250Y-68385000D03*
%TO.P,SW29,2,2*%
%TO.N,unconnected-(SW29-Pad2)*%
X299866250Y-70925000D03*
%TD*%
%TO.P,SW18,1,1*%
%TO.N,unconnected-(SW18-Pad1)*%
X91838750Y-68305000D03*
%TO.P,SW18,2,2*%
%TO.N,unconnected-(SW18-Pad2)*%
X85488750Y-70845000D03*
%TD*%
%TO.P,SW1,1,1*%
%TO.N,unconnected-(SW1-Pad1)*%
X44246250Y-30205000D03*
%TO.P,SW1,2,2*%
%TO.N,unconnected-(SW1-Pad2)*%
X37896250Y-32745000D03*
%TD*%
%TO.P,SW43,1,1*%
%TO.N,unconnected-(SW43-Pad1)*%
X56066250Y-106485000D03*
%TO.P,SW43,2,2*%
%TO.N,unconnected-(SW43-Pad2)*%
X49716250Y-109025000D03*
%TD*%
%TO.P,SW42,1,1*%
%TO.N,unconnected-(SW42-Pad1)*%
X299106250Y-87315000D03*
%TO.P,SW42,2,2*%
%TO.N,unconnected-(SW42-Pad2)*%
X292756250Y-89855000D03*
%TD*%
%TO.P,SW19,1,1*%
%TO.N,unconnected-(SW19-Pad1)*%
X110888750Y-68305000D03*
%TO.P,SW19,2,2*%
%TO.N,unconnected-(SW19-Pad2)*%
X104538750Y-70845000D03*
%TD*%
%TO.P,SW14,1,1*%
%TO.N,unconnected-(SW14-Pad1)*%
X272846250Y-49255000D03*
%TO.P,SW14,2,2*%
%TO.N,unconnected-(SW14-Pad2)*%
X266496250Y-51795000D03*
%TD*%
%TO.P,SW65,1,1*%
%TO.N,unconnected-(SW65-Pad1)*%
X272596250Y-125585000D03*
%TO.P,SW65,2,2*%
%TO.N,unconnected-(SW65-Pad2)*%
X266246250Y-128125000D03*
%TD*%
%TO.P,SW7,1,1*%
%TO.N,unconnected-(SW7-Pad1)*%
X139496250Y-49255000D03*
%TO.P,SW7,2,2*%
%TO.N,unconnected-(SW7-Pad2)*%
X133146250Y-51795000D03*
%TD*%
%TO.P,SW30,1,1*%
%TO.N,unconnected-(SW30-Pad1)*%
X51296250Y-87355000D03*
%TO.P,SW30,2,2*%
%TO.N,unconnected-(SW30-Pad2)*%
X44946250Y-89895000D03*
%TD*%
%TO.P,SW38,1,1*%
%TO.N,unconnected-(SW38-Pad1)*%
X210933750Y-87355000D03*
%TO.P,SW38,2,2*%
%TO.N,unconnected-(SW38-Pad2)*%
X204583750Y-89895000D03*
%TD*%
%TO.P,SW32,1,1*%
%TO.N,unconnected-(SW32-Pad1)*%
X96633750Y-87355000D03*
%TO.P,SW32,2,2*%
%TO.N,unconnected-(SW32-Pad2)*%
X90283750Y-89895000D03*
%TD*%
%TO.P,SW34,1,1*%
%TO.N,unconnected-(SW34-Pad1)*%
X134733750Y-87355000D03*
%TO.P,SW34,2,2*%
%TO.N,unconnected-(SW34-Pad2)*%
X128383750Y-89895000D03*
%TD*%
%TO.P,SW44,1,1*%
%TO.N,unconnected-(SW44-Pad1)*%
X87096250Y-106405000D03*
%TO.P,SW44,2,2*%
%TO.N,unconnected-(SW44-Pad2)*%
X80746250Y-108945000D03*
%TD*%
%TO.P,SW47,1,1*%
%TO.N,unconnected-(SW47-Pad1)*%
X144246250Y-106405000D03*
%TO.P,SW47,2,2*%
%TO.N,unconnected-(SW47-Pad2)*%
X137896250Y-108945000D03*
%TD*%
%TO.P,SW28,1,1*%
%TO.N,unconnected-(SW28-Pad1)*%
X282338750Y-68305000D03*
%TO.P,SW28,2,2*%
%TO.N,unconnected-(SW28-Pad2)*%
X275988750Y-70845000D03*
%TD*%
%TO.P,SW5,1,1*%
%TO.N,unconnected-(SW5-Pad1)*%
X101396250Y-49255000D03*
%TO.P,SW5,2,2*%
%TO.N,unconnected-(SW5-Pad2)*%
X95046250Y-51795000D03*
%TD*%
%TO.P,SW4,1,1*%
%TO.N,unconnected-(SW4-Pad1)*%
X82346250Y-49255000D03*
%TO.P,SW4,2,2*%
%TO.N,unconnected-(SW4-Pad2)*%
X75996250Y-51795000D03*
%TD*%
%TO.P,SW57,1,1*%
%TO.N,unconnected-(SW57-Pad1)*%
X94051250Y-125535000D03*
%TO.P,SW57,2,2*%
%TO.N,unconnected-(SW57-Pad2)*%
X87701250Y-128075000D03*
%TD*%
%TO.P,SW26,1,1*%
%TO.N,unconnected-(SW26-Pad1)*%
X244238750Y-68305000D03*
%TO.P,SW26,2,2*%
%TO.N,unconnected-(SW26-Pad2)*%
X237888750Y-70845000D03*
%TD*%
%TO.P,SW63,1,1*%
%TO.N,unconnected-(SW63-Pad1)*%
X291646250Y-144635000D03*
%TO.P,SW63,2,2*%
%TO.N,unconnected-(SW63-Pad2)*%
X285296250Y-147175000D03*
%TD*%
%TO.P,SW33,1,1*%
%TO.N,unconnected-(SW33-Pad1)*%
X115683750Y-87355000D03*
%TO.P,SW33,2,2*%
%TO.N,unconnected-(SW33-Pad2)*%
X109333750Y-89895000D03*
%TD*%
%TO.P,SW12,1,1*%
%TO.N,unconnected-(SW12-Pad1)*%
X234746250Y-49255000D03*
%TO.P,SW12,2,2*%
%TO.N,unconnected-(SW12-Pad2)*%
X228396250Y-51795000D03*
%TD*%
%TO.P,SW52,1,1*%
%TO.N,unconnected-(SW52-Pad1)*%
X239496250Y-106405000D03*
%TO.P,SW52,2,2*%
%TO.N,unconnected-(SW52-Pad2)*%
X233146250Y-108945000D03*
%TD*%
%TO.P,SW54,1,1*%
%TO.N,unconnected-(SW54-Pad1)*%
X294366250Y-106367500D03*
%TO.P,SW54,2,2*%
%TO.N,unconnected-(SW54-Pad2)*%
X288016250Y-108907500D03*
%TD*%
%TO.P,SW22,1,1*%
%TO.N,unconnected-(SW22-Pad1)*%
X168038750Y-68305000D03*
%TO.P,SW22,2,2*%
%TO.N,unconnected-(SW22-Pad2)*%
X161688750Y-70845000D03*
%TD*%
%TO.P,SW16,1,1*%
%TO.N,unconnected-(SW16-Pad1)*%
X48976250Y-68305000D03*
%TO.P,SW16,2,2*%
%TO.N,unconnected-(SW16-Pad2)*%
X42626250Y-70845000D03*
%TD*%
%TO.P,SW39,1,1*%
%TO.N,unconnected-(SW39-Pad1)*%
X229983750Y-87355000D03*
%TO.P,SW39,2,2*%
%TO.N,unconnected-(SW39-Pad2)*%
X223633750Y-89895000D03*
%TD*%
%TO.P,SW17,1,1*%
%TO.N,unconnected-(SW17-Pad1)*%
X72788750Y-68305000D03*
%TO.P,SW17,2,2*%
%TO.N,unconnected-(SW17-Pad2)*%
X66438750Y-70845000D03*
%TD*%
%TO.P,SW46,1,1*%
%TO.N,unconnected-(SW46-Pad1)*%
X125196250Y-106405000D03*
%TO.P,SW46,2,2*%
%TO.N,unconnected-(SW46-Pad2)*%
X118846250Y-108945000D03*
%TD*%
%TO.P,SW10,1,1*%
%TO.N,unconnected-(SW10-Pad1)*%
X196646250Y-49255000D03*
%TO.P,SW10,2,2*%
%TO.N,unconnected-(SW10-Pad2)*%
X190296250Y-51795000D03*
%TD*%
%TO.P,SW9,1,1*%
%TO.N,unconnected-(SW9-Pad1)*%
X177596250Y-49255000D03*
%TO.P,SW9,2,2*%
%TO.N,unconnected-(SW9-Pad2)*%
X171246250Y-51795000D03*
%TD*%
%TO.P,SW56,1,1*%
%TO.N,unconnected-(SW56-Pad1)*%
X70238750Y-125535000D03*
%TO.P,SW56,2,2*%
%TO.N,unconnected-(SW56-Pad2)*%
X63888750Y-128075000D03*
%TD*%
%TO.P,SW21,1,1*%
%TO.N,unconnected-(SW21-Pad1)*%
X148988750Y-68305000D03*
%TO.P,SW21,2,2*%
%TO.N,unconnected-(SW21-Pad2)*%
X142638750Y-70845000D03*
%TD*%
%TO.P,SW48,1,1*%
%TO.N,unconnected-(SW48-Pad1)*%
X163296250Y-106405000D03*
%TO.P,SW48,2,2*%
%TO.N,unconnected-(SW48-Pad2)*%
X156946250Y-108945000D03*
%TD*%
%TO.P,SW3,1,1*%
%TO.N,unconnected-(SW3-Pad1)*%
X63296250Y-49255000D03*
%TO.P,SW3,2,2*%
%TO.N,unconnected-(SW3-Pad2)*%
X56946250Y-51795000D03*
%TD*%
%TO.P,SW60,1,1*%
%TO.N,unconnected-(SW60-Pad1)*%
X253546250Y-125585000D03*
%TO.P,SW60,2,2*%
%TO.N,unconnected-(SW60-Pad2)*%
X247196250Y-128125000D03*
%TD*%
%TO.P,SW37,1,1*%
%TO.N,unconnected-(SW37-Pad1)*%
X191883750Y-87355000D03*
%TO.P,SW37,2,2*%
%TO.N,unconnected-(SW37-Pad2)*%
X185533750Y-89895000D03*
%TD*%
%TO.P,SW23,1,1*%
%TO.N,unconnected-(SW23-Pad1)*%
X187088750Y-68305000D03*
%TO.P,SW23,2,2*%
%TO.N,unconnected-(SW23-Pad2)*%
X180738750Y-70845000D03*
%TD*%
%TO.P,SW50,1,1*%
%TO.N,unconnected-(SW50-Pad1)*%
X201396250Y-106405000D03*
%TO.P,SW50,2,2*%
%TO.N,unconnected-(SW50-Pad2)*%
X195046250Y-108945000D03*
%TD*%
%TO.P,SW45,1,1*%
%TO.N,unconnected-(SW45-Pad1)*%
X106146250Y-106405000D03*
%TO.P,SW45,2,2*%
%TO.N,unconnected-(SW45-Pad2)*%
X99796250Y-108945000D03*
%TD*%
M02*
