M48
; DRILL file {KiCad 9.0.6} date 2026-04-02T02:11:15-0400
; FORMAT={-:-/ absolute / metric / decimal}
; #@! TF.CreationDate,2026-04-02T02:11:15-04:00
; #@! TF.GenerationSoftware,Kicad,Pcbnew,9.0.6
; #@! TF.FileFunction,Plated,1,2,PTH
FMAT,2
METRIC
; #@! TA.AperFunction,Plated,PTH,ViaDrill
T1C0.300
; #@! TA.AperFunction,Plated,PTH,ComponentDrill
T2C0.700
; #@! TA.AperFunction,Plated,PTH,ComponentDrill
T3C0.800
; #@! TA.AperFunction,Plated,PTH,ComponentDrill
T4C0.900
; #@! TA.AperFunction,Plated,PTH,ComponentDrill
T5C1.000
; #@! TA.AperFunction,Plated,PTH,ComponentDrill
T6C1.500
%
G90
G05
T1
X37.76Y-139.72
X68.25Y-140.17
X73.8Y-127.03
X74.387Y-156.15
X75.35Y-128.06
X75.996Y-46.06
X78.691Y-146.245
X79.15Y-148.26
X79.58Y-158.73
X81.35Y-141.38
X83.72Y-77.195
X89.89Y-149.52
X102.04Y-115.295
X102.25Y-155.55
X104.58Y-134.425
X109.55Y-108.57
X116.55Y-100.04
X116.79Y-151.2
X119.13Y-127.84
X121.11Y-151.2
X137.131Y-135.526
X137.189Y-136.324
X137.27Y-137.2
X138.2Y-132.2
X157.07Y-135.526
X172.1Y-136.126
X185.534Y-99.27
X193.89Y-136.126
X215.46Y-151.75
X228.93Y-151.15
X247.18Y-135.48
X253.696Y-146.828
X278.07Y-90.495
X282.7Y-133.83
X285.25Y-113.45
T2
X36.785Y-88.625
X36.785Y-96.245
T3
X32.181Y-50.525
X32.181Y-58.145
X34.562Y-126.805
X34.562Y-134.425
X36.944Y-69.575
X36.944Y-77.195
X39.325Y-88.625
X39.325Y-96.245
X44.087Y-107.675
X44.087Y-115.295
X51.231Y-50.525
X51.231Y-58.145
X58.375Y-126.805
X58.375Y-134.425
X60.724Y-69.575
X60.724Y-77.195
X65.519Y-88.625
X65.519Y-96.245
X70.281Y-50.525
X70.281Y-58.145
X75.031Y-107.675
X75.031Y-115.295
X79.774Y-69.575
X79.774Y-77.195
X82.188Y-126.805
X82.188Y-134.425
X84.569Y-88.625
X84.569Y-96.245
X86.935Y-147.65
X86.935Y-152.65
X89.331Y-50.525
X89.331Y-58.145
X90.745Y-146.345
X90.745Y-153.965
X93.285Y-146.345
X93.285Y-153.965
X94.081Y-107.675
X94.081Y-115.295
X95.825Y-146.345
X95.825Y-153.965
X98.365Y-146.345
X98.365Y-153.965
X98.824Y-69.575
X98.824Y-77.195
X100.905Y-146.345
X100.905Y-153.965
X103.445Y-146.345
X103.445Y-153.965
X103.619Y-88.625
X103.619Y-96.245
X105.985Y-146.345
X105.985Y-153.965
X108.381Y-50.525
X108.381Y-58.145
X108.525Y-146.345
X108.525Y-153.965
X113.131Y-107.675
X113.131Y-115.295
X117.874Y-69.575
X117.874Y-77.195
X118.692Y-147.65
X118.692Y-152.65
X122.502Y-146.345
X122.502Y-153.965
X122.669Y-88.625
X122.669Y-96.245
X125.042Y-142.535
X125.042Y-146.345
X125.042Y-153.965
X127.431Y-50.525
X127.431Y-58.145
X127.582Y-142.535
X127.582Y-146.345
X127.582Y-153.965
X127.582Y-157.775
X130.122Y-142.535
X130.122Y-146.345
X130.122Y-153.965
X130.122Y-157.775
X132.181Y-107.675
X132.181Y-115.295
X132.662Y-142.535
X132.662Y-146.345
X132.662Y-153.965
X132.662Y-157.775
X135.202Y-142.535
X135.202Y-146.345
X135.202Y-153.965
X135.202Y-157.775
X136.924Y-69.575
X136.924Y-77.195
X137.742Y-146.345
X137.742Y-153.965
X137.742Y-157.775
X140.282Y-146.345
X140.282Y-153.965
X141.719Y-88.625
X141.719Y-96.245
X146.481Y-50.525
X146.481Y-58.145
X150.45Y-147.65
X150.45Y-152.65
X151.231Y-107.675
X151.231Y-115.295
X153.625Y-126.805
X153.625Y-134.425
X154.26Y-146.345
X154.26Y-153.965
X155.974Y-69.575
X155.974Y-77.195
X156.8Y-146.345
X156.8Y-153.965
X159.34Y-146.345
X159.34Y-153.965
X159.34Y-157.775
X160.769Y-88.625
X160.769Y-96.245
X161.88Y-146.345
X161.88Y-153.965
X161.88Y-157.775
X164.42Y-146.345
X164.42Y-153.965
X164.42Y-157.775
X165.531Y-50.525
X165.531Y-58.145
X166.96Y-146.345
X166.96Y-153.965
X166.96Y-157.775
X169.5Y-146.345
X169.5Y-153.965
X169.5Y-157.775
X170.281Y-107.675
X170.281Y-115.295
X172.04Y-146.345
X172.04Y-153.965
X175.024Y-69.575
X175.024Y-77.195
X179.819Y-88.625
X179.819Y-96.245
X184.581Y-50.525
X184.581Y-58.145
X189.331Y-107.675
X189.331Y-115.295
X194.074Y-69.575
X194.074Y-77.195
X198.869Y-88.625
X198.869Y-96.245
X203.631Y-50.525
X203.631Y-58.145
X208.381Y-107.675
X208.381Y-115.295
X213.124Y-69.575
X213.124Y-77.195
X217.919Y-88.625
X217.919Y-96.245
X222.681Y-50.525
X222.681Y-58.145
X222.681Y-126.805
X222.681Y-134.425
X227.431Y-107.675
X227.431Y-115.295
X232.174Y-69.575
X232.174Y-77.195
X236.969Y-88.625
X236.969Y-96.245
X241.731Y-50.525
X241.731Y-58.145
X241.731Y-126.805
X241.731Y-134.425
X246.481Y-107.675
X246.481Y-115.295
X251.224Y-69.575
X251.224Y-77.195
X256.019Y-88.625
X256.019Y-96.245
X260.781Y-50.525
X260.781Y-58.145
X260.781Y-126.805
X260.781Y-134.425
X260.781Y-145.905
X260.781Y-153.525
X270.274Y-69.575
X270.274Y-77.195
X279.831Y-126.805
X279.831Y-134.425
X279.831Y-145.905
X279.831Y-153.525
X282.2Y-107.675
X282.2Y-115.295
X286.975Y-88.625
X286.975Y-96.245
X289.324Y-50.525
X289.324Y-58.145
X294.086Y-69.575
X294.086Y-77.195
X298.881Y-126.805
X298.881Y-134.425
X298.881Y-145.905
X298.881Y-153.525
T4
X47.58Y-97.515
X50.12Y-97.515
T5
X50.727Y-144.475
X53.267Y-144.475
X55.807Y-144.475
X58.347Y-144.475
X60.887Y-144.475
X63.427Y-144.475
X65.967Y-144.475
X68.507Y-144.475
X71.047Y-144.475
T6
X37.896Y-51.795
X40.277Y-128.075
X42.659Y-70.845
X44.246Y-49.255
X45.04Y-89.895
X46.627Y-125.535
X49.009Y-68.305
X49.802Y-108.945
X51.39Y-87.355
X56.152Y-106.405
X56.946Y-51.795
X63.296Y-49.255
X64.09Y-128.075
X66.439Y-70.845
X70.44Y-125.535
X71.234Y-89.895
X72.789Y-68.305
X75.996Y-51.795
X77.584Y-87.355
X80.746Y-108.945
X82.346Y-49.255
X85.489Y-70.845
X87.096Y-106.405
X87.902Y-128.075
X90.284Y-89.895
X91.839Y-68.305
X94.252Y-125.535
X95.046Y-51.795
X96.634Y-87.355
X99.796Y-108.945
X101.396Y-49.255
X104.539Y-70.845
X106.146Y-106.405
X109.334Y-89.895
X110.889Y-68.305
X114.096Y-51.795
X115.684Y-87.355
X118.846Y-108.945
X120.446Y-49.255
X123.589Y-70.845
X125.196Y-106.405
X128.384Y-89.895
X129.939Y-68.305
X133.146Y-51.795
X134.734Y-87.355
X137.896Y-108.945
X139.496Y-49.255
X142.639Y-70.845
X144.246Y-106.405
X147.434Y-89.895
X148.989Y-68.305
X152.196Y-51.795
X153.784Y-87.355
X156.946Y-108.945
X158.546Y-49.255
X159.34Y-128.075
X161.689Y-70.845
X163.296Y-106.405
X165.69Y-125.535
X166.484Y-89.895
X168.039Y-68.305
X171.246Y-51.795
X172.834Y-87.355
X175.996Y-108.945
X177.596Y-49.255
X180.739Y-70.845
X182.346Y-106.405
X185.534Y-89.895
X187.089Y-68.305
X190.296Y-51.795
X191.884Y-87.355
X195.046Y-108.945
X196.646Y-49.255
X199.789Y-70.845
X201.396Y-106.405
X204.584Y-89.895
X206.139Y-68.305
X209.346Y-51.795
X210.934Y-87.355
X214.096Y-108.945
X215.696Y-49.255
X218.839Y-70.845
X220.446Y-106.405
X223.634Y-89.895
X225.189Y-68.305
X228.396Y-51.795
X228.396Y-128.075
X229.984Y-87.355
X233.146Y-108.945
X234.746Y-49.255
X234.746Y-125.535
X237.889Y-70.845
X239.496Y-106.405
X242.684Y-89.895
X244.239Y-68.305
X247.446Y-51.795
X247.446Y-128.075
X249.034Y-87.355
X252.196Y-108.945
X253.796Y-49.255
X253.796Y-125.535
X256.939Y-70.845
X258.546Y-106.405
X261.734Y-89.895
X263.289Y-68.305
X266.496Y-51.795
X266.496Y-128.075
X266.496Y-147.175
X268.084Y-87.355
X272.846Y-49.255
X272.846Y-125.535
X272.846Y-144.635
X275.989Y-70.845
X282.339Y-68.305
X285.546Y-128.075
X285.546Y-147.175
X287.915Y-109.025
X291.896Y-125.535
X291.896Y-144.635
X292.69Y-89.895
X294.265Y-106.485
X295.039Y-51.795
X299.04Y-87.355
X299.801Y-70.845
X301.389Y-49.255
X304.596Y-128.075
X304.596Y-147.175
X306.151Y-68.305
X310.946Y-125.535
X310.946Y-144.635
M30
