%TF.GenerationSoftware,KiCad,Pcbnew,9.0.6*%
%TF.CreationDate,2026-03-22T06:21:44-04:00*%
%TF.ProjectId,Keyboard,4b657962-6f61-4726-942e-6b696361645f,rev?*%
%TF.SameCoordinates,Original*%
%TF.FileFunction,Soldermask,Bot*%
%TF.FilePolarity,Negative*%
%FSLAX46Y46*%
G04 Gerber Fmt 4.6, Leading zero omitted, Abs format (unit mm)*
G04 Created by KiCad (PCBNEW 9.0.6) date 2026-03-22 06:21:44*
%MOMM*%
%LPD*%
G01*
G04 APERTURE LIST*
%ADD10C,1.700000*%
%ADD11C,4.000000*%
%ADD12C,2.200000*%
%ADD13C,3.050000*%
G04 APERTURE END LIST*
D10*
%TO.C,SW36*%
X165213750Y-92435000D03*
D11*
X170293750Y-92435000D03*
D10*
X175373750Y-92435000D03*
D12*
X172833750Y-87355000D03*
X166483750Y-89895000D03*
%TD*%
D10*
%TO.C,SW2*%
X36626250Y-54335000D03*
D11*
X41706250Y-54335000D03*
D10*
X46786250Y-54335000D03*
D12*
X44246250Y-49255000D03*
X37896250Y-51795000D03*
%TD*%
D10*
%TO.C,SW64*%
X303076250Y-149715000D03*
D11*
X308156250Y-149715000D03*
D10*
X313236250Y-149715000D03*
D12*
X310696250Y-144635000D03*
X304346250Y-147175000D03*
%TD*%
D10*
%TO.C,SW11*%
X208076250Y-54335000D03*
D11*
X213156250Y-54335000D03*
D10*
X218236250Y-54335000D03*
D12*
X215696250Y-49255000D03*
X209346250Y-51795000D03*
%TD*%
D10*
%TO.C,SW49*%
X174726250Y-111485000D03*
D11*
X179806250Y-111485000D03*
D10*
X184886250Y-111485000D03*
D12*
X182346250Y-106405000D03*
X175996250Y-108945000D03*
%TD*%
D10*
%TO.C,SW6*%
X112826250Y-54335000D03*
D11*
X117906250Y-54335000D03*
D10*
X122986250Y-54335000D03*
D12*
X120446250Y-49255000D03*
X114096250Y-51795000D03*
%TD*%
D10*
%TO.C,SW27*%
X255668750Y-73385000D03*
D11*
X260748750Y-73385000D03*
D10*
X265828750Y-73385000D03*
D12*
X263288750Y-68305000D03*
X256938750Y-70845000D03*
%TD*%
D10*
%TO.C,SW24*%
X198518750Y-73385000D03*
D11*
X203598750Y-73385000D03*
D10*
X208678750Y-73385000D03*
D12*
X206138750Y-68305000D03*
X199788750Y-70845000D03*
%TD*%
D10*
%TO.C,SW20*%
X122318750Y-73385000D03*
D11*
X127398750Y-73385000D03*
D10*
X132478750Y-73385000D03*
D12*
X129938750Y-68305000D03*
X123588750Y-70845000D03*
%TD*%
D10*
%TO.C,SW61*%
X284026250Y-130665000D03*
D11*
X289106250Y-130665000D03*
D10*
X294186250Y-130665000D03*
D12*
X291646250Y-125585000D03*
X285296250Y-128125000D03*
%TD*%
D10*
%TO.C,SW25*%
X217568750Y-73385000D03*
D11*
X222648750Y-73385000D03*
D10*
X227728750Y-73385000D03*
D12*
X225188750Y-68305000D03*
X218838750Y-70845000D03*
%TD*%
D10*
%TO.C,SW51*%
X212826250Y-111485000D03*
D11*
X217906250Y-111485000D03*
D10*
X222986250Y-111485000D03*
D12*
X220446250Y-106405000D03*
X214096250Y-108945000D03*
%TD*%
D10*
%TO.C,SW8*%
X150926250Y-54335000D03*
D11*
X156006250Y-54335000D03*
D10*
X161086250Y-54335000D03*
D12*
X158546250Y-49255000D03*
X152196250Y-51795000D03*
%TD*%
D10*
%TO.C,SW35*%
X146163750Y-92435000D03*
D11*
X151243750Y-92435000D03*
D10*
X156323750Y-92435000D03*
D12*
X153783750Y-87355000D03*
X147433750Y-89895000D03*
%TD*%
D13*
%TO.C,SW58*%
X112896250Y-123665000D03*
D11*
X112896250Y-138905000D03*
D10*
X157816250Y-130665000D03*
D11*
X162896250Y-130665000D03*
D10*
X167976250Y-130665000D03*
D13*
X212896250Y-123665000D03*
D11*
X212896250Y-138905000D03*
D12*
X165436250Y-125585000D03*
X159086250Y-128125000D03*
%TD*%
D10*
%TO.C,SW40*%
X241413750Y-92435000D03*
D11*
X246493750Y-92435000D03*
D10*
X251573750Y-92435000D03*
D12*
X249033750Y-87355000D03*
X242683750Y-89895000D03*
%TD*%
D10*
%TO.C,SW62*%
X264976250Y-149715000D03*
D11*
X270056250Y-149715000D03*
D10*
X275136250Y-149715000D03*
D12*
X272596250Y-144635000D03*
X266246250Y-147175000D03*
%TD*%
D10*
%TO.C,SW13*%
X246176250Y-54335000D03*
D11*
X251256250Y-54335000D03*
D10*
X256336250Y-54335000D03*
D12*
X253796250Y-49255000D03*
X247446250Y-51795000D03*
%TD*%
D10*
%TO.C,SW53*%
X250926250Y-111485000D03*
D11*
X256006250Y-111485000D03*
D10*
X261086250Y-111485000D03*
D12*
X258546250Y-106405000D03*
X252196250Y-108945000D03*
%TD*%
D13*
%TO.C,SW15*%
X287006250Y-47275000D03*
D11*
X287006250Y-62515000D03*
D10*
X293826250Y-54275000D03*
D11*
X298906250Y-54275000D03*
D10*
X303986250Y-54275000D03*
D13*
X310806250Y-47275000D03*
D11*
X310806250Y-62515000D03*
D12*
X301446250Y-49195000D03*
X295096250Y-51735000D03*
%TD*%
D10*
%TO.C,SW59*%
X226876250Y-130665000D03*
D11*
X231956250Y-130665000D03*
D10*
X237036250Y-130665000D03*
D12*
X234496250Y-125585000D03*
X228146250Y-128125000D03*
%TD*%
D10*
%TO.C,SW31*%
X69963750Y-92435000D03*
D11*
X75043750Y-92435000D03*
D10*
X80123750Y-92435000D03*
D12*
X77583750Y-87355000D03*
X71233750Y-89895000D03*
%TD*%
D10*
%TO.C,SW55*%
X38806250Y-130615000D03*
D11*
X43886250Y-130615000D03*
D10*
X48966250Y-130615000D03*
D12*
X46426250Y-125535000D03*
X40076250Y-128075000D03*
%TD*%
D10*
%TO.C,SW41*%
X260463750Y-92435000D03*
D11*
X265543750Y-92435000D03*
D10*
X270623750Y-92435000D03*
D12*
X268083750Y-87355000D03*
X261733750Y-89895000D03*
%TD*%
D10*
%TO.C,SW29*%
X298596250Y-73465000D03*
D11*
X303676250Y-73465000D03*
D10*
X308756250Y-73465000D03*
D12*
X306216250Y-68385000D03*
X299866250Y-70925000D03*
%TD*%
D10*
%TO.C,SW18*%
X84218750Y-73385000D03*
D11*
X89298750Y-73385000D03*
D10*
X94378750Y-73385000D03*
D12*
X91838750Y-68305000D03*
X85488750Y-70845000D03*
%TD*%
D10*
%TO.C,SW1*%
X36626250Y-35285000D03*
D11*
X41706250Y-35285000D03*
D10*
X46786250Y-35285000D03*
D12*
X44246250Y-30205000D03*
X37896250Y-32745000D03*
%TD*%
D13*
%TO.C,SW43*%
X41626250Y-104565000D03*
D11*
X41626250Y-119805000D03*
D10*
X48446250Y-111565000D03*
D11*
X53526250Y-111565000D03*
D10*
X58606250Y-111565000D03*
D13*
X65426250Y-104565000D03*
D11*
X65426250Y-119805000D03*
D12*
X56066250Y-106485000D03*
X49716250Y-109025000D03*
%TD*%
D13*
%TO.C,SW42*%
X284666250Y-85395000D03*
D11*
X284666250Y-100635000D03*
D10*
X291486250Y-92395000D03*
D11*
X296566250Y-92395000D03*
D10*
X301646250Y-92395000D03*
D13*
X308466250Y-85395000D03*
D11*
X308466250Y-100635000D03*
D12*
X299106250Y-87315000D03*
X292756250Y-89855000D03*
%TD*%
D10*
%TO.C,SW19*%
X103268750Y-73385000D03*
D11*
X108348750Y-73385000D03*
D10*
X113428750Y-73385000D03*
D12*
X110888750Y-68305000D03*
X104538750Y-70845000D03*
%TD*%
D10*
%TO.C,SW14*%
X265226250Y-54335000D03*
D11*
X270306250Y-54335000D03*
D10*
X275386250Y-54335000D03*
D12*
X272846250Y-49255000D03*
X266496250Y-51795000D03*
%TD*%
D10*
%TO.C,SW65*%
X264976250Y-130665000D03*
D11*
X270056250Y-130665000D03*
D10*
X275136250Y-130665000D03*
D12*
X272596250Y-125585000D03*
X266246250Y-128125000D03*
%TD*%
D10*
%TO.C,SW7*%
X131876250Y-54335000D03*
D11*
X136956250Y-54335000D03*
D10*
X142036250Y-54335000D03*
D12*
X139496250Y-49255000D03*
X133146250Y-51795000D03*
%TD*%
D10*
%TO.C,SW30*%
X43676250Y-92435000D03*
D11*
X48756250Y-92435000D03*
D10*
X53836250Y-92435000D03*
D12*
X51296250Y-87355000D03*
X44946250Y-89895000D03*
%TD*%
D10*
%TO.C,SW38*%
X203313750Y-92435000D03*
D11*
X208393750Y-92435000D03*
D10*
X213473750Y-92435000D03*
D12*
X210933750Y-87355000D03*
X204583750Y-89895000D03*
%TD*%
D10*
%TO.C,SW32*%
X89013750Y-92435000D03*
D11*
X94093750Y-92435000D03*
D10*
X99173750Y-92435000D03*
D12*
X96633750Y-87355000D03*
X90283750Y-89895000D03*
%TD*%
D10*
%TO.C,SW34*%
X127113750Y-92435000D03*
D11*
X132193750Y-92435000D03*
D10*
X137273750Y-92435000D03*
D12*
X134733750Y-87355000D03*
X128383750Y-89895000D03*
%TD*%
D10*
%TO.C,SW44*%
X79476250Y-111485000D03*
D11*
X84556250Y-111485000D03*
D10*
X89636250Y-111485000D03*
D12*
X87096250Y-106405000D03*
X80746250Y-108945000D03*
%TD*%
D10*
%TO.C,SW47*%
X136626250Y-111485000D03*
D11*
X141706250Y-111485000D03*
D10*
X146786250Y-111485000D03*
D12*
X144246250Y-106405000D03*
X137896250Y-108945000D03*
%TD*%
D10*
%TO.C,SW28*%
X274718750Y-73385000D03*
D11*
X279798750Y-73385000D03*
D10*
X284878750Y-73385000D03*
D12*
X282338750Y-68305000D03*
X275988750Y-70845000D03*
%TD*%
D10*
%TO.C,SW5*%
X93776250Y-54335000D03*
D11*
X98856250Y-54335000D03*
D10*
X103936250Y-54335000D03*
D12*
X101396250Y-49255000D03*
X95046250Y-51795000D03*
%TD*%
D10*
%TO.C,SW4*%
X74726250Y-54335000D03*
D11*
X79806250Y-54335000D03*
D10*
X84886250Y-54335000D03*
D12*
X82346250Y-49255000D03*
X75996250Y-51795000D03*
%TD*%
D10*
%TO.C,SW57*%
X86431250Y-130615000D03*
D11*
X91511250Y-130615000D03*
D10*
X96591250Y-130615000D03*
D12*
X94051250Y-125535000D03*
X87701250Y-128075000D03*
%TD*%
D10*
%TO.C,SW26*%
X236618750Y-73385000D03*
D11*
X241698750Y-73385000D03*
D10*
X246778750Y-73385000D03*
D12*
X244238750Y-68305000D03*
X237888750Y-70845000D03*
%TD*%
D10*
%TO.C,SW63*%
X284026250Y-149715000D03*
D11*
X289106250Y-149715000D03*
D10*
X294186250Y-149715000D03*
D12*
X291646250Y-144635000D03*
X285296250Y-147175000D03*
%TD*%
D10*
%TO.C,SW33*%
X108063750Y-92435000D03*
D11*
X113143750Y-92435000D03*
D10*
X118223750Y-92435000D03*
D12*
X115683750Y-87355000D03*
X109333750Y-89895000D03*
%TD*%
D10*
%TO.C,SW12*%
X227126250Y-54335000D03*
D11*
X232206250Y-54335000D03*
D10*
X237286250Y-54335000D03*
D12*
X234746250Y-49255000D03*
X228396250Y-51795000D03*
%TD*%
D10*
%TO.C,SW52*%
X231876250Y-111485000D03*
D11*
X236956250Y-111485000D03*
D10*
X242036250Y-111485000D03*
D12*
X239496250Y-106405000D03*
X233146250Y-108945000D03*
%TD*%
D13*
%TO.C,SW54*%
X279926250Y-104447500D03*
D11*
X279926250Y-119687500D03*
D10*
X286746250Y-111447500D03*
D11*
X291826250Y-111447500D03*
D10*
X296906250Y-111447500D03*
D13*
X303726250Y-104447500D03*
D11*
X303726250Y-119687500D03*
D12*
X294366250Y-106367500D03*
X288016250Y-108907500D03*
%TD*%
D10*
%TO.C,SW22*%
X160418750Y-73385000D03*
D11*
X165498750Y-73385000D03*
D10*
X170578750Y-73385000D03*
D12*
X168038750Y-68305000D03*
X161688750Y-70845000D03*
%TD*%
D10*
%TO.C,SW16*%
X41356250Y-73385000D03*
D11*
X46436250Y-73385000D03*
D10*
X51516250Y-73385000D03*
D12*
X48976250Y-68305000D03*
X42626250Y-70845000D03*
%TD*%
D10*
%TO.C,SW39*%
X222363750Y-92435000D03*
D11*
X227443750Y-92435000D03*
D10*
X232523750Y-92435000D03*
D12*
X229983750Y-87355000D03*
X223633750Y-89895000D03*
%TD*%
D10*
%TO.C,SW17*%
X65168750Y-73385000D03*
D11*
X70248750Y-73385000D03*
D10*
X75328750Y-73385000D03*
D12*
X72788750Y-68305000D03*
X66438750Y-70845000D03*
%TD*%
D10*
%TO.C,SW46*%
X117576250Y-111485000D03*
D11*
X122656250Y-111485000D03*
D10*
X127736250Y-111485000D03*
D12*
X125196250Y-106405000D03*
X118846250Y-108945000D03*
%TD*%
D10*
%TO.C,SW10*%
X189026250Y-54335000D03*
D11*
X194106250Y-54335000D03*
D10*
X199186250Y-54335000D03*
D12*
X196646250Y-49255000D03*
X190296250Y-51795000D03*
%TD*%
D10*
%TO.C,SW9*%
X169976250Y-54335000D03*
D11*
X175056250Y-54335000D03*
D10*
X180136250Y-54335000D03*
D12*
X177596250Y-49255000D03*
X171246250Y-51795000D03*
%TD*%
D10*
%TO.C,SW56*%
X62618750Y-130615000D03*
D11*
X67698750Y-130615000D03*
D10*
X72778750Y-130615000D03*
D12*
X70238750Y-125535000D03*
X63888750Y-128075000D03*
%TD*%
D10*
%TO.C,SW21*%
X141368750Y-73385000D03*
D11*
X146448750Y-73385000D03*
D10*
X151528750Y-73385000D03*
D12*
X148988750Y-68305000D03*
X142638750Y-70845000D03*
%TD*%
D10*
%TO.C,SW48*%
X155676250Y-111485000D03*
D11*
X160756250Y-111485000D03*
D10*
X165836250Y-111485000D03*
D12*
X163296250Y-106405000D03*
X156946250Y-108945000D03*
%TD*%
D10*
%TO.C,SW3*%
X55676250Y-54335000D03*
D11*
X60756250Y-54335000D03*
D10*
X65836250Y-54335000D03*
D12*
X63296250Y-49255000D03*
X56946250Y-51795000D03*
%TD*%
D10*
%TO.C,SW60*%
X245926250Y-130665000D03*
D11*
X251006250Y-130665000D03*
D10*
X256086250Y-130665000D03*
D12*
X253546250Y-125585000D03*
X247196250Y-128125000D03*
%TD*%
D10*
%TO.C,SW37*%
X184263750Y-92435000D03*
D11*
X189343750Y-92435000D03*
D10*
X194423750Y-92435000D03*
D12*
X191883750Y-87355000D03*
X185533750Y-89895000D03*
%TD*%
D10*
%TO.C,SW23*%
X179468750Y-73385000D03*
D11*
X184548750Y-73385000D03*
D10*
X189628750Y-73385000D03*
D12*
X187088750Y-68305000D03*
X180738750Y-70845000D03*
%TD*%
D10*
%TO.C,SW50*%
X193776250Y-111485000D03*
D11*
X198856250Y-111485000D03*
D10*
X203936250Y-111485000D03*
D12*
X201396250Y-106405000D03*
X195046250Y-108945000D03*
%TD*%
D10*
%TO.C,SW45*%
X98526250Y-111485000D03*
D11*
X103606250Y-111485000D03*
D10*
X108686250Y-111485000D03*
D12*
X106146250Y-106405000D03*
X99796250Y-108945000D03*
%TD*%
M02*
