M48
; DRILL file {KiCad 9.0.6} date 2026-04-02T02:11:15-0400
; FORMAT={-:-/ absolute / metric / decimal}
; #@! TF.CreationDate,2026-04-02T02:11:15-04:00
; #@! TF.GenerationSoftware,Kicad,Pcbnew,9.0.6
; #@! TF.FileFunction,NonPlated,1,2,NPTH
FMAT,2
METRIC
; #@! TA.AperFunction,NonPlated,NPTH,ComponentDrill
T1C1.700
; #@! TA.AperFunction,NonPlated,NPTH,ComponentDrill
T2C3.050
; #@! TA.AperFunction,NonPlated,NPTH,ComponentDrill
T3C3.100
; #@! TA.AperFunction,NonPlated,NPTH,ComponentDrill
T4C4.000
%
G90
G05
T1
X36.626Y-54.335
X39.008Y-130.615
X41.389Y-73.385
X43.77Y-92.435
X46.786Y-54.335
X48.532Y-111.485
X49.167Y-130.615
X51.549Y-73.385
X53.93Y-92.435
X55.676Y-54.335
X58.692Y-111.485
X62.82Y-130.615
X65.169Y-73.385
X65.836Y-54.335
X69.964Y-92.435
X72.98Y-130.615
X74.726Y-54.335
X75.329Y-73.385
X79.476Y-111.485
X80.124Y-92.435
X84.219Y-73.385
X84.886Y-54.335
X86.632Y-130.615
X89.014Y-92.435
X89.636Y-111.485
X93.776Y-54.335
X94.379Y-73.385
X96.792Y-130.615
X98.526Y-111.485
X99.174Y-92.435
X103.269Y-73.385
X103.936Y-54.335
X108.064Y-92.435
X108.686Y-111.485
X112.826Y-54.335
X113.429Y-73.385
X117.576Y-111.485
X118.224Y-92.435
X122.319Y-73.385
X122.986Y-54.335
X127.114Y-92.435
X127.736Y-111.485
X131.876Y-54.335
X132.479Y-73.385
X136.626Y-111.485
X137.274Y-92.435
X141.369Y-73.385
X142.036Y-54.335
X146.164Y-92.435
X146.786Y-111.485
X150.926Y-54.335
X151.529Y-73.385
X155.676Y-111.485
X156.324Y-92.435
X158.07Y-130.615
X160.419Y-73.385
X161.086Y-54.335
X165.214Y-92.435
X165.836Y-111.485
X168.23Y-130.615
X169.976Y-54.335
X170.579Y-73.385
X174.726Y-111.485
X175.374Y-92.435
X179.469Y-73.385
X180.136Y-54.335
X184.264Y-92.435
X184.886Y-111.485
X189.026Y-54.335
X189.629Y-73.385
X193.776Y-111.485
X194.424Y-92.435
X198.519Y-73.385
X199.186Y-54.335
X203.314Y-92.435
X203.936Y-111.485
X208.076Y-54.335
X208.679Y-73.385
X212.826Y-111.485
X213.474Y-92.435
X217.569Y-73.385
X218.236Y-54.335
X222.364Y-92.435
X222.986Y-111.485
X227.126Y-54.335
X227.126Y-130.615
X227.729Y-73.385
X231.876Y-111.485
X232.524Y-92.435
X236.619Y-73.385
X237.286Y-54.335
X237.286Y-130.615
X241.414Y-92.435
X242.036Y-111.485
X246.176Y-54.335
X246.176Y-130.615
X246.779Y-73.385
X250.926Y-111.485
X251.574Y-92.435
X255.669Y-73.385
X256.336Y-54.335
X256.336Y-130.615
X260.464Y-92.435
X261.086Y-111.485
X265.226Y-54.335
X265.226Y-130.615
X265.226Y-149.715
X265.829Y-73.385
X270.624Y-92.435
X274.719Y-73.385
X275.386Y-54.335
X275.386Y-130.615
X275.386Y-149.715
X284.276Y-130.615
X284.276Y-149.715
X284.879Y-73.385
X286.645Y-111.565
X291.42Y-92.435
X293.769Y-54.335
X294.436Y-130.615
X294.436Y-149.715
X296.805Y-111.565
X298.531Y-73.385
X301.58Y-92.435
X303.326Y-130.615
X303.326Y-149.715
X303.929Y-54.335
X308.691Y-73.385
X313.486Y-130.615
X313.486Y-149.715
T2
X41.712Y-104.485
X65.513Y-104.485
X113.15Y-123.615
X213.15Y-123.615
X279.825Y-104.565
X284.6Y-85.435
X286.949Y-47.335
X303.625Y-104.565
X308.4Y-85.435
X310.749Y-47.335
T3
X32.181Y-102.025
X32.33Y-44.81
X32.33Y-159.24
X75.937Y-159.24
X89.444Y-44.81
X94.094Y-102.025
X146.558Y-44.81
X146.558Y-159.24
X151.244Y-102.025
X203.671Y-44.81
X203.671Y-159.24
X208.394Y-102.025
X260.785Y-44.81
X260.785Y-159.24
X265.544Y-102.025
X317.899Y-44.81
X317.899Y-102.025
X317.899Y-159.24
T4
X41.706Y-54.335
X41.712Y-119.725
X44.087Y-130.615
X46.469Y-73.385
X48.85Y-92.435
X53.612Y-111.485
X60.756Y-54.335
X65.513Y-119.725
X67.9Y-130.615
X70.249Y-73.385
X75.044Y-92.435
X79.806Y-54.335
X84.556Y-111.485
X89.299Y-73.385
X91.712Y-130.615
X94.094Y-92.435
X98.856Y-54.335
X103.606Y-111.485
X108.349Y-73.385
X113.144Y-92.435
X113.15Y-138.855
X117.906Y-54.335
X122.656Y-111.485
X127.399Y-73.385
X132.194Y-92.435
X136.956Y-54.335
X141.706Y-111.485
X146.449Y-73.385
X151.244Y-92.435
X156.006Y-54.335
X160.756Y-111.485
X163.15Y-130.615
X165.499Y-73.385
X170.294Y-92.435
X175.056Y-54.335
X179.806Y-111.485
X184.549Y-73.385
X189.344Y-92.435
X194.106Y-54.335
X198.856Y-111.485
X203.599Y-73.385
X208.394Y-92.435
X213.15Y-138.855
X213.156Y-54.335
X217.906Y-111.485
X222.649Y-73.385
X227.444Y-92.435
X232.206Y-54.335
X232.206Y-130.615
X236.956Y-111.485
X241.699Y-73.385
X246.494Y-92.435
X251.256Y-54.335
X251.256Y-130.615
X256.006Y-111.485
X260.749Y-73.385
X265.544Y-92.435
X270.306Y-54.335
X270.306Y-130.615
X270.306Y-149.715
X279.799Y-73.385
X279.825Y-119.805
X284.6Y-100.675
X286.949Y-62.575
X289.356Y-130.615
X289.356Y-149.715
X291.725Y-111.565
X296.5Y-92.435
X298.849Y-54.335
X303.611Y-73.385
X303.625Y-119.805
X308.4Y-100.675
X308.406Y-130.615
X308.406Y-149.715
X310.749Y-62.575
M30
