%TF.GenerationSoftware,KiCad,Pcbnew,9.0.6*%
%TF.CreationDate,2026-04-05T13:55:42-04:00*%
%TF.ProjectId,Memory,4d656d6f-7279-42e6-9b69-6361645f7063,rev?*%
%TF.SameCoordinates,Original*%
%TF.FileFunction,Soldermask,Bot*%
%TF.FilePolarity,Negative*%
%FSLAX46Y46*%
G04 Gerber Fmt 4.6, Leading zero omitted, Abs format (unit mm)*
G04 Created by KiCad (PCBNEW 9.0.6) date 2026-04-05 13:55:42*
%MOMM*%
%LPD*%
G01*
G04 APERTURE LIST*
G04 Aperture macros list*
%AMRoundRect*
0 Rectangle with rounded corners*
0 $1 Rounding radius*
0 $2 $3 $4 $5 $6 $7 $8 $9 X,Y pos of 4 corners*
0 Add a 4 corners polygon primitive as box body*
4,1,4,$2,$3,$4,$5,$6,$7,$8,$9,$2,$3,0*
0 Add four circle primitives for the rounded corners*
1,1,$1+$1,$2,$3*
1,1,$1+$1,$4,$5*
1,1,$1+$1,$6,$7*
1,1,$1+$1,$8,$9*
0 Add four rect primitives between the rounded corners*
20,1,$1+$1,$2,$3,$4,$5,0*
20,1,$1+$1,$4,$5,$6,$7,0*
20,1,$1+$1,$6,$7,$8,$9,0*
20,1,$1+$1,$8,$9,$2,$3,0*%
%AMFreePoly0*
4,1,23,0.500000,-0.750000,0.000000,-0.750000,0.000000,-0.745722,-0.065263,-0.745722,-0.191342,-0.711940,-0.304381,-0.646677,-0.396677,-0.554381,-0.461940,-0.441342,-0.495722,-0.315263,-0.495722,-0.250000,-0.500000,-0.250000,-0.500000,0.250000,-0.495722,0.250000,-0.495722,0.315263,-0.461940,0.441342,-0.396677,0.554381,-0.304381,0.646677,-0.191342,0.711940,-0.065263,0.745722,0.000000,0.745722,
0.000000,0.750000,0.500000,0.750000,0.500000,-0.750000,0.500000,-0.750000,$1*%
%AMFreePoly1*
4,1,23,0.000000,0.745722,0.065263,0.745722,0.191342,0.711940,0.304381,0.646677,0.396677,0.554381,0.461940,0.441342,0.495722,0.315263,0.495722,0.250000,0.500000,0.250000,0.500000,-0.250000,0.495722,-0.250000,0.495722,-0.315263,0.461940,-0.441342,0.396677,-0.554381,0.304381,-0.646677,0.191342,-0.711940,0.065263,-0.745722,0.000000,-0.745722,0.000000,-0.750000,-0.500000,-0.750000,
-0.500000,0.750000,0.000000,0.750000,0.000000,0.745722,0.000000,0.745722,$1*%
G04 Aperture macros list end*
%ADD10C,1.600000*%
%ADD11RoundRect,0.250000X-0.550000X-0.550000X0.550000X-0.550000X0.550000X0.550000X-0.550000X0.550000X0*%
%ADD12FreePoly0,180.000000*%
%ADD13FreePoly1,180.000000*%
%ADD14C,1.400000*%
%ADD15C,3.200000*%
%ADD16R,1.700000X1.700000*%
%ADD17C,1.700000*%
G04 APERTURE END LIST*
%TO.C,JP1*%
G36*
X106830000Y-36080000D02*
G01*
X106530000Y-36080000D01*
X106530000Y-37580000D01*
X106830000Y-37580000D01*
X106830000Y-36080000D01*
G37*
%TD*%
D10*
%TO.C,C6*%
X55960000Y-78740000D03*
X60960000Y-78740000D03*
%TD*%
%TO.C,C7*%
X33100000Y-78740000D03*
X38100000Y-78740000D03*
%TD*%
D11*
%TO.C,U6*%
X53340000Y-82550000D03*
D10*
X53340000Y-85090000D03*
X53340000Y-87630000D03*
X53340000Y-90170000D03*
X53340000Y-92710000D03*
X53340000Y-95250000D03*
X53340000Y-97790000D03*
X60960000Y-97790000D03*
X60960000Y-95250000D03*
X60960000Y-92710000D03*
X60960000Y-90170000D03*
X60960000Y-87630000D03*
X60960000Y-85090000D03*
X60960000Y-82550000D03*
%TD*%
D11*
%TO.C,U7*%
X30480000Y-82804000D03*
D10*
X30480000Y-85344000D03*
X30480000Y-87884000D03*
X30480000Y-90424000D03*
X30480000Y-92964000D03*
X30480000Y-95504000D03*
X30480000Y-98044000D03*
X38100000Y-98044000D03*
X38100000Y-95504000D03*
X38100000Y-92964000D03*
X38100000Y-90424000D03*
X38100000Y-87884000D03*
X38100000Y-85344000D03*
X38100000Y-82804000D03*
%TD*%
%TO.C,C2*%
X68580000Y-30480000D03*
X63580000Y-30480000D03*
%TD*%
D11*
%TO.C,U4*%
X99060000Y-34290000D03*
D10*
X99060000Y-36830000D03*
X99060000Y-39370000D03*
X99060000Y-41910000D03*
X99060000Y-44450000D03*
X99060000Y-46990000D03*
X99060000Y-49530000D03*
X99060000Y-52070000D03*
X99060000Y-54610000D03*
X99060000Y-57150000D03*
X99060000Y-59690000D03*
X99060000Y-62230000D03*
X99060000Y-64770000D03*
X99060000Y-67310000D03*
X114300000Y-67310000D03*
X114300000Y-64770000D03*
X114300000Y-62230000D03*
X114300000Y-59690000D03*
X114300000Y-57150000D03*
X114300000Y-54610000D03*
X114300000Y-52070000D03*
X114300000Y-49530000D03*
X114300000Y-46990000D03*
X114300000Y-44450000D03*
X114300000Y-41910000D03*
X114300000Y-39370000D03*
X114300000Y-36830000D03*
X114300000Y-34290000D03*
%TD*%
D11*
%TO.C,U2*%
X53340000Y-34290000D03*
D10*
X53340000Y-36830000D03*
X53340000Y-39370000D03*
X53340000Y-41910000D03*
X53340000Y-44450000D03*
X53340000Y-46990000D03*
X53340000Y-49530000D03*
X53340000Y-52070000D03*
X53340000Y-54610000D03*
X53340000Y-57150000D03*
X53340000Y-59690000D03*
X53340000Y-62230000D03*
X53340000Y-64770000D03*
X53340000Y-67310000D03*
X60960000Y-67310000D03*
X68580000Y-67310000D03*
X60960000Y-64770000D03*
X68580000Y-64770000D03*
X60960000Y-62230000D03*
X68580000Y-62230000D03*
X60960000Y-59690000D03*
X68580000Y-59690000D03*
X60960000Y-57150000D03*
X68580000Y-57150000D03*
X60960000Y-54610000D03*
X68580000Y-54610000D03*
X60960000Y-52070000D03*
X68580000Y-52070000D03*
X60960000Y-49530000D03*
X68580000Y-49530000D03*
X60960000Y-46990000D03*
X68580000Y-46990000D03*
X60960000Y-44450000D03*
X68580000Y-44450000D03*
X60960000Y-41910000D03*
X68580000Y-41910000D03*
X60960000Y-39370000D03*
X68580000Y-39370000D03*
X60960000Y-36830000D03*
X68580000Y-36830000D03*
X60960000Y-34290000D03*
X68580000Y-34290000D03*
%TD*%
D12*
%TO.C,JP1*%
X107330000Y-36830000D03*
D13*
X106030000Y-36830000D03*
%TD*%
D10*
%TO.C,U5*%
X83820000Y-82550000D03*
X83820000Y-85090000D03*
X83820000Y-87630000D03*
X83820000Y-90170000D03*
X83820000Y-92710000D03*
X83820000Y-95250000D03*
X83820000Y-97790000D03*
X83820000Y-100330000D03*
X76200000Y-100330000D03*
X76200000Y-97790000D03*
X76200000Y-95250000D03*
X76200000Y-92710000D03*
X76200000Y-90170000D03*
X76200000Y-87630000D03*
X76200000Y-85090000D03*
D11*
X76200000Y-82550000D03*
%TD*%
%TO.C,U3*%
X76200000Y-34290000D03*
D10*
X76200000Y-36830000D03*
X76200000Y-39370000D03*
X76200000Y-41910000D03*
X76200000Y-44450000D03*
X76200000Y-46990000D03*
X76200000Y-49530000D03*
X76200000Y-52070000D03*
X76200000Y-54610000D03*
X76200000Y-57150000D03*
X76200000Y-59690000D03*
X76200000Y-62230000D03*
X76200000Y-64770000D03*
X76200000Y-67310000D03*
X83820000Y-67310000D03*
X91440000Y-67310000D03*
X83820000Y-64770000D03*
X91440000Y-64770000D03*
X83820000Y-62230000D03*
X91440000Y-62230000D03*
X83820000Y-59690000D03*
X91440000Y-59690000D03*
X83820000Y-57150000D03*
X91440000Y-57150000D03*
X83820000Y-54610000D03*
X91440000Y-54610000D03*
X83820000Y-52070000D03*
X91440000Y-52070000D03*
X83820000Y-49530000D03*
X91440000Y-49530000D03*
X83820000Y-46990000D03*
X91440000Y-46990000D03*
X83820000Y-44450000D03*
X91440000Y-44450000D03*
X83820000Y-41910000D03*
X91440000Y-41910000D03*
X83820000Y-39370000D03*
X91440000Y-39370000D03*
X83820000Y-36830000D03*
X91440000Y-36830000D03*
X83820000Y-34290000D03*
X91440000Y-34290000D03*
%TD*%
D14*
%TO.C,R2*%
X116840000Y-44450000D03*
X116840000Y-36830000D03*
%TD*%
D15*
%TO.C,J1*%
X28200000Y-28200000D03*
X121800000Y-28200000D03*
D16*
X116440000Y-118030000D03*
D17*
X116440000Y-120570000D03*
X113900000Y-118030000D03*
X113900000Y-120570000D03*
X111360000Y-118030000D03*
X111360000Y-120570000D03*
X108820000Y-118030000D03*
X108820000Y-120570000D03*
X106280000Y-118030000D03*
X106280000Y-120570000D03*
X103740000Y-118030000D03*
X103740000Y-120570000D03*
X101200000Y-118030000D03*
X101200000Y-120570000D03*
X98660000Y-118030000D03*
X98660000Y-120570000D03*
X96120000Y-118030000D03*
X96120000Y-120570000D03*
X93580000Y-118030000D03*
X93580000Y-120570000D03*
X91040000Y-118030000D03*
X91040000Y-120570000D03*
X88500000Y-118030000D03*
X88500000Y-120570000D03*
X85960000Y-118030000D03*
X85960000Y-120570000D03*
X83420000Y-118030000D03*
X83420000Y-120570000D03*
X80880000Y-118030000D03*
X80880000Y-120570000D03*
X78340000Y-118030000D03*
X78340000Y-120570000D03*
X75800000Y-118030000D03*
X75800000Y-120570000D03*
X73260000Y-118030000D03*
X73260000Y-120570000D03*
X70720000Y-118030000D03*
X70720000Y-120570000D03*
X68180000Y-118030000D03*
X68180000Y-120570000D03*
X65640000Y-118030000D03*
X65640000Y-120570000D03*
X63100000Y-118030000D03*
X63100000Y-120570000D03*
X60560000Y-118030000D03*
X60560000Y-120570000D03*
X58020000Y-118030000D03*
X58020000Y-120570000D03*
X55480000Y-118030000D03*
X55480000Y-120570000D03*
D16*
X51670000Y-118060000D03*
D17*
X51670000Y-120600000D03*
X49130000Y-118060000D03*
X49130000Y-120600000D03*
X46590000Y-118060000D03*
X46590000Y-120600000D03*
X44050000Y-118060000D03*
X44050000Y-120600000D03*
D16*
X40240000Y-120570000D03*
D17*
X37700000Y-120570000D03*
X35160000Y-120570000D03*
X32620000Y-120570000D03*
%TD*%
D10*
%TO.C,C4*%
X114300000Y-30480000D03*
X109300000Y-30480000D03*
%TD*%
%TO.C,C5*%
X78820000Y-78740000D03*
X83820000Y-78740000D03*
%TD*%
D11*
%TO.C,U1*%
X30480000Y-34290000D03*
D10*
X30480000Y-36830000D03*
X30480000Y-39370000D03*
X30480000Y-41910000D03*
X30480000Y-44450000D03*
X30480000Y-46990000D03*
X30480000Y-49530000D03*
X30480000Y-52070000D03*
X30480000Y-54610000D03*
X30480000Y-57150000D03*
X30480000Y-59690000D03*
X30480000Y-62230000D03*
X30480000Y-64770000D03*
X30480000Y-67310000D03*
X38100000Y-67310000D03*
X45720000Y-67310000D03*
X38100000Y-64770000D03*
X45720000Y-64770000D03*
X38100000Y-62230000D03*
X45720000Y-62230000D03*
X38100000Y-59690000D03*
X45720000Y-59690000D03*
X38100000Y-57150000D03*
X45720000Y-57150000D03*
X38100000Y-54610000D03*
X45720000Y-54610000D03*
X38100000Y-52070000D03*
X45720000Y-52070000D03*
X38100000Y-49530000D03*
X45720000Y-49530000D03*
X38100000Y-46990000D03*
X45720000Y-46990000D03*
X38100000Y-44450000D03*
X45720000Y-44450000D03*
X38100000Y-41910000D03*
X45720000Y-41910000D03*
X38100000Y-39370000D03*
X45720000Y-39370000D03*
X38100000Y-36830000D03*
X45720000Y-36830000D03*
X38100000Y-34290000D03*
X45720000Y-34290000D03*
%TD*%
%TO.C,C1*%
X45720000Y-30480000D03*
X40720000Y-30480000D03*
%TD*%
%TO.C,C3*%
X91440000Y-30480000D03*
X86440000Y-30480000D03*
%TD*%
M02*
