M48
; DRILL file {KiCad 9.0.6} date 2026-04-05T13:55:48-0400
; FORMAT={-:-/ absolute / metric / decimal}
; #@! TF.CreationDate,2026-04-05T13:55:48-04:00
; #@! TF.GenerationSoftware,Kicad,Pcbnew,9.0.6
; #@! TF.FileFunction,Plated,1,2,PTH
FMAT,2
METRIC
; #@! TA.AperFunction,Plated,PTH,ViaDrill
T1C0.300
; #@! TA.AperFunction,Plated,PTH,ComponentDrill
T2C0.700
; #@! TA.AperFunction,Plated,PTH,ComponentDrill
T3C0.800
; #@! TA.AperFunction,Plated,PTH,ComponentDrill
T4C1.000
%
G90
G05
T1
X27.594Y-83.058
X27.628Y-122.232
X28.194Y-88.011
X28.194Y-121.666
X28.321Y-38.608
X29.4Y-116.649
X34.29Y-122.52
X40.84Y-89.154
X44.577Y-91.313
X48.069Y-102.425
X54.592Y-71.41
X55.144Y-70.831
X55.666Y-70.225
X55.735Y-113.805
X58.32Y-114.23
X60.56Y-114.79
X62.357Y-69.088
X62.484Y-83.185
X63.1Y-115.14
X65.65Y-115.37
X68.18Y-115.81
X68.67Y-72.01
X69.368Y-72.453
X70.254Y-111.971
X70.655Y-112.76
X71.049Y-113.458
X71.28Y-72.43
X71.359Y-73.358
X71.446Y-114.153
X71.842Y-114.848
X71.928Y-71.925
X72.259Y-115.531
X72.528Y-71.325
X73.04Y-70.71
X74.549Y-87.757
X80.01Y-69.011
X82.677Y-91.821
X84.836Y-102.743
X89.789Y-95.25
X94.282Y-36.66
X94.481Y-115.406
X98.552Y-79.37
X100.145Y-81.87
X100.761Y-81.188
X101.1Y-82.388
X101.468Y-80.787
X102.16Y-80.386
X102.924Y-79.985
X104.232Y-82.388
X104.633Y-79.584
X106.03Y-36.83
X106.28Y-79.985
X107.33Y-36.83
X108.71Y-80.386
X111.38Y-80.787
X113.741Y-81.188
X114.935Y-93.726
X116.07Y-82.05
X116.932Y-115.67
T2
X116.84Y-36.83
X116.84Y-44.45
T3
X30.48Y-34.29
X30.48Y-36.83
X30.48Y-39.37
X30.48Y-41.91
X30.48Y-44.45
X30.48Y-46.99
X30.48Y-49.53
X30.48Y-52.07
X30.48Y-54.61
X30.48Y-57.15
X30.48Y-59.69
X30.48Y-62.23
X30.48Y-64.77
X30.48Y-67.31
X30.48Y-82.804
X30.48Y-85.344
X30.48Y-87.884
X30.48Y-90.424
X30.48Y-92.964
X30.48Y-95.504
X30.48Y-98.044
X33.1Y-78.74
X38.1Y-34.29
X38.1Y-36.83
X38.1Y-39.37
X38.1Y-41.91
X38.1Y-44.45
X38.1Y-46.99
X38.1Y-49.53
X38.1Y-52.07
X38.1Y-54.61
X38.1Y-57.15
X38.1Y-59.69
X38.1Y-62.23
X38.1Y-64.77
X38.1Y-67.31
X38.1Y-78.74
X38.1Y-82.804
X38.1Y-85.344
X38.1Y-87.884
X38.1Y-90.424
X38.1Y-92.964
X38.1Y-95.504
X38.1Y-98.044
X40.72Y-30.48
X45.72Y-30.48
X45.72Y-34.29
X45.72Y-36.83
X45.72Y-39.37
X45.72Y-41.91
X45.72Y-44.45
X45.72Y-46.99
X45.72Y-49.53
X45.72Y-52.07
X45.72Y-54.61
X45.72Y-57.15
X45.72Y-59.69
X45.72Y-62.23
X45.72Y-64.77
X45.72Y-67.31
X53.34Y-34.29
X53.34Y-36.83
X53.34Y-39.37
X53.34Y-41.91
X53.34Y-44.45
X53.34Y-46.99
X53.34Y-49.53
X53.34Y-52.07
X53.34Y-54.61
X53.34Y-57.15
X53.34Y-59.69
X53.34Y-62.23
X53.34Y-64.77
X53.34Y-67.31
X53.34Y-82.55
X53.34Y-85.09
X53.34Y-87.63
X53.34Y-90.17
X53.34Y-92.71
X53.34Y-95.25
X53.34Y-97.79
X55.96Y-78.74
X60.96Y-34.29
X60.96Y-36.83
X60.96Y-39.37
X60.96Y-41.91
X60.96Y-44.45
X60.96Y-46.99
X60.96Y-49.53
X60.96Y-52.07
X60.96Y-54.61
X60.96Y-57.15
X60.96Y-59.69
X60.96Y-62.23
X60.96Y-64.77
X60.96Y-67.31
X60.96Y-78.74
X60.96Y-82.55
X60.96Y-85.09
X60.96Y-87.63
X60.96Y-90.17
X60.96Y-92.71
X60.96Y-95.25
X60.96Y-97.79
X63.58Y-30.48
X68.58Y-30.48
X68.58Y-34.29
X68.58Y-36.83
X68.58Y-39.37
X68.58Y-41.91
X68.58Y-44.45
X68.58Y-46.99
X68.58Y-49.53
X68.58Y-52.07
X68.58Y-54.61
X68.58Y-57.15
X68.58Y-59.69
X68.58Y-62.23
X68.58Y-64.77
X68.58Y-67.31
X76.2Y-34.29
X76.2Y-36.83
X76.2Y-39.37
X76.2Y-41.91
X76.2Y-44.45
X76.2Y-46.99
X76.2Y-49.53
X76.2Y-52.07
X76.2Y-54.61
X76.2Y-57.15
X76.2Y-59.69
X76.2Y-62.23
X76.2Y-64.77
X76.2Y-67.31
X76.2Y-82.55
X76.2Y-85.09
X76.2Y-87.63
X76.2Y-90.17
X76.2Y-92.71
X76.2Y-95.25
X76.2Y-97.79
X76.2Y-100.33
X78.82Y-78.74
X83.82Y-34.29
X83.82Y-36.83
X83.82Y-39.37
X83.82Y-41.91
X83.82Y-44.45
X83.82Y-46.99
X83.82Y-49.53
X83.82Y-52.07
X83.82Y-54.61
X83.82Y-57.15
X83.82Y-59.69
X83.82Y-62.23
X83.82Y-64.77
X83.82Y-67.31
X83.82Y-78.74
X83.82Y-82.55
X83.82Y-85.09
X83.82Y-87.63
X83.82Y-90.17
X83.82Y-92.71
X83.82Y-95.25
X83.82Y-97.79
X83.82Y-100.33
X86.44Y-30.48
X91.44Y-30.48
X91.44Y-34.29
X91.44Y-36.83
X91.44Y-39.37
X91.44Y-41.91
X91.44Y-44.45
X91.44Y-46.99
X91.44Y-49.53
X91.44Y-52.07
X91.44Y-54.61
X91.44Y-57.15
X91.44Y-59.69
X91.44Y-62.23
X91.44Y-64.77
X91.44Y-67.31
X99.06Y-34.29
X99.06Y-36.83
X99.06Y-39.37
X99.06Y-41.91
X99.06Y-44.45
X99.06Y-46.99
X99.06Y-49.53
X99.06Y-52.07
X99.06Y-54.61
X99.06Y-57.15
X99.06Y-59.69
X99.06Y-62.23
X99.06Y-64.77
X99.06Y-67.31
X109.3Y-30.48
X114.3Y-30.48
X114.3Y-34.29
X114.3Y-36.83
X114.3Y-39.37
X114.3Y-41.91
X114.3Y-44.45
X114.3Y-46.99
X114.3Y-49.53
X114.3Y-52.07
X114.3Y-54.61
X114.3Y-57.15
X114.3Y-59.69
X114.3Y-62.23
X114.3Y-64.77
X114.3Y-67.31
T4
X32.62Y-120.57
X35.16Y-120.57
X37.7Y-120.57
X40.24Y-120.57
X44.05Y-118.06
X44.05Y-120.6
X46.59Y-118.06
X46.59Y-120.6
X49.13Y-118.06
X49.13Y-120.6
X51.67Y-118.06
X51.67Y-120.6
X55.48Y-118.03
X55.48Y-120.57
X58.02Y-118.03
X58.02Y-120.57
X60.56Y-118.03
X60.56Y-120.57
X63.1Y-118.03
X63.1Y-120.57
X65.64Y-118.03
X65.64Y-120.57
X68.18Y-118.03
X68.18Y-120.57
X70.72Y-118.03
X70.72Y-120.57
X73.26Y-118.03
X73.26Y-120.57
X75.8Y-118.03
X75.8Y-120.57
X78.34Y-118.03
X78.34Y-120.57
X80.88Y-118.03
X80.88Y-120.57
X83.42Y-118.03
X83.42Y-120.57
X85.96Y-118.03
X85.96Y-120.57
X88.5Y-118.03
X88.5Y-120.57
X91.04Y-118.03
X91.04Y-120.57
X93.58Y-118.03
X93.58Y-120.57
X96.12Y-118.03
X96.12Y-120.57
X98.66Y-118.03
X98.66Y-120.57
X101.2Y-118.03
X101.2Y-120.57
X103.74Y-118.03
X103.74Y-120.57
X106.28Y-118.03
X106.28Y-120.57
X108.82Y-118.03
X108.82Y-120.57
X111.36Y-118.03
X111.36Y-120.57
X113.9Y-118.03
X113.9Y-120.57
X116.44Y-118.03
X116.44Y-120.57
M30
