%TF.GenerationSoftware,KiCad,Pcbnew,9.0.6*%
%TF.CreationDate,2026-04-05T13:55:42-04:00*%
%TF.ProjectId,Memory,4d656d6f-7279-42e6-9b69-6361645f7063,rev?*%
%TF.SameCoordinates,Original*%
%TF.FileFunction,Legend,Bot*%
%TF.FilePolarity,Positive*%
%FSLAX46Y46*%
G04 Gerber Fmt 4.6, Leading zero omitted, Abs format (unit mm)*
G04 Created by KiCad (PCBNEW 9.0.6) date 2026-04-05 13:55:42*
%MOMM*%
%LPD*%
G01*
G04 APERTURE LIST*
%ADD10C,0.100000*%
%ADD11C,0.120000*%
G04 APERTURE END LIST*
D10*
G36*
X93517886Y-123409877D02*
G01*
X93522316Y-123494633D01*
X93530422Y-123524229D01*
X93545436Y-123546636D01*
X93569591Y-123562854D01*
X93605124Y-123573884D01*
X93654268Y-123580725D01*
X93719259Y-123584377D01*
X93915086Y-123586113D01*
X94124788Y-123581527D01*
X94191722Y-123571322D01*
X94238298Y-123551867D01*
X94255105Y-123537739D01*
X94268206Y-123520180D01*
X94285134Y-123473280D01*
X94292772Y-123408185D01*
X94294810Y-123321913D01*
X94294883Y-123281191D01*
X94292247Y-123170575D01*
X94283563Y-123091621D01*
X94274191Y-123054471D01*
X94261496Y-123026170D01*
X94238860Y-122999244D01*
X94220312Y-122987781D01*
X94194903Y-122978959D01*
X94109810Y-122967873D01*
X93916841Y-122963981D01*
X93757555Y-122966459D01*
X93648301Y-122974036D01*
X93599618Y-122982238D01*
X93569827Y-122992979D01*
X93563376Y-122997488D01*
X93549217Y-123013721D01*
X93541211Y-123038065D01*
X93535365Y-123108542D01*
X93180144Y-123108542D01*
X93180144Y-123050382D01*
X93182692Y-122971276D01*
X93190762Y-122905001D01*
X93201236Y-122861496D01*
X93215717Y-122824191D01*
X93232054Y-122795899D01*
X93251943Y-122771452D01*
X93302187Y-122732836D01*
X93314859Y-122725997D01*
X93351916Y-122709653D01*
X93395591Y-122696693D01*
X93510333Y-122680083D01*
X93723226Y-122672161D01*
X93815328Y-122671729D01*
X94080611Y-122674615D01*
X94277984Y-122685045D01*
X94363906Y-122695301D01*
X94433765Y-122709309D01*
X94479607Y-122723592D01*
X94517490Y-122740851D01*
X94545414Y-122758948D01*
X94568614Y-122779785D01*
X94603849Y-122830367D01*
X94616826Y-122859033D01*
X94628321Y-122894337D01*
X94636996Y-122938496D01*
X94647599Y-123079036D01*
X94650104Y-123282947D01*
X94647858Y-123463577D01*
X94641903Y-123576496D01*
X94641327Y-123582526D01*
X94632088Y-123639566D01*
X94618427Y-123687899D01*
X94603606Y-123721501D01*
X94585083Y-123750584D01*
X94539473Y-123794641D01*
X94515313Y-123810054D01*
X94480095Y-123827276D01*
X94438306Y-123841520D01*
X94327707Y-123861789D01*
X94134254Y-123874402D01*
X93817083Y-123878289D01*
X93628816Y-123875654D01*
X93489077Y-123866980D01*
X93415829Y-123857143D01*
X93354926Y-123843683D01*
X93335849Y-123838065D01*
X93295789Y-123822439D01*
X93261384Y-123803108D01*
X93235924Y-123782965D01*
X93214359Y-123759351D01*
X93183181Y-123702912D01*
X93164000Y-123625866D01*
X93157399Y-123520855D01*
X93158403Y-123485332D01*
X93160833Y-123409877D01*
X93517886Y-123409877D01*
G37*
G36*
X93047795Y-123029850D02*
G01*
X93047795Y-123858750D01*
X92738064Y-123858750D01*
X92738064Y-123515130D01*
X92735268Y-123418584D01*
X92725463Y-123355047D01*
X92715523Y-123327669D01*
X92701962Y-123304467D01*
X92699596Y-123301189D01*
X92663707Y-123270096D01*
X92609233Y-123248875D01*
X92542059Y-123241578D01*
X92488721Y-123244236D01*
X92447661Y-123253070D01*
X92426168Y-123263208D01*
X92409283Y-123277168D01*
X92389098Y-123313507D01*
X92379866Y-123373192D01*
X92379333Y-123397665D01*
X92087081Y-123397665D01*
X92087081Y-123341489D01*
X92089601Y-123272769D01*
X92097477Y-123213157D01*
X92108173Y-123171019D01*
X92122986Y-123134368D01*
X92139715Y-123106334D01*
X92160036Y-123082222D01*
X92209683Y-123046332D01*
X92277287Y-123022336D01*
X92372978Y-123009953D01*
X92421312Y-123008784D01*
X92490152Y-123011297D01*
X92549559Y-123019115D01*
X92592019Y-123029814D01*
X92629293Y-123044618D01*
X92659076Y-123061798D01*
X92685433Y-123082724D01*
X92729285Y-123136213D01*
X92739820Y-123154109D01*
X92755543Y-123154109D01*
X92755543Y-123029850D01*
X93047795Y-123029850D01*
G37*
G36*
X91542323Y-123011246D02*
G01*
X91665582Y-123018704D01*
X91744084Y-123028348D01*
X91805979Y-123041323D01*
X91852684Y-123057786D01*
X91890384Y-123079115D01*
X91921722Y-123103192D01*
X91944070Y-123126785D01*
X91962230Y-123153340D01*
X91986746Y-123215651D01*
X91997932Y-123289129D01*
X91688125Y-123289129D01*
X91680165Y-123253324D01*
X91672492Y-123240247D01*
X91661017Y-123229951D01*
X91621608Y-123216209D01*
X91531005Y-123209182D01*
X91434418Y-123208300D01*
X91333838Y-123211705D01*
X91298231Y-123217045D01*
X91270984Y-123225772D01*
X91253600Y-123236393D01*
X91240826Y-123250426D01*
X91226921Y-123287994D01*
X91222690Y-123353090D01*
X91222690Y-123396825D01*
X91236658Y-123396825D01*
X91264695Y-123370972D01*
X91295723Y-123352752D01*
X91356755Y-123337302D01*
X91471131Y-123332101D01*
X91679947Y-123335179D01*
X91804102Y-123346955D01*
X91854439Y-123358357D01*
X91892415Y-123370789D01*
X91925633Y-123387143D01*
X91951834Y-123405580D01*
X91974197Y-123427485D01*
X92006843Y-123480230D01*
X92026069Y-123549636D01*
X92031134Y-123620994D01*
X92028596Y-123674549D01*
X92020599Y-123720827D01*
X92009810Y-123753061D01*
X91994817Y-123781060D01*
X91977391Y-123802907D01*
X91956063Y-123821626D01*
X91900507Y-123850415D01*
X91818566Y-123869671D01*
X91692640Y-123878152D01*
X91670647Y-123878289D01*
X91503260Y-123875562D01*
X91399243Y-123866240D01*
X91339927Y-123850354D01*
X91304384Y-123833149D01*
X91275035Y-123812358D01*
X91236506Y-123765941D01*
X91224446Y-123743574D01*
X91212157Y-123743574D01*
X91212157Y-123857299D01*
X90914639Y-123857299D01*
X90914639Y-123585961D01*
X91227880Y-123585961D01*
X91230470Y-123609357D01*
X91238828Y-123628856D01*
X91266628Y-123652790D01*
X91319961Y-123669474D01*
X91424810Y-123679271D01*
X91507920Y-123680605D01*
X91595892Y-123677921D01*
X91657490Y-123668900D01*
X91683690Y-123659674D01*
X91702320Y-123647226D01*
X91712579Y-123634311D01*
X91718741Y-123618799D01*
X91721403Y-123594738D01*
X91718783Y-123571055D01*
X91710212Y-123551733D01*
X91682472Y-123529457D01*
X91628364Y-123514664D01*
X91518023Y-123507312D01*
X91481664Y-123507040D01*
X91339888Y-123508795D01*
X91282148Y-123515817D01*
X91261366Y-123525687D01*
X91245373Y-123538904D01*
X91235119Y-123553765D01*
X91229270Y-123571068D01*
X91227880Y-123585961D01*
X90914639Y-123585961D01*
X90914639Y-123358357D01*
X90917255Y-123273635D01*
X90925799Y-123207961D01*
X90936020Y-123170363D01*
X90950117Y-123138307D01*
X90984706Y-123091064D01*
X91016613Y-123063193D01*
X91051987Y-123042254D01*
X91120905Y-123021860D01*
X91236192Y-123011119D01*
X91388928Y-123008784D01*
X91542323Y-123011246D01*
G37*
G36*
X90780000Y-123029850D02*
G01*
X90780000Y-123858750D01*
X90470269Y-123858750D01*
X90470269Y-123527419D01*
X90466863Y-123406633D01*
X90461520Y-123367408D01*
X90452786Y-123337730D01*
X90426488Y-123297733D01*
X90424779Y-123295922D01*
X90405707Y-123279524D01*
X90382415Y-123266286D01*
X90319592Y-123248488D01*
X90213051Y-123241578D01*
X90134492Y-123244169D01*
X90075134Y-123252535D01*
X90043544Y-123262238D01*
X90018760Y-123275469D01*
X90004758Y-123287145D01*
X89987120Y-123308114D01*
X89975776Y-123334703D01*
X89967501Y-123402572D01*
X89966290Y-123481852D01*
X89966290Y-123858750D01*
X89656559Y-123858750D01*
X89656559Y-123481852D01*
X89659518Y-123349710D01*
X89670459Y-123256039D01*
X89681070Y-123216084D01*
X89695596Y-123181831D01*
X89735156Y-123125501D01*
X89747540Y-123112053D01*
X89776275Y-123086223D01*
X89808369Y-123064524D01*
X89881045Y-123033990D01*
X89979233Y-123015355D01*
X90120315Y-123008784D01*
X90199834Y-123011302D01*
X90267595Y-123019154D01*
X90314543Y-123029697D01*
X90355207Y-123044251D01*
X90386603Y-123060761D01*
X90413952Y-123080800D01*
X90457230Y-123130559D01*
X90472025Y-123155788D01*
X90487748Y-123155788D01*
X90487748Y-123029850D01*
X90780000Y-123029850D01*
G37*
G36*
X89522149Y-122691269D02*
G01*
X89522149Y-123858750D01*
X89212419Y-123858750D01*
X89212419Y-123526579D01*
X89133650Y-123526579D01*
X88801175Y-123858750D01*
X88389931Y-123858750D01*
X88876432Y-123416365D01*
X88447710Y-123031072D01*
X88862465Y-123031072D01*
X89145939Y-123300884D01*
X89212419Y-123300884D01*
X89212419Y-122691269D01*
X89522149Y-122691269D01*
G37*
G36*
X87996384Y-123011435D02*
G01*
X88111126Y-123020219D01*
X88171149Y-123030143D01*
X88220736Y-123043748D01*
X88257565Y-123058952D01*
X88290112Y-123077504D01*
X88297195Y-123082286D01*
X88326839Y-123106213D01*
X88351138Y-123133400D01*
X88367999Y-123160235D01*
X88381548Y-123191276D01*
X88400239Y-123272473D01*
X88408813Y-123403908D01*
X88409165Y-123447200D01*
X88406532Y-123550305D01*
X88397872Y-123631663D01*
X88387643Y-123677662D01*
X88373531Y-123716312D01*
X88357699Y-123745139D01*
X88338339Y-123770259D01*
X88304217Y-123801352D01*
X88273674Y-123820912D01*
X88238386Y-123837292D01*
X88149660Y-123861135D01*
X88014489Y-123875188D01*
X87875418Y-123878289D01*
X87729151Y-123875642D01*
X87609095Y-123866879D01*
X87539314Y-123856450D01*
X87480289Y-123842000D01*
X87439027Y-123826729D01*
X87404035Y-123808189D01*
X87377557Y-123788557D01*
X87355394Y-123765925D01*
X87323105Y-123712145D01*
X87302371Y-123639156D01*
X87296181Y-123593670D01*
X87604232Y-123593670D01*
X87612176Y-123623480D01*
X87626688Y-123645810D01*
X87660719Y-123665424D01*
X87726331Y-123676925D01*
X87850994Y-123680605D01*
X87934031Y-123678088D01*
X87997057Y-123670238D01*
X88031614Y-123660883D01*
X88057405Y-123648274D01*
X88060966Y-123645800D01*
X88077665Y-123629624D01*
X88089051Y-123608730D01*
X88098368Y-123554504D01*
X88099435Y-123511925D01*
X87290991Y-123511925D01*
X87289235Y-123427966D01*
X87291711Y-123342252D01*
X87600721Y-123342252D01*
X88099435Y-123342252D01*
X88095510Y-123301822D01*
X88085474Y-123269572D01*
X88074056Y-123251474D01*
X88058425Y-123236674D01*
X88014393Y-123216372D01*
X87936956Y-123204297D01*
X87838705Y-123201355D01*
X87755072Y-123203889D01*
X87692839Y-123211856D01*
X87660233Y-123221116D01*
X87636211Y-123233590D01*
X87625222Y-123243029D01*
X87611531Y-123261228D01*
X87604326Y-123286559D01*
X87600721Y-123342252D01*
X87291711Y-123342252D01*
X87291764Y-123340415D01*
X87299698Y-123267406D01*
X87310083Y-123218945D01*
X87324393Y-123177422D01*
X87340576Y-123145660D01*
X87360224Y-123118005D01*
X87390749Y-123087553D01*
X87421545Y-123065854D01*
X87456745Y-123048231D01*
X87538724Y-123025533D01*
X87669125Y-123012302D01*
X87843972Y-123008784D01*
X87996384Y-123011435D01*
G37*
G36*
X87173754Y-123029850D02*
G01*
X87173754Y-123858750D01*
X86864024Y-123858750D01*
X86864024Y-123515130D01*
X86861227Y-123418584D01*
X86851423Y-123355047D01*
X86841482Y-123327669D01*
X86827921Y-123304467D01*
X86825556Y-123301189D01*
X86789666Y-123270096D01*
X86735192Y-123248875D01*
X86668019Y-123241578D01*
X86614681Y-123244236D01*
X86573621Y-123253070D01*
X86552128Y-123263208D01*
X86535243Y-123277168D01*
X86515057Y-123313507D01*
X86505826Y-123373192D01*
X86505292Y-123397665D01*
X86213040Y-123397665D01*
X86213040Y-123341489D01*
X86215561Y-123272769D01*
X86223437Y-123213157D01*
X86234132Y-123171019D01*
X86248945Y-123134368D01*
X86265674Y-123106334D01*
X86285995Y-123082222D01*
X86335642Y-123046332D01*
X86403247Y-123022336D01*
X86498938Y-123009953D01*
X86547271Y-123008784D01*
X86616111Y-123011297D01*
X86675519Y-123019115D01*
X86717978Y-123029814D01*
X86755252Y-123044618D01*
X86785035Y-123061798D01*
X86811392Y-123082724D01*
X86855245Y-123136213D01*
X86865779Y-123154109D01*
X86881502Y-123154109D01*
X86881502Y-123029850D01*
X87173754Y-123029850D01*
G37*
G36*
X86208995Y-123031072D02*
G01*
X85839730Y-123858750D01*
X85715472Y-123858750D01*
X85745361Y-123925959D01*
X85775148Y-123971198D01*
X85793559Y-123988301D01*
X85814304Y-124000361D01*
X85863783Y-124011767D01*
X85900944Y-124012775D01*
X85970935Y-124014531D01*
X85970935Y-124226259D01*
X85837975Y-124231525D01*
X85767079Y-124229032D01*
X85707885Y-124221352D01*
X85666833Y-124210971D01*
X85631472Y-124196732D01*
X85612203Y-124186035D01*
X85584638Y-124167745D01*
X85562416Y-124145056D01*
X85538811Y-124107745D01*
X85507098Y-124045595D01*
X85468710Y-123965529D01*
X85027699Y-123031072D01*
X85370708Y-123031072D01*
X85633192Y-123633054D01*
X85869497Y-123031072D01*
X86208995Y-123031072D01*
G37*
G36*
X84611570Y-123321415D02*
G01*
X84613250Y-123557720D01*
X83874797Y-123557720D01*
X83874797Y-123321415D01*
X84611570Y-123321415D01*
G37*
G36*
X83468209Y-123858750D02*
G01*
X83062231Y-123858750D01*
X82962473Y-123659997D01*
X82190742Y-123659997D01*
X82090984Y-123858750D01*
X81686762Y-123858750D01*
X81924422Y-123404458D01*
X82315001Y-123404458D01*
X82836459Y-123404458D01*
X82610764Y-122962531D01*
X82540773Y-122962531D01*
X82315001Y-123404458D01*
X81924422Y-123404458D01*
X82297522Y-122691269D01*
X82850503Y-122691269D01*
X83468209Y-123858750D01*
G37*
G36*
X81062405Y-123011386D02*
G01*
X81145566Y-123019831D01*
X81194392Y-123030052D01*
X81235265Y-123044146D01*
X81264870Y-123059628D01*
X81290091Y-123078460D01*
X81329315Y-123125742D01*
X81338564Y-123141820D01*
X81354287Y-123141820D01*
X81354287Y-123029850D01*
X81646539Y-123029850D01*
X81646539Y-124202063D01*
X81336808Y-124202063D01*
X81336808Y-123750596D01*
X81322841Y-123750596D01*
X81298540Y-123784556D01*
X81271192Y-123812439D01*
X81245290Y-123831238D01*
X81215579Y-123846465D01*
X81141199Y-123867330D01*
X81026903Y-123877524D01*
X80972810Y-123878289D01*
X80850470Y-123875570D01*
X80749441Y-123866308D01*
X80692731Y-123855615D01*
X80644166Y-123840742D01*
X80609609Y-123824853D01*
X80579949Y-123805448D01*
X80556772Y-123784316D01*
X80537188Y-123759765D01*
X80507603Y-123698982D01*
X80488318Y-123613203D01*
X80479643Y-123483162D01*
X80479363Y-123447964D01*
X80479775Y-123430485D01*
X80789094Y-123430485D01*
X80791881Y-123507136D01*
X80801623Y-123559736D01*
X80811429Y-123581908D01*
X80824775Y-123599142D01*
X80836339Y-123608859D01*
X80879049Y-123628120D01*
X80962607Y-123641901D01*
X81062111Y-123645571D01*
X81159058Y-123642721D01*
X81230922Y-123632536D01*
X81262388Y-123622338D01*
X81287289Y-123608394D01*
X81303660Y-123593397D01*
X81316246Y-123575124D01*
X81331884Y-123526356D01*
X81336808Y-123453230D01*
X81333788Y-123380553D01*
X81322413Y-123326418D01*
X81311503Y-123303853D01*
X81296551Y-123285558D01*
X81257384Y-123261929D01*
X81192545Y-123247479D01*
X81051578Y-123241578D01*
X80956208Y-123244471D01*
X80886428Y-123254952D01*
X80857066Y-123265182D01*
X80833953Y-123279138D01*
X80818737Y-123294280D01*
X80807155Y-123312752D01*
X80792928Y-123363262D01*
X80789094Y-123430485D01*
X80479775Y-123430485D01*
X80482049Y-123334090D01*
X80491084Y-123247677D01*
X80501176Y-123203052D01*
X80515051Y-123166095D01*
X80530644Y-123138715D01*
X80549737Y-123114837D01*
X80565077Y-123099841D01*
X80591695Y-123077970D01*
X80622316Y-123059451D01*
X80697544Y-123031907D01*
X80805795Y-123014619D01*
X80958842Y-123008784D01*
X81062405Y-123011386D01*
G37*
G36*
X80363042Y-123029850D02*
G01*
X80363042Y-123858750D01*
X80053312Y-123858750D01*
X80053312Y-123515130D01*
X80050516Y-123418584D01*
X80040711Y-123355047D01*
X80030771Y-123327669D01*
X80017209Y-123304467D01*
X80014844Y-123301189D01*
X79978955Y-123270096D01*
X79924481Y-123248875D01*
X79857307Y-123241578D01*
X79803969Y-123244236D01*
X79762909Y-123253070D01*
X79741416Y-123263208D01*
X79724531Y-123277168D01*
X79704345Y-123313507D01*
X79695114Y-123373192D01*
X79694580Y-123397665D01*
X79402328Y-123397665D01*
X79402328Y-123341489D01*
X79404849Y-123272769D01*
X79412725Y-123213157D01*
X79423421Y-123171019D01*
X79438234Y-123134368D01*
X79454963Y-123106334D01*
X79475283Y-123082222D01*
X79524930Y-123046332D01*
X79592535Y-123022336D01*
X79688226Y-123009953D01*
X79736560Y-123008784D01*
X79805399Y-123011297D01*
X79864807Y-123019115D01*
X79907267Y-123029814D01*
X79944541Y-123044618D01*
X79974323Y-123061798D01*
X80000681Y-123082724D01*
X80044533Y-123136213D01*
X80055067Y-123154109D01*
X80070791Y-123154109D01*
X80070791Y-123029850D01*
X80363042Y-123029850D01*
G37*
G36*
X79315241Y-123030843D02*
G01*
X79315241Y-123858750D01*
X79005510Y-123858750D01*
X79005510Y-123030843D01*
X79315241Y-123030843D01*
G37*
G36*
X79315241Y-122691269D02*
G01*
X79315241Y-122924063D01*
X79005510Y-122924063D01*
X79005510Y-122691269D01*
X79315241Y-122691269D01*
G37*
G36*
X78865834Y-122691269D02*
G01*
X78865834Y-123858750D01*
X78556103Y-123858750D01*
X78556103Y-122691269D01*
X78865834Y-122691269D01*
G37*
G36*
X77611799Y-123124876D02*
G01*
X77611799Y-123084576D01*
X77607111Y-123010590D01*
X77601766Y-122986686D01*
X77593626Y-122969912D01*
X77573255Y-122954898D01*
X77518113Y-122942827D01*
X77366908Y-122935038D01*
X77218034Y-122933909D01*
X77028126Y-122936103D01*
X76982255Y-122939833D01*
X76953794Y-122946197D01*
X76931179Y-122955256D01*
X76915189Y-122968784D01*
X76901371Y-123001968D01*
X76897771Y-123051298D01*
X76902276Y-123103662D01*
X76910229Y-123121891D01*
X76924045Y-123135911D01*
X76964272Y-123152146D01*
X77056949Y-123165233D01*
X77120032Y-123170443D01*
X77514589Y-123202001D01*
X77622256Y-123210743D01*
X77700025Y-123223846D01*
X77763714Y-123240809D01*
X77803273Y-123256736D01*
X77836419Y-123275879D01*
X77860855Y-123295781D01*
X77881276Y-123318832D01*
X77911802Y-123375365D01*
X77916263Y-123387742D01*
X77933012Y-123467251D01*
X77941693Y-123624245D01*
X77942520Y-123725790D01*
X77937253Y-123858750D01*
X76546061Y-123858750D01*
X76546061Y-123591075D01*
X77611799Y-123591075D01*
X77611799Y-123578786D01*
X77607795Y-123539631D01*
X77597018Y-123511929D01*
X77569808Y-123487958D01*
X77554021Y-123480631D01*
X77491470Y-123469570D01*
X76973028Y-123433309D01*
X76885987Y-123426199D01*
X76811534Y-123414701D01*
X76757880Y-123401411D01*
X76712234Y-123384714D01*
X76678270Y-123367066D01*
X76649876Y-123346586D01*
X76616052Y-123308898D01*
X76598551Y-123277508D01*
X76585077Y-123241854D01*
X76569453Y-123154876D01*
X76565295Y-123046031D01*
X76567918Y-122954848D01*
X76576507Y-122882325D01*
X76586757Y-122840724D01*
X76600903Y-122805883D01*
X76616745Y-122780158D01*
X76636105Y-122758082D01*
X76668564Y-122732637D01*
X76708919Y-122710246D01*
X76759609Y-122694724D01*
X76871014Y-122682352D01*
X77136687Y-122676891D01*
X77289781Y-122676614D01*
X77503910Y-122679731D01*
X77667044Y-122691776D01*
X77733286Y-122702767D01*
X77788748Y-122717739D01*
X77826349Y-122733137D01*
X77857985Y-122751790D01*
X77881707Y-122771552D01*
X77901363Y-122794383D01*
X77929779Y-122849793D01*
X77947365Y-122927795D01*
X77954601Y-123049381D01*
X77954732Y-123074119D01*
X77954732Y-123124876D01*
X77611799Y-123124876D01*
G37*
G36*
X75869734Y-122679057D02*
G01*
X76031542Y-122686384D01*
X76139168Y-122697680D01*
X76182798Y-122706199D01*
X76222660Y-122719015D01*
X76257270Y-122735241D01*
X76288206Y-122755199D01*
X76314686Y-122778093D01*
X76337504Y-122804313D01*
X76371646Y-122865958D01*
X76387685Y-122923376D01*
X76398646Y-123014508D01*
X76401597Y-123196226D01*
X76401652Y-123258370D01*
X76399906Y-123520883D01*
X76395760Y-123578835D01*
X76387685Y-123626719D01*
X76378235Y-123665376D01*
X76364481Y-123700830D01*
X76347164Y-123731990D01*
X76326003Y-123759937D01*
X76273267Y-123805293D01*
X76205770Y-123837181D01*
X76139168Y-123852414D01*
X75999998Y-123865748D01*
X75668390Y-123873404D01*
X75466896Y-123870956D01*
X75304663Y-123863585D01*
X75199443Y-123852414D01*
X75155798Y-123843897D01*
X75115931Y-123831083D01*
X75081324Y-123814863D01*
X75050395Y-123794912D01*
X75023922Y-123772025D01*
X75001113Y-123745814D01*
X74966977Y-123684179D01*
X74950926Y-123626719D01*
X74939334Y-123521542D01*
X74936959Y-123274170D01*
X75292179Y-123274170D01*
X75295714Y-123414919D01*
X75303423Y-123464424D01*
X75318017Y-123502149D01*
X75341690Y-123529693D01*
X75376634Y-123548656D01*
X75425044Y-123560637D01*
X75489112Y-123567237D01*
X75692890Y-123570696D01*
X75816983Y-123569359D01*
X75908039Y-123562447D01*
X75971161Y-123545604D01*
X75993842Y-123532098D01*
X76011455Y-123514475D01*
X76032027Y-123471992D01*
X76043332Y-123401252D01*
X76046432Y-123268903D01*
X76045371Y-123184380D01*
X76040388Y-123118117D01*
X76028781Y-123067900D01*
X76007849Y-123031511D01*
X75971583Y-123005153D01*
X75913421Y-122988835D01*
X75806997Y-122980554D01*
X75691135Y-122979399D01*
X75501741Y-122982129D01*
X75435132Y-122987926D01*
X75384376Y-122998798D01*
X75347321Y-123016333D01*
X75321813Y-123042122D01*
X75305699Y-123077754D01*
X75296826Y-123124818D01*
X75292179Y-123274170D01*
X74936959Y-123274170D01*
X74939334Y-123028333D01*
X74950926Y-122923376D01*
X74960380Y-122884699D01*
X74974139Y-122849229D01*
X74991456Y-122818068D01*
X75012618Y-122790120D01*
X75065348Y-122744777D01*
X75132844Y-122712903D01*
X75199443Y-122697680D01*
X75342978Y-122684103D01*
X75668390Y-122676614D01*
X75869734Y-122679057D01*
G37*
G36*
X74439085Y-123124876D02*
G01*
X74439085Y-123084576D01*
X74434397Y-123010590D01*
X74429052Y-122986686D01*
X74420911Y-122969912D01*
X74400540Y-122954898D01*
X74345398Y-122942827D01*
X74194193Y-122935038D01*
X74045320Y-122933909D01*
X73855411Y-122936103D01*
X73809541Y-122939833D01*
X73781079Y-122946197D01*
X73758465Y-122955256D01*
X73742474Y-122968784D01*
X73728656Y-123001968D01*
X73725056Y-123051298D01*
X73729562Y-123103662D01*
X73737514Y-123121891D01*
X73751330Y-123135911D01*
X73791558Y-123152146D01*
X73884234Y-123165233D01*
X73947317Y-123170443D01*
X74341874Y-123202001D01*
X74449541Y-123210743D01*
X74527310Y-123223846D01*
X74590999Y-123240809D01*
X74630558Y-123256736D01*
X74663704Y-123275879D01*
X74688140Y-123295781D01*
X74708561Y-123318832D01*
X74739088Y-123375365D01*
X74743549Y-123387742D01*
X74760298Y-123467251D01*
X74768978Y-123624245D01*
X74769805Y-123725790D01*
X74764538Y-123858750D01*
X73373346Y-123858750D01*
X73373346Y-123591075D01*
X74439085Y-123591075D01*
X74439085Y-123578786D01*
X74435081Y-123539631D01*
X74424303Y-123511929D01*
X74397094Y-123487958D01*
X74381306Y-123480631D01*
X74318756Y-123469570D01*
X73800313Y-123433309D01*
X73713273Y-123426199D01*
X73638819Y-123414701D01*
X73585165Y-123401411D01*
X73539520Y-123384714D01*
X73505556Y-123367066D01*
X73477162Y-123346586D01*
X73443337Y-123308898D01*
X73425837Y-123277508D01*
X73412362Y-123241854D01*
X73396738Y-123154876D01*
X73392581Y-123046031D01*
X73395203Y-122954848D01*
X73403793Y-122882325D01*
X73414042Y-122840724D01*
X73428188Y-122805883D01*
X73444030Y-122780158D01*
X73463390Y-122758082D01*
X73495850Y-122732637D01*
X73536205Y-122710246D01*
X73586894Y-122694724D01*
X73698299Y-122682352D01*
X73963972Y-122676891D01*
X74117066Y-122676614D01*
X74331195Y-122679731D01*
X74494329Y-122691776D01*
X74560572Y-122702767D01*
X74616033Y-122717739D01*
X74653635Y-122733137D01*
X74685270Y-122751790D01*
X74708992Y-122771552D01*
X74728648Y-122794383D01*
X74757065Y-122849793D01*
X74774650Y-122927795D01*
X74781886Y-123049381D01*
X74782017Y-123074119D01*
X74782017Y-123124876D01*
X74439085Y-123124876D01*
G37*
G36*
X72662003Y-122679304D02*
G01*
X72817176Y-122688367D01*
X72900978Y-122698662D01*
X72970789Y-122712876D01*
X73018195Y-122727635D01*
X73057950Y-122745516D01*
X73087313Y-122764120D01*
X73111755Y-122785513D01*
X73146913Y-122835381D01*
X73171159Y-122905897D01*
X73183066Y-122971817D01*
X73189512Y-123050810D01*
X73192225Y-123237686D01*
X73189075Y-123469233D01*
X73176796Y-123618708D01*
X73166630Y-123667923D01*
X73153046Y-123707161D01*
X73138143Y-123735178D01*
X73120041Y-123759402D01*
X73099413Y-123780668D01*
X73071363Y-123802760D01*
X73038764Y-123821333D01*
X72960192Y-123847571D01*
X72839499Y-123864899D01*
X72631174Y-123873087D01*
X72563910Y-123873404D01*
X72290542Y-123870608D01*
X72114215Y-123860803D01*
X72049086Y-123851688D01*
X72000676Y-123839479D01*
X71988184Y-123834936D01*
X71952468Y-123818806D01*
X71921670Y-123798926D01*
X71898268Y-123777763D01*
X71878390Y-123752946D01*
X71848860Y-123691966D01*
X71830278Y-123606349D01*
X71823987Y-123489943D01*
X72168466Y-123489943D01*
X72170982Y-123526920D01*
X72178827Y-123555795D01*
X72188780Y-123572907D01*
X72202358Y-123585877D01*
X72239095Y-123600188D01*
X72254180Y-123602142D01*
X72558720Y-123610919D01*
X72698926Y-123608477D01*
X72776111Y-123601150D01*
X72779226Y-123600386D01*
X72801535Y-123593081D01*
X72819064Y-123581516D01*
X72839107Y-123550101D01*
X72847321Y-123498012D01*
X72847461Y-123488187D01*
X72845033Y-123457772D01*
X72837808Y-123431629D01*
X72827313Y-123412035D01*
X72813087Y-123396308D01*
X72791438Y-123382934D01*
X72762463Y-123374096D01*
X72718563Y-123368698D01*
X72549943Y-123365379D01*
X72372945Y-123366816D01*
X72261299Y-123374432D01*
X72225296Y-123382107D01*
X72200007Y-123393186D01*
X72183556Y-123408289D01*
X72174068Y-123428035D01*
X72168580Y-123475636D01*
X72168466Y-123489943D01*
X71823987Y-123489943D01*
X71823702Y-123484676D01*
X71826343Y-123404542D01*
X71835062Y-123335975D01*
X71845946Y-123292761D01*
X71861165Y-123254945D01*
X71878140Y-123226404D01*
X71898987Y-123201438D01*
X71950767Y-123162870D01*
X72023482Y-123134171D01*
X72130177Y-123114132D01*
X72295440Y-123103784D01*
X72380194Y-123102894D01*
X72548552Y-123105842D01*
X72667602Y-123116707D01*
X72717090Y-123127098D01*
X72758514Y-123141267D01*
X72819723Y-123177409D01*
X72852728Y-123206163D01*
X72854407Y-123141439D01*
X72851753Y-123067535D01*
X72842945Y-123016847D01*
X72833707Y-122994701D01*
X72821233Y-122978554D01*
X72805482Y-122967339D01*
X72750042Y-122953043D01*
X72618000Y-122942662D01*
X72500942Y-122940931D01*
X72303181Y-122946197D01*
X72200828Y-122951912D01*
X72180156Y-122957091D01*
X72166710Y-122965584D01*
X72156495Y-122976397D01*
X72150338Y-122993404D01*
X72147476Y-123018401D01*
X71814924Y-123018401D01*
X71818879Y-122918407D01*
X71829374Y-122848869D01*
X71839699Y-122817861D01*
X71853605Y-122792431D01*
X71870948Y-122771182D01*
X71893442Y-122750727D01*
X71920904Y-122733214D01*
X71991757Y-122707207D01*
X72106076Y-122688694D01*
X72307202Y-122678120D01*
X72467663Y-122676614D01*
X72662003Y-122679304D01*
G37*
G36*
X71264920Y-123321415D02*
G01*
X71266599Y-123557720D01*
X70528146Y-123557720D01*
X70528146Y-123321415D01*
X71264920Y-123321415D01*
G37*
G36*
X70009588Y-123858750D02*
G01*
X69167866Y-123858750D01*
X68950730Y-123855850D01*
X68798106Y-123845321D01*
X68735450Y-123835249D01*
X68684553Y-123821560D01*
X68648414Y-123806721D01*
X68617037Y-123788647D01*
X68581607Y-123760823D01*
X68555868Y-123733731D01*
X68534039Y-123702731D01*
X68503117Y-123631378D01*
X68482287Y-123529690D01*
X68470986Y-123368884D01*
X68469832Y-123279436D01*
X68819591Y-123279436D01*
X68823906Y-123404511D01*
X68831407Y-123450086D01*
X68844342Y-123485904D01*
X68857350Y-123505756D01*
X68874173Y-123521812D01*
X68918919Y-123543454D01*
X68994027Y-123556472D01*
X69164355Y-123561308D01*
X69659558Y-123561308D01*
X69659558Y-122983521D01*
X69167866Y-122983521D01*
X68998959Y-122987069D01*
X68946997Y-122992748D01*
X68910406Y-123002137D01*
X68889485Y-123012581D01*
X68872814Y-123026186D01*
X68866837Y-123032598D01*
X68852291Y-123052385D01*
X68840731Y-123077043D01*
X68825434Y-123147440D01*
X68819591Y-123279436D01*
X68469832Y-123279436D01*
X68469561Y-123258446D01*
X68472485Y-123099300D01*
X68483187Y-122991930D01*
X68502839Y-122911774D01*
X68517825Y-122873308D01*
X68536652Y-122838748D01*
X68558271Y-122809302D01*
X68583351Y-122783482D01*
X68642979Y-122743180D01*
X68717440Y-122716854D01*
X68730366Y-122714090D01*
X68827225Y-122698274D01*
X68962462Y-122692195D01*
X69167866Y-122691269D01*
X70009588Y-122691269D01*
X70009588Y-123858750D01*
G37*
G36*
X67880076Y-123011246D02*
G01*
X68003335Y-123018704D01*
X68081837Y-123028348D01*
X68143732Y-123041323D01*
X68190437Y-123057786D01*
X68228137Y-123079115D01*
X68259475Y-123103192D01*
X68281823Y-123126785D01*
X68299983Y-123153340D01*
X68324499Y-123215651D01*
X68335685Y-123289129D01*
X68025878Y-123289129D01*
X68017918Y-123253324D01*
X68010245Y-123240247D01*
X67998770Y-123229951D01*
X67959361Y-123216209D01*
X67868758Y-123209182D01*
X67772171Y-123208300D01*
X67671591Y-123211705D01*
X67635984Y-123217045D01*
X67608737Y-123225772D01*
X67591353Y-123236393D01*
X67578579Y-123250426D01*
X67564674Y-123287994D01*
X67560443Y-123353090D01*
X67560443Y-123396825D01*
X67574411Y-123396825D01*
X67602448Y-123370972D01*
X67633476Y-123352752D01*
X67694508Y-123337302D01*
X67808884Y-123332101D01*
X68017700Y-123335179D01*
X68141855Y-123346955D01*
X68192192Y-123358357D01*
X68230168Y-123370789D01*
X68263386Y-123387143D01*
X68289587Y-123405580D01*
X68311950Y-123427485D01*
X68344596Y-123480230D01*
X68363822Y-123549636D01*
X68368887Y-123620994D01*
X68366349Y-123674549D01*
X68358352Y-123720827D01*
X68347563Y-123753061D01*
X68332570Y-123781060D01*
X68315144Y-123802907D01*
X68293816Y-123821626D01*
X68238260Y-123850415D01*
X68156319Y-123869671D01*
X68030393Y-123878152D01*
X68008400Y-123878289D01*
X67841013Y-123875562D01*
X67736995Y-123866240D01*
X67677680Y-123850354D01*
X67642137Y-123833149D01*
X67612788Y-123812358D01*
X67574259Y-123765941D01*
X67562199Y-123743574D01*
X67549910Y-123743574D01*
X67549910Y-123857299D01*
X67252392Y-123857299D01*
X67252392Y-123585961D01*
X67565633Y-123585961D01*
X67568223Y-123609357D01*
X67576581Y-123628856D01*
X67604381Y-123652790D01*
X67657714Y-123669474D01*
X67762563Y-123679271D01*
X67845673Y-123680605D01*
X67933645Y-123677921D01*
X67995243Y-123668900D01*
X68021443Y-123659674D01*
X68040072Y-123647226D01*
X68050332Y-123634311D01*
X68056494Y-123618799D01*
X68059156Y-123594738D01*
X68056536Y-123571055D01*
X68047965Y-123551733D01*
X68020225Y-123529457D01*
X67966117Y-123514664D01*
X67855776Y-123507312D01*
X67819417Y-123507040D01*
X67677641Y-123508795D01*
X67619901Y-123515817D01*
X67599119Y-123525687D01*
X67583126Y-123538904D01*
X67572872Y-123553765D01*
X67567023Y-123571068D01*
X67565633Y-123585961D01*
X67252392Y-123585961D01*
X67252392Y-123358357D01*
X67255008Y-123273635D01*
X67263552Y-123207961D01*
X67273773Y-123170363D01*
X67287870Y-123138307D01*
X67322459Y-123091064D01*
X67354366Y-123063193D01*
X67389739Y-123042254D01*
X67458658Y-123021860D01*
X67573945Y-123011119D01*
X67726681Y-123008784D01*
X67880076Y-123011246D01*
G37*
G36*
X67225220Y-123031072D02*
G01*
X66817410Y-123858750D01*
X66416700Y-123858750D01*
X66008967Y-123031072D01*
X66360676Y-123031072D01*
X66616215Y-123619010D01*
X66873434Y-123031072D01*
X67225220Y-123031072D01*
G37*
G36*
X65584661Y-123011435D02*
G01*
X65699402Y-123020219D01*
X65759425Y-123030143D01*
X65809013Y-123043748D01*
X65845841Y-123058952D01*
X65878388Y-123077504D01*
X65885471Y-123082286D01*
X65915115Y-123106213D01*
X65939414Y-123133400D01*
X65956275Y-123160235D01*
X65969824Y-123191276D01*
X65988515Y-123272473D01*
X65997089Y-123403908D01*
X65997441Y-123447200D01*
X65994809Y-123550305D01*
X65986148Y-123631663D01*
X65975920Y-123677662D01*
X65961808Y-123716312D01*
X65945976Y-123745139D01*
X65926615Y-123770259D01*
X65892493Y-123801352D01*
X65861950Y-123820912D01*
X65826663Y-123837292D01*
X65737936Y-123861135D01*
X65602765Y-123875188D01*
X65463694Y-123878289D01*
X65317427Y-123875642D01*
X65197371Y-123866879D01*
X65127591Y-123856450D01*
X65068566Y-123842000D01*
X65027304Y-123826729D01*
X64992312Y-123808189D01*
X64965834Y-123788557D01*
X64943671Y-123765925D01*
X64911382Y-123712145D01*
X64890647Y-123639156D01*
X64884457Y-123593670D01*
X65192509Y-123593670D01*
X65200452Y-123623480D01*
X65214964Y-123645810D01*
X65248995Y-123665424D01*
X65314608Y-123676925D01*
X65439270Y-123680605D01*
X65522308Y-123678088D01*
X65585334Y-123670238D01*
X65619890Y-123660883D01*
X65645681Y-123648274D01*
X65649243Y-123645800D01*
X65665942Y-123629624D01*
X65677327Y-123608730D01*
X65686644Y-123554504D01*
X65687711Y-123511925D01*
X64879267Y-123511925D01*
X64877512Y-123427966D01*
X64879988Y-123342252D01*
X65188998Y-123342252D01*
X65687711Y-123342252D01*
X65683786Y-123301822D01*
X65673751Y-123269572D01*
X65662332Y-123251474D01*
X65646701Y-123236674D01*
X65602669Y-123216372D01*
X65525232Y-123204297D01*
X65426982Y-123201355D01*
X65343348Y-123203889D01*
X65281115Y-123211856D01*
X65248509Y-123221116D01*
X65224487Y-123233590D01*
X65213498Y-123243029D01*
X65199808Y-123261228D01*
X65192602Y-123286559D01*
X65188998Y-123342252D01*
X64879988Y-123342252D01*
X64880041Y-123340415D01*
X64887974Y-123267406D01*
X64898360Y-123218945D01*
X64912669Y-123177422D01*
X64928852Y-123145660D01*
X64948500Y-123118005D01*
X64979025Y-123087553D01*
X65009822Y-123065854D01*
X65045021Y-123048231D01*
X65127001Y-123025533D01*
X65257402Y-123012302D01*
X65432248Y-123008784D01*
X65584661Y-123011435D01*
G37*
G36*
X64312624Y-122691269D02*
G01*
X64312624Y-123858750D01*
X63939848Y-123858750D01*
X63939848Y-123438652D01*
X63136594Y-123438652D01*
X63136594Y-123858750D01*
X62763895Y-123858750D01*
X62763895Y-122691269D01*
X63136594Y-122691269D01*
X63136594Y-123111366D01*
X63939848Y-123111366D01*
X63939848Y-122691269D01*
X64312624Y-122691269D01*
G37*
G36*
X62150139Y-123011246D02*
G01*
X62273398Y-123018704D01*
X62351900Y-123028348D01*
X62413795Y-123041323D01*
X62460500Y-123057786D01*
X62498200Y-123079115D01*
X62529538Y-123103192D01*
X62551886Y-123126785D01*
X62570046Y-123153340D01*
X62594561Y-123215651D01*
X62605748Y-123289129D01*
X62295941Y-123289129D01*
X62287981Y-123253324D01*
X62280308Y-123240247D01*
X62268833Y-123229951D01*
X62229424Y-123216209D01*
X62138821Y-123209182D01*
X62042234Y-123208300D01*
X61941654Y-123211705D01*
X61906046Y-123217045D01*
X61878800Y-123225772D01*
X61861416Y-123236393D01*
X61848642Y-123250426D01*
X61834737Y-123287994D01*
X61830506Y-123353090D01*
X61830506Y-123396825D01*
X61844473Y-123396825D01*
X61872511Y-123370972D01*
X61903538Y-123352752D01*
X61964571Y-123337302D01*
X62078947Y-123332101D01*
X62287763Y-123335179D01*
X62411917Y-123346955D01*
X62462255Y-123358357D01*
X62500231Y-123370789D01*
X62533449Y-123387143D01*
X62559649Y-123405580D01*
X62582013Y-123427485D01*
X62614659Y-123480230D01*
X62633884Y-123549636D01*
X62638950Y-123620994D01*
X62636412Y-123674549D01*
X62628415Y-123720827D01*
X62617626Y-123753061D01*
X62602632Y-123781060D01*
X62585207Y-123802907D01*
X62563879Y-123821626D01*
X62508323Y-123850415D01*
X62426382Y-123869671D01*
X62300455Y-123878152D01*
X62278462Y-123878289D01*
X62111076Y-123875562D01*
X62007058Y-123866240D01*
X61947742Y-123850354D01*
X61912200Y-123833149D01*
X61882851Y-123812358D01*
X61844322Y-123765941D01*
X61832261Y-123743574D01*
X61819973Y-123743574D01*
X61819973Y-123857299D01*
X61522455Y-123857299D01*
X61522455Y-123585961D01*
X61835696Y-123585961D01*
X61838286Y-123609357D01*
X61846644Y-123628856D01*
X61874444Y-123652790D01*
X61927776Y-123669474D01*
X62032626Y-123679271D01*
X62115736Y-123680605D01*
X62203708Y-123677921D01*
X62265305Y-123668900D01*
X62291506Y-123659674D01*
X62310135Y-123647226D01*
X62320395Y-123634311D01*
X62326557Y-123618799D01*
X62329219Y-123594738D01*
X62326599Y-123571055D01*
X62318028Y-123551733D01*
X62290288Y-123529457D01*
X62236180Y-123514664D01*
X62125839Y-123507312D01*
X62089480Y-123507040D01*
X61947704Y-123508795D01*
X61889964Y-123515817D01*
X61869181Y-123525687D01*
X61853188Y-123538904D01*
X61842935Y-123553765D01*
X61837086Y-123571068D01*
X61835696Y-123585961D01*
X61522455Y-123585961D01*
X61522455Y-123358357D01*
X61525071Y-123273635D01*
X61533615Y-123207961D01*
X61543835Y-123170363D01*
X61557933Y-123138307D01*
X61592522Y-123091064D01*
X61624429Y-123063193D01*
X61659802Y-123042254D01*
X61728720Y-123021860D01*
X61844008Y-123011119D01*
X61996744Y-123008784D01*
X62150139Y-123011246D01*
G37*
G36*
X61387816Y-123029850D02*
G01*
X61387816Y-123858750D01*
X61078085Y-123858750D01*
X61078085Y-123516886D01*
X61075336Y-123420606D01*
X61065861Y-123354959D01*
X61056229Y-123326759D01*
X61043144Y-123304537D01*
X61032595Y-123292411D01*
X60991110Y-123264722D01*
X60927621Y-123247212D01*
X60843612Y-123241578D01*
X60785122Y-123244069D01*
X60738061Y-123251732D01*
X60708579Y-123261591D01*
X60685373Y-123274975D01*
X60672108Y-123287145D01*
X60654358Y-123310981D01*
X60644314Y-123342353D01*
X60639043Y-123427073D01*
X60638830Y-123471319D01*
X60638830Y-123858750D01*
X60329099Y-123858750D01*
X60329099Y-123516886D01*
X60326350Y-123422295D01*
X60316875Y-123358013D01*
X60307119Y-123329727D01*
X60293831Y-123306742D01*
X60283609Y-123294167D01*
X60244104Y-123265267D01*
X60184745Y-123247590D01*
X60099893Y-123241578D01*
X60040590Y-123244069D01*
X59993239Y-123251732D01*
X59963278Y-123261643D01*
X59939130Y-123275112D01*
X59924877Y-123287145D01*
X59904205Y-123314557D01*
X59894095Y-123357665D01*
X59889844Y-123471319D01*
X59889844Y-123858750D01*
X59580113Y-123858750D01*
X59580113Y-123471319D01*
X59583031Y-123346116D01*
X59593682Y-123255494D01*
X59604282Y-123215298D01*
X59618831Y-123180879D01*
X59657853Y-123125888D01*
X59667583Y-123115564D01*
X59696072Y-123089280D01*
X59727849Y-123066981D01*
X59800314Y-123034655D01*
X59894624Y-123015076D01*
X60012347Y-123008784D01*
X60085909Y-123011283D01*
X60150025Y-123019004D01*
X60196863Y-123029711D01*
X60237965Y-123044500D01*
X60270279Y-123061402D01*
X60298577Y-123081891D01*
X60342851Y-123132042D01*
X60369323Y-123182044D01*
X60391988Y-123145518D01*
X60417915Y-123113669D01*
X60445075Y-123088251D01*
X60475559Y-123066585D01*
X60546822Y-123034268D01*
X60639186Y-123014675D01*
X60745610Y-123008784D01*
X60815108Y-123011247D01*
X60876446Y-123018719D01*
X60923525Y-123029430D01*
X60964779Y-123044133D01*
X60997184Y-123060911D01*
X61025120Y-123081073D01*
X61047607Y-123103375D01*
X61066311Y-123128827D01*
X61079841Y-123154109D01*
X61095564Y-123154109D01*
X61095564Y-123029850D01*
X61387816Y-123029850D01*
G37*
G36*
X59447306Y-123030843D02*
G01*
X59447306Y-123858750D01*
X59137576Y-123858750D01*
X59137576Y-123030843D01*
X59447306Y-123030843D01*
G37*
G36*
X59447306Y-122691269D02*
G01*
X59447306Y-122924063D01*
X59137576Y-122924063D01*
X59137576Y-122691269D01*
X59447306Y-122691269D01*
G37*
G36*
X58997899Y-122691269D02*
G01*
X58997899Y-123858750D01*
X58688169Y-123858750D01*
X58688169Y-122691269D01*
X58997899Y-122691269D01*
G37*
G36*
X58455757Y-122842470D02*
G01*
X58455757Y-123033209D01*
X58618483Y-123033209D01*
X58618483Y-123255470D01*
X58455757Y-123255470D01*
X58455757Y-123494828D01*
X58454001Y-123617941D01*
X58449301Y-123675110D01*
X58439409Y-123720523D01*
X58427771Y-123749438D01*
X58412184Y-123774874D01*
X58389277Y-123801352D01*
X58362786Y-123823468D01*
X58332632Y-123841242D01*
X58262886Y-123863795D01*
X58154856Y-123876010D01*
X58049779Y-123878289D01*
X57947459Y-123875702D01*
X57864461Y-123867361D01*
X57814151Y-123857069D01*
X57771565Y-123842863D01*
X57739926Y-123827062D01*
X57712515Y-123807815D01*
X57678759Y-123773341D01*
X57654877Y-123737749D01*
X57637843Y-123699382D01*
X57622082Y-123621040D01*
X57615790Y-123505208D01*
X57899265Y-123505208D01*
X57901459Y-123585398D01*
X57911553Y-123616186D01*
X57920880Y-123630146D01*
X57934314Y-123641067D01*
X57975356Y-123654627D01*
X58023523Y-123657860D01*
X58064346Y-123655356D01*
X58095160Y-123647602D01*
X58112688Y-123637968D01*
X58125751Y-123624927D01*
X58130303Y-123617941D01*
X58141729Y-123592228D01*
X58145675Y-123543206D01*
X58146026Y-123494828D01*
X58146026Y-123255470D01*
X57656014Y-123255470D01*
X57656014Y-123033209D01*
X58146026Y-123033209D01*
X58146026Y-122842470D01*
X58455757Y-122842470D01*
G37*
G36*
X57110984Y-123011377D02*
G01*
X57230545Y-123019754D01*
X57297436Y-123029646D01*
X57352233Y-123043191D01*
X57390912Y-123057815D01*
X57423720Y-123075503D01*
X57436272Y-123084042D01*
X57465142Y-123108118D01*
X57488730Y-123135315D01*
X57505251Y-123162401D01*
X57518384Y-123193554D01*
X57536035Y-123274738D01*
X57542975Y-123416441D01*
X57540197Y-123544997D01*
X57530520Y-123640002D01*
X57520367Y-123684810D01*
X57506439Y-123721790D01*
X57490852Y-123749031D01*
X57471743Y-123772834D01*
X57446728Y-123796086D01*
X57415710Y-123818202D01*
X57380256Y-123836237D01*
X57298071Y-123859602D01*
X57167877Y-123873683D01*
X56955037Y-123878289D01*
X56783305Y-123875547D01*
X56657559Y-123866125D01*
X56598154Y-123856183D01*
X56549645Y-123842582D01*
X56514790Y-123827681D01*
X56484479Y-123809509D01*
X56466780Y-123796086D01*
X56439413Y-123769713D01*
X56417393Y-123739887D01*
X56391191Y-123676845D01*
X56375835Y-123583326D01*
X56370952Y-123440942D01*
X56680264Y-123440942D01*
X56683150Y-123507120D01*
X56693583Y-123557655D01*
X56704315Y-123580872D01*
X56719118Y-123599776D01*
X56757785Y-123624245D01*
X56821007Y-123639303D01*
X56955037Y-123645571D01*
X57038175Y-123643124D01*
X57104301Y-123635767D01*
X57163254Y-123619315D01*
X57188055Y-123606418D01*
X57206537Y-123589448D01*
X57224740Y-123550479D01*
X57232774Y-123481337D01*
X57233245Y-123449719D01*
X57230391Y-123384042D01*
X57220185Y-123333422D01*
X57209483Y-123309472D01*
X57194698Y-123289896D01*
X57156281Y-123264484D01*
X57094249Y-123248670D01*
X56982785Y-123241741D01*
X56955037Y-123241578D01*
X56879550Y-123243969D01*
X56815437Y-123250934D01*
X56755521Y-123266079D01*
X56730518Y-123278739D01*
X56711278Y-123295533D01*
X56690923Y-123334798D01*
X56681189Y-123401031D01*
X56680264Y-123440942D01*
X56370952Y-123440942D01*
X56370533Y-123428729D01*
X56373236Y-123324057D01*
X56382387Y-123243091D01*
X56392689Y-123200386D01*
X56406911Y-123164484D01*
X56423005Y-123137448D01*
X56442777Y-123113668D01*
X56477237Y-123084042D01*
X56507636Y-123065108D01*
X56543161Y-123049279D01*
X56633852Y-123026357D01*
X56778020Y-123012427D01*
X56956792Y-123008784D01*
X57110984Y-123011377D01*
G37*
G36*
X56255052Y-123029850D02*
G01*
X56255052Y-123858750D01*
X55945322Y-123858750D01*
X55945322Y-123527419D01*
X55941915Y-123406633D01*
X55936572Y-123367408D01*
X55927838Y-123337730D01*
X55901540Y-123297733D01*
X55899832Y-123295922D01*
X55880759Y-123279524D01*
X55857467Y-123266286D01*
X55794644Y-123248488D01*
X55688104Y-123241578D01*
X55609544Y-123244169D01*
X55550186Y-123252535D01*
X55518597Y-123262238D01*
X55493812Y-123275469D01*
X55479810Y-123287145D01*
X55462172Y-123308114D01*
X55450828Y-123334703D01*
X55442553Y-123402572D01*
X55441342Y-123481852D01*
X55441342Y-123858750D01*
X55131611Y-123858750D01*
X55131611Y-123481852D01*
X55134570Y-123349710D01*
X55145511Y-123256039D01*
X55156123Y-123216084D01*
X55170648Y-123181831D01*
X55210208Y-123125501D01*
X55222592Y-123112053D01*
X55251328Y-123086223D01*
X55283421Y-123064524D01*
X55356097Y-123033990D01*
X55454286Y-123015355D01*
X55595368Y-123008784D01*
X55674886Y-123011302D01*
X55742647Y-123019154D01*
X55789595Y-123029697D01*
X55830259Y-123044251D01*
X55861656Y-123060761D01*
X55889005Y-123080800D01*
X55932282Y-123130559D01*
X55947077Y-123155788D01*
X55962800Y-123155788D01*
X55962800Y-123029850D01*
X56255052Y-123029850D01*
G37*
X104795163Y-36394895D02*
X104795163Y-36966323D01*
X104795163Y-36966323D02*
X104833258Y-37080609D01*
X104833258Y-37080609D02*
X104909449Y-37156800D01*
X104909449Y-37156800D02*
X105023734Y-37194895D01*
X105023734Y-37194895D02*
X105099925Y-37194895D01*
X104414210Y-37194895D02*
X104414210Y-36394895D01*
X104414210Y-36394895D02*
X104109448Y-36394895D01*
X104109448Y-36394895D02*
X104033258Y-36432990D01*
X104033258Y-36432990D02*
X103995163Y-36471085D01*
X103995163Y-36471085D02*
X103957067Y-36547276D01*
X103957067Y-36547276D02*
X103957067Y-36661561D01*
X103957067Y-36661561D02*
X103995163Y-36737752D01*
X103995163Y-36737752D02*
X104033258Y-36775847D01*
X104033258Y-36775847D02*
X104109448Y-36813942D01*
X104109448Y-36813942D02*
X104414210Y-36813942D01*
X103195163Y-37194895D02*
X103652306Y-37194895D01*
X103423734Y-37194895D02*
X103423734Y-36394895D01*
X103423734Y-36394895D02*
X103499925Y-36509180D01*
X103499925Y-36509180D02*
X103576115Y-36585371D01*
X103576115Y-36585371D02*
X103652306Y-36623466D01*
X112298170Y-37194895D02*
X112564837Y-36813942D01*
X112755313Y-37194895D02*
X112755313Y-36394895D01*
X112755313Y-36394895D02*
X112450551Y-36394895D01*
X112450551Y-36394895D02*
X112374361Y-36432990D01*
X112374361Y-36432990D02*
X112336266Y-36471085D01*
X112336266Y-36471085D02*
X112298170Y-36547276D01*
X112298170Y-36547276D02*
X112298170Y-36661561D01*
X112298170Y-36661561D02*
X112336266Y-36737752D01*
X112336266Y-36737752D02*
X112374361Y-36775847D01*
X112374361Y-36775847D02*
X112450551Y-36813942D01*
X112450551Y-36813942D02*
X112755313Y-36813942D01*
X111802932Y-36394895D02*
X111650551Y-36394895D01*
X111650551Y-36394895D02*
X111574361Y-36432990D01*
X111574361Y-36432990D02*
X111498170Y-36509180D01*
X111498170Y-36509180D02*
X111460075Y-36661561D01*
X111460075Y-36661561D02*
X111460075Y-36928228D01*
X111460075Y-36928228D02*
X111498170Y-37080609D01*
X111498170Y-37080609D02*
X111574361Y-37156800D01*
X111574361Y-37156800D02*
X111650551Y-37194895D01*
X111650551Y-37194895D02*
X111802932Y-37194895D01*
X111802932Y-37194895D02*
X111879123Y-37156800D01*
X111879123Y-37156800D02*
X111955313Y-37080609D01*
X111955313Y-37080609D02*
X111993409Y-36928228D01*
X111993409Y-36928228D02*
X111993409Y-36661561D01*
X111993409Y-36661561D02*
X111955313Y-36509180D01*
X111955313Y-36509180D02*
X111879123Y-36432990D01*
X111879123Y-36432990D02*
X111802932Y-36394895D01*
X111117218Y-37194895D02*
X111117218Y-36394895D01*
X111117218Y-36394895D02*
X110850552Y-36966323D01*
X110850552Y-36966323D02*
X110583885Y-36394895D01*
X110583885Y-36394895D02*
X110583885Y-37194895D01*
X110393409Y-37271085D02*
X109783885Y-37271085D01*
X109669599Y-36394895D02*
X109479123Y-37194895D01*
X109479123Y-37194895D02*
X109326742Y-36623466D01*
X109326742Y-36623466D02*
X109174361Y-37194895D01*
X109174361Y-37194895D02*
X108983885Y-36394895D01*
X108679122Y-36775847D02*
X108412456Y-36775847D01*
X108298170Y-37194895D02*
X108679122Y-37194895D01*
X108679122Y-37194895D02*
X108679122Y-36394895D01*
X108679122Y-36394895D02*
X108298170Y-36394895D01*
D11*
%TO.C,JP1*%
X107380000Y-35830000D02*
X105980000Y-35830000D01*
X105280000Y-36530000D02*
X105280000Y-37130000D01*
X108080000Y-37130000D02*
X108080000Y-36530000D01*
X105980000Y-37830000D02*
X107380000Y-37830000D01*
X105280000Y-36530000D02*
G75*
G02*
X105980000Y-35830000I700000J0D01*
G01*
X107380000Y-35830000D02*
G75*
G02*
X108080000Y-36530000I1J-699999D01*
G01*
X105980000Y-37830000D02*
G75*
G02*
X105280000Y-37130000I0J700000D01*
G01*
X108080000Y-37130000D02*
G75*
G02*
X107380000Y-37830000I-699999J-1D01*
G01*
%TD*%
M02*
